<?xml version="1.0" encoding="UTF-8" standalone="no"?>
<!DOCTYPE svg PUBLIC "-//W3C//DTD SVG 1.1//EN"
 "http://www.w3.org/Graphics/SVG/1.1/DTD/svg11.dtd">
<!-- Generated by graphviz version 10.0.1 (20240210.2158)
 -->
<!-- Title: AEFileWriter Pages: 1 -->
<svg width="1120pt" height="314pt"
 viewBox="0.00 0.00 1119.55 314.00" xmlns="http://www.w3.org/2000/svg" xmlns:xlink="http://www.w3.org/1999/xlink">
<g id="graph0" class="graph" transform="scale(1 1) rotate(0) translate(4 310)">
<title>AEFileWriter</title>
<!-- Node1 -->
<g id="Node000001" class="node">
<title>Node1</title>
<g id="a_Node000001"><a xlink:title="ArtyK&#39;s Engine File Writer; umm, it writes data to given file.">
<polygon fill="#999999" stroke="#666666" points="1111.55,-134 1040.05,-134 1040.05,-114 1111.55,-114 1111.55,-134"/>
<text text-anchor="middle" x="1075.8" y="-120.5" font-family="Helvetica,sans-Serif" font-size="10.00">AEFileWriter</text>
</a>
</g>
</g>
<!-- Node2 -->
<g id="Node000002" class="node">
<title>Node2</title>
<g id="a_Node000002"><a xlink:href="../../d0/d8a/class_____a_e_module_base.html" target="_top" xlink:title=" ">
<polygon fill="white" stroke="#666666" points="923.8,-218 756.3,-218 756.3,-198 923.8,-198 923.8,-218"/>
<text text-anchor="middle" x="840.05" y="-204.5" font-family="Helvetica,sans-Serif" font-size="10.00">__AEModuleBase&lt; AEFileWriter &gt;</text>
</a>
</g>
</g>
<!-- Node2&#45;&gt;Node1 -->
<g id="edge1_Node000001_Node000002" class="edge">
<title>Node2&#45;&gt;Node1</title>
<g id="a_edge1_Node000001_Node000002"><a xlink:title=" ">
<path fill="none" stroke="#63b8ff" d="M935.16,-202.24C964.22,-197.65 995.52,-189.7 1022.05,-176 1041.47,-165.97 1058.36,-146.33 1067.52,-134.27"/>
<polygon fill="#63b8ff" stroke="#63b8ff" points="935.04,-198.72 925.65,-203.62 936.05,-205.65 935.04,-198.72"/>
</a>
</g>
</g>
<!-- Node3 -->
<g id="Node000003" class="node">
<title>Node3</title>
<g id="a_Node000003"><a xlink:title=" ">
<polygon fill="white" stroke="#666666" points="398.3,-247 269.8,-247 269.8,-227 398.3,-227 398.3,-247"/>
<text text-anchor="middle" x="334.05" y="-233.5" font-family="Helvetica,sans-Serif" font-size="10.00">std::atomic&lt; std::size_t &gt;</text>
</a>
</g>
</g>
<!-- Node3&#45;&gt;Node2 -->
<g id="edge2_Node000002_Node000003" class="edge">
<title>Node3&#45;&gt;Node2</title>
<g id="a_edge2_Node000002_Node000003"><a xlink:title=" ">
<path fill="none" stroke="#9a32cd" stroke-dasharray="5,2" d="M410.07,-227.39C443,-223.53 482.14,-219.43 517.55,-217 598.46,-211.44 691.06,-209.29 756.03,-208.48"/>
<polygon fill="#9a32cd" stroke="#9a32cd" points="409.72,-223.91 400.21,-228.56 410.55,-230.86 409.72,-223.91"/>
</a>
</g>
<text text-anchor="middle" x="580.68" y="-219.5" font-family="Helvetica,sans-Serif" font-size="10.00" fill="grey"> m_ullModulesAlive</text>
</g>
<!-- Node7 -->
<g id="Node000007" class="node">
<title>Node7</title>
<g id="a_Node000007"><a xlink:href="../../d0/d8a/class_____a_e_module_base.html" target="_top" xlink:title="This is a base class for all basic modules, meaning that the module is not using other modules to wor...">
<polygon fill="white" stroke="#666666" points="639.3,-258 522.05,-258 522.05,-238 639.3,-238 639.3,-258"/>
<text text-anchor="middle" x="580.68" y="-244.5" font-family="Helvetica,sans-Serif" font-size="10.00">__AEModuleBase&lt; T &gt;</text>
</a>
</g>
</g>
<!-- Node3&#45;&gt;Node7 -->
<g id="edge7_Node000007_Node000003" class="edge">
<title>Node3&#45;&gt;Node7</title>
<g id="a_edge7_Node000007_Node000003"><a xlink:title=" ">
<path fill="none" stroke="#9a32cd" stroke-dasharray="5,2" d="M410.11,-240.37C446.04,-241.99 488.41,-243.9 521.8,-245.4"/>
<polygon fill="#9a32cd" stroke="#9a32cd" points="410.34,-236.88 400.2,-239.93 410.03,-243.88 410.34,-236.88"/>
</a>
</g>
<text text-anchor="middle" x="457.93" y="-246.5" font-family="Helvetica,sans-Serif" font-size="10.00" fill="grey"> m_ullModulesAlive</text>
</g>
<!-- Node4 -->
<g id="Node000004" class="node">
<title>Node4</title>
<g id="a_Node000004"><a xlink:title=" ">
<polygon fill="white" stroke="#666666" points="144.18,-285 101.93,-285 101.93,-265 144.18,-265 144.18,-285"/>
<text text-anchor="middle" x="123.05" y="-271.5" font-family="Helvetica,sans-Serif" font-size="10.00">size_t</text>
</a>
</g>
</g>
<!-- Node4&#45;&gt;Node1 -->
<g id="edge14_Node000001_Node000004" class="edge">
<title>Node4&#45;&gt;Node1</title>
<g id="a_edge14_Node000001_Node000004"><a xlink:title=" ">
<path fill="none" stroke="#9a32cd" stroke-dasharray="5,2" d="M155.83,-279.7C196.72,-285.32 270.01,-294 333.05,-294 333.05,-294 333.05,-294 841.05,-294 931.29,-294 954.4,-261.72 1022.05,-202 1044.6,-182.09 1061.99,-150.51 1069.98,-134.32"/>
<polygon fill="#9a32cd" stroke="#9a32cd" points="156.35,-276.24 145.96,-278.31 155.38,-283.17 156.35,-276.24"/>
</a>
</g>
<text text-anchor="middle" x="580.68" y="-296.5" font-family="Helvetica,sans-Serif" font-size="10.00" fill="grey"> m_szLastWrittenAmount</text>
</g>
<!-- Node4&#45;&gt;Node3 -->
<g id="edge3_Node000003_Node000004" class="edge">
<title>Node4&#45;&gt;Node3</title>
<g id="a_edge3_Node000003_Node000004"><a xlink:title=" ">
<path fill="none" stroke="#9a32cd" stroke-dasharray="5,2" d="M155.69,-269.25C187.4,-263.48 236.91,-254.48 275.58,-247.45"/>
<polygon fill="#9a32cd" stroke="#9a32cd" points="155.17,-265.78 145.96,-271.02 156.42,-272.67 155.17,-265.78"/>
</a>
</g>
<text text-anchor="middle" x="218.43" y="-265.5" font-family="Helvetica,sans-Serif" font-size="10.00" fill="grey"> ptr</text>
</g>
<!-- Node5 -->
<g id="Node000005" class="node">
<title>Node5</title>
<g id="a_Node000005"><a xlink:title=" ">
<polygon fill="white" stroke="#666666" points="167.05,-233 79.05,-233 79.05,-213 167.05,-213 167.05,-233"/>
<text text-anchor="middle" x="123.05" y="-219.5" font-family="Helvetica,sans-Serif" font-size="10.00">std::atomic&lt; T &gt;</text>
</a>
</g>
</g>
<!-- Node5&#45;&gt;Node3 -->
<g id="edge4_Node000003_Node000005" class="edge">
<title>Node5&#45;&gt;Node3</title>
<g id="a_edge4_Node000003_Node000005"><a xlink:title=" ">
<path fill="none" stroke="orange" stroke-dasharray="5,2" d="M178.5,-226.65C206.38,-228.52 240.49,-230.8 269.57,-232.75"/>
<polygon fill="orange" stroke="orange" points="179.08,-223.18 168.87,-226 178.61,-230.16 179.08,-223.18"/>
</a>
</g>
<text text-anchor="middle" x="218.43" y="-233.5" font-family="Helvetica,sans-Serif" font-size="10.00" fill="grey"> &lt; std::size_t &gt;</text>
</g>
<!-- Node11 -->
<g id="Node000011" class="node">
<title>Node11</title>
<g id="a_Node000011"><a xlink:title=" ">
<polygon fill="white" stroke="#666666" points="385.55,-172 282.55,-172 282.55,-152 385.55,-152 385.55,-172"/>
<text text-anchor="middle" x="334.05" y="-158.5" font-family="Helvetica,sans-Serif" font-size="10.00">std::atomic&lt; ullint &gt;</text>
</a>
</g>
</g>
<!-- Node5&#45;&gt;Node11 -->
<g id="edge13_Node000011_Node000005" class="edge">
<title>Node5&#45;&gt;Node11</title>
<g id="a_edge13_Node000011_Node000005"><a xlink:title=" ">
<path fill="none" stroke="orange" stroke-dasharray="5,2" d="M170.83,-209.35C209.07,-198.19 262.34,-182.64 297.24,-172.45"/>
<polygon fill="orange" stroke="orange" points="170.05,-205.93 161.43,-212.09 172.01,-212.65 170.05,-205.93"/>
</a>
</g>
<text text-anchor="middle" x="218.43" y="-206.5" font-family="Helvetica,sans-Serif" font-size="10.00" fill="grey"> &lt; ullint &gt;</text>
</g>
<!-- Node6 -->
<g id="Node000006" class="node">
<title>Node6</title>
<g id="a_Node000006"><a xlink:title=" ">
<polygon fill="white" stroke="#666666" points="28.8,-233 0,-233 0,-213 28.8,-213 28.8,-233"/>
<text text-anchor="middle" x="14.4" y="-219.5" font-family="Helvetica,sans-Serif" font-size="10.00">T</text>
</a>
</g>
</g>
<!-- Node6&#45;&gt;Node5 -->
<g id="edge5_Node000005_Node000006" class="edge">
<title>Node6&#45;&gt;Node5</title>
<g id="a_edge5_Node000005_Node000006"><a xlink:title=" ">
<path fill="none" stroke="#9a32cd" stroke-dasharray="5,2" d="M40.2,-223C51.66,-223 65.6,-223 78.71,-223"/>
<polygon fill="#9a32cd" stroke="#9a32cd" points="40.42,-219.5 30.42,-223 40.42,-226.5 40.42,-219.5"/>
</a>
</g>
<text text-anchor="middle" x="53.93" y="-225.5" font-family="Helvetica,sans-Serif" font-size="10.00" fill="grey"> ptr</text>
</g>
<!-- Node7&#45;&gt;Node2 -->
<g id="edge6_Node000002_Node000007" class="edge">
<title>Node7&#45;&gt;Node2</title>
<g id="a_edge6_Node000002_Node000007"><a xlink:title=" ">
<path fill="none" stroke="orange" stroke-dasharray="5,2" d="M651.08,-237.21C688.51,-231.4 734.5,-224.25 771.62,-218.48"/>
<polygon fill="orange" stroke="orange" points="650.6,-233.75 641.25,-238.74 651.67,-240.66 650.6,-233.75"/>
</a>
</g>
<text text-anchor="middle" x="700.05" y="-237.5" font-family="Helvetica,sans-Serif" font-size="10.00" fill="grey"> &lt; AEFileWriter &gt;</text>
</g>
<!-- Node8 -->
<g id="Node000008" class="node">
<title>Node8</title>
<g id="a_Node000008"><a xlink:title=" ">
<polygon fill="white" stroke="#666666" points="888.55,-134 791.55,-134 791.55,-114 888.55,-114 888.55,-134"/>
<text text-anchor="middle" x="840.05" y="-120.5" font-family="Helvetica,sans-Serif" font-size="10.00">unsigned long long</text>
</a>
</g>
</g>
<!-- Node8&#45;&gt;Node1 -->
<g id="edge8_Node000001_Node000008" class="edge">
<title>Node8&#45;&gt;Node1</title>
<g id="a_edge8_Node000001_Node000008"><a xlink:title=" ">
<path fill="none" stroke="#9a32cd" stroke-dasharray="5,2" d="M900.33,-124C944.28,-124 1002.72,-124 1039.56,-124"/>
<polygon fill="#9a32cd" stroke="#9a32cd" points="900.43,-120.5 890.43,-124 900.43,-127.5 900.43,-120.5"/>
</a>
</g>
<text text-anchor="middle" x="981.93" y="-126.5" font-family="Helvetica,sans-Serif" font-size="10.00" fill="grey"> m_ullFlushInterval</text>
</g>
<!-- Node9 -->
<g id="Node000009" class="node">
<title>Node9</title>
<g id="a_Node000009"><a xlink:title=" ">
<polygon fill="white" stroke="#666666" points="869.8,-96 810.3,-96 810.3,-76 869.8,-76 869.8,-96"/>
<text text-anchor="middle" x="840.05" y="-82.5" font-family="Helvetica,sans-Serif" font-size="10.00">std::string</text>
</a>
</g>
</g>
<!-- Node9&#45;&gt;Node1 -->
<g id="edge9_Node000001_Node000009" class="edge">
<title>Node9&#45;&gt;Node1</title>
<g id="a_edge9_Node000001_Node000009"><a xlink:title=" ">
<path fill="none" stroke="#9a32cd" stroke-dasharray="5,2" d="M881.42,-88.89C918.32,-92 974.26,-97.93 1022.05,-108 1029.07,-109.48 1036.51,-111.47 1043.51,-113.54"/>
<polygon fill="#9a32cd" stroke="#9a32cd" points="881.9,-85.42 871.65,-88.1 881.34,-92.39 881.9,-85.42"/>
</a>
</g>
<text text-anchor="middle" x="981.93" y="-110.5" font-family="Helvetica,sans-Serif" font-size="10.00" fill="grey"> m_sFilename</text>
</g>
<!-- Node10 -->
<g id="Node000010" class="node">
<title>Node10</title>
<g id="a_Node000010"><a xlink:title=" ">
<polygon fill="white" stroke="#666666" points="643.8,-96 517.55,-96 517.55,-76 643.8,-76 643.8,-96"/>
<text text-anchor="middle" x="580.68" y="-82.5" font-family="Helvetica,sans-Serif" font-size="10.00">std::basic_string&lt; Char &gt;</text>
</a>
</g>
</g>
<!-- Node10&#45;&gt;Node9 -->
<g id="edge10_Node000009_Node000010" class="edge">
<title>Node10&#45;&gt;Node9</title>
<g id="a_edge10_Node000009_Node000010"><a xlink:title=" ">
<path fill="none" stroke="#63b8ff" d="M655.37,-86C706.76,-86 772.55,-86 809.83,-86"/>
<polygon fill="#63b8ff" stroke="#63b8ff" points="655.49,-82.5 645.49,-86 655.49,-89.5 655.49,-82.5"/>
</a>
</g>
</g>
<!-- Node11&#45;&gt;Node1 -->
<g id="edge11_Node000001_Node000011" class="edge">
<title>Node11&#45;&gt;Node1</title>
<g id="a_edge11_Node000001_Node000011"><a xlink:title=" ">
<path fill="none" stroke="#9a32cd" stroke-dasharray="5,2" d="M397.15,-165.42C518.28,-170.89 794.2,-177.53 1022.05,-140 1029.7,-138.74 1037.79,-136.68 1045.27,-134.44"/>
<polygon fill="#9a32cd" stroke="#9a32cd" points="397.58,-161.93 387.42,-164.96 397.25,-168.93 397.58,-161.93"/>
</a>
</g>
<text text-anchor="middle" x="700.05" y="-170.5" font-family="Helvetica,sans-Serif" font-size="10.00" fill="grey"> m_ullTotalWrites</text>
</g>
<!-- Node12 -->
<g id="Node000012" class="node">
<title>Node12</title>
<g id="a_Node000012"><a xlink:title=" ">
<polygon fill="white" stroke="#666666" points="141.18,-172 104.93,-172 104.93,-152 141.18,-152 141.18,-172"/>
<text text-anchor="middle" x="123.05" y="-158.5" font-family="Helvetica,sans-Serif" font-size="10.00">ullint</text>
</a>
</g>
</g>
<!-- Node12&#45;&gt;Node11 -->
<g id="edge12_Node000011_Node000012" class="edge">
<title>Node12&#45;&gt;Node11</title>
<g id="a_edge12_Node000011_Node000012"><a xlink:title=" ">
<path fill="none" stroke="#9a32cd" stroke-dasharray="5,2" d="M152.7,-162C185.99,-162 241.54,-162 282.22,-162"/>
<polygon fill="#9a32cd" stroke="#9a32cd" points="153.02,-158.5 143.02,-162 153.02,-165.5 153.02,-158.5"/>
</a>
</g>
<text text-anchor="middle" x="218.43" y="-164.5" font-family="Helvetica,sans-Serif" font-size="10.00" fill="grey"> ptr</text>
</g>
<!-- Node13 -->
<g id="Node000013" class="node">
<title>Node13</title>
<g id="a_Node000013"><a xlink:title=" ">
<polygon fill="white" stroke="#666666" points="861.55,-58 818.55,-58 818.55,-38 861.55,-38 861.55,-58"/>
<text text-anchor="middle" x="840.05" y="-44.5" font-family="Helvetica,sans-Serif" font-size="10.00">FILE *</text>
</a>
</g>
</g>
<!-- Node13&#45;&gt;Node1 -->
<g id="edge15_Node000001_Node000013" class="edge">
<title>Node13&#45;&gt;Node1</title>
<g id="a_edge15_Node000001_Node000013"><a xlink:title=" ">
<path fill="none" stroke="#9a32cd" stroke-dasharray="5,2" d="M873.12,-48.41C910.54,-50.01 973.46,-56.25 1022.05,-79 1039.71,-87.27 1056.14,-103.09 1065.83,-113.6"/>
<polygon fill="#9a32cd" stroke="#9a32cd" points="873.55,-44.92 863.43,-48.09 873.31,-51.92 873.55,-44.92"/>
</a>
</g>
<text text-anchor="middle" x="981.93" y="-81.5" font-family="Helvetica,sans-Serif" font-size="10.00" fill="grey"> m_fpFilestr</text>
</g>
<!-- Node14 -->
<g id="Node000014" class="node">
<title>Node14</title>
<g id="a_Node000014"><a xlink:title=" ">
<polygon fill="white" stroke="#666666" points="860.05,-20 820.05,-20 820.05,0 860.05,0 860.05,-20"/>
<text text-anchor="middle" x="840.05" y="-6.5" font-family="Helvetica,sans-Serif" font-size="10.00">int8_t</text>
</a>
</g>
</g>
<!-- Node14&#45;&gt;Node1 -->
<g id="edge16_Node000001_Node000014" class="edge">
<title>Node14&#45;&gt;Node1</title>
<g id="a_edge16_Node000001_Node000014"><a xlink:title=" ">
<path fill="none" stroke="#9a32cd" stroke-dasharray="5,2" d="M871.75,-8.02C910.12,-7.06 976.31,-10.56 1022.05,-41 1048.92,-58.88 1064.86,-95.6 1071.37,-113.59"/>
<polygon fill="#9a32cd" stroke="#9a32cd" points="871.7,-4.52 861.84,-8.4 871.97,-11.51 871.7,-4.52"/>
</a>
</g>
<text text-anchor="middle" x="981.93" y="-43.5" font-family="Helvetica,sans-Serif" font-size="10.00" fill="grey"> m_cFlags</text>
</g>
</g>
</svg>
