<?xml version="1.0" encoding="UTF-8" standalone="no"?>
<!DOCTYPE svg PUBLIC "-//W3C//DTD SVG 1.1//EN"
 "http://www.w3.org/Graphics/SVG/1.1/DTD/svg11.dtd">
<!-- Generated by graphviz version 10.0.1 (20240210.2158)
 -->
<!-- Title: AEFileWriter Pages: 1 -->
<!--zoomable 425 -->

<svg id="main" version="1.1" xmlns="http://www.w3.org/2000/svg" xmlns:xlink="http://www.w3.org/1999/xlink" xml:space="preserve" onload="init(evt)">
<style type="text/css"><![CDATA[
.node, .edge {opacity: 0.7;}
.node.selected, .edge.selected {opacity: 1;}
.edge:hover path { stroke: red; }
.edge:hover polygon { stroke: red; fill: red; }
]]></style>

<defs>
  <circle id="rim" cx="0" cy="0" r="7"/>
  <circle id="rim2" cx="0" cy="0" r="3.5"/>
  <g id="zoomPlus">
    <use xlink:href="#rim" fill="#404040"><set attributeName="fill" to="#808080" begin="zoomplus.mouseover" end="zoomplus.mouseout"/></use>
    <path d="M-4,0h8M0,-4v8" fill="none" stroke="white" stroke-width="1.5" pointer-events="none"/>
  </g>
  <g id="zoomMin">
    <use xlink:href="#rim" fill="#404040"><set attributeName="fill" to="#808080" begin="zoomminus.mouseover" end="zoomminus.mouseout"/></use>
    <path d="M-4,0h8" fill="none" stroke="white" stroke-width="1.5" pointer-events="none"/>
  </g>
  <g id="arrowUp" transform="translate(30 24)">
    <use xlink:href="#rim"/>
    <path pointer-events="none" fill="none" stroke="white" stroke-width="1.5" d="M0,-3.0v7 M-2.5,-0.5L0,-3.0L2.5,-0.5"/>
  </g>
  <g id="arrowRight" transform="rotate(90) translate(36 -43)">
    <use xlink:href="#rim"/>
    <path pointer-events="none" fill="none" stroke="white" stroke-width="1.5" d="M0,-3.0v7 M-2.5,-0.5L0,-3.0L2.5,-0.5"/>
  </g>
  <g id="arrowDown" transform="rotate(180) translate(-30 -48)">
    <use xlink:href="#rim"/>
    <path pointer-events="none" fill="none" stroke="white" stroke-width="1.5" d="M0,-3.0v7 M-2.5,-0.5L0,-3.0L2.5,-0.5"/>
  </g>
  <g id="arrowLeft" transform="rotate(270) translate(-36 17)">
    <use xlink:href="#rim"/>
    <path pointer-events="none" fill="none" stroke="white" stroke-width="1.5" d="M0,-3.0v7 M-2.5,-0.5L0,-3.0L2.5,-0.5"/>
  </g>
  <g id="resetDef">
    <use xlink:href="#rim2" fill="#404040"><set attributeName="fill" to="#808080" begin="reset.mouseover" end="reset.mouseout"/></use>
  </g>
</defs>
<script type="application/ecmascript">
var viewWidth = 1133;
var viewHeight = 425;
var sectionId = 'dynsection-1';
</script>
<script type="application/ecmascript" xlink:href="../../svg.min.js"/>
<svg id="graph" class="graph">
<g id="viewport">
<title>AEFileWriter</title>
<!-- Node1 -->
<g id="Node000001" class="node">
<title>Node1</title>
<g id="a_Node000001"><a xlink:title="ArtyK&#39;s Engine File Writer; umm, it writes data to given file.">
<polygon fill="#999999" stroke="#666666" points="1125.05,-134 1053.55,-134 1053.55,-114 1125.05,-114 1125.05,-134"/>
<text text-anchor="middle" x="1089.3" y="-120.5" font-family="Helvetica,sans-Serif" font-size="10.00">AEFileWriter</text>
</a>
</g>
</g>
<!-- Node2 -->
<g id="Node000002" class="node">
<title>Node2</title>
<g id="a_Node000002"><a xlink:href="../../d0/d8a/class_____a_e_module_base.html" target="_top" xlink:title=" ">
<polygon fill="white" stroke="#666666" points="937.3,-272 769.8,-272 769.8,-252 937.3,-252 937.3,-272"/>
<text text-anchor="middle" x="853.55" y="-258.5" font-family="Helvetica,sans-Serif" font-size="10.00">__AEModuleBase&lt; AEFileWriter &gt;</text>
</a>
</g>
</g>
<!-- Node2&#45;&gt;Node1 -->
<g id="edge1_Node000001_Node000002" class="edge">
<title>Node2&#45;&gt;Node1</title>
<g id="a_edge1_Node000001_Node000002"><a xlink:title=" ">
<path fill="none" stroke="#63b8ff" d="M894.75,-247.42C932.87,-232.58 990.81,-207.33 1035.55,-176 1053.04,-163.76 1070.02,-145.53 1079.81,-134.22"/>
<polygon fill="#63b8ff" stroke="#63b8ff" points="893.57,-244.12 885.48,-250.97 896.07,-250.66 893.57,-244.12"/>
</a>
</g>
</g>
<!-- Node3 -->
<g id="Node000003" class="node">
<title>Node3</title>
<g id="a_Node000003"><a xlink:title=" ">
<polygon fill="white" stroke="#666666" points="398.3,-304 269.8,-304 269.8,-284 398.3,-284 398.3,-304"/>
<text text-anchor="middle" x="334.05" y="-290.5" font-family="Helvetica,sans-Serif" font-size="10.00">std::atomic&lt; std::size_t &gt;</text>
</a>
</g>
</g>
<!-- Node3&#45;&gt;Node2 -->
<g id="edge2_Node000002_Node000003" class="edge">
<title>Node3&#45;&gt;Node2</title>
<g id="a_edge2_Node000002_Node000003"><a xlink:title=" ">
<path fill="none" stroke="#9a32cd" stroke-dasharray="5,2" d="M409.53,-283.68C446.08,-279.02 490.79,-273.92 531.05,-271 611.94,-265.13 704.54,-263.03 769.52,-262.3"/>
<polygon fill="#9a32cd" stroke="#9a32cd" points="409.44,-280.17 399.97,-284.92 410.34,-287.11 409.44,-280.17"/>
</a>
</g>
<text text-anchor="middle" x="594.18" y="-273.5" font-family="Helvetica,sans-Serif" font-size="10.00" fill="grey"> m_ullModulesAlive</text>
</g>
<!-- Node10 -->
<g id="Node000010" class="node">
<title>Node10</title>
<g id="a_Node000010"><a xlink:href="../../d0/d8a/class_____a_e_module_base.html" target="_top" xlink:title="This is a base class for all the modules in the engine; all basic modules inherit from it.">
<polygon fill="white" stroke="#666666" points="652.8,-312 535.55,-312 535.55,-292 652.8,-292 652.8,-312"/>
<text text-anchor="middle" x="594.18" y="-298.5" font-family="Helvetica,sans-Serif" font-size="10.00">__AEModuleBase&lt; T &gt;</text>
</a>
</g>
</g>
<!-- Node3&#45;&gt;Node10 -->
<g id="edge11_Node000010_Node000003" class="edge">
<title>Node3&#45;&gt;Node10</title>
<g id="a_edge11_Node000010_Node000003"><a xlink:title=" ">
<path fill="none" stroke="#9a32cd" stroke-dasharray="5,2" d="M409.95,-293.79C441.76,-293.97 479.23,-294.55 513.05,-296 520.3,-296.31 527.91,-296.74 535.43,-297.24"/>
<polygon fill="#9a32cd" stroke="#9a32cd" points="410.04,-290.29 400.02,-293.74 410.01,-297.29 410.04,-290.29"/>
</a>
</g>
<text text-anchor="middle" x="464.68" y="-298.5" font-family="Helvetica,sans-Serif" font-size="10.00" fill="grey"> m_ullModulesAlive</text>
</g>
<!-- Node4 -->
<g id="Node000004" class="node">
<title>Node4</title>
<g id="a_Node000004"><a xlink:title=" ">
<polygon fill="white" stroke="#666666" points="144.18,-348 101.93,-348 101.93,-328 144.18,-328 144.18,-348"/>
<text text-anchor="middle" x="123.05" y="-334.5" font-family="Helvetica,sans-Serif" font-size="10.00">size_t</text>
</a>
</g>
</g>
<!-- Node4&#45;&gt;Node1 -->
<g id="edge18_Node000001_Node000004" class="edge">
<title>Node4&#45;&gt;Node1</title>
<g id="a_edge18_Node000001_Node000004"><a xlink:title=" ">
<path fill="none" stroke="#9a32cd" stroke-dasharray="5,2" d="M153.21,-353.71C192.77,-373.51 266.18,-405 333.05,-405 333.05,-405 333.05,-405 854.55,-405 998.28,-405 1070.66,-185.03 1085.43,-134.33"/>
<polygon fill="#9a32cd" stroke="#9a32cd" points="154.83,-350.6 144.34,-349.16 151.64,-356.83 154.83,-350.6"/>
</a>
</g>
<text text-anchor="middle" x="594.18" y="-407.5" font-family="Helvetica,sans-Serif" font-size="10.00" fill="grey"> m_szLastWrittenAmount</text>
</g>
<!-- Node4&#45;&gt;Node3 -->
<g id="edge3_Node000003_Node000004" class="edge">
<title>Node4&#45;&gt;Node3</title>
<g id="a_edge3_Node000003_Node000004"><a xlink:title=" ">
<path fill="none" stroke="#9a32cd" stroke-dasharray="5,2" d="M155.55,-331.37C189.44,-324.23 243.8,-312.79 283.45,-304.44"/>
<polygon fill="#9a32cd" stroke="#9a32cd" points="155.02,-327.9 145.95,-333.39 156.46,-334.75 155.02,-327.9"/>
</a>
</g>
<text text-anchor="middle" x="218.43" y="-326.5" font-family="Helvetica,sans-Serif" font-size="10.00" fill="grey"> ptr</text>
</g>
<!-- Node5 -->
<g id="Node000005" class="node">
<title>Node5</title>
<g id="a_Node000005"><a xlink:title=" ">
<polygon fill="white" stroke="#666666" points="167.05,-296 79.05,-296 79.05,-276 167.05,-276 167.05,-296"/>
<text text-anchor="middle" x="123.05" y="-282.5" font-family="Helvetica,sans-Serif" font-size="10.00">std::atomic&lt; T &gt;</text>
</a>
</g>
</g>
<!-- Node5&#45;&gt;Node3 -->
<g id="edge4_Node000003_Node000005" class="edge">
<title>Node5&#45;&gt;Node3</title>
<g id="a_edge4_Node000003_Node000005"><a xlink:title=" ">
<path fill="none" stroke="orange" stroke-dasharray="5,2" d="M178.5,-288.08C206.38,-289.15 240.49,-290.46 269.57,-291.57"/>
<polygon fill="orange" stroke="orange" points="178.99,-284.6 168.87,-287.72 178.73,-291.6 178.99,-284.6"/>
</a>
</g>
<text text-anchor="middle" x="218.43" y="-292.5" font-family="Helvetica,sans-Serif" font-size="10.00" fill="grey"> &lt; std::size_t &gt;</text>
</g>
<!-- Node7 -->
<g id="Node000007" class="node">
<title>Node7</title>
<g id="a_Node000007"><a xlink:title=" ">
<polygon fill="white" stroke="#666666" points="385.55,-214 282.55,-214 282.55,-194 385.55,-194 385.55,-214"/>
<text text-anchor="middle" x="334.05" y="-200.5" font-family="Helvetica,sans-Serif" font-size="10.00">std::atomic&lt; ullint &gt;</text>
</a>
</g>
</g>
<!-- Node5&#45;&gt;Node7 -->
<g id="edge8_Node000007_Node000005" class="edge">
<title>Node5&#45;&gt;Node7</title>
<g id="a_edge8_Node000007_Node000005"><a xlink:title=" ">
<path fill="none" stroke="orange" stroke-dasharray="5,2" d="M161.07,-271.48C202.79,-255.11 269.6,-228.89 306.47,-214.43"/>
<polygon fill="orange" stroke="orange" points="159.96,-268.15 151.93,-275.06 162.52,-274.67 159.96,-268.15"/>
</a>
</g>
<text text-anchor="middle" x="218.43" y="-263.5" font-family="Helvetica,sans-Serif" font-size="10.00" fill="grey"> &lt; ullint &gt;</text>
</g>
<!-- Node6 -->
<g id="Node000006" class="node">
<title>Node6</title>
<g id="a_Node000006"><a xlink:title=" ">
<polygon fill="white" stroke="#666666" points="28.8,-296 0,-296 0,-276 28.8,-276 28.8,-296"/>
<text text-anchor="middle" x="14.4" y="-282.5" font-family="Helvetica,sans-Serif" font-size="10.00">T</text>
</a>
</g>
</g>
<!-- Node6&#45;&gt;Node5 -->
<g id="edge5_Node000005_Node000006" class="edge">
<title>Node6&#45;&gt;Node5</title>
<g id="a_edge5_Node000005_Node000006"><a xlink:title=" ">
<path fill="none" stroke="#9a32cd" stroke-dasharray="5,2" d="M40.2,-286C51.66,-286 65.6,-286 78.71,-286"/>
<polygon fill="#9a32cd" stroke="#9a32cd" points="40.42,-282.5 30.42,-286 40.42,-289.5 40.42,-282.5"/>
</a>
</g>
<text text-anchor="middle" x="53.93" y="-288.5" font-family="Helvetica,sans-Serif" font-size="10.00" fill="grey"> ptr</text>
</g>
<!-- Node7&#45;&gt;Node1 -->
<g id="edge17_Node000001_Node000007" class="edge">
<title>Node7&#45;&gt;Node1</title>
<g id="a_edge17_Node000001_Node000007"><a xlink:title=" ">
<path fill="none" stroke="#9a32cd" stroke-dasharray="5,2" d="M397.05,-202.56C519.96,-198.77 802.74,-185.45 1035.55,-140 1042.78,-138.59 1050.44,-136.58 1057.6,-134.46"/>
<polygon fill="#9a32cd" stroke="#9a32cd" points="397.07,-199.06 387.17,-202.85 397.27,-206.05 397.07,-199.06"/>
</a>
</g>
<text text-anchor="middle" x="713.55" y="-188.5" font-family="Helvetica,sans-Serif" font-size="10.00" fill="grey"> m_ullTotalWrites</text>
</g>
<!-- Node7&#45;&gt;Node2 -->
<g id="edge6_Node000002_Node000007" class="edge">
<title>Node7&#45;&gt;Node2</title>
<g id="a_edge6_Node000002_Node000007"><a xlink:title=" ">
<path fill="none" stroke="#9a32cd" stroke-dasharray="5,2" d="M396.79,-210.92C489.68,-221.33 665.54,-241.04 769.55,-252.7"/>
<polygon fill="#9a32cd" stroke="#9a32cd" points="397.44,-207.47 387.12,-209.84 396.66,-214.43 397.44,-207.47"/>
</a>
</g>
<text text-anchor="middle" x="594.18" y="-241.5" font-family="Helvetica,sans-Serif" font-size="10.00" fill="grey"> m_ullInstanceCounter</text>
</g>
<!-- Node7&#45;&gt;Node10 -->
<g id="edge12_Node000010_Node000007" class="edge">
<title>Node7&#45;&gt;Node10</title>
<g id="a_edge12_Node000010_Node000007"><a xlink:title=" ">
<path fill="none" stroke="#9a32cd" stroke-dasharray="5,2" d="M373.26,-218.51C425.91,-238.5 519.5,-274.03 565.75,-291.59"/>
<polygon fill="#9a32cd" stroke="#9a32cd" points="374.68,-215.3 364.09,-215.02 372.2,-221.85 374.68,-215.3"/>
</a>
</g>
<text text-anchor="middle" x="464.68" y="-272.5" font-family="Helvetica,sans-Serif" font-size="10.00" fill="grey"> m_ullInstanceCounter</text>
</g>
<!-- Node8 -->
<g id="Node000008" class="node">
<title>Node8</title>
<g id="a_Node000008"><a xlink:title=" ">
<polygon fill="white" stroke="#666666" points="141.18,-214 104.93,-214 104.93,-194 141.18,-194 141.18,-214"/>
<text text-anchor="middle" x="123.05" y="-200.5" font-family="Helvetica,sans-Serif" font-size="10.00">ullint</text>
</a>
</g>
</g>
<!-- Node8&#45;&gt;Node7 -->
<g id="edge7_Node000007_Node000008" class="edge">
<title>Node8&#45;&gt;Node7</title>
<g id="a_edge7_Node000007_Node000008"><a xlink:title=" ">
<path fill="none" stroke="#9a32cd" stroke-dasharray="5,2" d="M152.7,-204C185.99,-204 241.54,-204 282.22,-204"/>
<polygon fill="#9a32cd" stroke="#9a32cd" points="153.02,-200.5 143.02,-204 153.02,-207.5 153.02,-200.5"/>
</a>
</g>
<text text-anchor="middle" x="218.43" y="-206.5" font-family="Helvetica,sans-Serif" font-size="10.00" fill="grey"> ptr</text>
</g>
<!-- Node9 -->
<g id="Node000009" class="node">
<title>Node9</title>
<g id="a_Node000009"><a xlink:title=" ">
<polygon fill="white" stroke="#666666" points="365.68,-355 302.43,-355 302.43,-335 365.68,-335 365.68,-355"/>
<text text-anchor="middle" x="334.05" y="-341.5" font-family="Helvetica,sans-Serif" font-size="10.00">const ullint</text>
</a>
</g>
</g>
<!-- Node9&#45;&gt;Node2 -->
<g id="edge9_Node000002_Node000009" class="edge">
<title>Node9&#45;&gt;Node2</title>
<g id="a_edge9_Node000002_Node000009"><a xlink:title=" ">
<path fill="none" stroke="#9a32cd" stroke-dasharray="5,2" d="M377.07,-346.18C413.19,-346.8 466.63,-346.78 513.05,-343 620.14,-334.28 648.7,-335.27 751.8,-305 780.63,-296.54 812.25,-282.14 832.24,-272.36"/>
<polygon fill="#9a32cd" stroke="#9a32cd" points="377.56,-342.69 367.49,-345.99 377.42,-349.69 377.56,-342.69"/>
</a>
</g>
<text text-anchor="middle" x="594.18" y="-343.5" font-family="Helvetica,sans-Serif" font-size="10.00" fill="grey"> m_ullModuleId</text>
</g>
<!-- Node9&#45;&gt;Node10 -->
<g id="edge13_Node000010_Node000009" class="edge">
<title>Node9&#45;&gt;Node10</title>
<g id="a_edge13_Node000010_Node000009"><a xlink:title=" ">
<path fill="none" stroke="#9a32cd" stroke-dasharray="5,2" d="M377.07,-337.69C389.68,-335.52 403.55,-333.14 416.3,-331 456.04,-324.32 500.83,-316.98 535.4,-311.35"/>
<polygon fill="#9a32cd" stroke="#9a32cd" points="376.65,-334.21 367.4,-339.36 377.85,-341.11 376.65,-334.21"/>
</a>
</g>
<text text-anchor="middle" x="464.68" y="-333.5" font-family="Helvetica,sans-Serif" font-size="10.00" fill="grey"> m_ullModuleId</text>
</g>
<!-- Node10&#45;&gt;Node2 -->
<g id="edge10_Node000002_Node000010" class="edge">
<title>Node10&#45;&gt;Node2</title>
<g id="a_edge10_Node000002_Node000010"><a xlink:title=" ">
<path fill="none" stroke="orange" stroke-dasharray="5,2" d="M664.58,-291.21C702.01,-285.4 748,-278.25 785.12,-272.48"/>
<polygon fill="orange" stroke="orange" points="664.1,-287.75 654.75,-292.74 665.17,-294.66 664.1,-287.75"/>
</a>
</g>
<text text-anchor="middle" x="713.55" y="-291.5" font-family="Helvetica,sans-Serif" font-size="10.00" fill="grey"> &lt; AEFileWriter &gt;</text>
</g>
<!-- Node11 -->
<g id="Node000011" class="node">
<title>Node11</title>
<g id="a_Node000011"><a xlink:title=" ">
<polygon fill="white" stroke="#666666" points="902.05,-134 805.05,-134 805.05,-114 902.05,-114 902.05,-134"/>
<text text-anchor="middle" x="853.55" y="-120.5" font-family="Helvetica,sans-Serif" font-size="10.00">unsigned long long</text>
</a>
</g>
</g>
<!-- Node11&#45;&gt;Node1 -->
<g id="edge14_Node000001_Node000011" class="edge">
<title>Node11&#45;&gt;Node1</title>
<g id="a_edge14_Node000001_Node000011"><a xlink:title=" ">
<path fill="none" stroke="#9a32cd" stroke-dasharray="5,2" d="M913.83,-124C957.78,-124 1016.22,-124 1053.06,-124"/>
<polygon fill="#9a32cd" stroke="#9a32cd" points="913.93,-120.5 903.93,-124 913.93,-127.5 913.93,-120.5"/>
</a>
</g>
<text text-anchor="middle" x="995.43" y="-126.5" font-family="Helvetica,sans-Serif" font-size="10.00" fill="grey"> m_ullFlushInterval</text>
</g>
<!-- Node12 -->
<g id="Node000012" class="node">
<title>Node12</title>
<g id="a_Node000012"><a xlink:title=" ">
<polygon fill="white" stroke="#666666" points="883.3,-96 823.8,-96 823.8,-76 883.3,-76 883.3,-96"/>
<text text-anchor="middle" x="853.55" y="-82.5" font-family="Helvetica,sans-Serif" font-size="10.00">std::string</text>
</a>
</g>
</g>
<!-- Node12&#45;&gt;Node1 -->
<g id="edge15_Node000001_Node000012" class="edge">
<title>Node12&#45;&gt;Node1</title>
<g id="a_edge15_Node000001_Node000012"><a xlink:title=" ">
<path fill="none" stroke="#9a32cd" stroke-dasharray="5,2" d="M894.92,-88.89C931.82,-92 987.76,-97.93 1035.55,-108 1042.57,-109.48 1050.01,-111.47 1057.01,-113.54"/>
<polygon fill="#9a32cd" stroke="#9a32cd" points="895.4,-85.42 885.15,-88.1 894.84,-92.39 895.4,-85.42"/>
</a>
</g>
<text text-anchor="middle" x="995.43" y="-110.5" font-family="Helvetica,sans-Serif" font-size="10.00" fill="grey"> m_sFilename</text>
</g>
<!-- Node13 -->
<g id="Node000013" class="node">
<title>Node13</title>
<g id="a_Node000013"><a xlink:title=" ">
<polygon fill="white" stroke="#666666" points="657.3,-96 531.05,-96 531.05,-76 657.3,-76 657.3,-96"/>
<text text-anchor="middle" x="594.18" y="-82.5" font-family="Helvetica,sans-Serif" font-size="10.00">std::basic_string&lt; Char &gt;</text>
</a>
</g>
</g>
<!-- Node13&#45;&gt;Node12 -->
<g id="edge16_Node000012_Node000013" class="edge">
<title>Node13&#45;&gt;Node12</title>
<g id="a_edge16_Node000012_Node000013"><a xlink:title=" ">
<path fill="none" stroke="#63b8ff" d="M668.87,-86C720.26,-86 786.05,-86 823.33,-86"/>
<polygon fill="#63b8ff" stroke="#63b8ff" points="668.99,-82.5 658.99,-86 668.99,-89.5 668.99,-82.5"/>
</a>
</g>
</g>
<!-- Node14 -->
<g id="Node000014" class="node">
<title>Node14</title>
<g id="a_Node000014"><a xlink:title=" ">
<polygon fill="white" stroke="#666666" points="875.05,-58 832.05,-58 832.05,-38 875.05,-38 875.05,-58"/>
<text text-anchor="middle" x="853.55" y="-44.5" font-family="Helvetica,sans-Serif" font-size="10.00">FILE *</text>
</a>
</g>
</g>
<!-- Node14&#45;&gt;Node1 -->
<g id="edge19_Node000001_Node000014" class="edge">
<title>Node14&#45;&gt;Node1</title>
<g id="a_edge19_Node000001_Node000014"><a xlink:title=" ">
<path fill="none" stroke="#9a32cd" stroke-dasharray="5,2" d="M886.62,-48.41C924.04,-50.01 986.96,-56.25 1035.55,-79 1053.21,-87.27 1069.64,-103.09 1079.33,-113.6"/>
<polygon fill="#9a32cd" stroke="#9a32cd" points="887.05,-44.92 876.93,-48.09 886.81,-51.92 887.05,-44.92"/>
</a>
</g>
<text text-anchor="middle" x="995.43" y="-81.5" font-family="Helvetica,sans-Serif" font-size="10.00" fill="grey"> m_fpFilestr</text>
</g>
<!-- Node15 -->
<g id="Node000015" class="node">
<title>Node15</title>
<g id="a_Node000015"><a xlink:title=" ">
<polygon fill="white" stroke="#666666" points="873.55,-20 833.55,-20 833.55,0 873.55,0 873.55,-20"/>
<text text-anchor="middle" x="853.55" y="-6.5" font-family="Helvetica,sans-Serif" font-size="10.00">int8_t</text>
</a>
</g>
</g>
<!-- Node15&#45;&gt;Node1 -->
<g id="edge20_Node000001_Node000015" class="edge">
<title>Node15&#45;&gt;Node1</title>
<g id="a_edge20_Node000001_Node000015"><a xlink:title=" ">
<path fill="none" stroke="#9a32cd" stroke-dasharray="5,2" d="M885.26,-7.77C923.64,-6.53 989.85,-9.59 1035.55,-40 1062.79,-58.13 1078.65,-95.62 1085.02,-113.74"/>
<polygon fill="#9a32cd" stroke="#9a32cd" points="885.18,-4.27 875.35,-8.23 885.5,-11.27 885.18,-4.27"/>
</a>
</g>
<text text-anchor="middle" x="995.43" y="-42.5" font-family="Helvetica,sans-Serif" font-size="10.00" fill="grey"> m_cFlags</text>
</g>
</g>
</svg>

<g id="navigator" transform="translate(0 0)" fill="#404254">
  <rect fill="#f2f5e9" fill-opacity="0.5" stroke="#606060" stroke-width=".5" x="0" y="0" width="60" height="60"/>
  <use id="zoomplus" xlink:href="#zoomPlus" x="17" y="9" onmousedown="handleZoom(evt,'in')"/>
  <use id="zoomminus" xlink:href="#zoomMin" x="42" y="9" onmousedown="handleZoom(evt,'out')"/>
  <use id="reset" xlink:href="#resetDef" x="30" y="36" onmousedown="handleReset()"/>
   <use id="arrowup" xlink:href="#arrowUp" x="0" y="0" onmousedown="handlePan(0,-1)"/>
  <use id="arrowright" xlink:href="#arrowRight" x="0" y="0" onmousedown="handlePan(1,0)"/>
  <use id="arrowdown" xlink:href="#arrowDown" x="0" y="0" onmousedown="handlePan(0,1)"/>
  <use id="arrowleft" xlink:href="#arrowLeft" x="0" y="0" onmousedown="handlePan(-1,0)"/>
</g>
<svg viewBox="0 0 15 15" width="100%" height="30px" preserveAspectRatio="xMaxYMin meet">
 <g id="arrow_out" transform="scale(0.3 0.3)">
  <a xlink:href="class_a_e_file_writer__coll__graph_org.svg" target="_base">
   <rect id="button" ry="5" rx="5" y="6" x="6" height="38" width="38"
        fill="#f2f5e9" fill-opacity="0.5" stroke="#606060" stroke-width="1.0"/>
   <path id="arrow"
     d="M 11.500037,31.436501 C 11.940474,20.09759 22.043105,11.32322 32.158766,21.979434 L 37.068811,17.246167 C 37.068811,17.246167 37.088388,32 37.088388,32 L 22.160133,31.978069 C 22.160133,31.978069 26.997745,27.140456 26.997745,27.140456 C 18.528582,18.264221 13.291696,25.230495 11.500037,31.436501 z"
     style="fill:#404040;"/>
  </a>
 </g>
</svg>

<style type='text/css'>
<![CDATA[
[data-mouse-over-selected='false'] { opacity: 0.7; }
[data-mouse-over-selected='true']  { opacity: 1.0; }
]]>
</style>
<script type="application/ecmascript"><![CDATA[
document.addEventListener('DOMContentLoaded', (event) => {
  highlightEdges();
  highlightAdjacentNodes();
});
]]></script>
</svg>
