<?xml version="1.0" encoding="UTF-8" standalone="no"?>
<!DOCTYPE svg PUBLIC "-//W3C//DTD SVG 1.1//EN"
 "http://www.w3.org/Graphics/SVG/1.1/DTD/svg11.dtd">
<!-- Generated by graphviz version 10.0.1 (20240210.2158)
 -->
<!-- Title: AELogEntryInfo Pages: 1 -->
<svg width="217pt" height="96pt"
 viewBox="0.00 0.00 217.25 96.00" xmlns="http://www.w3.org/2000/svg" xmlns:xlink="http://www.w3.org/1999/xlink">

<svg id="main" version="1.1" xmlns="http://www.w3.org/2000/svg" xmlns:xlink="http://www.w3.org/1999/xlink" xml:space="preserve" onload="init(evt)">
<style type="text/css"><![CDATA[
.node, .edge {opacity: 0.7;}
.node.selected, .edge.selected {opacity: 1;}
.edge:hover path { stroke: red; }
.edge:hover polygon { stroke: red; fill: red; }
]]></style>
<script type="application/ecmascript" xlink:href="../../svg.min.js"/>
<svg id="graph" class="graph">
<g id="graph0" class="graph" transform="scale(1 1) rotate(0) translate(4 92)">
<title>AELogEntryInfo</title>
<!-- Node1 -->
<g id="Node000001" class="node">
<title>Node1</title>
<g id="a_Node000001"><a xlink:title="The struct that holds the information about the log entry, used by AELogParser.">
<polygon fill="#999999" stroke="#666666" points="145.25,-20 61.75,-20 61.75,0 145.25,0 145.25,-20"/>
<text text-anchor="middle" x="103.5" y="-6.5" font-family="Helvetica,sans-Serif" font-size="10.00">AELogEntryInfo</text>
</a>
</g>
</g>
<!-- Node2 -->
<g id="Node000002" class="node">
<title>Node2</title>
<g id="a_Node000002"><a xlink:title=" ">
<polygon fill="white" stroke="#666666" points="55,-88 0,-88 0,-68 55,-68 55,-88"/>
<text text-anchor="middle" x="27.5" y="-74.5" font-family="Helvetica,sans-Serif" font-size="10.00">long long</text>
</a>
</g>
</g>
<!-- Node2&#45;&gt;Node1 -->
<g id="edge1_Node000001_Node000002" class="edge">
<title>Node2&#45;&gt;Node1</title>
<g id="a_edge1_Node000001_Node000002"><a xlink:title=" ">
<path fill="none" stroke="#9a32cd" stroke-dasharray="5,2" d="M33.97,-57.09C36.9,-50.39 40.92,-43.29 46.25,-38 53.89,-30.41 64.07,-24.68 73.73,-20.49"/>
<polygon fill="#9a32cd" stroke="#9a32cd" points="30.8,-55.57 30.57,-66.16 37.36,-58.02 30.8,-55.57"/>
</a>
</g>
<text text-anchor="middle" x="73.12" y="-40.5" font-family="Helvetica,sans-Serif" font-size="10.00" fill="grey"> cursorIndex</text>
</g>
<!-- Node3 -->
<g id="Node000003" class="node">
<title>Node3</title>
<g id="a_Node000003"><a xlink:title=" ">
<polygon fill="white" stroke="#666666" points="122.38,-88 84.62,-88 84.62,-68 122.38,-68 122.38,-88"/>
<text text-anchor="middle" x="103.5" y="-74.5" font-family="Helvetica,sans-Serif" font-size="10.00">short</text>
</a>
</g>
</g>
<!-- Node3&#45;&gt;Node1 -->
<g id="edge2_Node000001_Node000003" class="edge">
<title>Node3&#45;&gt;Node1</title>
<g id="a_edge2_Node000001_Node000003"><a xlink:title=" ">
<path fill="none" stroke="#9a32cd" stroke-dasharray="5,2" d="M103.5,-56.28C103.5,-44.27 103.5,-29.74 103.5,-20.44"/>
<polygon fill="#9a32cd" stroke="#9a32cd" points="100,-56.03 103.5,-66.03 107,-56.03 100,-56.03"/>
</a>
</g>
<text text-anchor="middle" x="132.75" y="-40.5" font-family="Helvetica,sans-Serif" font-size="10.00" fill="grey"> mnameIndex</text>
</g>
<!-- Node4 -->
<g id="Node000004" class="node">
<title>Node4</title>
<g id="a_Node000004"><a xlink:title=" ">
<polygon fill="white" stroke="#666666" points="205.5,-88 165.5,-88 165.5,-68 205.5,-68 205.5,-88"/>
<text text-anchor="middle" x="185.5" y="-74.5" font-family="Helvetica,sans-Serif" font-size="10.00">int8_t</text>
</a>
</g>
</g>
<!-- Node4&#45;&gt;Node1 -->
<g id="edge3_Node000001_Node000004" class="edge">
<title>Node4&#45;&gt;Node1</title>
<g id="a_edge3_Node000001_Node000004"><a xlink:title=" ">
<path fill="none" stroke="#9a32cd" stroke-dasharray="5,2" d="M177.59,-57.52C174.07,-50.68 169.38,-43.37 163.5,-38 155.15,-30.37 144.28,-24.61 134.1,-20.41"/>
<polygon fill="#9a32cd" stroke="#9a32cd" points="174.2,-58.51 181.52,-66.16 180.57,-55.61 174.2,-58.51"/>
</a>
</g>
<text text-anchor="middle" x="190.88" y="-40.5" font-family="Helvetica,sans-Serif" font-size="10.00" fill="grey"> logType</text>
</g>
</g>
</svg>
</svg>

<style type='text/css'>
<![CDATA[
[data-mouse-over-selected='false'] { opacity: 0.7; }
[data-mouse-over-selected='true']  { opacity: 1.0; }
]]>
</style>
<script type="application/ecmascript"><![CDATA[
document.addEventListener('DOMContentLoaded', (event) => {
  highlightEdges();
  highlightAdjacentNodes();
});
]]></script>
</svg>
