<?xml version="1.0" encoding="UTF-8" standalone="no"?>
<!DOCTYPE svg PUBLIC "-//W3C//DTD SVG 1.1//EN"
 "http://www.w3.org/Graphics/SVG/1.1/DTD/svg11.dtd">
<!-- Generated by graphviz version 10.0.1 (20240210.2158)
 -->
<!-- Title: AEModuleBase/include/AEModuleBase.hpp Pages: 1 -->
<svg width="596pt" height="196pt"
 viewBox="0.00 0.00 595.88 196.00" xmlns="http://www.w3.org/2000/svg" xmlns:xlink="http://www.w3.org/1999/xlink">
<g id="graph0" class="graph" transform="scale(1 1) rotate(0) translate(4 192)">
<title>AEModuleBase/include/AEModuleBase.hpp</title>
<!-- Node1 -->
<g id="Node000001" class="node">
<title>Node1</title>
<g id="a_Node000001"><a xlink:title="This file contains the engine&#39;s basic module template.">
<polygon fill="#999999" stroke="#666666" points="474.5,-188 268,-188 268,-168 474.5,-168 474.5,-188"/>
<text text-anchor="middle" x="371.25" y="-174.5" font-family="Helvetica,sans-Serif" font-size="10.00">AEModuleBase/include/AEModuleBase.hpp</text>
</a>
</g>
</g>
<!-- Node2 -->
<g id="Node000002" class="node">
<title>Node2</title>
<g id="a_Node000002"><a xlink:href="../../dc/d89/_a_e_typedefs_8hpp.html" target="_top" xlink:title="This file contains the engine&#39;s typedefs and variable type aliases.">
<polygon fill="white" stroke="#666666" points="145.75,-76 24.75,-76 24.75,-56 145.75,-56 145.75,-76"/>
<text text-anchor="middle" x="85.25" y="-62.5" font-family="Helvetica,sans-Serif" font-size="10.00">include/AETypedefs.hpp</text>
</a>
</g>
</g>
<!-- Node1&#45;&gt;Node2 -->
<g id="edge1_Node000001_Node000002" class="edge">
<title>Node1&#45;&gt;Node2</title>
<g id="a_edge1_Node000001_Node000002"><a xlink:title=" ">
<path fill="none" stroke="#63b8ff" d="M335.99,-167.58C306.13,-159.27 262.39,-146.27 225.25,-132 185.72,-116.81 141.65,-95.61 113.7,-81.6"/>
<polygon fill="#63b8ff" stroke="#63b8ff" points="115.33,-78.5 104.83,-77.12 112.17,-84.75 115.33,-78.5"/>
</a>
</g>
</g>
<!-- Node6 -->
<g id="Node000006" class="node">
<title>Node6</title>
<g id="a_Node000006"><a xlink:href="../../dd/dd8/_a_e_flags_8hpp.html" target="_top" xlink:title="This file contains the flags to manipulate engine&#39;s funcitonality.">
<polygon fill="white" stroke="#666666" points="270.25,-76 164.25,-76 164.25,-56 270.25,-56 270.25,-76"/>
<text text-anchor="middle" x="217.25" y="-62.5" font-family="Helvetica,sans-Serif" font-size="10.00">include/AEFlags.hpp</text>
</a>
</g>
</g>
<!-- Node1&#45;&gt;Node6 -->
<g id="edge5_Node000001_Node000006" class="edge">
<title>Node1&#45;&gt;Node6</title>
<g id="a_edge5_Node000001_Node000006"><a xlink:title=" ">
<path fill="none" stroke="#63b8ff" d="M310.28,-167.55C286.17,-161.08 259.85,-150.22 241.25,-132 229.15,-120.15 223.1,-101.68 220.11,-87.45"/>
<polygon fill="#63b8ff" stroke="#63b8ff" points="223.59,-87.06 218.44,-77.8 216.7,-88.25 223.59,-87.06"/>
</a>
</g>
</g>
<!-- Node7 -->
<g id="Node000007" class="node">
<title>Node7</title>
<g id="a_Node000007"><a xlink:href="../../d9/d6a/_a_e_utils_macros_8hpp.html" target="_top" xlink:title="This file contains the engine&#39;s macros for trivial tasks.">
<polygon fill="white" stroke="#666666" points="384.12,-132 250.38,-132 250.38,-112 384.12,-112 384.12,-132"/>
<text text-anchor="middle" x="317.25" y="-118.5" font-family="Helvetica,sans-Serif" font-size="10.00">include/AEUtilsMacros.hpp</text>
</a>
</g>
</g>
<!-- Node1&#45;&gt;Node7 -->
<g id="edge6_Node000001_Node000007" class="edge">
<title>Node1&#45;&gt;Node7</title>
<g id="a_edge6_Node000001_Node000007"><a xlink:title=" ">
<path fill="none" stroke="#63b8ff" d="M361.84,-167.59C354.33,-160.08 343.6,-149.35 334.55,-140.3"/>
<polygon fill="#63b8ff" stroke="#63b8ff" points="337.16,-137.96 327.62,-133.37 332.21,-142.91 337.16,-137.96"/>
</a>
</g>
</g>
<!-- Node12 -->
<g id="Node000012" class="node">
<title>Node12</title>
<g id="a_Node000012"><a xlink:title=" ">
<polygon fill="#e0e0e0" stroke="#999999" points="447.88,-132 402.62,-132 402.62,-112 447.88,-112 447.88,-132"/>
<text text-anchor="middle" x="425.25" y="-118.5" font-family="Helvetica,sans-Serif" font-size="10.00">atomic</text>
</a>
</g>
</g>
<!-- Node1&#45;&gt;Node12 -->
<g id="edge13_Node000001_Node000012" class="edge">
<title>Node1&#45;&gt;Node12</title>
<g id="a_edge13_Node000001_Node000012"><a xlink:title=" ">
<path fill="none" stroke="#63b8ff" d="M380.66,-167.59C388.17,-160.08 398.9,-149.35 407.95,-140.3"/>
<polygon fill="#63b8ff" stroke="#63b8ff" points="410.29,-142.91 414.88,-133.37 405.34,-137.96 410.29,-142.91"/>
</a>
</g>
</g>
<!-- Node13 -->
<g id="Node000013" class="node">
<title>Node13</title>
<g id="a_Node000013"><a xlink:title=" ">
<polygon fill="#e0e0e0" stroke="#999999" points="506.25,-132 466.25,-132 466.25,-112 506.25,-112 506.25,-132"/>
<text text-anchor="middle" x="486.25" y="-118.5" font-family="Helvetica,sans-Serif" font-size="10.00">string</text>
</a>
</g>
</g>
<!-- Node1&#45;&gt;Node13 -->
<g id="edge14_Node000001_Node000013" class="edge">
<title>Node1&#45;&gt;Node13</title>
<g id="a_edge14_Node000001_Node000013"><a xlink:title=" ">
<path fill="none" stroke="#63b8ff" d="M391.28,-167.59C409.06,-159.24 435.32,-146.92 455.71,-137.34"/>
<polygon fill="#63b8ff" stroke="#63b8ff" points="457.13,-140.54 464.69,-133.12 454.15,-134.21 457.13,-140.54"/>
</a>
</g>
</g>
<!-- Node14 -->
<g id="Node000014" class="node">
<title>Node14</title>
<g id="a_Node000014"><a xlink:title=" ">
<polygon fill="#e0e0e0" stroke="#999999" points="587.88,-132 524.62,-132 524.62,-112 587.88,-112 587.88,-132"/>
<text text-anchor="middle" x="556.25" y="-118.5" font-family="Helvetica,sans-Serif" font-size="10.00">string_view</text>
</a>
</g>
</g>
<!-- Node1&#45;&gt;Node14 -->
<g id="edge15_Node000001_Node000014" class="edge">
<title>Node1&#45;&gt;Node14</title>
<g id="a_edge15_Node000001_Node000014"><a xlink:title=" ">
<path fill="none" stroke="#63b8ff" d="M403.47,-167.59C433.98,-158.69 479.98,-145.26 513.53,-135.47"/>
<polygon fill="#63b8ff" stroke="#63b8ff" points="514.32,-138.88 522.94,-132.72 512.36,-132.16 514.32,-138.88"/>
</a>
</g>
</g>
<!-- Node3 -->
<g id="Node000003" class="node">
<title>Node3</title>
<g id="a_Node000003"><a xlink:title=" ">
<polygon fill="#e0e0e0" stroke="#999999" points="44.5,-20 0,-20 0,0 44.5,0 44.5,-20"/>
<text text-anchor="middle" x="22.25" y="-6.5" font-family="Helvetica,sans-Serif" font-size="10.00">climits</text>
</a>
</g>
</g>
<!-- Node2&#45;&gt;Node3 -->
<g id="edge2_Node000002_Node000003" class="edge">
<title>Node2&#45;&gt;Node3</title>
<g id="a_edge2_Node000002_Node000003"><a xlink:title=" ">
<path fill="none" stroke="#63b8ff" d="M74.28,-55.59C65.33,-47.93 52.48,-36.91 41.79,-27.75"/>
<polygon fill="#63b8ff" stroke="#63b8ff" points="44.12,-25.13 34.25,-21.28 39.56,-30.45 44.12,-25.13"/>
</a>
</g>
</g>
<!-- Node4 -->
<g id="Node000004" class="node">
<title>Node4</title>
<g id="a_Node000004"><a xlink:title=" ">
<polygon fill="#e0e0e0" stroke="#999999" points="107.88,-20 62.62,-20 62.62,0 107.88,0 107.88,-20"/>
<text text-anchor="middle" x="85.25" y="-6.5" font-family="Helvetica,sans-Serif" font-size="10.00">chrono</text>
</a>
</g>
</g>
<!-- Node2&#45;&gt;Node4 -->
<g id="edge3_Node000002_Node000004" class="edge">
<title>Node2&#45;&gt;Node4</title>
<g id="a_edge3_Node000002_Node000004"><a xlink:title=" ">
<path fill="none" stroke="#63b8ff" d="M85.25,-55.59C85.25,-49.01 85.25,-39.96 85.25,-31.73"/>
<polygon fill="#63b8ff" stroke="#63b8ff" points="88.75,-31.81 85.25,-21.81 81.75,-31.81 88.75,-31.81"/>
</a>
</g>
</g>
<!-- Node5 -->
<g id="Node000005" class="node">
<title>Node5</title>
<g id="a_Node000005"><a xlink:title=" ">
<polygon fill="#e0e0e0" stroke="#999999" points="168.75,-20 125.75,-20 125.75,0 168.75,0 168.75,-20"/>
<text text-anchor="middle" x="147.25" y="-6.5" font-family="Helvetica,sans-Serif" font-size="10.00">thread</text>
</a>
</g>
</g>
<!-- Node2&#45;&gt;Node5 -->
<g id="edge4_Node000002_Node000005" class="edge">
<title>Node2&#45;&gt;Node5</title>
<g id="a_edge4_Node000002_Node000005"><a xlink:title=" ">
<path fill="none" stroke="#63b8ff" d="M96.05,-55.59C104.85,-47.93 117.5,-36.91 128.02,-27.75"/>
<polygon fill="#63b8ff" stroke="#63b8ff" points="130.19,-30.5 135.43,-21.29 125.59,-25.22 130.19,-30.5"/>
</a>
</g>
</g>
<!-- Node7&#45;&gt;Node2 -->
<g id="edge7_Node000007_Node000002" class="edge">
<title>Node7&#45;&gt;Node2</title>
<g id="a_edge7_Node000007_Node000002"><a xlink:title=" ">
<path fill="none" stroke="#63b8ff" d="M276.57,-111.53C237.77,-102.5 179.14,-88.85 137.02,-79.05"/>
<polygon fill="#63b8ff" stroke="#63b8ff" points="137.89,-75.66 127.35,-76.8 136.3,-82.48 137.89,-75.66"/>
</a>
</g>
</g>
<!-- Node7&#45;&gt;Node6 -->
<g id="edge8_Node000007_Node000006" class="edge">
<title>Node7&#45;&gt;Node6</title>
<g id="a_edge8_Node000007_Node000006"><a xlink:title=" ">
<path fill="none" stroke="#63b8ff" d="M299.83,-111.59C284.58,-103.36 262.17,-91.26 244.54,-81.74"/>
<polygon fill="#63b8ff" stroke="#63b8ff" points="246.6,-78.87 236.14,-77.2 243.27,-85.03 246.6,-78.87"/>
</a>
</g>
</g>
<!-- Node8 -->
<g id="Node000008" class="node">
<title>Node8</title>
<g id="a_Node000008"><a xlink:title=" ">
<polygon fill="#e0e0e0" stroke="#999999" points="488,-76 434.5,-76 434.5,-56 488,-56 488,-76"/>
<text text-anchor="middle" x="461.25" y="-62.5" font-family="Helvetica,sans-Serif" font-size="10.00">iostream</text>
</a>
</g>
</g>
<!-- Node7&#45;&gt;Node8 -->
<g id="edge9_Node000007_Node000008" class="edge">
<title>Node7&#45;&gt;Node8</title>
<g id="a_edge9_Node000007_Node000008"><a xlink:title=" ">
<path fill="none" stroke="#63b8ff" d="M342.33,-111.59C365.32,-102.97 399.6,-90.12 425.46,-80.42"/>
<polygon fill="#63b8ff" stroke="#63b8ff" points="426.42,-83.8 434.55,-77.01 423.96,-77.25 426.42,-83.8"/>
</a>
</g>
</g>
<!-- Node9 -->
<g id="Node000009" class="node">
<title>Node9</title>
<g id="a_Node000009"><a xlink:title=" ">
<polygon fill="#e0e0e0" stroke="#999999" points="548.38,-76 506.12,-76 506.12,-56 548.38,-56 548.38,-76"/>
<text text-anchor="middle" x="527.25" y="-62.5" font-family="Helvetica,sans-Serif" font-size="10.00">cstdio</text>
</a>
</g>
</g>
<!-- Node7&#45;&gt;Node9 -->
<g id="edge10_Node000007_Node000009" class="edge">
<title>Node7&#45;&gt;Node9</title>
<g id="a_edge10_Node000007_Node000009"><a xlink:title=" ">
<path fill="none" stroke="#63b8ff" d="M357.42,-111.52C391.64,-103.33 442.35,-90.88 494.8,-76.59"/>
<polygon fill="#63b8ff" stroke="#63b8ff" points="495.48,-80.03 504.19,-74.01 493.63,-73.28 495.48,-80.03"/>
</a>
</g>
</g>
<!-- Node10 -->
<g id="Node000010" class="node">
<title>Node10</title>
<g id="a_Node000010"><a xlink:title=" ">
<polygon fill="#e0e0e0" stroke="#999999" points="350.12,-76 288.38,-76 288.38,-56 350.12,-56 350.12,-76"/>
<text text-anchor="middle" x="319.25" y="-62.5" font-family="Helvetica,sans-Serif" font-size="10.00">type_traits</text>
</a>
</g>
</g>
<!-- Node7&#45;&gt;Node10 -->
<g id="edge11_Node000007_Node000010" class="edge">
<title>Node7&#45;&gt;Node10</title>
<g id="a_edge11_Node000007_Node000010"><a xlink:title=" ">
<path fill="none" stroke="#63b8ff" d="M317.6,-111.59C317.84,-105.01 318.18,-95.96 318.48,-87.73"/>
<polygon fill="#63b8ff" stroke="#63b8ff" points="321.98,-87.93 318.85,-77.81 314.98,-87.67 321.98,-87.93"/>
</a>
</g>
</g>
<!-- Node11 -->
<g id="Node000011" class="node">
<title>Node11</title>
<g id="a_Node000011"><a xlink:title=" ">
<polygon fill="#e0e0e0" stroke="#999999" points="416,-76 368.5,-76 368.5,-56 416,-56 416,-76"/>
<text text-anchor="middle" x="392.25" y="-62.5" font-family="Helvetica,sans-Serif" font-size="10.00">cstddef</text>
</a>
</g>
</g>
<!-- Node7&#45;&gt;Node11 -->
<g id="edge12_Node000007_Node000011" class="edge">
<title>Node7&#45;&gt;Node11</title>
<g id="a_edge12_Node000007_Node000011"><a xlink:title=" ">
<path fill="none" stroke="#63b8ff" d="M330.31,-111.59C341.22,-103.74 357,-92.38 369.91,-83.09"/>
<polygon fill="#63b8ff" stroke="#63b8ff" points="371.79,-86.05 377.86,-77.36 367.7,-80.37 371.79,-86.05"/>
</a>
</g>
</g>
</g>
</svg>
