<?xml version="1.0" encoding="UTF-8" standalone="no"?>
<!DOCTYPE svg PUBLIC "-//W3C//DTD SVG 1.1//EN"
 "http://www.w3.org/Graphics/SVG/1.1/DTD/svg11.dtd">
<!-- Generated by graphviz version 10.0.1 (20240210.2158)
 -->
<!-- Title: AEFileWriter/include/AEFileWriter.hpp Pages: 1 -->
<svg width="348pt" height="140pt"
 viewBox="0.00 0.00 348.12 140.00" xmlns="http://www.w3.org/2000/svg" xmlns:xlink="http://www.w3.org/1999/xlink">
<g id="graph0" class="graph" transform="scale(1 1) rotate(0) translate(4 136)">
<title>AEFileWriter/include/AEFileWriter.hpp</title>
<!-- Node1 -->
<g id="Node000001" class="node">
<title>Node1</title>
<g id="a_Node000001"><a xlink:title=" ">
<polygon fill="#999999" stroke="#666666" points="262.88,-132 80.38,-132 80.38,-112 262.88,-112 262.88,-132"/>
<text text-anchor="middle" x="171.62" y="-118.5" font-family="Helvetica,sans-Serif" font-size="10.00">AEFileWriter/include/AEFileWriter.hpp</text>
</a>
</g>
</g>
<!-- Node2 -->
<g id="Node000002" class="node">
<title>Node2</title>
<g id="a_Node000002"><a xlink:href="../../d0/d56/_a_e_file_writer_8cpp.html" target="_top" xlink:title=" ">
<polygon fill="white" stroke="#666666" points="165.25,-76 0,-76 0,-56 165.25,-56 165.25,-76"/>
<text text-anchor="middle" x="82.62" y="-62.5" font-family="Helvetica,sans-Serif" font-size="10.00">AEFileWriter/src/AEFileWriter.cpp</text>
</a>
</g>
</g>
<!-- Node1&#45;&gt;Node2 -->
<g id="edge1_Node000001_Node000002" class="edge">
<title>Node1&#45;&gt;Node2</title>
<g id="a_edge1_Node000001_Node000002"><a xlink:title=" ">
<path fill="none" stroke="#63b8ff" d="M146.59,-105.81C131.07,-96.39 111.6,-84.58 98.25,-76.48"/>
<polygon fill="#63b8ff" stroke="#63b8ff" points="144.46,-108.61 154.83,-110.81 148.09,-102.63 144.46,-108.61"/>
</a>
</g>
</g>
<!-- Node3 -->
<g id="Node000003" class="node">
<title>Node3</title>
<g id="a_Node000003"><a xlink:href="../../d4/d9f/_a_e_logger_8hpp.html" target="_top" xlink:title=" ">
<polygon fill="white" stroke="#666666" points="340.12,-76 183.12,-76 183.12,-56 340.12,-56 340.12,-76"/>
<text text-anchor="middle" x="261.62" y="-62.5" font-family="Helvetica,sans-Serif" font-size="10.00">AELogger/include/AELogger.hpp</text>
</a>
</g>
</g>
<!-- Node1&#45;&gt;Node3 -->
<g id="edge2_Node000001_Node000003" class="edge">
<title>Node1&#45;&gt;Node3</title>
<g id="a_edge2_Node000001_Node000003"><a xlink:title=" ">
<path fill="none" stroke="#63b8ff" d="M196.94,-105.81C212.64,-96.39 232.32,-84.58 245.83,-76.48"/>
<polygon fill="#63b8ff" stroke="#63b8ff" points="195.37,-102.67 188.6,-110.82 198.98,-108.67 195.37,-102.67"/>
</a>
</g>
</g>
<!-- Node4 -->
<g id="Node000004" class="node">
<title>Node4</title>
<g id="a_Node000004"><a xlink:href="../../db/da0/_a_e_logger_8cpp.html" target="_top" xlink:title=" ">
<polygon fill="white" stroke="#666666" points="331.5,-20 191.75,-20 191.75,0 331.5,0 331.5,-20"/>
<text text-anchor="middle" x="261.62" y="-6.5" font-family="Helvetica,sans-Serif" font-size="10.00">AELogger/src/AELogger.cpp</text>
</a>
</g>
</g>
<!-- Node3&#45;&gt;Node4 -->
<g id="edge3_Node000003_Node000004" class="edge">
<title>Node3&#45;&gt;Node4</title>
<g id="a_edge3_Node000003_Node000004"><a xlink:title=" ">
<path fill="none" stroke="#63b8ff" d="M261.62,-44.13C261.62,-35.9 261.62,-26.85 261.62,-20.3"/>
<polygon fill="#63b8ff" stroke="#63b8ff" points="258.13,-44.08 261.63,-54.08 265.13,-44.08 258.13,-44.08"/>
</a>
</g>
</g>
</g>
</svg>
