<?xml version="1.0" encoding="UTF-8" standalone="no"?>
<!DOCTYPE svg PUBLIC "-//W3C//DTD SVG 1.1//EN"
 "http://www.w3.org/Graphics/SVG/1.1/DTD/svg11.dtd">
<!-- Generated by graphviz version 10.0.1 (20240210.2158)
 -->
<!-- Title: ace::utils::sleepUS Pages: 1 -->
<svg width="703pt" height="85pt"
 viewBox="0.00 0.00 703.00 85.00" xmlns="http://www.w3.org/2000/svg" xmlns:xlink="http://www.w3.org/1999/xlink">
<g id="graph0" class="graph" transform="scale(1 1) rotate(0) translate(4 81)">
<title>ace::utils::sleepUS</title>
<!-- Node1 -->
<g id="Node000001" class="node">
<title>Node1</title>
<g id="a_Node000001"><a xlink:title="Convenient sleep function to sleep the thread for microseconds.">
<polygon fill="#999999" stroke="#666666" points="695,-58 596.5,-58 596.5,-38 695,-38 695,-58"/>
<text text-anchor="middle" x="645.75" y="-44.5" font-family="Helvetica,sans-Serif" font-size="10.00">ace::utils::sleepUS</text>
</a>
</g>
</g>
<!-- Node2 -->
<g id="Node000002" class="node">
<title>Node2</title>
<g id="a_Node000002"><a xlink:href="../../d8/dfc/class_a_e_logger.html#a5938787b6933f4b96ebff10643bd2497" target="_top" xlink:title="The function of the log writing thread to...read the entries, format them, write them,...">
<polygon fill="white" stroke="#666666" points="560.5,-58 427.5,-58 427.5,-38 560.5,-38 560.5,-58"/>
<text text-anchor="middle" x="494" y="-44.5" font-family="Helvetica,sans-Serif" font-size="10.00">AELogger::logWriterThread</text>
</a>
</g>
</g>
<!-- Node1&#45;&gt;Node2 -->
<g id="edge1_Node000001_Node000002" class="edge">
<title>Node1&#45;&gt;Node2</title>
<g id="a_edge1_Node000001_Node000002"><a xlink:title=" ">
<path fill="none" stroke="#63b8ff" d="M584.78,-48C576.9,-48 568.78,-48 560.8,-48"/>
<polygon fill="#63b8ff" stroke="#63b8ff" points="584.62,-51.5 594.62,-48 584.62,-44.5 584.62,-51.5"/>
</a>
</g>
</g>
<!-- Node3 -->
<g id="Node000003" class="node">
<title>Node3</title>
<g id="a_Node000003"><a xlink:href="../../d8/dfc/class_a_e_logger.html#a284034896688215f7e87242764c5985d" target="_top" xlink:title="Starts the log&#45;writing thread.">
<polygon fill="white" stroke="#666666" points="391.5,-58 281,-58 281,-38 391.5,-38 391.5,-58"/>
<text text-anchor="middle" x="336.25" y="-44.5" font-family="Helvetica,sans-Serif" font-size="10.00">AELogger::startWriter</text>
</a>
</g>
</g>
<!-- Node2&#45;&gt;Node3 -->
<g id="edge2_Node000002_Node000003" class="edge">
<title>Node2&#45;&gt;Node3</title>
<g id="a_edge2_Node000002_Node000003"><a xlink:title=" ">
<path fill="none" stroke="#63b8ff" d="M415.97,-48C407.86,-48 399.73,-48 391.95,-48"/>
<polygon fill="#63b8ff" stroke="#63b8ff" points="415.89,-51.5 425.89,-48 415.89,-44.5 415.89,-51.5"/>
</a>
</g>
</g>
<!-- Node4 -->
<g id="Node000004" class="node">
<title>Node4</title>
<g id="a_Node000004"><a xlink:href="../../d8/dfc/class_a_e_logger.html#a134f36542cb09532588436c53df9653d" target="_top" xlink:title="Class constructor – it opens the file with the given path and name and start logging to it.">
<polygon fill="white" stroke="#666666" points="245,-77 137.5,-77 137.5,-57 245,-57 245,-77"/>
<text text-anchor="middle" x="191.25" y="-63.5" font-family="Helvetica,sans-Serif" font-size="10.00">AELogger::AELogger</text>
</a>
</g>
</g>
<!-- Node3&#45;&gt;Node4 -->
<g id="edge3_Node000003_Node000004" class="edge">
<title>Node3&#45;&gt;Node4</title>
<g id="a_edge3_Node000003_Node000004"><a xlink:title=" ">
<path fill="none" stroke="#63b8ff" d="M269.4,-56.75C261.27,-57.83 253.05,-58.92 245.15,-59.97"/>
<polygon fill="#63b8ff" stroke="#63b8ff" points="269.83,-60.22 279.28,-55.44 268.91,-53.28 269.83,-60.22"/>
</a>
</g>
</g>
<!-- Node5 -->
<g id="Node000005" class="node">
<title>Node5</title>
<g id="a_Node000005"><a xlink:href="../../d8/dfc/class_a_e_logger.html#a53b588f9874535299d612a4c71de9950" target="_top" xlink:title="Open the file to start logging.">
<polygon fill="white" stroke="#666666" points="242,-39 140.5,-39 140.5,-19 242,-19 242,-39"/>
<text text-anchor="middle" x="191.25" y="-25.5" font-family="Helvetica,sans-Serif" font-size="10.00">AELogger::openLog</text>
</a>
</g>
</g>
<!-- Node3&#45;&gt;Node5 -->
<g id="edge4_Node000003_Node000005" class="edge">
<title>Node3&#45;&gt;Node5</title>
<g id="a_edge4_Node000003_Node000005"><a xlink:title=" ">
<path fill="none" stroke="#63b8ff" d="M269.38,-39.25C260.29,-38.04 251.08,-36.82 242.34,-35.66"/>
<polygon fill="#63b8ff" stroke="#63b8ff" points="268.91,-42.72 279.28,-40.56 269.83,-35.78 268.91,-42.72"/>
</a>
</g>
</g>
<!-- Node6 -->
<g id="Node000006" class="node">
<title>Node6</title>
<g id="a_Node000006"><a xlink:href="../../d8/dfc/class_a_e_logger.html#ac8f55a9e3c92557ea3d92974093ff6fb" target="_top" xlink:title="Open the file to start logging.">
<polygon fill="white" stroke="#666666" points="101.5,-58 0,-58 0,-38 101.5,-38 101.5,-58"/>
<text text-anchor="middle" x="50.75" y="-44.5" font-family="Helvetica,sans-Serif" font-size="10.00">AELogger::openLog</text>
</a>
</g>
</g>
<!-- Node5&#45;&gt;Node6 -->
<g id="edge5_Node000005_Node000006" class="edge">
<title>Node5&#45;&gt;Node6</title>
<g id="a_edge5_Node000005_Node000006"><a xlink:title=" ">
<path fill="none" stroke="#63b8ff" d="M128.87,-37.42C119.78,-38.67 110.5,-39.94 101.68,-41.15"/>
<polygon fill="#63b8ff" stroke="#63b8ff" points="129.32,-40.89 138.75,-36.07 128.37,-33.96 129.32,-40.89"/>
</a>
</g>
</g>
<!-- Node7 -->
<g id="Node000007" class="node">
<title>Node7</title>
<g id="a_Node000007"><a xlink:href="../../d8/dfc/class_a_e_logger.html#acbfddb2d8f459f32ce58d7c06cc2ddaa" target="_top" xlink:title="Open the file to start logging.">
<polygon fill="white" stroke="#666666" points="101.5,-20 0,-20 0,0 101.5,0 101.5,-20"/>
<text text-anchor="middle" x="50.75" y="-6.5" font-family="Helvetica,sans-Serif" font-size="10.00">AELogger::openLog</text>
</a>
</g>
</g>
<!-- Node5&#45;&gt;Node7 -->
<g id="edge6_Node000005_Node000007" class="edge">
<title>Node5&#45;&gt;Node7</title>
<g id="a_edge6_Node000005_Node000007"><a xlink:title=" ">
<path fill="none" stroke="#63b8ff" d="M128.87,-20.58C119.78,-19.33 110.5,-18.06 101.68,-16.85"/>
<polygon fill="#63b8ff" stroke="#63b8ff" points="128.37,-24.04 138.75,-21.93 129.32,-17.11 128.37,-24.04"/>
</a>
</g>
</g>
</g>
</svg>
