<?xml version="1.0" encoding="UTF-8" standalone="no"?>
<!DOCTYPE svg PUBLIC "-//W3C//DTD SVG 1.1//EN"
 "http://www.w3.org/Graphics/SVG/1.1/DTD/svg11.dtd">
<!-- Generated by graphviz version 10.0.1 (20240210.2158)
 -->
<!-- Title: ace::utils::fopenCC Pages: 1 -->
<svg width="577pt" height="161pt"
 viewBox="0.00 0.00 576.75 161.00" xmlns="http://www.w3.org/2000/svg" xmlns:xlink="http://www.w3.org/1999/xlink">
<g id="graph0" class="graph" transform="scale(1 1) rotate(0) translate(4 157)">
<title>ace::utils::fopenCC</title>
<!-- Node1 -->
<g id="Node000001" class="node">
<title>Node1</title>
<g id="a_Node000001"><a xlink:title="A wrapper to make the proper cross&#45;compiler version of fopen().">
<polygon fill="#999999" stroke="#666666" points="568.75,-96 470.25,-96 470.25,-76 568.75,-76 568.75,-96"/>
<text text-anchor="middle" x="519.5" y="-82.5" font-family="Helvetica,sans-Serif" font-size="10.00">ace::utils::fopenCC</text>
</a>
</g>
</g>
<!-- Node2 -->
<g id="Node000002" class="node">
<title>Node2</title>
<g id="a_Node000002"><a xlink:href="../../dd/dd5/class_a_e_file_reader.html#a3afc3610a9a39a170c7f405dc97557ee" target="_top" xlink:title="Opens the file for reading.">
<polygon fill="white" stroke="#666666" points="434.25,-115 315.5,-115 315.5,-95 434.25,-95 434.25,-115"/>
<text text-anchor="middle" x="374.88" y="-101.5" font-family="Helvetica,sans-Serif" font-size="10.00">AEFileReader::openFile</text>
</a>
</g>
</g>
<!-- Node1&#45;&gt;Node2 -->
<g id="edge1_Node000001_Node000002" class="edge">
<title>Node1&#45;&gt;Node2</title>
<g id="a_edge1_Node000001_Node000002"><a xlink:title=" ">
<path fill="none" stroke="#63b8ff" d="M458.47,-94C450.6,-95.05 442.54,-96.12 434.69,-97.16"/>
<polygon fill="#63b8ff" stroke="#63b8ff" points="458.86,-97.48 468.32,-92.69 457.94,-90.54 458.86,-97.48"/>
</a>
</g>
</g>
<!-- Node5 -->
<g id="Node000005" class="node">
<title>Node5</title>
<g id="a_Node000005"><a xlink:href="../../db/d15/class_a_e_file_writer.html#a939fe602eecb15ba71448a9de13bb2c0" target="_top" xlink:title="Open(and create) file with given name and flag.">
<polygon fill="white" stroke="#666666" points="432,-77 317.75,-77 317.75,-57 432,-57 432,-77"/>
<text text-anchor="middle" x="374.88" y="-63.5" font-family="Helvetica,sans-Serif" font-size="10.00">AEFileWriter::openFile</text>
</a>
</g>
</g>
<!-- Node1&#45;&gt;Node5 -->
<g id="edge4_Node000001_Node000005" class="edge">
<title>Node1&#45;&gt;Node5</title>
<g id="a_edge4_Node000001_Node000005"><a xlink:title=" ">
<path fill="none" stroke="#63b8ff" d="M458.53,-78.01C449.8,-76.85 440.85,-75.66 432.2,-74.5"/>
<polygon fill="#63b8ff" stroke="#63b8ff" points="457.94,-81.46 468.32,-79.31 458.86,-74.52 457.94,-81.46"/>
</a>
</g>
</g>
<!-- Node3 -->
<g id="Node000003" class="node">
<title>Node3</title>
<g id="a_Node000003"><a xlink:href="../../dd/dd5/class_a_e_file_reader.html#a7d0c498896f1c10c36330ef4efaee81e" target="_top" xlink:title="Class constructor – constructs the instance and opens the file of given name.">
<polygon fill="white" stroke="#666666" points="279.5,-153 137.5,-153 137.5,-133 279.5,-133 279.5,-153"/>
<text text-anchor="middle" x="208.5" y="-139.5" font-family="Helvetica,sans-Serif" font-size="10.00">AEFileReader::AEFileReader</text>
</a>
</g>
</g>
<!-- Node2&#45;&gt;Node3 -->
<g id="edge2_Node000002_Node000003" class="edge">
<title>Node2&#45;&gt;Node3</title>
<g id="a_edge2_Node000002_Node000003"><a xlink:title=" ">
<path fill="none" stroke="#63b8ff" d="M317.43,-118.05C296.94,-122.78 274.09,-128.07 254.7,-132.55"/>
<polygon fill="#63b8ff" stroke="#63b8ff" points="318.09,-121.49 327.05,-115.83 316.52,-114.67 318.09,-121.49"/>
</a>
</g>
</g>
<!-- Node4 -->
<g id="Node000004" class="node">
<title>Node4</title>
<g id="a_Node000004"><a xlink:href="../../d8/d52/class_a_e_log_parser.html#a8e90913ac25c938e2e84a9887c5bae66" target="_top" xlink:title="Opens the log file, reading and parsing every single entry, classifying it by type.">
<polygon fill="white" stroke="#666666" points="266.75,-115 150.25,-115 150.25,-95 266.75,-95 266.75,-115"/>
<text text-anchor="middle" x="208.5" y="-101.5" font-family="Helvetica,sans-Serif" font-size="10.00">AELogParser::openLog</text>
</a>
</g>
</g>
<!-- Node2&#45;&gt;Node4 -->
<g id="edge3_Node000002_Node000004" class="edge">
<title>Node2&#45;&gt;Node4</title>
<g id="a_edge3_Node000002_Node000004"><a xlink:title=" ">
<path fill="none" stroke="#63b8ff" d="M304.25,-105C291.9,-105 279.15,-105 267.17,-105"/>
<polygon fill="#63b8ff" stroke="#63b8ff" points="303.95,-108.5 313.95,-105 303.95,-101.5 303.95,-108.5"/>
</a>
</g>
</g>
<!-- Node6 -->
<g id="Node000006" class="node">
<title>Node6</title>
<g id="a_Node000006"><a xlink:href="../../db/d15/class_a_e_file_writer.html#aab3c5167d1f6945e4846540b5417a57f" target="_top" xlink:title="Class constructor – creates the AEFileWriter instance and opens the file.">
<polygon fill="white" stroke="#666666" points="275,-77 142,-77 142,-57 275,-57 275,-77"/>
<text text-anchor="middle" x="208.5" y="-63.5" font-family="Helvetica,sans-Serif" font-size="10.00">AEFileWriter::AEFileWriter</text>
</a>
</g>
</g>
<!-- Node5&#45;&gt;Node6 -->
<g id="edge5_Node000005_Node000006" class="edge">
<title>Node5&#45;&gt;Node6</title>
<g id="a_edge5_Node000005_Node000006"><a xlink:title=" ">
<path fill="none" stroke="#63b8ff" d="M305.99,-67C295.82,-67 285.35,-67 275.22,-67"/>
<polygon fill="#63b8ff" stroke="#63b8ff" points="305.79,-70.5 315.79,-67 305.79,-63.5 305.79,-70.5"/>
</a>
</g>
</g>
<!-- Node7 -->
<g id="Node000007" class="node">
<title>Node7</title>
<g id="a_Node000007"><a xlink:href="../../d8/dfc/class_a_e_logger.html#a53b588f9874535299d612a4c71de9950" target="_top" xlink:title="Open the file to start logging.">
<polygon fill="white" stroke="#666666" points="259.25,-39 157.75,-39 157.75,-19 259.25,-19 259.25,-39"/>
<text text-anchor="middle" x="208.5" y="-25.5" font-family="Helvetica,sans-Serif" font-size="10.00">AELogger::openLog</text>
</a>
</g>
</g>
<!-- Node5&#45;&gt;Node7 -->
<g id="edge6_Node000005_Node000007" class="edge">
<title>Node5&#45;&gt;Node7</title>
<g id="a_edge6_Node000005_Node000007"><a xlink:title=" ">
<path fill="none" stroke="#63b8ff" d="M317.43,-53.95C296.94,-49.22 274.09,-43.93 254.7,-39.45"/>
<polygon fill="#63b8ff" stroke="#63b8ff" points="316.52,-57.33 327.05,-56.17 318.09,-50.51 316.52,-57.33"/>
</a>
</g>
</g>
<!-- Node8 -->
<g id="Node000008" class="node">
<title>Node8</title>
<g id="a_Node000008"><a xlink:href="../../d8/dfc/class_a_e_logger.html#ac8f55a9e3c92557ea3d92974093ff6fb" target="_top" xlink:title="Open the file to start logging.">
<polygon fill="white" stroke="#666666" points="101.5,-58 0,-58 0,-38 101.5,-38 101.5,-58"/>
<text text-anchor="middle" x="50.75" y="-44.5" font-family="Helvetica,sans-Serif" font-size="10.00">AELogger::openLog</text>
</a>
</g>
</g>
<!-- Node7&#45;&gt;Node8 -->
<g id="edge7_Node000007_Node000008" class="edge">
<title>Node7&#45;&gt;Node8</title>
<g id="a_edge7_Node000007_Node000008"><a xlink:title=" ">
<path fill="none" stroke="#63b8ff" d="M146.29,-36.47C131.54,-38.27 115.96,-40.17 101.79,-41.9"/>
<polygon fill="#63b8ff" stroke="#63b8ff" points="146.36,-39.98 155.86,-35.3 145.51,-33.04 146.36,-39.98"/>
</a>
</g>
</g>
<!-- Node9 -->
<g id="Node000009" class="node">
<title>Node9</title>
<g id="a_Node000009"><a xlink:href="../../d8/dfc/class_a_e_logger.html#acbfddb2d8f459f32ce58d7c06cc2ddaa" target="_top" xlink:title="Open the file to start logging.">
<polygon fill="white" stroke="#666666" points="101.5,-20 0,-20 0,0 101.5,0 101.5,-20"/>
<text text-anchor="middle" x="50.75" y="-6.5" font-family="Helvetica,sans-Serif" font-size="10.00">AELogger::openLog</text>
</a>
</g>
</g>
<!-- Node7&#45;&gt;Node9 -->
<g id="edge8_Node000007_Node000009" class="edge">
<title>Node7&#45;&gt;Node9</title>
<g id="a_edge8_Node000007_Node000009"><a xlink:title=" ">
<path fill="none" stroke="#63b8ff" d="M146.29,-21.53C131.54,-19.73 115.96,-17.83 101.79,-16.1"/>
<polygon fill="#63b8ff" stroke="#63b8ff" points="145.51,-24.96 155.86,-22.7 146.36,-18.02 145.51,-24.96"/>
</a>
</g>
</g>
</g>
</svg>
