<?xml version="1.0" encoding="UTF-8" standalone="no"?>
<!DOCTYPE svg PUBLIC "-//W3C//DTD SVG 1.1//EN"
 "http://www.w3.org/Graphics/SVG/1.1/DTD/svg11.dtd">
<!-- Generated by graphviz version 10.0.1 (20240210.2158)
 -->
<!-- Title: ace::utils::isInRange Pages: 1 -->
<!--zoomable 512 -->

<svg id="main" version="1.1" xmlns="http://www.w3.org/2000/svg" xmlns:xlink="http://www.w3.org/1999/xlink" xml:space="preserve" onload="init(evt)">
<style type="text/css"><![CDATA[
.node, .edge {opacity: 0.7;}
.node.selected, .edge.selected {opacity: 1;}
.edge:hover path { stroke: red; }
.edge:hover polygon { stroke: red; fill: red; }
]]></style>

<defs>
  <circle id="rim" cx="0" cy="0" r="7"/>
  <circle id="rim2" cx="0" cy="0" r="3.5"/>
  <g id="zoomPlus">
    <use xlink:href="#rim" fill="#404040"><set attributeName="fill" to="#808080" begin="zoomplus.mouseover" end="zoomplus.mouseout"/></use>
    <path d="M-4,0h8M0,-4v8" fill="none" stroke="white" stroke-width="1.5" pointer-events="none"/>
  </g>
  <g id="zoomMin">
    <use xlink:href="#rim" fill="#404040"><set attributeName="fill" to="#808080" begin="zoomminus.mouseover" end="zoomminus.mouseout"/></use>
    <path d="M-4,0h8" fill="none" stroke="white" stroke-width="1.5" pointer-events="none"/>
  </g>
  <g id="arrowUp" transform="translate(30 24)">
    <use xlink:href="#rim"/>
    <path pointer-events="none" fill="none" stroke="white" stroke-width="1.5" d="M0,-3.0v7 M-2.5,-0.5L0,-3.0L2.5,-0.5"/>
  </g>
  <g id="arrowRight" transform="rotate(90) translate(36 -43)">
    <use xlink:href="#rim"/>
    <path pointer-events="none" fill="none" stroke="white" stroke-width="1.5" d="M0,-3.0v7 M-2.5,-0.5L0,-3.0L2.5,-0.5"/>
  </g>
  <g id="arrowDown" transform="rotate(180) translate(-30 -48)">
    <use xlink:href="#rim"/>
    <path pointer-events="none" fill="none" stroke="white" stroke-width="1.5" d="M0,-3.0v7 M-2.5,-0.5L0,-3.0L2.5,-0.5"/>
  </g>
  <g id="arrowLeft" transform="rotate(270) translate(-36 17)">
    <use xlink:href="#rim"/>
    <path pointer-events="none" fill="none" stroke="white" stroke-width="1.5" d="M0,-3.0v7 M-2.5,-0.5L0,-3.0L2.5,-0.5"/>
  </g>
  <g id="resetDef">
    <use xlink:href="#rim2" fill="#404040"><set attributeName="fill" to="#808080" begin="reset.mouseover" end="reset.mouseout"/></use>
  </g>
</defs>
<script type="application/ecmascript">
var viewWidth = 1276;
var viewHeight = 512;
var sectionId = 'dynsection-1';
</script>
<script type="application/ecmascript" xlink:href="../../svg.min.js"/>
<svg id="graph" class="graph">
<g id="viewport">
<title>ace::utils::isInRange</title>
<!-- Node1 -->
<g id="Node000001" class="node">
<title>Node1</title>
<g id="a_Node000001"><a xlink:title="Checks if the value is within some range.">
<polygon fill="#999999" stroke="#666666" points="1267.75,-427.52 1163.25,-427.52 1163.25,-407.52 1267.75,-407.52 1267.75,-427.52"/>
<text text-anchor="middle" x="1215.5" y="-414.02" font-family="Helvetica,sans-Serif" font-size="10.00">ace::utils::isInRange</text>
</a>
</g>
</g>
<!-- Node2 -->
<g id="Node000002" class="node">
<title>Node2</title>
<g id="a_Node000002"><a xlink:href="../../d8/d52/class_a_e_log_parser.html#a69ba96647922d2b2996c8b46832a8f3d" target="_top" xlink:title="Get the amount of entries of a certain type/severity.">
<polygon fill="white" stroke="#666666" points="751.75,-465.52 588,-465.52 588,-445.52 751.75,-445.52 751.75,-465.52"/>
<text text-anchor="middle" x="669.88" y="-452.02" font-family="Helvetica,sans-Serif" font-size="10.00">AELogParser::amountEntriesType</text>
</a>
</g>
</g>
<!-- Node1&#45;&gt;Node2 -->
<g id="edge1_Node000001_Node000002" class="edge">
<title>Node1&#45;&gt;Node2</title>
<g id="a_edge1_Node000001_Node000002"><a xlink:title=" ">
<path fill="none" stroke="#63b8ff" d="M1151.46,-424.32C1143.32,-425.11 1135.09,-425.86 1127.25,-426.52 996.11,-437.44 843.47,-446.38 752.15,-451.32"/>
<polygon fill="#63b8ff" stroke="#63b8ff" points="1151.75,-427.81 1161.35,-423.33 1151.06,-420.84 1151.75,-427.81"/>
</a>
</g>
</g>
<!-- Node6 -->
<g id="Node000006" class="node">
<title>Node6</title>
<g id="a_Node000006"><a xlink:href="../../d8/d52/class_a_e_log_parser.html#a3a490ef241fb6f24144e544e7c2e661d" target="_top" xlink:title="Get the amount of valid entries in the log (with optional lowest severity setting).">
<polygon fill="white" stroke="#666666" points="1127.25,-503.52 962.75,-503.52 962.75,-483.52 1127.25,-483.52 1127.25,-503.52"/>
<text text-anchor="middle" x="1045" y="-490.02" font-family="Helvetica,sans-Serif" font-size="10.00">AELogParser::amountEntriesValid</text>
</a>
</g>
</g>
<!-- Node1&#45;&gt;Node6 -->
<g id="edge5_Node000001_Node000006" class="edge">
<title>Node1&#45;&gt;Node6</title>
<g id="a_edge5_Node000001_Node000006"><a xlink:title=" ">
<path fill="none" stroke="#63b8ff" d="M1190.47,-434.08C1173.42,-445.26 1149.67,-459.71 1127.25,-469.52 1115.12,-474.82 1101.48,-479.36 1088.89,-483.02"/>
<polygon fill="#63b8ff" stroke="#63b8ff" points="1192.04,-437.23 1198.42,-428.77 1188.16,-431.41 1192.04,-437.23"/>
</a>
</g>
</g>
<!-- Node7 -->
<g id="Node000007" class="node">
<title>Node7</title>
<g id="a_Node000007"><a xlink:href="../../d8/d52/class_a_e_log_parser.html#a04627d27deedd7981a5e106dd8ade5ed" target="_top" xlink:title="Checks if the current log file contains the given severity (or higher, depending on the &quot;strict&#45;sever...">
<polygon fill="white" stroke="#666666" points="1120.5,-389.52 969.5,-389.52 969.5,-369.52 1120.5,-369.52 1120.5,-389.52"/>
<text text-anchor="middle" x="1045" y="-376.02" font-family="Helvetica,sans-Serif" font-size="10.00">AELogParser::containsSeverity</text>
</a>
</g>
</g>
<!-- Node1&#45;&gt;Node7 -->
<g id="edge7_Node000001_Node000007" class="edge">
<title>Node1&#45;&gt;Node7</title>
<g id="a_edge7_Node000001_Node000007"><a xlink:title=" ">
<path fill="none" stroke="#63b8ff" d="M1156.93,-404.53C1135.85,-399.78 1112.3,-394.47 1092.34,-389.97"/>
<polygon fill="#63b8ff" stroke="#63b8ff" points="1156.01,-407.91 1166.53,-406.7 1157.55,-401.09 1156.01,-407.91"/>
</a>
</g>
</g>
<!-- Node8 -->
<g id="Node000008" class="node">
<title>Node8</title>
<g id="a_Node000008"><a xlink:href="../../d8/d52/class_a_e_log_parser.html#afcff7caee18bdcafa1dc0edb75a75590" target="_top" xlink:title="Finds the AELogEntryInfo corresponding to the next log entry with the specified severity and module n...">
<polygon fill="white" stroke="#666666" points="926.38,-418.52 788.12,-418.52 788.12,-398.52 926.38,-398.52 926.38,-418.52"/>
<text text-anchor="middle" x="857.25" y="-405.02" font-family="Helvetica,sans-Serif" font-size="10.00">AELogParser::findNextEntry</text>
</a>
</g>
</g>
<!-- Node1&#45;&gt;Node8 -->
<g id="edge16_Node000001_Node000008" class="edge">
<title>Node1&#45;&gt;Node8</title>
<g id="a_edge16_Node000001_Node000008"><a xlink:title=" ">
<path fill="none" stroke="#63b8ff" d="M1151.71,-415.93C1088.66,-414.34 991.77,-411.89 926.75,-410.25"/>
<polygon fill="#63b8ff" stroke="#63b8ff" points="1151.48,-419.43 1161.57,-416.18 1151.66,-412.43 1151.48,-419.43"/>
</a>
</g>
</g>
<!-- Node15 -->
<g id="Node000015" class="node">
<title>Node15</title>
<g id="a_Node000015"><a xlink:href="../../d8/dfc/class_a_e_logger.html#ac533941173224cb21fe09326726ce754" target="_top" xlink:title="Request a log entry to be written to the opened log file.">
<polygon fill="white" stroke="#666666" points="1100.62,-247.52 989.38,-247.52 989.38,-227.52 1100.62,-227.52 1100.62,-247.52"/>
<text text-anchor="middle" x="1045" y="-234.02" font-family="Helvetica,sans-Serif" font-size="10.00">AELogger::writeToLog</text>
</a>
</g>
</g>
<!-- Node1&#45;&gt;Node15 -->
<g id="edge17_Node000001_Node000015" class="edge">
<title>Node1&#45;&gt;Node15</title>
<g id="a_edge17_Node000001_Node000015"><a xlink:title=" ">
<path fill="none" stroke="#63b8ff" d="M1197.15,-398.98C1162,-361.44 1083.42,-277.49 1055.81,-248"/>
<polygon fill="#63b8ff" stroke="#63b8ff" points="1194.29,-401.05 1203.68,-405.96 1199.4,-396.26 1194.29,-401.05"/>
</a>
</g>
</g>
<!-- Node3 -->
<g id="Node000003" class="node">
<title>Node3</title>
<g id="a_Node000003"><a xlink:href="../../d8/d52/class_a_e_log_parser.html#a182d51b4aa5771e2e6f6919300e571ca" target="_top" xlink:title="Same as the AELogParser::nextEntry() but on massive scale – scans the whole log file and parses it to...">
<polygon fill="white" stroke="#666666" points="332.38,-465.52 200.88,-465.52 200.88,-445.52 332.38,-445.52 332.38,-465.52"/>
<text text-anchor="middle" x="266.62" y="-452.02" font-family="Helvetica,sans-Serif" font-size="10.00">AELogParser::logToQueue</text>
</a>
</g>
</g>
<!-- Node2&#45;&gt;Node3 -->
<g id="edge2_Node000002_Node000003" class="edge">
<title>Node2&#45;&gt;Node3</title>
<g id="a_edge2_Node000002_Node000003"><a xlink:title=" ">
<path fill="none" stroke="#63b8ff" d="M576.43,-455.52C501.9,-455.52 398.95,-455.52 332.82,-455.52"/>
<polygon fill="#63b8ff" stroke="#63b8ff" points="576.16,-459.02 586.16,-455.52 576.16,-452.02 576.16,-459.02"/>
</a>
</g>
</g>
<!-- Node4 -->
<g id="Node000004" class="node">
<title>Node4</title>
<g id="a_Node000004"><a xlink:href="../../d8/d52/class_a_e_log_parser.html#ae5044cf01623156d91ddc74492b0aeda" target="_top" xlink:title="A shortcut to AELogParser::logToQueue() to filter only by the module name of the log entries.">
<polygon fill="white" stroke="#666666" points="157,-484.52 0,-484.52 0,-464.52 157,-464.52 157,-484.52"/>
<text text-anchor="middle" x="78.5" y="-471.02" font-family="Helvetica,sans-Serif" font-size="10.00">AELogParser::logToQueueName</text>
</a>
</g>
</g>
<!-- Node3&#45;&gt;Node4 -->
<g id="edge3_Node000003_Node000004" class="edge">
<title>Node3&#45;&gt;Node4</title>
<g id="a_edge3_Node000003_Node000004"><a xlink:title=" ">
<path fill="none" stroke="#63b8ff" d="M189.25,-463.31C178.72,-464.39 167.9,-465.49 157.35,-466.57"/>
<polygon fill="#63b8ff" stroke="#63b8ff" points="189.43,-466.81 199.02,-462.32 188.72,-459.85 189.43,-466.81"/>
</a>
</g>
</g>
<!-- Node5 -->
<g id="Node000005" class="node">
<title>Node5</title>
<g id="a_Node000005"><a xlink:href="../../d8/d52/class_a_e_log_parser.html#ab84bb93f08ed48082f74b00290deb308" target="_top" xlink:title="A shortcut to AELogParser::logToQueue() to filter only by type/severity of the log entries.">
<polygon fill="white" stroke="#666666" points="154.75,-446.52 2.25,-446.52 2.25,-426.52 154.75,-426.52 154.75,-446.52"/>
<text text-anchor="middle" x="78.5" y="-433.02" font-family="Helvetica,sans-Serif" font-size="10.00">AELogParser::logToQueueType</text>
</a>
</g>
</g>
<!-- Node3&#45;&gt;Node5 -->
<g id="edge4_Node000003_Node000005" class="edge">
<title>Node3&#45;&gt;Node5</title>
<g id="a_edge4_Node000003_Node000005"><a xlink:title=" ">
<path fill="none" stroke="#63b8ff" d="M189.35,-447.73C178.04,-446.58 166.39,-445.39 155.09,-444.23"/>
<polygon fill="#63b8ff" stroke="#63b8ff" points="188.72,-451.18 199.02,-448.72 189.43,-444.22 188.72,-451.18"/>
</a>
</g>
</g>
<!-- Node6&#45;&gt;Node3 -->
<g id="edge6_Node000006_Node000003" class="edge">
<title>Node6&#45;&gt;Node3</title>
<g id="a_edge6_Node000006_Node000003"><a xlink:title=" ">
<path fill="none" stroke="#63b8ff" d="M951.01,-492.88C821.85,-491.38 580.92,-486.35 376.25,-469.52 362.13,-468.36 347.03,-466.69 332.72,-464.9"/>
<polygon fill="#63b8ff" stroke="#63b8ff" points="950.84,-496.38 960.88,-492.99 950.92,-489.38 950.84,-496.38"/>
</a>
</g>
</g>
<!-- Node7&#45;&gt;Node8 -->
<g id="edge8_Node000007_Node000008" class="edge">
<title>Node7&#45;&gt;Node8</title>
<g id="a_edge8_Node000007_Node000008"><a xlink:title=" ">
<path fill="none" stroke="#63b8ff" d="M965.74,-391.74C952.26,-393.84 938.36,-396.01 925.21,-398.06"/>
<polygon fill="#63b8ff" stroke="#63b8ff" points="966.1,-395.22 975.44,-390.22 965.02,-388.3 966.1,-395.22"/>
</a>
</g>
</g>
<!-- Node9 -->
<g id="Node000009" class="node">
<title>Node9</title>
<g id="a_Node000009"><a xlink:href="../../d8/d52/class_a_e_log_parser.html#ae89b754ad98409469e9b7405f63edee2" target="_top" xlink:title="Read the next indexed valid log entry in the file of the given severity and module name filter,...">
<polygon fill="white" stroke="#666666" points="745,-399.52 594.75,-399.52 594.75,-379.52 745,-379.52 745,-399.52"/>
<text text-anchor="middle" x="669.88" y="-386.02" font-family="Helvetica,sans-Serif" font-size="10.00">AELogParser::nextEntryCursor</text>
</a>
</g>
</g>
<!-- Node8&#45;&gt;Node9 -->
<g id="edge9_Node000008_Node000009" class="edge">
<title>Node8&#45;&gt;Node9</title>
<g id="a_edge9_Node000008_Node000009"><a xlink:title=" ">
<path fill="none" stroke="#63b8ff" d="M776.6,-400.35C766.22,-399.29 755.62,-398.2 745.32,-397.15"/>
<polygon fill="#63b8ff" stroke="#63b8ff" points="775.94,-403.8 786.24,-401.34 776.65,-396.84 775.94,-403.8"/>
</a>
</g>
</g>
<!-- Node10 -->
<g id="Node000010" class="node">
<title>Node10</title>
<g id="a_Node000010"><a xlink:href="../../d8/d52/class_a_e_log_parser.html#af3c28f50c5f52840be97e631d67b244c" target="_top" xlink:title="Read the next valid entry in the log file of the given severity and module name filter,...">
<polygon fill="white" stroke="#666666" points="525,-427.52 403.25,-427.52 403.25,-407.52 525,-407.52 525,-427.52"/>
<text text-anchor="middle" x="464.12" y="-414.02" font-family="Helvetica,sans-Serif" font-size="10.00">AELogParser::nextEntry</text>
</a>
</g>
</g>
<!-- Node9&#45;&gt;Node10 -->
<g id="edge10_Node000009_Node000010" class="edge">
<title>Node9&#45;&gt;Node10</title>
<g id="a_edge10_Node000009_Node000010"><a xlink:title=" ">
<path fill="none" stroke="#63b8ff" d="M583.12,-401.3C563.69,-403.97 543.45,-406.75 525.34,-409.24"/>
<polygon fill="#63b8ff" stroke="#63b8ff" points="583.52,-404.78 592.95,-399.95 582.57,-397.84 583.52,-404.78"/>
</a>
</g>
</g>
<!-- Node13 -->
<g id="Node000013" class="node">
<title>Node13</title>
<g id="a_Node000013"><a xlink:href="../../d8/d52/class_a_e_log_parser.html#a6e74863a220efa6ca9c3b3067d953469" target="_top" xlink:title="Read the next indexed valid log entry in the file of the given module name filter,...">
<polygon fill="white" stroke="#666666" points="552,-389.52 376.25,-389.52 376.25,-369.52 552,-369.52 552,-389.52"/>
<text text-anchor="middle" x="464.12" y="-376.02" font-family="Helvetica,sans-Serif" font-size="10.00">AELogParser::nextEntryCursorName</text>
</a>
</g>
</g>
<!-- Node9&#45;&gt;Node13 -->
<g id="edge14_Node000009_Node000013" class="edge">
<title>Node9&#45;&gt;Node13</title>
<g id="a_edge14_Node000009_Node000013"><a xlink:title=" ">
<path fill="none" stroke="#63b8ff" d="M583.12,-385.31C572.99,-384.81 562.64,-384.3 552.48,-383.8"/>
<polygon fill="#63b8ff" stroke="#63b8ff" points="582.78,-388.8 592.94,-385.79 583.12,-381.8 582.78,-388.8"/>
</a>
</g>
</g>
<!-- Node14 -->
<g id="Node000014" class="node">
<title>Node14</title>
<g id="a_Node000014"><a xlink:href="../../d8/d52/class_a_e_log_parser.html#aff3bcd025e52cd530cbb576d47915c53" target="_top" xlink:title="Read the next indexed valid log entry in the file of the given severity filter and return it&#39;s file c...">
<polygon fill="white" stroke="#666666" points="549.75,-351.52 378.5,-351.52 378.5,-331.52 549.75,-331.52 549.75,-351.52"/>
<text text-anchor="middle" x="464.12" y="-338.02" font-family="Helvetica,sans-Serif" font-size="10.00">AELogParser::nextEntryCursorType</text>
</a>
</g>
</g>
<!-- Node9&#45;&gt;Node14 -->
<g id="edge15_Node000009_Node000014" class="edge">
<title>Node9&#45;&gt;Node14</title>
<g id="a_edge15_Node000009_Node000014"><a xlink:title=" ">
<path fill="none" stroke="#63b8ff" d="M616.67,-376.23C596.5,-371.19 573.2,-365.47 552,-360.52 539.67,-357.64 526.33,-354.66 513.88,-351.93"/>
<polygon fill="#63b8ff" stroke="#63b8ff" points="615.82,-379.63 626.37,-378.67 617.52,-372.84 615.82,-379.63"/>
</a>
</g>
</g>
<!-- Node10&#45;&gt;Node3 -->
<g id="edge11_Node000010_Node000003" class="edge">
<title>Node10&#45;&gt;Node3</title>
<g id="a_edge11_Node000010_Node000003"><a xlink:title=" ">
<path fill="none" stroke="#63b8ff" d="M398.01,-430.17C373.14,-435.01 345.08,-440.46 321.39,-445.07"/>
<polygon fill="#63b8ff" stroke="#63b8ff" points="398.55,-433.63 407.7,-428.29 397.22,-426.76 398.55,-433.63"/>
</a>
</g>
</g>
<!-- Node11 -->
<g id="Node000011" class="node">
<title>Node11</title>
<g id="a_Node000011"><a xlink:href="../../d8/d52/class_a_e_log_parser.html#a768d4b94cbf1504d72f93ec5d131e915" target="_top" xlink:title="Read the next valid entry in the log file of the given module name, and parse it into the given AELog...">
<polygon fill="white" stroke="#666666" points="340.25,-389.52 193,-389.52 193,-369.52 340.25,-369.52 340.25,-389.52"/>
<text text-anchor="middle" x="266.62" y="-376.02" font-family="Helvetica,sans-Serif" font-size="10.00">AELogParser::nextEntryName</text>
</a>
</g>
</g>
<!-- Node10&#45;&gt;Node11 -->
<g id="edge12_Node000010_Node000011" class="edge">
<title>Node10&#45;&gt;Node11</title>
<g id="a_edge12_Node000010_Node000011"><a xlink:title=" ">
<path fill="none" stroke="#63b8ff" d="M398.01,-404.86C373.14,-400.03 345.08,-394.57 321.39,-389.97"/>
<polygon fill="#63b8ff" stroke="#63b8ff" points="397.22,-408.27 407.7,-406.74 398.55,-401.4 397.22,-408.27"/>
</a>
</g>
</g>
<!-- Node12 -->
<g id="Node000012" class="node">
<title>Node12</title>
<g id="a_Node000012"><a xlink:href="../../d8/d52/class_a_e_log_parser.html#a0e03f67c2a0eaa0317904a2bd9f70cc0" target="_top" xlink:title="Read the next valid entry in the log file of the given severity, and parse it to the given AELogEntry...">
<polygon fill="white" stroke="#666666" points="338,-427.52 195.25,-427.52 195.25,-407.52 338,-407.52 338,-427.52"/>
<text text-anchor="middle" x="266.62" y="-414.02" font-family="Helvetica,sans-Serif" font-size="10.00">AELogParser::nextEntryType</text>
</a>
</g>
</g>
<!-- Node10&#45;&gt;Node12 -->
<g id="edge13_Node000010_Node000012" class="edge">
<title>Node10&#45;&gt;Node12</title>
<g id="a_edge13_Node000010_Node000012"><a xlink:title=" ">
<path fill="none" stroke="#63b8ff" d="M391.64,-417.52C374.25,-417.52 355.66,-417.52 338.31,-417.52"/>
<polygon fill="#63b8ff" stroke="#63b8ff" points="391.36,-421.02 401.36,-417.52 391.36,-414.02 391.36,-421.02"/>
</a>
</g>
</g>
<!-- Node16 -->
<g id="Node000016" class="node">
<title>Node16</title>
<g id="a_Node000016"><a xlink:href="../../d8/dfc/class_a_e_logger.html#a134f36542cb09532588436c53df9653d" target="_top" xlink:title="Class constructor – it opens the file with the given path and name and start logging to it.">
<polygon fill="white" stroke="#666666" points="320.38,-190.52 212.88,-190.52 212.88,-170.52 320.38,-170.52 320.38,-190.52"/>
<text text-anchor="middle" x="266.62" y="-177.02" font-family="Helvetica,sans-Serif" font-size="10.00">AELogger::AELogger</text>
</a>
</g>
</g>
<!-- Node15&#45;&gt;Node16 -->
<g id="edge18_Node000015_Node000016" class="edge">
<title>Node15&#45;&gt;Node16</title>
<g id="a_edge18_Node000015_Node000016"><a xlink:title=" ">
<path fill="none" stroke="#63b8ff" d="M977.63,-237.32C925.87,-236.91 852.2,-235.73 787.75,-232.52 604.5,-223.39 558.26,-222.68 376.25,-199.52 358.11,-197.21 338.39,-193.98 320.79,-190.84"/>
<polygon fill="#63b8ff" stroke="#63b8ff" points="977.44,-240.82 987.47,-237.39 977.49,-233.82 977.44,-240.82"/>
</a>
</g>
</g>
<!-- Node17 -->
<g id="Node000017" class="node">
<title>Node17</title>
<g id="a_Node000017"><a xlink:href="../../d8/dfc/class_a_e_logger.html#a4b6c6a8134c8f7f24db7d3f35d62624d" target="_top" xlink:title="Class destructor.">
<polygon fill="white" stroke="#666666" points="520.88,-190.52 407.38,-190.52 407.38,-170.52 520.88,-170.52 520.88,-190.52"/>
<text text-anchor="middle" x="464.12" y="-177.02" font-family="Helvetica,sans-Serif" font-size="10.00">AELogger::~AELogger</text>
</a>
</g>
</g>
<!-- Node15&#45;&gt;Node17 -->
<g id="edge19_Node000015_Node000017" class="edge">
<title>Node15&#45;&gt;Node17</title>
<g id="a_edge19_Node000015_Node000017"><a xlink:title=" ">
<path fill="none" stroke="#63b8ff" d="M977.6,-230.98C862.57,-219.65 628.28,-196.58 521.01,-186.02"/>
<polygon fill="#63b8ff" stroke="#63b8ff" points="977.22,-234.46 987.51,-231.96 977.9,-227.49 977.22,-234.46"/>
</a>
</g>
</g>
<!-- Node18 -->
<g id="Node000018" class="node">
<title>Node18</title>
<g id="a_Node000018"><a xlink:href="../../d8/dfc/class_a_e_logger.html#a2f64d8f5de2f249f7cb973a82ec1e48a" target="_top" xlink:title="Close the file, if it was opened.">
<polygon fill="white" stroke="#666666" points="721.75,-171.52 618,-171.52 618,-151.52 721.75,-151.52 721.75,-171.52"/>
<text text-anchor="middle" x="669.88" y="-158.02" font-family="Helvetica,sans-Serif" font-size="10.00">AELogger::closeLog</text>
</a>
</g>
</g>
<!-- Node15&#45;&gt;Node18 -->
<g id="edge20_Node000015_Node000018" class="edge">
<title>Node15&#45;&gt;Node18</title>
<g id="a_edge20_Node000015_Node000018"><a xlink:title=" ">
<path fill="none" stroke="#63b8ff" d="M1024.49,-219.71C1002.58,-201.03 965.05,-172.84 926.75,-161.52 858.17,-141.23 774.64,-146.46 722.1,-153.14"/>
<polygon fill="#63b8ff" stroke="#63b8ff" points="1022.18,-222.34 1032.01,-226.3 1026.79,-217.08 1022.18,-222.34"/>
</a>
</g>
</g>
<!-- Node19 -->
<g id="Node000019" class="node">
<title>Node19</title>
<g id="a_Node000019"><a xlink:href="../../d8/dfc/class_a_e_logger.html#a284034896688215f7e87242764c5985d" target="_top" xlink:title="Starts the log&#45;writing thread.">
<polygon fill="white" stroke="#666666" points="519.38,-114.52 408.88,-114.52 408.88,-94.52 519.38,-94.52 519.38,-114.52"/>
<text text-anchor="middle" x="464.12" y="-101.02" font-family="Helvetica,sans-Serif" font-size="10.00">AELogger::startWriter</text>
</a>
</g>
</g>
<!-- Node15&#45;&gt;Node19 -->
<g id="edge30_Node000015_Node000019" class="edge">
<title>Node15&#45;&gt;Node19</title>
<g id="a_edge30_Node000015_Node000019"><a xlink:title=" ">
<path fill="none" stroke="#63b8ff" d="M1032.91,-217.35C1015.01,-187 976.65,-130.38 926.75,-104.52 784.09,-30.57 581.73,-72.46 500.69,-94.09"/>
<polygon fill="#63b8ff" stroke="#63b8ff" points="1029.81,-218.98 1037.81,-225.93 1035.89,-215.51 1029.81,-218.98"/>
</a>
</g>
</g>
<!-- Node20 -->
<g id="Node000020" class="node">
<title>Node20</title>
<g id="a_Node000020"><a xlink:href="../../d8/dfc/class_a_e_logger.html#a53b588f9874535299d612a4c71de9950" target="_top" xlink:title="Open the file to start logging.">
<polygon fill="white" stroke="#666666" points="317.38,-76.52 215.88,-76.52 215.88,-56.52 317.38,-56.52 317.38,-76.52"/>
<text text-anchor="middle" x="266.62" y="-63.02" font-family="Helvetica,sans-Serif" font-size="10.00">AELogger::openLog</text>
</a>
</g>
</g>
<!-- Node15&#45;&gt;Node20 -->
<g id="edge29_Node000015_Node000020" class="edge">
<title>Node15&#45;&gt;Node20</title>
<g id="a_edge29_Node000015_Node000020"><a xlink:title=" ">
<path fill="none" stroke="#63b8ff" d="M1037.41,-216.73C1023.86,-177.95 988.81,-95.43 926.75,-61.52 713.36,55.09 400.07,-25.33 299.77,-56.03"/>
<polygon fill="#63b8ff" stroke="#63b8ff" points="1034.03,-217.65 1040.52,-226.03 1040.67,-215.43 1034.03,-217.65"/>
</a>
</g>
</g>
<!-- Node23 -->
<g id="Node000023" class="node">
<title>Node23</title>
<g id="a_Node000023"><a xlink:href="../../d8/dfc/class_a_e_logger.html#a5938787b6933f4b96ebff10643bd2497" target="_top" xlink:title="The function of the log writing thread to...read the entries, format them, write them,...">
<polygon fill="white" stroke="#666666" points="736.38,-114.52 603.38,-114.52 603.38,-94.52 736.38,-94.52 736.38,-114.52"/>
<text text-anchor="middle" x="669.88" y="-101.02" font-family="Helvetica,sans-Serif" font-size="10.00">AELogger::logWriterThread</text>
</a>
</g>
</g>
<!-- Node15&#45;&gt;Node23 -->
<g id="edge27_Node000015_Node000023" class="edge">
<title>Node15&#45;&gt;Node23</title>
<g id="a_edge27_Node000015_Node000023"><a xlink:title=" ">
<path fill="none" stroke="#63b8ff" d="M1027.19,-218.82C1006.08,-196.67 967.64,-160.5 926.75,-142.52 866.01,-115.81 790.15,-107.28 736.85,-104.83"/>
<polygon fill="#63b8ff" stroke="#63b8ff" points="1024.48,-221.05 1033.86,-225.99 1029.61,-216.29 1024.48,-221.05"/>
</a>
</g>
</g>
<!-- Node24 -->
<g id="Node000024" class="node">
<title>Node24</title>
<g id="a_Node000024"><a xlink:href="../../d8/dfc/class_a_e_logger.html#a53b212c259c40bda694476f09d1f171b" target="_top" xlink:title="Stops the log&#45;writing thread (after flushing the log queue).">
<polygon fill="white" stroke="#666666" points="912.12,-190.52 802.38,-190.52 802.38,-170.52 912.12,-170.52 912.12,-190.52"/>
<text text-anchor="middle" x="857.25" y="-177.02" font-family="Helvetica,sans-Serif" font-size="10.00">AELogger::stopWriter</text>
</a>
</g>
</g>
<!-- Node15&#45;&gt;Node24 -->
<g id="edge31_Node000015_Node000024" class="edge">
<title>Node15&#45;&gt;Node24</title>
<g id="a_edge31_Node000015_Node000024"><a xlink:title=" ">
<path fill="none" stroke="#63b8ff" d="M999.25,-223.79C966.41,-213.71 922.46,-200.22 892.42,-191"/>
<polygon fill="#63b8ff" stroke="#63b8ff" points="997.9,-227.03 1008.48,-226.62 999.95,-220.34 997.9,-227.03"/>
</a>
</g>
</g>
<!-- Node25 -->
<g id="Node000025" class="node">
<title>Node25</title>
<g id="a_Node000025"><a xlink:href="../../d8/dfc/class_a_e_logger.html#a42debdcd6da993064afc1f4d2357ecfb" target="_top" xlink:title="Writes the current status of the file logger instance (file name, and entries written).">
<polygon fill="white" stroke="#666666" points="914,-380.52 800.5,-380.52 800.5,-360.52 914,-360.52 914,-380.52"/>
<text text-anchor="middle" x="857.25" y="-367.02" font-family="Helvetica,sans-Serif" font-size="10.00">AELogger::writeStatus</text>
</a>
</g>
</g>
<!-- Node15&#45;&gt;Node25 -->
<g id="edge33_Node000015_Node000025" class="edge">
<title>Node15&#45;&gt;Node25</title>
<g id="a_edge33_Node000015_Node000025"><a xlink:title=" ">
<path fill="none" stroke="#63b8ff" d="M1029.39,-256.81C1009.11,-282.25 970.01,-326.69 926.75,-351.52 920.86,-354.9 914.34,-357.7 907.74,-360.02"/>
<polygon fill="#63b8ff" stroke="#63b8ff" points="1032.12,-259.01 1035.51,-248.97 1026.6,-254.7 1032.12,-259.01"/>
</a>
</g>
</g>
<!-- Node26 -->
<g id="Node000026" class="node">
<title>Node26</title>
<g id="a_Node000026"><a xlink:href="../../d8/dfc/class_a_e_logger.html#aa38725e74a352cd316126b32c614c12f" target="_top" xlink:title="Request a log entry to be written to the opened log file, using data from a log entry type.">
<polygon fill="white" stroke="#666666" points="912.88,-342.52 801.62,-342.52 801.62,-322.52 912.88,-322.52 912.88,-342.52"/>
<text text-anchor="middle" x="857.25" y="-329.02" font-family="Helvetica,sans-Serif" font-size="10.00">AELogger::writeToLog</text>
</a>
</g>
</g>
<!-- Node15&#45;&gt;Node26 -->
<g id="edge34_Node000015_Node000026" class="edge">
<title>Node15&#45;&gt;Node26</title>
<g id="a_edge34_Node000015_Node000026"><a xlink:title=" ">
<path fill="none" stroke="#63b8ff" d="M1021.95,-254.76C999.23,-271.79 962.21,-297.56 926.75,-313.52 919.43,-316.81 911.42,-319.65 903.53,-322.07"/>
<polygon fill="#63b8ff" stroke="#63b8ff" points="1024.01,-257.59 1029.85,-248.74 1019.77,-252.02 1024.01,-257.59"/>
</a>
</g>
</g>
<!-- Node27 -->
<g id="Node000027" class="node">
<title>Node27</title>
<g id="a_Node000027"><a xlink:href="../../d8/dfc/class_a_e_logger.html#a50dfd96a74d13471faebd4de499db5bf" target="_top" xlink:title="Request a debug log entry to be written to the opened log file.">
<polygon fill="white" stroke="#666666" points="926.75,-304.52 787.75,-304.52 787.75,-284.52 926.75,-284.52 926.75,-304.52"/>
<text text-anchor="middle" x="857.25" y="-291.02" font-family="Helvetica,sans-Serif" font-size="10.00">AELogger::writeToLogDebug</text>
</a>
</g>
</g>
<!-- Node15&#45;&gt;Node27 -->
<g id="edge35_Node000015_Node000027" class="edge">
<title>Node15&#45;&gt;Node27</title>
<g id="a_edge35_Node000015_Node000027"><a xlink:title=" ">
<path fill="none" stroke="#63b8ff" d="M978.99,-250.99C943.54,-261.15 902.12,-274.56 878.16,-284.03"/>
<polygon fill="#63b8ff" stroke="#63b8ff" points="979.64,-254.45 988.32,-248.37 977.74,-247.71 979.64,-254.45"/>
</a>
</g>
</g>
<!-- Node18&#45;&gt;Node17 -->
<g id="edge21_Node000018_Node000017" class="edge">
<title>Node18&#45;&gt;Node17</title>
<g id="a_edge21_Node000018_Node000017"><a xlink:title=" ">
<path fill="none" stroke="#63b8ff" d="M606.39,-167.34C579.25,-169.87 547.71,-172.82 521.32,-175.28"/>
<polygon fill="#63b8ff" stroke="#63b8ff" points="606.58,-170.84 616.22,-166.43 605.93,-163.87 606.58,-170.84"/>
</a>
</g>
</g>
<!-- Node18&#45;&gt;Node19 -->
<g id="edge22_Node000018_Node000019" class="edge">
<title>Node18&#45;&gt;Node19</title>
<g id="a_edge22_Node000018_Node000019"><a xlink:title=" ">
<path fill="none" stroke="#63b8ff" d="M620.73,-148.05C584.6,-137.94 535.85,-124.3 502.6,-115"/>
<polygon fill="#63b8ff" stroke="#63b8ff" points="619.47,-151.33 630.05,-150.65 621.36,-144.59 619.47,-151.33"/>
</a>
</g>
</g>
<!-- Node19&#45;&gt;Node16 -->
<g id="edge23_Node000019_Node000016" class="edge">
<title>Node19&#45;&gt;Node16</title>
<g id="a_edge23_Node000019_Node000016"><a xlink:title=" ">
<path fill="none" stroke="#63b8ff" d="M426.1,-118.91C387.67,-133.85 328.51,-156.85 294.39,-170.11"/>
<polygon fill="#63b8ff" stroke="#63b8ff" points="426.89,-122.36 434.94,-115.47 424.35,-115.84 426.89,-122.36"/>
</a>
</g>
</g>
<!-- Node19&#45;&gt;Node20 -->
<g id="edge24_Node000019_Node000020" class="edge">
<title>Node19&#45;&gt;Node20</title>
<g id="a_edge24_Node000019_Node000020"><a xlink:title=" ">
<path fill="none" stroke="#63b8ff" d="M398.19,-91.9C371.97,-86.8 342.19,-81.01 317.7,-76.25"/>
<polygon fill="#63b8ff" stroke="#63b8ff" points="397.22,-95.27 407.7,-93.74 398.55,-88.4 397.22,-95.27"/>
</a>
</g>
</g>
<!-- Node21 -->
<g id="Node000021" class="node">
<title>Node21</title>
<g id="a_Node000021"><a xlink:href="../../d8/dfc/class_a_e_logger.html#ac8f55a9e3c92557ea3d92974093ff6fb" target="_top" xlink:title="Open the file to start logging.">
<polygon fill="white" stroke="#666666" points="129.25,-95.52 27.75,-95.52 27.75,-75.52 129.25,-75.52 129.25,-95.52"/>
<text text-anchor="middle" x="78.5" y="-82.02" font-family="Helvetica,sans-Serif" font-size="10.00">AELogger::openLog</text>
</a>
</g>
</g>
<!-- Node20&#45;&gt;Node21 -->
<g id="edge25_Node000020_Node000021" class="edge">
<title>Node20&#45;&gt;Node21</title>
<g id="a_edge25_Node000020_Node000021"><a xlink:title=" ">
<path fill="none" stroke="#63b8ff" d="M204.48,-72.76C180.19,-75.24 152.59,-78.06 129.52,-80.41"/>
<polygon fill="#63b8ff" stroke="#63b8ff" points="204.65,-76.26 214.24,-71.76 203.94,-69.3 204.65,-76.26"/>
</a>
</g>
</g>
<!-- Node22 -->
<g id="Node000022" class="node">
<title>Node22</title>
<g id="a_Node000022"><a xlink:href="../../d8/dfc/class_a_e_logger.html#acbfddb2d8f459f32ce58d7c06cc2ddaa" target="_top" xlink:title="Open the file to start logging.">
<polygon fill="white" stroke="#666666" points="129.25,-57.52 27.75,-57.52 27.75,-37.52 129.25,-37.52 129.25,-57.52"/>
<text text-anchor="middle" x="78.5" y="-44.02" font-family="Helvetica,sans-Serif" font-size="10.00">AELogger::openLog</text>
</a>
</g>
</g>
<!-- Node20&#45;&gt;Node22 -->
<g id="edge26_Node000020_Node000022" class="edge">
<title>Node20&#45;&gt;Node22</title>
<g id="a_edge26_Node000020_Node000022"><a xlink:title=" ">
<path fill="none" stroke="#63b8ff" d="M204.48,-60.28C180.19,-57.8 152.59,-54.98 129.52,-52.62"/>
<polygon fill="#63b8ff" stroke="#63b8ff" points="203.94,-63.74 214.24,-61.27 204.65,-56.77 203.94,-63.74"/>
</a>
</g>
</g>
<!-- Node23&#45;&gt;Node19 -->
<g id="edge28_Node000023_Node000019" class="edge">
<title>Node23&#45;&gt;Node19</title>
<g id="a_edge28_Node000023_Node000019"><a xlink:title=" ">
<path fill="none" stroke="#63b8ff" d="M591.8,-104.52C567.85,-104.52 541.96,-104.52 519.86,-104.52"/>
<polygon fill="#63b8ff" stroke="#63b8ff" points="591.49,-108.02 601.49,-104.52 591.49,-101.02 591.49,-108.02"/>
</a>
</g>
</g>
<!-- Node24&#45;&gt;Node18 -->
<g id="edge32_Node000024_Node000018" class="edge">
<title>Node24&#45;&gt;Node18</title>
<g id="a_edge32_Node000024_Node000018"><a xlink:title=" ">
<path fill="none" stroke="#63b8ff" d="M790.94,-173.82C768.39,-171.51 743.46,-168.96 722.19,-166.78"/>
<polygon fill="#63b8ff" stroke="#63b8ff" points="790.32,-177.28 800.63,-174.82 791.04,-170.31 790.32,-177.28"/>
</a>
</g>
</g>
<!-- Node27&#45;&gt;Node15 -->
<g id="edge36_Node000027_Node000015" class="edge">
<title>Node27&#45;&gt;Node15</title>
<g id="a_edge36_Node000027_Node000015"><a xlink:title=" ">
<path fill="none" stroke="#63b8ff" d="M923.4,-281C958.84,-270.85 1000.2,-257.45 1024.12,-247.99"/>
<polygon fill="#63b8ff" stroke="#63b8ff" points="922.75,-277.55 914.07,-283.63 924.65,-284.28 922.75,-277.55"/>
</a>
</g>
</g>
</g>
</svg>

<g id="navigator" transform="translate(0 0)" fill="#404254">
  <rect fill="#f2f5e9" fill-opacity="0.5" stroke="#606060" stroke-width=".5" x="0" y="0" width="60" height="60"/>
  <use id="zoomplus" xlink:href="#zoomPlus" x="17" y="9" onmousedown="handleZoom(evt,'in')"/>
  <use id="zoomminus" xlink:href="#zoomMin" x="42" y="9" onmousedown="handleZoom(evt,'out')"/>
  <use id="reset" xlink:href="#resetDef" x="30" y="36" onmousedown="handleReset()"/>
   <use id="arrowup" xlink:href="#arrowUp" x="0" y="0" onmousedown="handlePan(0,-1)"/>
  <use id="arrowright" xlink:href="#arrowRight" x="0" y="0" onmousedown="handlePan(1,0)"/>
  <use id="arrowdown" xlink:href="#arrowDown" x="0" y="0" onmousedown="handlePan(0,1)"/>
  <use id="arrowleft" xlink:href="#arrowLeft" x="0" y="0" onmousedown="handlePan(-1,0)"/>
</g>
<svg viewBox="0 0 15 15" width="100%" height="30px" preserveAspectRatio="xMaxYMin meet">
 <g id="arrow_out" transform="scale(0.3 0.3)">
  <a xlink:href="namespaceace_1_1utils_a878c53ede8589dbc6a50734c9c4ad4d7_icgraph_org.svg" target="_base">
   <rect id="button" ry="5" rx="5" y="6" x="6" height="38" width="38"
        fill="#f2f5e9" fill-opacity="0.5" stroke="#606060" stroke-width="1.0"/>
   <path id="arrow"
     d="M 11.500037,31.436501 C 11.940474,20.09759 22.043105,11.32322 32.158766,21.979434 L 37.068811,17.246167 C 37.068811,17.246167 37.088388,32 37.088388,32 L 22.160133,31.978069 C 22.160133,31.978069 26.997745,27.140456 26.997745,27.140456 C 18.528582,18.264221 13.291696,25.230495 11.500037,31.436501 z"
     style="fill:#404040;"/>
  </a>
 </g>
</svg>

<style type='text/css'>
<![CDATA[
[data-mouse-over-selected='false'] { opacity: 0.7; }
[data-mouse-over-selected='true']  { opacity: 1.0; }
]]>
</style>
<script type="application/ecmascript"><![CDATA[
document.addEventListener('DOMContentLoaded', (event) => {
  highlightEdges();
  highlightAdjacentNodes();
});
]]></script>
</svg>
