<?xml version="1.0" encoding="UTF-8" standalone="no"?>
<!DOCTYPE svg PUBLIC "-//W3C//DTD SVG 1.1//EN"
 "http://www.w3.org/Graphics/SVG/1.1/DTD/svg11.dtd">
<!-- Generated by graphviz version 10.0.1 (20240210.2158)
 -->
<!-- Title: ace::utils::formatDate Pages: 1 -->
<svg width="1200pt" height="142pt"
 viewBox="0.00 0.00 1199.50 142.00" xmlns="http://www.w3.org/2000/svg" xmlns:xlink="http://www.w3.org/1999/xlink">
<g id="graph0" class="graph" transform="scale(1 1) rotate(0) translate(4 138)">
<title>ace::utils::formatDate</title>
<!-- Node1 -->
<g id="Node000001" class="node">
<title>Node1</title>
<g id="a_Node000001"><a xlink:title="Formats the current **(c)time point as YYYY&#45;MM&#45;DD.HH:mm:SS string**.">
<polygon fill="#999999" stroke="#666666" points="1191.5,-58 1082.5,-58 1082.5,-38 1191.5,-38 1191.5,-58"/>
<text text-anchor="middle" x="1137" y="-44.5" font-family="Helvetica,sans-Serif" font-size="10.00">ace::utils::formatDate</text>
</a>
</g>
</g>
<!-- Node2 -->
<g id="Node000002" class="node">
<title>Node2</title>
<g id="a_Node000002"><a xlink:href="../../da/dea/struct_a_e_log_entry.html#ab803ea47d06098feab470f265498f617" target="_top" xlink:title="Formats the passed entry to the given c&#45;string.">
<polygon fill="white" stroke="#666666" points="1045.38,-86 920.62,-86 920.62,-66 1045.38,-66 1045.38,-86"/>
<text text-anchor="middle" x="983" y="-72.5" font-family="Helvetica,sans-Serif" font-size="10.00">AELogEntry::formatEntry</text>
</a>
</g>
</g>
<!-- Node1&#45;&gt;Node2 -->
<g id="edge1_Node000001_Node000002" class="edge">
<title>Node1&#45;&gt;Node2</title>
<g id="a_edge1_Node000001_Node000002"><a xlink:title=" ">
<path fill="none" stroke="#63b8ff" d="M1071.21,-59.93C1061.16,-61.79 1050.84,-63.69 1040.97,-65.51"/>
<polygon fill="#63b8ff" stroke="#63b8ff" points="1071.72,-63.4 1080.92,-58.15 1070.45,-56.52 1071.72,-63.4"/>
</a>
</g>
</g>
<!-- Node14 -->
<g id="Node000014" class="node">
<title>Node14</title>
<g id="a_Node000014"><a xlink:href="../../de/dde/namespaceace_1_1utils.html#a5ef830bd659e4848847aa793e2f60852" target="_top" xlink:title="Formats the current date and time as YYYY&#45;MM&#45;DD.HH:mm:SS.">
<polygon fill="white" stroke="#666666" points="1046.5,-39 919.5,-39 919.5,-19 1046.5,-19 1046.5,-39"/>
<text text-anchor="middle" x="983" y="-25.5" font-family="Helvetica,sans-Serif" font-size="10.00">ace::utils::getCurrentDate</text>
</a>
</g>
</g>
<!-- Node1&#45;&gt;Node14 -->
<g id="edge16_Node000001_Node000014" class="edge">
<title>Node1&#45;&gt;Node14</title>
<g id="a_edge16_Node000001_Node000014"><a xlink:title=" ">
<path fill="none" stroke="#63b8ff" d="M1071.21,-39.9C1063.19,-38.9 1054.99,-37.87 1046.99,-36.87"/>
<polygon fill="#63b8ff" stroke="#63b8ff" points="1070.55,-43.35 1080.91,-41.11 1071.42,-36.4 1070.55,-43.35"/>
</a>
</g>
</g>
<!-- Node3 -->
<g id="Node000003" class="node">
<title>Node3</title>
<g id="a_Node000003"><a xlink:href="../../d8/dfc/class_a_e_logger.html#a5938787b6933f4b96ebff10643bd2497" target="_top" xlink:title="The function of the log writing thread to...read the entries, format them, write them,...">
<polygon fill="white" stroke="#666666" points="703.25,-115 570.25,-115 570.25,-95 703.25,-95 703.25,-115"/>
<text text-anchor="middle" x="636.75" y="-101.5" font-family="Helvetica,sans-Serif" font-size="10.00">AELogger::logWriterThread</text>
</a>
</g>
</g>
<!-- Node2&#45;&gt;Node3 -->
<g id="edge2_Node000002_Node000003" class="edge">
<title>Node2&#45;&gt;Node3</title>
<g id="a_edge2_Node000002_Node000003"><a xlink:title=" ">
<path fill="none" stroke="#63b8ff" d="M943.79,-90.02C925.77,-95.91 903.81,-102.07 883.5,-105 823.01,-113.72 753.27,-112.68 703.57,-110.07"/>
<polygon fill="#63b8ff" stroke="#63b8ff" points="944.66,-93.42 953.02,-86.9 942.42,-86.79 944.66,-93.42"/>
</a>
</g>
</g>
<!-- Node9 -->
<g id="Node000009" class="node">
<title>Node9</title>
<g id="a_Node000009"><a xlink:href="../../da/dea/struct_a_e_log_entry.html#ab1deb828d06f47e6de928d0a45debb0c" target="_top" xlink:title="Format the entry and convert it into std::string.">
<polygon fill="white" stroke="#666666" points="865.5,-96 757.25,-96 757.25,-76 865.5,-76 865.5,-96"/>
<text text-anchor="middle" x="811.38" y="-82.5" font-family="Helvetica,sans-Serif" font-size="10.00">AELogEntry::toString</text>
</a>
</g>
</g>
<!-- Node2&#45;&gt;Node9 -->
<g id="edge8_Node000002_Node000009" class="edge">
<title>Node2&#45;&gt;Node9</title>
<g id="a_edge8_Node000002_Node000009"><a xlink:title=" ">
<path fill="none" stroke="#63b8ff" d="M908.85,-80.31C894.43,-81.16 879.55,-82.04 865.93,-82.84"/>
<polygon fill="#63b8ff" stroke="#63b8ff" points="908.99,-83.81 918.77,-79.73 908.58,-76.82 908.99,-83.81"/>
</a>
</g>
</g>
<!-- Node10 -->
<g id="Node000010" class="node">
<title>Node10</title>
<g id="a_Node000010"><a xlink:href="../../d8/dfc/class_a_e_logger.html#a54bad71bcfea05c3d17d7ba1bacfec8c" target="_top" xlink:title="Writes to log directly, without thinking of the queue.">
<polygon fill="white" stroke="#666666" points="883.5,-58 739.25,-58 739.25,-38 883.5,-38 883.5,-58"/>
<text text-anchor="middle" x="811.38" y="-44.5" font-family="Helvetica,sans-Serif" font-size="10.00">AELogger::writeToLogDirectly</text>
</a>
</g>
</g>
<!-- Node2&#45;&gt;Node10 -->
<g id="edge9_Node000002_Node000010" class="edge">
<title>Node2&#45;&gt;Node10</title>
<g id="a_edge9_Node000002_Node000010"><a xlink:title=" ">
<path fill="none" stroke="#63b8ff" d="M909.26,-63.99C898.11,-62.15 886.68,-60.27 875.76,-58.46"/>
<polygon fill="#63b8ff" stroke="#63b8ff" points="908.35,-67.39 918.79,-65.57 909.49,-60.48 908.35,-67.39"/>
</a>
</g>
</g>
<!-- Node4 -->
<g id="Node000004" class="node">
<title>Node4</title>
<g id="a_Node000004"><a xlink:href="../../d8/dfc/class_a_e_logger.html#a284034896688215f7e87242764c5985d" target="_top" xlink:title="Starts the log&#45;writing thread.">
<polygon fill="white" stroke="#666666" points="393,-115 282.5,-115 282.5,-95 393,-95 393,-115"/>
<text text-anchor="middle" x="337.75" y="-101.5" font-family="Helvetica,sans-Serif" font-size="10.00">AELogger::startWriter</text>
</a>
</g>
</g>
<!-- Node3&#45;&gt;Node4 -->
<g id="edge3_Node000003_Node000004" class="edge">
<title>Node3&#45;&gt;Node4</title>
<g id="a_edge3_Node000003_Node000004"><a xlink:title=" ">
<path fill="none" stroke="#63b8ff" d="M558.33,-105C506.42,-105 439.34,-105 393.06,-105"/>
<polygon fill="#63b8ff" stroke="#63b8ff" points="558.32,-108.5 568.32,-105 558.32,-101.5 558.32,-108.5"/>
</a>
</g>
</g>
<!-- Node5 -->
<g id="Node000005" class="node">
<title>Node5</title>
<g id="a_Node000005"><a xlink:href="../../d8/dfc/class_a_e_logger.html#a134f36542cb09532588436c53df9653d" target="_top" xlink:title="Class constructor – it opens the file with the given path and name and start logging to it.">
<polygon fill="white" stroke="#666666" points="245,-134 137.5,-134 137.5,-114 245,-114 245,-134"/>
<text text-anchor="middle" x="191.25" y="-120.5" font-family="Helvetica,sans-Serif" font-size="10.00">AELogger::AELogger</text>
</a>
</g>
</g>
<!-- Node4&#45;&gt;Node5 -->
<g id="edge4_Node000004_Node000005" class="edge">
<title>Node4&#45;&gt;Node5</title>
<g id="a_edge4_Node000004_Node000005"><a xlink:title=" ">
<path fill="none" stroke="#63b8ff" d="M270.86,-113.66C262.21,-114.8 253.44,-115.95 245.04,-117.06"/>
<polygon fill="#63b8ff" stroke="#63b8ff" points="271.16,-117.15 280.62,-112.38 270.25,-110.21 271.16,-117.15"/>
</a>
</g>
</g>
<!-- Node6 -->
<g id="Node000006" class="node">
<title>Node6</title>
<g id="a_Node000006"><a xlink:href="../../d8/dfc/class_a_e_logger.html#a53b588f9874535299d612a4c71de9950" target="_top" xlink:title="Open the file to start logging.">
<polygon fill="white" stroke="#666666" points="242,-96 140.5,-96 140.5,-76 242,-76 242,-96"/>
<text text-anchor="middle" x="191.25" y="-82.5" font-family="Helvetica,sans-Serif" font-size="10.00">AELogger::openLog</text>
</a>
</g>
</g>
<!-- Node4&#45;&gt;Node6 -->
<g id="edge5_Node000004_Node000006" class="edge">
<title>Node4&#45;&gt;Node6</title>
<g id="a_edge5_Node000004_Node000006"><a xlink:title=" ">
<path fill="none" stroke="#63b8ff" d="M270.91,-96.34C261.26,-95.07 251.46,-93.79 242.2,-92.57"/>
<polygon fill="#63b8ff" stroke="#63b8ff" points="270.25,-99.79 280.62,-97.62 271.16,-92.85 270.25,-99.79"/>
</a>
</g>
</g>
<!-- Node7 -->
<g id="Node000007" class="node">
<title>Node7</title>
<g id="a_Node000007"><a xlink:href="../../d8/dfc/class_a_e_logger.html#ac8f55a9e3c92557ea3d92974093ff6fb" target="_top" xlink:title="Open the file to start logging.">
<polygon fill="white" stroke="#666666" points="101.5,-115 0,-115 0,-95 101.5,-95 101.5,-115"/>
<text text-anchor="middle" x="50.75" y="-101.5" font-family="Helvetica,sans-Serif" font-size="10.00">AELogger::openLog</text>
</a>
</g>
</g>
<!-- Node6&#45;&gt;Node7 -->
<g id="edge6_Node000006_Node000007" class="edge">
<title>Node6&#45;&gt;Node7</title>
<g id="a_edge6_Node000006_Node000007"><a xlink:title=" ">
<path fill="none" stroke="#63b8ff" d="M128.87,-94.42C119.78,-95.67 110.5,-96.94 101.68,-98.15"/>
<polygon fill="#63b8ff" stroke="#63b8ff" points="129.32,-97.89 138.75,-93.07 128.37,-90.96 129.32,-97.89"/>
</a>
</g>
</g>
<!-- Node8 -->
<g id="Node000008" class="node">
<title>Node8</title>
<g id="a_Node000008"><a xlink:href="../../d8/dfc/class_a_e_logger.html#acbfddb2d8f459f32ce58d7c06cc2ddaa" target="_top" xlink:title="Open the file to start logging.">
<polygon fill="white" stroke="#666666" points="101.5,-77 0,-77 0,-57 101.5,-57 101.5,-77"/>
<text text-anchor="middle" x="50.75" y="-63.5" font-family="Helvetica,sans-Serif" font-size="10.00">AELogger::openLog</text>
</a>
</g>
</g>
<!-- Node6&#45;&gt;Node8 -->
<g id="edge7_Node000006_Node000008" class="edge">
<title>Node6&#45;&gt;Node8</title>
<g id="a_edge7_Node000006_Node000008"><a xlink:title=" ">
<path fill="none" stroke="#63b8ff" d="M128.87,-77.58C119.78,-76.33 110.5,-75.06 101.68,-73.85"/>
<polygon fill="#63b8ff" stroke="#63b8ff" points="128.37,-81.04 138.75,-78.93 129.32,-74.11 128.37,-81.04"/>
</a>
</g>
</g>
<!-- Node10&#45;&gt;Node3 -->
<g id="edge13_Node000010_Node000003" class="edge">
<title>Node10&#45;&gt;Node3</title>
<g id="a_edge13_Node000010_Node000003"><a xlink:title=" ">
<path fill="none" stroke="#63b8ff" d="M757.17,-61.53C751.1,-63.27 745.02,-65.11 739.25,-67 722.93,-72.33 719.31,-74.94 703.25,-81 691.24,-85.54 677.95,-90.43 666.49,-94.61"/>
<polygon fill="#63b8ff" stroke="#63b8ff" points="757.88,-64.96 766.57,-58.9 756,-58.22 757.88,-64.96"/>
</a>
</g>
</g>
<!-- Node11 -->
<g id="Node000011" class="node">
<title>Node11</title>
<g id="a_Node000011"><a xlink:href="../../d8/dfc/class_a_e_logger.html#a2f64d8f5de2f249f7cb973a82ec1e48a" target="_top" xlink:title="Close the file, if it was opened.">
<polygon fill="white" stroke="#666666" points="534.25,-77 430.5,-77 430.5,-57 534.25,-57 534.25,-77"/>
<text text-anchor="middle" x="482.38" y="-63.5" font-family="Helvetica,sans-Serif" font-size="10.00">AELogger::closeLog</text>
</a>
</g>
</g>
<!-- Node10&#45;&gt;Node11 -->
<g id="edge10_Node000010_Node000011" class="edge">
<title>Node10&#45;&gt;Node11</title>
<g id="a_edge10_Node000010_Node000011"><a xlink:title=" ">
<path fill="none" stroke="#63b8ff" d="M727.53,-52.81C666.78,-56.34 586.2,-61.03 534.56,-64.03"/>
<polygon fill="#63b8ff" stroke="#63b8ff" points="727.73,-56.31 737.51,-52.23 727.32,-49.32 727.73,-56.31"/>
</a>
</g>
</g>
<!-- Node13 -->
<g id="Node000013" class="node">
<title>Node13</title>
<g id="a_Node000013"><a xlink:href="../../d8/dfc/class_a_e_logger.html#a53b212c259c40bda694476f09d1f171b" target="_top" xlink:title="Stops the log&#45;writing thread (after flushing the log queue).">
<polygon fill="white" stroke="#666666" points="691.62,-39 581.88,-39 581.88,-19 691.62,-19 691.62,-39"/>
<text text-anchor="middle" x="636.75" y="-25.5" font-family="Helvetica,sans-Serif" font-size="10.00">AELogger::stopWriter</text>
</a>
</g>
</g>
<!-- Node10&#45;&gt;Node13 -->
<g id="edge14_Node000010_Node000013" class="edge">
<title>Node10&#45;&gt;Node13</title>
<g id="a_edge14_Node000010_Node000013"><a xlink:title=" ">
<path fill="none" stroke="#63b8ff" d="M727.98,-38.93C715.73,-37.58 703.38,-36.22 691.91,-34.96"/>
<polygon fill="#63b8ff" stroke="#63b8ff" points="727.34,-42.38 737.66,-40 728.1,-35.42 727.34,-42.38"/>
</a>
</g>
</g>
<!-- Node11&#45;&gt;Node4 -->
<g id="edge12_Node000011_Node000004" class="edge">
<title>Node11&#45;&gt;Node4</title>
<g id="a_edge12_Node000011_Node000004"><a xlink:title=" ">
<path fill="none" stroke="#63b8ff" d="M430.91,-80.45C413.52,-85.08 394.33,-90.19 377.97,-94.55"/>
<polygon fill="#63b8ff" stroke="#63b8ff" points="431.8,-83.83 440.56,-77.87 430,-77.07 431.8,-83.83"/>
</a>
</g>
</g>
<!-- Node12 -->
<g id="Node000012" class="node">
<title>Node12</title>
<g id="a_Node000012"><a xlink:href="../../d8/dfc/class_a_e_logger.html#a4b6c6a8134c8f7f24db7d3f35d62624d" target="_top" xlink:title="Class destructor.">
<polygon fill="white" stroke="#666666" points="394.5,-77 281,-77 281,-57 394.5,-57 394.5,-77"/>
<text text-anchor="middle" x="337.75" y="-63.5" font-family="Helvetica,sans-Serif" font-size="10.00">AELogger::~AELogger</text>
</a>
</g>
</g>
<!-- Node11&#45;&gt;Node12 -->
<g id="edge11_Node000011_Node000012" class="edge">
<title>Node11&#45;&gt;Node12</title>
<g id="a_edge11_Node000011_Node000012"><a xlink:title=" ">
<path fill="none" stroke="#63b8ff" d="M419.03,-67C410.97,-67 402.75,-67 394.8,-67"/>
<polygon fill="#63b8ff" stroke="#63b8ff" points="418.77,-70.5 428.77,-67 418.77,-63.5 418.77,-70.5"/>
</a>
</g>
</g>
<!-- Node13&#45;&gt;Node11 -->
<g id="edge15_Node000013_Node000011" class="edge">
<title>Node13&#45;&gt;Node11</title>
<g id="a_edge15_Node000013_Node000011"><a xlink:title=" ">
<path fill="none" stroke="#63b8ff" d="M582.63,-42.25C563.85,-46.93 543,-52.13 525.28,-56.55"/>
<polygon fill="#63b8ff" stroke="#63b8ff" points="583.39,-45.67 592.24,-39.85 581.69,-38.87 583.39,-45.67"/>
</a>
</g>
</g>
<!-- Node15 -->
<g id="Node000015" class="node">
<title>Node15</title>
<g id="a_Node000015"><a xlink:href="../../d8/dfc/class_a_e_logger.html#a87dc705d692056229db74fc4bc3c93e9" target="_top" xlink:title="Creates a full name of the log file to open to be fed to the logger, in a format [prefix]_[current da...">
<polygon fill="white" stroke="#666666" points="872.25,-20 750.5,-20 750.5,0 872.25,0 872.25,-20"/>
<text text-anchor="middle" x="811.38" y="-6.5" font-family="Helvetica,sans-Serif" font-size="10.00">AELogger::genLogName</text>
</a>
</g>
</g>
<!-- Node14&#45;&gt;Node15 -->
<g id="edge17_Node000014_Node000015" class="edge">
<title>Node14&#45;&gt;Node15</title>
<g id="a_edge17_Node000014_Node000015"><a xlink:title=" ">
<path fill="none" stroke="#63b8ff" d="M908.06,-20.72C896.19,-19.39 884.04,-18.03 872.54,-16.74"/>
<polygon fill="#63b8ff" stroke="#63b8ff" points="907.49,-24.18 917.82,-21.81 908.27,-17.22 907.49,-24.18"/>
</a>
</g>
</g>
</g>
</svg>
