<?xml version="1.0" encoding="UTF-8" standalone="no"?>
<!DOCTYPE svg PUBLIC "-//W3C//DTD SVG 1.1//EN"
 "http://www.w3.org/Graphics/SVG/1.1/DTD/svg11.dtd">
<!-- Generated by graphviz version 10.0.1 (20240210.2158)
 -->
<!-- Title: AEMisc/include/AEMath.hpp Pages: 1 -->
<svg width="334pt" height="140pt"
 viewBox="0.00 0.00 334.12 140.00" xmlns="http://www.w3.org/2000/svg" xmlns:xlink="http://www.w3.org/1999/xlink">

<svg id="main" version="1.1" xmlns="http://www.w3.org/2000/svg" xmlns:xlink="http://www.w3.org/1999/xlink" xml:space="preserve" onload="init(evt)">
<style type="text/css"><![CDATA[
.node, .edge {opacity: 0.7;}
.node.selected, .edge.selected {opacity: 1;}
.edge:hover path { stroke: red; }
.edge:hover polygon { stroke: red; fill: red; }
]]></style>
<script type="application/ecmascript" xlink:href="../../svg.min.js"/>
<svg id="graph" class="graph">
<g id="graph0" class="graph" transform="scale(1 1) rotate(0) translate(4 136)">
<title>AEMisc/include/AEMath.hpp</title>
<!-- Node1 -->
<g id="Node000001" class="node">
<title>Node1</title>
<g id="a_Node000001"><a xlink:title="This file contains the engine&#39;s math and math&#45;related functions.">
<polygon fill="#999999" stroke="#666666" points="265.88,-132 124.62,-132 124.62,-112 265.88,-112 265.88,-132"/>
<text text-anchor="middle" x="195.25" y="-118.5" font-family="Helvetica,sans-Serif" font-size="10.00">AEMisc/include/AEMath.hpp</text>
</a>
</g>
</g>
<!-- Node2 -->
<g id="Node000002" class="node">
<title>Node2</title>
<g id="a_Node000002"><a xlink:href="../../dc/d89/_a_e_typedefs_8hpp.html" target="_top" xlink:title="This file contains the engine&#39;s typedefs and variable type aliases.">
<polygon fill="white" stroke="#666666" points="128.88,-76 41.62,-76 41.62,-56 128.88,-56 128.88,-76"/>
<text text-anchor="middle" x="85.25" y="-62.5" font-family="Helvetica,sans-Serif" font-size="10.00">AETypedefs.hpp</text>
</a>
</g>
</g>
<!-- Node1&#45;&gt;Node2 -->
<g id="edge1_Node000001_Node000002" class="edge">
<title>Node1&#45;&gt;Node2</title>
<g id="a_edge1_Node000001_Node000002"><a xlink:title=" ">
<path fill="none" stroke="#63b8ff" d="M176.09,-111.59C159.16,-103.28 134.2,-91.03 114.73,-81.47"/>
<polygon fill="#63b8ff" stroke="#63b8ff" points="116.44,-78.41 105.92,-77.15 113.35,-84.7 116.44,-78.41"/>
</a>
</g>
</g>
<!-- Node6 -->
<g id="Node000006" class="node">
<title>Node6</title>
<g id="a_Node000006"><a xlink:title=" ">
<polygon fill="#e0e0e0" stroke="#999999" points="185.88,-76 146.62,-76 146.62,-56 185.88,-56 185.88,-76"/>
<text text-anchor="middle" x="166.25" y="-62.5" font-family="Helvetica,sans-Serif" font-size="10.00">limits</text>
</a>
</g>
</g>
<!-- Node1&#45;&gt;Node6 -->
<g id="edge5_Node000001_Node000006" class="edge">
<title>Node1&#45;&gt;Node6</title>
<g id="a_edge5_Node000001_Node000006"><a xlink:title=" ">
<path fill="none" stroke="#63b8ff" d="M190.2,-111.59C186.46,-104.63 181.23,-94.89 176.61,-86.29"/>
<polygon fill="#63b8ff" stroke="#63b8ff" points="179.77,-84.79 171.96,-77.63 173.61,-88.1 179.77,-84.79"/>
</a>
</g>
</g>
<!-- Node7 -->
<g id="Node000007" class="node">
<title>Node7</title>
<g id="a_Node000007"><a xlink:title=" ">
<polygon fill="#e0e0e0" stroke="#999999" points="246.75,-76 203.75,-76 203.75,-56 246.75,-56 246.75,-76"/>
<text text-anchor="middle" x="225.25" y="-62.5" font-family="Helvetica,sans-Serif" font-size="10.00">cmath</text>
</a>
</g>
</g>
<!-- Node1&#45;&gt;Node7 -->
<g id="edge6_Node000001_Node000007" class="edge">
<title>Node1&#45;&gt;Node7</title>
<g id="a_edge6_Node000001_Node000007"><a xlink:title=" ">
<path fill="none" stroke="#63b8ff" d="M200.48,-111.59C204.35,-104.63 209.76,-94.89 214.53,-86.29"/>
<polygon fill="#63b8ff" stroke="#63b8ff" points="217.55,-88.06 219.35,-77.62 211.43,-84.66 217.55,-88.06"/>
</a>
</g>
</g>
<!-- Node8 -->
<g id="Node000008" class="node">
<title>Node8</title>
<g id="a_Node000008"><a xlink:title=" ">
<polygon fill="#e0e0e0" stroke="#999999" points="326.12,-76 264.38,-76 264.38,-56 326.12,-56 326.12,-76"/>
<text text-anchor="middle" x="295.25" y="-62.5" font-family="Helvetica,sans-Serif" font-size="10.00">type_traits</text>
</a>
</g>
</g>
<!-- Node1&#45;&gt;Node8 -->
<g id="edge7_Node000001_Node000008" class="edge">
<title>Node1&#45;&gt;Node8</title>
<g id="a_edge7_Node000001_Node000008"><a xlink:title=" ">
<path fill="none" stroke="#63b8ff" d="M212.67,-111.59C227.92,-103.36 250.33,-91.26 267.96,-81.74"/>
<polygon fill="#63b8ff" stroke="#63b8ff" points="269.23,-85.03 276.36,-77.2 265.9,-78.87 269.23,-85.03"/>
</a>
</g>
</g>
<!-- Node3 -->
<g id="Node000003" class="node">
<title>Node3</title>
<g id="a_Node000003"><a xlink:title=" ">
<polygon fill="#e0e0e0" stroke="#999999" points="44.5,-20 0,-20 0,0 44.5,0 44.5,-20"/>
<text text-anchor="middle" x="22.25" y="-6.5" font-family="Helvetica,sans-Serif" font-size="10.00">climits</text>
</a>
</g>
</g>
<!-- Node2&#45;&gt;Node3 -->
<g id="edge2_Node000002_Node000003" class="edge">
<title>Node2&#45;&gt;Node3</title>
<g id="a_edge2_Node000002_Node000003"><a xlink:title=" ">
<path fill="none" stroke="#63b8ff" d="M74.28,-55.59C65.33,-47.93 52.48,-36.91 41.79,-27.75"/>
<polygon fill="#63b8ff" stroke="#63b8ff" points="44.12,-25.13 34.25,-21.28 39.56,-30.45 44.12,-25.13"/>
</a>
</g>
</g>
<!-- Node4 -->
<g id="Node000004" class="node">
<title>Node4</title>
<g id="a_Node000004"><a xlink:title=" ">
<polygon fill="#e0e0e0" stroke="#999999" points="107.88,-20 62.62,-20 62.62,0 107.88,0 107.88,-20"/>
<text text-anchor="middle" x="85.25" y="-6.5" font-family="Helvetica,sans-Serif" font-size="10.00">chrono</text>
</a>
</g>
</g>
<!-- Node2&#45;&gt;Node4 -->
<g id="edge3_Node000002_Node000004" class="edge">
<title>Node2&#45;&gt;Node4</title>
<g id="a_edge3_Node000002_Node000004"><a xlink:title=" ">
<path fill="none" stroke="#63b8ff" d="M85.25,-55.59C85.25,-49.01 85.25,-39.96 85.25,-31.73"/>
<polygon fill="#63b8ff" stroke="#63b8ff" points="88.75,-31.81 85.25,-21.81 81.75,-31.81 88.75,-31.81"/>
</a>
</g>
</g>
<!-- Node5 -->
<g id="Node000005" class="node">
<title>Node5</title>
<g id="a_Node000005"><a xlink:title=" ">
<polygon fill="#e0e0e0" stroke="#999999" points="168.75,-20 125.75,-20 125.75,0 168.75,0 168.75,-20"/>
<text text-anchor="middle" x="147.25" y="-6.5" font-family="Helvetica,sans-Serif" font-size="10.00">thread</text>
</a>
</g>
</g>
<!-- Node2&#45;&gt;Node5 -->
<g id="edge4_Node000002_Node000005" class="edge">
<title>Node2&#45;&gt;Node5</title>
<g id="a_edge4_Node000002_Node000005"><a xlink:title=" ">
<path fill="none" stroke="#63b8ff" d="M96.05,-55.59C104.85,-47.93 117.5,-36.91 128.02,-27.75"/>
<polygon fill="#63b8ff" stroke="#63b8ff" points="130.19,-30.5 135.43,-21.29 125.59,-25.22 130.19,-30.5"/>
</a>
</g>
</g>
</g>
</svg>
</svg>

<style type='text/css'>
<![CDATA[
[data-mouse-over-selected='false'] { opacity: 0.7; }
[data-mouse-over-selected='true']  { opacity: 1.0; }
]]>
</style>
<script type="application/ecmascript"><![CDATA[
document.addEventListener('DOMContentLoaded', (event) => {
  highlightEdges();
  highlightAdjacentNodes();
});
]]></script>
</svg>
