<?xml version="1.0" encoding="UTF-8" standalone="no"?>
<!DOCTYPE svg PUBLIC "-//W3C//DTD SVG 1.1//EN"
 "http://www.w3.org/Graphics/SVG/1.1/DTD/svg11.dtd">
<!-- Generated by graphviz version 10.0.1 (20240210.2158)
 -->
<!-- Title: AEFileWriter/include/AEFileWriter.hpp Pages: 1 -->
<!--zoomable 252 -->

<svg id="main" version="1.1" xmlns="http://www.w3.org/2000/svg" xmlns:xlink="http://www.w3.org/1999/xlink" xml:space="preserve" onload="init(evt)">
<style type="text/css"><![CDATA[
.node, .edge {opacity: 0.7;}
.node.selected, .edge.selected {opacity: 1;}
.edge:hover path { stroke: red; }
.edge:hover polygon { stroke: red; fill: red; }
]]></style>

<defs>
  <circle id="rim" cx="0" cy="0" r="7"/>
  <circle id="rim2" cx="0" cy="0" r="3.5"/>
  <g id="zoomPlus">
    <use xlink:href="#rim" fill="#404040"><set attributeName="fill" to="#808080" begin="zoomplus.mouseover" end="zoomplus.mouseout"/></use>
    <path d="M-4,0h8M0,-4v8" fill="none" stroke="white" stroke-width="1.5" pointer-events="none"/>
  </g>
  <g id="zoomMin">
    <use xlink:href="#rim" fill="#404040"><set attributeName="fill" to="#808080" begin="zoomminus.mouseover" end="zoomminus.mouseout"/></use>
    <path d="M-4,0h8" fill="none" stroke="white" stroke-width="1.5" pointer-events="none"/>
  </g>
  <g id="arrowUp" transform="translate(30 24)">
    <use xlink:href="#rim"/>
    <path pointer-events="none" fill="none" stroke="white" stroke-width="1.5" d="M0,-3.0v7 M-2.5,-0.5L0,-3.0L2.5,-0.5"/>
  </g>
  <g id="arrowRight" transform="rotate(90) translate(36 -43)">
    <use xlink:href="#rim"/>
    <path pointer-events="none" fill="none" stroke="white" stroke-width="1.5" d="M0,-3.0v7 M-2.5,-0.5L0,-3.0L2.5,-0.5"/>
  </g>
  <g id="arrowDown" transform="rotate(180) translate(-30 -48)">
    <use xlink:href="#rim"/>
    <path pointer-events="none" fill="none" stroke="white" stroke-width="1.5" d="M0,-3.0v7 M-2.5,-0.5L0,-3.0L2.5,-0.5"/>
  </g>
  <g id="arrowLeft" transform="rotate(270) translate(-36 17)">
    <use xlink:href="#rim"/>
    <path pointer-events="none" fill="none" stroke="white" stroke-width="1.5" d="M0,-3.0v7 M-2.5,-0.5L0,-3.0L2.5,-0.5"/>
  </g>
  <g id="resetDef">
    <use xlink:href="#rim2" fill="#404040"><set attributeName="fill" to="#808080" begin="reset.mouseover" end="reset.mouseout"/></use>
  </g>
</defs>
<script type="application/ecmascript">
var viewWidth = 1022;
var viewHeight = 252;
var sectionId = 'dynsection-0';
</script>
<script type="application/ecmascript" xlink:href="../../svg.min.js"/>
<svg id="graph" class="graph">
<g id="viewport">
<title>AEFileWriter/include/AEFileWriter.hpp</title>
<!-- Node1 -->
<g id="Node000001" class="node">
<title>Node1</title>
<g id="a_Node000001"><a xlink:title=" ">
<polygon fill="#999999" stroke="#666666" points="856.88,-244 674.38,-244 674.38,-224 856.88,-224 856.88,-244"/>
<text text-anchor="middle" x="765.62" y="-230.5" font-family="Helvetica,sans-Serif" font-size="10.00">AEFileWriter/include/AEFileWriter.hpp</text>
</a>
</g>
</g>
<!-- Node2 -->
<g id="Node000002" class="node">
<title>Node2</title>
<g id="a_Node000002"><a xlink:href="../../d7/d7f/_a_e_module_base_8hpp.html" target="_top" xlink:title=" ">
<polygon fill="white" stroke="#666666" points="241.62,-188 105.62,-188 105.62,-168 241.62,-168 241.62,-188"/>
<text text-anchor="middle" x="173.62" y="-174.5" font-family="Helvetica,sans-Serif" font-size="10.00">include/AEModuleBase.hpp</text>
</a>
</g>
</g>
<!-- Node1&#45;&gt;Node2 -->
<g id="edge1_Node000001_Node000002" class="edge">
<title>Node1&#45;&gt;Node2</title>
<g id="a_edge1_Node000001_Node000002"><a xlink:title=" ">
<path fill="none" stroke="#63b8ff" d="M674.1,-224.65C558.75,-214.13 362.37,-196.22 253.05,-186.24"/>
<polygon fill="#63b8ff" stroke="#63b8ff" points="253.56,-182.78 243.29,-185.35 252.93,-189.75 253.56,-182.78"/>
</a>
</g>
</g>
<!-- Node8 -->
<g id="Node000008" class="node">
<title>Node8</title>
<g id="a_Node000008"><a xlink:title=" ">
<polygon fill="#e0e0e0" stroke="#999999" points="45.25,-132 0,-132 0,-112 45.25,-112 45.25,-132"/>
<text text-anchor="middle" x="22.62" y="-118.5" font-family="Helvetica,sans-Serif" font-size="10.00">atomic</text>
</a>
</g>
</g>
<!-- Node1&#45;&gt;Node8 -->
<g id="edge26_Node000001_Node000008" class="edge">
<title>Node1&#45;&gt;Node8</title>
<g id="a_edge26_Node000001_Node000008"><a xlink:title=" ">
<path fill="none" stroke="#63b8ff" d="M674.11,-230.11C503.31,-224.23 148.56,-209.59 96.62,-188 72.3,-177.89 50.46,-156.41 36.92,-140.91"/>
<polygon fill="#63b8ff" stroke="#63b8ff" points="39.69,-138.76 30.58,-133.34 34.32,-143.26 39.69,-138.76"/>
</a>
</g>
</g>
<!-- Node9 -->
<g id="Node000009" class="node">
<title>Node9</title>
<g id="a_Node000009"><a xlink:title=" ">
<polygon fill="#e0e0e0" stroke="#999999" points="260.62,-132 220.62,-132 220.62,-112 260.62,-112 260.62,-132"/>
<text text-anchor="middle" x="240.62" y="-118.5" font-family="Helvetica,sans-Serif" font-size="10.00">string</text>
</a>
</g>
</g>
<!-- Node1&#45;&gt;Node9 -->
<g id="edge28_Node000001_Node000009" class="edge">
<title>Node1&#45;&gt;Node9</title>
<g id="a_edge28_Node000001_Node000009"><a xlink:title=" ">
<path fill="none" stroke="#63b8ff" d="M688.03,-223.51C628.93,-215.69 545.73,-203.4 473.62,-188 385.18,-169.11 361.63,-159.16 271.86,-132.61"/>
<polygon fill="#63b8ff" stroke="#63b8ff" points="272.91,-129.27 262.33,-129.81 270.94,-135.99 272.91,-129.27"/>
</a>
</g>
</g>
<!-- Node11 -->
<g id="Node000011" class="node">
<title>Node11</title>
<g id="a_Node000011"><a xlink:href="../../de/de8/_a_e_utils_8hpp.html" target="_top" xlink:title="This file contains the engine&#39;s usefull utilities for trivial tasks.">
<polygon fill="white" stroke="#666666" points="584.38,-188 482.88,-188 482.88,-168 584.38,-168 584.38,-188"/>
<text text-anchor="middle" x="533.62" y="-174.5" font-family="Helvetica,sans-Serif" font-size="10.00">include/AEUtils.hpp</text>
</a>
</g>
</g>
<!-- Node1&#45;&gt;Node11 -->
<g id="edge10_Node000001_Node000011" class="edge">
<title>Node1&#45;&gt;Node11</title>
<g id="a_edge10_Node000001_Node000011"><a xlink:title=" ">
<path fill="none" stroke="#63b8ff" d="M724.95,-223.53C686.14,-214.5 627.52,-200.85 585.4,-191.05"/>
<polygon fill="#63b8ff" stroke="#63b8ff" points="586.26,-187.66 575.73,-188.8 584.68,-194.48 586.26,-187.66"/>
</a>
</g>
</g>
<!-- Node14 -->
<g id="Node000014" class="node">
<title>Node14</title>
<g id="a_Node000014"><a xlink:title=" ">
<polygon fill="#e0e0e0" stroke="#999999" points="737.75,-76 695.5,-76 695.5,-56 737.75,-56 737.75,-76"/>
<text text-anchor="middle" x="716.62" y="-62.5" font-family="Helvetica,sans-Serif" font-size="10.00">cstdio</text>
</a>
</g>
</g>
<!-- Node1&#45;&gt;Node14 -->
<g id="edge32_Node000001_Node000014" class="edge">
<title>Node1&#45;&gt;Node14</title>
<g id="a_edge32_Node000001_Node000014"><a xlink:title=" ">
<path fill="none" stroke="#63b8ff" d="M772.71,-223.54C787.74,-202.24 819.66,-149.46 797.62,-112 787.14,-94.17 766.75,-82.9 749.05,-76.1"/>
<polygon fill="#63b8ff" stroke="#63b8ff" points="750.25,-72.81 739.65,-72.83 747.95,-79.42 750.25,-72.81"/>
</a>
</g>
</g>
<!-- Node18 -->
<g id="Node000018" class="node">
<title>Node18</title>
<g id="a_Node000018"><a xlink:title=" ">
<polygon fill="#e0e0e0" stroke="#999999" points="788.25,-132 743,-132 743,-112 788.25,-112 788.25,-132"/>
<text text-anchor="middle" x="765.62" y="-118.5" font-family="Helvetica,sans-Serif" font-size="10.00">cstring</text>
</a>
</g>
</g>
<!-- Node1&#45;&gt;Node18 -->
<g id="edge30_Node000001_Node000018" class="edge">
<title>Node1&#45;&gt;Node18</title>
<g id="a_edge30_Node000001_Node000018"><a xlink:title=" ">
<path fill="none" stroke="#63b8ff" d="M765.62,-223.62C765.62,-206.01 765.62,-167.59 765.62,-143.65"/>
<polygon fill="#63b8ff" stroke="#63b8ff" points="769.13,-143.87 765.63,-133.87 762.13,-143.87 769.13,-143.87"/>
</a>
</g>
</g>
<!-- Node22 -->
<g id="Node000022" class="node">
<title>Node22</title>
<g id="a_Node000022"><a xlink:title=" ">
<polygon fill="#e0e0e0" stroke="#999999" points="897.75,-188 837.5,-188 837.5,-168 897.75,-168 897.75,-188"/>
<text text-anchor="middle" x="867.62" y="-174.5" font-family="Helvetica,sans-Serif" font-size="10.00">filesystem</text>
</a>
</g>
</g>
<!-- Node1&#45;&gt;Node22 -->
<g id="edge27_Node000001_Node000022" class="edge">
<title>Node1&#45;&gt;Node22</title>
<g id="a_edge27_Node000001_Node000022"><a xlink:title=" ">
<path fill="none" stroke="#63b8ff" d="M783.39,-223.59C798.95,-215.36 821.81,-203.26 839.79,-193.74"/>
<polygon fill="#63b8ff" stroke="#63b8ff" points="841.18,-196.96 848.38,-189.19 837.91,-190.77 841.18,-196.96"/>
</a>
</g>
</g>
<!-- Node23 -->
<g id="Node000023" class="node">
<title>Node23</title>
<g id="a_Node000023"><a xlink:title=" ">
<polygon fill="#e0e0e0" stroke="#999999" points="957.38,-188 915.88,-188 915.88,-168 957.38,-168 957.38,-188"/>
<text text-anchor="middle" x="936.62" y="-174.5" font-family="Helvetica,sans-Serif" font-size="10.00">vector</text>
</a>
</g>
</g>
<!-- Node1&#45;&gt;Node23 -->
<g id="edge29_Node000001_Node000023" class="edge">
<title>Node1&#45;&gt;Node23</title>
<g id="a_edge29_Node000001_Node000023"><a xlink:title=" ">
<path fill="none" stroke="#63b8ff" d="M795.41,-223.59C826.01,-213.93 873.46,-198.95 904.78,-189.06"/>
<polygon fill="#63b8ff" stroke="#63b8ff" points="905.61,-192.47 914.09,-186.12 903.5,-185.79 905.61,-192.47"/>
</a>
</g>
</g>
<!-- Node24 -->
<g id="Node000024" class="node">
<title>Node24</title>
<g id="a_Node000024"><a xlink:title=" ">
<polygon fill="#e0e0e0" stroke="#999999" points="1014.25,-188 975,-188 975,-168 1014.25,-168 1014.25,-188"/>
<text text-anchor="middle" x="994.62" y="-174.5" font-family="Helvetica,sans-Serif" font-size="10.00">cfloat</text>
</a>
</g>
</g>
<!-- Node1&#45;&gt;Node24 -->
<g id="edge31_Node000001_Node000024" class="edge">
<title>Node1&#45;&gt;Node24</title>
<g id="a_edge31_Node000001_Node000024"><a xlink:title=" ">
<path fill="none" stroke="#63b8ff" d="M813.44,-223.57C851.88,-215.7 907.46,-203.69 963.64,-188.65"/>
<polygon fill="#63b8ff" stroke="#63b8ff" points="964.31,-192.1 973.04,-186.11 962.47,-185.34 964.31,-192.1"/>
</a>
</g>
</g>
<!-- Node3 -->
<g id="Node000003" class="node">
<title>Node3</title>
<g id="a_Node000003"><a xlink:href="../../dc/d89/_a_e_typedefs_8hpp.html" target="_top" xlink:title="This file contains the engine&#39;s typedefs and variable type aliases.">
<polygon fill="white" stroke="#666666" points="235.12,-76 114.12,-76 114.12,-56 235.12,-56 235.12,-76"/>
<text text-anchor="middle" x="174.62" y="-62.5" font-family="Helvetica,sans-Serif" font-size="10.00">include/AETypedefs.hpp</text>
</a>
</g>
</g>
<!-- Node2&#45;&gt;Node3 -->
<g id="edge2_Node000002_Node000003" class="edge">
<title>Node2&#45;&gt;Node3</title>
<g id="a_edge2_Node000002_Node000003"><a xlink:title=" ">
<path fill="none" stroke="#63b8ff" d="M173.71,-167.62C173.87,-150.01 174.22,-111.59 174.44,-87.65"/>
<polygon fill="#63b8ff" stroke="#63b8ff" points="177.94,-87.9 174.53,-77.87 170.94,-87.84 177.94,-87.9"/>
</a>
</g>
</g>
<!-- Node7 -->
<g id="Node000007" class="node">
<title>Node7</title>
<g id="a_Node000007"><a xlink:href="../../dd/dd8/_a_e_flags_8hpp.html" target="_top" xlink:title="This file contains the flags to manipulate engine&#39;s funcitonality.">
<polygon fill="white" stroke="#666666" points="359.62,-76 253.62,-76 253.62,-56 359.62,-56 359.62,-76"/>
<text text-anchor="middle" x="306.62" y="-62.5" font-family="Helvetica,sans-Serif" font-size="10.00">include/AEFlags.hpp</text>
</a>
</g>
</g>
<!-- Node2&#45;&gt;Node7 -->
<g id="edge6_Node000002_Node000007" class="edge">
<title>Node2&#45;&gt;Node7</title>
<g id="a_edge6_Node000002_Node000007"><a xlink:title=" ">
<path fill="none" stroke="#63b8ff" d="M176.92,-167.88C182.28,-154.15 194.09,-128.08 211.62,-112 226.66,-98.21 246.68,-87.88 264.47,-80.62"/>
<polygon fill="#63b8ff" stroke="#63b8ff" points="265.7,-83.9 273.78,-77.04 263.19,-77.37 265.7,-83.9"/>
</a>
</g>
</g>
<!-- Node2&#45;&gt;Node8 -->
<g id="edge7_Node000002_Node000008" class="edge">
<title>Node2&#45;&gt;Node8</title>
<g id="a_edge7_Node000002_Node000008"><a xlink:title=" ">
<path fill="none" stroke="#63b8ff" d="M147.32,-167.59C122.07,-158.56 83.82,-144.88 56.34,-135.06"/>
<polygon fill="#63b8ff" stroke="#63b8ff" points="57.68,-131.82 47.09,-131.75 55.32,-138.41 57.68,-131.82"/>
</a>
</g>
</g>
<!-- Node2&#45;&gt;Node9 -->
<g id="edge8_Node000002_Node000009" class="edge">
<title>Node2&#45;&gt;Node9</title>
<g id="a_edge8_Node000002_Node000009"><a xlink:title=" ">
<path fill="none" stroke="#63b8ff" d="M185.3,-167.59C194.9,-159.85 208.75,-148.69 220.19,-139.47"/>
<polygon fill="#63b8ff" stroke="#63b8ff" points="222.32,-142.25 227.91,-133.25 217.93,-136.8 222.32,-142.25"/>
</a>
</g>
</g>
<!-- Node10 -->
<g id="Node000010" class="node">
<title>Node10</title>
<g id="a_Node000010"><a xlink:title=" ">
<polygon fill="#e0e0e0" stroke="#999999" points="126.25,-132 63,-132 63,-112 126.25,-112 126.25,-132"/>
<text text-anchor="middle" x="94.62" y="-118.5" font-family="Helvetica,sans-Serif" font-size="10.00">string_view</text>
</a>
</g>
</g>
<!-- Node2&#45;&gt;Node10 -->
<g id="edge9_Node000002_Node000010" class="edge">
<title>Node2&#45;&gt;Node10</title>
<g id="a_edge9_Node000002_Node000010"><a xlink:title=" ">
<path fill="none" stroke="#63b8ff" d="M159.86,-167.59C148.27,-159.67 131.43,-148.16 117.76,-138.82"/>
<polygon fill="#63b8ff" stroke="#63b8ff" points="119.97,-136.09 109.74,-133.33 116.02,-141.87 119.97,-136.09"/>
</a>
</g>
</g>
<!-- Node4 -->
<g id="Node000004" class="node">
<title>Node4</title>
<g id="a_Node000004"><a xlink:title=" ">
<polygon fill="#e0e0e0" stroke="#999999" points="133.88,-20 89.38,-20 89.38,0 133.88,0 133.88,-20"/>
<text text-anchor="middle" x="111.62" y="-6.5" font-family="Helvetica,sans-Serif" font-size="10.00">climits</text>
</a>
</g>
</g>
<!-- Node3&#45;&gt;Node4 -->
<g id="edge3_Node000003_Node000004" class="edge">
<title>Node3&#45;&gt;Node4</title>
<g id="a_edge3_Node000003_Node000004"><a xlink:title=" ">
<path fill="none" stroke="#63b8ff" d="M163.65,-55.59C154.71,-47.93 141.85,-36.91 131.16,-27.75"/>
<polygon fill="#63b8ff" stroke="#63b8ff" points="133.49,-25.13 123.62,-21.28 128.94,-30.45 133.49,-25.13"/>
</a>
</g>
</g>
<!-- Node5 -->
<g id="Node000005" class="node">
<title>Node5</title>
<g id="a_Node000005"><a xlink:title=" ">
<polygon fill="#e0e0e0" stroke="#999999" points="197.25,-20 152,-20 152,0 197.25,0 197.25,-20"/>
<text text-anchor="middle" x="174.62" y="-6.5" font-family="Helvetica,sans-Serif" font-size="10.00">chrono</text>
</a>
</g>
</g>
<!-- Node3&#45;&gt;Node5 -->
<g id="edge4_Node000003_Node000005" class="edge">
<title>Node3&#45;&gt;Node5</title>
<g id="a_edge4_Node000003_Node000005"><a xlink:title=" ">
<path fill="none" stroke="#63b8ff" d="M174.62,-55.59C174.62,-49.01 174.62,-39.96 174.62,-31.73"/>
<polygon fill="#63b8ff" stroke="#63b8ff" points="178.13,-31.81 174.63,-21.81 171.13,-31.81 178.13,-31.81"/>
</a>
</g>
</g>
<!-- Node6 -->
<g id="Node000006" class="node">
<title>Node6</title>
<g id="a_Node000006"><a xlink:title=" ">
<polygon fill="#e0e0e0" stroke="#999999" points="258.12,-20 215.12,-20 215.12,0 258.12,0 258.12,-20"/>
<text text-anchor="middle" x="236.62" y="-6.5" font-family="Helvetica,sans-Serif" font-size="10.00">thread</text>
</a>
</g>
</g>
<!-- Node3&#45;&gt;Node6 -->
<g id="edge5_Node000003_Node000006" class="edge">
<title>Node3&#45;&gt;Node6</title>
<g id="a_edge5_Node000003_Node000006"><a xlink:title=" ">
<path fill="none" stroke="#63b8ff" d="M185.42,-55.59C194.23,-47.93 206.88,-36.91 217.4,-27.75"/>
<polygon fill="#63b8ff" stroke="#63b8ff" points="219.57,-30.5 224.81,-21.29 214.97,-25.22 219.57,-30.5"/>
</a>
</g>
</g>
<!-- Node11&#45;&gt;Node3 -->
<g id="edge19_Node000011_Node000003" class="edge">
<title>Node11&#45;&gt;Node3</title>
<g id="a_edge19_Node000011_Node000003"><a xlink:title=" ">
<path fill="none" stroke="#63b8ff" d="M482.38,-168.98C439.39,-161.55 376.69,-149.07 323.62,-132 280.32,-118.07 232.47,-95.91 202.97,-81.41"/>
<polygon fill="#63b8ff" stroke="#63b8ff" points="204.84,-78.43 194.33,-77.11 201.73,-84.7 204.84,-78.43"/>
</a>
</g>
</g>
<!-- Node11&#45;&gt;Node7 -->
<g id="edge18_Node000011_Node000007" class="edge">
<title>Node11&#45;&gt;Node7</title>
<g id="a_edge18_Node000011_Node000007"><a xlink:title=" ">
<path fill="none" stroke="#63b8ff" d="M482.45,-175.38C441.88,-171.75 385.55,-161.27 345.62,-132 330.22,-120.7 319.74,-101.31 313.56,-86.64"/>
<polygon fill="#63b8ff" stroke="#63b8ff" points="316.92,-85.62 310.05,-77.55 310.38,-88.14 316.92,-85.62"/>
</a>
</g>
</g>
<!-- Node11&#45;&gt;Node9 -->
<g id="edge21_Node000011_Node000009" class="edge">
<title>Node11&#45;&gt;Node9</title>
<g id="a_edge21_Node000011_Node000009"><a xlink:title=" ">
<path fill="none" stroke="#63b8ff" d="M482.75,-169.5C430.34,-161.45 346.41,-147.71 274.62,-132 273.8,-131.82 272.96,-131.63 272.12,-131.44"/>
<polygon fill="#63b8ff" stroke="#63b8ff" points="273.07,-128.07 262.52,-129.08 271.39,-134.86 273.07,-128.07"/>
</a>
</g>
</g>
<!-- Node12 -->
<g id="Node000012" class="node">
<title>Node12</title>
<g id="a_Node000012"><a xlink:href="../../d9/d6a/_a_e_utils_macros_8hpp.html" target="_top" xlink:title="This file contains the engine&#39;s usefull macros for trivial tasks.">
<polygon fill="white" stroke="#666666" points="454.62,-132 354.62,-132 354.62,-112 454.62,-112 454.62,-132"/>
<text text-anchor="middle" x="404.62" y="-118.5" font-family="Helvetica,sans-Serif" font-size="10.00">AEUtilsMacros.hpp</text>
</a>
</g>
</g>
<!-- Node11&#45;&gt;Node12 -->
<g id="edge11_Node000011_Node000012" class="edge">
<title>Node11&#45;&gt;Node12</title>
<g id="a_edge11_Node000011_Node000012"><a xlink:title=" ">
<path fill="none" stroke="#63b8ff" d="M511.15,-167.59C490.84,-159.09 460.67,-146.46 437.62,-136.81"/>
<polygon fill="#63b8ff" stroke="#63b8ff" points="439.24,-133.7 428.67,-133.06 436.54,-140.15 439.24,-133.7"/>
</a>
</g>
</g>
<!-- Node17 -->
<g id="Node000017" class="node">
<title>Node17</title>
<g id="a_Node000017"><a xlink:title=" ">
<polygon fill="#e0e0e0" stroke="#999999" points="528.5,-132 472.75,-132 472.75,-112 528.5,-112 528.5,-132"/>
<text text-anchor="middle" x="500.62" y="-118.5" font-family="Helvetica,sans-Serif" font-size="10.00">algorithm</text>
</a>
</g>
</g>
<!-- Node11&#45;&gt;Node17 -->
<g id="edge20_Node000011_Node000017" class="edge">
<title>Node11&#45;&gt;Node17</title>
<g id="a_edge20_Node000011_Node000017"><a xlink:title=" ">
<path fill="none" stroke="#63b8ff" d="M527.88,-167.59C523.57,-160.55 517.53,-150.67 512.24,-142"/>
<polygon fill="#63b8ff" stroke="#63b8ff" points="515.3,-140.3 507.1,-133.59 509.32,-143.95 515.3,-140.3"/>
</a>
</g>
</g>
<!-- Node11&#45;&gt;Node18 -->
<g id="edge22_Node000011_Node000018" class="edge">
<title>Node11&#45;&gt;Node18</title>
<g id="a_edge22_Node000011_Node000018"><a xlink:title=" ">
<path fill="none" stroke="#63b8ff" d="M578.67,-167.58C616.93,-159.41 673.54,-146.96 731.72,-132.38"/>
<polygon fill="#63b8ff" stroke="#63b8ff" points="732.29,-135.85 741.12,-130.01 730.57,-129.06 732.29,-135.85"/>
</a>
</g>
</g>
<!-- Node19 -->
<g id="Node000019" class="node">
<title>Node19</title>
<g id="a_Node000019"><a xlink:title=" ">
<polygon fill="#e0e0e0" stroke="#999999" points="586.62,-132 546.62,-132 546.62,-112 586.62,-112 586.62,-132"/>
<text text-anchor="middle" x="566.62" y="-118.5" font-family="Helvetica,sans-Serif" font-size="10.00">ctime</text>
</a>
</g>
</g>
<!-- Node11&#45;&gt;Node19 -->
<g id="edge23_Node000011_Node000019" class="edge">
<title>Node11&#45;&gt;Node19</title>
<g id="a_edge23_Node000011_Node000019"><a xlink:title=" ">
<path fill="none" stroke="#63b8ff" d="M539.37,-167.59C543.68,-160.55 549.72,-150.67 555.01,-142"/>
<polygon fill="#63b8ff" stroke="#63b8ff" points="557.93,-143.95 560.15,-133.59 551.95,-140.3 557.93,-143.95"/>
</a>
</g>
</g>
<!-- Node20 -->
<g id="Node000020" class="node">
<title>Node20</title>
<g id="a_Node000020"><a xlink:title=" ">
<polygon fill="#e0e0e0" stroke="#999999" points="656.25,-132 605,-132 605,-112 656.25,-112 656.25,-132"/>
<text text-anchor="middle" x="630.62" y="-118.5" font-family="Helvetica,sans-Serif" font-size="10.00">sstream</text>
</a>
</g>
</g>
<!-- Node11&#45;&gt;Node20 -->
<g id="edge24_Node000011_Node000020" class="edge">
<title>Node11&#45;&gt;Node20</title>
<g id="a_edge24_Node000011_Node000020"><a xlink:title=" ">
<path fill="none" stroke="#63b8ff" d="M550.52,-167.59C565.17,-159.44 586.65,-147.48 603.67,-138"/>
<polygon fill="#63b8ff" stroke="#63b8ff" points="605.24,-141.14 612.27,-133.22 601.83,-135.02 605.24,-141.14"/>
</a>
</g>
</g>
<!-- Node21 -->
<g id="Node000021" class="node">
<title>Node21</title>
<g id="a_Node000021"><a xlink:title=" ">
<polygon fill="#e0e0e0" stroke="#999999" points="724.5,-132 674.75,-132 674.75,-112 724.5,-112 724.5,-132"/>
<text text-anchor="middle" x="699.62" y="-118.5" font-family="Helvetica,sans-Serif" font-size="10.00">iomanip</text>
</a>
</g>
</g>
<!-- Node11&#45;&gt;Node21 -->
<g id="edge25_Node000011_Node000021" class="edge">
<title>Node11&#45;&gt;Node21</title>
<g id="a_edge25_Node000011_Node000021"><a xlink:title=" ">
<path fill="none" stroke="#63b8ff" d="M562.54,-167.59C590.55,-158.48 633.1,-144.64 663.36,-134.8"/>
<polygon fill="#63b8ff" stroke="#63b8ff" points="664.43,-138.13 672.86,-131.71 662.27,-131.47 664.43,-138.13"/>
</a>
</g>
</g>
<!-- Node12&#45;&gt;Node3 -->
<g id="edge12_Node000012_Node000003" class="edge">
<title>Node12&#45;&gt;Node3</title>
<g id="a_edge12_Node000012_Node000003"><a xlink:title=" ">
<path fill="none" stroke="#63b8ff" d="M364.3,-111.53C325.83,-102.5 267.71,-88.85 225.95,-79.05"/>
<polygon fill="#63b8ff" stroke="#63b8ff" points="226.91,-75.68 216.38,-76.8 225.31,-82.5 226.91,-75.68"/>
</a>
</g>
</g>
<!-- Node12&#45;&gt;Node7 -->
<g id="edge13_Node000012_Node000007" class="edge">
<title>Node12&#45;&gt;Node7</title>
<g id="a_edge13_Node000012_Node000007"><a xlink:title=" ">
<path fill="none" stroke="#63b8ff" d="M387.55,-111.59C372.75,-103.44 351.06,-91.48 333.86,-82"/>
<polygon fill="#63b8ff" stroke="#63b8ff" points="335.6,-78.97 325.15,-77.21 332.22,-85.1 335.6,-78.97"/>
</a>
</g>
</g>
<!-- Node13 -->
<g id="Node000013" class="node">
<title>Node13</title>
<g id="a_Node000013"><a xlink:title=" ">
<polygon fill="#e0e0e0" stroke="#999999" points="431.38,-76 377.88,-76 377.88,-56 431.38,-56 431.38,-76"/>
<text text-anchor="middle" x="404.62" y="-62.5" font-family="Helvetica,sans-Serif" font-size="10.00">iostream</text>
</a>
</g>
</g>
<!-- Node12&#45;&gt;Node13 -->
<g id="edge14_Node000012_Node000013" class="edge">
<title>Node12&#45;&gt;Node13</title>
<g id="a_edge14_Node000012_Node000013"><a xlink:title=" ">
<path fill="none" stroke="#63b8ff" d="M404.62,-111.59C404.62,-105.01 404.62,-95.96 404.62,-87.73"/>
<polygon fill="#63b8ff" stroke="#63b8ff" points="408.13,-87.81 404.63,-77.81 401.13,-87.81 408.13,-87.81"/>
</a>
</g>
</g>
<!-- Node12&#45;&gt;Node14 -->
<g id="edge15_Node000012_Node000014" class="edge">
<title>Node12&#45;&gt;Node14</title>
<g id="a_edge15_Node000012_Node000014"><a xlink:title=" ">
<path fill="none" stroke="#63b8ff" d="M455.1,-112.26C519.69,-101.08 629.72,-82.04 684.15,-72.62"/>
<polygon fill="#63b8ff" stroke="#63b8ff" points="684.45,-76.12 693.71,-70.97 683.26,-69.22 684.45,-76.12"/>
</a>
</g>
</g>
<!-- Node15 -->
<g id="Node000015" class="node">
<title>Node15</title>
<g id="a_Node000015"><a xlink:title=" ">
<polygon fill="#e0e0e0" stroke="#999999" points="511.5,-76 449.75,-76 449.75,-56 511.5,-56 511.5,-76"/>
<text text-anchor="middle" x="480.62" y="-62.5" font-family="Helvetica,sans-Serif" font-size="10.00">type_traits</text>
</a>
</g>
</g>
<!-- Node12&#45;&gt;Node15 -->
<g id="edge16_Node000012_Node000015" class="edge">
<title>Node12&#45;&gt;Node15</title>
<g id="a_edge16_Node000012_Node000015"><a xlink:title=" ">
<path fill="none" stroke="#63b8ff" d="M417.86,-111.59C428.91,-103.74 444.91,-92.38 457.98,-83.09"/>
<polygon fill="#63b8ff" stroke="#63b8ff" points="459.93,-86 466.05,-77.36 455.87,-80.3 459.93,-86"/>
</a>
</g>
</g>
<!-- Node16 -->
<g id="Node000016" class="node">
<title>Node16</title>
<g id="a_Node000016"><a xlink:title=" ">
<polygon fill="#e0e0e0" stroke="#999999" points="577.38,-76 529.88,-76 529.88,-56 577.38,-56 577.38,-76"/>
<text text-anchor="middle" x="553.62" y="-62.5" font-family="Helvetica,sans-Serif" font-size="10.00">cstddef</text>
</a>
</g>
</g>
<!-- Node12&#45;&gt;Node16 -->
<g id="edge17_Node000012_Node000016" class="edge">
<title>Node12&#45;&gt;Node16</title>
<g id="a_edge17_Node000012_Node000016"><a xlink:title=" ">
<path fill="none" stroke="#63b8ff" d="M430.58,-111.59C455.05,-102.72 491.91,-89.37 518.91,-79.58"/>
<polygon fill="#63b8ff" stroke="#63b8ff" points="519.82,-82.98 528.02,-76.28 517.43,-76.39 519.82,-82.98"/>
</a>
</g>
</g>
</g>
</svg>

<g id="navigator" transform="translate(0 0)" fill="#404254">
  <rect fill="#f2f5e9" fill-opacity="0.5" stroke="#606060" stroke-width=".5" x="0" y="0" width="60" height="60"/>
  <use id="zoomplus" xlink:href="#zoomPlus" x="17" y="9" onmousedown="handleZoom(evt,'in')"/>
  <use id="zoomminus" xlink:href="#zoomMin" x="42" y="9" onmousedown="handleZoom(evt,'out')"/>
  <use id="reset" xlink:href="#resetDef" x="30" y="36" onmousedown="handleReset()"/>
   <use id="arrowup" xlink:href="#arrowUp" x="0" y="0" onmousedown="handlePan(0,-1)"/>
  <use id="arrowright" xlink:href="#arrowRight" x="0" y="0" onmousedown="handlePan(1,0)"/>
  <use id="arrowdown" xlink:href="#arrowDown" x="0" y="0" onmousedown="handlePan(0,1)"/>
  <use id="arrowleft" xlink:href="#arrowLeft" x="0" y="0" onmousedown="handlePan(-1,0)"/>
</g>
<svg viewBox="0 0 15 15" width="100%" height="30px" preserveAspectRatio="xMaxYMin meet">
 <g id="arrow_out" transform="scale(0.3 0.3)">
  <a xlink:href="_a_e_file_writer_8hpp__incl_org.svg" target="_base">
   <rect id="button" ry="5" rx="5" y="6" x="6" height="38" width="38"
        fill="#f2f5e9" fill-opacity="0.5" stroke="#606060" stroke-width="1.0"/>
   <path id="arrow"
     d="M 11.500037,31.436501 C 11.940474,20.09759 22.043105,11.32322 32.158766,21.979434 L 37.068811,17.246167 C 37.068811,17.246167 37.088388,32 37.088388,32 L 22.160133,31.978069 C 22.160133,31.978069 26.997745,27.140456 26.997745,27.140456 C 18.528582,18.264221 13.291696,25.230495 11.500037,31.436501 z"
     style="fill:#404040;"/>
  </a>
 </g>
</svg>

<style type='text/css'>
<![CDATA[
[data-mouse-over-selected='false'] { opacity: 0.7; }
[data-mouse-over-selected='true']  { opacity: 1.0; }
]]>
</style>
<script type="application/ecmascript"><![CDATA[
document.addEventListener('DOMContentLoaded', (event) => {
  highlightEdges();
  highlightAdjacentNodes();
});
]]></script>
</svg>
