<?xml version="1.0" encoding="UTF-8" standalone="no"?>
<!DOCTYPE svg PUBLIC "-//W3C//DTD SVG 1.1//EN"
 "http://www.w3.org/Graphics/SVG/1.1/DTD/svg11.dtd">
<!-- Generated by graphviz version 10.0.1 (20240210.2158)
 -->
<!-- Title: AELogParser/include/AELogParser.hpp Pages: 1 -->
<!--zoomable 308 -->

<svg id="main" version="1.1" xmlns="http://www.w3.org/2000/svg" xmlns:xlink="http://www.w3.org/1999/xlink" xml:space="preserve" onload="init(evt)">
<style type="text/css"><![CDATA[
.node, .edge {opacity: 0.7;}
.node.selected, .edge.selected {opacity: 1;}
.edge:hover path { stroke: red; }
.edge:hover polygon { stroke: red; fill: red; }
]]></style>

<defs>
  <circle id="rim" cx="0" cy="0" r="7"/>
  <circle id="rim2" cx="0" cy="0" r="3.5"/>
  <g id="zoomPlus">
    <use xlink:href="#rim" fill="#404040"><set attributeName="fill" to="#808080" begin="zoomplus.mouseover" end="zoomplus.mouseout"/></use>
    <path d="M-4,0h8M0,-4v8" fill="none" stroke="white" stroke-width="1.5" pointer-events="none"/>
  </g>
  <g id="zoomMin">
    <use xlink:href="#rim" fill="#404040"><set attributeName="fill" to="#808080" begin="zoomminus.mouseover" end="zoomminus.mouseout"/></use>
    <path d="M-4,0h8" fill="none" stroke="white" stroke-width="1.5" pointer-events="none"/>
  </g>
  <g id="arrowUp" transform="translate(30 24)">
    <use xlink:href="#rim"/>
    <path pointer-events="none" fill="none" stroke="white" stroke-width="1.5" d="M0,-3.0v7 M-2.5,-0.5L0,-3.0L2.5,-0.5"/>
  </g>
  <g id="arrowRight" transform="rotate(90) translate(36 -43)">
    <use xlink:href="#rim"/>
    <path pointer-events="none" fill="none" stroke="white" stroke-width="1.5" d="M0,-3.0v7 M-2.5,-0.5L0,-3.0L2.5,-0.5"/>
  </g>
  <g id="arrowDown" transform="rotate(180) translate(-30 -48)">
    <use xlink:href="#rim"/>
    <path pointer-events="none" fill="none" stroke="white" stroke-width="1.5" d="M0,-3.0v7 M-2.5,-0.5L0,-3.0L2.5,-0.5"/>
  </g>
  <g id="arrowLeft" transform="rotate(270) translate(-36 17)">
    <use xlink:href="#rim"/>
    <path pointer-events="none" fill="none" stroke="white" stroke-width="1.5" d="M0,-3.0v7 M-2.5,-0.5L0,-3.0L2.5,-0.5"/>
  </g>
  <g id="resetDef">
    <use xlink:href="#rim2" fill="#404040"><set attributeName="fill" to="#808080" begin="reset.mouseover" end="reset.mouseout"/></use>
  </g>
</defs>
<script type="application/ecmascript">
var viewWidth = 1364;
var viewHeight = 308;
var sectionId = 'dynsection-0';
</script>
<script type="application/ecmascript" xlink:href="../../svg.min.js"/>
<svg id="graph" class="graph">
<g id="viewport">
<title>AELogParser/include/AELogParser.hpp</title>
<!-- Node1 -->
<g id="Node000001" class="node">
<title>Node1</title>
<g id="a_Node000001"><a xlink:title=" ">
<polygon fill="#999999" stroke="#666666" points="1151.25,-300 964.25,-300 964.25,-280 1151.25,-280 1151.25,-300"/>
<text text-anchor="middle" x="1057.75" y="-286.5" font-family="Helvetica,sans-Serif" font-size="10.00">AELogParser/include/AELogParser.hpp</text>
</a>
</g>
</g>
<!-- Node2 -->
<g id="Node000002" class="node">
<title>Node2</title>
<g id="a_Node000002"><a xlink:href="../../d3/dda/_a_e_file_reader_8hpp.html" target="_top" xlink:title=" ">
<polygon fill="white" stroke="#666666" points="1040,-244 911.5,-244 911.5,-224 1040,-224 1040,-244"/>
<text text-anchor="middle" x="975.75" y="-230.5" font-family="Helvetica,sans-Serif" font-size="10.00">include/AEFileReader.hpp</text>
</a>
</g>
</g>
<!-- Node1&#45;&gt;Node2 -->
<g id="edge1_Node000001_Node000002" class="edge">
<title>Node1&#45;&gt;Node2</title>
<g id="a_edge1_Node000001_Node000002"><a xlink:title=" ">
<path fill="none" stroke="#63b8ff" d="M1043.47,-279.59C1031.31,-271.59 1013.61,-259.93 999.35,-250.54"/>
<polygon fill="#63b8ff" stroke="#63b8ff" points="1001.69,-247.89 991.41,-245.31 997.84,-253.73 1001.69,-247.89"/>
</a>
</g>
</g>
<!-- Node16 -->
<g id="Node000016" class="node">
<title>Node16</title>
<g id="a_Node000016"><a xlink:title=" ">
<polygon fill="#e0e0e0" stroke="#999999" points="1063.38,-132 1000.12,-132 1000.12,-112 1063.38,-112 1063.38,-132"/>
<text text-anchor="middle" x="1031.75" y="-118.5" font-family="Helvetica,sans-Serif" font-size="10.00">string_view</text>
</a>
</g>
</g>
<!-- Node1&#45;&gt;Node16 -->
<g id="edge48_Node000001_Node000016" class="edge">
<title>Node1&#45;&gt;Node16</title>
<g id="a_edge48_Node000001_Node000016"><a xlink:title=" ">
<path fill="none" stroke="#63b8ff" d="M1079.24,-279.53C1120.47,-260.05 1203.8,-213.44 1170.75,-168 1149.09,-138.22 1107.3,-127.75 1075.17,-124.26"/>
<polygon fill="#63b8ff" stroke="#63b8ff" points="1075.6,-120.78 1065.33,-123.4 1074.99,-127.75 1075.6,-120.78"/>
</a>
</g>
</g>
<!-- Node24 -->
<g id="Node000024" class="node">
<title>Node24</title>
<g id="a_Node000024"><a xlink:title=" ">
<polygon fill="#e0e0e0" stroke="#999999" points="1161.5,-188 1120,-188 1120,-168 1161.5,-168 1161.5,-188"/>
<text text-anchor="middle" x="1140.75" y="-174.5" font-family="Helvetica,sans-Serif" font-size="10.00">vector</text>
</a>
</g>
</g>
<!-- Node1&#45;&gt;Node24 -->
<g id="edge50_Node000001_Node000024" class="edge">
<title>Node1&#45;&gt;Node24</title>
<g id="a_edge50_Node000001_Node000024"><a xlink:title=" ">
<path fill="none" stroke="#63b8ff" d="M1064.83,-279.62C1078.55,-261.44 1108.99,-221.09 1126.88,-197.38"/>
<polygon fill="#63b8ff" stroke="#63b8ff" points="1129.55,-199.65 1132.78,-189.56 1123.96,-195.44 1129.55,-199.65"/>
</a>
</g>
</g>
<!-- Node25 -->
<g id="Node000025" class="node">
<title>Node25</title>
<g id="a_Node000025"><a xlink:href="../../dc/dc6/_a_e_log_entry_8hpp.html" target="_top" xlink:title=" ">
<polygon fill="white" stroke="#666666" points="826.25,-244 705.25,-244 705.25,-224 826.25,-224 826.25,-244"/>
<text text-anchor="middle" x="765.75" y="-230.5" font-family="Helvetica,sans-Serif" font-size="10.00">include/AELogEntry.hpp</text>
</a>
</g>
</g>
<!-- Node1&#45;&gt;Node25 -->
<g id="edge34_Node000001_Node000025" class="edge">
<title>Node1&#45;&gt;Node25</title>
<g id="a_edge34_Node000001_Node000025"><a xlink:title=" ">
<path fill="none" stroke="#63b8ff" d="M1006.55,-279.53C956.77,-270.33 881.09,-256.33 827.88,-246.49"/>
<polygon fill="#63b8ff" stroke="#63b8ff" points="828.85,-243.11 818.38,-244.73 827.57,-249.99 828.85,-243.11"/>
</a>
</g>
</g>
<!-- Node27 -->
<g id="Node000027" class="node">
<title>Node27</title>
<g id="a_Node000027"><a xlink:href="../../db/dcb/_a_e_log_entry_info_8hpp.html" target="_top" xlink:title=" ">
<polygon fill="white" stroke="#666666" points="512.75,-244 376.75,-244 376.75,-224 512.75,-224 512.75,-244"/>
<text text-anchor="middle" x="444.75" y="-230.5" font-family="Helvetica,sans-Serif" font-size="10.00">include/AELogEntryInfo.hpp</text>
</a>
</g>
</g>
<!-- Node1&#45;&gt;Node27 -->
<g id="edge39_Node000001_Node000027" class="edge">
<title>Node1&#45;&gt;Node27</title>
<g id="a_edge39_Node000001_Node000027"><a xlink:title=" ">
<path fill="none" stroke="#63b8ff" d="M963.98,-280.74C843.68,-270.14 637.11,-251.95 524.18,-242"/>
<polygon fill="#63b8ff" stroke="#63b8ff" points="524.66,-238.53 514.39,-241.14 524.05,-245.5 524.66,-238.53"/>
</a>
</g>
</g>
<!-- Node28 -->
<g id="Node000028" class="node">
<title>Node28</title>
<g id="a_Node000028"><a xlink:href="../../d1/da4/_a_e_math_8hpp.html" target="_top" xlink:title="This file contains the engine&#39;s math and math&#45;related functions.">
<polygon fill="white" stroke="#666666" points="184.62,-132 80.88,-132 80.88,-112 184.62,-112 184.62,-132"/>
<text text-anchor="middle" x="132.75" y="-118.5" font-family="Helvetica,sans-Serif" font-size="10.00">include/AEMath.hpp</text>
</a>
</g>
</g>
<!-- Node1&#45;&gt;Node28 -->
<g id="edge41_Node000001_Node000028" class="edge">
<title>Node1&#45;&gt;Node28</title>
<g id="a_edge41_Node000001_Node000028"><a xlink:title=" ">
<path fill="none" stroke="#63b8ff" d="M964.02,-286.8C802.45,-282.36 478.23,-270.4 367.75,-244 282.76,-223.69 194.18,-166.65 154.38,-138.75"/>
<polygon fill="#63b8ff" stroke="#63b8ff" points="156.54,-136 146.36,-133.05 152.48,-141.7 156.54,-136"/>
</a>
</g>
</g>
<!-- Node32 -->
<g id="Node000032" class="node">
<title>Node32</title>
<g id="a_Node000032"><a xlink:title=" ">
<polygon fill="#e0e0e0" stroke="#999999" points="1255.62,-244 1217.88,-244 1217.88,-224 1255.62,-224 1255.62,-244"/>
<text text-anchor="middle" x="1236.75" y="-230.5" font-family="Helvetica,sans-Serif" font-size="10.00">array</text>
</a>
</g>
</g>
<!-- Node1&#45;&gt;Node32 -->
<g id="edge47_Node000001_Node000032" class="edge">
<title>Node1&#45;&gt;Node32</title>
<g id="a_edge47_Node000001_Node000032"><a xlink:title=" ">
<path fill="none" stroke="#63b8ff" d="M1088.93,-279.59C1122.08,-269.59 1174.14,-253.89 1206.81,-244.03"/>
<polygon fill="#63b8ff" stroke="#63b8ff" points="1207.49,-247.48 1216.05,-241.24 1205.46,-240.78 1207.49,-247.48"/>
</a>
</g>
</g>
<!-- Node33 -->
<g id="Node000033" class="node">
<title>Node33</title>
<g id="a_Node000033"><a xlink:title=" ">
<polygon fill="#e0e0e0" stroke="#999999" points="1356.12,-244 1273.38,-244 1273.38,-224 1356.12,-224 1356.12,-244"/>
<text text-anchor="middle" x="1314.75" y="-230.5" font-family="Helvetica,sans-Serif" font-size="10.00">unordered_map</text>
</a>
</g>
</g>
<!-- Node1&#45;&gt;Node33 -->
<g id="edge49_Node000001_Node000033" class="edge">
<title>Node1&#45;&gt;Node33</title>
<g id="a_edge49_Node000001_Node000033"><a xlink:title=" ">
<path fill="none" stroke="#63b8ff" d="M1102.81,-279.53C1147.23,-270.2 1215.08,-255.94 1262,-246.08"/>
<polygon fill="#63b8ff" stroke="#63b8ff" points="1262.6,-249.53 1271.67,-244.05 1261.16,-242.68 1262.6,-249.53"/>
</a>
</g>
</g>
<!-- Node3 -->
<g id="Node000003" class="node">
<title>Node3</title>
<g id="a_Node000003"><a xlink:href="../../d7/d7f/_a_e_module_base_8hpp.html" target="_top" xlink:title="This file contains the engine&#39;s basic module template.">
<polygon fill="white" stroke="#666666" points="833.75,-188 697.75,-188 697.75,-168 833.75,-168 833.75,-188"/>
<text text-anchor="middle" x="765.75" y="-174.5" font-family="Helvetica,sans-Serif" font-size="10.00">include/AEModuleBase.hpp</text>
</a>
</g>
</g>
<!-- Node2&#45;&gt;Node3 -->
<g id="edge2_Node000002_Node000003" class="edge">
<title>Node2&#45;&gt;Node3</title>
<g id="a_edge2_Node000002_Node000003"><a xlink:title=" ">
<path fill="none" stroke="#63b8ff" d="M939.17,-223.59C904.3,-214.63 851.61,-201.08 813.46,-191.27"/>
<polygon fill="#63b8ff" stroke="#63b8ff" points="814.64,-187.96 804.08,-188.86 812.89,-194.74 814.64,-187.96"/>
</a>
</g>
</g>
<!-- Node11 -->
<g id="Node000011" class="node">
<title>Node11</title>
<g id="a_Node000011"><a xlink:title=" ">
<polygon fill="#e0e0e0" stroke="#999999" points="1018.88,-76 976.62,-76 976.62,-56 1018.88,-56 1018.88,-76"/>
<text text-anchor="middle" x="997.75" y="-62.5" font-family="Helvetica,sans-Serif" font-size="10.00">cstdio</text>
</a>
</g>
</g>
<!-- Node2&#45;&gt;Node11 -->
<g id="edge33_Node000002_Node000011" class="edge">
<title>Node2&#45;&gt;Node11</title>
<g id="a_edge33_Node000002_Node000011"><a xlink:title=" ">
<path fill="none" stroke="#63b8ff" d="M1020.91,-223.55C1040.34,-217 1061.21,-206.07 1072.75,-188 1090.93,-159.53 1089.39,-141.39 1072.75,-112 1063.51,-95.68 1045.73,-84.63 1029.8,-77.57"/>
<polygon fill="#63b8ff" stroke="#63b8ff" points="1031.18,-74.35 1020.6,-73.87 1028.57,-80.85 1031.18,-74.35"/>
</a>
</g>
</g>
<!-- Node14 -->
<g id="Node000014" class="node">
<title>Node14</title>
<g id="a_Node000014"><a xlink:title=" ">
<polygon fill="#e0e0e0" stroke="#999999" points="982.38,-132 937.12,-132 937.12,-112 982.38,-112 982.38,-132"/>
<text text-anchor="middle" x="959.75" y="-118.5" font-family="Helvetica,sans-Serif" font-size="10.00">atomic</text>
</a>
</g>
</g>
<!-- Node2&#45;&gt;Node14 -->
<g id="edge28_Node000002_Node000014" class="edge">
<title>Node2&#45;&gt;Node14</title>
<g id="a_edge28_Node000002_Node000014"><a xlink:title=" ">
<path fill="none" stroke="#63b8ff" d="M971.98,-223.53C968.6,-214.54 963.86,-200.59 961.75,-188 959.28,-173.3 958.83,-156.48 958.97,-143.63"/>
<polygon fill="#63b8ff" stroke="#63b8ff" points="962.46,-143.93 959.21,-133.85 955.46,-143.76 962.46,-143.93"/>
</a>
</g>
</g>
<!-- Node15 -->
<g id="Node000015" class="node">
<title>Node15</title>
<g id="a_Node000015"><a xlink:title=" ">
<polygon fill="#e0e0e0" stroke="#999999" points="880.75,-132 840.75,-132 840.75,-112 880.75,-112 880.75,-132"/>
<text text-anchor="middle" x="860.75" y="-118.5" font-family="Helvetica,sans-Serif" font-size="10.00">string</text>
</a>
</g>
</g>
<!-- Node2&#45;&gt;Node15 -->
<g id="edge30_Node000002_Node000015" class="edge">
<title>Node2&#45;&gt;Node15</title>
<g id="a_edge30_Node000002_Node000015"><a xlink:title=" ">
<path fill="none" stroke="#63b8ff" d="M965.95,-223.62C946.59,-205.11 903.24,-163.65 878.66,-140.13"/>
<polygon fill="#63b8ff" stroke="#63b8ff" points="881.27,-137.78 871.62,-133.4 876.43,-142.84 881.27,-137.78"/>
</a>
</g>
</g>
<!-- Node2&#45;&gt;Node16 -->
<g id="edge31_Node000002_Node000016" class="edge">
<title>Node2&#45;&gt;Node16</title>
<g id="a_edge31_Node000002_Node000016"><a xlink:title=" ">
<path fill="none" stroke="#63b8ff" d="M977.24,-223.73C979.6,-210.7 984.97,-186.5 994.75,-168 999.98,-158.1 1007.61,-148.35 1014.58,-140.47"/>
<polygon fill="#63b8ff" stroke="#63b8ff" points="1017,-143 1021.25,-133.29 1011.88,-138.23 1017,-143"/>
</a>
</g>
</g>
<!-- Node17 -->
<g id="Node000017" class="node">
<title>Node17</title>
<g id="a_Node000017"><a xlink:href="../../de/de8/_a_e_utils_8hpp.html" target="_top" xlink:title="This file contains the engine&#39;s usefull utilities for trivial tasks.">
<polygon fill="white" stroke="#666666" points="650.5,-188 549,-188 549,-168 650.5,-168 650.5,-188"/>
<text text-anchor="middle" x="599.75" y="-174.5" font-family="Helvetica,sans-Serif" font-size="10.00">include/AEUtils.hpp</text>
</a>
</g>
</g>
<!-- Node2&#45;&gt;Node17 -->
<g id="edge18_Node000002_Node000017" class="edge">
<title>Node2&#45;&gt;Node17</title>
<g id="a_edge18_Node000002_Node000017"><a xlink:title=" ">
<path fill="none" stroke="#63b8ff" d="M911.11,-223.72C841.3,-213.69 730.85,-197.83 661.99,-187.94"/>
<polygon fill="#63b8ff" stroke="#63b8ff" points="662.78,-184.52 652.39,-186.56 661.79,-191.45 662.78,-184.52"/>
</a>
</g>
</g>
<!-- Node23 -->
<g id="Node000023" class="node">
<title>Node23</title>
<g id="a_Node000023"><a xlink:title=" ">
<polygon fill="#e0e0e0" stroke="#999999" points="1063.88,-188 1003.62,-188 1003.62,-168 1063.88,-168 1063.88,-188"/>
<text text-anchor="middle" x="1033.75" y="-174.5" font-family="Helvetica,sans-Serif" font-size="10.00">filesystem</text>
</a>
</g>
</g>
<!-- Node2&#45;&gt;Node23 -->
<g id="edge29_Node000002_Node000023" class="edge">
<title>Node2&#45;&gt;Node23</title>
<g id="a_edge29_Node000002_Node000023"><a xlink:title=" ">
<path fill="none" stroke="#63b8ff" d="M985.85,-223.59C994,-216.01 1005.68,-205.13 1015.47,-196.02"/>
<polygon fill="#63b8ff" stroke="#63b8ff" points="1017.72,-198.71 1022.66,-189.33 1012.95,-193.58 1017.72,-198.71"/>
</a>
</g>
</g>
<!-- Node2&#45;&gt;Node24 -->
<g id="edge32_Node000002_Node000024" class="edge">
<title>Node2&#45;&gt;Node24</title>
<g id="a_edge32_Node000002_Node000024"><a xlink:title=" ">
<path fill="none" stroke="#63b8ff" d="M1004.49,-223.59C1033.64,-214.06 1078.64,-199.33 1108.87,-189.43"/>
<polygon fill="#63b8ff" stroke="#63b8ff" points="1109.81,-192.81 1118.23,-186.37 1107.63,-186.16 1109.81,-192.81"/>
</a>
</g>
</g>
<!-- Node4 -->
<g id="Node000004" class="node">
<title>Node4</title>
<g id="a_Node000004"><a xlink:href="../../dc/d89/_a_e_typedefs_8hpp.html" target="_top" xlink:title="This file contains the engine&#39;s typedefs and variable type aliases.">
<polygon fill="white" stroke="#666666" points="507.25,-76 386.25,-76 386.25,-56 507.25,-56 507.25,-76"/>
<text text-anchor="middle" x="446.75" y="-62.5" font-family="Helvetica,sans-Serif" font-size="10.00">include/AETypedefs.hpp</text>
</a>
</g>
</g>
<!-- Node3&#45;&gt;Node4 -->
<g id="edge3_Node000003_Node000004" class="edge">
<title>Node3&#45;&gt;Node4</title>
<g id="a_edge3_Node000003_Node000004"><a xlink:title=" ">
<path fill="none" stroke="#63b8ff" d="M736.24,-167.56C710.84,-159.13 673.38,-145.98 641.75,-132 624.29,-124.28 621.46,-119.11 603.75,-112 569.89,-98.4 530.39,-87.1 499.49,-79.23"/>
<polygon fill="#63b8ff" stroke="#63b8ff" points="500.54,-75.88 489.99,-76.85 498.84,-82.67 500.54,-75.88"/>
</a>
</g>
</g>
<!-- Node8 -->
<g id="Node000008" class="node">
<title>Node8</title>
<g id="a_Node000008"><a xlink:href="../../dd/dd8/_a_e_flags_8hpp.html" target="_top" xlink:title="This file contains the flags to manipulate engine&#39;s funcitonality.">
<polygon fill="white" stroke="#666666" points="865.75,-76 759.75,-76 759.75,-56 865.75,-56 865.75,-76"/>
<text text-anchor="middle" x="812.75" y="-62.5" font-family="Helvetica,sans-Serif" font-size="10.00">include/AEFlags.hpp</text>
</a>
</g>
</g>
<!-- Node3&#45;&gt;Node8 -->
<g id="edge7_Node000003_Node000008" class="edge">
<title>Node3&#45;&gt;Node8</title>
<g id="a_edge7_Node000003_Node000008"><a xlink:title=" ">
<path fill="none" stroke="#63b8ff" d="M834.1,-167.84C855.46,-161.39 876.8,-150.47 889.75,-132 904.55,-110.88 876.77,-92.53 850.54,-80.76"/>
<polygon fill="#63b8ff" stroke="#63b8ff" points="852.25,-77.68 841.67,-77.02 849.53,-84.13 852.25,-77.68"/>
</a>
</g>
</g>
<!-- Node9 -->
<g id="Node000009" class="node">
<title>Node9</title>
<g id="a_Node000009"><a xlink:href="../../d9/d6a/_a_e_utils_macros_8hpp.html" target="_top" xlink:title="This file contains the engine&#39;s macros for trivial tasks.">
<polygon fill="white" stroke="#666666" points="784.62,-132 650.88,-132 650.88,-112 784.62,-112 784.62,-132"/>
<text text-anchor="middle" x="717.75" y="-118.5" font-family="Helvetica,sans-Serif" font-size="10.00">include/AEUtilsMacros.hpp</text>
</a>
</g>
</g>
<!-- Node3&#45;&gt;Node9 -->
<g id="edge8_Node000003_Node000009" class="edge">
<title>Node3&#45;&gt;Node9</title>
<g id="a_edge8_Node000003_Node000009"><a xlink:title=" ">
<path fill="none" stroke="#63b8ff" d="M757.39,-167.59C750.85,-160.24 741.57,-149.8 733.63,-140.87"/>
<polygon fill="#63b8ff" stroke="#63b8ff" points="736.28,-138.58 727.02,-133.43 731.05,-143.23 736.28,-138.58"/>
</a>
</g>
</g>
<!-- Node3&#45;&gt;Node14 -->
<g id="edge15_Node000003_Node000014" class="edge">
<title>Node3&#45;&gt;Node14</title>
<g id="a_edge15_Node000003_Node000014"><a xlink:title=" ">
<path fill="none" stroke="#63b8ff" d="M799.54,-167.59C835,-157.72 890.43,-142.3 925.91,-132.42"/>
<polygon fill="#63b8ff" stroke="#63b8ff" points="926.52,-135.88 935.22,-129.83 924.64,-129.14 926.52,-135.88"/>
</a>
</g>
</g>
<!-- Node3&#45;&gt;Node15 -->
<g id="edge16_Node000003_Node000015" class="edge">
<title>Node3&#45;&gt;Node15</title>
<g id="a_edge16_Node000003_Node000015"><a xlink:title=" ">
<path fill="none" stroke="#63b8ff" d="M782.3,-167.59C796.65,-159.44 817.68,-147.48 834.35,-138"/>
<polygon fill="#63b8ff" stroke="#63b8ff" points="835.79,-141.21 842.76,-133.23 832.33,-135.13 835.79,-141.21"/>
</a>
</g>
</g>
<!-- Node3&#45;&gt;Node16 -->
<g id="edge17_Node000003_Node000016" class="edge">
<title>Node3&#45;&gt;Node16</title>
<g id="a_edge17_Node000003_Node000016"><a xlink:title=" ">
<path fill="none" stroke="#63b8ff" d="M815.2,-167.52C858.62,-159.11 923.77,-146.3 989,-132.55"/>
<polygon fill="#63b8ff" stroke="#63b8ff" points="989.35,-136.05 998.41,-130.56 987.9,-129.2 989.35,-136.05"/>
</a>
</g>
</g>
<!-- Node5 -->
<g id="Node000005" class="node">
<title>Node5</title>
<g id="a_Node000005"><a xlink:title=" ">
<polygon fill="#e0e0e0" stroke="#999999" points="406,-20 361.5,-20 361.5,0 406,0 406,-20"/>
<text text-anchor="middle" x="383.75" y="-6.5" font-family="Helvetica,sans-Serif" font-size="10.00">climits</text>
</a>
</g>
</g>
<!-- Node4&#45;&gt;Node5 -->
<g id="edge4_Node000004_Node000005" class="edge">
<title>Node4&#45;&gt;Node5</title>
<g id="a_edge4_Node000004_Node000005"><a xlink:title=" ">
<path fill="none" stroke="#63b8ff" d="M435.78,-55.59C426.83,-47.93 413.98,-36.91 403.29,-27.75"/>
<polygon fill="#63b8ff" stroke="#63b8ff" points="405.62,-25.13 395.75,-21.28 401.06,-30.45 405.62,-25.13"/>
</a>
</g>
</g>
<!-- Node6 -->
<g id="Node000006" class="node">
<title>Node6</title>
<g id="a_Node000006"><a xlink:title=" ">
<polygon fill="#e0e0e0" stroke="#999999" points="469.38,-20 424.12,-20 424.12,0 469.38,0 469.38,-20"/>
<text text-anchor="middle" x="446.75" y="-6.5" font-family="Helvetica,sans-Serif" font-size="10.00">chrono</text>
</a>
</g>
</g>
<!-- Node4&#45;&gt;Node6 -->
<g id="edge5_Node000004_Node000006" class="edge">
<title>Node4&#45;&gt;Node6</title>
<g id="a_edge5_Node000004_Node000006"><a xlink:title=" ">
<path fill="none" stroke="#63b8ff" d="M446.75,-55.59C446.75,-49.01 446.75,-39.96 446.75,-31.73"/>
<polygon fill="#63b8ff" stroke="#63b8ff" points="450.25,-31.81 446.75,-21.81 443.25,-31.81 450.25,-31.81"/>
</a>
</g>
</g>
<!-- Node7 -->
<g id="Node000007" class="node">
<title>Node7</title>
<g id="a_Node000007"><a xlink:title=" ">
<polygon fill="#e0e0e0" stroke="#999999" points="530.25,-20 487.25,-20 487.25,0 530.25,0 530.25,-20"/>
<text text-anchor="middle" x="508.75" y="-6.5" font-family="Helvetica,sans-Serif" font-size="10.00">thread</text>
</a>
</g>
</g>
<!-- Node4&#45;&gt;Node7 -->
<g id="edge6_Node000004_Node000007" class="edge">
<title>Node4&#45;&gt;Node7</title>
<g id="a_edge6_Node000004_Node000007"><a xlink:title=" ">
<path fill="none" stroke="#63b8ff" d="M457.55,-55.59C466.35,-47.93 479,-36.91 489.52,-27.75"/>
<polygon fill="#63b8ff" stroke="#63b8ff" points="491.69,-30.5 496.93,-21.29 487.09,-25.22 491.69,-30.5"/>
</a>
</g>
</g>
<!-- Node9&#45;&gt;Node4 -->
<g id="edge9_Node000009_Node000004" class="edge">
<title>Node9&#45;&gt;Node4</title>
<g id="a_edge9_Node000009_Node000004"><a xlink:title=" ">
<path fill="none" stroke="#63b8ff" d="M670.24,-111.53C624.32,-102.38 554.67,-88.5 505.35,-78.68"/>
<polygon fill="#63b8ff" stroke="#63b8ff" points="506.19,-75.27 495.69,-76.75 504.82,-82.14 506.19,-75.27"/>
</a>
</g>
</g>
<!-- Node9&#45;&gt;Node8 -->
<g id="edge10_Node000009_Node000008" class="edge">
<title>Node9&#45;&gt;Node8</title>
<g id="a_edge10_Node000009_Node000008"><a xlink:title=" ">
<path fill="none" stroke="#63b8ff" d="M734.3,-111.59C748.65,-103.44 769.68,-91.48 786.35,-82"/>
<polygon fill="#63b8ff" stroke="#63b8ff" points="787.79,-85.21 794.76,-77.23 784.33,-79.13 787.79,-85.21"/>
</a>
</g>
</g>
<!-- Node10 -->
<g id="Node000010" class="node">
<title>Node10</title>
<g id="a_Node000010"><a xlink:title=" ">
<polygon fill="#e0e0e0" stroke="#999999" points="675.5,-76 622,-76 622,-56 675.5,-56 675.5,-76"/>
<text text-anchor="middle" x="648.75" y="-62.5" font-family="Helvetica,sans-Serif" font-size="10.00">iostream</text>
</a>
</g>
</g>
<!-- Node9&#45;&gt;Node10 -->
<g id="edge11_Node000009_Node000010" class="edge">
<title>Node9&#45;&gt;Node10</title>
<g id="a_edge11_Node000009_Node000010"><a xlink:title=" ">
<path fill="none" stroke="#63b8ff" d="M705.73,-111.59C695.74,-103.77 681.29,-92.46 669.44,-83.19"/>
<polygon fill="#63b8ff" stroke="#63b8ff" points="671.86,-80.64 661.82,-77.23 667.54,-86.15 671.86,-80.64"/>
</a>
</g>
</g>
<!-- Node9&#45;&gt;Node11 -->
<g id="edge12_Node000009_Node000011" class="edge">
<title>Node9&#45;&gt;Node11</title>
<g id="a_edge12_Node000009_Node000011"><a xlink:title=" ">
<path fill="none" stroke="#63b8ff" d="M766.84,-111.53C823.93,-100.52 916.55,-82.66 965.33,-73.25"/>
<polygon fill="#63b8ff" stroke="#63b8ff" points="965.81,-76.72 974.97,-71.39 964.49,-69.85 965.81,-76.72"/>
</a>
</g>
</g>
<!-- Node12 -->
<g id="Node000012" class="node">
<title>Node12</title>
<g id="a_Node000012"><a xlink:title=" ">
<polygon fill="#e0e0e0" stroke="#999999" points="595.62,-76 533.88,-76 533.88,-56 595.62,-56 595.62,-76"/>
<text text-anchor="middle" x="564.75" y="-62.5" font-family="Helvetica,sans-Serif" font-size="10.00">type_traits</text>
</a>
</g>
</g>
<!-- Node9&#45;&gt;Node12 -->
<g id="edge13_Node000009_Node000012" class="edge">
<title>Node9&#45;&gt;Node12</title>
<g id="a_edge13_Node000009_Node000012"><a xlink:title=" ">
<path fill="none" stroke="#63b8ff" d="M691.1,-111.59C666.57,-102.94 629.92,-90 602.41,-80.29"/>
<polygon fill="#63b8ff" stroke="#63b8ff" points="603.63,-77.01 593.04,-76.98 601.3,-83.61 603.63,-77.01"/>
</a>
</g>
</g>
<!-- Node13 -->
<g id="Node000013" class="node">
<title>Node13</title>
<g id="a_Node000013"><a xlink:title=" ">
<polygon fill="#e0e0e0" stroke="#999999" points="741.5,-76 694,-76 694,-56 741.5,-56 741.5,-76"/>
<text text-anchor="middle" x="717.75" y="-62.5" font-family="Helvetica,sans-Serif" font-size="10.00">cstddef</text>
</a>
</g>
</g>
<!-- Node9&#45;&gt;Node13 -->
<g id="edge14_Node000009_Node000013" class="edge">
<title>Node9&#45;&gt;Node13</title>
<g id="a_edge14_Node000009_Node000013"><a xlink:title=" ">
<path fill="none" stroke="#63b8ff" d="M717.75,-111.59C717.75,-105.01 717.75,-95.96 717.75,-87.73"/>
<polygon fill="#63b8ff" stroke="#63b8ff" points="721.25,-87.81 717.75,-77.81 714.25,-87.81 721.25,-87.81"/>
</a>
</g>
</g>
<!-- Node17&#45;&gt;Node4 -->
<g id="edge21_Node000017_Node000004" class="edge">
<title>Node17&#45;&gt;Node4</title>
<g id="a_edge21_Node000017_Node000004"><a xlink:title=" ">
<path fill="none" stroke="#63b8ff" d="M558.45,-167.58C524.08,-158.97 478.76,-145.54 465.75,-132 454.28,-120.07 449.68,-101.61 447.86,-87.4"/>
<polygon fill="#63b8ff" stroke="#63b8ff" points="451.38,-87.45 447.01,-77.79 444.41,-88.06 451.38,-87.45"/>
</a>
</g>
</g>
<!-- Node17&#45;&gt;Node8 -->
<g id="edge20_Node000017_Node000008" class="edge">
<title>Node17&#45;&gt;Node8</title>
<g id="a_edge20_Node000017_Node000008"><a xlink:title=" ">
<path fill="none" stroke="#63b8ff" d="M650.78,-171.03C701.11,-164.15 773.4,-151.24 793.75,-132 805.78,-120.63 810.32,-102.11 811.98,-87.74"/>
<polygon fill="#63b8ff" stroke="#63b8ff" points="815.45,-88.21 812.69,-77.98 808.47,-87.7 815.45,-88.21"/>
</a>
</g>
</g>
<!-- Node17&#45;&gt;Node9 -->
<g id="edge19_Node000017_Node000009" class="edge">
<title>Node17&#45;&gt;Node9</title>
<g id="a_edge19_Node000017_Node000009"><a xlink:title=" ">
<path fill="none" stroke="#63b8ff" d="M620.3,-167.59C638.63,-159.21 665.74,-146.8 686.71,-137.21"/>
<polygon fill="#63b8ff" stroke="#63b8ff" points="688.02,-140.45 695.66,-133.11 685.11,-134.09 688.02,-140.45"/>
</a>
</g>
</g>
<!-- Node17&#45;&gt;Node15 -->
<g id="edge23_Node000017_Node000015" class="edge">
<title>Node17&#45;&gt;Node15</title>
<g id="a_edge23_Node000017_Node000015"><a xlink:title=" ">
<path fill="none" stroke="#63b8ff" d="M650.88,-167.82C697.02,-159.3 766.66,-145.89 826.75,-132 827.58,-131.81 828.41,-131.61 829.25,-131.41"/>
<polygon fill="#63b8ff" stroke="#63b8ff" points="829.99,-134.83 838.84,-129 828.29,-128.05 829.99,-134.83"/>
</a>
</g>
</g>
<!-- Node18 -->
<g id="Node000018" class="node">
<title>Node18</title>
<g id="a_Node000018"><a xlink:title=" ">
<polygon fill="#e0e0e0" stroke="#999999" points="530.62,-132 474.88,-132 474.88,-112 530.62,-112 530.62,-132"/>
<text text-anchor="middle" x="502.75" y="-118.5" font-family="Helvetica,sans-Serif" font-size="10.00">algorithm</text>
</a>
</g>
</g>
<!-- Node17&#45;&gt;Node18 -->
<g id="edge22_Node000017_Node000018" class="edge">
<title>Node17&#45;&gt;Node18</title>
<g id="a_edge22_Node000017_Node000018"><a xlink:title=" ">
<path fill="none" stroke="#63b8ff" d="M582.85,-167.59C568.2,-159.44 546.73,-147.48 529.7,-138"/>
<polygon fill="#63b8ff" stroke="#63b8ff" points="531.54,-135.02 521.1,-133.22 528.14,-141.14 531.54,-135.02"/>
</a>
</g>
</g>
<!-- Node19 -->
<g id="Node000019" class="node">
<title>Node19</title>
<g id="a_Node000019"><a xlink:title=" ">
<polygon fill="#e0e0e0" stroke="#999999" points="594.38,-132 549.12,-132 549.12,-112 594.38,-112 594.38,-132"/>
<text text-anchor="middle" x="571.75" y="-118.5" font-family="Helvetica,sans-Serif" font-size="10.00">cstring</text>
</a>
</g>
</g>
<!-- Node17&#45;&gt;Node19 -->
<g id="edge24_Node000017_Node000019" class="edge">
<title>Node17&#45;&gt;Node19</title>
<g id="a_edge24_Node000017_Node000019"><a xlink:title=" ">
<path fill="none" stroke="#63b8ff" d="M594.87,-167.59C591.26,-160.63 586.21,-150.89 581.75,-142.29"/>
<polygon fill="#63b8ff" stroke="#63b8ff" points="584.98,-140.91 577.27,-133.64 578.76,-144.13 584.98,-140.91"/>
</a>
</g>
</g>
<!-- Node20 -->
<g id="Node000020" class="node">
<title>Node20</title>
<g id="a_Node000020"><a xlink:title=" ">
<polygon fill="#e0e0e0" stroke="#999999" points="280.75,-132 240.75,-132 240.75,-112 280.75,-112 280.75,-132"/>
<text text-anchor="middle" x="260.75" y="-118.5" font-family="Helvetica,sans-Serif" font-size="10.00">ctime</text>
</a>
</g>
</g>
<!-- Node17&#45;&gt;Node20 -->
<g id="edge25_Node000017_Node000020" class="edge">
<title>Node17&#45;&gt;Node20</title>
<g id="a_edge25_Node000017_Node000020"><a xlink:title=" ">
<path fill="none" stroke="#63b8ff" d="M548.69,-169.32C545.67,-168.87 542.67,-168.43 539.75,-168 432.27,-152.2 401.23,-156.41 292.38,-132.3"/>
<polygon fill="#63b8ff" stroke="#63b8ff" points="293.24,-128.91 282.71,-130.13 291.7,-135.74 293.24,-128.91"/>
</a>
</g>
</g>
<!-- Node21 -->
<g id="Node000021" class="node">
<title>Node21</title>
<g id="a_Node000021"><a xlink:title=" ">
<polygon fill="#e0e0e0" stroke="#999999" points="350.38,-132 299.12,-132 299.12,-112 350.38,-112 350.38,-132"/>
<text text-anchor="middle" x="324.75" y="-118.5" font-family="Helvetica,sans-Serif" font-size="10.00">sstream</text>
</a>
</g>
</g>
<!-- Node17&#45;&gt;Node21 -->
<g id="edge26_Node000017_Node000021" class="edge">
<title>Node17&#45;&gt;Node21</title>
<g id="a_edge26_Node000017_Node000021"><a xlink:title=" ">
<path fill="none" stroke="#63b8ff" d="M548.52,-168.41C502.17,-160.41 431.8,-147.7 361.52,-132.27"/>
<polygon fill="#63b8ff" stroke="#63b8ff" points="362.7,-128.95 352.18,-130.2 361.18,-135.78 362.7,-128.95"/>
</a>
</g>
</g>
<!-- Node22 -->
<g id="Node000022" class="node">
<title>Node22</title>
<g id="a_Node000022"><a xlink:title=" ">
<polygon fill="#e0e0e0" stroke="#999999" points="418.62,-132 368.88,-132 368.88,-112 418.62,-112 418.62,-132"/>
<text text-anchor="middle" x="393.75" y="-118.5" font-family="Helvetica,sans-Serif" font-size="10.00">iomanip</text>
</a>
</g>
</g>
<!-- Node17&#45;&gt;Node22 -->
<g id="edge27_Node000017_Node000022" class="edge">
<title>Node17&#45;&gt;Node22</title>
<g id="a_edge27_Node000017_Node000022"><a xlink:title=" ">
<path fill="none" stroke="#63b8ff" d="M563.87,-167.59C526.26,-157.74 467.51,-142.33 429.83,-132.46"/>
<polygon fill="#63b8ff" stroke="#63b8ff" points="430.88,-129.11 420.32,-129.96 429.1,-135.89 430.88,-129.11"/>
</a>
</g>
</g>
<!-- Node25&#45;&gt;Node3 -->
<g id="edge36_Node000025_Node000003" class="edge">
<title>Node25&#45;&gt;Node3</title>
<g id="a_edge36_Node000025_Node000003"><a xlink:title=" ">
<path fill="none" stroke="#63b8ff" d="M765.75,-223.59C765.75,-217.01 765.75,-207.96 765.75,-199.73"/>
<polygon fill="#63b8ff" stroke="#63b8ff" points="769.25,-199.81 765.75,-189.81 762.25,-199.81 769.25,-199.81"/>
</a>
</g>
</g>
<!-- Node25&#45;&gt;Node14 -->
<g id="edge38_Node000025_Node000014" class="edge">
<title>Node25&#45;&gt;Node14</title>
<g id="a_edge38_Node000025_Node000014"><a xlink:title=" ">
<path fill="none" stroke="#63b8ff" d="M782.29,-223.62C815.94,-204.54 892.59,-161.08 933.27,-138.02"/>
<polygon fill="#63b8ff" stroke="#63b8ff" points="934.96,-141.08 941.93,-133.1 931.51,-134.99 934.96,-141.08"/>
</a>
</g>
</g>
<!-- Node25&#45;&gt;Node17 -->
<g id="edge37_Node000025_Node000017" class="edge">
<title>Node25&#45;&gt;Node17</title>
<g id="a_edge37_Node000025_Node000017"><a xlink:title=" ">
<path fill="none" stroke="#63b8ff" d="M736.84,-223.59C709.98,-214.86 669.75,-201.77 639.81,-192.03"/>
<polygon fill="#63b8ff" stroke="#63b8ff" points="640.92,-188.71 630.33,-188.95 638.76,-195.37 640.92,-188.71"/>
</a>
</g>
</g>
<!-- Node26 -->
<g id="Node000026" class="node">
<title>Node26</title>
<g id="a_Node000026"><a xlink:href="../../dc/dd8/_a_e_log_types_8hpp.html" target="_top" xlink:title=" ">
<polygon fill="white" stroke="#666666" points="530.88,-188 440.62,-188 440.62,-168 530.88,-168 530.88,-188"/>
<text text-anchor="middle" x="485.75" y="-174.5" font-family="Helvetica,sans-Serif" font-size="10.00">AELogTypes.hpp</text>
</a>
</g>
</g>
<!-- Node25&#45;&gt;Node26 -->
<g id="edge35_Node000025_Node000026" class="edge">
<title>Node25&#45;&gt;Node26</title>
<g id="a_edge35_Node000025_Node000026"><a xlink:title=" ">
<path fill="none" stroke="#63b8ff" d="M716.66,-223.53C667.96,-214.14 593.4,-199.76 542.26,-189.9"/>
<polygon fill="#63b8ff" stroke="#63b8ff" points="543.04,-186.49 532.56,-188.03 541.72,-193.36 543.04,-186.49"/>
</a>
</g>
</g>
<!-- Node27&#45;&gt;Node4 -->
<g id="edge40_Node000027_Node000004" class="edge">
<title>Node27&#45;&gt;Node4</title>
<g id="a_edge40_Node000027_Node000004"><a xlink:title=" ">
<path fill="none" stroke="#63b8ff" d="M389.09,-223.51C310.84,-207.79 183.01,-172 231.75,-112 249.63,-89.99 319.33,-78.36 374.58,-72.48"/>
<polygon fill="#63b8ff" stroke="#63b8ff" points="374.67,-75.99 384.27,-71.5 373.96,-69.03 374.67,-75.99"/>
</a>
</g>
</g>
<!-- Node28&#45;&gt;Node4 -->
<g id="edge43_Node000028_Node000004" class="edge">
<title>Node28&#45;&gt;Node4</title>
<g id="a_edge43_Node000028_Node000004"><a xlink:title=" ">
<path fill="none" stroke="#63b8ff" d="M184.95,-112.02C238.5,-102.81 321.97,-88.46 380.22,-78.44"/>
<polygon fill="#63b8ff" stroke="#63b8ff" points="380.76,-81.9 390.02,-76.76 379.57,-75 380.76,-81.9"/>
</a>
</g>
</g>
<!-- Node28&#45;&gt;Node12 -->
<g id="edge46_Node000028_Node000012" class="edge">
<title>Node28&#45;&gt;Node12</title>
<g id="a_edge46_Node000028_Node000012"><a xlink:title=" ">
<path fill="none" stroke="#63b8ff" d="M184.93,-115.95C258.77,-108.56 397.9,-93.73 515.75,-76 517.9,-75.68 520.1,-75.33 522.32,-74.97"/>
<polygon fill="#63b8ff" stroke="#63b8ff" points="522.68,-78.46 531.94,-73.32 521.49,-71.56 522.68,-78.46"/>
</a>
</g>
</g>
<!-- Node29 -->
<g id="Node000029" class="node">
<title>Node29</title>
<g id="a_Node000029"><a xlink:href="../../d2/d5a/_a_e_math_const_8hpp.html" target="_top" xlink:title="This file contains the engine&#39;s math constants.">
<polygon fill="white" stroke="#666666" points="95.5,-76 0,-76 0,-56 95.5,-56 95.5,-76"/>
<text text-anchor="middle" x="47.75" y="-62.5" font-family="Helvetica,sans-Serif" font-size="10.00">AEMathConst.hpp</text>
</a>
</g>
</g>
<!-- Node28&#45;&gt;Node29 -->
<g id="edge42_Node000028_Node000029" class="edge">
<title>Node28&#45;&gt;Node29</title>
<g id="a_edge42_Node000028_Node000029"><a xlink:title=" ">
<path fill="none" stroke="#63b8ff" d="M117.94,-111.59C105.35,-103.59 87,-91.93 72.22,-82.54"/>
<polygon fill="#63b8ff" stroke="#63b8ff" points="74.27,-79.7 63.95,-77.29 70.51,-85.61 74.27,-79.7"/>
</a>
</g>
</g>
<!-- Node30 -->
<g id="Node000030" class="node">
<title>Node30</title>
<g id="a_Node000030"><a xlink:title=" ">
<polygon fill="#e0e0e0" stroke="#999999" points="152.38,-76 113.12,-76 113.12,-56 152.38,-56 152.38,-76"/>
<text text-anchor="middle" x="132.75" y="-62.5" font-family="Helvetica,sans-Serif" font-size="10.00">limits</text>
</a>
</g>
</g>
<!-- Node28&#45;&gt;Node30 -->
<g id="edge44_Node000028_Node000030" class="edge">
<title>Node28&#45;&gt;Node30</title>
<g id="a_edge44_Node000028_Node000030"><a xlink:title=" ">
<path fill="none" stroke="#63b8ff" d="M132.75,-111.59C132.75,-105.01 132.75,-95.96 132.75,-87.73"/>
<polygon fill="#63b8ff" stroke="#63b8ff" points="136.25,-87.81 132.75,-77.81 129.25,-87.81 136.25,-87.81"/>
</a>
</g>
</g>
<!-- Node31 -->
<g id="Node000031" class="node">
<title>Node31</title>
<g id="a_Node000031"><a xlink:title=" ">
<polygon fill="#e0e0e0" stroke="#999999" points="213.25,-76 170.25,-76 170.25,-56 213.25,-56 213.25,-76"/>
<text text-anchor="middle" x="191.75" y="-62.5" font-family="Helvetica,sans-Serif" font-size="10.00">cmath</text>
</a>
</g>
</g>
<!-- Node28&#45;&gt;Node31 -->
<g id="edge45_Node000028_Node000031" class="edge">
<title>Node28&#45;&gt;Node31</title>
<g id="a_edge45_Node000028_Node000031"><a xlink:title=" ">
<path fill="none" stroke="#63b8ff" d="M143.03,-111.59C151.32,-104.01 163.2,-93.13 173.15,-84.02"/>
<polygon fill="#63b8ff" stroke="#63b8ff" points="175.46,-86.65 180.47,-77.32 170.73,-81.49 175.46,-86.65"/>
</a>
</g>
</g>
</g>
</svg>

<g id="navigator" transform="translate(0 0)" fill="#404254">
  <rect fill="#f2f5e9" fill-opacity="0.5" stroke="#606060" stroke-width=".5" x="0" y="0" width="60" height="60"/>
  <use id="zoomplus" xlink:href="#zoomPlus" x="17" y="9" onmousedown="handleZoom(evt,'in')"/>
  <use id="zoomminus" xlink:href="#zoomMin" x="42" y="9" onmousedown="handleZoom(evt,'out')"/>
  <use id="reset" xlink:href="#resetDef" x="30" y="36" onmousedown="handleReset()"/>
   <use id="arrowup" xlink:href="#arrowUp" x="0" y="0" onmousedown="handlePan(0,-1)"/>
  <use id="arrowright" xlink:href="#arrowRight" x="0" y="0" onmousedown="handlePan(1,0)"/>
  <use id="arrowdown" xlink:href="#arrowDown" x="0" y="0" onmousedown="handlePan(0,1)"/>
  <use id="arrowleft" xlink:href="#arrowLeft" x="0" y="0" onmousedown="handlePan(-1,0)"/>
</g>
<svg viewBox="0 0 15 15" width="100%" height="30px" preserveAspectRatio="xMaxYMin meet">
 <g id="arrow_out" transform="scale(0.3 0.3)">
  <a xlink:href="_a_e_log_parser_8hpp__incl_org.svg" target="_base">
   <rect id="button" ry="5" rx="5" y="6" x="6" height="38" width="38"
        fill="#f2f5e9" fill-opacity="0.5" stroke="#606060" stroke-width="1.0"/>
   <path id="arrow"
     d="M 11.500037,31.436501 C 11.940474,20.09759 22.043105,11.32322 32.158766,21.979434 L 37.068811,17.246167 C 37.068811,17.246167 37.088388,32 37.088388,32 L 22.160133,31.978069 C 22.160133,31.978069 26.997745,27.140456 26.997745,27.140456 C 18.528582,18.264221 13.291696,25.230495 11.500037,31.436501 z"
     style="fill:#404040;"/>
  </a>
 </g>
</svg>

<style type='text/css'>
<![CDATA[
[data-mouse-over-selected='false'] { opacity: 0.7; }
[data-mouse-over-selected='true']  { opacity: 1.0; }
]]>
</style>
<script type="application/ecmascript"><![CDATA[
document.addEventListener('DOMContentLoaded', (event) => {
  highlightEdges();
  highlightAdjacentNodes();
});
]]></script>
</svg>
