<?xml version="1.0" encoding="UTF-8" standalone="no"?>
<!DOCTYPE svg PUBLIC "-//W3C//DTD SVG 1.1//EN"
 "http://www.w3.org/Graphics/SVG/1.1/DTD/svg11.dtd">
<!-- Generated by graphviz version 10.0.1 (20240210.2158)
 -->
<!-- Title: AELogParser/include/AELogParser.hpp Pages: 1 -->
<!--zoomable 252 -->

<svg id="main" version="1.1" xmlns="http://www.w3.org/2000/svg" xmlns:xlink="http://www.w3.org/1999/xlink" xml:space="preserve" onload="init(evt)">
<style type="text/css"><![CDATA[
.node, .edge {opacity: 0.7;}
.node.selected, .edge.selected {opacity: 1;}
.edge:hover path { stroke: red; }
.edge:hover polygon { stroke: red; fill: red; }
]]></style>

<defs>
  <circle id="rim" cx="0" cy="0" r="7"/>
  <circle id="rim2" cx="0" cy="0" r="3.5"/>
  <g id="zoomPlus">
    <use xlink:href="#rim" fill="#404040"><set attributeName="fill" to="#808080" begin="zoomplus.mouseover" end="zoomplus.mouseout"/></use>
    <path d="M-4,0h8M0,-4v8" fill="none" stroke="white" stroke-width="1.5" pointer-events="none"/>
  </g>
  <g id="zoomMin">
    <use xlink:href="#rim" fill="#404040"><set attributeName="fill" to="#808080" begin="zoomminus.mouseover" end="zoomminus.mouseout"/></use>
    <path d="M-4,0h8" fill="none" stroke="white" stroke-width="1.5" pointer-events="none"/>
  </g>
  <g id="arrowUp" transform="translate(30 24)">
    <use xlink:href="#rim"/>
    <path pointer-events="none" fill="none" stroke="white" stroke-width="1.5" d="M0,-3.0v7 M-2.5,-0.5L0,-3.0L2.5,-0.5"/>
  </g>
  <g id="arrowRight" transform="rotate(90) translate(36 -43)">
    <use xlink:href="#rim"/>
    <path pointer-events="none" fill="none" stroke="white" stroke-width="1.5" d="M0,-3.0v7 M-2.5,-0.5L0,-3.0L2.5,-0.5"/>
  </g>
  <g id="arrowDown" transform="rotate(180) translate(-30 -48)">
    <use xlink:href="#rim"/>
    <path pointer-events="none" fill="none" stroke="white" stroke-width="1.5" d="M0,-3.0v7 M-2.5,-0.5L0,-3.0L2.5,-0.5"/>
  </g>
  <g id="arrowLeft" transform="rotate(270) translate(-36 17)">
    <use xlink:href="#rim"/>
    <path pointer-events="none" fill="none" stroke="white" stroke-width="1.5" d="M0,-3.0v7 M-2.5,-0.5L0,-3.0L2.5,-0.5"/>
  </g>
  <g id="resetDef">
    <use xlink:href="#rim2" fill="#404040"><set attributeName="fill" to="#808080" begin="reset.mouseover" end="reset.mouseout"/></use>
  </g>
</defs>
<script type="application/ecmascript">
var viewWidth = 1033;
var viewHeight = 252;
var sectionId = 'dynsection-0';
</script>
<script type="application/ecmascript" xlink:href="../../svg.min.js"/>
<svg id="graph" class="graph">
<g id="viewport">
<title>AELogParser/include/AELogParser.hpp</title>
<!-- Node1 -->
<g id="Node000001" class="node">
<title>Node1</title>
<g id="a_Node000001"><a xlink:title=" ">
<polygon fill="#999999" stroke="#666666" points="698.41,-244 511.41,-244 511.41,-224 698.41,-224 698.41,-244"/>
<text text-anchor="middle" x="604.91" y="-230.5" font-family="Helvetica,sans-Serif" font-size="10.00">AELogParser/include/AELogParser.hpp</text>
</a>
</g>
</g>
<!-- Node2 -->
<g id="Node000002" class="node">
<title>Node2</title>
<g id="a_Node000002"><a xlink:href="../../d3/dda/_a_e_file_reader_8hpp.html" target="_top" xlink:title=" ">
<polygon fill="white" stroke="#666666" points="323.16,-188 194.66,-188 194.66,-168 323.16,-168 323.16,-188"/>
<text text-anchor="middle" x="258.91" y="-174.5" font-family="Helvetica,sans-Serif" font-size="10.00">include/AEFileReader.hpp</text>
</a>
</g>
</g>
<!-- Node1&#45;&gt;Node2 -->
<g id="edge1_Node000001_Node000002" class="edge">
<title>Node1&#45;&gt;Node2</title>
<g id="a_edge1_Node000001_Node000002"><a xlink:title=" ">
<path fill="none" stroke="#63b8ff" d="M544.25,-223.53C484.64,-214.23 393.7,-200.04 330.56,-190.18"/>
<polygon fill="#63b8ff" stroke="#63b8ff" points="331.42,-186.77 321,-188.69 330.34,-193.69 331.42,-186.77"/>
</a>
</g>
</g>
<!-- Node11 -->
<g id="Node000011" class="node">
<title>Node11</title>
<g id="a_Node000011"><a xlink:title=" ">
<polygon fill="#e0e0e0" stroke="#999999" points="114.53,-76 51.28,-76 51.28,-56 114.53,-56 114.53,-76"/>
<text text-anchor="middle" x="82.91" y="-62.5" font-family="Helvetica,sans-Serif" font-size="10.00">string_view</text>
</a>
</g>
</g>
<!-- Node1&#45;&gt;Node11 -->
<g id="edge40_Node000001_Node000011" class="edge">
<title>Node1&#45;&gt;Node11</title>
<g id="a_edge40_Node000001_Node000011"><a xlink:title=" ">
<path fill="none" stroke="#63b8ff" d="M510.97,-233.12C355.76,-230.9 57.53,-215.61 3.91,-132 -10.06,-110.22 17.45,-92.18 43.75,-80.68"/>
<polygon fill="#63b8ff" stroke="#63b8ff" points="44.74,-84.06 52.66,-77.02 42.08,-77.58 44.74,-84.06"/>
</a>
</g>
</g>
<!-- Node20 -->
<g id="Node000020" class="node">
<title>Node20</title>
<g id="a_Node000020"><a xlink:title=" ">
<polygon fill="#e0e0e0" stroke="#999999" points="54.66,-132 13.16,-132 13.16,-112 54.66,-112 54.66,-132"/>
<text text-anchor="middle" x="33.91" y="-118.5" font-family="Helvetica,sans-Serif" font-size="10.00">vector</text>
</a>
</g>
</g>
<!-- Node1&#45;&gt;Node20 -->
<g id="edge42_Node000001_Node000020" class="edge">
<title>Node1&#45;&gt;Node20</title>
<g id="a_edge42_Node000001_Node000020"><a xlink:title=" ">
<path fill="none" stroke="#63b8ff" d="M511.12,-230.86C425.24,-227.05 295.27,-216.57 185.91,-188 140.4,-176.11 90.87,-152.81 61.12,-137.58"/>
<polygon fill="#63b8ff" stroke="#63b8ff" points="62.92,-134.57 52.44,-133.06 59.69,-140.78 62.92,-134.57"/>
</a>
</g>
</g>
<!-- Node22 -->
<g id="Node000022" class="node">
<title>Node22</title>
<g id="a_Node000022"><a xlink:href="../../dc/dc6/_a_e_log_entry_8hpp.html" target="_top" xlink:title=" ">
<polygon fill="white" stroke="#666666" points="592.41,-188 471.41,-188 471.41,-168 592.41,-168 592.41,-188"/>
<text text-anchor="middle" x="531.91" y="-174.5" font-family="Helvetica,sans-Serif" font-size="10.00">include/AELogEntry.hpp</text>
</a>
</g>
</g>
<!-- Node1&#45;&gt;Node22 -->
<g id="edge27_Node000001_Node000022" class="edge">
<title>Node1&#45;&gt;Node22</title>
<g id="a_edge27_Node000001_Node000022"><a xlink:title=" ">
<path fill="none" stroke="#63b8ff" d="M592.19,-223.59C581.52,-215.7 566.03,-204.24 553.43,-194.92"/>
<polygon fill="#63b8ff" stroke="#63b8ff" points="555.82,-192.33 545.7,-189.2 551.65,-197.96 555.82,-192.33"/>
</a>
</g>
</g>
<!-- Node24 -->
<g id="Node000024" class="node">
<title>Node24</title>
<g id="a_Node000024"><a xlink:href="../../db/dcb/_a_e_log_entry_info_8hpp.html" target="_top" xlink:title=" ">
<polygon fill="white" stroke="#666666" points="746.91,-188 610.91,-188 610.91,-168 746.91,-168 746.91,-188"/>
<text text-anchor="middle" x="678.91" y="-174.5" font-family="Helvetica,sans-Serif" font-size="10.00">include/AELogEntryInfo.hpp</text>
</a>
</g>
</g>
<!-- Node1&#45;&gt;Node24 -->
<g id="edge32_Node000001_Node000024" class="edge">
<title>Node1&#45;&gt;Node24</title>
<g id="a_edge32_Node000001_Node000024"><a xlink:title=" ">
<path fill="none" stroke="#63b8ff" d="M617.8,-223.59C628.62,-215.7 644.32,-204.24 657.1,-194.92"/>
<polygon fill="#63b8ff" stroke="#63b8ff" points="658.93,-197.91 664.95,-189.19 654.8,-192.26 658.93,-197.91"/>
</a>
</g>
</g>
<!-- Node25 -->
<g id="Node000025" class="node">
<title>Node25</title>
<g id="a_Node000025"><a xlink:href="../../d1/da4/_a_e_math_8hpp.html" target="_top" xlink:title="This file contains the engine&#39;s math and math&#45;related functions.">
<polygon fill="white" stroke="#666666" points="868.78,-188 765.03,-188 765.03,-168 868.78,-168 868.78,-188"/>
<text text-anchor="middle" x="816.91" y="-174.5" font-family="Helvetica,sans-Serif" font-size="10.00">include/AEMath.hpp</text>
</a>
</g>
</g>
<!-- Node1&#45;&gt;Node25 -->
<g id="edge34_Node000001_Node000025" class="edge">
<title>Node1&#45;&gt;Node25</title>
<g id="a_edge34_Node000001_Node000025"><a xlink:title=" ">
<path fill="none" stroke="#63b8ff" d="M641.84,-223.59C677.04,-214.63 730.23,-201.08 768.75,-191.27"/>
<polygon fill="#63b8ff" stroke="#63b8ff" points="769.4,-194.71 778.23,-188.85 767.67,-187.93 769.4,-194.71"/>
</a>
</g>
</g>
<!-- Node29 -->
<g id="Node000029" class="node">
<title>Node29</title>
<g id="a_Node000029"><a xlink:title=" ">
<polygon fill="#e0e0e0" stroke="#999999" points="924.78,-188 887.03,-188 887.03,-168 924.78,-168 924.78,-188"/>
<text text-anchor="middle" x="905.91" y="-174.5" font-family="Helvetica,sans-Serif" font-size="10.00">array</text>
</a>
</g>
</g>
<!-- Node1&#45;&gt;Node29 -->
<g id="edge39_Node000001_Node000029" class="edge">
<title>Node1&#45;&gt;Node29</title>
<g id="a_edge39_Node000001_Node000029"><a xlink:title=" ">
<path fill="none" stroke="#63b8ff" d="M681.12,-223.51C733.53,-216.28 804.82,-205.05 875.81,-188.21"/>
<polygon fill="#63b8ff" stroke="#63b8ff" points="876.37,-191.68 885.27,-185.93 874.72,-184.87 876.37,-191.68"/>
</a>
</g>
</g>
<!-- Node30 -->
<g id="Node000030" class="node">
<title>Node30</title>
<g id="a_Node000030"><a xlink:title=" ">
<polygon fill="#e0e0e0" stroke="#999999" points="1025.28,-188 942.53,-188 942.53,-168 1025.28,-168 1025.28,-188"/>
<text text-anchor="middle" x="983.91" y="-174.5" font-family="Helvetica,sans-Serif" font-size="10.00">unordered_map</text>
</a>
</g>
</g>
<!-- Node1&#45;&gt;Node30 -->
<g id="edge41_Node000001_Node000030" class="edge">
<title>Node1&#45;&gt;Node30</title>
<g id="a_edge41_Node000001_Node000030"><a xlink:title=" ">
<path fill="none" stroke="#63b8ff" d="M680.83,-223.54C744.99,-215.33 839.62,-202.73 931.06,-188.4"/>
<polygon fill="#63b8ff" stroke="#63b8ff" points="931.36,-191.9 940.7,-186.88 930.27,-184.98 931.36,-191.9"/>
</a>
</g>
</g>
<!-- Node3 -->
<g id="Node000003" class="node">
<title>Node3</title>
<g id="a_Node000003"><a xlink:href="../../d7/d7f/_a_e_module_base_8hpp.html" target="_top" xlink:title=" ">
<polygon fill="white" stroke="#666666" points="498.91,-132 362.91,-132 362.91,-112 498.91,-112 498.91,-132"/>
<text text-anchor="middle" x="430.91" y="-118.5" font-family="Helvetica,sans-Serif" font-size="10.00">include/AEModuleBase.hpp</text>
</a>
</g>
</g>
<!-- Node2&#45;&gt;Node3 -->
<g id="edge2_Node000002_Node000003" class="edge">
<title>Node2&#45;&gt;Node3</title>
<g id="a_edge2_Node000002_Node000003"><a xlink:title=" ">
<path fill="none" stroke="#63b8ff" d="M288.87,-167.59C316.82,-158.82 358.74,-145.66 389.81,-135.9"/>
<polygon fill="#63b8ff" stroke="#63b8ff" points="390.78,-139.27 399.27,-132.93 388.68,-132.59 390.78,-139.27"/>
</a>
</g>
</g>
<!-- Node9 -->
<g id="Node000009" class="node">
<title>Node9</title>
<g id="a_Node000009"><a xlink:title=" ">
<polygon fill="#e0e0e0" stroke="#999999" points="264.53,-76 219.28,-76 219.28,-56 264.53,-56 264.53,-76"/>
<text text-anchor="middle" x="241.91" y="-62.5" font-family="Helvetica,sans-Serif" font-size="10.00">atomic</text>
</a>
</g>
</g>
<!-- Node2&#45;&gt;Node9 -->
<g id="edge21_Node000002_Node000009" class="edge">
<title>Node2&#45;&gt;Node9</title>
<g id="a_edge21_Node000002_Node000009"><a xlink:title=" ">
<path fill="none" stroke="#63b8ff" d="M257.46,-167.62C254.74,-150.01 248.8,-111.59 245.1,-87.65"/>
<polygon fill="#63b8ff" stroke="#63b8ff" points="248.57,-87.2 243.59,-77.85 241.66,-88.27 248.57,-87.2"/>
</a>
</g>
</g>
<!-- Node10 -->
<g id="Node000010" class="node">
<title>Node10</title>
<g id="a_Node000010"><a xlink:title=" ">
<polygon fill="#e0e0e0" stroke="#999999" points="322.91,-76 282.91,-76 282.91,-56 322.91,-56 322.91,-76"/>
<text text-anchor="middle" x="302.91" y="-62.5" font-family="Helvetica,sans-Serif" font-size="10.00">string</text>
</a>
</g>
</g>
<!-- Node2&#45;&gt;Node10 -->
<g id="edge23_Node000002_Node000010" class="edge">
<title>Node2&#45;&gt;Node10</title>
<g id="a_edge23_Node000002_Node000010"><a xlink:title=" ">
<path fill="none" stroke="#63b8ff" d="M262.66,-167.62C269.77,-149.84 285.36,-110.88 294.91,-87"/>
<polygon fill="#63b8ff" stroke="#63b8ff" points="298.14,-88.34 298.61,-77.76 291.64,-85.74 298.14,-88.34"/>
</a>
</g>
</g>
<!-- Node2&#45;&gt;Node11 -->
<g id="edge24_Node000002_Node000011" class="edge">
<title>Node2&#45;&gt;Node11</title>
<g id="a_edge24_Node000002_Node000011"><a xlink:title=" ">
<path fill="none" stroke="#63b8ff" d="M194.27,-172.84C162.64,-167.57 126.23,-156.2 101.91,-132 90.18,-120.33 85.6,-101.84 83.86,-87.56"/>
<polygon fill="#63b8ff" stroke="#63b8ff" points="87.37,-87.56 83.07,-77.88 80.4,-88.13 87.37,-87.56"/>
</a>
</g>
</g>
<!-- Node12 -->
<g id="Node000012" class="node">
<title>Node12</title>
<g id="a_Node000012"><a xlink:href="../../de/de8/_a_e_utils_8hpp.html" target="_top" xlink:title="This file contains the engine&#39;s usefull utilities for trivial tasks.">
<polygon fill="white" stroke="#666666" points="618.66,-132 517.16,-132 517.16,-112 618.66,-112 618.66,-132"/>
<text text-anchor="middle" x="567.91" y="-118.5" font-family="Helvetica,sans-Serif" font-size="10.00">include/AEUtils.hpp</text>
</a>
</g>
</g>
<!-- Node2&#45;&gt;Node12 -->
<g id="edge11_Node000002_Node000012" class="edge">
<title>Node2&#45;&gt;Node12</title>
<g id="a_edge11_Node000002_Node000012"><a xlink:title=" ">
<path fill="none" stroke="#63b8ff" d="M313.09,-167.53C366.85,-158.14 449.16,-143.75 505.6,-133.89"/>
<polygon fill="#63b8ff" stroke="#63b8ff" points="506.14,-137.35 515.39,-132.18 504.93,-130.45 506.14,-137.35"/>
</a>
</g>
</g>
<!-- Node19 -->
<g id="Node000019" class="node">
<title>Node19</title>
<g id="a_Node000019"><a xlink:title=" ">
<polygon fill="#e0e0e0" stroke="#999999" points="171.03,-132 110.78,-132 110.78,-112 171.03,-112 171.03,-132"/>
<text text-anchor="middle" x="140.91" y="-118.5" font-family="Helvetica,sans-Serif" font-size="10.00">filesystem</text>
</a>
</g>
</g>
<!-- Node2&#45;&gt;Node19 -->
<g id="edge22_Node000002_Node000019" class="edge">
<title>Node2&#45;&gt;Node19</title>
<g id="a_edge22_Node000002_Node000019"><a xlink:title=" ">
<path fill="none" stroke="#63b8ff" d="M238.36,-167.59C220.03,-159.21 192.92,-146.8 171.95,-137.21"/>
<polygon fill="#63b8ff" stroke="#63b8ff" points="173.55,-134.09 163,-133.11 170.64,-140.45 173.55,-134.09"/>
</a>
</g>
</g>
<!-- Node2&#45;&gt;Node20 -->
<g id="edge25_Node000002_Node000020" class="edge">
<title>Node2&#45;&gt;Node20</title>
<g id="a_edge25_Node000002_Node000020"><a xlink:title=" ">
<path fill="none" stroke="#63b8ff" d="M218.09,-167.57C179.57,-158.62 120.25,-144.68 68.91,-132 67.92,-131.76 66.92,-131.51 65.91,-131.26"/>
<polygon fill="#63b8ff" stroke="#63b8ff" points="67.01,-127.92 56.46,-128.86 65.29,-134.71 67.01,-127.92"/>
</a>
</g>
</g>
<!-- Node21 -->
<g id="Node000021" class="node">
<title>Node21</title>
<g id="a_Node000021"><a xlink:title=" ">
<polygon fill="#e0e0e0" stroke="#999999" points="231.03,-132 188.78,-132 188.78,-112 231.03,-112 231.03,-132"/>
<text text-anchor="middle" x="209.91" y="-118.5" font-family="Helvetica,sans-Serif" font-size="10.00">cstdio</text>
</a>
</g>
</g>
<!-- Node2&#45;&gt;Node21 -->
<g id="edge26_Node000002_Node000021" class="edge">
<title>Node2&#45;&gt;Node21</title>
<g id="a_edge26_Node000002_Node000021"><a xlink:title=" ">
<path fill="none" stroke="#63b8ff" d="M250.37,-167.59C243.63,-160.16 234.02,-149.58 225.87,-140.58"/>
<polygon fill="#63b8ff" stroke="#63b8ff" points="228.68,-138.47 219.36,-133.42 223.49,-143.18 228.68,-138.47"/>
</a>
</g>
</g>
<!-- Node4 -->
<g id="Node000004" class="node">
<title>Node4</title>
<g id="a_Node000004"><a xlink:href="../../dc/d89/_a_e_typedefs_8hpp.html" target="_top" xlink:title="This file contains the engine&#39;s typedefs and variable type aliases.">
<polygon fill="white" stroke="#666666" points="990.41,-76 869.41,-76 869.41,-56 990.41,-56 990.41,-76"/>
<text text-anchor="middle" x="929.91" y="-62.5" font-family="Helvetica,sans-Serif" font-size="10.00">include/AETypedefs.hpp</text>
</a>
</g>
</g>
<!-- Node3&#45;&gt;Node4 -->
<g id="edge3_Node000003_Node000004" class="edge">
<title>Node3&#45;&gt;Node4</title>
<g id="a_edge3_Node000003_Node000004"><a xlink:title=" ">
<path fill="none" stroke="#63b8ff" d="M499.34,-112.95C502.23,-112.63 505.1,-112.31 507.91,-112 661,-95.25 702.34,-94.24 857.59,-76.36"/>
<polygon fill="#63b8ff" stroke="#63b8ff" points="857.93,-79.84 867.46,-75.22 857.13,-72.89 857.93,-79.84"/>
</a>
</g>
</g>
<!-- Node8 -->
<g id="Node000008" class="node">
<title>Node8</title>
<g id="a_Node000008"><a xlink:href="../../dd/dd8/_a_e_flags_8hpp.html" target="_top" xlink:title="This file contains the flags to manipulate engine&#39;s funcitonality.">
<polygon fill="white" stroke="#666666" points="446.91,-76 340.91,-76 340.91,-56 446.91,-56 446.91,-76"/>
<text text-anchor="middle" x="393.91" y="-62.5" font-family="Helvetica,sans-Serif" font-size="10.00">include/AEFlags.hpp</text>
</a>
</g>
</g>
<!-- Node3&#45;&gt;Node8 -->
<g id="edge7_Node000003_Node000008" class="edge">
<title>Node3&#45;&gt;Node8</title>
<g id="a_edge7_Node000003_Node000008"><a xlink:title=" ">
<path fill="none" stroke="#63b8ff" d="M424.46,-111.59C419.58,-104.47 412.72,-94.45 406.73,-85.72"/>
<polygon fill="#63b8ff" stroke="#63b8ff" points="409.68,-83.82 401.14,-77.55 403.9,-87.77 409.68,-83.82"/>
</a>
</g>
</g>
<!-- Node3&#45;&gt;Node9 -->
<g id="edge8_Node000003_Node000009" class="edge">
<title>Node3&#45;&gt;Node9</title>
<g id="a_edge8_Node000003_Node000009"><a xlink:title=" ">
<path fill="none" stroke="#63b8ff" d="M397.99,-111.59C363.78,-101.82 310.51,-86.6 275.91,-76.71"/>
<polygon fill="#63b8ff" stroke="#63b8ff" points="276.98,-73.38 266.4,-74 275.05,-80.11 276.98,-73.38"/>
</a>
</g>
</g>
<!-- Node3&#45;&gt;Node10 -->
<g id="edge9_Node000003_Node000010" class="edge">
<title>Node3&#45;&gt;Node10</title>
<g id="a_edge9_Node000003_Node000010"><a xlink:title=" ">
<path fill="none" stroke="#63b8ff" d="M408.61,-111.59C387.84,-102.83 356.68,-89.68 333.56,-79.93"/>
<polygon fill="#63b8ff" stroke="#63b8ff" points="335.23,-76.84 324.66,-76.17 332.51,-83.29 335.23,-76.84"/>
</a>
</g>
</g>
<!-- Node3&#45;&gt;Node11 -->
<g id="edge10_Node000003_Node000011" class="edge">
<title>Node3&#45;&gt;Node11</title>
<g id="a_edge10_Node000003_Node000011"><a xlink:title=" ">
<path fill="none" stroke="#63b8ff" d="M369.89,-111.53C299.94,-100.68 187.06,-83.16 125.79,-73.65"/>
<polygon fill="#63b8ff" stroke="#63b8ff" points="126.53,-70.23 116.11,-72.15 125.46,-77.14 126.53,-70.23"/>
</a>
</g>
</g>
<!-- Node5 -->
<g id="Node000005" class="node">
<title>Node5</title>
<g id="a_Node000005"><a xlink:title=" ">
<polygon fill="#e0e0e0" stroke="#999999" points="889.16,-20 844.66,-20 844.66,0 889.16,0 889.16,-20"/>
<text text-anchor="middle" x="866.91" y="-6.5" font-family="Helvetica,sans-Serif" font-size="10.00">climits</text>
</a>
</g>
</g>
<!-- Node4&#45;&gt;Node5 -->
<g id="edge4_Node000004_Node000005" class="edge">
<title>Node4&#45;&gt;Node5</title>
<g id="a_edge4_Node000004_Node000005"><a xlink:title=" ">
<path fill="none" stroke="#63b8ff" d="M918.94,-55.59C909.99,-47.93 897.14,-36.91 886.45,-27.75"/>
<polygon fill="#63b8ff" stroke="#63b8ff" points="888.78,-25.13 878.91,-21.28 884.22,-30.45 888.78,-25.13"/>
</a>
</g>
</g>
<!-- Node6 -->
<g id="Node000006" class="node">
<title>Node6</title>
<g id="a_Node000006"><a xlink:title=" ">
<polygon fill="#e0e0e0" stroke="#999999" points="952.53,-20 907.28,-20 907.28,0 952.53,0 952.53,-20"/>
<text text-anchor="middle" x="929.91" y="-6.5" font-family="Helvetica,sans-Serif" font-size="10.00">chrono</text>
</a>
</g>
</g>
<!-- Node4&#45;&gt;Node6 -->
<g id="edge5_Node000004_Node000006" class="edge">
<title>Node4&#45;&gt;Node6</title>
<g id="a_edge5_Node000004_Node000006"><a xlink:title=" ">
<path fill="none" stroke="#63b8ff" d="M929.91,-55.59C929.91,-49.01 929.91,-39.96 929.91,-31.73"/>
<polygon fill="#63b8ff" stroke="#63b8ff" points="933.41,-31.81 929.91,-21.81 926.41,-31.81 933.41,-31.81"/>
</a>
</g>
</g>
<!-- Node7 -->
<g id="Node000007" class="node">
<title>Node7</title>
<g id="a_Node000007"><a xlink:title=" ">
<polygon fill="#e0e0e0" stroke="#999999" points="1013.41,-20 970.41,-20 970.41,0 1013.41,0 1013.41,-20"/>
<text text-anchor="middle" x="991.91" y="-6.5" font-family="Helvetica,sans-Serif" font-size="10.00">thread</text>
</a>
</g>
</g>
<!-- Node4&#45;&gt;Node7 -->
<g id="edge6_Node000004_Node000007" class="edge">
<title>Node4&#45;&gt;Node7</title>
<g id="a_edge6_Node000004_Node000007"><a xlink:title=" ">
<path fill="none" stroke="#63b8ff" d="M940.71,-55.59C949.51,-47.93 962.16,-36.91 972.68,-27.75"/>
<polygon fill="#63b8ff" stroke="#63b8ff" points="974.85,-30.5 980.09,-21.29 970.25,-25.22 974.85,-30.5"/>
</a>
</g>
</g>
<!-- Node12&#45;&gt;Node4 -->
<g id="edge13_Node000012_Node000004" class="edge">
<title>Node12&#45;&gt;Node4</title>
<g id="a_edge13_Node000012_Node000004"><a xlink:title=" ">
<path fill="none" stroke="#63b8ff" d="M618.97,-113.34C622,-112.88 624.99,-112.44 627.91,-112 706.63,-100.23 796.9,-86.79 858.09,-77.68"/>
<polygon fill="#63b8ff" stroke="#63b8ff" points="858.3,-81.19 867.67,-76.26 857.27,-74.27 858.3,-81.19"/>
</a>
</g>
</g>
<!-- Node12&#45;&gt;Node8 -->
<g id="edge12_Node000012_Node000008" class="edge">
<title>Node12&#45;&gt;Node8</title>
<g id="a_edge12_Node000012_Node000008"><a xlink:title=" ">
<path fill="none" stroke="#63b8ff" d="M537.6,-111.59C509.21,-102.78 466.54,-89.54 435.08,-79.78"/>
<polygon fill="#63b8ff" stroke="#63b8ff" points="436.49,-76.55 425.9,-76.93 434.41,-83.23 436.49,-76.55"/>
</a>
</g>
</g>
<!-- Node12&#45;&gt;Node10 -->
<g id="edge16_Node000012_Node000010" class="edge">
<title>Node12&#45;&gt;Node10</title>
<g id="a_edge16_Node000012_Node000010"><a xlink:title=" ">
<path fill="none" stroke="#63b8ff" d="M516.91,-112.98C471.31,-105.43 402.47,-93.1 334.08,-76.32"/>
<polygon fill="#63b8ff" stroke="#63b8ff" points="335.13,-72.97 324.58,-73.95 333.44,-79.76 335.13,-72.97"/>
</a>
</g>
</g>
<!-- Node13 -->
<g id="Node000013" class="node">
<title>Node13</title>
<g id="a_Node000013"><a xlink:title=" ">
<polygon fill="#e0e0e0" stroke="#999999" points="588.78,-76 533.03,-76 533.03,-56 588.78,-56 588.78,-76"/>
<text text-anchor="middle" x="560.91" y="-62.5" font-family="Helvetica,sans-Serif" font-size="10.00">algorithm</text>
</a>
</g>
</g>
<!-- Node12&#45;&gt;Node13 -->
<g id="edge14_Node000012_Node000013" class="edge">
<title>Node12&#45;&gt;Node13</title>
<g id="a_edge14_Node000012_Node000013"><a xlink:title=" ">
<path fill="none" stroke="#63b8ff" d="M566.69,-111.59C565.83,-104.93 564.64,-95.75 563.56,-87.44"/>
<polygon fill="#63b8ff" stroke="#63b8ff" points="567.07,-87.27 562.31,-77.8 560.12,-88.17 567.07,-87.27"/>
</a>
</g>
</g>
<!-- Node14 -->
<g id="Node000014" class="node">
<title>Node14</title>
<g id="a_Node000014"><a xlink:title=" ">
<polygon fill="#e0e0e0" stroke="#999999" points="660.66,-76 607.16,-76 607.16,-56 660.66,-56 660.66,-76"/>
<text text-anchor="middle" x="633.91" y="-62.5" font-family="Helvetica,sans-Serif" font-size="10.00">iostream</text>
</a>
</g>
</g>
<!-- Node12&#45;&gt;Node14 -->
<g id="edge15_Node000012_Node000014" class="edge">
<title>Node12&#45;&gt;Node14</title>
<g id="a_edge15_Node000012_Node000014"><a xlink:title=" ">
<path fill="none" stroke="#63b8ff" d="M579.41,-111.59C588.87,-103.85 602.51,-92.69 613.78,-83.47"/>
<polygon fill="#63b8ff" stroke="#63b8ff" points="615.85,-86.3 621.37,-77.26 611.42,-80.88 615.85,-86.3"/>
</a>
</g>
</g>
<!-- Node15 -->
<g id="Node000015" class="node">
<title>Node15</title>
<g id="a_Node000015"><a xlink:title=" ">
<polygon fill="#e0e0e0" stroke="#999999" points="723.53,-76 678.28,-76 678.28,-56 723.53,-56 723.53,-76"/>
<text text-anchor="middle" x="700.91" y="-62.5" font-family="Helvetica,sans-Serif" font-size="10.00">cstring</text>
</a>
</g>
</g>
<!-- Node12&#45;&gt;Node15 -->
<g id="edge17_Node000012_Node000015" class="edge">
<title>Node12&#45;&gt;Node15</title>
<g id="a_edge17_Node000012_Node000015"><a xlink:title=" ">
<path fill="none" stroke="#63b8ff" d="M591.08,-111.59C612.25,-103 643.79,-90.19 667.65,-80.5"/>
<polygon fill="#63b8ff" stroke="#63b8ff" points="668.66,-83.87 676.61,-76.87 666.02,-77.39 668.66,-83.87"/>
</a>
</g>
</g>
<!-- Node16 -->
<g id="Node000016" class="node">
<title>Node16</title>
<g id="a_Node000016"><a xlink:title=" ">
<polygon fill="#e0e0e0" stroke="#999999" points="781.91,-76 741.91,-76 741.91,-56 781.91,-56 781.91,-76"/>
<text text-anchor="middle" x="761.91" y="-62.5" font-family="Helvetica,sans-Serif" font-size="10.00">ctime</text>
</a>
</g>
</g>
<!-- Node12&#45;&gt;Node16 -->
<g id="edge18_Node000012_Node000016" class="edge">
<title>Node12&#45;&gt;Node16</title>
<g id="a_edge18_Node000012_Node000016"><a xlink:title=" ">
<path fill="none" stroke="#63b8ff" d="M604.06,-111.53C635.27,-103.26 681.81,-90.74 730.83,-76.54"/>
<polygon fill="#63b8ff" stroke="#63b8ff" points="731.58,-79.96 740.2,-73.81 729.62,-73.24 731.58,-79.96"/>
</a>
</g>
</g>
<!-- Node17 -->
<g id="Node000017" class="node">
<title>Node17</title>
<g id="a_Node000017"><a xlink:title=" ">
<polygon fill="#e0e0e0" stroke="#999999" points="851.53,-76 800.28,-76 800.28,-56 851.53,-56 851.53,-76"/>
<text text-anchor="middle" x="825.91" y="-62.5" font-family="Helvetica,sans-Serif" font-size="10.00">sstream</text>
</a>
</g>
</g>
<!-- Node12&#45;&gt;Node17 -->
<g id="edge19_Node000012_Node000017" class="edge">
<title>Node12&#45;&gt;Node17</title>
<g id="a_edge19_Node000012_Node000017"><a xlink:title=" ">
<path fill="none" stroke="#63b8ff" d="M618.56,-111.57C661.38,-103.41 724.62,-90.96 788.81,-76.39"/>
<polygon fill="#63b8ff" stroke="#63b8ff" points="789.51,-79.82 798.48,-74.17 787.95,-72.99 789.51,-79.82"/>
</a>
</g>
</g>
<!-- Node18 -->
<g id="Node000018" class="node">
<title>Node18</title>
<g id="a_Node000018"><a xlink:title=" ">
<polygon fill="#e0e0e0" stroke="#999999" points="514.78,-76 465.03,-76 465.03,-56 514.78,-56 514.78,-76"/>
<text text-anchor="middle" x="489.91" y="-62.5" font-family="Helvetica,sans-Serif" font-size="10.00">iomanip</text>
</a>
</g>
</g>
<!-- Node12&#45;&gt;Node18 -->
<g id="edge20_Node000012_Node000018" class="edge">
<title>Node12&#45;&gt;Node18</title>
<g id="a_edge20_Node000012_Node000018"><a xlink:title=" ">
<path fill="none" stroke="#63b8ff" d="M554.32,-111.59C542.87,-103.67 526.25,-92.16 512.75,-82.82"/>
<polygon fill="#63b8ff" stroke="#63b8ff" points="515.06,-80.16 504.85,-77.34 511.08,-85.91 515.06,-80.16"/>
</a>
</g>
</g>
<!-- Node22&#45;&gt;Node3 -->
<g id="edge29_Node000022_Node000003" class="edge">
<title>Node22&#45;&gt;Node3</title>
<g id="a_edge29_Node000022_Node000003"><a xlink:title=" ">
<path fill="none" stroke="#63b8ff" d="M514.32,-167.59C498.99,-159.4 476.49,-147.37 458.72,-137.87"/>
<polygon fill="#63b8ff" stroke="#63b8ff" points="460.44,-134.82 449.97,-133.19 457.14,-140.99 460.44,-134.82"/>
</a>
</g>
</g>
<!-- Node22&#45;&gt;Node9 -->
<g id="edge31_Node000022_Node000009" class="edge">
<title>Node22&#45;&gt;Node9</title>
<g id="a_edge31_Node000022_Node000009"><a xlink:title=" ">
<path fill="none" stroke="#63b8ff" d="M478.5,-167.55C442.49,-160.2 394.35,-148.47 353.91,-132 321.2,-118.68 286.45,-97.22 264.49,-82.64"/>
<polygon fill="#63b8ff" stroke="#63b8ff" points="266.58,-79.83 256.33,-77.13 262.66,-85.63 266.58,-79.83"/>
</a>
</g>
</g>
<!-- Node22&#45;&gt;Node12 -->
<g id="edge30_Node000022_Node000012" class="edge">
<title>Node22&#45;&gt;Node12</title>
<g id="a_edge30_Node000022_Node000012"><a xlink:title=" ">
<path fill="none" stroke="#63b8ff" d="M538.18,-167.59C542.93,-160.47 549.61,-150.45 555.43,-141.72"/>
<polygon fill="#63b8ff" stroke="#63b8ff" points="558.24,-143.82 560.87,-133.56 552.41,-139.94 558.24,-143.82"/>
</a>
</g>
</g>
<!-- Node23 -->
<g id="Node000023" class="node">
<title>Node23</title>
<g id="a_Node000023"><a xlink:href="../../dc/dd8/_a_e_log_types_8hpp.html" target="_top" xlink:title=" ">
<polygon fill="white" stroke="#666666" points="727.03,-132 636.78,-132 636.78,-112 727.03,-112 727.03,-132"/>
<text text-anchor="middle" x="681.91" y="-118.5" font-family="Helvetica,sans-Serif" font-size="10.00">AELogTypes.hpp</text>
</a>
</g>
</g>
<!-- Node22&#45;&gt;Node23 -->
<g id="edge28_Node000022_Node000023" class="edge">
<title>Node22&#45;&gt;Node23</title>
<g id="a_edge28_Node000022_Node000023"><a xlink:title=" ">
<path fill="none" stroke="#63b8ff" d="M558.04,-167.59C582.09,-158.94 618.01,-146 644.99,-136.29"/>
<polygon fill="#63b8ff" stroke="#63b8ff" points="645.93,-139.67 654.15,-132.99 643.56,-133.09 645.93,-139.67"/>
</a>
</g>
</g>
<!-- Node24&#45;&gt;Node4 -->
<g id="edge33_Node000024_Node000004" class="edge">
<title>Node24&#45;&gt;Node4</title>
<g id="a_edge33_Node000024_Node000004"><a xlink:title=" ">
<path fill="none" stroke="#63b8ff" d="M694.7,-167.57C717.59,-154.14 761.56,-129.23 800.91,-112 829.3,-99.57 862.32,-88.11 887.84,-79.86"/>
<polygon fill="#63b8ff" stroke="#63b8ff" points="888.73,-83.25 897.2,-76.88 886.61,-76.58 888.73,-83.25"/>
</a>
</g>
</g>
<!-- Node25&#45;&gt;Node4 -->
<g id="edge35_Node000025_Node000004" class="edge">
<title>Node25&#45;&gt;Node4</title>
<g id="a_edge35_Node000025_Node000004"><a xlink:title=" ">
<path fill="none" stroke="#63b8ff" d="M812.79,-167.65C807.52,-154.1 800.35,-128.78 811.91,-112 822.88,-96.08 840.3,-85.78 858.41,-79.13"/>
<polygon fill="#63b8ff" stroke="#63b8ff" points="859.27,-82.53 867.68,-76.09 857.09,-75.88 859.27,-82.53"/>
</a>
</g>
</g>
<!-- Node26 -->
<g id="Node000026" class="node">
<title>Node26</title>
<g id="a_Node000026"><a xlink:title=" ">
<polygon fill="#e0e0e0" stroke="#999999" points="860.53,-132 821.28,-132 821.28,-112 860.53,-112 860.53,-132"/>
<text text-anchor="middle" x="840.91" y="-118.5" font-family="Helvetica,sans-Serif" font-size="10.00">limits</text>
</a>
</g>
</g>
<!-- Node25&#45;&gt;Node26 -->
<g id="edge36_Node000025_Node000026" class="edge">
<title>Node25&#45;&gt;Node26</title>
<g id="a_edge36_Node000025_Node000026"><a xlink:title=" ">
<path fill="none" stroke="#63b8ff" d="M821.09,-167.59C824.15,-160.7 828.42,-151.1 832.21,-142.57"/>
<polygon fill="#63b8ff" stroke="#63b8ff" points="835.3,-144.24 836.16,-133.68 828.9,-141.4 835.3,-144.24"/>
</a>
</g>
</g>
<!-- Node27 -->
<g id="Node000027" class="node">
<title>Node27</title>
<g id="a_Node000027"><a xlink:title=" ">
<polygon fill="#e0e0e0" stroke="#999999" points="921.41,-132 878.41,-132 878.41,-112 921.41,-112 921.41,-132"/>
<text text-anchor="middle" x="899.91" y="-118.5" font-family="Helvetica,sans-Serif" font-size="10.00">cmath</text>
</a>
</g>
</g>
<!-- Node25&#45;&gt;Node27 -->
<g id="edge37_Node000025_Node000027" class="edge">
<title>Node25&#45;&gt;Node27</title>
<g id="a_edge37_Node000025_Node000027"><a xlink:title=" ">
<path fill="none" stroke="#63b8ff" d="M831.37,-167.59C843.67,-159.59 861.59,-147.93 876.02,-138.54"/>
<polygon fill="#63b8ff" stroke="#63b8ff" points="877.6,-141.69 884.07,-133.3 873.78,-135.82 877.6,-141.69"/>
</a>
</g>
</g>
<!-- Node28 -->
<g id="Node000028" class="node">
<title>Node28</title>
<g id="a_Node000028"><a xlink:title=" ">
<polygon fill="#e0e0e0" stroke="#999999" points="1000.78,-132 939.03,-132 939.03,-112 1000.78,-112 1000.78,-132"/>
<text text-anchor="middle" x="969.91" y="-118.5" font-family="Helvetica,sans-Serif" font-size="10.00">type_traits</text>
</a>
</g>
</g>
<!-- Node25&#45;&gt;Node28 -->
<g id="edge38_Node000025_Node000028" class="edge">
<title>Node25&#45;&gt;Node28</title>
<g id="a_edge38_Node000025_Node000028"><a xlink:title=" ">
<path fill="none" stroke="#63b8ff" d="M843.56,-167.59C868.09,-158.94 904.74,-146 932.25,-136.29"/>
<polygon fill="#63b8ff" stroke="#63b8ff" points="933.36,-139.61 941.62,-132.98 931.03,-133.01 933.36,-139.61"/>
</a>
</g>
</g>
</g>
</svg>

<g id="navigator" transform="translate(0 0)" fill="#404254">
  <rect fill="#f2f5e9" fill-opacity="0.5" stroke="#606060" stroke-width=".5" x="0" y="0" width="60" height="60"/>
  <use id="zoomplus" xlink:href="#zoomPlus" x="17" y="9" onmousedown="handleZoom(evt,'in')"/>
  <use id="zoomminus" xlink:href="#zoomMin" x="42" y="9" onmousedown="handleZoom(evt,'out')"/>
  <use id="reset" xlink:href="#resetDef" x="30" y="36" onmousedown="handleReset()"/>
   <use id="arrowup" xlink:href="#arrowUp" x="0" y="0" onmousedown="handlePan(0,-1)"/>
  <use id="arrowright" xlink:href="#arrowRight" x="0" y="0" onmousedown="handlePan(1,0)"/>
  <use id="arrowdown" xlink:href="#arrowDown" x="0" y="0" onmousedown="handlePan(0,1)"/>
  <use id="arrowleft" xlink:href="#arrowLeft" x="0" y="0" onmousedown="handlePan(-1,0)"/>
</g>
<svg viewBox="0 0 15 15" width="100%" height="30px" preserveAspectRatio="xMaxYMin meet">
 <g id="arrow_out" transform="scale(0.3 0.3)">
  <a xlink:href="_a_e_log_parser_8hpp__incl_org.svg" target="_base">
   <rect id="button" ry="5" rx="5" y="6" x="6" height="38" width="38"
        fill="#f2f5e9" fill-opacity="0.5" stroke="#606060" stroke-width="1.0"/>
   <path id="arrow"
     d="M 11.500037,31.436501 C 11.940474,20.09759 22.043105,11.32322 32.158766,21.979434 L 37.068811,17.246167 C 37.068811,17.246167 37.088388,32 37.088388,32 L 22.160133,31.978069 C 22.160133,31.978069 26.997745,27.140456 26.997745,27.140456 C 18.528582,18.264221 13.291696,25.230495 11.500037,31.436501 z"
     style="fill:#404040;"/>
  </a>
 </g>
</svg>

<style type='text/css'>
<![CDATA[
[data-mouse-over-selected='false'] { opacity: 0.7; }
[data-mouse-over-selected='true']  { opacity: 1.0; }
]]>
</style>
<script type="application/ecmascript"><![CDATA[
document.addEventListener('DOMContentLoaded', (event) => {
  highlightEdges();
  highlightAdjacentNodes();
});
]]></script>
</svg>
