<?xml version="1.0" encoding="UTF-8" standalone="no"?>
<!DOCTYPE svg PUBLIC "-//W3C//DTD SVG 1.1//EN"
 "http://www.w3.org/Graphics/SVG/1.1/DTD/svg11.dtd">
<!-- Generated by graphviz version 10.0.1 (20240210.2158)
 -->
<!-- Title: AEVector/include/AEVector.hpp Pages: 1 -->
<svg width="419pt" height="196pt"
 viewBox="0.00 0.00 418.75 196.00" xmlns="http://www.w3.org/2000/svg" xmlns:xlink="http://www.w3.org/1999/xlink">

<svg id="main" version="1.1" xmlns="http://www.w3.org/2000/svg" xmlns:xlink="http://www.w3.org/1999/xlink" xml:space="preserve" onload="init(evt)">
<style type="text/css"><![CDATA[
.node, .edge {opacity: 0.7;}
.node.selected, .edge.selected {opacity: 1;}
.edge:hover path { stroke: red; }
.edge:hover polygon { stroke: red; fill: red; }
]]></style>
<script type="application/ecmascript" xlink:href="../../svg.min.js"/>
<svg id="graph" class="graph">
<g id="graph0" class="graph" transform="scale(1 1) rotate(0) translate(4 192)">
<title>AEVector/include/AEVector.hpp</title>
<!-- Node1 -->
<g id="Node000001" class="node">
<title>Node1</title>
<g id="a_Node000001"><a xlink:title=" ">
<polygon fill="#999999" stroke="#666666" points="380.5,-188 225,-188 225,-168 380.5,-168 380.5,-188"/>
<text text-anchor="middle" x="302.75" y="-174.5" font-family="Helvetica,sans-Serif" font-size="10.00">AEVector/include/AEVector.hpp</text>
</a>
</g>
</g>
<!-- Node2 -->
<g id="Node000002" class="node">
<title>Node2</title>
<g id="a_Node000002"><a xlink:href="../../dd/dd8/_a_e_flags_8hpp.html" target="_top" xlink:title="This file contains the flags to manipulate engine&#39;s funcitonality.">
<polygon fill="white" stroke="#666666" points="192.75,-132 86.75,-132 86.75,-112 192.75,-112 192.75,-132"/>
<text text-anchor="middle" x="139.75" y="-118.5" font-family="Helvetica,sans-Serif" font-size="10.00">include/AEFlags.hpp</text>
</a>
</g>
</g>
<!-- Node1&#45;&gt;Node2 -->
<g id="edge1_Node000001_Node000002" class="edge">
<title>Node1&#45;&gt;Node2</title>
<g id="a_edge1_Node000001_Node000002"><a xlink:title=" ">
<path fill="none" stroke="#63b8ff" d="M274.36,-167.59C247.99,-158.86 208.49,-145.77 179.09,-136.03"/>
<polygon fill="#63b8ff" stroke="#63b8ff" points="180.39,-132.78 169.8,-132.96 178.19,-139.42 180.39,-132.78"/>
</a>
</g>
</g>
<!-- Node3 -->
<g id="Node000003" class="node">
<title>Node3</title>
<g id="a_Node000003"><a xlink:href="../../d1/da4/_a_e_math_8hpp.html" target="_top" xlink:title="This file contains the engine&#39;s math and math&#45;related functions.">
<polygon fill="white" stroke="#666666" points="314.62,-132 210.88,-132 210.88,-112 314.62,-112 314.62,-132"/>
<text text-anchor="middle" x="262.75" y="-118.5" font-family="Helvetica,sans-Serif" font-size="10.00">include/AEMath.hpp</text>
</a>
</g>
</g>
<!-- Node1&#45;&gt;Node3 -->
<g id="edge2_Node000001_Node000003" class="edge">
<title>Node1&#45;&gt;Node3</title>
<g id="a_edge2_Node000001_Node000003"><a xlink:title=" ">
<path fill="none" stroke="#63b8ff" d="M295.78,-167.59C290.45,-160.39 282.92,-150.23 276.4,-141.43"/>
<polygon fill="#63b8ff" stroke="#63b8ff" points="279.3,-139.47 270.54,-133.51 273.68,-143.63 279.3,-139.47"/>
</a>
</g>
</g>
<!-- Node11 -->
<g id="Node000011" class="node">
<title>Node11</title>
<g id="a_Node000011"><a xlink:title=" ">
<polygon fill="#e0e0e0" stroke="#999999" points="397.62,-76 335.88,-76 335.88,-56 397.62,-56 397.62,-76"/>
<text text-anchor="middle" x="366.75" y="-62.5" font-family="Helvetica,sans-Serif" font-size="10.00">type_traits</text>
</a>
</g>
</g>
<!-- Node1&#45;&gt;Node11 -->
<g id="edge12_Node000001_Node000011" class="edge">
<title>Node1&#45;&gt;Node11</title>
<g id="a_edge12_Node000001_Node000011"><a xlink:title=" ">
<path fill="none" stroke="#63b8ff" d="M308.21,-167.62C318.69,-149.6 341.84,-109.81 355.68,-86.02"/>
<polygon fill="#63b8ff" stroke="#63b8ff" points="358.54,-88.07 360.55,-77.66 352.49,-84.55 358.54,-88.07"/>
</a>
</g>
</g>
<!-- Node12 -->
<g id="Node000012" class="node">
<title>Node12</title>
<g id="a_Node000012"><a xlink:title=" ">
<polygon fill="#e0e0e0" stroke="#999999" points="410.75,-132 370.75,-132 370.75,-112 410.75,-112 410.75,-132"/>
<text text-anchor="middle" x="390.75" y="-118.5" font-family="Helvetica,sans-Serif" font-size="10.00">string</text>
</a>
</g>
</g>
<!-- Node1&#45;&gt;Node12 -->
<g id="edge11_Node000001_Node000012" class="edge">
<title>Node1&#45;&gt;Node12</title>
<g id="a_edge11_Node000001_Node000012"><a xlink:title=" ">
<path fill="none" stroke="#63b8ff" d="M318.08,-167.59C331.25,-159.51 350.48,-147.71 365.86,-138.27"/>
<polygon fill="#63b8ff" stroke="#63b8ff" points="367.32,-141.48 374.01,-133.27 363.66,-135.52 367.32,-141.48"/>
</a>
</g>
</g>
<!-- Node4 -->
<g id="Node000004" class="node">
<title>Node4</title>
<g id="a_Node000004"><a xlink:href="../../d2/d5a/_a_e_math_const_8hpp.html" target="_top" xlink:title="This file contains the engine&#39;s math constants.">
<polygon fill="white" stroke="#666666" points="95.5,-76 0,-76 0,-56 95.5,-56 95.5,-76"/>
<text text-anchor="middle" x="47.75" y="-62.5" font-family="Helvetica,sans-Serif" font-size="10.00">AEMathConst.hpp</text>
</a>
</g>
</g>
<!-- Node3&#45;&gt;Node4 -->
<g id="edge3_Node000003_Node000004" class="edge">
<title>Node3&#45;&gt;Node4</title>
<g id="a_edge3_Node000003_Node000004"><a xlink:title=" ">
<path fill="none" stroke="#63b8ff" d="M225.3,-111.59C189.6,-102.63 135.65,-89.08 96.59,-79.27"/>
<polygon fill="#63b8ff" stroke="#63b8ff" points="97.51,-75.89 86.96,-76.85 95.81,-82.68 97.51,-75.89"/>
</a>
</g>
</g>
<!-- Node5 -->
<g id="Node000005" class="node">
<title>Node5</title>
<g id="a_Node000005"><a xlink:href="../../dc/d89/_a_e_typedefs_8hpp.html" target="_top" xlink:title="This file contains the engine&#39;s typedefs and variable type aliases.">
<polygon fill="white" stroke="#666666" points="200.38,-76 113.12,-76 113.12,-56 200.38,-56 200.38,-76"/>
<text text-anchor="middle" x="156.75" y="-62.5" font-family="Helvetica,sans-Serif" font-size="10.00">AETypedefs.hpp</text>
</a>
</g>
</g>
<!-- Node3&#45;&gt;Node5 -->
<g id="edge4_Node000003_Node000005" class="edge">
<title>Node3&#45;&gt;Node5</title>
<g id="a_edge4_Node000003_Node000005"><a xlink:title=" ">
<path fill="none" stroke="#63b8ff" d="M244.29,-111.59C228.05,-103.32 204.14,-91.14 185.42,-81.6"/>
<polygon fill="#63b8ff" stroke="#63b8ff" points="187.21,-78.59 176.71,-77.17 184.03,-84.82 187.21,-78.59"/>
</a>
</g>
</g>
<!-- Node9 -->
<g id="Node000009" class="node">
<title>Node9</title>
<g id="a_Node000009"><a xlink:title=" ">
<polygon fill="#e0e0e0" stroke="#999999" points="257.38,-76 218.12,-76 218.12,-56 257.38,-56 257.38,-76"/>
<text text-anchor="middle" x="237.75" y="-62.5" font-family="Helvetica,sans-Serif" font-size="10.00">limits</text>
</a>
</g>
</g>
<!-- Node3&#45;&gt;Node9 -->
<g id="edge8_Node000003_Node000009" class="edge">
<title>Node3&#45;&gt;Node9</title>
<g id="a_edge8_Node000003_Node000009"><a xlink:title=" ">
<path fill="none" stroke="#63b8ff" d="M258.4,-111.59C255.2,-104.7 250.76,-95.1 246.81,-86.57"/>
<polygon fill="#63b8ff" stroke="#63b8ff" points="250.07,-85.28 242.69,-77.67 243.72,-88.22 250.07,-85.28"/>
</a>
</g>
</g>
<!-- Node10 -->
<g id="Node000010" class="node">
<title>Node10</title>
<g id="a_Node000010"><a xlink:title=" ">
<polygon fill="#e0e0e0" stroke="#999999" points="318.25,-76 275.25,-76 275.25,-56 318.25,-56 318.25,-76"/>
<text text-anchor="middle" x="296.75" y="-62.5" font-family="Helvetica,sans-Serif" font-size="10.00">cmath</text>
</a>
</g>
</g>
<!-- Node3&#45;&gt;Node10 -->
<g id="edge9_Node000003_Node000010" class="edge">
<title>Node3&#45;&gt;Node10</title>
<g id="a_edge9_Node000003_Node000010"><a xlink:title=" ">
<path fill="none" stroke="#63b8ff" d="M268.67,-111.59C273.11,-104.55 279.33,-94.67 284.79,-86"/>
<polygon fill="#63b8ff" stroke="#63b8ff" points="287.72,-87.91 290.09,-77.58 281.8,-84.18 287.72,-87.91"/>
</a>
</g>
</g>
<!-- Node3&#45;&gt;Node11 -->
<g id="edge10_Node000003_Node000011" class="edge">
<title>Node3&#45;&gt;Node11</title>
<g id="a_edge10_Node000003_Node000011"><a xlink:title=" ">
<path fill="none" stroke="#63b8ff" d="M280.87,-111.59C296.72,-103.36 320.03,-91.26 338.37,-81.74"/>
<polygon fill="#63b8ff" stroke="#63b8ff" points="339.89,-84.89 347.15,-77.18 336.66,-78.68 339.89,-84.89"/>
</a>
</g>
</g>
<!-- Node6 -->
<g id="Node000006" class="node">
<title>Node6</title>
<g id="a_Node000006"><a xlink:title=" ">
<polygon fill="#e0e0e0" stroke="#999999" points="116,-20 71.5,-20 71.5,0 116,0 116,-20"/>
<text text-anchor="middle" x="93.75" y="-6.5" font-family="Helvetica,sans-Serif" font-size="10.00">climits</text>
</a>
</g>
</g>
<!-- Node5&#45;&gt;Node6 -->
<g id="edge5_Node000005_Node000006" class="edge">
<title>Node5&#45;&gt;Node6</title>
<g id="a_edge5_Node000005_Node000006"><a xlink:title=" ">
<path fill="none" stroke="#63b8ff" d="M145.78,-55.59C136.83,-47.93 123.98,-36.91 113.29,-27.75"/>
<polygon fill="#63b8ff" stroke="#63b8ff" points="115.62,-25.13 105.75,-21.28 111.06,-30.45 115.62,-25.13"/>
</a>
</g>
</g>
<!-- Node7 -->
<g id="Node000007" class="node">
<title>Node7</title>
<g id="a_Node000007"><a xlink:title=" ">
<polygon fill="#e0e0e0" stroke="#999999" points="179.38,-20 134.12,-20 134.12,0 179.38,0 179.38,-20"/>
<text text-anchor="middle" x="156.75" y="-6.5" font-family="Helvetica,sans-Serif" font-size="10.00">chrono</text>
</a>
</g>
</g>
<!-- Node5&#45;&gt;Node7 -->
<g id="edge6_Node000005_Node000007" class="edge">
<title>Node5&#45;&gt;Node7</title>
<g id="a_edge6_Node000005_Node000007"><a xlink:title=" ">
<path fill="none" stroke="#63b8ff" d="M156.75,-55.59C156.75,-49.01 156.75,-39.96 156.75,-31.73"/>
<polygon fill="#63b8ff" stroke="#63b8ff" points="160.25,-31.81 156.75,-21.81 153.25,-31.81 160.25,-31.81"/>
</a>
</g>
</g>
<!-- Node8 -->
<g id="Node000008" class="node">
<title>Node8</title>
<g id="a_Node000008"><a xlink:title=" ">
<polygon fill="#e0e0e0" stroke="#999999" points="240.25,-20 197.25,-20 197.25,0 240.25,0 240.25,-20"/>
<text text-anchor="middle" x="218.75" y="-6.5" font-family="Helvetica,sans-Serif" font-size="10.00">thread</text>
</a>
</g>
</g>
<!-- Node5&#45;&gt;Node8 -->
<g id="edge7_Node000005_Node000008" class="edge">
<title>Node5&#45;&gt;Node8</title>
<g id="a_edge7_Node000005_Node000008"><a xlink:title=" ">
<path fill="none" stroke="#63b8ff" d="M167.55,-55.59C176.35,-47.93 189,-36.91 199.52,-27.75"/>
<polygon fill="#63b8ff" stroke="#63b8ff" points="201.69,-30.5 206.93,-21.29 197.09,-25.22 201.69,-30.5"/>
</a>
</g>
</g>
</g>
</svg>
</svg>

<style type='text/css'>
<![CDATA[
[data-mouse-over-selected='false'] { opacity: 0.7; }
[data-mouse-over-selected='true']  { opacity: 1.0; }
]]>
</style>
<script type="application/ecmascript"><![CDATA[
document.addEventListener('DOMContentLoaded', (event) => {
  highlightEdges();
  highlightAdjacentNodes();
});
]]></script>
</svg>
