<?xml version="1.0" encoding="UTF-8" standalone="no"?>
<!DOCTYPE svg PUBLIC "-//W3C//DTD SVG 1.1//EN"
 "http://www.w3.org/Graphics/SVG/1.1/DTD/svg11.dtd">
<!-- Generated by graphviz version 10.0.1 (20240210.2158)
 -->
<!-- Title: AEFileReader/src/AEFileReader.cpp Pages: 1 -->
<svg width="996pt" height="308pt"
 viewBox="0.00 0.00 995.88 308.00" xmlns="http://www.w3.org/2000/svg" xmlns:xlink="http://www.w3.org/1999/xlink">
<g id="graph0" class="graph" transform="scale(1 1) rotate(0) translate(4 304)">
<title>AEFileReader/src/AEFileReader.cpp</title>
<!-- Node1 -->
<g id="Node000001" class="node">
<title>Node1</title>
<g id="a_Node000001"><a xlink:title=" ">
<polygon fill="#999999" stroke="#666666" points="841.25,-300 667,-300 667,-280 841.25,-280 841.25,-300"/>
<text text-anchor="middle" x="754.12" y="-286.5" font-family="Helvetica,sans-Serif" font-size="10.00">AEFileReader/src/AEFileReader.cpp</text>
</a>
</g>
</g>
<!-- Node2 -->
<g id="Node000002" class="node">
<title>Node2</title>
<g id="a_Node000002"><a xlink:href="../../d3/dda/_a_e_file_reader_8hpp.html" target="_top" xlink:title=" ">
<polygon fill="white" stroke="#666666" points="822.88,-244 685.38,-244 685.38,-224 822.88,-224 822.88,-244"/>
<text text-anchor="middle" x="754.12" y="-230.5" font-family="Helvetica,sans-Serif" font-size="10.00">../include/AEFileReader.hpp</text>
</a>
</g>
</g>
<!-- Node1&#45;&gt;Node2 -->
<g id="edge1_Node000001_Node000002" class="edge">
<title>Node1&#45;&gt;Node2</title>
<g id="a_edge1_Node000001_Node000002"><a xlink:title=" ">
<path fill="none" stroke="#63b8ff" d="M754.12,-279.59C754.12,-273.01 754.12,-263.96 754.12,-255.73"/>
<polygon fill="#63b8ff" stroke="#63b8ff" points="757.63,-255.81 754.13,-245.81 750.63,-255.81 757.63,-255.81"/>
</a>
</g>
</g>
<!-- Node3 -->
<g id="Node000003" class="node">
<title>Node3</title>
<g id="a_Node000003"><a xlink:href="../../d7/d7f/_a_e_module_base_8hpp.html" target="_top" xlink:title=" ">
<polygon fill="white" stroke="#666666" points="774.12,-188 638.12,-188 638.12,-168 774.12,-168 774.12,-188"/>
<text text-anchor="middle" x="706.12" y="-174.5" font-family="Helvetica,sans-Serif" font-size="10.00">include/AEModuleBase.hpp</text>
</a>
</g>
</g>
<!-- Node2&#45;&gt;Node3 -->
<g id="edge2_Node000002_Node000003" class="edge">
<title>Node2&#45;&gt;Node3</title>
<g id="a_edge2_Node000002_Node000003"><a xlink:title=" ">
<path fill="none" stroke="#63b8ff" d="M745.76,-223.59C739.23,-216.24 729.94,-205.8 722.01,-196.87"/>
<polygon fill="#63b8ff" stroke="#63b8ff" points="724.66,-194.58 715.4,-189.43 719.42,-199.23 724.66,-194.58"/>
</a>
</g>
</g>
<!-- Node9 -->
<g id="Node000009" class="node">
<title>Node9</title>
<g id="a_Node000009"><a xlink:title=" ">
<polygon fill="#e0e0e0" stroke="#999999" points="804.75,-132 759.5,-132 759.5,-112 804.75,-112 804.75,-132"/>
<text text-anchor="middle" x="782.12" y="-118.5" font-family="Helvetica,sans-Serif" font-size="10.00">atomic</text>
</a>
</g>
</g>
<!-- Node2&#45;&gt;Node9 -->
<g id="edge27_Node000002_Node000009" class="edge">
<title>Node2&#45;&gt;Node9</title>
<g id="a_edge27_Node000002_Node000009"><a xlink:title=" ">
<path fill="none" stroke="#63b8ff" d="M762.34,-223.8C769.41,-215.23 779.08,-201.73 783.12,-188 787.37,-173.56 786.93,-156.52 785.52,-143.51"/>
<polygon fill="#63b8ff" stroke="#63b8ff" points="789.04,-143.42 784.21,-133.99 782.1,-144.38 789.04,-143.42"/>
</a>
</g>
</g>
<!-- Node10 -->
<g id="Node000010" class="node">
<title>Node10</title>
<g id="a_Node000010"><a xlink:title=" ">
<polygon fill="#e0e0e0" stroke="#999999" points="665.12,-132 625.12,-132 625.12,-112 665.12,-112 665.12,-132"/>
<text text-anchor="middle" x="645.12" y="-118.5" font-family="Helvetica,sans-Serif" font-size="10.00">string</text>
</a>
</g>
</g>
<!-- Node2&#45;&gt;Node10 -->
<g id="edge29_Node000002_Node000010" class="edge">
<title>Node2&#45;&gt;Node10</title>
<g id="a_edge29_Node000002_Node000010"><a xlink:title=" ">
<path fill="none" stroke="#63b8ff" d="M684.91,-223.87C663.49,-217.42 642.12,-206.49 629.12,-188 619.63,-174.5 625.6,-155.97 632.79,-142.15"/>
<polygon fill="#63b8ff" stroke="#63b8ff" points="635.78,-143.97 637.79,-133.57 629.73,-140.45 635.78,-143.97"/>
</a>
</g>
</g>
<!-- Node11 -->
<g id="Node000011" class="node">
<title>Node11</title>
<g id="a_Node000011"><a xlink:title=" ">
<polygon fill="#e0e0e0" stroke="#999999" points="885.75,-132 822.5,-132 822.5,-112 885.75,-112 885.75,-132"/>
<text text-anchor="middle" x="854.12" y="-118.5" font-family="Helvetica,sans-Serif" font-size="10.00">string_view</text>
</a>
</g>
</g>
<!-- Node2&#45;&gt;Node11 -->
<g id="edge30_Node000002_Node000011" class="edge">
<title>Node2&#45;&gt;Node11</title>
<g id="a_edge30_Node000002_Node000011"><a xlink:title=" ">
<path fill="none" stroke="#63b8ff" d="M764.02,-223.57C773.3,-214.62 787.45,-200.68 799.12,-188 813.3,-172.59 828.62,-154.34 839.49,-141.1"/>
<polygon fill="#63b8ff" stroke="#63b8ff" points="841.97,-143.6 845.57,-133.64 836.54,-139.18 841.97,-143.6"/>
</a>
</g>
</g>
<!-- Node12 -->
<g id="Node000012" class="node">
<title>Node12</title>
<g id="a_Node000012"><a xlink:href="../../de/de8/_a_e_utils_8hpp.html" target="_top" xlink:title="This file contains the engine&#39;s usefull utilities for trivial tasks.">
<polygon fill="white" stroke="#666666" points="493.88,-188 392.38,-188 392.38,-168 493.88,-168 493.88,-188"/>
<text text-anchor="middle" x="443.12" y="-174.5" font-family="Helvetica,sans-Serif" font-size="10.00">include/AEUtils.hpp</text>
</a>
</g>
</g>
<!-- Node2&#45;&gt;Node12 -->
<g id="edge11_Node000002_Node000012" class="edge">
<title>Node2&#45;&gt;Node12</title>
<g id="a_edge11_Node000002_Node000012"><a xlink:title=" ">
<path fill="none" stroke="#63b8ff" d="M699.6,-223.53C645.29,-214.1 562.05,-199.65 505.23,-189.78"/>
<polygon fill="#63b8ff" stroke="#63b8ff" points="506.18,-186.4 495.72,-188.13 504.98,-193.29 506.18,-186.4"/>
</a>
</g>
</g>
<!-- Node15 -->
<g id="Node000015" class="node">
<title>Node15</title>
<g id="a_Node000015"><a xlink:title=" ">
<polygon fill="#e0e0e0" stroke="#999999" points="42.25,-76 0,-76 0,-56 42.25,-56 42.25,-76"/>
<text text-anchor="middle" x="21.12" y="-62.5" font-family="Helvetica,sans-Serif" font-size="10.00">cstdio</text>
</a>
</g>
</g>
<!-- Node2&#45;&gt;Node15 -->
<g id="edge32_Node000002_Node000015" class="edge">
<title>Node2&#45;&gt;Node15</title>
<g id="a_edge32_Node000002_Node000015"><a xlink:title=" ">
<path fill="none" stroke="#63b8ff" d="M685.13,-228.18C536.55,-216.91 191.4,-185.62 88.12,-132 66.42,-120.73 47.01,-100.15 34.75,-85.16"/>
<polygon fill="#63b8ff" stroke="#63b8ff" points="37.63,-83.16 28.7,-77.46 32.12,-87.49 37.63,-83.16"/>
</a>
</g>
</g>
<!-- Node23 -->
<g id="Node000023" class="node">
<title>Node23</title>
<g id="a_Node000023"><a xlink:title=" ">
<polygon fill="#e0e0e0" stroke="#999999" points="928.25,-188 868,-188 868,-168 928.25,-168 928.25,-188"/>
<text text-anchor="middle" x="898.12" y="-174.5" font-family="Helvetica,sans-Serif" font-size="10.00">filesystem</text>
</a>
</g>
</g>
<!-- Node2&#45;&gt;Node23 -->
<g id="edge28_Node000002_Node000023" class="edge">
<title>Node2&#45;&gt;Node23</title>
<g id="a_edge28_Node000002_Node000023"><a xlink:title=" ">
<path fill="none" stroke="#63b8ff" d="M779.21,-223.59C802.19,-214.97 836.48,-202.12 862.34,-192.42"/>
<polygon fill="#63b8ff" stroke="#63b8ff" points="863.29,-195.8 871.43,-189.01 860.84,-189.25 863.29,-195.8"/>
</a>
</g>
</g>
<!-- Node24 -->
<g id="Node000024" class="node">
<title>Node24</title>
<g id="a_Node000024"><a xlink:title=" ">
<polygon fill="#e0e0e0" stroke="#999999" points="987.88,-188 946.38,-188 946.38,-168 987.88,-168 987.88,-188"/>
<text text-anchor="middle" x="967.12" y="-174.5" font-family="Helvetica,sans-Serif" font-size="10.00">vector</text>
</a>
</g>
</g>
<!-- Node2&#45;&gt;Node24 -->
<g id="edge31_Node000002_Node000024" class="edge">
<title>Node2&#45;&gt;Node24</title>
<g id="a_edge31_Node000002_Node000024"><a xlink:title=" ">
<path fill="none" stroke="#63b8ff" d="M794.98,-223.58C829.84,-215.4 881.55,-202.94 935.39,-188.37"/>
<polygon fill="#63b8ff" stroke="#63b8ff" points="935.99,-191.83 944.72,-185.83 934.15,-185.08 935.99,-191.83"/>
</a>
</g>
</g>
<!-- Node4 -->
<g id="Node000004" class="node">
<title>Node4</title>
<g id="a_Node000004"><a xlink:href="../../dc/d89/_a_e_typedefs_8hpp.html" target="_top" xlink:title="This file contains the engine&#39;s typedefs and variable type aliases.">
<polygon fill="white" stroke="#666666" points="398.62,-76 277.62,-76 277.62,-56 398.62,-56 398.62,-76"/>
<text text-anchor="middle" x="338.12" y="-62.5" font-family="Helvetica,sans-Serif" font-size="10.00">include/AETypedefs.hpp</text>
</a>
</g>
</g>
<!-- Node3&#45;&gt;Node4 -->
<g id="edge3_Node000003_Node000004" class="edge">
<title>Node3&#45;&gt;Node4</title>
<g id="a_edge3_Node000003_Node000004"><a xlink:title=" ">
<path fill="none" stroke="#63b8ff" d="M704.41,-167.67C701.23,-153.18 692.92,-125.51 674.12,-112 633.13,-82.54 496.2,-72.35 410.32,-68.84"/>
<polygon fill="#63b8ff" stroke="#63b8ff" points="410.71,-65.35 400.58,-68.47 410.44,-72.35 410.71,-65.35"/>
</a>
</g>
</g>
<!-- Node8 -->
<g id="Node000008" class="node">
<title>Node8</title>
<g id="a_Node000008"><a xlink:href="../../dd/dd8/_a_e_flags_8hpp.html" target="_top" xlink:title="This file contains the flags to manipulate engine&#39;s funcitonality.">
<polygon fill="white" stroke="#666666" points="650.12,-76 544.12,-76 544.12,-56 650.12,-56 650.12,-76"/>
<text text-anchor="middle" x="597.12" y="-62.5" font-family="Helvetica,sans-Serif" font-size="10.00">include/AEFlags.hpp</text>
</a>
</g>
</g>
<!-- Node3&#45;&gt;Node8 -->
<g id="edge7_Node000003_Node000008" class="edge">
<title>Node3&#45;&gt;Node8</title>
<g id="a_edge7_Node000003_Node000008"><a xlink:title=" ">
<path fill="none" stroke="#63b8ff" d="M709.33,-167.67C713.35,-154.15 718.45,-128.87 707.12,-112 696.46,-96.11 679.07,-85.82 661.24,-79.17"/>
<polygon fill="#63b8ff" stroke="#63b8ff" points="662.47,-75.89 651.88,-76.05 660.26,-82.53 662.47,-75.89"/>
</a>
</g>
</g>
<!-- Node3&#45;&gt;Node9 -->
<g id="edge8_Node000003_Node000009" class="edge">
<title>Node3&#45;&gt;Node9</title>
<g id="a_edge8_Node000003_Node000009"><a xlink:title=" ">
<path fill="none" stroke="#63b8ff" d="M719.36,-167.59C730.41,-159.74 746.41,-148.38 759.48,-139.09"/>
<polygon fill="#63b8ff" stroke="#63b8ff" points="761.43,-142 767.55,-133.36 757.37,-136.3 761.43,-142"/>
</a>
</g>
</g>
<!-- Node3&#45;&gt;Node10 -->
<g id="edge9_Node000003_Node000010" class="edge">
<title>Node3&#45;&gt;Node10</title>
<g id="a_edge9_Node000003_Node000010"><a xlink:title=" ">
<path fill="none" stroke="#63b8ff" d="M695.5,-167.59C686.84,-159.93 674.39,-148.91 664.04,-139.75"/>
<polygon fill="#63b8ff" stroke="#63b8ff" points="666.57,-137.31 656.76,-133.3 661.93,-142.55 666.57,-137.31"/>
</a>
</g>
</g>
<!-- Node3&#45;&gt;Node11 -->
<g id="edge10_Node000003_Node000011" class="edge">
<title>Node3&#45;&gt;Node11</title>
<g id="a_edge10_Node000003_Node000011"><a xlink:title=" ">
<path fill="none" stroke="#63b8ff" d="M731.9,-167.59C755.53,-158.97 790.77,-146.12 817.34,-136.42"/>
<polygon fill="#63b8ff" stroke="#63b8ff" points="818.53,-139.71 826.72,-133 816.13,-133.14 818.53,-139.71"/>
</a>
</g>
</g>
<!-- Node5 -->
<g id="Node000005" class="node">
<title>Node5</title>
<g id="a_Node000005"><a xlink:title=" ">
<polygon fill="#e0e0e0" stroke="#999999" points="297.38,-20 252.88,-20 252.88,0 297.38,0 297.38,-20"/>
<text text-anchor="middle" x="275.12" y="-6.5" font-family="Helvetica,sans-Serif" font-size="10.00">climits</text>
</a>
</g>
</g>
<!-- Node4&#45;&gt;Node5 -->
<g id="edge4_Node000004_Node000005" class="edge">
<title>Node4&#45;&gt;Node5</title>
<g id="a_edge4_Node000004_Node000005"><a xlink:title=" ">
<path fill="none" stroke="#63b8ff" d="M327.15,-55.59C318.21,-47.93 305.35,-36.91 294.66,-27.75"/>
<polygon fill="#63b8ff" stroke="#63b8ff" points="296.99,-25.13 287.12,-21.28 292.44,-30.45 296.99,-25.13"/>
</a>
</g>
</g>
<!-- Node6 -->
<g id="Node000006" class="node">
<title>Node6</title>
<g id="a_Node000006"><a xlink:title=" ">
<polygon fill="#e0e0e0" stroke="#999999" points="360.75,-20 315.5,-20 315.5,0 360.75,0 360.75,-20"/>
<text text-anchor="middle" x="338.12" y="-6.5" font-family="Helvetica,sans-Serif" font-size="10.00">chrono</text>
</a>
</g>
</g>
<!-- Node4&#45;&gt;Node6 -->
<g id="edge5_Node000004_Node000006" class="edge">
<title>Node4&#45;&gt;Node6</title>
<g id="a_edge5_Node000004_Node000006"><a xlink:title=" ">
<path fill="none" stroke="#63b8ff" d="M338.12,-55.59C338.12,-49.01 338.12,-39.96 338.12,-31.73"/>
<polygon fill="#63b8ff" stroke="#63b8ff" points="341.63,-31.81 338.13,-21.81 334.63,-31.81 341.63,-31.81"/>
</a>
</g>
</g>
<!-- Node7 -->
<g id="Node000007" class="node">
<title>Node7</title>
<g id="a_Node000007"><a xlink:title=" ">
<polygon fill="#e0e0e0" stroke="#999999" points="421.62,-20 378.62,-20 378.62,0 421.62,0 421.62,-20"/>
<text text-anchor="middle" x="400.12" y="-6.5" font-family="Helvetica,sans-Serif" font-size="10.00">thread</text>
</a>
</g>
</g>
<!-- Node4&#45;&gt;Node7 -->
<g id="edge6_Node000004_Node000007" class="edge">
<title>Node4&#45;&gt;Node7</title>
<g id="a_edge6_Node000004_Node000007"><a xlink:title=" ">
<path fill="none" stroke="#63b8ff" d="M348.92,-55.59C357.73,-47.93 370.38,-36.91 380.9,-27.75"/>
<polygon fill="#63b8ff" stroke="#63b8ff" points="383.07,-30.5 388.31,-21.29 378.47,-25.22 383.07,-30.5"/>
</a>
</g>
</g>
<!-- Node12&#45;&gt;Node4 -->
<g id="edge20_Node000012_Node000004" class="edge">
<title>Node12&#45;&gt;Node4</title>
<g id="a_edge20_Node000012_Node000004"><a xlink:title=" ">
<path fill="none" stroke="#63b8ff" d="M392.09,-172.37C365.38,-167.05 334.84,-155.78 318.12,-132 308.39,-118.14 315.84,-99.41 324.28,-85.61"/>
<polygon fill="#63b8ff" stroke="#63b8ff" points="327.1,-87.69 329.8,-77.44 321.3,-83.76 327.1,-87.69"/>
</a>
</g>
</g>
<!-- Node12&#45;&gt;Node8 -->
<g id="edge19_Node000012_Node000008" class="edge">
<title>Node12&#45;&gt;Node8</title>
<g id="a_edge19_Node000012_Node000008"><a xlink:title=" ">
<path fill="none" stroke="#63b8ff" d="M494.17,-171.58C522.44,-166.02 556.19,-154.77 578.12,-132 589.61,-120.08 594.21,-101.62 596.02,-87.41"/>
<polygon fill="#63b8ff" stroke="#63b8ff" points="599.48,-88.07 596.87,-77.8 592.5,-87.45 599.48,-88.07"/>
</a>
</g>
</g>
<!-- Node12&#45;&gt;Node10 -->
<g id="edge22_Node000012_Node000010" class="edge">
<title>Node12&#45;&gt;Node10</title>
<g id="a_edge22_Node000012_Node000010"><a xlink:title=" ">
<path fill="none" stroke="#63b8ff" d="M478.31,-167.59C516.56,-157.37 577.11,-141.18 613.78,-131.38"/>
<polygon fill="#63b8ff" stroke="#63b8ff" points="614.57,-134.79 623.33,-128.83 612.76,-128.03 614.57,-134.79"/>
</a>
</g>
</g>
<!-- Node13 -->
<g id="Node000013" class="node">
<title>Node13</title>
<g id="a_Node000013"><a xlink:href="../../d9/d6a/_a_e_utils_macros_8hpp.html" target="_top" xlink:title="This file contains the engine&#39;s macros for trivial tasks.">
<polygon fill="white" stroke="#666666" points="197.12,-132 97.12,-132 97.12,-112 197.12,-112 197.12,-132"/>
<text text-anchor="middle" x="147.12" y="-118.5" font-family="Helvetica,sans-Serif" font-size="10.00">AEUtilsMacros.hpp</text>
</a>
</g>
</g>
<!-- Node12&#45;&gt;Node13 -->
<g id="edge12_Node000012_Node000013" class="edge">
<title>Node12&#45;&gt;Node13</title>
<g id="a_edge12_Node000012_Node000013"><a xlink:title=" ">
<path fill="none" stroke="#63b8ff" d="M391.9,-167.66C340.93,-158.36 262.67,-144.08 208.42,-134.18"/>
<polygon fill="#63b8ff" stroke="#63b8ff" points="209.18,-130.76 198.72,-132.41 207.92,-137.65 209.18,-130.76"/>
</a>
</g>
</g>
<!-- Node18 -->
<g id="Node000018" class="node">
<title>Node18</title>
<g id="a_Node000018"><a xlink:title=" ">
<polygon fill="#e0e0e0" stroke="#999999" points="271,-132 215.25,-132 215.25,-112 271,-112 271,-132"/>
<text text-anchor="middle" x="243.12" y="-118.5" font-family="Helvetica,sans-Serif" font-size="10.00">algorithm</text>
</a>
</g>
</g>
<!-- Node12&#45;&gt;Node18 -->
<g id="edge21_Node000012_Node000018" class="edge">
<title>Node12&#45;&gt;Node18</title>
<g id="a_edge21_Node000012_Node000018"><a xlink:title=" ">
<path fill="none" stroke="#63b8ff" d="M408.29,-167.59C373.09,-158.09 318.83,-143.44 282.19,-133.55"/>
<polygon fill="#63b8ff" stroke="#63b8ff" points="283.46,-130.26 272.89,-131.04 281.63,-137.02 283.46,-130.26"/>
</a>
</g>
</g>
<!-- Node19 -->
<g id="Node000019" class="node">
<title>Node19</title>
<g id="a_Node000019"><a xlink:title=" ">
<polygon fill="#e0e0e0" stroke="#999999" points="372.75,-132 327.5,-132 327.5,-112 372.75,-112 372.75,-132"/>
<text text-anchor="middle" x="350.12" y="-118.5" font-family="Helvetica,sans-Serif" font-size="10.00">cstring</text>
</a>
</g>
</g>
<!-- Node12&#45;&gt;Node19 -->
<g id="edge23_Node000012_Node000019" class="edge">
<title>Node12&#45;&gt;Node19</title>
<g id="a_edge23_Node000012_Node000019"><a xlink:title=" ">
<path fill="none" stroke="#63b8ff" d="M426.93,-167.59C412.88,-159.44 392.29,-147.48 375.97,-138"/>
<polygon fill="#63b8ff" stroke="#63b8ff" points="378.17,-135.23 367.76,-133.24 374.65,-141.29 378.17,-135.23"/>
</a>
</g>
</g>
<!-- Node20 -->
<g id="Node000020" class="node">
<title>Node20</title>
<g id="a_Node000020"><a xlink:title=" ">
<polygon fill="#e0e0e0" stroke="#999999" points="431.12,-132 391.12,-132 391.12,-112 431.12,-112 431.12,-132"/>
<text text-anchor="middle" x="411.12" y="-118.5" font-family="Helvetica,sans-Serif" font-size="10.00">ctime</text>
</a>
</g>
</g>
<!-- Node12&#45;&gt;Node20 -->
<g id="edge24_Node000012_Node000020" class="edge">
<title>Node12&#45;&gt;Node20</title>
<g id="a_edge24_Node000012_Node000020"><a xlink:title=" ">
<path fill="none" stroke="#63b8ff" d="M437.55,-167.59C433.38,-160.55 427.52,-150.67 422.38,-142"/>
<polygon fill="#63b8ff" stroke="#63b8ff" points="425.52,-140.42 417.41,-133.6 419.49,-143.99 425.52,-140.42"/>
</a>
</g>
</g>
<!-- Node21 -->
<g id="Node000021" class="node">
<title>Node21</title>
<g id="a_Node000021"><a xlink:title=" ">
<polygon fill="#e0e0e0" stroke="#999999" points="500.75,-132 449.5,-132 449.5,-112 500.75,-112 500.75,-132"/>
<text text-anchor="middle" x="475.12" y="-118.5" font-family="Helvetica,sans-Serif" font-size="10.00">sstream</text>
</a>
</g>
</g>
<!-- Node12&#45;&gt;Node21 -->
<g id="edge25_Node000012_Node000021" class="edge">
<title>Node12&#45;&gt;Node21</title>
<g id="a_edge25_Node000012_Node000021"><a xlink:title=" ">
<path fill="none" stroke="#63b8ff" d="M448.7,-167.59C452.87,-160.55 458.73,-150.67 463.87,-142"/>
<polygon fill="#63b8ff" stroke="#63b8ff" points="466.76,-143.99 468.84,-133.6 460.73,-140.42 466.76,-143.99"/>
</a>
</g>
</g>
<!-- Node22 -->
<g id="Node000022" class="node">
<title>Node22</title>
<g id="a_Node000022"><a xlink:title=" ">
<polygon fill="#e0e0e0" stroke="#999999" points="569,-132 519.25,-132 519.25,-112 569,-112 569,-132"/>
<text text-anchor="middle" x="544.12" y="-118.5" font-family="Helvetica,sans-Serif" font-size="10.00">iomanip</text>
</a>
</g>
</g>
<!-- Node12&#45;&gt;Node22 -->
<g id="edge26_Node000012_Node000022" class="edge">
<title>Node12&#45;&gt;Node22</title>
<g id="a_edge26_Node000012_Node000022"><a xlink:title=" ">
<path fill="none" stroke="#63b8ff" d="M460.72,-167.59C476.05,-159.4 498.54,-147.37 516.31,-137.87"/>
<polygon fill="#63b8ff" stroke="#63b8ff" points="517.89,-140.99 525.06,-133.19 514.59,-134.82 517.89,-140.99"/>
</a>
</g>
</g>
<!-- Node13&#45;&gt;Node4 -->
<g id="edge13_Node000013_Node000004" class="edge">
<title>Node13&#45;&gt;Node4</title>
<g id="a_edge13_Node000013_Node000004"><a xlink:title=" ">
<path fill="none" stroke="#63b8ff" d="M180.39,-111.59C211.84,-102.71 259.21,-89.31 293.84,-79.52"/>
<polygon fill="#63b8ff" stroke="#63b8ff" points="294.47,-82.98 303.14,-76.89 292.56,-76.24 294.47,-82.98"/>
</a>
</g>
</g>
<!-- Node13&#45;&gt;Node8 -->
<g id="edge14_Node000013_Node000008" class="edge">
<title>Node13&#45;&gt;Node8</title>
<g id="a_edge14_Node000013_Node000008"><a xlink:title=" ">
<path fill="none" stroke="#63b8ff" d="M197.32,-113.21C200.3,-112.79 203.25,-112.38 206.12,-112 321.03,-96.63 455.36,-81.87 532.9,-73.66"/>
<polygon fill="#63b8ff" stroke="#63b8ff" points="532.84,-77.18 542.42,-72.65 532.11,-70.22 532.84,-77.18"/>
</a>
</g>
</g>
<!-- Node14 -->
<g id="Node000014" class="node">
<title>Node14</title>
<g id="a_Node000014"><a xlink:title=" ">
<polygon fill="#e0e0e0" stroke="#999999" points="113.88,-76 60.38,-76 60.38,-56 113.88,-56 113.88,-76"/>
<text text-anchor="middle" x="87.12" y="-62.5" font-family="Helvetica,sans-Serif" font-size="10.00">iostream</text>
</a>
</g>
</g>
<!-- Node13&#45;&gt;Node14 -->
<g id="edge15_Node000013_Node000014" class="edge">
<title>Node13&#45;&gt;Node14</title>
<g id="a_edge15_Node000013_Node000014"><a xlink:title=" ">
<path fill="none" stroke="#63b8ff" d="M136.67,-111.59C128.16,-103.93 115.91,-92.91 105.73,-83.75"/>
<polygon fill="#63b8ff" stroke="#63b8ff" points="108.36,-81.4 98.58,-77.31 103.67,-86.6 108.36,-81.4"/>
</a>
</g>
</g>
<!-- Node13&#45;&gt;Node15 -->
<g id="edge16_Node000013_Node000015" class="edge">
<title>Node13&#45;&gt;Node15</title>
<g id="a_edge16_Node000013_Node000015"><a xlink:title=" ">
<path fill="none" stroke="#63b8ff" d="M125.18,-111.59C105.18,-103.02 75.41,-90.27 52.83,-80.59"/>
<polygon fill="#63b8ff" stroke="#63b8ff" points="54.36,-77.44 43.79,-76.71 51.61,-83.87 54.36,-77.44"/>
</a>
</g>
</g>
<!-- Node16 -->
<g id="Node000016" class="node">
<title>Node16</title>
<g id="a_Node000016"><a xlink:title=" ">
<polygon fill="#e0e0e0" stroke="#999999" points="194,-76 132.25,-76 132.25,-56 194,-56 194,-76"/>
<text text-anchor="middle" x="163.12" y="-62.5" font-family="Helvetica,sans-Serif" font-size="10.00">type_traits</text>
</a>
</g>
</g>
<!-- Node13&#45;&gt;Node16 -->
<g id="edge17_Node000013_Node000016" class="edge">
<title>Node13&#45;&gt;Node16</title>
<g id="a_edge17_Node000013_Node000016"><a xlink:title=" ">
<path fill="none" stroke="#63b8ff" d="M149.91,-111.59C151.91,-104.86 154.67,-95.53 157.15,-87.15"/>
<polygon fill="#63b8ff" stroke="#63b8ff" points="160.45,-88.33 159.94,-77.75 153.74,-86.34 160.45,-88.33"/>
</a>
</g>
</g>
<!-- Node17 -->
<g id="Node000017" class="node">
<title>Node17</title>
<g id="a_Node000017"><a xlink:title=" ">
<polygon fill="#e0e0e0" stroke="#999999" points="259.88,-76 212.38,-76 212.38,-56 259.88,-56 259.88,-76"/>
<text text-anchor="middle" x="236.12" y="-62.5" font-family="Helvetica,sans-Serif" font-size="10.00">cstddef</text>
</a>
</g>
</g>
<!-- Node13&#45;&gt;Node17 -->
<g id="edge18_Node000013_Node000017" class="edge">
<title>Node13&#45;&gt;Node17</title>
<g id="a_edge18_Node000013_Node000017"><a xlink:title=" ">
<path fill="none" stroke="#63b8ff" d="M162.63,-111.59C175.95,-103.51 195.4,-91.71 210.95,-82.27"/>
<polygon fill="#63b8ff" stroke="#63b8ff" points="212.47,-85.44 219.21,-77.26 208.84,-79.46 212.47,-85.44"/>
</a>
</g>
</g>
</g>
</svg>
