<?xml version="1.0" encoding="UTF-8" standalone="no"?>
<!DOCTYPE svg PUBLIC "-//W3C//DTD SVG 1.1//EN"
 "http://www.w3.org/Graphics/SVG/1.1/DTD/svg11.dtd">
<!-- Generated by graphviz version 10.0.1 (20240210.2158)
 -->
<!-- Title: AEFileReader/src/AEFileReader.cpp Pages: 1 -->
<!--zoomable 308 -->

<svg id="main" version="1.1" xmlns="http://www.w3.org/2000/svg" xmlns:xlink="http://www.w3.org/1999/xlink" xml:space="preserve" onload="init(evt)">
<style type="text/css"><![CDATA[
.node, .edge {opacity: 0.7;}
.node.selected, .edge.selected {opacity: 1;}
.edge:hover path { stroke: red; }
.edge:hover polygon { stroke: red; fill: red; }
]]></style>

<defs>
  <circle id="rim" cx="0" cy="0" r="7"/>
  <circle id="rim2" cx="0" cy="0" r="3.5"/>
  <g id="zoomPlus">
    <use xlink:href="#rim" fill="#404040"><set attributeName="fill" to="#808080" begin="zoomplus.mouseover" end="zoomplus.mouseout"/></use>
    <path d="M-4,0h8M0,-4v8" fill="none" stroke="white" stroke-width="1.5" pointer-events="none"/>
  </g>
  <g id="zoomMin">
    <use xlink:href="#rim" fill="#404040"><set attributeName="fill" to="#808080" begin="zoomminus.mouseover" end="zoomminus.mouseout"/></use>
    <path d="M-4,0h8" fill="none" stroke="white" stroke-width="1.5" pointer-events="none"/>
  </g>
  <g id="arrowUp" transform="translate(30 24)">
    <use xlink:href="#rim"/>
    <path pointer-events="none" fill="none" stroke="white" stroke-width="1.5" d="M0,-3.0v7 M-2.5,-0.5L0,-3.0L2.5,-0.5"/>
  </g>
  <g id="arrowRight" transform="rotate(90) translate(36 -43)">
    <use xlink:href="#rim"/>
    <path pointer-events="none" fill="none" stroke="white" stroke-width="1.5" d="M0,-3.0v7 M-2.5,-0.5L0,-3.0L2.5,-0.5"/>
  </g>
  <g id="arrowDown" transform="rotate(180) translate(-30 -48)">
    <use xlink:href="#rim"/>
    <path pointer-events="none" fill="none" stroke="white" stroke-width="1.5" d="M0,-3.0v7 M-2.5,-0.5L0,-3.0L2.5,-0.5"/>
  </g>
  <g id="arrowLeft" transform="rotate(270) translate(-36 17)">
    <use xlink:href="#rim"/>
    <path pointer-events="none" fill="none" stroke="white" stroke-width="1.5" d="M0,-3.0v7 M-2.5,-0.5L0,-3.0L2.5,-0.5"/>
  </g>
  <g id="resetDef">
    <use xlink:href="#rim2" fill="#404040"><set attributeName="fill" to="#808080" begin="reset.mouseover" end="reset.mouseout"/></use>
  </g>
</defs>
<script type="application/ecmascript">
var viewWidth = 1006;
var viewHeight = 308;
var sectionId = 'dynsection-0';
</script>
<script type="application/ecmascript" xlink:href="../../svg.min.js"/>
<svg id="graph" class="graph">
<g id="viewport">
<title>AEFileReader/src/AEFileReader.cpp</title>
<!-- Node1 -->
<g id="Node000001" class="node">
<title>Node1</title>
<g id="a_Node000001"><a xlink:title=" ">
<polygon fill="#999999" stroke="#666666" points="531.75,-300 357.5,-300 357.5,-280 531.75,-280 531.75,-300"/>
<text text-anchor="middle" x="444.62" y="-286.5" font-family="Helvetica,sans-Serif" font-size="10.00">AEFileReader/src/AEFileReader.cpp</text>
</a>
</g>
</g>
<!-- Node2 -->
<g id="Node000002" class="node">
<title>Node2</title>
<g id="a_Node000002"><a xlink:href="../../d3/dda/_a_e_file_reader_8hpp.html" target="_top" xlink:title=" ">
<polygon fill="white" stroke="#666666" points="513.38,-244 375.88,-244 375.88,-224 513.38,-224 513.38,-244"/>
<text text-anchor="middle" x="444.62" y="-230.5" font-family="Helvetica,sans-Serif" font-size="10.00">../include/AEFileReader.hpp</text>
</a>
</g>
</g>
<!-- Node1&#45;&gt;Node2 -->
<g id="edge1_Node000001_Node000002" class="edge">
<title>Node1&#45;&gt;Node2</title>
<g id="a_edge1_Node000001_Node000002"><a xlink:title=" ">
<path fill="none" stroke="#63b8ff" d="M444.62,-279.59C444.62,-273.01 444.62,-263.96 444.62,-255.73"/>
<polygon fill="#63b8ff" stroke="#63b8ff" points="448.13,-255.81 444.63,-245.81 441.13,-255.81 448.13,-255.81"/>
</a>
</g>
</g>
<!-- Node3 -->
<g id="Node000003" class="node">
<title>Node3</title>
<g id="a_Node000003"><a xlink:href="../../d7/d7f/_a_e_module_base_8hpp.html" target="_top" xlink:title="This file contains the engine&#39;s basic module template.">
<polygon fill="white" stroke="#666666" points="270.62,-188 134.62,-188 134.62,-168 270.62,-168 270.62,-188"/>
<text text-anchor="middle" x="202.62" y="-174.5" font-family="Helvetica,sans-Serif" font-size="10.00">include/AEModuleBase.hpp</text>
</a>
</g>
</g>
<!-- Node2&#45;&gt;Node3 -->
<g id="edge2_Node000002_Node000003" class="edge">
<title>Node2&#45;&gt;Node3</title>
<g id="a_edge2_Node000002_Node000003"><a xlink:title=" ">
<path fill="none" stroke="#63b8ff" d="M402.19,-223.53C361.54,-214.46 300.04,-200.74 256.07,-190.93"/>
<polygon fill="#63b8ff" stroke="#63b8ff" points="257.01,-187.55 246.48,-188.79 255.48,-194.38 257.01,-187.55"/>
</a>
</g>
</g>
<!-- Node11 -->
<g id="Node000011" class="node">
<title>Node11</title>
<g id="a_Node000011"><a xlink:title=" ">
<polygon fill="#e0e0e0" stroke="#999999" points="756.75,-76 714.5,-76 714.5,-56 756.75,-56 756.75,-76"/>
<text text-anchor="middle" x="735.62" y="-62.5" font-family="Helvetica,sans-Serif" font-size="10.00">cstdio</text>
</a>
</g>
</g>
<!-- Node2&#45;&gt;Node11 -->
<g id="edge33_Node000002_Node000011" class="edge">
<title>Node2&#45;&gt;Node11</title>
<g id="a_edge33_Node000002_Node000011"><a xlink:title=" ">
<path fill="none" stroke="#63b8ff" d="M513.67,-225.04C614.18,-211.88 793.05,-181.94 831.62,-132 852.5,-104.98 803.55,-85.23 768.15,-74.98"/>
<polygon fill="#63b8ff" stroke="#63b8ff" points="769.27,-71.65 758.7,-72.38 767.42,-78.4 769.27,-71.65"/>
</a>
</g>
</g>
<!-- Node14 -->
<g id="Node000014" class="node">
<title>Node14</title>
<g id="a_Node000014"><a xlink:title=" ">
<polygon fill="#e0e0e0" stroke="#999999" points="45.25,-132 0,-132 0,-112 45.25,-112 45.25,-132"/>
<text text-anchor="middle" x="22.62" y="-118.5" font-family="Helvetica,sans-Serif" font-size="10.00">atomic</text>
</a>
</g>
</g>
<!-- Node2&#45;&gt;Node14 -->
<g id="edge28_Node000002_Node000014" class="edge">
<title>Node2&#45;&gt;Node14</title>
<g id="a_edge28_Node000002_Node000014"><a xlink:title=" ">
<path fill="none" stroke="#63b8ff" d="M375.53,-228.22C290.65,-221.58 152.05,-208.1 104.62,-188 78.9,-177.1 54.49,-155.83 39.09,-140.59"/>
<polygon fill="#63b8ff" stroke="#63b8ff" points="41.68,-138.23 32.19,-133.52 36.67,-143.12 41.68,-138.23"/>
</a>
</g>
</g>
<!-- Node15 -->
<g id="Node000015" class="node">
<title>Node15</title>
<g id="a_Node000015"><a xlink:title=" ">
<polygon fill="#e0e0e0" stroke="#999999" points="222.62,-132 182.62,-132 182.62,-112 222.62,-112 222.62,-132"/>
<text text-anchor="middle" x="202.62" y="-118.5" font-family="Helvetica,sans-Serif" font-size="10.00">string</text>
</a>
</g>
</g>
<!-- Node2&#45;&gt;Node15 -->
<g id="edge30_Node000002_Node000015" class="edge">
<title>Node2&#45;&gt;Node15</title>
<g id="a_edge30_Node000002_Node000015"><a xlink:title=" ">
<path fill="none" stroke="#63b8ff" d="M423.99,-223.62C381.29,-204.21 283.05,-159.56 233.05,-136.83"/>
<polygon fill="#63b8ff" stroke="#63b8ff" points="234.79,-133.78 224.24,-132.83 231.9,-140.15 234.79,-133.78"/>
</a>
</g>
</g>
<!-- Node16 -->
<g id="Node000016" class="node">
<title>Node16</title>
<g id="a_Node000016"><a xlink:title=" ">
<polygon fill="#e0e0e0" stroke="#999999" points="126.25,-132 63,-132 63,-112 126.25,-112 126.25,-132"/>
<text text-anchor="middle" x="94.62" y="-118.5" font-family="Helvetica,sans-Serif" font-size="10.00">string_view</text>
</a>
</g>
</g>
<!-- Node2&#45;&gt;Node16 -->
<g id="edge31_Node000002_Node000016" class="edge">
<title>Node2&#45;&gt;Node16</title>
<g id="a_edge31_Node000002_Node000016"><a xlink:title=" ">
<path fill="none" stroke="#63b8ff" d="M375.58,-230.78C293.94,-226.89 164.24,-216.33 125.62,-188 111.13,-177.37 103.14,-158.18 98.92,-143.4"/>
<polygon fill="#63b8ff" stroke="#63b8ff" points="102.34,-142.65 96.56,-133.77 95.54,-144.32 102.34,-142.65"/>
</a>
</g>
</g>
<!-- Node17 -->
<g id="Node000017" class="node">
<title>Node17</title>
<g id="a_Node000017"><a xlink:href="../../de/de8/_a_e_utils_8hpp.html" target="_top" xlink:title="This file contains the engine&#39;s usefull utilities for trivial tasks.">
<polygon fill="white" stroke="#666666" points="570.38,-188 468.88,-188 468.88,-168 570.38,-168 570.38,-188"/>
<text text-anchor="middle" x="519.62" y="-174.5" font-family="Helvetica,sans-Serif" font-size="10.00">include/AEUtils.hpp</text>
</a>
</g>
</g>
<!-- Node2&#45;&gt;Node17 -->
<g id="edge18_Node000002_Node000017" class="edge">
<title>Node2&#45;&gt;Node17</title>
<g id="a_edge18_Node000002_Node000017"><a xlink:title=" ">
<path fill="none" stroke="#63b8ff" d="M457.69,-223.59C468.59,-215.74 484.38,-204.38 497.28,-195.09"/>
<polygon fill="#63b8ff" stroke="#63b8ff" points="499.16,-198.05 505.23,-189.36 495.07,-192.37 499.16,-198.05"/>
</a>
</g>
</g>
<!-- Node23 -->
<g id="Node000023" class="node">
<title>Node23</title>
<g id="a_Node000023"><a xlink:title=" ">
<polygon fill="#e0e0e0" stroke="#999999" points="938.75,-188 878.5,-188 878.5,-168 938.75,-168 938.75,-188"/>
<text text-anchor="middle" x="908.62" y="-174.5" font-family="Helvetica,sans-Serif" font-size="10.00">filesystem</text>
</a>
</g>
</g>
<!-- Node2&#45;&gt;Node23 -->
<g id="edge29_Node000002_Node000023" class="edge">
<title>Node2&#45;&gt;Node23</title>
<g id="a_edge29_Node000002_Node000023"><a xlink:title=" ">
<path fill="none" stroke="#63b8ff" d="M513.64,-227.63C597.07,-220.67 741.62,-207.13 864.62,-188 865.46,-187.87 866.31,-187.73 867.16,-187.59"/>
<polygon fill="#63b8ff" stroke="#63b8ff" points="867.68,-191.06 876.91,-185.84 866.45,-184.17 867.68,-191.06"/>
</a>
</g>
</g>
<!-- Node24 -->
<g id="Node000024" class="node">
<title>Node24</title>
<g id="a_Node000024"><a xlink:title=" ">
<polygon fill="#e0e0e0" stroke="#999999" points="998.38,-188 956.88,-188 956.88,-168 998.38,-168 998.38,-188"/>
<text text-anchor="middle" x="977.62" y="-174.5" font-family="Helvetica,sans-Serif" font-size="10.00">vector</text>
</a>
</g>
</g>
<!-- Node2&#45;&gt;Node24 -->
<g id="edge32_Node000002_Node000024" class="edge">
<title>Node2&#45;&gt;Node24</title>
<g id="a_edge32_Node000002_Node000024"><a xlink:title=" ">
<path fill="none" stroke="#63b8ff" d="M513.58,-231.24C608.87,-227.83 786.19,-217.98 945.5,-188.03"/>
<polygon fill="#63b8ff" stroke="#63b8ff" points="945.8,-191.53 954.97,-186.21 944.49,-184.66 945.8,-191.53"/>
</a>
</g>
</g>
<!-- Node4 -->
<g id="Node000004" class="node">
<title>Node4</title>
<g id="a_Node000004"><a xlink:href="../../dc/d89/_a_e_typedefs_8hpp.html" target="_top" xlink:title="This file contains the engine&#39;s typedefs and variable type aliases.">
<polygon fill="white" stroke="#666666" points="581.12,-76 460.12,-76 460.12,-56 581.12,-56 581.12,-76"/>
<text text-anchor="middle" x="520.62" y="-62.5" font-family="Helvetica,sans-Serif" font-size="10.00">include/AETypedefs.hpp</text>
</a>
</g>
</g>
<!-- Node3&#45;&gt;Node4 -->
<g id="edge3_Node000003_Node000004" class="edge">
<title>Node3&#45;&gt;Node4</title>
<g id="a_edge3_Node000003_Node000004"><a xlink:title=" ">
<path fill="none" stroke="#63b8ff" d="M270.69,-169.75C314.94,-163.43 373.2,-152.01 421.62,-132 437.49,-125.44 474.78,-99.78 498.8,-82.73"/>
<polygon fill="#63b8ff" stroke="#63b8ff" points="500.54,-85.79 506.65,-77.13 496.47,-80.09 500.54,-85.79"/>
</a>
</g>
</g>
<!-- Node8 -->
<g id="Node000008" class="node">
<title>Node8</title>
<g id="a_Node000008"><a xlink:href="../../dd/dd8/_a_e_flags_8hpp.html" target="_top" xlink:title="This file contains the flags to manipulate engine&#39;s funcitonality.">
<polygon fill="white" stroke="#666666" points="224.62,-76 118.62,-76 118.62,-56 224.62,-56 224.62,-76"/>
<text text-anchor="middle" x="171.62" y="-62.5" font-family="Helvetica,sans-Serif" font-size="10.00">include/AEFlags.hpp</text>
</a>
</g>
</g>
<!-- Node3&#45;&gt;Node8 -->
<g id="edge7_Node000003_Node000008" class="edge">
<title>Node3&#45;&gt;Node8</title>
<g id="a_edge7_Node000003_Node000008"><a xlink:title=" ">
<path fill="none" stroke="#63b8ff" d="M194.51,-167.77C187.51,-159.18 177.88,-145.67 173.62,-132 169.15,-117.61 168.8,-100.55 169.48,-87.52"/>
<polygon fill="#63b8ff" stroke="#63b8ff" points="172.97,-87.84 170.28,-77.59 165.99,-87.28 172.97,-87.84"/>
</a>
</g>
</g>
<!-- Node9 -->
<g id="Node000009" class="node">
<title>Node9</title>
<g id="a_Node000009"><a xlink:href="../../d9/d6a/_a_e_utils_macros_8hpp.html" target="_top" xlink:title="This file contains the engine&#39;s macros for trivial tasks.">
<polygon fill="white" stroke="#666666" points="412.5,-132 278.75,-132 278.75,-112 412.5,-112 412.5,-132"/>
<text text-anchor="middle" x="345.62" y="-118.5" font-family="Helvetica,sans-Serif" font-size="10.00">include/AEUtilsMacros.hpp</text>
</a>
</g>
</g>
<!-- Node3&#45;&gt;Node9 -->
<g id="edge8_Node000003_Node000009" class="edge">
<title>Node3&#45;&gt;Node9</title>
<g id="a_edge8_Node000003_Node000009"><a xlink:title=" ">
<path fill="none" stroke="#63b8ff" d="M227.53,-167.59C250.36,-158.97 284.41,-146.12 310.09,-136.42"/>
<polygon fill="#63b8ff" stroke="#63b8ff" points="310.99,-139.82 319.11,-133.01 308.51,-133.27 310.99,-139.82"/>
</a>
</g>
</g>
<!-- Node3&#45;&gt;Node14 -->
<g id="edge15_Node000003_Node000014" class="edge">
<title>Node3&#45;&gt;Node14</title>
<g id="a_edge15_Node000003_Node000014"><a xlink:title=" ">
<path fill="none" stroke="#63b8ff" d="M171.27,-167.59C139.2,-157.97 89.52,-143.07 56.54,-133.17"/>
<polygon fill="#63b8ff" stroke="#63b8ff" points="57.66,-129.86 47.08,-130.34 55.65,-136.56 57.66,-129.86"/>
</a>
</g>
</g>
<!-- Node3&#45;&gt;Node15 -->
<g id="edge16_Node000003_Node000015" class="edge">
<title>Node3&#45;&gt;Node15</title>
<g id="a_edge16_Node000003_Node000015"><a xlink:title=" ">
<path fill="none" stroke="#63b8ff" d="M202.62,-167.59C202.62,-161.01 202.62,-151.96 202.62,-143.73"/>
<polygon fill="#63b8ff" stroke="#63b8ff" points="206.13,-143.81 202.63,-133.81 199.13,-143.81 206.13,-143.81"/>
</a>
</g>
</g>
<!-- Node3&#45;&gt;Node16 -->
<g id="edge17_Node000003_Node000016" class="edge">
<title>Node3&#45;&gt;Node16</title>
<g id="a_edge17_Node000003_Node000016"><a xlink:title=" ">
<path fill="none" stroke="#63b8ff" d="M183.81,-167.59C167.27,-159.32 142.91,-147.14 123.83,-137.6"/>
<polygon fill="#63b8ff" stroke="#63b8ff" points="125.45,-134.5 114.94,-133.16 122.32,-140.76 125.45,-134.5"/>
</a>
</g>
</g>
<!-- Node5 -->
<g id="Node000005" class="node">
<title>Node5</title>
<g id="a_Node000005"><a xlink:title=" ">
<polygon fill="#e0e0e0" stroke="#999999" points="479.88,-20 435.38,-20 435.38,0 479.88,0 479.88,-20"/>
<text text-anchor="middle" x="457.62" y="-6.5" font-family="Helvetica,sans-Serif" font-size="10.00">climits</text>
</a>
</g>
</g>
<!-- Node4&#45;&gt;Node5 -->
<g id="edge4_Node000004_Node000005" class="edge">
<title>Node4&#45;&gt;Node5</title>
<g id="a_edge4_Node000004_Node000005"><a xlink:title=" ">
<path fill="none" stroke="#63b8ff" d="M509.65,-55.59C500.71,-47.93 487.85,-36.91 477.16,-27.75"/>
<polygon fill="#63b8ff" stroke="#63b8ff" points="479.49,-25.13 469.62,-21.28 474.94,-30.45 479.49,-25.13"/>
</a>
</g>
</g>
<!-- Node6 -->
<g id="Node000006" class="node">
<title>Node6</title>
<g id="a_Node000006"><a xlink:title=" ">
<polygon fill="#e0e0e0" stroke="#999999" points="543.25,-20 498,-20 498,0 543.25,0 543.25,-20"/>
<text text-anchor="middle" x="520.62" y="-6.5" font-family="Helvetica,sans-Serif" font-size="10.00">chrono</text>
</a>
</g>
</g>
<!-- Node4&#45;&gt;Node6 -->
<g id="edge5_Node000004_Node000006" class="edge">
<title>Node4&#45;&gt;Node6</title>
<g id="a_edge5_Node000004_Node000006"><a xlink:title=" ">
<path fill="none" stroke="#63b8ff" d="M520.62,-55.59C520.62,-49.01 520.62,-39.96 520.62,-31.73"/>
<polygon fill="#63b8ff" stroke="#63b8ff" points="524.13,-31.81 520.63,-21.81 517.13,-31.81 524.13,-31.81"/>
</a>
</g>
</g>
<!-- Node7 -->
<g id="Node000007" class="node">
<title>Node7</title>
<g id="a_Node000007"><a xlink:title=" ">
<polygon fill="#e0e0e0" stroke="#999999" points="604.12,-20 561.12,-20 561.12,0 604.12,0 604.12,-20"/>
<text text-anchor="middle" x="582.62" y="-6.5" font-family="Helvetica,sans-Serif" font-size="10.00">thread</text>
</a>
</g>
</g>
<!-- Node4&#45;&gt;Node7 -->
<g id="edge6_Node000004_Node000007" class="edge">
<title>Node4&#45;&gt;Node7</title>
<g id="a_edge6_Node000004_Node000007"><a xlink:title=" ">
<path fill="none" stroke="#63b8ff" d="M531.42,-55.59C540.23,-47.93 552.88,-36.91 563.4,-27.75"/>
<polygon fill="#63b8ff" stroke="#63b8ff" points="565.57,-30.5 570.81,-21.29 560.97,-25.22 565.57,-30.5"/>
</a>
</g>
</g>
<!-- Node9&#45;&gt;Node4 -->
<g id="edge9_Node000009_Node000004" class="edge">
<title>Node9&#45;&gt;Node4</title>
<g id="a_edge9_Node000009_Node000004"><a xlink:title=" ">
<path fill="none" stroke="#63b8ff" d="M376.11,-111.59C404.66,-102.78 447.57,-89.54 479.22,-79.78"/>
<polygon fill="#63b8ff" stroke="#63b8ff" points="479.93,-83.22 488.46,-76.93 477.87,-76.53 479.93,-83.22"/>
</a>
</g>
</g>
<!-- Node9&#45;&gt;Node8 -->
<g id="edge10_Node000009_Node000008" class="edge">
<title>Node9&#45;&gt;Node8</title>
<g id="a_edge10_Node000009_Node000008"><a xlink:title=" ">
<path fill="none" stroke="#63b8ff" d="M315.32,-111.59C286.92,-102.78 244.26,-89.54 212.79,-79.78"/>
<polygon fill="#63b8ff" stroke="#63b8ff" points="214.2,-76.55 203.62,-76.93 212.13,-83.23 214.2,-76.55"/>
</a>
</g>
</g>
<!-- Node10 -->
<g id="Node000010" class="node">
<title>Node10</title>
<g id="a_Node000010"><a xlink:title=" ">
<polygon fill="#e0e0e0" stroke="#999999" points="296.38,-76 242.88,-76 242.88,-56 296.38,-56 296.38,-76"/>
<text text-anchor="middle" x="269.62" y="-62.5" font-family="Helvetica,sans-Serif" font-size="10.00">iostream</text>
</a>
</g>
</g>
<!-- Node9&#45;&gt;Node10 -->
<g id="edge11_Node000009_Node000010" class="edge">
<title>Node9&#45;&gt;Node10</title>
<g id="a_edge11_Node000009_Node000010"><a xlink:title=" ">
<path fill="none" stroke="#63b8ff" d="M332.39,-111.59C321.34,-103.74 305.34,-92.38 292.27,-83.09"/>
<polygon fill="#63b8ff" stroke="#63b8ff" points="294.38,-80.3 284.2,-77.36 290.32,-86 294.38,-80.3"/>
</a>
</g>
</g>
<!-- Node9&#45;&gt;Node11 -->
<g id="edge12_Node000009_Node000011" class="edge">
<title>Node9&#45;&gt;Node11</title>
<g id="a_edge12_Node000009_Node000011"><a xlink:title=" ">
<path fill="none" stroke="#63b8ff" d="M412.67,-111.72C497.17,-100.02 639.06,-80.37 702.84,-71.54"/>
<polygon fill="#63b8ff" stroke="#63b8ff" points="703.23,-75.02 712.66,-70.18 702.27,-68.08 703.23,-75.02"/>
</a>
</g>
</g>
<!-- Node12 -->
<g id="Node000012" class="node">
<title>Node12</title>
<g id="a_Node000012"><a xlink:title=" ">
<polygon fill="#e0e0e0" stroke="#999999" points="376.5,-76 314.75,-76 314.75,-56 376.5,-56 376.5,-76"/>
<text text-anchor="middle" x="345.62" y="-62.5" font-family="Helvetica,sans-Serif" font-size="10.00">type_traits</text>
</a>
</g>
</g>
<!-- Node9&#45;&gt;Node12 -->
<g id="edge13_Node000009_Node000012" class="edge">
<title>Node9&#45;&gt;Node12</title>
<g id="a_edge13_Node000009_Node000012"><a xlink:title=" ">
<path fill="none" stroke="#63b8ff" d="M345.62,-111.59C345.62,-105.01 345.62,-95.96 345.62,-87.73"/>
<polygon fill="#63b8ff" stroke="#63b8ff" points="349.13,-87.81 345.63,-77.81 342.13,-87.81 349.13,-87.81"/>
</a>
</g>
</g>
<!-- Node13 -->
<g id="Node000013" class="node">
<title>Node13</title>
<g id="a_Node000013"><a xlink:title=" ">
<polygon fill="#e0e0e0" stroke="#999999" points="442.38,-76 394.88,-76 394.88,-56 442.38,-56 442.38,-76"/>
<text text-anchor="middle" x="418.62" y="-62.5" font-family="Helvetica,sans-Serif" font-size="10.00">cstddef</text>
</a>
</g>
</g>
<!-- Node9&#45;&gt;Node13 -->
<g id="edge14_Node000009_Node000013" class="edge">
<title>Node9&#45;&gt;Node13</title>
<g id="a_edge14_Node000009_Node000013"><a xlink:title=" ">
<path fill="none" stroke="#63b8ff" d="M358.34,-111.59C369.02,-103.7 384.5,-92.24 397.11,-82.92"/>
<polygon fill="#63b8ff" stroke="#63b8ff" points="398.88,-85.96 404.84,-77.2 394.72,-80.33 398.88,-85.96"/>
</a>
</g>
</g>
<!-- Node17&#45;&gt;Node4 -->
<g id="edge21_Node000017_Node000004" class="edge">
<title>Node17&#45;&gt;Node4</title>
<g id="a_edge21_Node000017_Node000004"><a xlink:title=" ">
<path fill="none" stroke="#63b8ff" d="M521.76,-167.76C523.73,-158.7 526.52,-144.49 527.62,-132 528.94,-117.08 527.04,-100.26 524.89,-87.47"/>
<polygon fill="#63b8ff" stroke="#63b8ff" points="528.34,-86.91 523.04,-77.73 521.46,-88.21 528.34,-86.91"/>
</a>
</g>
</g>
<!-- Node17&#45;&gt;Node8 -->
<g id="edge20_Node000017_Node000008" class="edge">
<title>Node17&#45;&gt;Node8</title>
<g id="a_edge20_Node000017_Node000008"><a xlink:title=" ">
<path fill="none" stroke="#63b8ff" d="M468.63,-173.9C416.9,-169.37 335.31,-158.38 269.62,-132 253.88,-125.68 217.25,-100.15 193.51,-83.03"/>
<polygon fill="#63b8ff" stroke="#63b8ff" points="195.59,-80.22 185.44,-77.18 191.48,-85.89 195.59,-80.22"/>
</a>
</g>
</g>
<!-- Node17&#45;&gt;Node9 -->
<g id="edge19_Node000017_Node000009" class="edge">
<title>Node17&#45;&gt;Node9</title>
<g id="a_edge19_Node000017_Node000009"><a xlink:title=" ">
<path fill="none" stroke="#63b8ff" d="M489.32,-167.59C460.92,-158.78 418.26,-145.54 386.79,-135.78"/>
<polygon fill="#63b8ff" stroke="#63b8ff" points="388.2,-132.55 377.62,-132.93 386.13,-139.23 388.2,-132.55"/>
</a>
</g>
</g>
<!-- Node17&#45;&gt;Node15 -->
<g id="edge23_Node000017_Node000015" class="edge">
<title>Node17&#45;&gt;Node15</title>
<g id="a_edge23_Node000017_Node000015"><a xlink:title=" ">
<path fill="none" stroke="#63b8ff" d="M468.47,-170.45C411.57,-162.8 317.06,-149 236.62,-132 235.8,-131.82 234.96,-131.64 234.11,-131.45"/>
<polygon fill="#63b8ff" stroke="#63b8ff" points="235.06,-128.08 224.51,-129.12 233.4,-134.88 235.06,-128.08"/>
</a>
</g>
</g>
<!-- Node18 -->
<g id="Node000018" class="node">
<title>Node18</title>
<g id="a_Node000018"><a xlink:title=" ">
<polygon fill="#e0e0e0" stroke="#999999" points="630.5,-132 574.75,-132 574.75,-112 630.5,-112 630.5,-132"/>
<text text-anchor="middle" x="602.62" y="-118.5" font-family="Helvetica,sans-Serif" font-size="10.00">algorithm</text>
</a>
</g>
</g>
<!-- Node17&#45;&gt;Node18 -->
<g id="edge22_Node000017_Node000018" class="edge">
<title>Node17&#45;&gt;Node18</title>
<g id="a_edge22_Node000017_Node000018"><a xlink:title=" ">
<path fill="none" stroke="#63b8ff" d="M534.08,-167.59C546.38,-159.59 564.3,-147.93 578.73,-138.54"/>
<polygon fill="#63b8ff" stroke="#63b8ff" points="580.31,-141.69 586.79,-133.3 576.5,-135.82 580.31,-141.69"/>
</a>
</g>
</g>
<!-- Node19 -->
<g id="Node000019" class="node">
<title>Node19</title>
<g id="a_Node000019"><a xlink:title=" ">
<polygon fill="#e0e0e0" stroke="#999999" points="694.25,-132 649,-132 649,-112 694.25,-112 694.25,-132"/>
<text text-anchor="middle" x="671.62" y="-118.5" font-family="Helvetica,sans-Serif" font-size="10.00">cstring</text>
</a>
</g>
</g>
<!-- Node17&#45;&gt;Node19 -->
<g id="edge24_Node000017_Node000019" class="edge">
<title>Node17&#45;&gt;Node19</title>
<g id="a_edge24_Node000017_Node000019"><a xlink:title=" ">
<path fill="none" stroke="#63b8ff" d="M546.1,-167.59C571.67,-158.51 610.48,-144.72 638.17,-134.88"/>
<polygon fill="#63b8ff" stroke="#63b8ff" points="639.24,-138.22 647.49,-131.57 636.9,-131.62 639.24,-138.22"/>
</a>
</g>
</g>
<!-- Node20 -->
<g id="Node000020" class="node">
<title>Node20</title>
<g id="a_Node000020"><a xlink:title=" ">
<polygon fill="#e0e0e0" stroke="#999999" points="752.62,-132 712.62,-132 712.62,-112 752.62,-112 752.62,-132"/>
<text text-anchor="middle" x="732.62" y="-118.5" font-family="Helvetica,sans-Serif" font-size="10.00">ctime</text>
</a>
</g>
</g>
<!-- Node17&#45;&gt;Node20 -->
<g id="edge25_Node000017_Node000020" class="edge">
<title>Node17&#45;&gt;Node20</title>
<g id="a_edge25_Node000017_Node000020"><a xlink:title=" ">
<path fill="none" stroke="#63b8ff" d="M561.47,-167.53C596.47,-159.45 647.96,-147.15 701.34,-132.51"/>
<polygon fill="#63b8ff" stroke="#63b8ff" points="702.23,-135.9 710.93,-129.86 700.36,-129.15 702.23,-135.9"/>
</a>
</g>
</g>
<!-- Node21 -->
<g id="Node000021" class="node">
<title>Node21</title>
<g id="a_Node000021"><a xlink:title=" ">
<polygon fill="#e0e0e0" stroke="#999999" points="822.25,-132 771,-132 771,-112 822.25,-112 822.25,-132"/>
<text text-anchor="middle" x="796.62" y="-118.5" font-family="Helvetica,sans-Serif" font-size="10.00">sstream</text>
</a>
</g>
</g>
<!-- Node17&#45;&gt;Node21 -->
<g id="edge26_Node000017_Node000021" class="edge">
<title>Node17&#45;&gt;Node21</title>
<g id="a_edge26_Node000017_Node000021"><a xlink:title=" ">
<path fill="none" stroke="#63b8ff" d="M570.82,-168.52C617.54,-160.55 688.74,-147.82 759.75,-132.29"/>
<polygon fill="#63b8ff" stroke="#63b8ff" points="760.19,-135.78 769.2,-130.21 758.68,-128.94 760.19,-135.78"/>
</a>
</g>
</g>
<!-- Node22 -->
<g id="Node000022" class="node">
<title>Node22</title>
<g id="a_Node000022"><a xlink:title=" ">
<polygon fill="#e0e0e0" stroke="#999999" points="518.5,-132 468.75,-132 468.75,-112 518.5,-112 518.5,-132"/>
<text text-anchor="middle" x="493.62" y="-118.5" font-family="Helvetica,sans-Serif" font-size="10.00">iomanip</text>
</a>
</g>
</g>
<!-- Node17&#45;&gt;Node22 -->
<g id="edge27_Node000017_Node000022" class="edge">
<title>Node17&#45;&gt;Node22</title>
<g id="a_edge27_Node000017_Node000022"><a xlink:title=" ">
<path fill="none" stroke="#63b8ff" d="M515.1,-167.59C511.78,-160.7 507.16,-151.1 503.05,-142.57"/>
<polygon fill="#63b8ff" stroke="#63b8ff" points="506.25,-141.15 498.76,-133.66 499.94,-144.19 506.25,-141.15"/>
</a>
</g>
</g>
</g>
</svg>

<g id="navigator" transform="translate(0 0)" fill="#404254">
  <rect fill="#f2f5e9" fill-opacity="0.5" stroke="#606060" stroke-width=".5" x="0" y="0" width="60" height="60"/>
  <use id="zoomplus" xlink:href="#zoomPlus" x="17" y="9" onmousedown="handleZoom(evt,'in')"/>
  <use id="zoomminus" xlink:href="#zoomMin" x="42" y="9" onmousedown="handleZoom(evt,'out')"/>
  <use id="reset" xlink:href="#resetDef" x="30" y="36" onmousedown="handleReset()"/>
   <use id="arrowup" xlink:href="#arrowUp" x="0" y="0" onmousedown="handlePan(0,-1)"/>
  <use id="arrowright" xlink:href="#arrowRight" x="0" y="0" onmousedown="handlePan(1,0)"/>
  <use id="arrowdown" xlink:href="#arrowDown" x="0" y="0" onmousedown="handlePan(0,1)"/>
  <use id="arrowleft" xlink:href="#arrowLeft" x="0" y="0" onmousedown="handlePan(-1,0)"/>
</g>
<svg viewBox="0 0 15 15" width="100%" height="30px" preserveAspectRatio="xMaxYMin meet">
 <g id="arrow_out" transform="scale(0.3 0.3)">
  <a xlink:href="_a_e_file_reader_8cpp__incl_org.svg" target="_base">
   <rect id="button" ry="5" rx="5" y="6" x="6" height="38" width="38"
        fill="#f2f5e9" fill-opacity="0.5" stroke="#606060" stroke-width="1.0"/>
   <path id="arrow"
     d="M 11.500037,31.436501 C 11.940474,20.09759 22.043105,11.32322 32.158766,21.979434 L 37.068811,17.246167 C 37.068811,17.246167 37.088388,32 37.088388,32 L 22.160133,31.978069 C 22.160133,31.978069 26.997745,27.140456 26.997745,27.140456 C 18.528582,18.264221 13.291696,25.230495 11.500037,31.436501 z"
     style="fill:#404040;"/>
  </a>
 </g>
</svg>

<style type='text/css'>
<![CDATA[
[data-mouse-over-selected='false'] { opacity: 0.7; }
[data-mouse-over-selected='true']  { opacity: 1.0; }
]]>
</style>
<script type="application/ecmascript"><![CDATA[
document.addEventListener('DOMContentLoaded', (event) => {
  highlightEdges();
  highlightAdjacentNodes();
});
]]></script>
</svg>
