<?xml version="1.0" encoding="UTF-8" standalone="no"?>
<!DOCTYPE svg PUBLIC "-//W3C//DTD SVG 1.1//EN"
 "http://www.w3.org/Graphics/SVG/1.1/DTD/svg11.dtd">
<!-- Generated by graphviz version 10.0.1 (20240210.2158)
 -->
<!-- Title: AEFileReader/include/AEFileReader.hpp Pages: 1 -->
<svg width="862pt" height="196pt"
 viewBox="0.00 0.00 862.38 196.00" xmlns="http://www.w3.org/2000/svg" xmlns:xlink="http://www.w3.org/1999/xlink">
<g id="graph0" class="graph" transform="scale(1 1) rotate(0) translate(4 192)">
<title>AEFileReader/include/AEFileReader.hpp</title>
<!-- Node1 -->
<g id="Node000001" class="node">
<title>Node1</title>
<g id="a_Node000001"><a xlink:title=" ">
<polygon fill="#999999" stroke="#666666" points="424.38,-188 232.88,-188 232.88,-168 424.38,-168 424.38,-188"/>
<text text-anchor="middle" x="328.62" y="-174.5" font-family="Helvetica,sans-Serif" font-size="10.00">AEFileReader/include/AEFileReader.hpp</text>
</a>
</g>
</g>
<!-- Node2 -->
<g id="Node000002" class="node">
<title>Node2</title>
<g id="a_Node000002"><a xlink:href="../../d7/d7f/_a_e_module_base_8hpp.html" target="_top" xlink:title=" ">
<polygon fill="white" stroke="#666666" points="328.62,-132 192.62,-132 192.62,-112 328.62,-112 328.62,-132"/>
<text text-anchor="middle" x="260.62" y="-118.5" font-family="Helvetica,sans-Serif" font-size="10.00">include/AEModuleBase.hpp</text>
</a>
</g>
</g>
<!-- Node1&#45;&gt;Node2 -->
<g id="edge1_Node000001_Node000002" class="edge">
<title>Node1&#45;&gt;Node2</title>
<g id="a_edge1_Node000001_Node000002"><a xlink:title=" ">
<path fill="none" stroke="#63b8ff" d="M316.78,-167.59C306.93,-159.77 292.69,-148.46 281.02,-139.19"/>
<polygon fill="#63b8ff" stroke="#63b8ff" points="283.53,-136.72 273.52,-133.24 279.17,-142.2 283.53,-136.72"/>
</a>
</g>
</g>
<!-- Node8 -->
<g id="Node000008" class="node">
<title>Node8</title>
<g id="a_Node000008"><a xlink:title=" ">
<polygon fill="#e0e0e0" stroke="#999999" points="45.25,-76 0,-76 0,-56 45.25,-56 45.25,-76"/>
<text text-anchor="middle" x="22.62" y="-62.5" font-family="Helvetica,sans-Serif" font-size="10.00">atomic</text>
</a>
</g>
</g>
<!-- Node1&#45;&gt;Node8 -->
<g id="edge20_Node000001_Node000008" class="edge">
<title>Node1&#45;&gt;Node8</title>
<g id="a_edge20_Node000001_Node000008"><a xlink:title=" ">
<path fill="none" stroke="#63b8ff" d="M266.92,-167.54C228.07,-160.41 177.38,-148.92 134.62,-132 101.78,-119 67.06,-97.47 45.15,-82.78"/>
<polygon fill="#63b8ff" stroke="#63b8ff" points="47.24,-79.97 37,-77.23 43.29,-85.76 47.24,-79.97"/>
</a>
</g>
</g>
<!-- Node9 -->
<g id="Node000009" class="node">
<title>Node9</title>
<g id="a_Node000009"><a xlink:title=" ">
<polygon fill="#e0e0e0" stroke="#999999" points="184.62,-76 144.62,-76 144.62,-56 184.62,-56 184.62,-76"/>
<text text-anchor="middle" x="164.62" y="-62.5" font-family="Helvetica,sans-Serif" font-size="10.00">string</text>
</a>
</g>
</g>
<!-- Node1&#45;&gt;Node9 -->
<g id="edge22_Node000001_Node000009" class="edge">
<title>Node1&#45;&gt;Node9</title>
<g id="a_edge22_Node000001_Node000009"><a xlink:title=" ">
<path fill="none" stroke="#63b8ff" d="M251.05,-167.58C226.71,-161.1 201.55,-150.23 183.62,-132 172.02,-120.2 167.43,-101.73 165.65,-87.48"/>
<polygon fill="#63b8ff" stroke="#63b8ff" points="169.17,-87.51 164.84,-77.84 162.19,-88.1 169.17,-87.51"/>
</a>
</g>
</g>
<!-- Node10 -->
<g id="Node000010" class="node">
<title>Node10</title>
<g id="a_Node000010"><a xlink:title=" ">
<polygon fill="#e0e0e0" stroke="#999999" points="126.25,-76 63,-76 63,-56 126.25,-56 126.25,-76"/>
<text text-anchor="middle" x="94.62" y="-62.5" font-family="Helvetica,sans-Serif" font-size="10.00">string_view</text>
</a>
</g>
</g>
<!-- Node1&#45;&gt;Node10 -->
<g id="edge23_Node000001_Node000010" class="edge">
<title>Node1&#45;&gt;Node10</title>
<g id="a_edge23_Node000001_Node000010"><a xlink:title=" ">
<path fill="none" stroke="#63b8ff" d="M271.07,-167.54C239.22,-160.71 199.72,-149.53 167.62,-132 145.18,-119.74 123.86,-99.38 110.12,-84.72"/>
<polygon fill="#63b8ff" stroke="#63b8ff" points="112.94,-82.61 103.62,-77.56 107.76,-87.32 112.94,-82.61"/>
</a>
</g>
</g>
<!-- Node11 -->
<g id="Node000011" class="node">
<title>Node11</title>
<g id="a_Node000011"><a xlink:href="../../de/de8/_a_e_utils_8hpp.html" target="_top" xlink:title="This file contains the engine&#39;s usefull utilities for trivial tasks.">
<polygon fill="white" stroke="#666666" points="448.38,-132 346.88,-132 346.88,-112 448.38,-112 448.38,-132"/>
<text text-anchor="middle" x="397.62" y="-118.5" font-family="Helvetica,sans-Serif" font-size="10.00">include/AEUtils.hpp</text>
</a>
</g>
</g>
<!-- Node1&#45;&gt;Node11 -->
<g id="edge10_Node000001_Node000011" class="edge">
<title>Node1&#45;&gt;Node11</title>
<g id="a_edge10_Node000001_Node000011"><a xlink:title=" ">
<path fill="none" stroke="#63b8ff" d="M340.64,-167.59C350.64,-159.77 365.09,-148.46 376.93,-139.19"/>
<polygon fill="#63b8ff" stroke="#63b8ff" points="378.83,-142.15 384.55,-133.23 374.52,-136.64 378.83,-142.15"/>
</a>
</g>
</g>
<!-- Node18 -->
<g id="Node000018" class="node">
<title>Node18</title>
<g id="a_Node000018"><a xlink:title=" ">
<polygon fill="#e0e0e0" stroke="#999999" points="526.75,-132 466.5,-132 466.5,-112 526.75,-112 526.75,-132"/>
<text text-anchor="middle" x="496.62" y="-118.5" font-family="Helvetica,sans-Serif" font-size="10.00">filesystem</text>
</a>
</g>
</g>
<!-- Node1&#45;&gt;Node18 -->
<g id="edge21_Node000001_Node000018" class="edge">
<title>Node1&#45;&gt;Node18</title>
<g id="a_edge21_Node000001_Node000018"><a xlink:title=" ">
<path fill="none" stroke="#63b8ff" d="M357.89,-167.59C385.18,-158.82 426.14,-145.66 456.48,-135.9"/>
<polygon fill="#63b8ff" stroke="#63b8ff" points="457.24,-139.33 465.69,-132.94 455.1,-132.67 457.24,-139.33"/>
</a>
</g>
</g>
<!-- Node19 -->
<g id="Node000019" class="node">
<title>Node19</title>
<g id="a_Node000019"><a xlink:title=" ">
<polygon fill="#e0e0e0" stroke="#999999" points="586.38,-132 544.88,-132 544.88,-112 586.38,-112 586.38,-132"/>
<text text-anchor="middle" x="565.62" y="-118.5" font-family="Helvetica,sans-Serif" font-size="10.00">vector</text>
</a>
</g>
</g>
<!-- Node1&#45;&gt;Node19 -->
<g id="edge24_Node000001_Node000019" class="edge">
<title>Node1&#45;&gt;Node19</title>
<g id="a_edge24_Node000001_Node000019"><a xlink:title=" ">
<path fill="none" stroke="#63b8ff" d="M377.39,-167.51C417.03,-159.54 474.62,-147.41 533.39,-132.43"/>
<polygon fill="#63b8ff" stroke="#63b8ff" points="534.1,-135.86 542.91,-129.97 532.35,-129.08 534.1,-135.86"/>
</a>
</g>
</g>
<!-- Node20 -->
<g id="Node000020" class="node">
<title>Node20</title>
<g id="a_Node000020"><a xlink:title=" ">
<polygon fill="#e0e0e0" stroke="#999999" points="646.75,-132 604.5,-132 604.5,-112 646.75,-112 646.75,-132"/>
<text text-anchor="middle" x="625.62" y="-118.5" font-family="Helvetica,sans-Serif" font-size="10.00">cstdio</text>
</a>
</g>
</g>
<!-- Node1&#45;&gt;Node20 -->
<g id="edge25_Node000001_Node000020" class="edge">
<title>Node1&#45;&gt;Node20</title>
<g id="a_edge25_Node000001_Node000020"><a xlink:title=" ">
<path fill="none" stroke="#63b8ff" d="M399.37,-167.53C450.82,-160.08 522.31,-148.57 593.18,-132.35"/>
<polygon fill="#63b8ff" stroke="#63b8ff" points="593.66,-135.83 602.61,-130.16 592.07,-129.01 593.66,-135.83"/>
</a>
</g>
</g>
<!-- Node3 -->
<g id="Node000003" class="node">
<title>Node3</title>
<g id="a_Node000003"><a xlink:href="../../dc/d89/_a_e_typedefs_8hpp.html" target="_top" xlink:title="This file contains the engine&#39;s typedefs and variable type aliases.">
<polygon fill="white" stroke="#666666" points="324.12,-76 203.12,-76 203.12,-56 324.12,-56 324.12,-76"/>
<text text-anchor="middle" x="263.62" y="-62.5" font-family="Helvetica,sans-Serif" font-size="10.00">include/AETypedefs.hpp</text>
</a>
</g>
</g>
<!-- Node2&#45;&gt;Node3 -->
<g id="edge2_Node000002_Node000003" class="edge">
<title>Node2&#45;&gt;Node3</title>
<g id="a_edge2_Node000002_Node000003"><a xlink:title=" ">
<path fill="none" stroke="#63b8ff" d="M261.15,-111.59C261.51,-105.01 262.02,-95.96 262.47,-87.73"/>
<polygon fill="#63b8ff" stroke="#63b8ff" points="265.96,-87.99 263.02,-77.81 258.98,-87.6 265.96,-87.99"/>
</a>
</g>
</g>
<!-- Node7 -->
<g id="Node000007" class="node">
<title>Node7</title>
<g id="a_Node000007"><a xlink:href="../../dd/dd8/_a_e_flags_8hpp.html" target="_top" xlink:title="This file contains the flags to manipulate engine&#39;s funcitonality.">
<polygon fill="white" stroke="#666666" points="448.62,-76 342.62,-76 342.62,-56 448.62,-56 448.62,-76"/>
<text text-anchor="middle" x="395.62" y="-62.5" font-family="Helvetica,sans-Serif" font-size="10.00">include/AEFlags.hpp</text>
</a>
</g>
</g>
<!-- Node2&#45;&gt;Node7 -->
<g id="edge6_Node000002_Node000007" class="edge">
<title>Node2&#45;&gt;Node7</title>
<g id="a_edge6_Node000002_Node000007"><a xlink:title=" ">
<path fill="none" stroke="#63b8ff" d="M284.14,-111.59C305.5,-103.05 337.26,-90.35 361.42,-80.68"/>
<polygon fill="#63b8ff" stroke="#63b8ff" points="362.54,-84.01 370.52,-77.04 359.94,-77.51 362.54,-84.01"/>
</a>
</g>
</g>
<!-- Node2&#45;&gt;Node8 -->
<g id="edge7_Node000002_Node000008" class="edge">
<title>Node2&#45;&gt;Node8</title>
<g id="a_edge7_Node000002_Node000008"><a xlink:title=" ">
<path fill="none" stroke="#63b8ff" d="M212.72,-111.56C173.09,-103.53 115.1,-91.28 56.54,-76.62"/>
<polygon fill="#63b8ff" stroke="#63b8ff" points="57.62,-73.29 47.07,-74.23 55.91,-80.07 57.62,-73.29"/>
</a>
</g>
</g>
<!-- Node2&#45;&gt;Node9 -->
<g id="edge8_Node000002_Node000009" class="edge">
<title>Node2&#45;&gt;Node9</title>
<g id="a_edge8_Node000002_Node000009"><a xlink:title=" ">
<path fill="none" stroke="#63b8ff" d="M243.9,-111.59C229.4,-103.44 208.15,-91.48 191.3,-82"/>
<polygon fill="#63b8ff" stroke="#63b8ff" points="193.23,-79.07 182.8,-77.22 189.8,-85.17 193.23,-79.07"/>
</a>
</g>
</g>
<!-- Node2&#45;&gt;Node10 -->
<g id="edge9_Node000002_Node000010" class="edge">
<title>Node2&#45;&gt;Node10</title>
<g id="a_edge9_Node000002_Node000010"><a xlink:title=" ">
<path fill="none" stroke="#63b8ff" d="M231.71,-111.59C204.86,-102.86 164.63,-89.77 134.69,-80.03"/>
<polygon fill="#63b8ff" stroke="#63b8ff" points="135.8,-76.71 125.2,-76.95 133.63,-83.37 135.8,-76.71"/>
</a>
</g>
</g>
<!-- Node4 -->
<g id="Node000004" class="node">
<title>Node4</title>
<g id="a_Node000004"><a xlink:title=" ">
<polygon fill="#e0e0e0" stroke="#999999" points="222.88,-20 178.38,-20 178.38,0 222.88,0 222.88,-20"/>
<text text-anchor="middle" x="200.62" y="-6.5" font-family="Helvetica,sans-Serif" font-size="10.00">climits</text>
</a>
</g>
</g>
<!-- Node3&#45;&gt;Node4 -->
<g id="edge3_Node000003_Node000004" class="edge">
<title>Node3&#45;&gt;Node4</title>
<g id="a_edge3_Node000003_Node000004"><a xlink:title=" ">
<path fill="none" stroke="#63b8ff" d="M252.65,-55.59C243.71,-47.93 230.85,-36.91 220.16,-27.75"/>
<polygon fill="#63b8ff" stroke="#63b8ff" points="222.49,-25.13 212.62,-21.28 217.94,-30.45 222.49,-25.13"/>
</a>
</g>
</g>
<!-- Node5 -->
<g id="Node000005" class="node">
<title>Node5</title>
<g id="a_Node000005"><a xlink:title=" ">
<polygon fill="#e0e0e0" stroke="#999999" points="286.25,-20 241,-20 241,0 286.25,0 286.25,-20"/>
<text text-anchor="middle" x="263.62" y="-6.5" font-family="Helvetica,sans-Serif" font-size="10.00">chrono</text>
</a>
</g>
</g>
<!-- Node3&#45;&gt;Node5 -->
<g id="edge4_Node000003_Node000005" class="edge">
<title>Node3&#45;&gt;Node5</title>
<g id="a_edge4_Node000003_Node000005"><a xlink:title=" ">
<path fill="none" stroke="#63b8ff" d="M263.62,-55.59C263.62,-49.01 263.62,-39.96 263.62,-31.73"/>
<polygon fill="#63b8ff" stroke="#63b8ff" points="267.13,-31.81 263.63,-21.81 260.13,-31.81 267.13,-31.81"/>
</a>
</g>
</g>
<!-- Node6 -->
<g id="Node000006" class="node">
<title>Node6</title>
<g id="a_Node000006"><a xlink:title=" ">
<polygon fill="#e0e0e0" stroke="#999999" points="347.12,-20 304.12,-20 304.12,0 347.12,0 347.12,-20"/>
<text text-anchor="middle" x="325.62" y="-6.5" font-family="Helvetica,sans-Serif" font-size="10.00">thread</text>
</a>
</g>
</g>
<!-- Node3&#45;&gt;Node6 -->
<g id="edge5_Node000003_Node000006" class="edge">
<title>Node3&#45;&gt;Node6</title>
<g id="a_edge5_Node000003_Node000006"><a xlink:title=" ">
<path fill="none" stroke="#63b8ff" d="M274.42,-55.59C283.23,-47.93 295.88,-36.91 306.4,-27.75"/>
<polygon fill="#63b8ff" stroke="#63b8ff" points="308.57,-30.5 313.81,-21.29 303.97,-25.22 308.57,-30.5"/>
</a>
</g>
</g>
<!-- Node11&#45;&gt;Node3 -->
<g id="edge12_Node000011_Node000003" class="edge">
<title>Node11&#45;&gt;Node3</title>
<g id="a_edge12_Node000011_Node000003"><a xlink:title=" ">
<path fill="none" stroke="#63b8ff" d="M374.28,-111.59C353.09,-103.05 321.56,-90.35 297.57,-80.68"/>
<polygon fill="#63b8ff" stroke="#63b8ff" points="299.14,-77.54 288.55,-77.05 296.52,-84.03 299.14,-77.54"/>
</a>
</g>
</g>
<!-- Node11&#45;&gt;Node7 -->
<g id="edge11_Node000011_Node000007" class="edge">
<title>Node11&#45;&gt;Node7</title>
<g id="a_edge11_Node000011_Node000007"><a xlink:title=" ">
<path fill="none" stroke="#63b8ff" d="M397.28,-111.59C397.03,-105.01 396.7,-95.96 396.39,-87.73"/>
<polygon fill="#63b8ff" stroke="#63b8ff" points="399.89,-87.67 396.03,-77.81 392.9,-87.93 399.89,-87.67"/>
</a>
</g>
</g>
<!-- Node11&#45;&gt;Node9 -->
<g id="edge15_Node000011_Node000009" class="edge">
<title>Node11&#45;&gt;Node9</title>
<g id="a_edge15_Node000011_Node000009"><a xlink:title=" ">
<path fill="none" stroke="#63b8ff" d="M350.22,-111.52C311.35,-103.51 254.67,-91.32 195.9,-76.17"/>
<polygon fill="#63b8ff" stroke="#63b8ff" points="196.93,-72.82 186.37,-73.68 195.16,-79.59 196.93,-72.82"/>
</a>
</g>
</g>
<!-- Node12 -->
<g id="Node000012" class="node">
<title>Node12</title>
<g id="a_Node000012"><a xlink:title=" ">
<polygon fill="#e0e0e0" stroke="#999999" points="782.5,-76 726.75,-76 726.75,-56 782.5,-56 782.5,-76"/>
<text text-anchor="middle" x="754.62" y="-62.5" font-family="Helvetica,sans-Serif" font-size="10.00">algorithm</text>
</a>
</g>
</g>
<!-- Node11&#45;&gt;Node12 -->
<g id="edge13_Node000011_Node000012" class="edge">
<title>Node11&#45;&gt;Node12</title>
<g id="a_edge13_Node000011_Node000012"><a xlink:title=" ">
<path fill="none" stroke="#63b8ff" d="M448.68,-113.3C451.71,-112.86 454.71,-112.42 457.62,-112 569.48,-95.87 601.07,-97.68 715.11,-76.32"/>
<polygon fill="#63b8ff" stroke="#63b8ff" points="715.75,-79.76 724.92,-74.46 714.44,-72.88 715.75,-79.76"/>
</a>
</g>
</g>
<!-- Node13 -->
<g id="Node000013" class="node">
<title>Node13</title>
<g id="a_Node000013"><a xlink:title=" ">
<polygon fill="#e0e0e0" stroke="#999999" points="854.38,-76 800.88,-76 800.88,-56 854.38,-56 854.38,-76"/>
<text text-anchor="middle" x="827.62" y="-62.5" font-family="Helvetica,sans-Serif" font-size="10.00">iostream</text>
</a>
</g>
</g>
<!-- Node11&#45;&gt;Node13 -->
<g id="edge14_Node000011_Node000013" class="edge">
<title>Node11&#45;&gt;Node13</title>
<g id="a_edge14_Node000011_Node000013"><a xlink:title=" ">
<path fill="none" stroke="#63b8ff" d="M448.67,-113.2C451.7,-112.78 454.7,-112.38 457.62,-112 602.09,-93.39 642.67,-101.73 789.37,-76.17"/>
<polygon fill="#63b8ff" stroke="#63b8ff" points="789.86,-79.64 799.09,-74.45 788.64,-72.74 789.86,-79.64"/>
</a>
</g>
</g>
<!-- Node14 -->
<g id="Node000014" class="node">
<title>Node14</title>
<g id="a_Node000014"><a xlink:title=" ">
<polygon fill="#e0e0e0" stroke="#999999" points="512.25,-76 467,-76 467,-56 512.25,-56 512.25,-76"/>
<text text-anchor="middle" x="489.62" y="-62.5" font-family="Helvetica,sans-Serif" font-size="10.00">cstring</text>
</a>
</g>
</g>
<!-- Node11&#45;&gt;Node14 -->
<g id="edge16_Node000011_Node000014" class="edge">
<title>Node11&#45;&gt;Node14</title>
<g id="a_edge16_Node000011_Node000014"><a xlink:title=" ">
<path fill="none" stroke="#63b8ff" d="M413.65,-111.59C427.42,-103.51 447.53,-91.71 463.6,-82.27"/>
<polygon fill="#63b8ff" stroke="#63b8ff" points="465.32,-85.33 472.17,-77.25 461.77,-79.29 465.32,-85.33"/>
</a>
</g>
</g>
<!-- Node15 -->
<g id="Node000015" class="node">
<title>Node15</title>
<g id="a_Node000015"><a xlink:title=" ">
<polygon fill="#e0e0e0" stroke="#999999" points="570.62,-76 530.62,-76 530.62,-56 570.62,-56 570.62,-76"/>
<text text-anchor="middle" x="550.62" y="-62.5" font-family="Helvetica,sans-Serif" font-size="10.00">ctime</text>
</a>
</g>
</g>
<!-- Node11&#45;&gt;Node15 -->
<g id="edge17_Node000011_Node000015" class="edge">
<title>Node11&#45;&gt;Node15</title>
<g id="a_edge17_Node000011_Node000015"><a xlink:title=" ">
<path fill="none" stroke="#63b8ff" d="M424.28,-111.59C450.76,-102.25 491.37,-87.91 519.37,-78.03"/>
<polygon fill="#63b8ff" stroke="#63b8ff" points="520.46,-81.36 528.72,-74.73 518.13,-74.76 520.46,-81.36"/>
</a>
</g>
</g>
<!-- Node16 -->
<g id="Node000016" class="node">
<title>Node16</title>
<g id="a_Node000016"><a xlink:title=" ">
<polygon fill="#e0e0e0" stroke="#999999" points="640.25,-76 589,-76 589,-56 640.25,-56 640.25,-76"/>
<text text-anchor="middle" x="614.62" y="-62.5" font-family="Helvetica,sans-Serif" font-size="10.00">sstream</text>
</a>
</g>
</g>
<!-- Node11&#45;&gt;Node16 -->
<g id="edge18_Node000011_Node000016" class="edge">
<title>Node11&#45;&gt;Node16</title>
<g id="a_edge18_Node000011_Node000016"><a xlink:title=" ">
<path fill="none" stroke="#63b8ff" d="M436.35,-111.54C470.91,-103.07 523.18,-90.19 577.71,-76.47"/>
<polygon fill="#63b8ff" stroke="#63b8ff" points="578.33,-79.92 587.17,-74.08 576.62,-73.13 578.33,-79.92"/>
</a>
</g>
</g>
<!-- Node17 -->
<g id="Node000017" class="node">
<title>Node17</title>
<g id="a_Node000017"><a xlink:title=" ">
<polygon fill="#e0e0e0" stroke="#999999" points="708.5,-76 658.75,-76 658.75,-56 708.5,-56 708.5,-76"/>
<text text-anchor="middle" x="683.62" y="-62.5" font-family="Helvetica,sans-Serif" font-size="10.00">iomanip</text>
</a>
</g>
</g>
<!-- Node11&#45;&gt;Node17 -->
<g id="edge19_Node000011_Node000017" class="edge">
<title>Node11&#45;&gt;Node17</title>
<g id="a_edge19_Node000011_Node000017"><a xlink:title=" ">
<path fill="none" stroke="#63b8ff" d="M448.55,-113.17C497.23,-105.4 572.9,-92.59 647.44,-76.34"/>
<polygon fill="#63b8ff" stroke="#63b8ff" points="647.94,-79.81 656.95,-74.24 646.43,-72.98 647.94,-79.81"/>
</a>
</g>
</g>
</g>
</svg>
