<?xml version="1.0" encoding="UTF-8" standalone="no"?>
<!DOCTYPE svg PUBLIC "-//W3C//DTD SVG 1.1//EN"
 "http://www.w3.org/Graphics/SVG/1.1/DTD/svg11.dtd">
<!-- Generated by graphviz version 10.0.1 (20240210.2158)
 -->
<!-- Title: AELogger Pages: 1 -->
<!--zoomable 664 -->

<svg id="main" version="1.1" xmlns="http://www.w3.org/2000/svg" xmlns:xlink="http://www.w3.org/1999/xlink" xml:space="preserve" onload="init(evt)">
<style type="text/css"><![CDATA[
.node, .edge {opacity: 0.7;}
.node.selected, .edge.selected {opacity: 1;}
.edge:hover path { stroke: red; }
.edge:hover polygon { stroke: red; fill: red; }
]]></style>

<defs>
  <circle id="rim" cx="0" cy="0" r="7"/>
  <circle id="rim2" cx="0" cy="0" r="3.5"/>
  <g id="zoomPlus">
    <use xlink:href="#rim" fill="#404040"><set attributeName="fill" to="#808080" begin="zoomplus.mouseover" end="zoomplus.mouseout"/></use>
    <path d="M-4,0h8M0,-4v8" fill="none" stroke="white" stroke-width="1.5" pointer-events="none"/>
  </g>
  <g id="zoomMin">
    <use xlink:href="#rim" fill="#404040"><set attributeName="fill" to="#808080" begin="zoomminus.mouseover" end="zoomminus.mouseout"/></use>
    <path d="M-4,0h8" fill="none" stroke="white" stroke-width="1.5" pointer-events="none"/>
  </g>
  <g id="arrowUp" transform="translate(30 24)">
    <use xlink:href="#rim"/>
    <path pointer-events="none" fill="none" stroke="white" stroke-width="1.5" d="M0,-3.0v7 M-2.5,-0.5L0,-3.0L2.5,-0.5"/>
  </g>
  <g id="arrowRight" transform="rotate(90) translate(36 -43)">
    <use xlink:href="#rim"/>
    <path pointer-events="none" fill="none" stroke="white" stroke-width="1.5" d="M0,-3.0v7 M-2.5,-0.5L0,-3.0L2.5,-0.5"/>
  </g>
  <g id="arrowDown" transform="rotate(180) translate(-30 -48)">
    <use xlink:href="#rim"/>
    <path pointer-events="none" fill="none" stroke="white" stroke-width="1.5" d="M0,-3.0v7 M-2.5,-0.5L0,-3.0L2.5,-0.5"/>
  </g>
  <g id="arrowLeft" transform="rotate(270) translate(-36 17)">
    <use xlink:href="#rim"/>
    <path pointer-events="none" fill="none" stroke="white" stroke-width="1.5" d="M0,-3.0v7 M-2.5,-0.5L0,-3.0L2.5,-0.5"/>
  </g>
  <g id="resetDef">
    <use xlink:href="#rim2" fill="#404040"><set attributeName="fill" to="#808080" begin="reset.mouseover" end="reset.mouseout"/></use>
  </g>
</defs>
<script type="application/ecmascript">
var viewWidth = 1461;
var viewHeight = 664;
var sectionId = 'dynsection-1';
</script>
<script type="application/ecmascript" xlink:href="../../svg.min.js"/>
<svg id="graph" class="graph">
<g id="viewport">
<title>AELogger</title>
<!-- Node1 -->
<g id="Node000001" class="node">
<title>Node1</title>
<g id="a_Node000001"><a xlink:title="The ArtyK&#39;s Engine&#39;s Logger module – it manages the writing to the log files.">
<polygon fill="#999999" stroke="#666666" points="1453.05,-236 1394.3,-236 1394.3,-216 1453.05,-216 1453.05,-236"/>
<text text-anchor="middle" x="1423.68" y="-222.5" font-family="Helvetica,sans-Serif" font-size="10.00">AELogger</text>
</a>
</g>
</g>
<!-- Node2 -->
<g id="Node000002" class="node">
<title>Node2</title>
<g id="a_Node000002"><a xlink:href="../../d0/d8a/class_____a_e_module_base.html" target="_top" xlink:title=" ">
<polygon fill="white" stroke="#666666" points="1026.93,-640 872.18,-640 872.18,-620 1026.93,-620 1026.93,-640"/>
<text text-anchor="middle" x="949.55" y="-626.5" font-family="Helvetica,sans-Serif" font-size="10.00">__AEModuleBase&lt; AELogger &gt;</text>
</a>
</g>
</g>
<!-- Node2&#45;&gt;Node1 -->
<g id="edge1_Node000001_Node000002" class="edge">
<title>Node2&#45;&gt;Node1</title>
<g id="a_edge1_Node000001_Node000002"><a xlink:title=" ">
<path fill="none" stroke="#63b8ff" d="M1038.58,-621.48C1109.88,-610.94 1210.03,-587.57 1282.55,-536 1389.89,-459.67 1416.55,-281.09 1421.64,-236.32"/>
<polygon fill="#63b8ff" stroke="#63b8ff" points="1038.31,-617.98 1028.9,-622.85 1039.29,-624.91 1038.31,-617.98"/>
</a>
</g>
</g>
<!-- Node3 -->
<g id="Node000003" class="node">
<title>Node3</title>
<g id="a_Node000003"><a xlink:title=" ">
<polygon fill="white" stroke="#666666" points="444.3,-530 315.8,-530 315.8,-510 444.3,-510 444.3,-530"/>
<text text-anchor="middle" x="380.05" y="-516.5" font-family="Helvetica,sans-Serif" font-size="10.00">std::atomic&lt; std::size_t &gt;</text>
</a>
</g>
</g>
<!-- Node3&#45;&gt;Node2 -->
<g id="edge2_Node000002_Node000003" class="edge">
<title>Node3&#45;&gt;Node2</title>
<g id="a_edge2_Node000002_Node000003"><a xlink:title=" ">
<path fill="none" stroke="#9a32cd" stroke-dasharray="5,2" d="M395.58,-539.33C410.42,-557.76 435.08,-585 462.3,-601 502.65,-624.72 517.37,-622.32 563.55,-630 688.23,-650.73 721.53,-644.63 847.8,-639 855.61,-638.65 863.74,-638.15 871.86,-637.57"/>
<polygon fill="#9a32cd" stroke="#9a32cd" points="398.42,-537.29 389.51,-531.56 392.91,-541.6 398.42,-537.29"/>
</a>
</g>
<text text-anchor="middle" x="643.43" y="-646.5" font-family="Helvetica,sans-Serif" font-size="10.00" fill="grey"> m_ullModulesAlive</text>
</g>
<!-- Node7 -->
<g id="Node000007" class="node">
<title>Node7</title>
<g id="a_Node000007"><a xlink:href="../../d0/d8a/class_____a_e_module_base.html" target="_top" xlink:title="This is a base class for all the modules in the engine; all basic modules inherit from it.">
<polygon fill="white" stroke="#666666" points="702.05,-621 584.8,-621 584.8,-601 702.05,-601 702.05,-621"/>
<text text-anchor="middle" x="643.43" y="-607.5" font-family="Helvetica,sans-Serif" font-size="10.00">__AEModuleBase&lt; T &gt;</text>
</a>
</g>
</g>
<!-- Node3&#45;&gt;Node7 -->
<g id="edge7_Node000007_Node000003" class="edge">
<title>Node3&#45;&gt;Node7</title>
<g id="a_edge7_Node000007_Node000003"><a xlink:title=" ">
<path fill="none" stroke="#9a32cd" stroke-dasharray="5,2" d="M414.76,-534.94C451.01,-550.62 510.57,-575.26 563.55,-592 573.35,-595.1 583.98,-597.97 594.16,-600.5"/>
<polygon fill="#9a32cd" stroke="#9a32cd" points="416.25,-531.77 405.68,-530.99 413.46,-538.19 416.25,-531.77"/>
</a>
</g>
<text text-anchor="middle" x="503.93" y="-587.5" font-family="Helvetica,sans-Serif" font-size="10.00" fill="grey"> m_ullModulesAlive</text>
</g>
<!-- Node9 -->
<g id="Node000009" class="node">
<title>Node9</title>
<g id="a_Node000009"><a xlink:href="../../d0/d8a/class_____a_e_module_base.html" target="_top" xlink:title=" ">
<polygon fill="white" stroke="#666666" points="1033.3,-502 865.8,-502 865.8,-482 1033.3,-482 1033.3,-502"/>
<text text-anchor="middle" x="949.55" y="-488.5" font-family="Helvetica,sans-Serif" font-size="10.00">__AEModuleBase&lt; AEFileWriter &gt;</text>
</a>
</g>
</g>
<!-- Node3&#45;&gt;Node9 -->
<g id="edge10_Node000009_Node000003" class="edge">
<title>Node3&#45;&gt;Node9</title>
<g id="a_edge10_Node000009_Node000003"><a xlink:title=" ">
<path fill="none" stroke="#9a32cd" stroke-dasharray="5,2" d="M456.01,-516.3C562.04,-511.07 755.16,-501.54 865.45,-496.1"/>
<polygon fill="#9a32cd" stroke="#9a32cd" points="456.1,-512.79 446.28,-516.78 456.44,-519.78 456.1,-512.79"/>
</a>
</g>
<text text-anchor="middle" x="643.43" y="-512.5" font-family="Helvetica,sans-Serif" font-size="10.00" fill="grey"> m_ullModulesAlive</text>
</g>
<!-- Node4 -->
<g id="Node000004" class="node">
<title>Node4</title>
<g id="a_Node000004"><a xlink:title=" ">
<polygon fill="white" stroke="#666666" points="172.68,-492 130.43,-492 130.43,-472 172.68,-472 172.68,-492"/>
<text text-anchor="middle" x="151.55" y="-478.5" font-family="Helvetica,sans-Serif" font-size="10.00">size_t</text>
</a>
</g>
</g>
<!-- Node4&#45;&gt;Node3 -->
<g id="edge3_Node000003_Node000004" class="edge">
<title>Node4&#45;&gt;Node3</title>
<g id="a_edge3_Node000003_Node000004"><a xlink:title=" ">
<path fill="none" stroke="#9a32cd" stroke-dasharray="5,2" d="M183.98,-490.39C193.44,-492.73 203.88,-495.14 213.55,-497 247.02,-503.42 284.64,-508.8 315.53,-512.73"/>
<polygon fill="#9a32cd" stroke="#9a32cd" points="185.07,-487.05 174.51,-487.97 183.34,-493.83 185.07,-487.05"/>
</a>
</g>
<text text-anchor="middle" x="255.68" y="-511.5" font-family="Helvetica,sans-Serif" font-size="10.00" fill="grey"> ptr</text>
</g>
<!-- Node8 -->
<g id="Node000008" class="node">
<title>Node8</title>
<g id="a_Node000008"><a xlink:href="../../db/d15/class_a_e_file_writer.html" target="_top" xlink:title="ArtyK&#39;s Engine File Writer; umm, it writes data to given file.">
<polygon fill="white" stroke="#666666" points="1249.55,-397 1178.05,-397 1178.05,-377 1249.55,-377 1249.55,-397"/>
<text text-anchor="middle" x="1213.8" y="-383.5" font-family="Helvetica,sans-Serif" font-size="10.00">AEFileWriter</text>
</a>
</g>
</g>
<!-- Node4&#45;&gt;Node8 -->
<g id="edge18_Node000008_Node000004" class="edge">
<title>Node4&#45;&gt;Node8</title>
<g id="a_edge18_Node000008_Node000004"><a xlink:title=" ">
<path fill="none" stroke="#9a32cd" stroke-dasharray="5,2" d="M183.92,-469.9C193.31,-466.78 203.73,-463.79 213.55,-462 572.32,-396.58 669.95,-457.18 1033.3,-426 1075.15,-422.41 1086.02,-423.01 1127.05,-414 1146.41,-409.75 1167.67,-403.07 1184.17,-397.42"/>
<polygon fill="#9a32cd" stroke="#9a32cd" points="182.78,-466.59 174.51,-473.21 185.1,-473.2 182.78,-466.59"/>
</a>
</g>
<text text-anchor="middle" x="643.43" y="-436.5" font-family="Helvetica,sans-Serif" font-size="10.00" fill="grey"> m_szLastWrittenAmount</text>
</g>
<!-- Node5 -->
<g id="Node000005" class="node">
<title>Node5</title>
<g id="a_Node000005"><a xlink:title=" ">
<polygon fill="white" stroke="#666666" points="195.55,-292 107.55,-292 107.55,-272 195.55,-272 195.55,-292"/>
<text text-anchor="middle" x="151.55" y="-278.5" font-family="Helvetica,sans-Serif" font-size="10.00">std::atomic&lt; T &gt;</text>
</a>
</g>
</g>
<!-- Node5&#45;&gt;Node3 -->
<g id="edge4_Node000003_Node000005" class="edge">
<title>Node5&#45;&gt;Node3</title>
<g id="a_edge4_Node000003_Node000005"><a xlink:title=" ">
<path fill="none" stroke="orange" stroke-dasharray="5,2" d="M156.09,-303.63C162.4,-336.12 178.39,-397.89 213.55,-437 241.79,-468.42 262.65,-457.57 297.8,-481 306.46,-486.78 306.81,-490.75 315.8,-496 324.93,-501.33 335.45,-505.88 345.27,-509.54"/>
<polygon fill="orange" stroke="orange" points="159.54,-303.07 154.33,-293.85 152.65,-304.31 159.54,-303.07"/>
</a>
</g>
<text text-anchor="middle" x="255.68" y="-483.5" font-family="Helvetica,sans-Serif" font-size="10.00" fill="grey"> &lt; std::size_t &gt;</text>
</g>
<!-- Node13 -->
<g id="Node000013" class="node">
<title>Node13</title>
<g id="a_Node000013"><a xlink:title=" ">
<polygon fill="white" stroke="#666666" points="1001.05,-540 898.05,-540 898.05,-520 1001.05,-520 1001.05,-540"/>
<text text-anchor="middle" x="949.55" y="-526.5" font-family="Helvetica,sans-Serif" font-size="10.00">std::atomic&lt; ullint &gt;</text>
</a>
</g>
</g>
<!-- Node5&#45;&gt;Node13 -->
<g id="edge17_Node000013_Node000005" class="edge">
<title>Node5&#45;&gt;Node13</title>
<g id="a_edge17_Node000013_Node000005"><a xlink:title=" ">
<path fill="none" stroke="orange" stroke-dasharray="5,2" d="M167.83,-300.95C179.38,-314.43 196.16,-332.31 213.55,-345 353.73,-447.27 395.22,-475.89 563.55,-518 680.32,-547.21 823.22,-541.28 897.78,-535.18"/>
<polygon fill="orange" stroke="orange" points="170.79,-299.04 161.7,-293.61 165.42,-303.53 170.79,-299.04"/>
</a>
</g>
<text text-anchor="middle" x="503.93" y="-515.5" font-family="Helvetica,sans-Serif" font-size="10.00" fill="grey"> &lt; ullint &gt;</text>
</g>
<!-- Node23 -->
<g id="Node000023" class="node">
<title>Node23</title>
<g id="a_Node000023"><a xlink:title=" ">
<polygon fill="white" stroke="#666666" points="429.3,-227 330.8,-227 330.8,-207 429.3,-207 429.3,-227"/>
<text text-anchor="middle" x="380.05" y="-213.5" font-family="Helvetica,sans-Serif" font-size="10.00">std::atomic&lt; cint &gt;</text>
</a>
</g>
</g>
<!-- Node5&#45;&gt;Node23 -->
<g id="edge32_Node000023_Node000005" class="edge">
<title>Node5&#45;&gt;Node23</title>
<g id="a_edge32_Node000023_Node000005"><a xlink:title=" ">
<path fill="none" stroke="orange" stroke-dasharray="5,2" d="M207.08,-277.54C235.33,-273.59 269.68,-266.11 297.8,-252 307.37,-247.2 306.45,-241.22 315.8,-236 321.81,-232.65 328.47,-229.82 335.16,-227.46"/>
<polygon fill="orange" stroke="orange" points="206.77,-274.06 197.29,-278.8 207.66,-281 206.77,-274.06"/>
</a>
</g>
<text text-anchor="middle" x="255.68" y="-278.5" font-family="Helvetica,sans-Serif" font-size="10.00" fill="grey"> &lt; cint &gt;</text>
</g>
<!-- Node29 -->
<g id="Node000029" class="node">
<title>Node29</title>
<g id="a_Node000029"><a xlink:title=" ">
<polygon fill="white" stroke="#666666" points="430.43,-20 329.68,-20 329.68,0 430.43,0 430.43,-20"/>
<text text-anchor="middle" x="380.05" y="-6.5" font-family="Helvetica,sans-Serif" font-size="10.00">std::atomic&lt; bool &gt;</text>
</a>
</g>
</g>
<!-- Node5&#45;&gt;Node29 -->
<g id="edge44_Node000029_Node000005" class="edge">
<title>Node5&#45;&gt;Node29</title>
<g id="a_edge44_Node000029_Node000005"><a xlink:title=" ">
<path fill="none" stroke="orange" stroke-dasharray="5,2" d="M193.34,-265.2C194.11,-264.49 194.85,-263.76 195.55,-263 212.11,-245.01 200.8,-231.87 213.55,-211 241.78,-164.8 269.14,-168.94 297.8,-123 310.08,-103.32 303.36,-93.59 315.8,-74 329.53,-52.37 351.63,-32.19 365.74,-20.48"/>
<polygon fill="orange" stroke="orange" points="191.52,-262.2 185.41,-270.86 195.58,-267.9 191.52,-262.2"/>
</a>
</g>
<text text-anchor="middle" x="255.68" y="-213.5" font-family="Helvetica,sans-Serif" font-size="10.00" fill="grey"> &lt; bool &gt;</text>
</g>
<!-- Node6 -->
<g id="Node000006" class="node">
<title>Node6</title>
<g id="a_Node000006"><a xlink:title=" ">
<polygon fill="white" stroke="#666666" points="28.8,-223 0,-223 0,-203 28.8,-203 28.8,-223"/>
<text text-anchor="middle" x="14.4" y="-209.5" font-family="Helvetica,sans-Serif" font-size="10.00">T</text>
</a>
</g>
</g>
<!-- Node6&#45;&gt;Node5 -->
<g id="edge5_Node000005_Node000006" class="edge">
<title>Node6&#45;&gt;Node5</title>
<g id="a_edge5_Node000005_Node000006"><a xlink:title=" ">
<path fill="none" stroke="#9a32cd" stroke-dasharray="5,2" d="M39.14,-226.57C57.58,-236.94 83.92,-251.39 107.55,-263 113.56,-265.95 120.13,-268.96 126.28,-271.69"/>
<polygon fill="#9a32cd" stroke="#9a32cd" points="41.01,-223.61 30.58,-221.73 37.56,-229.7 41.01,-223.61"/>
</a>
</g>
<text text-anchor="middle" x="68.18" y="-254.5" font-family="Helvetica,sans-Serif" font-size="10.00" fill="grey"> ptr</text>
</g>
<!-- Node27 -->
<g id="Node000027" class="node">
<title>Node27</title>
<g id="a_Node000027"><a xlink:title=" ">
<polygon fill="white" stroke="#666666" points="297.8,-114 213.55,-114 213.55,-94 297.8,-94 297.8,-114"/>
<text text-anchor="middle" x="255.68" y="-100.5" font-family="Helvetica,sans-Serif" font-size="10.00">std::vector&lt; T &gt;</text>
</a>
</g>
</g>
<!-- Node6&#45;&gt;Node27 -->
<g id="edge37_Node000027_Node000006" class="edge">
<title>Node6&#45;&gt;Node27</title>
<g id="a_edge37_Node000027_Node000006"><a xlink:title=" ">
<path fill="none" stroke="#9a32cd" stroke-dasharray="5,2" d="M39.58,-201.99C85.84,-180.91 186.33,-135.14 231.67,-114.48"/>
<polygon fill="#9a32cd" stroke="#9a32cd" points="38.33,-198.71 30.68,-206.04 41.23,-205.08 38.33,-198.71"/>
</a>
</g>
<text text-anchor="middle" x="68.18" y="-200.5" font-family="Helvetica,sans-Serif" font-size="10.00" fill="grey"> elements</text>
</g>
<!-- Node7&#45;&gt;Node2 -->
<g id="edge6_Node000002_Node000007" class="edge">
<title>Node7&#45;&gt;Node2</title>
<g id="a_edge6_Node000002_Node000007"><a xlink:title=" ">
<path fill="none" stroke="orange" stroke-dasharray="5,2" d="M713.68,-615.33C760.81,-618.27 823.23,-622.17 871.87,-625.21"/>
<polygon fill="orange" stroke="orange" points="714.05,-611.84 703.86,-614.71 713.62,-618.83 714.05,-611.84"/>
</a>
</g>
<text text-anchor="middle" x="794.55" y="-625.5" font-family="Helvetica,sans-Serif" font-size="10.00" fill="grey"> &lt; AELogger &gt;</text>
</g>
<!-- Node7&#45;&gt;Node9 -->
<g id="edge11_Node000009_Node000007" class="edge">
<title>Node7&#45;&gt;Node9</title>
<g id="a_edge11_Node000009_Node000007"><a xlink:title=" ">
<path fill="none" stroke="orange" stroke-dasharray="5,2" d="M712.6,-598.73C716.38,-596.8 719.99,-594.57 723.3,-592 736.81,-581.51 728.47,-569.31 741.3,-558 785.67,-518.89 809.18,-528.1 865.8,-511 876.1,-507.89 887.26,-505.01 897.94,-502.48"/>
<polygon fill="orange" stroke="orange" points="711.42,-595.43 703.61,-602.59 714.18,-601.86 711.42,-595.43"/>
</a>
</g>
<text text-anchor="middle" x="794.55" y="-560.5" font-family="Helvetica,sans-Serif" font-size="10.00" fill="grey"> &lt; AEFileWriter &gt;</text>
</g>
<!-- Node8&#45;&gt;Node1 -->
<g id="edge8_Node000001_Node000008" class="edge">
<title>Node8&#45;&gt;Node1</title>
<g id="a_edge8_Node000001_Node000008"><a xlink:title=" ">
<path fill="none" stroke="#9a32cd" stroke-dasharray="5,2" d="M1242.88,-370.99C1276.34,-351.27 1333.13,-315.72 1376.3,-278 1391.24,-264.95 1406.07,-247.28 1414.8,-236.26"/>
<polygon fill="#9a32cd" stroke="#9a32cd" points="1241.47,-367.76 1234.6,-375.82 1245,-373.8 1241.47,-367.76"/>
</a>
</g>
<text text-anchor="middle" x="1338.43" y="-334.5" font-family="Helvetica,sans-Serif" font-size="10.00" fill="grey"> m_fwLogger</text>
</g>
<!-- Node9&#45;&gt;Node8 -->
<g id="edge9_Node000008_Node000009" class="edge">
<title>Node9&#45;&gt;Node8</title>
<g id="a_edge9_Node000008_Node000009"><a xlink:title=" ">
<path fill="none" stroke="#63b8ff" d="M1044.73,-481.34C1072.14,-475.99 1101.55,-467.98 1127.05,-456 1158.52,-441.21 1188.59,-412.57 1203.34,-397.25"/>
<polygon fill="#63b8ff" stroke="#63b8ff" points="1044.22,-477.87 1035.02,-483.13 1045.49,-484.76 1044.22,-477.87"/>
</a>
</g>
</g>
<!-- Node10 -->
<g id="Node000010" class="node">
<title>Node10</title>
<g id="a_Node000010"><a xlink:title=" ">
<polygon fill="white" stroke="#666666" points="691.93,-269 594.93,-269 594.93,-249 691.93,-249 691.93,-269"/>
<text text-anchor="middle" x="643.43" y="-255.5" font-family="Helvetica,sans-Serif" font-size="10.00">unsigned long long</text>
</a>
</g>
</g>
<!-- Node10&#45;&gt;Node1 -->
<g id="edge40_Node000001_Node000010" class="edge">
<title>Node10&#45;&gt;Node1</title>
<g id="a_edge40_Node000001_Node000010"><a xlink:title=" ">
<path fill="none" stroke="#9a32cd" stroke-dasharray="5,2" d="M703.48,-257.9C816.11,-255.77 1069.38,-250.75 1282.55,-245 1324.22,-243.88 1335.3,-249.55 1376.3,-242 1383.17,-240.74 1390.39,-238.64 1397.05,-236.37"/>
<polygon fill="#9a32cd" stroke="#9a32cd" points="703.5,-254.4 693.57,-258.09 703.64,-261.4 703.5,-254.4"/>
</a>
</g>
<text text-anchor="middle" x="1089.18" y="-252.5" font-family="Helvetica,sans-Serif" font-size="10.00" fill="grey"> m_ullQueueSize</text>
</g>
<!-- Node10&#45;&gt;Node8 -->
<g id="edge12_Node000008_Node000010" class="edge">
<title>Node10&#45;&gt;Node8</title>
<g id="a_edge12_Node000008_Node000010"><a xlink:title=" ">
<path fill="none" stroke="#9a32cd" stroke-dasharray="5,2" d="M703.43,-261.93C814.92,-268.14 1052.07,-284.77 1127.05,-317 1159.36,-330.89 1189.3,-360.69 1203.74,-376.56"/>
<polygon fill="#9a32cd" stroke="#9a32cd" points="703.76,-258.44 693.59,-261.39 703.38,-265.43 703.76,-258.44"/>
</a>
</g>
<text text-anchor="middle" x="949.55" y="-295.5" font-family="Helvetica,sans-Serif" font-size="10.00" fill="grey"> m_ullFlushInterval</text>
</g>
<!-- Node19 -->
<g id="Node000019" class="node">
<title>Node19</title>
<g id="a_Node000019"><a xlink:title=" ">
<polygon fill="white" stroke="#666666" points="1026.93,-147 872.18,-147 872.18,-127 1026.93,-127 1026.93,-147"/>
<text text-anchor="middle" x="949.55" y="-133.5" font-family="Helvetica,sans-Serif" font-size="10.00">std::pair&lt; ullint, AELogEntry * &gt;</text>
</a>
</g>
</g>
<!-- Node10&#45;&gt;Node19 -->
<g id="edge24_Node000019_Node000010" class="edge">
<title>Node10&#45;&gt;Node19</title>
<g id="a_edge24_Node000019_Node000010"><a xlink:title=" ">
<path fill="none" stroke="#9a32cd" stroke-dasharray="5,2" d="M703.04,-249.29C710.14,-246.85 717.08,-243.81 723.3,-240 733.78,-233.58 731.29,-226.14 741.3,-219 792.18,-182.72 861.35,-159.58 905.48,-147.44"/>
<polygon fill="#9a32cd" stroke="#9a32cd" points="702.23,-245.88 693.65,-252.1 704.24,-252.58 702.23,-245.88"/>
</a>
</g>
<text text-anchor="middle" x="794.55" y="-221.5" font-family="Helvetica,sans-Serif" font-size="10.00" fill="grey"> first_type</text>
</g>
<!-- Node11 -->
<g id="Node000011" class="node">
<title>Node11</title>
<g id="a_Node000011"><a xlink:title=" ">
<polygon fill="white" stroke="#666666" points="979.3,-417 919.8,-417 919.8,-397 979.3,-397 979.3,-417"/>
<text text-anchor="middle" x="949.55" y="-403.5" font-family="Helvetica,sans-Serif" font-size="10.00">std::string</text>
</a>
</g>
</g>
<!-- Node11&#45;&gt;Node8 -->
<g id="edge13_Node000008_Node000011" class="edge">
<title>Node11&#45;&gt;Node8</title>
<g id="a_edge13_Node000008_Node000011"><a xlink:title=" ">
<path fill="none" stroke="#9a32cd" stroke-dasharray="5,2" d="M990.87,-403.93C1042,-400.03 1129.31,-393.37 1177.78,-389.67"/>
<polygon fill="#9a32cd" stroke="#9a32cd" points="990.83,-400.42 981.13,-404.67 991.36,-407.4 990.83,-400.42"/>
</a>
</g>
<text text-anchor="middle" x="1089.18" y="-400.5" font-family="Helvetica,sans-Serif" font-size="10.00" fill="grey"> m_sFilename</text>
</g>
<!-- Node12 -->
<g id="Node000012" class="node">
<title>Node12</title>
<g id="a_Node000012"><a xlink:title=" ">
<polygon fill="white" stroke="#666666" points="706.55,-408 580.3,-408 580.3,-388 706.55,-388 706.55,-408"/>
<text text-anchor="middle" x="643.43" y="-394.5" font-family="Helvetica,sans-Serif" font-size="10.00">std::basic_string&lt; Char &gt;</text>
</a>
</g>
</g>
<!-- Node12&#45;&gt;Node11 -->
<g id="edge14_Node000011_Node000012" class="edge">
<title>Node12&#45;&gt;Node11</title>
<g id="a_edge14_Node000011_Node000012"><a xlink:title=" ">
<path fill="none" stroke="#63b8ff" d="M718.06,-400.18C782.76,-402.09 873.54,-404.78 919.48,-406.14"/>
<polygon fill="#63b8ff" stroke="#63b8ff" points="718.32,-396.69 708.22,-399.89 718.11,-403.68 718.32,-396.69"/>
</a>
</g>
</g>
<!-- Node13&#45;&gt;Node1 -->
<g id="edge39_Node000001_Node000013" class="edge">
<title>Node13&#45;&gt;Node1</title>
<g id="a_edge39_Node000001_Node000013"><a xlink:title=" ">
<path fill="none" stroke="#9a32cd" stroke-dasharray="5,2" d="M1012.76,-532.72C1047.31,-532.35 1090.55,-528.75 1127.05,-516 1253.17,-471.94 1293.29,-452.67 1376.3,-348 1404.32,-312.67 1416.8,-258.55 1420.97,-236.2"/>
<polygon fill="#9a32cd" stroke="#9a32cd" points="1012.91,-529.22 1002.92,-532.72 1012.92,-536.22 1012.91,-529.22"/>
</a>
</g>
<text text-anchor="middle" x="1213.8" y="-522.5" font-family="Helvetica,sans-Serif" font-size="10.00" fill="grey"> m_ullFilledCount</text>
<text text-anchor="middle" x="1213.8" y="-510.5" font-family="Helvetica,sans-Serif" font-size="10.00" fill="grey">m_ullNodeNumber</text>
</g>
<!-- Node13&#45;&gt;Node8 -->
<g id="edge15_Node000008_Node000013" class="edge">
<title>Node13&#45;&gt;Node8</title>
<g id="a_edge15_Node000008_Node000013"><a xlink:title=" ">
<path fill="none" stroke="#9a32cd" stroke-dasharray="5,2" d="M1012.31,-516.86C1019.43,-515.04 1026.55,-513.08 1033.3,-511 1041.5,-508.48 1043.19,-506.8 1051.3,-504 1084.55,-492.5 1097.3,-499.78 1127.05,-481 1162.92,-458.36 1193.22,-416.81 1206.13,-397.44"/>
<polygon fill="#9a32cd" stroke="#9a32cd" points="1011.53,-513.45 1002.65,-519.24 1013.2,-520.25 1011.53,-513.45"/>
</a>
</g>
<text text-anchor="middle" x="1089.18" y="-506.5" font-family="Helvetica,sans-Serif" font-size="10.00" fill="grey"> m_ullTotalWrites</text>
</g>
<!-- Node14 -->
<g id="Node000014" class="node">
<title>Node14</title>
<g id="a_Node000014"><a xlink:title=" ">
<polygon fill="white" stroke="#666666" points="661.55,-583 625.3,-583 625.3,-563 661.55,-563 661.55,-583"/>
<text text-anchor="middle" x="643.43" y="-569.5" font-family="Helvetica,sans-Serif" font-size="10.00">ullint</text>
</a>
</g>
</g>
<!-- Node14&#45;&gt;Node13 -->
<g id="edge16_Node000013_Node000014" class="edge">
<title>Node14&#45;&gt;Node13</title>
<g id="a_edge16_Node000013_Node000014"><a xlink:title=" ">
<path fill="none" stroke="#9a32cd" stroke-dasharray="5,2" d="M673.22,-576.59C712.96,-580.74 786.64,-585.5 847.8,-573 878.17,-566.79 910.71,-551.06 930.35,-540.44"/>
<polygon fill="#9a32cd" stroke="#9a32cd" points="673.63,-573.12 663.31,-575.48 672.86,-580.07 673.63,-573.12"/>
</a>
</g>
<text text-anchor="middle" x="794.55" y="-583.5" font-family="Helvetica,sans-Serif" font-size="10.00" fill="grey"> ptr</text>
</g>
<!-- Node15 -->
<g id="Node000015" class="node">
<title>Node15</title>
<g id="a_Node000015"><a xlink:title=" ">
<polygon fill="white" stroke="#666666" points="971.05,-379 928.05,-379 928.05,-359 971.05,-359 971.05,-379"/>
<text text-anchor="middle" x="949.55" y="-365.5" font-family="Helvetica,sans-Serif" font-size="10.00">FILE *</text>
</a>
</g>
</g>
<!-- Node15&#45;&gt;Node8 -->
<g id="edge19_Node000008_Node000015" class="edge">
<title>Node15&#45;&gt;Node8</title>
<g id="a_edge19_Node000008_Node000015"><a xlink:title=" ">
<path fill="none" stroke="#9a32cd" stroke-dasharray="5,2" d="M982.61,-368.05C1018.04,-367.34 1076.75,-367.2 1127.05,-372 1143.9,-373.61 1162.42,-376.68 1177.92,-379.63"/>
<polygon fill="#9a32cd" stroke="#9a32cd" points="982.96,-364.54 973.04,-368.27 983.12,-371.54 982.96,-364.54"/>
</a>
</g>
<text text-anchor="middle" x="1089.18" y="-374.5" font-family="Helvetica,sans-Serif" font-size="10.00" fill="grey"> m_fpFilestr</text>
</g>
<!-- Node16 -->
<g id="Node000016" class="node">
<title>Node16</title>
<g id="a_Node000016"><a xlink:title=" ">
<polygon fill="white" stroke="#666666" points="171.55,-254 131.55,-254 131.55,-234 171.55,-234 171.55,-254"/>
<text text-anchor="middle" x="151.55" y="-240.5" font-family="Helvetica,sans-Serif" font-size="10.00">int8_t</text>
</a>
</g>
</g>
<!-- Node16&#45;&gt;Node8 -->
<g id="edge20_Node000008_Node000016" class="edge">
<title>Node16&#45;&gt;Node8</title>
<g id="a_edge20_Node000008_Node000016"><a xlink:title=" ">
<path fill="none" stroke="#9a32cd" stroke-dasharray="5,2" d="M182.27,-254.29C187.01,-256.71 191.63,-259.59 195.55,-263 207,-272.95 201.23,-283.14 213.55,-292 274.91,-336.12 303.48,-331 379.05,-331 379.05,-331 379.05,-331 950.55,-331 1036.91,-331 1135.81,-360.4 1183.74,-376.6"/>
<polygon fill="#9a32cd" stroke="#9a32cd" points="183.89,-251.18 173.33,-250.35 181.07,-257.59 183.89,-251.18"/>
</a>
</g>
<text text-anchor="middle" x="643.43" y="-333.5" font-family="Helvetica,sans-Serif" font-size="10.00" fill="grey"> m_cFlags</text>
</g>
<!-- Node20 -->
<g id="Node000020" class="node">
<title>Node20</title>
<g id="a_Node000020"><a xlink:href="../../da/dea/struct_a_e_log_entry.html" target="_top" xlink:title="The structure for the data of the log entry to be manipulated with the log files.">
<polygon fill="white" stroke="#666666" points="677.68,-201 609.18,-201 609.18,-181 677.68,-181 677.68,-201"/>
<text text-anchor="middle" x="643.43" y="-187.5" font-family="Helvetica,sans-Serif" font-size="10.00">AELogEntry</text>
</a>
</g>
</g>
<!-- Node16&#45;&gt;Node20 -->
<g id="edge29_Node000020_Node000016" class="edge">
<title>Node16&#45;&gt;Node20</title>
<g id="a_edge29_Node000020_Node000016"><a xlink:title=" ">
<path fill="none" stroke="#9a32cd" stroke-dasharray="5,2" d="M168.26,-224.95C179.49,-212.85 195.71,-198.17 213.55,-191 351.21,-135.68 534.39,-166.47 608.84,-182.84"/>
<polygon fill="#9a32cd" stroke="#9a32cd" points="165.69,-222.58 161.71,-232.4 170.95,-227.2 165.69,-222.58"/>
</a>
</g>
<text text-anchor="middle" x="380.05" y="-166.5" font-family="Helvetica,sans-Serif" font-size="10.00" fill="grey"> m_cLogType</text>
</g>
<!-- Node16&#45;&gt;Node23 -->
<g id="edge31_Node000023_Node000016" class="edge">
<title>Node16&#45;&gt;Node23</title>
<g id="a_edge31_Node000023_Node000016"><a xlink:title=" ">
<path fill="none" stroke="#9a32cd" stroke-dasharray="5,2" d="M183.15,-240.35C221.04,-235.84 286.03,-228.09 330.69,-222.76"/>
<polygon fill="#9a32cd" stroke="#9a32cd" points="182.88,-236.86 173.36,-241.52 183.71,-243.81 182.88,-236.86"/>
</a>
</g>
<text text-anchor="middle" x="255.68" y="-238.5" font-family="Helvetica,sans-Serif" font-size="10.00" fill="grey"> ptr</text>
</g>
<!-- Node17 -->
<g id="Node000017" class="node">
<title>Node17</title>
<g id="a_Node000017"><a xlink:title=" ">
<polygon fill="white" stroke="#666666" points="1245.05,-236 1182.55,-236 1182.55,-216 1245.05,-216 1245.05,-236"/>
<text text-anchor="middle" x="1213.8" y="-222.5" font-family="Helvetica,sans-Serif" font-size="10.00">std::mutex</text>
</a>
</g>
</g>
<!-- Node17&#45;&gt;Node1 -->
<g id="edge21_Node000001_Node000017" class="edge">
<title>Node17&#45;&gt;Node1</title>
<g id="a_edge21_Node000001_Node000017"><a xlink:title=" ">
<path fill="none" stroke="#9a32cd" stroke-dasharray="5,2" d="M1256.92,-226C1297.68,-226 1358.36,-226 1393.89,-226"/>
<polygon fill="#9a32cd" stroke="#9a32cd" points="1256.99,-222.5 1246.99,-226 1256.99,-229.5 1256.99,-222.5"/>
</a>
</g>
<text text-anchor="middle" x="1338.43" y="-228.5" font-family="Helvetica,sans-Serif" font-size="10.00" fill="grey"> m_mtxAllocLock</text>
</g>
<!-- Node18 -->
<g id="Node000018" class="node">
<title>Node18</title>
<g id="a_Node000018"><a xlink:title=" ">
<polygon fill="white" stroke="#666666" points="1282.55,-159 1145.05,-159 1145.05,-127 1282.55,-127 1282.55,-159"/>
<text text-anchor="start" x="1153.05" y="-145.5" font-family="Helvetica,sans-Serif" font-size="10.00">std::vector&lt; std::pair&lt; ullint,</text>
<text text-anchor="middle" x="1213.8" y="-133.5" font-family="Helvetica,sans-Serif" font-size="10.00"> AELogEntry * &gt; &gt;</text>
</a>
</g>
</g>
<!-- Node18&#45;&gt;Node1 -->
<g id="edge22_Node000001_Node000018" class="edge">
<title>Node18&#45;&gt;Node1</title>
<g id="a_edge22_Node000001_Node000018"><a xlink:title=" ">
<path fill="none" stroke="#9a32cd" stroke-dasharray="5,2" d="M1293.97,-139.62C1321.6,-141.62 1351.79,-147.63 1376.3,-162 1397.6,-174.5 1411.88,-201.06 1418.47,-215.73"/>
<polygon fill="#9a32cd" stroke="#9a32cd" points="1294.41,-136.14 1284.23,-139.09 1294.03,-143.13 1294.41,-136.14"/>
</a>
</g>
<text text-anchor="middle" x="1338.43" y="-164.5" font-family="Helvetica,sans-Serif" font-size="10.00" fill="grey"> m_vAllocTable</text>
</g>
<!-- Node19&#45;&gt;Node18 -->
<g id="edge23_Node000018_Node000019" class="edge">
<title>Node19&#45;&gt;Node18</title>
<g id="a_edge23_Node000018_Node000019"><a xlink:title=" ">
<path fill="none" stroke="#9a32cd" stroke-dasharray="5,2" d="M1038.19,-139.01C1072.88,-139.8 1112.14,-140.7 1144.63,-141.44"/>
<polygon fill="#9a32cd" stroke="#9a32cd" points="1038.7,-135.52 1028.62,-138.79 1038.54,-142.51 1038.7,-135.52"/>
</a>
</g>
<text text-anchor="middle" x="1089.18" y="-142.5" font-family="Helvetica,sans-Serif" font-size="10.00" fill="grey"> elements</text>
</g>
<!-- Node20&#45;&gt;Node1 -->
<g id="edge41_Node000001_Node000020" class="edge">
<title>Node20&#45;&gt;Node1</title>
<g id="a_edge41_Node000001_Node000020"><a xlink:title=" ">
<path fill="none" stroke="#9a32cd" stroke-dasharray="5,2" d="M689.38,-190.44C793.75,-189.5 1060.51,-189.22 1282.55,-207 1321.34,-210.11 1365.81,-216.65 1394.06,-221.18"/>
<polygon fill="#9a32cd" stroke="#9a32cd" points="689.53,-186.93 679.56,-190.53 689.6,-193.93 689.53,-186.93"/>
</a>
</g>
<text text-anchor="middle" x="1089.18" y="-211.5" font-family="Helvetica,sans-Serif" font-size="10.00" fill="grey"> m_lepLastNode</text>
<text text-anchor="middle" x="1089.18" y="-199.5" font-family="Helvetica,sans-Serif" font-size="10.00" fill="grey">m_lepQueue</text>
</g>
<!-- Node20&#45;&gt;Node19 -->
<g id="edge25_Node000019_Node000020" class="edge">
<title>Node20&#45;&gt;Node19</title>
<g id="a_edge25_Node000019_Node000020"><a xlink:title=" ">
<path fill="none" stroke="#9a32cd" stroke-dasharray="5,2" d="M664.56,-173.5C683.08,-158.65 712.03,-138.45 741.3,-130 792.84,-115.13 854.59,-119.94 897.21,-126.56"/>
<polygon fill="#9a32cd" stroke="#9a32cd" points="662.52,-170.65 657.05,-179.72 666.98,-176.04 662.52,-170.65"/>
</a>
</g>
<text text-anchor="middle" x="794.55" y="-132.5" font-family="Helvetica,sans-Serif" font-size="10.00" fill="grey"> second_type</text>
</g>
<!-- Node20&#45;&gt;Node20 -->
<g id="edge28_Node000020_Node000020" class="edge">
<title>Node20&#45;&gt;Node20</title>
<g id="a_edge28_Node000020_Node000020"><a xlink:title=" ">
<path fill="none" stroke="#9a32cd" stroke-dasharray="5,2" d="M618.77,-212.44C621.95,-216.3 630.16,-219 643.43,-219 667.67,-219 675.06,-209.98 665.59,-201.34"/>
<polygon fill="#9a32cd" stroke="#9a32cd" points="622.15,-213.34 620.93,-202.82 615.32,-211.81 622.15,-213.34"/>
</a>
</g>
<text text-anchor="middle" x="643.43" y="-221.5" font-family="Helvetica,sans-Serif" font-size="10.00" fill="grey"> m_pNextNode</text>
</g>
<!-- Node21 -->
<g id="Node000021" class="node">
<title>Node21</title>
<g id="a_Node000021"><a xlink:title=" ">
<polygon fill="white" stroke="#666666" points="397.43,-265 362.68,-265 362.68,-245 397.43,-245 397.43,-265"/>
<text text-anchor="middle" x="380.05" y="-251.5" font-family="Helvetica,sans-Serif" font-size="10.00">char</text>
</a>
</g>
</g>
<!-- Node21&#45;&gt;Node20 -->
<g id="edge26_Node000020_Node000021" class="edge">
<title>Node21&#45;&gt;Node20</title>
<g id="a_edge26_Node000020_Node000021"><a xlink:title=" ">
<path fill="none" stroke="#9a32cd" stroke-dasharray="5,2" d="M408.55,-251.04C441.43,-246.03 497.99,-236.51 545.55,-224 569.43,-217.72 595.94,-208.53 615.18,-201.44"/>
<polygon fill="#9a32cd" stroke="#9a32cd" points="408.44,-247.52 399.06,-252.46 409.47,-254.44 408.44,-247.52"/>
</a>
</g>
<text text-anchor="middle" x="503.93" y="-255.5" font-family="Helvetica,sans-Serif" font-size="10.00" fill="grey"> m_sLogMessage</text>
<text text-anchor="middle" x="503.93" y="-243.5" font-family="Helvetica,sans-Serif" font-size="10.00" fill="grey">m_sModuleName</text>
</g>
<!-- Node22 -->
<g id="Node000022" class="node">
<title>Node22</title>
<g id="a_Node000022"><a xlink:title=" ">
<polygon fill="white" stroke="#666666" points="401.55,-303 358.55,-303 358.55,-283 401.55,-283 401.55,-303"/>
<text text-anchor="middle" x="380.05" y="-289.5" font-family="Helvetica,sans-Serif" font-size="10.00">time_t</text>
</a>
</g>
</g>
<!-- Node22&#45;&gt;Node20 -->
<g id="edge27_Node000020_Node000022" class="edge">
<title>Node22&#45;&gt;Node20</title>
<g id="a_edge27_Node000020_Node000022"><a xlink:title=" ">
<path fill="none" stroke="#9a32cd" stroke-dasharray="5,2" d="M413.04,-295.93C448.37,-297.55 505.54,-295.22 545.55,-269 558.24,-260.69 552.83,-250.73 563.55,-240 580.08,-223.47 603.19,-209.94 620.12,-201.32"/>
<polygon fill="#9a32cd" stroke="#9a32cd" points="413.66,-292.46 403.47,-295.35 413.24,-299.45 413.66,-292.46"/>
</a>
</g>
<text text-anchor="middle" x="503.93" y="-296.5" font-family="Helvetica,sans-Serif" font-size="10.00" fill="grey"> m_tmLogTime</text>
</g>
<!-- Node23&#45;&gt;Node20 -->
<g id="edge30_Node000020_Node000023" class="edge">
<title>Node23&#45;&gt;Node20</title>
<g id="a_edge30_Node000020_Node000023"><a xlink:title=" ">
<path fill="none" stroke="#9a32cd" stroke-dasharray="5,2" d="M441,-211.04C492.99,-205.87 566.34,-198.57 608.68,-194.36"/>
<polygon fill="#9a32cd" stroke="#9a32cd" points="440.71,-207.55 431.11,-212.02 441.4,-214.51 440.71,-207.55"/>
</a>
</g>
<text text-anchor="middle" x="503.93" y="-210.5" font-family="Helvetica,sans-Serif" font-size="10.00" fill="grey"> m_cStatus</text>
</g>
<!-- Node24 -->
<g id="Node000024" class="node">
<title>Node24</title>
<g id="a_Node000024"><a xlink:title=" ">
<polygon fill="white" stroke="#666666" points="691.55,-105 595.3,-105 595.3,-85 691.55,-85 691.55,-105"/>
<text text-anchor="middle" x="643.43" y="-91.5" font-family="Helvetica,sans-Serif" font-size="10.00">std::pair&lt; T1, T2 &gt;</text>
</a>
</g>
</g>
<!-- Node24&#45;&gt;Node19 -->
<g id="edge33_Node000019_Node000024" class="edge">
<title>Node24&#45;&gt;Node19</title>
<g id="a_edge33_Node000019_Node000024"><a xlink:title=" ">
<path fill="none" stroke="orange" stroke-dasharray="5,2" d="M703.2,-88.94C744.14,-86.19 799.8,-85.4 847.8,-95 877.9,-101.02 910.25,-116.24 929.95,-126.61"/>
<polygon fill="orange" stroke="orange" points="703.02,-85.45 693.3,-89.68 703.53,-92.43 703.02,-85.45"/>
</a>
</g>
<text text-anchor="middle" x="794.55" y="-97.5" font-family="Helvetica,sans-Serif" font-size="10.00" fill="grey"> &lt; ullint, AELogEntry * &gt;</text>
</g>
<!-- Node25 -->
<g id="Node000025" class="node">
<title>Node25</title>
<g id="a_Node000025"><a xlink:title=" ">
<polygon fill="white" stroke="#666666" points="394.45,-141 365.65,-141 365.65,-121 394.45,-121 394.45,-141"/>
<text text-anchor="middle" x="380.05" y="-127.5" font-family="Helvetica,sans-Serif" font-size="10.00">T1</text>
</a>
</g>
</g>
<!-- Node25&#45;&gt;Node24 -->
<g id="edge34_Node000024_Node000025" class="edge">
<title>Node25&#45;&gt;Node24</title>
<g id="a_edge34_Node000024_Node000025"><a xlink:title=" ">
<path fill="none" stroke="#9a32cd" stroke-dasharray="5,2" d="M405.7,-127.79C437.88,-123.57 495.95,-115.9 545.55,-109 561.71,-106.75 579.37,-104.22 595.14,-101.94"/>
<polygon fill="#9a32cd" stroke="#9a32cd" points="405.67,-124.26 396.21,-129.03 406.58,-131.2 405.67,-124.26"/>
</a>
</g>
<text text-anchor="middle" x="503.93" y="-121.5" font-family="Helvetica,sans-Serif" font-size="10.00" fill="grey"> first_type</text>
</g>
<!-- Node26 -->
<g id="Node000026" class="node">
<title>Node26</title>
<g id="a_Node000026"><a xlink:title=" ">
<polygon fill="white" stroke="#666666" points="394.45,-103 365.65,-103 365.65,-83 394.45,-83 394.45,-103"/>
<text text-anchor="middle" x="380.05" y="-89.5" font-family="Helvetica,sans-Serif" font-size="10.00">T2</text>
</a>
</g>
</g>
<!-- Node26&#45;&gt;Node24 -->
<g id="edge35_Node000024_Node000026" class="edge">
<title>Node26&#45;&gt;Node24</title>
<g id="a_edge35_Node000024_Node000026"><a xlink:title=" ">
<path fill="none" stroke="#9a32cd" stroke-dasharray="5,2" d="M406.17,-93.19C449.63,-93.52 539.52,-94.21 595.03,-94.64"/>
<polygon fill="#9a32cd" stroke="#9a32cd" points="406.27,-89.69 396.25,-93.12 406.22,-96.69 406.27,-89.69"/>
</a>
</g>
<text text-anchor="middle" x="503.93" y="-97.5" font-family="Helvetica,sans-Serif" font-size="10.00" fill="grey"> second_type</text>
</g>
<!-- Node27&#45;&gt;Node18 -->
<g id="edge36_Node000018_Node000027" class="edge">
<title>Node27&#45;&gt;Node18</title>
<g id="a_edge36_Node000018_Node000027"><a xlink:title=" ">
<path fill="none" stroke="orange" stroke-dasharray="5,2" d="M283.08,-87.98C293.01,-82.67 304.61,-77.28 315.8,-74 396.01,-50.47 419.33,-55 502.93,-55 502.93,-55 502.93,-55 950.55,-55 961.67,-55 1094.02,-101.08 1166.33,-126.55"/>
<polygon fill="orange" stroke="orange" points="281.39,-84.91 274.38,-92.86 284.82,-91.02 281.39,-84.91"/>
</a>
</g>
<text text-anchor="middle" x="643.43" y="-57.5" font-family="Helvetica,sans-Serif" font-size="10.00" fill="grey"> &lt; std::pair&lt; ullint, AELogEntry * &gt; &gt;</text>
</g>
<!-- Node28 -->
<g id="Node000028" class="node">
<title>Node28</title>
<g id="a_Node000028"><a xlink:title=" ">
<polygon fill="white" stroke="#666666" points="1245.05,-109 1182.55,-109 1182.55,-89 1245.05,-89 1245.05,-109"/>
<text text-anchor="middle" x="1213.8" y="-95.5" font-family="Helvetica,sans-Serif" font-size="10.00">std::thread</text>
</a>
</g>
</g>
<!-- Node28&#45;&gt;Node1 -->
<g id="edge38_Node000001_Node000028" class="edge">
<title>Node28&#45;&gt;Node1</title>
<g id="a_edge38_Node000001_Node000028"><a xlink:title=" ">
<path fill="none" stroke="#9a32cd" stroke-dasharray="5,2" d="M1256.84,-95.1C1292.15,-94.07 1342.18,-98.12 1376.3,-124 1406.68,-147.04 1417.72,-194.59 1421.23,-215.61"/>
<polygon fill="#9a32cd" stroke="#9a32cd" points="1256.81,-91.6 1246.98,-95.55 1257.13,-98.59 1256.81,-91.6"/>
</a>
</g>
<text text-anchor="middle" x="1338.43" y="-126.5" font-family="Helvetica,sans-Serif" font-size="10.00" fill="grey"> m_trdWriter</text>
</g>
<!-- Node29&#45;&gt;Node1 -->
<g id="edge42_Node000001_Node000029" class="edge">
<title>Node29&#45;&gt;Node1</title>
<g id="a_edge42_Node000001_Node000029"><a xlink:title=" ">
<path fill="none" stroke="#9a32cd" stroke-dasharray="5,2" d="M441.89,-7.45C494.85,-5.45 573.7,-3 642.43,-3 642.43,-3 642.43,-3 1214.8,-3 1297.19,-3 1323.37,-30.87 1376.3,-94 1407.67,-131.41 1418.37,-191.45 1421.52,-215.52"/>
<polygon fill="#9a32cd" stroke="#9a32cd" points="442.03,-3.94 432.17,-7.82 442.3,-10.94 442.03,-3.94"/>
</a>
</g>
<text text-anchor="middle" x="949.55" y="-17.5" font-family="Helvetica,sans-Serif" font-size="10.00" fill="grey"> m_bQueueFilled</text>
<text text-anchor="middle" x="949.55" y="-5.5" font-family="Helvetica,sans-Serif" font-size="10.00" fill="grey">m_bRunTrd</text>
</g>
<!-- Node30 -->
<g id="Node000030" class="node">
<title>Node30</title>
<g id="a_Node000030"><a xlink:title=" ">
<polygon fill="white" stroke="#666666" points="168.55,-20 134.55,-20 134.55,0 168.55,0 168.55,-20"/>
<text text-anchor="middle" x="151.55" y="-6.5" font-family="Helvetica,sans-Serif" font-size="10.00">bool</text>
</a>
</g>
</g>
<!-- Node30&#45;&gt;Node29 -->
<g id="edge43_Node000029_Node000030" class="edge">
<title>Node30&#45;&gt;Node29</title>
<g id="a_edge43_Node000029_Node000030"><a xlink:title=" ">
<path fill="none" stroke="#9a32cd" stroke-dasharray="5,2" d="M180.22,-10C217.29,-10 283.73,-10 329.54,-10"/>
<polygon fill="#9a32cd" stroke="#9a32cd" points="180.35,-6.5 170.35,-10 180.35,-13.5 180.35,-6.5"/>
</a>
</g>
<text text-anchor="middle" x="255.68" y="-12.5" font-family="Helvetica,sans-Serif" font-size="10.00" fill="grey"> ptr</text>
</g>
</g>
</svg>

<g id="navigator" transform="translate(0 0)" fill="#404254">
  <rect fill="#f2f5e9" fill-opacity="0.5" stroke="#606060" stroke-width=".5" x="0" y="0" width="60" height="60"/>
  <use id="zoomplus" xlink:href="#zoomPlus" x="17" y="9" onmousedown="handleZoom(evt,'in')"/>
  <use id="zoomminus" xlink:href="#zoomMin" x="42" y="9" onmousedown="handleZoom(evt,'out')"/>
  <use id="reset" xlink:href="#resetDef" x="30" y="36" onmousedown="handleReset()"/>
   <use id="arrowup" xlink:href="#arrowUp" x="0" y="0" onmousedown="handlePan(0,-1)"/>
  <use id="arrowright" xlink:href="#arrowRight" x="0" y="0" onmousedown="handlePan(1,0)"/>
  <use id="arrowdown" xlink:href="#arrowDown" x="0" y="0" onmousedown="handlePan(0,1)"/>
  <use id="arrowleft" xlink:href="#arrowLeft" x="0" y="0" onmousedown="handlePan(-1,0)"/>
</g>
<svg viewBox="0 0 15 15" width="100%" height="30px" preserveAspectRatio="xMaxYMin meet">
 <g id="arrow_out" transform="scale(0.3 0.3)">
  <a xlink:href="class_a_e_logger__coll__graph_org.svg" target="_base">
   <rect id="button" ry="5" rx="5" y="6" x="6" height="38" width="38"
        fill="#f2f5e9" fill-opacity="0.5" stroke="#606060" stroke-width="1.0"/>
   <path id="arrow"
     d="M 11.500037,31.436501 C 11.940474,20.09759 22.043105,11.32322 32.158766,21.979434 L 37.068811,17.246167 C 37.068811,17.246167 37.088388,32 37.088388,32 L 22.160133,31.978069 C 22.160133,31.978069 26.997745,27.140456 26.997745,27.140456 C 18.528582,18.264221 13.291696,25.230495 11.500037,31.436501 z"
     style="fill:#404040;"/>
  </a>
 </g>
</svg>

<style type='text/css'>
<![CDATA[
[data-mouse-over-selected='false'] { opacity: 0.7; }
[data-mouse-over-selected='true']  { opacity: 1.0; }
]]>
</style>
<script type="application/ecmascript"><![CDATA[
document.addEventListener('DOMContentLoaded', (event) => {
  highlightEdges();
  highlightAdjacentNodes();
});
]]></script>
</svg>
