<?xml version="1.0" encoding="UTF-8" standalone="no"?>
<!DOCTYPE svg PUBLIC "-//W3C//DTD SVG 1.1//EN"
 "http://www.w3.org/Graphics/SVG/1.1/DTD/svg11.dtd">
<!-- Generated by graphviz version 10.0.1 (20240210.2158)
 -->
<!-- Title: AELogger Pages: 1 -->
<svg width="1473pt" height="928pt"
 viewBox="0.00 0.00 1473.05 927.59" xmlns="http://www.w3.org/2000/svg" xmlns:xlink="http://www.w3.org/1999/xlink">
<g id="graph0" class="graph" transform="scale(1 1) rotate(0) translate(4 923.59)">
<title>AELogger</title>
<!-- Node1 -->
<g id="Node000001" class="node">
<title>Node1</title>
<g id="a_Node000001"><a xlink:title="The ArtyK&#39;s Engine&#39;s Logger module – it manages the writing to the log files.">
<polygon fill="#999999" stroke="#666666" points="1465.05,-271.59 1406.3,-271.59 1406.3,-251.59 1465.05,-251.59 1465.05,-271.59"/>
<text text-anchor="middle" x="1435.68" y="-258.09" font-family="Helvetica,sans-Serif" font-size="10.00">AELogger</text>
</a>
</g>
</g>
<!-- Node2 -->
<g id="Node000002" class="node">
<title>Node2</title>
<g id="a_Node000002"><a xlink:href="../../d0/d8a/class_____a_e_module_base.html" target="_top" xlink:title=" ">
<polygon fill="white" stroke="#666666" points="1040.43,-723.59 885.68,-723.59 885.68,-703.59 1040.43,-703.59 1040.43,-723.59"/>
<text text-anchor="middle" x="963.05" y="-710.09" font-family="Helvetica,sans-Serif" font-size="10.00">__AEModuleBase&lt; AELogger &gt;</text>
</a>
</g>
</g>
<!-- Node2&#45;&gt;Node1 -->
<g id="edge1_Node000001_Node000002" class="edge">
<title>Node2&#45;&gt;Node1</title>
<g id="a_edge1_Node000001_Node000002"><a xlink:title=" ">
<path fill="none" stroke="#63b8ff" d="M994.52,-697.93C1071.4,-656.97 1275.12,-539.11 1388.3,-385.59 1415.44,-348.78 1428.41,-294.27 1432.84,-271.82"/>
<polygon fill="#63b8ff" stroke="#63b8ff" points="993.09,-694.73 985.88,-702.49 996.36,-700.92 993.09,-694.73"/>
</a>
</g>
</g>
<!-- Node3 -->
<g id="Node000003" class="node">
<title>Node3</title>
<g id="a_Node000003"><a xlink:title=" ">
<polygon fill="white" stroke="#666666" points="444.3,-561.59 315.8,-561.59 315.8,-541.59 444.3,-541.59 444.3,-561.59"/>
<text text-anchor="middle" x="380.05" y="-548.09" font-family="Helvetica,sans-Serif" font-size="10.00">std::atomic&lt; std::size_t &gt;</text>
</a>
</g>
</g>
<!-- Node3&#45;&gt;Node2 -->
<g id="edge2_Node000002_Node000003" class="edge">
<title>Node3&#45;&gt;Node2</title>
<g id="a_edge2_Node000002_Node000003"><a xlink:title=" ">
<path fill="none" stroke="#9a32cd" stroke-dasharray="5,2" d="M400.23,-570.15C414.33,-584.8 432.94,-606.4 444.3,-628.59 458.55,-656.42 437.85,-677.1 462.3,-696.59 494.5,-722.26 753.53,-719.22 885.44,-715.92"/>
<polygon fill="#9a32cd" stroke="#9a32cd" points="402.73,-567.7 393.2,-563.06 397.76,-572.63 402.73,-567.7"/>
</a>
</g>
<text text-anchor="middle" x="656.93" y="-720.09" font-family="Helvetica,sans-Serif" font-size="10.00" fill="grey"> m_ullModulesAlive</text>
</g>
<!-- Node10 -->
<g id="Node000010" class="node">
<title>Node10</title>
<g id="a_Node000010"><a xlink:href="../../d0/d8a/class_____a_e_module_base.html" target="_top" xlink:title="This is a base class for all the modules in the engine; all basic modules inherit from it.">
<polygon fill="white" stroke="#666666" points="715.55,-629.59 598.3,-629.59 598.3,-609.59 715.55,-609.59 715.55,-629.59"/>
<text text-anchor="middle" x="656.93" y="-616.09" font-family="Helvetica,sans-Serif" font-size="10.00">__AEModuleBase&lt; T &gt;</text>
</a>
</g>
</g>
<!-- Node3&#45;&gt;Node10 -->
<g id="edge11_Node000010_Node000003" class="edge">
<title>Node3&#45;&gt;Node10</title>
<g id="a_edge11_Node000010_Node000003"><a xlink:title=" ">
<path fill="none" stroke="#9a32cd" stroke-dasharray="5,2" d="M434.46,-564.8C486.75,-577.74 565.39,-597.19 613.53,-609.1"/>
<polygon fill="#9a32cd" stroke="#9a32cd" points="435.41,-561.44 424.87,-562.43 433.73,-568.23 435.41,-561.44"/>
</a>
</g>
<text text-anchor="middle" x="510.68" y="-596.09" font-family="Helvetica,sans-Serif" font-size="10.00" fill="grey"> m_ullModulesAlive</text>
</g>
<!-- Node12 -->
<g id="Node000012" class="node">
<title>Node12</title>
<g id="a_Node000012"><a xlink:href="../../d0/d8a/class_____a_e_module_base.html" target="_top" xlink:title=" ">
<polygon fill="white" stroke="#666666" points="1046.8,-589.59 879.3,-589.59 879.3,-569.59 1046.8,-569.59 1046.8,-589.59"/>
<text text-anchor="middle" x="963.05" y="-576.09" font-family="Helvetica,sans-Serif" font-size="10.00">__AEModuleBase&lt; AEFileWriter &gt;</text>
</a>
</g>
</g>
<!-- Node3&#45;&gt;Node12 -->
<g id="edge16_Node000012_Node000003" class="edge">
<title>Node3&#45;&gt;Node12</title>
<g id="a_edge16_Node000012_Node000003"><a xlink:title=" ">
<path fill="none" stroke="#9a32cd" stroke-dasharray="5,2" d="M455.67,-548.77C492.24,-547.52 536.95,-546.21 577.05,-545.59 648.04,-544.51 666,-540.28 736.8,-545.59 795.76,-550.02 862.68,-560.87 908.15,-569.13"/>
<polygon fill="#9a32cd" stroke="#9a32cd" points="455.98,-545.26 446.11,-549.1 456.22,-552.25 455.98,-545.26"/>
</a>
</g>
<text text-anchor="middle" x="656.93" y="-548.09" font-family="Helvetica,sans-Serif" font-size="10.00" fill="grey"> m_ullModulesAlive</text>
</g>
<!-- Node4 -->
<g id="Node000004" class="node">
<title>Node4</title>
<g id="a_Node000004"><a xlink:title=" ">
<polygon fill="white" stroke="#666666" points="172.68,-527.59 130.43,-527.59 130.43,-507.59 172.68,-507.59 172.68,-527.59"/>
<text text-anchor="middle" x="151.55" y="-514.09" font-family="Helvetica,sans-Serif" font-size="10.00">size_t</text>
</a>
</g>
</g>
<!-- Node4&#45;&gt;Node3 -->
<g id="edge3_Node000003_Node000004" class="edge">
<title>Node4&#45;&gt;Node3</title>
<g id="a_edge3_Node000003_Node000004"><a xlink:title=" ">
<path fill="none" stroke="#9a32cd" stroke-dasharray="5,2" d="M184.36,-524.24C193.74,-526.09 204.04,-528.03 213.55,-529.59 247.16,-535.13 284.78,-540.21 315.65,-544.1"/>
<polygon fill="#9a32cd" stroke="#9a32cd" points="185.08,-520.81 174.59,-522.26 183.7,-527.67 185.08,-520.81"/>
</a>
</g>
<text text-anchor="middle" x="255.68" y="-543.09" font-family="Helvetica,sans-Serif" font-size="10.00" fill="grey"> ptr</text>
</g>
<!-- Node11 -->
<g id="Node000011" class="node">
<title>Node11</title>
<g id="a_Node000011"><a xlink:href="../../db/d15/class_a_e_file_writer.html" target="_top" xlink:title="ArtyK&#39;s Engine File Writer; umm, it writes data to given file.">
<polygon fill="white" stroke="#666666" points="1261.55,-436.59 1190.05,-436.59 1190.05,-416.59 1261.55,-416.59 1261.55,-436.59"/>
<text text-anchor="middle" x="1225.8" y="-423.09" font-family="Helvetica,sans-Serif" font-size="10.00">AEFileWriter</text>
</a>
</g>
</g>
<!-- Node4&#45;&gt;Node11 -->
<g id="edge24_Node000011_Node000004" class="edge">
<title>Node4&#45;&gt;Node11</title>
<g id="a_edge24_Node000011_Node000004"><a xlink:title=" ">
<path fill="none" stroke="#9a32cd" stroke-dasharray="5,2" d="M183.97,-505.75C193.36,-502.63 203.77,-499.58 213.55,-497.59 285.89,-482.88 305.23,-483.59 379.05,-483.59 379.05,-483.59 379.05,-483.59 964.05,-483.59 1050.24,-483.59 1148.83,-453.5 1196.31,-437.05"/>
<polygon fill="#9a32cd" stroke="#9a32cd" points="182.84,-502.43 174.55,-509.02 185.14,-509.04 182.84,-502.43"/>
</a>
</g>
<text text-anchor="middle" x="656.93" y="-486.09" font-family="Helvetica,sans-Serif" font-size="10.00" fill="grey"> m_szLastWrittenAmount</text>
</g>
<!-- Node5 -->
<g id="Node000005" class="node">
<title>Node5</title>
<g id="a_Node000005"><a xlink:title=" ">
<polygon fill="white" stroke="#666666" points="195.55,-434.59 107.55,-434.59 107.55,-414.59 195.55,-414.59 195.55,-434.59"/>
<text text-anchor="middle" x="151.55" y="-421.09" font-family="Helvetica,sans-Serif" font-size="10.00">std::atomic&lt; T &gt;</text>
</a>
</g>
</g>
<!-- Node5&#45;&gt;Node3 -->
<g id="edge4_Node000003_Node000005" class="edge">
<title>Node5&#45;&gt;Node3</title>
<g id="a_edge4_Node000003_Node000005"><a xlink:title=" ">
<path fill="none" stroke="orange" stroke-dasharray="5,2" d="M198.61,-438.69C228.1,-448.74 266.55,-463.78 297.8,-482.59 326.34,-499.77 354.91,-526.91 369.36,-541.5"/>
<polygon fill="orange" stroke="orange" points="199.81,-435.4 189.22,-435.57 197.6,-442.04 199.81,-435.4"/>
</a>
</g>
<text text-anchor="middle" x="255.68" y="-485.09" font-family="Helvetica,sans-Serif" font-size="10.00" fill="grey"> &lt; std::size_t &gt;</text>
</g>
<!-- Node7 -->
<g id="Node000007" class="node">
<title>Node7</title>
<g id="a_Node000007"><a xlink:title=" ">
<polygon fill="white" stroke="#666666" points="431.55,-782.59 328.55,-782.59 328.55,-762.59 431.55,-762.59 431.55,-782.59"/>
<text text-anchor="middle" x="380.05" y="-769.09" font-family="Helvetica,sans-Serif" font-size="10.00">std::atomic&lt; ullint &gt;</text>
</a>
</g>
</g>
<!-- Node5&#45;&gt;Node7 -->
<g id="edge8_Node000007_Node000005" class="edge">
<title>Node5&#45;&gt;Node7</title>
<g id="a_edge8_Node000007_Node000005"><a xlink:title=" ">
<path fill="none" stroke="orange" stroke-dasharray="5,2" d="M164.77,-444.45C175.63,-460.41 192.95,-482.15 213.55,-494.59 246.49,-514.49 272.2,-485.86 297.8,-514.59 320.43,-539.99 304.84,-634.39 315.8,-666.59 328.78,-704.73 356.8,-744.02 370.78,-762.2"/>
<polygon fill="orange" stroke="orange" points="167.81,-442.7 159.42,-436.22 161.94,-446.51 167.81,-442.7"/>
</a>
</g>
<text text-anchor="middle" x="255.68" y="-517.09" font-family="Helvetica,sans-Serif" font-size="10.00" fill="grey"> &lt; ullint &gt;</text>
</g>
<!-- Node24 -->
<g id="Node000024" class="node">
<title>Node24</title>
<g id="a_Node000024"><a xlink:title=" ">
<polygon fill="white" stroke="#666666" points="429.3,-129.59 330.8,-129.59 330.8,-109.59 429.3,-109.59 429.3,-129.59"/>
<text text-anchor="middle" x="380.05" y="-116.09" font-family="Helvetica,sans-Serif" font-size="10.00">std::atomic&lt; cint &gt;</text>
</a>
</g>
</g>
<!-- Node5&#45;&gt;Node24 -->
<g id="edge38_Node000024_Node000005" class="edge">
<title>Node5&#45;&gt;Node24</title>
<g id="a_edge38_Node000024_Node000005"><a xlink:title=" ">
<path fill="none" stroke="orange" stroke-dasharray="5,2" d="M192.76,-408.01C193.73,-407.24 194.66,-406.43 195.55,-405.59 208.28,-393.59 201.05,-382.82 213.55,-370.59 243.32,-341.47 274.08,-363.82 297.8,-329.59 322.08,-294.55 288.78,-171.57 315.8,-138.59 319.72,-133.8 324.81,-130.19 330.39,-127.47"/>
<polygon fill="orange" stroke="orange" points="191.06,-404.94 184.57,-413.32 194.87,-410.81 191.06,-404.94"/>
</a>
</g>
<text text-anchor="middle" x="255.68" y="-373.09" font-family="Helvetica,sans-Serif" font-size="10.00" fill="grey"> &lt; cint &gt;</text>
</g>
<!-- Node30 -->
<g id="Node000030" class="node">
<title>Node30</title>
<g id="a_Node000030"><a xlink:title=" ">
<polygon fill="white" stroke="#666666" points="430.43,-396.59 329.68,-396.59 329.68,-376.59 430.43,-376.59 430.43,-396.59"/>
<text text-anchor="middle" x="380.05" y="-383.09" font-family="Helvetica,sans-Serif" font-size="10.00">std::atomic&lt; bool &gt;</text>
</a>
</g>
</g>
<!-- Node5&#45;&gt;Node30 -->
<g id="edge50_Node000030_Node000005" class="edge">
<title>Node5&#45;&gt;Node30</title>
<g id="a_edge50_Node000030_Node000005"><a xlink:title=" ">
<path fill="none" stroke="orange" stroke-dasharray="5,2" d="M207.11,-415.44C244.37,-409.19 293.34,-400.97 329.49,-394.91"/>
<polygon fill="orange" stroke="orange" points="206.73,-411.95 197.45,-417.06 207.89,-418.86 206.73,-411.95"/>
</a>
</g>
<text text-anchor="middle" x="255.68" y="-415.09" font-family="Helvetica,sans-Serif" font-size="10.00" fill="grey"> &lt; bool &gt;</text>
</g>
<!-- Node6 -->
<g id="Node000006" class="node">
<title>Node6</title>
<g id="a_Node000006"><a xlink:title=" ">
<polygon fill="white" stroke="#666666" points="28.8,-374.59 0,-374.59 0,-354.59 28.8,-354.59 28.8,-374.59"/>
<text text-anchor="middle" x="14.4" y="-361.09" font-family="Helvetica,sans-Serif" font-size="10.00">T</text>
</a>
</g>
</g>
<!-- Node6&#45;&gt;Node5 -->
<g id="edge5_Node000005_Node000006" class="edge">
<title>Node6&#45;&gt;Node5</title>
<g id="a_edge5_Node000005_Node000006"><a xlink:title=" ">
<path fill="none" stroke="#9a32cd" stroke-dasharray="5,2" d="M39.61,-375.38C58.19,-383.66 84.48,-395.36 107.55,-405.59 113.82,-408.37 120.6,-411.37 126.89,-414.15"/>
<polygon fill="#9a32cd" stroke="#9a32cd" points="41.08,-372.2 30.52,-371.33 38.23,-378.6 41.08,-372.2"/>
</a>
</g>
<text text-anchor="middle" x="68.18" y="-399.09" font-family="Helvetica,sans-Serif" font-size="10.00" fill="grey"> ptr</text>
</g>
<!-- Node28 -->
<g id="Node000028" class="node">
<title>Node28</title>
<g id="a_Node000028"><a xlink:title=" ">
<polygon fill="white" stroke="#666666" points="297.8,-328.59 213.55,-328.59 213.55,-308.59 297.8,-308.59 297.8,-328.59"/>
<text text-anchor="middle" x="255.68" y="-315.09" font-family="Helvetica,sans-Serif" font-size="10.00">std::vector&lt; T &gt;</text>
</a>
</g>
</g>
<!-- Node6&#45;&gt;Node28 -->
<g id="edge43_Node000028_Node000006" class="edge">
<title>Node6&#45;&gt;Node28</title>
<g id="a_edge43_Node000028_Node000006"><a xlink:title=" ">
<path fill="none" stroke="#9a32cd" stroke-dasharray="5,2" d="M40.4,-359.79C81.4,-351.9 163.33,-336.15 213.16,-326.57"/>
<polygon fill="#9a32cd" stroke="#9a32cd" points="39.94,-356.31 30.78,-361.63 41.27,-363.18 39.94,-356.31"/>
</a>
</g>
<text text-anchor="middle" x="68.18" y="-360.09" font-family="Helvetica,sans-Serif" font-size="10.00" fill="grey"> elements</text>
</g>
<!-- Node7&#45;&gt;Node1 -->
<g id="edge45_Node000001_Node000007" class="edge">
<title>Node7&#45;&gt;Node1</title>
<g id="a_edge45_Node000001_Node000007"><a xlink:title=" ">
<path fill="none" stroke="#9a32cd" stroke-dasharray="5,2" d="M402.91,-790.09C447.6,-824.05 553.85,-895.59 655.93,-895.59 655.93,-895.59 655.93,-895.59 1226.8,-895.59 1363.77,-895.59 1425.08,-354.5 1433.62,-272.07"/>
<polygon fill="#9a32cd" stroke="#9a32cd" points="405.1,-787.36 395.05,-784.01 400.81,-792.9 405.1,-787.36"/>
</a>
</g>
<text text-anchor="middle" x="963.05" y="-910.09" font-family="Helvetica,sans-Serif" font-size="10.00" fill="grey"> m_ullFilledCount</text>
<text text-anchor="middle" x="963.05" y="-898.09" font-family="Helvetica,sans-Serif" font-size="10.00" fill="grey">m_ullNodeNumber</text>
</g>
<!-- Node7&#45;&gt;Node2 -->
<g id="edge6_Node000002_Node000007" class="edge">
<title>Node7&#45;&gt;Node2</title>
<g id="a_edge6_Node000002_Node000007"><a xlink:title=" ">
<path fill="none" stroke="#9a32cd" stroke-dasharray="5,2" d="M442.96,-784.05C535.95,-798.82 716.27,-817.9 861.3,-775.59 896.79,-765.24 932.18,-738.79 950.07,-724"/>
<polygon fill="#9a32cd" stroke="#9a32cd" points="443.71,-780.63 433.28,-782.47 442.59,-787.53 443.71,-780.63"/>
</a>
</g>
<text text-anchor="middle" x="656.93" y="-803.09" font-family="Helvetica,sans-Serif" font-size="10.00" fill="grey"> m_ullInstanceCounter</text>
</g>
<!-- Node7&#45;&gt;Node10 -->
<g id="edge12_Node000010_Node000007" class="edge">
<title>Node7&#45;&gt;Node10</title>
<g id="a_edge12_Node000010_Node000007"><a xlink:title=" ">
<path fill="none" stroke="#9a32cd" stroke-dasharray="5,2" d="M401.91,-755.13C417.98,-742 440.99,-723.89 462.3,-709.59 465.35,-707.54 573.68,-645.05 577.05,-643.59 589.13,-638.36 602.72,-633.79 615.17,-630.08"/>
<polygon fill="#9a32cd" stroke="#9a32cd" points="399.97,-752.19 394.48,-761.25 404.43,-757.59 399.97,-752.19"/>
</a>
</g>
<text text-anchor="middle" x="510.68" y="-712.09" font-family="Helvetica,sans-Serif" font-size="10.00" fill="grey"> m_ullInstanceCounter</text>
</g>
<!-- Node7&#45;&gt;Node11 -->
<g id="edge23_Node000011_Node000007" class="edge">
<title>Node7&#45;&gt;Node11</title>
<g id="a_edge23_Node000011_Node000007"><a xlink:title=" ">
<path fill="none" stroke="#9a32cd" stroke-dasharray="5,2" d="M412.03,-787.65C426.9,-794.23 445.17,-801.39 462.3,-805.59 512.06,-817.8 525.87,-814.14 577.05,-816.59 788.9,-826.72 883.62,-868.07 1046.8,-732.59 1151.54,-645.64 1208.29,-480.07 1221.68,-437.03"/>
<polygon fill="#9a32cd" stroke="#9a32cd" points="413.8,-784.61 403.25,-783.64 410.89,-790.98 413.8,-784.61"/>
</a>
</g>
<text text-anchor="middle" x="808.05" y="-832.09" font-family="Helvetica,sans-Serif" font-size="10.00" fill="grey"> m_ullTotalWrites</text>
</g>
<!-- Node7&#45;&gt;Node12 -->
<g id="edge17_Node000012_Node000007" class="edge">
<title>Node7&#45;&gt;Node12</title>
<g id="a_edge17_Node000012_Node000007"><a xlink:title=" ">
<path fill="none" stroke="#9a32cd" stroke-dasharray="5,2" d="M442.74,-764.67C479,-757.74 524.38,-744.95 559.05,-721.59 569.82,-714.34 566.22,-705.75 577.05,-698.59 686.15,-626.49 737.68,-665.25 861.3,-622.59 888.98,-613.04 919.82,-599.42 940,-590.08"/>
<polygon fill="#9a32cd" stroke="#9a32cd" points="442.51,-761.15 433.29,-766.37 443.75,-768.04 442.51,-761.15"/>
</a>
</g>
<text text-anchor="middle" x="656.93" y="-701.09" font-family="Helvetica,sans-Serif" font-size="10.00" fill="grey"> m_ullInstanceCounter</text>
</g>
<!-- Node8 -->
<g id="Node000008" class="node">
<title>Node8</title>
<g id="a_Node000008"><a xlink:title=" ">
<polygon fill="white" stroke="#666666" points="169.68,-782.59 133.43,-782.59 133.43,-762.59 169.68,-762.59 169.68,-782.59"/>
<text text-anchor="middle" x="151.55" y="-769.09" font-family="Helvetica,sans-Serif" font-size="10.00">ullint</text>
</a>
</g>
</g>
<!-- Node8&#45;&gt;Node7 -->
<g id="edge7_Node000007_Node000008" class="edge">
<title>Node8&#45;&gt;Node7</title>
<g id="a_edge7_Node000007_Node000008"><a xlink:title=" ">
<path fill="none" stroke="#9a32cd" stroke-dasharray="5,2" d="M181.34,-772.59C218.28,-772.59 282.99,-772.59 328.28,-772.59"/>
<polygon fill="#9a32cd" stroke="#9a32cd" points="181.46,-769.09 171.46,-772.59 181.46,-776.09 181.46,-769.09"/>
</a>
</g>
<text text-anchor="middle" x="255.68" y="-775.09" font-family="Helvetica,sans-Serif" font-size="10.00" fill="grey"> ptr</text>
</g>
<!-- Node9 -->
<g id="Node000009" class="node">
<title>Node9</title>
<g id="a_Node000009"><a xlink:title=" ">
<polygon fill="white" stroke="#666666" points="411.68,-657.59 348.43,-657.59 348.43,-637.59 411.68,-637.59 411.68,-657.59"/>
<text text-anchor="middle" x="380.05" y="-644.09" font-family="Helvetica,sans-Serif" font-size="10.00">const ullint</text>
</a>
</g>
</g>
<!-- Node9&#45;&gt;Node2 -->
<g id="edge9_Node000002_Node000009" class="edge">
<title>Node9&#45;&gt;Node2</title>
<g id="a_edge9_Node000002_Node000009"><a xlink:title=" ">
<path fill="none" stroke="#9a32cd" stroke-dasharray="5,2" d="M394.85,-667.06C409.29,-685.63 433.79,-712.5 462.3,-724.59 623.49,-792.94 841,-746.73 925.95,-724.07"/>
<polygon fill="#9a32cd" stroke="#9a32cd" points="397.77,-665.12 388.99,-659.2 392.16,-669.31 397.77,-665.12"/>
</a>
</g>
<text text-anchor="middle" x="656.93" y="-762.09" font-family="Helvetica,sans-Serif" font-size="10.00" fill="grey"> m_ullModuleId</text>
</g>
<!-- Node9&#45;&gt;Node10 -->
<g id="edge13_Node000010_Node000009" class="edge">
<title>Node9&#45;&gt;Node10</title>
<g id="a_edge13_Node000010_Node000009"><a xlink:title=" ">
<path fill="none" stroke="#9a32cd" stroke-dasharray="5,2" d="M423.28,-643.29C470.04,-638.53 545.7,-630.82 597.98,-625.49"/>
<polygon fill="#9a32cd" stroke="#9a32cd" points="423.15,-639.79 413.55,-644.28 423.86,-646.75 423.15,-639.79"/>
</a>
</g>
<text text-anchor="middle" x="510.68" y="-640.09" font-family="Helvetica,sans-Serif" font-size="10.00" fill="grey"> m_ullModuleId</text>
</g>
<!-- Node9&#45;&gt;Node12 -->
<g id="edge18_Node000012_Node000009" class="edge">
<title>Node9&#45;&gt;Node12</title>
<g id="a_edge18_Node000012_Node000009"><a xlink:title=" ">
<path fill="none" stroke="#9a32cd" stroke-dasharray="5,2" d="M401.02,-629.77C416.53,-617.13 439.23,-601.11 462.3,-593.59 537.24,-569.17 757.4,-572.35 878.99,-576.27"/>
<polygon fill="#9a32cd" stroke="#9a32cd" points="398.88,-627 393.5,-636.13 403.4,-632.34 398.88,-627"/>
</a>
</g>
<text text-anchor="middle" x="656.93" y="-579.09" font-family="Helvetica,sans-Serif" font-size="10.00" fill="grey"> m_ullModuleId</text>
</g>
<!-- Node10&#45;&gt;Node2 -->
<g id="edge10_Node000002_Node000010" class="edge">
<title>Node10&#45;&gt;Node2</title>
<g id="a_edge10_Node000002_Node000010"><a xlink:title=" ">
<path fill="none" stroke="orange" stroke-dasharray="5,2" d="M703.19,-633.32C714.2,-636.67 725.92,-640.25 736.8,-643.59 804.91,-664.54 884.49,-689.35 928.49,-703.09"/>
<polygon fill="orange" stroke="orange" points="704.53,-630.06 693.94,-630.5 702.49,-636.76 704.53,-630.06"/>
</a>
</g>
<text text-anchor="middle" x="808.05" y="-683.09" font-family="Helvetica,sans-Serif" font-size="10.00" fill="grey"> &lt; AELogger &gt;</text>
</g>
<!-- Node10&#45;&gt;Node12 -->
<g id="edge19_Node000012_Node000010" class="edge">
<title>Node10&#45;&gt;Node12</title>
<g id="a_edge19_Node000012_Node000010"><a xlink:title=" ">
<path fill="none" stroke="orange" stroke-dasharray="5,2" d="M727.13,-610.94C766.48,-605.97 816.66,-599.55 861.3,-593.59 869.7,-592.47 878.5,-591.28 887.24,-590.08"/>
<polygon fill="orange" stroke="orange" points="726.79,-607.45 717.31,-612.17 727.67,-614.39 726.79,-607.45"/>
</a>
</g>
<text text-anchor="middle" x="808.05" y="-609.09" font-family="Helvetica,sans-Serif" font-size="10.00" fill="grey"> &lt; AEFileWriter &gt;</text>
</g>
<!-- Node11&#45;&gt;Node1 -->
<g id="edge14_Node000001_Node000011" class="edge">
<title>Node11&#45;&gt;Node1</title>
<g id="a_edge14_Node000001_Node000011"><a xlink:title=" ">
<path fill="none" stroke="#9a32cd" stroke-dasharray="5,2" d="M1253.76,-410.45C1287.01,-389.95 1344.49,-352.53 1388.3,-313.59 1403.13,-300.41 1417.99,-282.78 1426.76,-271.81"/>
<polygon fill="#9a32cd" stroke="#9a32cd" points="1252.26,-407.26 1245.55,-415.46 1255.91,-413.24 1252.26,-407.26"/>
</a>
</g>
<text text-anchor="middle" x="1350.43" y="-372.09" font-family="Helvetica,sans-Serif" font-size="10.00" fill="grey"> m_fwLogger</text>
</g>
<!-- Node12&#45;&gt;Node11 -->
<g id="edge15_Node000011_Node000012" class="edge">
<title>Node12&#45;&gt;Node11</title>
<g id="a_edge15_Node000011_Node000012"><a xlink:title=" ">
<path fill="none" stroke="#63b8ff" d="M1002.51,-564.88C1038.97,-550.17 1094.62,-525.75 1139.05,-497.59 1168.27,-479.07 1198.55,-451.74 1214.12,-436.97"/>
<polygon fill="#63b8ff" stroke="#63b8ff" points="1001.25,-561.61 993.25,-568.56 1003.84,-568.12 1001.25,-561.61"/>
</a>
</g>
</g>
<!-- Node13 -->
<g id="Node000013" class="node">
<title>Node13</title>
<g id="a_Node000013"><a xlink:title=" ">
<polygon fill="white" stroke="#666666" points="705.43,-255.59 608.43,-255.59 608.43,-235.59 705.43,-235.59 705.43,-255.59"/>
<text text-anchor="middle" x="656.93" y="-242.09" font-family="Helvetica,sans-Serif" font-size="10.00">unsigned long long</text>
</a>
</g>
</g>
<!-- Node13&#45;&gt;Node1 -->
<g id="edge46_Node000001_Node000013" class="edge">
<title>Node13&#45;&gt;Node1</title>
<g id="a_edge46_Node000001_Node000013"><a xlink:title=" ">
<path fill="none" stroke="#9a32cd" stroke-dasharray="5,2" d="M717.35,-242.46C830.06,-237.15 1082.6,-228.29 1294.55,-242.59 1333.25,-245.2 1377.56,-251.83 1405.81,-256.52"/>
<polygon fill="#9a32cd" stroke="#9a32cd" points="717.25,-238.96 707.43,-242.94 717.58,-245.95 717.25,-238.96"/>
</a>
</g>
<text text-anchor="middle" x="1101.93" y="-238.09" font-family="Helvetica,sans-Serif" font-size="10.00" fill="grey"> m_ullQueueSize</text>
</g>
<!-- Node13&#45;&gt;Node11 -->
<g id="edge20_Node000011_Node000013" class="edge">
<title>Node13&#45;&gt;Node11</title>
<g id="a_edge20_Node000011_Node000013"><a xlink:title=" ">
<path fill="none" stroke="#9a32cd" stroke-dasharray="5,2" d="M712.51,-258.59C757.29,-269.21 822.36,-284.55 879.3,-297.59 994.6,-324.01 1032.83,-303.54 1139.05,-355.59 1170.64,-371.07 1200.65,-400.43 1215.37,-416.1"/>
<polygon fill="#9a32cd" stroke="#9a32cd" points="713.59,-255.25 703.05,-256.34 711.97,-262.06 713.59,-255.25"/>
</a>
</g>
<text text-anchor="middle" x="963.05" y="-324.09" font-family="Helvetica,sans-Serif" font-size="10.00" fill="grey"> m_ullFlushInterval</text>
</g>
<!-- Node20 -->
<g id="Node000020" class="node">
<title>Node20</title>
<g id="a_Node000020"><a xlink:title=" ">
<polygon fill="white" stroke="#666666" points="1040.43,-157.59 885.68,-157.59 885.68,-137.59 1040.43,-137.59 1040.43,-157.59"/>
<text text-anchor="middle" x="963.05" y="-144.09" font-family="Helvetica,sans-Serif" font-size="10.00">std::pair&lt; ullint, AELogEntry * &gt;</text>
</a>
</g>
</g>
<!-- Node13&#45;&gt;Node20 -->
<g id="edge30_Node000020_Node000013" class="edge">
<title>Node13&#45;&gt;Node20</title>
<g id="a_edge30_Node000020_Node000013"><a xlink:title=" ">
<path fill="none" stroke="#9a32cd" stroke-dasharray="5,2" d="M703.89,-231.79C714.7,-228.5 726.17,-224.96 736.8,-221.59 806.46,-199.55 887.81,-172.5 931.15,-157.98"/>
<polygon fill="#9a32cd" stroke="#9a32cd" points="702.92,-228.43 694.37,-234.68 704.96,-235.13 702.92,-228.43"/>
</a>
</g>
<text text-anchor="middle" x="808.05" y="-218.09" font-family="Helvetica,sans-Serif" font-size="10.00" fill="grey"> first_type</text>
</g>
<!-- Node14 -->
<g id="Node000014" class="node">
<title>Node14</title>
<g id="a_Node000014"><a xlink:title=" ">
<polygon fill="white" stroke="#666666" points="992.8,-455.59 933.3,-455.59 933.3,-435.59 992.8,-435.59 992.8,-455.59"/>
<text text-anchor="middle" x="963.05" y="-442.09" font-family="Helvetica,sans-Serif" font-size="10.00">std::string</text>
</a>
</g>
</g>
<!-- Node14&#45;&gt;Node11 -->
<g id="edge21_Node000011_Node000014" class="edge">
<title>Node14&#45;&gt;Node11</title>
<g id="a_edge21_Node000011_Node000014"><a xlink:title=" ">
<path fill="none" stroke="#9a32cd" stroke-dasharray="5,2" d="M1004.38,-442.65C1055.12,-438.96 1141.45,-432.67 1189.63,-429.15"/>
<polygon fill="#9a32cd" stroke="#9a32cd" points="1004.43,-439.14 994.71,-443.36 1004.94,-446.12 1004.43,-439.14"/>
</a>
</g>
<text text-anchor="middle" x="1101.93" y="-440.09" font-family="Helvetica,sans-Serif" font-size="10.00" fill="grey"> m_sFilename</text>
</g>
<!-- Node15 -->
<g id="Node000015" class="node">
<title>Node15</title>
<g id="a_Node000015"><a xlink:title=" ">
<polygon fill="white" stroke="#666666" points="720.05,-447.59 593.8,-447.59 593.8,-427.59 720.05,-427.59 720.05,-447.59"/>
<text text-anchor="middle" x="656.93" y="-434.09" font-family="Helvetica,sans-Serif" font-size="10.00">std::basic_string&lt; Char &gt;</text>
</a>
</g>
</g>
<!-- Node15&#45;&gt;Node14 -->
<g id="edge22_Node000014_Node000015" class="edge">
<title>Node15&#45;&gt;Node14</title>
<g id="a_edge22_Node000014_Node000015"><a xlink:title=" ">
<path fill="none" stroke="#63b8ff" d="M731.56,-439.53C796.26,-441.23 887.04,-443.62 932.98,-444.83"/>
<polygon fill="#63b8ff" stroke="#63b8ff" points="731.8,-436.03 721.72,-439.27 731.62,-443.03 731.8,-436.03"/>
</a>
</g>
</g>
<!-- Node16 -->
<g id="Node000016" class="node">
<title>Node16</title>
<g id="a_Node000016"><a xlink:title=" ">
<polygon fill="white" stroke="#666666" points="984.55,-417.59 941.55,-417.59 941.55,-397.59 984.55,-397.59 984.55,-417.59"/>
<text text-anchor="middle" x="963.05" y="-404.09" font-family="Helvetica,sans-Serif" font-size="10.00">FILE *</text>
</a>
</g>
</g>
<!-- Node16&#45;&gt;Node11 -->
<g id="edge25_Node000011_Node000016" class="edge">
<title>Node16&#45;&gt;Node11</title>
<g id="a_edge25_Node000011_Node000016"><a xlink:title=" ">
<path fill="none" stroke="#9a32cd" stroke-dasharray="5,2" d="M996.25,-408.62C1031.39,-409.89 1089.29,-412.41 1139.05,-416.59 1155.78,-418 1174.28,-420.09 1189.81,-421.99"/>
<polygon fill="#9a32cd" stroke="#9a32cd" points="996.45,-405.13 986.33,-408.28 996.21,-412.12 996.45,-405.13"/>
</a>
</g>
<text text-anchor="middle" x="1101.93" y="-419.09" font-family="Helvetica,sans-Serif" font-size="10.00" fill="grey"> m_fpFilestr</text>
</g>
<!-- Node17 -->
<g id="Node000017" class="node">
<title>Node17</title>
<g id="a_Node000017"><a xlink:title=" ">
<polygon fill="white" stroke="#666666" points="171.55,-129.59 131.55,-129.59 131.55,-109.59 171.55,-109.59 171.55,-129.59"/>
<text text-anchor="middle" x="151.55" y="-116.09" font-family="Helvetica,sans-Serif" font-size="10.00">int8_t</text>
</a>
</g>
</g>
<!-- Node17&#45;&gt;Node11 -->
<g id="edge26_Node000011_Node000017" class="edge">
<title>Node17&#45;&gt;Node11</title>
<g id="a_edge26_Node000011_Node000017"><a xlink:title=" ">
<path fill="none" stroke="#9a32cd" stroke-dasharray="5,2" d="M176.14,-136.38C206.9,-157.52 263,-193.62 315.8,-214.59 358.13,-231.41 1027.49,-382.26 1189.63,-418.7"/>
<polygon fill="#9a32cd" stroke="#9a32cd" points="178.54,-133.78 168.33,-130.94 174.54,-139.53 178.54,-133.78"/>
</a>
</g>
<text text-anchor="middle" x="656.93" y="-317.09" font-family="Helvetica,sans-Serif" font-size="10.00" fill="grey"> m_cFlags</text>
</g>
<!-- Node21 -->
<g id="Node000021" class="node">
<title>Node21</title>
<g id="a_Node000021"><a xlink:href="../../da/dea/struct_a_e_log_entry.html" target="_top" xlink:title="The structure for the data of the log entry to be manipulated with the log files.">
<polygon fill="white" stroke="#666666" points="691.18,-92.59 622.68,-92.59 622.68,-72.59 691.18,-72.59 691.18,-92.59"/>
<text text-anchor="middle" x="656.93" y="-79.09" font-family="Helvetica,sans-Serif" font-size="10.00">AELogEntry</text>
</a>
</g>
</g>
<!-- Node17&#45;&gt;Node21 -->
<g id="edge35_Node000021_Node000017" class="edge">
<title>Node17&#45;&gt;Node21</title>
<g id="a_edge35_Node000021_Node000017"><a xlink:title=" ">
<path fill="none" stroke="#9a32cd" stroke-dasharray="5,2" d="M171,-101.77C199.37,-75.76 256.65,-28.52 315.8,-10.59 435.94,25.83 585.39,-44.46 637.21,-72.11"/>
<polygon fill="#9a32cd" stroke="#9a32cd" points="168.86,-98.99 163.95,-108.38 173.64,-104.1 168.86,-98.99"/>
</a>
</g>
<text text-anchor="middle" x="380.05" y="-13.09" font-family="Helvetica,sans-Serif" font-size="10.00" fill="grey"> m_cLogType</text>
</g>
<!-- Node17&#45;&gt;Node24 -->
<g id="edge37_Node000024_Node000017" class="edge">
<title>Node17&#45;&gt;Node24</title>
<g id="a_edge37_Node000024_Node000017"><a xlink:title=" ">
<path fill="none" stroke="#9a32cd" stroke-dasharray="5,2" d="M183.15,-119.59C221.04,-119.59 286.03,-119.59 330.69,-119.59"/>
<polygon fill="#9a32cd" stroke="#9a32cd" points="183.37,-116.09 173.37,-119.59 183.37,-123.09 183.37,-116.09"/>
</a>
</g>
<text text-anchor="middle" x="255.68" y="-122.09" font-family="Helvetica,sans-Serif" font-size="10.00" fill="grey"> ptr</text>
</g>
<!-- Node18 -->
<g id="Node000018" class="node">
<title>Node18</title>
<g id="a_Node000018"><a xlink:title=" ">
<polygon fill="white" stroke="#666666" points="1257.05,-271.59 1194.55,-271.59 1194.55,-251.59 1257.05,-251.59 1257.05,-271.59"/>
<text text-anchor="middle" x="1225.8" y="-258.09" font-family="Helvetica,sans-Serif" font-size="10.00">std::mutex</text>
</a>
</g>
</g>
<!-- Node18&#45;&gt;Node1 -->
<g id="edge27_Node000001_Node000018" class="edge">
<title>Node18&#45;&gt;Node1</title>
<g id="a_edge27_Node000001_Node000018"><a xlink:title=" ">
<path fill="none" stroke="#9a32cd" stroke-dasharray="5,2" d="M1268.92,-261.59C1309.68,-261.59 1370.36,-261.59 1405.89,-261.59"/>
<polygon fill="#9a32cd" stroke="#9a32cd" points="1268.99,-258.09 1258.99,-261.59 1268.99,-265.09 1268.99,-258.09"/>
</a>
</g>
<text text-anchor="middle" x="1350.43" y="-264.09" font-family="Helvetica,sans-Serif" font-size="10.00" fill="grey"> m_mtxAllocLock</text>
</g>
<!-- Node19 -->
<g id="Node000019" class="node">
<title>Node19</title>
<g id="a_Node000019"><a xlink:title=" ">
<polygon fill="white" stroke="#666666" points="1294.55,-195.59 1157.05,-195.59 1157.05,-163.59 1294.55,-163.59 1294.55,-195.59"/>
<text text-anchor="start" x="1165.05" y="-182.09" font-family="Helvetica,sans-Serif" font-size="10.00">std::vector&lt; std::pair&lt; ullint,</text>
<text text-anchor="middle" x="1225.8" y="-170.09" font-family="Helvetica,sans-Serif" font-size="10.00"> AELogEntry * &gt; &gt;</text>
</a>
</g>
</g>
<!-- Node19&#45;&gt;Node1 -->
<g id="edge28_Node000001_Node000019" class="edge">
<title>Node19&#45;&gt;Node1</title>
<g id="a_edge28_Node000001_Node000019"><a xlink:title=" ">
<path fill="none" stroke="#9a32cd" stroke-dasharray="5,2" d="M1305.94,-175.65C1333.56,-177.47 1363.77,-183.3 1388.3,-197.59 1409.64,-210.02 1423.9,-236.61 1430.48,-251.31"/>
<polygon fill="#9a32cd" stroke="#9a32cd" points="1306.36,-172.16 1296.21,-175.18 1306.03,-179.15 1306.36,-172.16"/>
</a>
</g>
<text text-anchor="middle" x="1350.43" y="-200.09" font-family="Helvetica,sans-Serif" font-size="10.00" fill="grey"> m_vAllocTable</text>
</g>
<!-- Node20&#45;&gt;Node19 -->
<g id="edge29_Node000019_Node000020" class="edge">
<title>Node20&#45;&gt;Node19</title>
<g id="a_edge29_Node000019_Node000020"><a xlink:title=" ">
<path fill="none" stroke="#9a32cd" stroke-dasharray="5,2" d="M1051.94,-150.85C1079.89,-152.63 1110.86,-155.37 1139.05,-159.59 1145.55,-160.57 1152.29,-161.78 1159,-163.12"/>
<polygon fill="#9a32cd" stroke="#9a32cd" points="1052.28,-147.36 1042.08,-150.26 1051.86,-154.35 1052.28,-147.36"/>
</a>
</g>
<text text-anchor="middle" x="1101.93" y="-162.09" font-family="Helvetica,sans-Serif" font-size="10.00" fill="grey"> elements</text>
</g>
<!-- Node21&#45;&gt;Node1 -->
<g id="edge47_Node000001_Node000021" class="edge">
<title>Node21&#45;&gt;Node1</title>
<g id="a_edge47_Node000001_Node000021"><a xlink:title=" ">
<path fill="none" stroke="#9a32cd" stroke-dasharray="5,2" d="M702.43,-69.64C826.91,-36.35 1182.97,38.28 1388.3,-129.59 1426.66,-160.96 1433.33,-226.15 1434.46,-251.35"/>
<polygon fill="#9a32cd" stroke="#9a32cd" points="701.65,-66.22 692.92,-72.23 703.49,-72.98 701.65,-66.22"/>
</a>
</g>
<text text-anchor="middle" x="1101.93" y="-45.09" font-family="Helvetica,sans-Serif" font-size="10.00" fill="grey"> m_lepLastNode</text>
<text text-anchor="middle" x="1101.93" y="-33.09" font-family="Helvetica,sans-Serif" font-size="10.00" fill="grey">m_lepQueue</text>
</g>
<!-- Node21&#45;&gt;Node20 -->
<g id="edge31_Node000020_Node000021" class="edge">
<title>Node21&#45;&gt;Node20</title>
<g id="a_edge31_Node000020_Node000021"><a xlink:title=" ">
<path fill="none" stroke="#9a32cd" stroke-dasharray="5,2" d="M702.66,-92.15C758.88,-104.17 855.04,-124.72 913.16,-137.14"/>
<polygon fill="#9a32cd" stroke="#9a32cd" points="703.62,-88.78 693.11,-90.11 702.16,-95.63 703.62,-88.78"/>
</a>
</g>
<text text-anchor="middle" x="808.05" y="-128.09" font-family="Helvetica,sans-Serif" font-size="10.00" fill="grey"> second_type</text>
</g>
<!-- Node21&#45;&gt;Node21 -->
<g id="edge34_Node000021_Node000021" class="edge">
<title>Node21&#45;&gt;Node21</title>
<g id="a_edge34_Node000021_Node000021"><a xlink:title=" ">
<path fill="none" stroke="#9a32cd" stroke-dasharray="5,2" d="M631.08,-104.03C634.41,-107.89 643.02,-110.59 656.93,-110.59 682.35,-110.59 690.09,-101.57 680.16,-92.93"/>
<polygon fill="#9a32cd" stroke="#9a32cd" points="634.46,-104.94 633.34,-94.4 627.64,-103.34 634.46,-104.94"/>
</a>
</g>
<text text-anchor="middle" x="656.93" y="-113.09" font-family="Helvetica,sans-Serif" font-size="10.00" fill="grey"> m_pNextNode</text>
</g>
<!-- Node22 -->
<g id="Node000022" class="node">
<title>Node22</title>
<g id="a_Node000022"><a xlink:title=" ">
<polygon fill="white" stroke="#666666" points="397.43,-89.59 362.68,-89.59 362.68,-69.59 397.43,-69.59 397.43,-89.59"/>
<text text-anchor="middle" x="380.05" y="-76.09" font-family="Helvetica,sans-Serif" font-size="10.00">char</text>
</a>
</g>
</g>
<!-- Node22&#45;&gt;Node21 -->
<g id="edge32_Node000021_Node000022" class="edge">
<title>Node22&#45;&gt;Node21</title>
<g id="a_edge32_Node000021_Node000022"><a xlink:title=" ">
<path fill="none" stroke="#9a32cd" stroke-dasharray="5,2" d="M408.91,-78.74C424.59,-78.3 444.54,-77.81 462.3,-77.59 505.3,-77.06 516.06,-76.48 559.05,-77.59 580.09,-78.13 603.68,-79.34 622.32,-80.43"/>
<polygon fill="#9a32cd" stroke="#9a32cd" points="409.26,-75.22 399.37,-79.01 409.46,-82.22 409.26,-75.22"/>
</a>
</g>
<text text-anchor="middle" x="510.68" y="-92.09" font-family="Helvetica,sans-Serif" font-size="10.00" fill="grey"> m_sLogMessage</text>
<text text-anchor="middle" x="510.68" y="-80.09" font-family="Helvetica,sans-Serif" font-size="10.00" fill="grey">m_sModuleName</text>
</g>
<!-- Node23 -->
<g id="Node000023" class="node">
<title>Node23</title>
<g id="a_Node000023"><a xlink:title=" ">
<polygon fill="white" stroke="#666666" points="401.55,-51.59 358.55,-51.59 358.55,-31.59 401.55,-31.59 401.55,-51.59"/>
<text text-anchor="middle" x="380.05" y="-38.09" font-family="Helvetica,sans-Serif" font-size="10.00">time_t</text>
</a>
</g>
</g>
<!-- Node23&#45;&gt;Node21 -->
<g id="edge33_Node000021_Node000023" class="edge">
<title>Node23&#45;&gt;Node21</title>
<g id="a_edge33_Node000021_Node000023"><a xlink:title=" ">
<path fill="none" stroke="#9a32cd" stroke-dasharray="5,2" d="M413.14,-44.21C448.88,-47.35 508.32,-53.27 559.05,-61.59 580.28,-65.08 603.87,-70.16 622.46,-74.46"/>
<polygon fill="#9a32cd" stroke="#9a32cd" points="413.74,-40.75 403.48,-43.38 413.14,-47.72 413.74,-40.75"/>
</a>
</g>
<text text-anchor="middle" x="510.68" y="-64.09" font-family="Helvetica,sans-Serif" font-size="10.00" fill="grey"> m_tmLogTime</text>
</g>
<!-- Node24&#45;&gt;Node21 -->
<g id="edge36_Node000021_Node000024" class="edge">
<title>Node24&#45;&gt;Node21</title>
<g id="a_edge36_Node000021_Node000024"><a xlink:title=" ">
<path fill="none" stroke="#9a32cd" stroke-dasharray="5,2" d="M440.9,-114.94C475.52,-111.89 519.85,-107.4 559.05,-101.59 580.24,-98.45 603.84,-93.85 622.43,-89.96"/>
<polygon fill="#9a32cd" stroke="#9a32cd" points="440.72,-111.44 431.06,-115.78 441.32,-118.41 440.72,-111.44"/>
</a>
</g>
<text text-anchor="middle" x="510.68" y="-116.09" font-family="Helvetica,sans-Serif" font-size="10.00" fill="grey"> m_cStatus</text>
</g>
<!-- Node25 -->
<g id="Node000025" class="node">
<title>Node25</title>
<g id="a_Node000025"><a xlink:title=" ">
<polygon fill="white" stroke="#666666" points="705.05,-168.59 608.8,-168.59 608.8,-148.59 705.05,-148.59 705.05,-168.59"/>
<text text-anchor="middle" x="656.93" y="-155.09" font-family="Helvetica,sans-Serif" font-size="10.00">std::pair&lt; T1, T2 &gt;</text>
</a>
</g>
</g>
<!-- Node25&#45;&gt;Node20 -->
<g id="edge39_Node000020_Node000025" class="edge">
<title>Node25&#45;&gt;Node20</title>
<g id="a_edge39_Node000020_Node000025"><a xlink:title=" ">
<path fill="none" stroke="orange" stroke-dasharray="5,2" d="M716.89,-156.46C764.9,-154.72 833.04,-152.26 885.31,-150.37"/>
<polygon fill="orange" stroke="orange" points="716.82,-152.96 706.96,-156.82 717.08,-159.95 716.82,-152.96"/>
</a>
</g>
<text text-anchor="middle" x="808.05" y="-157.09" font-family="Helvetica,sans-Serif" font-size="10.00" fill="grey"> &lt; ullint, AELogEntry * &gt;</text>
</g>
<!-- Node26 -->
<g id="Node000026" class="node">
<title>Node26</title>
<g id="a_Node000026"><a xlink:title=" ">
<polygon fill="white" stroke="#666666" points="394.45,-167.59 365.65,-167.59 365.65,-147.59 394.45,-147.59 394.45,-167.59"/>
<text text-anchor="middle" x="380.05" y="-154.09" font-family="Helvetica,sans-Serif" font-size="10.00">T1</text>
</a>
</g>
</g>
<!-- Node26&#45;&gt;Node25 -->
<g id="edge40_Node000025_Node000026" class="edge">
<title>Node26&#45;&gt;Node25</title>
<g id="a_edge40_Node000025_Node000026"><a xlink:title=" ">
<path fill="none" stroke="#9a32cd" stroke-dasharray="5,2" d="M406.14,-157.68C451.92,-157.85 549.69,-158.21 608.42,-158.42"/>
<polygon fill="#9a32cd" stroke="#9a32cd" points="406.21,-154.18 396.19,-157.65 406.18,-161.18 406.21,-154.18"/>
</a>
</g>
<text text-anchor="middle" x="510.68" y="-160.09" font-family="Helvetica,sans-Serif" font-size="10.00" fill="grey"> first_type</text>
</g>
<!-- Node27 -->
<g id="Node000027" class="node">
<title>Node27</title>
<g id="a_Node000027"><a xlink:title=" ">
<polygon fill="white" stroke="#666666" points="394.45,-205.59 365.65,-205.59 365.65,-185.59 394.45,-185.59 394.45,-205.59"/>
<text text-anchor="middle" x="380.05" y="-192.09" font-family="Helvetica,sans-Serif" font-size="10.00">T2</text>
</a>
</g>
</g>
<!-- Node27&#45;&gt;Node25 -->
<g id="edge41_Node000025_Node000027" class="edge">
<title>Node27&#45;&gt;Node25</title>
<g id="a_edge41_Node000025_Node000027"><a xlink:title=" ">
<path fill="none" stroke="#9a32cd" stroke-dasharray="5,2" d="M406.23,-192.73C440.74,-188.74 504.66,-181.16 559.05,-173.59 575.23,-171.34 592.9,-168.67 608.67,-166.21"/>
<polygon fill="#9a32cd" stroke="#9a32cd" points="405.96,-189.23 396.42,-193.85 406.75,-196.19 405.96,-189.23"/>
</a>
</g>
<text text-anchor="middle" x="510.68" y="-187.09" font-family="Helvetica,sans-Serif" font-size="10.00" fill="grey"> second_type</text>
</g>
<!-- Node28&#45;&gt;Node19 -->
<g id="edge42_Node000019_Node000028" class="edge">
<title>Node28&#45;&gt;Node19</title>
<g id="a_edge42_Node000019_Node000028"><a xlink:title=" ">
<path fill="none" stroke="orange" stroke-dasharray="5,2" d="M292.4,-303.99C350.82,-280.8 470.96,-235.99 577.05,-214.59 785.15,-172.62 1037.99,-173.48 1156.85,-176.85"/>
<polygon fill="orange" stroke="orange" points="291.28,-300.67 283.29,-307.63 293.88,-307.17 291.28,-300.67"/>
</a>
</g>
<text text-anchor="middle" x="656.93" y="-217.09" font-family="Helvetica,sans-Serif" font-size="10.00" fill="grey"> &lt; std::pair&lt; ullint, AELogEntry * &gt; &gt;</text>
</g>
<!-- Node29 -->
<g id="Node000029" class="node">
<title>Node29</title>
<g id="a_Node000029"><a xlink:title=" ">
<polygon fill="white" stroke="#666666" points="1257.05,-145.59 1194.55,-145.59 1194.55,-125.59 1257.05,-125.59 1257.05,-145.59"/>
<text text-anchor="middle" x="1225.8" y="-132.09" font-family="Helvetica,sans-Serif" font-size="10.00">std::thread</text>
</a>
</g>
</g>
<!-- Node29&#45;&gt;Node1 -->
<g id="edge44_Node000001_Node000029" class="edge">
<title>Node29&#45;&gt;Node1</title>
<g id="a_edge44_Node000001_Node000029"><a xlink:title=" ">
<path fill="none" stroke="#9a32cd" stroke-dasharray="5,2" d="M1268.81,-131.39C1304.11,-130.11 1354.13,-133.84 1388.3,-159.59 1418.75,-182.54 1429.76,-230.14 1433.24,-251.19"/>
<polygon fill="#9a32cd" stroke="#9a32cd" points="1268.76,-127.89 1258.96,-131.91 1269.13,-134.88 1268.76,-127.89"/>
</a>
</g>
<text text-anchor="middle" x="1350.43" y="-162.09" font-family="Helvetica,sans-Serif" font-size="10.00" fill="grey"> m_trdWriter</text>
</g>
<!-- Node30&#45;&gt;Node1 -->
<g id="edge48_Node000001_Node000030" class="edge">
<title>Node30&#45;&gt;Node1</title>
<g id="a_edge48_Node000001_Node000030"><a xlink:title=" ">
<path fill="none" stroke="#9a32cd" stroke-dasharray="5,2" d="M441.68,-377.02C512.91,-365.24 634.36,-343.45 736.8,-316.59 801.31,-299.68 813.46,-280.17 879.3,-269.59 1001.28,-250 1033.66,-274.45 1157.05,-280.59 1259.71,-285.7 1287.21,-296.21 1388.3,-277.59 1395.17,-276.33 1402.39,-274.23 1409.05,-271.97"/>
<polygon fill="#9a32cd" stroke="#9a32cd" points="441.49,-373.51 432.19,-378.58 442.62,-380.42 441.49,-373.51"/>
</a>
</g>
<text text-anchor="middle" x="963.05" y="-284.09" font-family="Helvetica,sans-Serif" font-size="10.00" fill="grey"> m_bQueueFilled</text>
<text text-anchor="middle" x="963.05" y="-272.09" font-family="Helvetica,sans-Serif" font-size="10.00" fill="grey">m_bRunTrd</text>
</g>
<!-- Node31 -->
<g id="Node000031" class="node">
<title>Node31</title>
<g id="a_Node000031"><a xlink:title=" ">
<polygon fill="white" stroke="#666666" points="168.55,-396.59 134.55,-396.59 134.55,-376.59 168.55,-376.59 168.55,-396.59"/>
<text text-anchor="middle" x="151.55" y="-383.09" font-family="Helvetica,sans-Serif" font-size="10.00">bool</text>
</a>
</g>
</g>
<!-- Node31&#45;&gt;Node30 -->
<g id="edge49_Node000030_Node000031" class="edge">
<title>Node31&#45;&gt;Node30</title>
<g id="a_edge49_Node000030_Node000031"><a xlink:title=" ">
<path fill="none" stroke="#9a32cd" stroke-dasharray="5,2" d="M180.22,-386.59C217.29,-386.59 283.73,-386.59 329.54,-386.59"/>
<polygon fill="#9a32cd" stroke="#9a32cd" points="180.35,-383.09 170.35,-386.59 180.35,-390.09 180.35,-383.09"/>
</a>
</g>
<text text-anchor="middle" x="255.68" y="-389.09" font-family="Helvetica,sans-Serif" font-size="10.00" fill="grey"> ptr</text>
</g>
</g>
</svg>
