<?xml version="1.0" encoding="UTF-8" standalone="no"?>
<!DOCTYPE svg PUBLIC "-//W3C//DTD SVG 1.1//EN"
 "http://www.w3.org/Graphics/SVG/1.1/DTD/svg11.dtd">
<!-- Generated by graphviz version 10.0.1 (20240210.2158)
 -->
<!-- Title: AELogger/src/AELogger.cpp Pages: 1 -->
<!--zoomable 364 -->

<svg id="main" version="1.1" xmlns="http://www.w3.org/2000/svg" xmlns:xlink="http://www.w3.org/1999/xlink" xml:space="preserve" onload="init(evt)">
<style type="text/css"><![CDATA[
.node, .edge {opacity: 0.7;}
.node.selected, .edge.selected {opacity: 1;}
.edge:hover path { stroke: red; }
.edge:hover polygon { stroke: red; fill: red; }
]]></style>

<defs>
  <circle id="rim" cx="0" cy="0" r="7"/>
  <circle id="rim2" cx="0" cy="0" r="3.5"/>
  <g id="zoomPlus">
    <use xlink:href="#rim" fill="#404040"><set attributeName="fill" to="#808080" begin="zoomplus.mouseover" end="zoomplus.mouseout"/></use>
    <path d="M-4,0h8M0,-4v8" fill="none" stroke="white" stroke-width="1.5" pointer-events="none"/>
  </g>
  <g id="zoomMin">
    <use xlink:href="#rim" fill="#404040"><set attributeName="fill" to="#808080" begin="zoomminus.mouseover" end="zoomminus.mouseout"/></use>
    <path d="M-4,0h8" fill="none" stroke="white" stroke-width="1.5" pointer-events="none"/>
  </g>
  <g id="arrowUp" transform="translate(30 24)">
    <use xlink:href="#rim"/>
    <path pointer-events="none" fill="none" stroke="white" stroke-width="1.5" d="M0,-3.0v7 M-2.5,-0.5L0,-3.0L2.5,-0.5"/>
  </g>
  <g id="arrowRight" transform="rotate(90) translate(36 -43)">
    <use xlink:href="#rim"/>
    <path pointer-events="none" fill="none" stroke="white" stroke-width="1.5" d="M0,-3.0v7 M-2.5,-0.5L0,-3.0L2.5,-0.5"/>
  </g>
  <g id="arrowDown" transform="rotate(180) translate(-30 -48)">
    <use xlink:href="#rim"/>
    <path pointer-events="none" fill="none" stroke="white" stroke-width="1.5" d="M0,-3.0v7 M-2.5,-0.5L0,-3.0L2.5,-0.5"/>
  </g>
  <g id="arrowLeft" transform="rotate(270) translate(-36 17)">
    <use xlink:href="#rim"/>
    <path pointer-events="none" fill="none" stroke="white" stroke-width="1.5" d="M0,-3.0v7 M-2.5,-0.5L0,-3.0L2.5,-0.5"/>
  </g>
  <g id="resetDef">
    <use xlink:href="#rim2" fill="#404040"><set attributeName="fill" to="#808080" begin="reset.mouseover" end="reset.mouseout"/></use>
  </g>
</defs>
<script type="application/ecmascript">
var viewWidth = 1024;
var viewHeight = 364;
var sectionId = 'dynsection-0';
</script>
<script type="application/ecmascript" xlink:href="../../svg.min.js"/>
<svg id="graph" class="graph">
<g id="viewport">
<title>AELogger/src/AELogger.cpp</title>
<!-- Node1 -->
<g id="Node000001" class="node">
<title>Node1</title>
<g id="a_Node000001"><a xlink:title=" ">
<polygon fill="#999999" stroke="#666666" points="780.33,-356 640.58,-356 640.58,-336 780.33,-336 780.33,-356"/>
<text text-anchor="middle" x="710.46" y="-342.5" font-family="Helvetica,sans-Serif" font-size="10.00">AELogger/src/AELogger.cpp</text>
</a>
</g>
</g>
<!-- Node2 -->
<g id="Node000002" class="node">
<title>Node2</title>
<g id="a_Node000002"><a xlink:href="../../d4/d9f/_a_e_logger_8hpp.html" target="_top" xlink:title=" ">
<polygon fill="white" stroke="#666666" points="770.58,-300 650.33,-300 650.33,-280 770.58,-280 770.58,-300"/>
<text text-anchor="middle" x="710.46" y="-286.5" font-family="Helvetica,sans-Serif" font-size="10.00">../include/AELogger.hpp</text>
</a>
</g>
</g>
<!-- Node1&#45;&gt;Node2 -->
<g id="edge1_Node000001_Node000002" class="edge">
<title>Node1&#45;&gt;Node2</title>
<g id="a_edge1_Node000001_Node000002"><a xlink:title=" ">
<path fill="none" stroke="#63b8ff" d="M710.46,-335.59C710.46,-329.01 710.46,-319.96 710.46,-311.73"/>
<polygon fill="#63b8ff" stroke="#63b8ff" points="713.96,-311.81 710.46,-301.81 706.96,-311.81 713.96,-311.81"/>
</a>
</g>
</g>
<!-- Node3 -->
<g id="Node000003" class="node">
<title>Node3</title>
<g id="a_Node000003"><a xlink:href="../../db/da4/_a_e_file_writer_8hpp.html" target="_top" xlink:title=" ">
<polygon fill="white" stroke="#666666" points="476.46,-244 352.46,-244 352.46,-224 476.46,-224 476.46,-244"/>
<text text-anchor="middle" x="414.46" y="-230.5" font-family="Helvetica,sans-Serif" font-size="10.00">include/AEFileWriter.hpp</text>
</a>
</g>
</g>
<!-- Node2&#45;&gt;Node3 -->
<g id="edge2_Node000002_Node000003" class="edge">
<title>Node2&#45;&gt;Node3</title>
<g id="a_edge2_Node000002_Node000003"><a xlink:title=" ">
<path fill="none" stroke="#63b8ff" d="M658.56,-279.53C608.1,-270.33 531.37,-256.33 477.44,-246.49"/>
<polygon fill="#63b8ff" stroke="#63b8ff" points="478.25,-243.08 467.79,-244.73 476.99,-249.97 478.25,-243.08"/>
</a>
</g>
</g>
<!-- Node8 -->
<g id="Node000008" class="node">
<title>Node8</title>
<g id="a_Node000008"><a xlink:title=" ">
<polygon fill="#e0e0e0" stroke="#999999" points="173.96,-20 130.96,-20 130.96,0 173.96,0 173.96,-20"/>
<text text-anchor="middle" x="152.46" y="-6.5" font-family="Helvetica,sans-Serif" font-size="10.00">thread</text>
</a>
</g>
</g>
<!-- Node2&#45;&gt;Node8 -->
<g id="edge43_Node000002_Node000008" class="edge">
<title>Node2&#45;&gt;Node8</title>
<g id="a_edge43_Node000002_Node000008"><a xlink:title=" ">
<path fill="none" stroke="#63b8ff" d="M649.92,-285.96C478.23,-276.55 0.46,-244.49 0.46,-179 0.46,-179 0.46,-179 0.46,-121 0.46,-90.9 -1.37,-77.72 19.46,-56 45.82,-28.51 89.55,-17.81 119.63,-13.65"/>
<polygon fill="#63b8ff" stroke="#63b8ff" points="119.79,-17.16 129.31,-12.49 118.96,-10.21 119.79,-17.16"/>
</a>
</g>
</g>
<!-- Node10 -->
<g id="Node000010" class="node">
<title>Node10</title>
<g id="a_Node000010"><a xlink:title=" ">
<polygon fill="#e0e0e0" stroke="#999999" points="837.08,-132 791.83,-132 791.83,-112 837.08,-112 837.08,-132"/>
<text text-anchor="middle" x="814.46" y="-118.5" font-family="Helvetica,sans-Serif" font-size="10.00">atomic</text>
</a>
</g>
</g>
<!-- Node2&#45;&gt;Node10 -->
<g id="edge40_Node000002_Node000010" class="edge">
<title>Node2&#45;&gt;Node10</title>
<g id="a_edge40_Node000002_Node000010"><a xlink:title=" ">
<path fill="none" stroke="#63b8ff" d="M740.14,-279.58C777.23,-266.01 839.03,-237.06 865.46,-188 875.33,-169.67 857.62,-151.24 840.43,-138.7"/>
<polygon fill="#63b8ff" stroke="#63b8ff" points="842.6,-135.95 832.36,-133.24 838.67,-141.74 842.6,-135.95"/>
</a>
</g>
</g>
<!-- Node12 -->
<g id="Node000012" class="node">
<title>Node12</title>
<g id="a_Node000012"><a xlink:title=" ">
<polygon fill="#e0e0e0" stroke="#999999" points="946.08,-132 882.83,-132 882.83,-112 946.08,-112 946.08,-132"/>
<text text-anchor="middle" x="914.46" y="-118.5" font-family="Helvetica,sans-Serif" font-size="10.00">string_view</text>
</a>
</g>
</g>
<!-- Node2&#45;&gt;Node12 -->
<g id="edge42_Node000002_Node000012" class="edge">
<title>Node2&#45;&gt;Node12</title>
<g id="a_edge42_Node000002_Node000012"><a xlink:title=" ">
<path fill="none" stroke="#63b8ff" d="M755.36,-279.53C780.83,-272.62 812.33,-261.37 836.46,-244 872.5,-218.05 896.09,-169.82 907.15,-142.75"/>
<polygon fill="#63b8ff" stroke="#63b8ff" points="910.32,-144.26 910.68,-133.67 903.79,-141.72 910.32,-144.26"/>
</a>
</g>
</g>
<!-- Node25 -->
<g id="Node000025" class="node">
<title>Node25</title>
<g id="a_Node000025"><a xlink:title=" ">
<polygon fill="#e0e0e0" stroke="#999999" points="540.21,-188 498.71,-188 498.71,-168 540.21,-168 540.21,-188"/>
<text text-anchor="middle" x="519.46" y="-174.5" font-family="Helvetica,sans-Serif" font-size="10.00">vector</text>
</a>
</g>
</g>
<!-- Node2&#45;&gt;Node25 -->
<g id="edge44_Node000002_Node000025" class="edge">
<title>Node2&#45;&gt;Node25</title>
<g id="a_edge44_Node000002_Node000025"><a xlink:title=" ">
<path fill="none" stroke="#63b8ff" d="M694.17,-279.62C661.05,-260.54 585.58,-217.08 545.53,-194.02"/>
<polygon fill="#63b8ff" stroke="#63b8ff" points="547.43,-191.07 537.01,-189.11 543.93,-197.13 547.43,-191.07"/>
</a>
</g>
</g>
<!-- Node27 -->
<g id="Node000027" class="node">
<title>Node27</title>
<g id="a_Node000027"><a xlink:href="../../dc/dc6/_a_e_log_entry_8hpp.html" target="_top" xlink:title=" ">
<polygon fill="white" stroke="#666666" points="770.96,-244 649.96,-244 649.96,-224 770.96,-224 770.96,-244"/>
<text text-anchor="middle" x="710.46" y="-230.5" font-family="Helvetica,sans-Serif" font-size="10.00">include/AELogEntry.hpp</text>
</a>
</g>
</g>
<!-- Node2&#45;&gt;Node27 -->
<g id="edge35_Node000002_Node000027" class="edge">
<title>Node2&#45;&gt;Node27</title>
<g id="a_edge35_Node000002_Node000027"><a xlink:title=" ">
<path fill="none" stroke="#63b8ff" d="M710.46,-279.59C710.46,-273.01 710.46,-263.96 710.46,-255.73"/>
<polygon fill="#63b8ff" stroke="#63b8ff" points="713.96,-255.81 710.46,-245.81 706.96,-255.81 713.96,-255.81"/>
</a>
</g>
</g>
<!-- Node29 -->
<g id="Node000029" class="node">
<title>Node29</title>
<g id="a_Node000029"><a xlink:title=" ">
<polygon fill="#e0e0e0" stroke="#999999" points="1015.96,-244 972.96,-244 972.96,-224 1015.96,-224 1015.96,-244"/>
<text text-anchor="middle" x="994.46" y="-230.5" font-family="Helvetica,sans-Serif" font-size="10.00">mutex</text>
</a>
</g>
</g>
<!-- Node2&#45;&gt;Node29 -->
<g id="edge41_Node000002_Node000029" class="edge">
<title>Node2&#45;&gt;Node29</title>
<g id="a_edge41_Node000002_Node000029"><a xlink:title=" ">
<path fill="none" stroke="#63b8ff" d="M768.8,-279.52C819.19,-271.07 893.87,-257.92 958.46,-244 959.62,-243.75 960.81,-243.49 962,-243.22"/>
<polygon fill="#63b8ff" stroke="#63b8ff" points="962.41,-246.72 971.34,-241.01 960.8,-239.91 962.41,-246.72"/>
</a>
</g>
</g>
<!-- Node4 -->
<g id="Node000004" class="node">
<title>Node4</title>
<g id="a_Node000004"><a xlink:href="../../d7/d7f/_a_e_module_base_8hpp.html" target="_top" xlink:title=" ">
<polygon fill="white" stroke="#666666" points="694.46,-188 558.46,-188 558.46,-168 694.46,-168 694.46,-188"/>
<text text-anchor="middle" x="626.46" y="-174.5" font-family="Helvetica,sans-Serif" font-size="10.00">include/AEModuleBase.hpp</text>
</a>
</g>
</g>
<!-- Node3&#45;&gt;Node4 -->
<g id="edge3_Node000003_Node000004" class="edge">
<title>Node3&#45;&gt;Node4</title>
<g id="a_edge3_Node000003_Node000004"><a xlink:title=" ">
<path fill="none" stroke="#63b8ff" d="M451.39,-223.59C486.58,-214.63 539.78,-201.08 578.3,-191.27"/>
<polygon fill="#63b8ff" stroke="#63b8ff" points="578.95,-194.71 587.78,-188.85 577.22,-187.93 578.95,-194.71"/>
</a>
</g>
</g>
<!-- Node3&#45;&gt;Node10 -->
<g id="edge28_Node000003_Node000010" class="edge">
<title>Node3&#45;&gt;Node10</title>
<g id="a_edge28_Node000003_Node000010"><a xlink:title=" ">
<path fill="none" stroke="#63b8ff" d="M476.71,-230.04C536.38,-225.65 628.24,-214.79 703.46,-188 712.49,-184.78 759.37,-156.63 789.24,-138.44"/>
<polygon fill="#63b8ff" stroke="#63b8ff" points="791,-141.47 797.72,-133.27 787.36,-135.49 791,-141.47"/>
</a>
</g>
</g>
<!-- Node11 -->
<g id="Node000011" class="node">
<title>Node11</title>
<g id="a_Node000011"><a xlink:title=" ">
<polygon fill="#e0e0e0" stroke="#999999" points="645.46,-132 605.46,-132 605.46,-112 645.46,-112 645.46,-132"/>
<text text-anchor="middle" x="625.46" y="-118.5" font-family="Helvetica,sans-Serif" font-size="10.00">string</text>
</a>
</g>
</g>
<!-- Node3&#45;&gt;Node11 -->
<g id="edge30_Node000003_Node000011" class="edge">
<title>Node3&#45;&gt;Node11</title>
<g id="a_edge30_Node000003_Node000011"><a xlink:title=" ">
<path fill="none" stroke="#63b8ff" d="M422.8,-223.73C435.79,-209.81 462.19,-183.5 489.46,-168 522.9,-148.99 565.59,-136.52 594.13,-129.63"/>
<polygon fill="#63b8ff" stroke="#63b8ff" points="594.64,-133.11 603.59,-127.44 593.06,-126.29 594.64,-133.11"/>
</a>
</g>
</g>
<!-- Node13 -->
<g id="Node000013" class="node">
<title>Node13</title>
<g id="a_Node000013"><a xlink:href="../../de/de8/_a_e_utils_8hpp.html" target="_top" xlink:title="This file contains the engine&#39;s usefull utilities for trivial tasks.">
<polygon fill="white" stroke="#666666" points="442.21,-188 340.71,-188 340.71,-168 442.21,-168 442.21,-188"/>
<text text-anchor="middle" x="391.46" y="-174.5" font-family="Helvetica,sans-Serif" font-size="10.00">include/AEUtils.hpp</text>
</a>
</g>
</g>
<!-- Node3&#45;&gt;Node13 -->
<g id="edge12_Node000003_Node000013" class="edge">
<title>Node3&#45;&gt;Node13</title>
<g id="a_edge12_Node000003_Node000013"><a xlink:title=" ">
<path fill="none" stroke="#63b8ff" d="M410.45,-223.59C407.55,-216.78 403.52,-207.32 399.92,-198.86"/>
<polygon fill="#63b8ff" stroke="#63b8ff" points="403.15,-197.52 396.01,-189.69 396.71,-200.26 403.15,-197.52"/>
</a>
</g>
</g>
<!-- Node16 -->
<g id="Node000016" class="node">
<title>Node16</title>
<g id="a_Node000016"><a xlink:title=" ">
<polygon fill="#e0e0e0" stroke="#999999" points="70.58,-76 28.33,-76 28.33,-56 70.58,-56 70.58,-76"/>
<text text-anchor="middle" x="49.46" y="-62.5" font-family="Helvetica,sans-Serif" font-size="10.00">cstdio</text>
</a>
</g>
</g>
<!-- Node3&#45;&gt;Node16 -->
<g id="edge34_Node000003_Node000016" class="edge">
<title>Node3&#45;&gt;Node16</title>
<g id="a_edge34_Node000003_Node000016"><a xlink:title=" ">
<path fill="none" stroke="#63b8ff" d="M352.18,-228.73C299.22,-223.55 221.89,-212.26 158.46,-188 114.46,-171.17 96.94,-169.52 68.46,-132 58.66,-119.09 53.91,-101.25 51.6,-87.52"/>
<polygon fill="#63b8ff" stroke="#63b8ff" points="55.1,-87.27 50.31,-77.83 48.16,-88.2 55.1,-87.27"/>
</a>
</g>
</g>
<!-- Node20 -->
<g id="Node000020" class="node">
<title>Node20</title>
<g id="a_Node000020"><a xlink:title=" ">
<polygon fill="#e0e0e0" stroke="#999999" points="123.08,-132 77.83,-132 77.83,-112 123.08,-112 123.08,-132"/>
<text text-anchor="middle" x="100.46" y="-118.5" font-family="Helvetica,sans-Serif" font-size="10.00">cstring</text>
</a>
</g>
</g>
<!-- Node3&#45;&gt;Node20 -->
<g id="edge32_Node000003_Node000020" class="edge">
<title>Node3&#45;&gt;Node20</title>
<g id="a_edge32_Node000003_Node000020"><a xlink:title=" ">
<path fill="none" stroke="#63b8ff" d="M379.33,-223.54C350.64,-215.39 309.29,-202.64 274.46,-188 256.86,-180.61 254.02,-175.47 236.46,-168 217.9,-160.11 168.28,-144.16 134.4,-133.52"/>
<polygon fill="#63b8ff" stroke="#63b8ff" points="135.61,-130.24 125.02,-130.59 133.52,-136.92 135.61,-130.24"/>
</a>
</g>
</g>
<!-- Node24 -->
<g id="Node000024" class="node">
<title>Node24</title>
<g id="a_Node000024"><a xlink:title=" ">
<polygon fill="#e0e0e0" stroke="#999999" points="227.58,-188 167.33,-188 167.33,-168 227.58,-168 227.58,-188"/>
<text text-anchor="middle" x="197.46" y="-174.5" font-family="Helvetica,sans-Serif" font-size="10.00">filesystem</text>
</a>
</g>
</g>
<!-- Node3&#45;&gt;Node24 -->
<g id="edge29_Node000003_Node000024" class="edge">
<title>Node3&#45;&gt;Node24</title>
<g id="a_edge29_Node000003_Node000024"><a xlink:title=" ">
<path fill="none" stroke="#63b8ff" d="M376.66,-223.59C338.2,-214.02 278.74,-199.23 238.99,-189.33"/>
<polygon fill="#63b8ff" stroke="#63b8ff" points="239.85,-185.94 229.3,-186.92 238.16,-192.74 239.85,-185.94"/>
</a>
</g>
</g>
<!-- Node3&#45;&gt;Node25 -->
<g id="edge31_Node000003_Node000025" class="edge">
<title>Node3&#45;&gt;Node25</title>
<g id="a_edge31_Node000003_Node000025"><a xlink:title=" ">
<path fill="none" stroke="#63b8ff" d="M432.75,-223.59C448.76,-215.36 472.29,-203.26 490.8,-193.74"/>
<polygon fill="#63b8ff" stroke="#63b8ff" points="492.39,-196.86 499.68,-189.17 489.19,-190.63 492.39,-196.86"/>
</a>
</g>
</g>
<!-- Node26 -->
<g id="Node000026" class="node">
<title>Node26</title>
<g id="a_Node000026"><a xlink:title=" ">
<polygon fill="#e0e0e0" stroke="#999999" points="323.08,-188 283.83,-188 283.83,-168 323.08,-168 323.08,-188"/>
<text text-anchor="middle" x="303.46" y="-174.5" font-family="Helvetica,sans-Serif" font-size="10.00">cfloat</text>
</a>
</g>
</g>
<!-- Node3&#45;&gt;Node26 -->
<g id="edge33_Node000003_Node000026" class="edge">
<title>Node3&#45;&gt;Node26</title>
<g id="a_edge33_Node000003_Node000026"><a xlink:title=" ">
<path fill="none" stroke="#63b8ff" d="M395.12,-223.59C378.04,-215.28 352.85,-203.03 333.2,-193.47"/>
<polygon fill="#63b8ff" stroke="#63b8ff" points="334.83,-190.37 324.3,-189.14 331.77,-196.66 334.83,-190.37"/>
</a>
</g>
</g>
<!-- Node5 -->
<g id="Node000005" class="node">
<title>Node5</title>
<g id="a_Node000005"><a xlink:href="../../dc/d89/_a_e_typedefs_8hpp.html" target="_top" xlink:title="This file contains the engine&#39;s typedefs and variable type aliases.">
<polygon fill="white" stroke="#666666" points="426.96,-76 305.96,-76 305.96,-56 426.96,-56 426.96,-76"/>
<text text-anchor="middle" x="366.46" y="-62.5" font-family="Helvetica,sans-Serif" font-size="10.00">include/AETypedefs.hpp</text>
</a>
</g>
</g>
<!-- Node4&#45;&gt;Node5 -->
<g id="edge4_Node000004_Node000005" class="edge">
<title>Node4&#45;&gt;Node5</title>
<g id="a_edge4_Node000004_Node000005"><a xlink:title=" ">
<path fill="none" stroke="#63b8ff" d="M636.2,-167.66C649.15,-154.11 668.84,-128.8 654.46,-112 640.53,-95.73 519.08,-81.3 438.41,-73.39"/>
<polygon fill="#63b8ff" stroke="#63b8ff" points="439.11,-69.94 428.82,-72.46 438.43,-76.91 439.11,-69.94"/>
</a>
</g>
</g>
<!-- Node9 -->
<g id="Node000009" class="node">
<title>Node9</title>
<g id="a_Node000009"><a xlink:href="../../dd/dd8/_a_e_flags_8hpp.html" target="_top" xlink:title="This file contains the flags to manipulate engine&#39;s funcitonality.">
<polygon fill="white" stroke="#666666" points="630.46,-76 524.46,-76 524.46,-56 630.46,-56 630.46,-76"/>
<text text-anchor="middle" x="577.46" y="-62.5" font-family="Helvetica,sans-Serif" font-size="10.00">include/AEFlags.hpp</text>
</a>
</g>
</g>
<!-- Node4&#45;&gt;Node9 -->
<g id="edge8_Node000004_Node000009" class="edge">
<title>Node4&#45;&gt;Node9</title>
<g id="a_edge8_Node000004_Node000009"><a xlink:title=" ">
<path fill="none" stroke="#63b8ff" d="M647.05,-167.53C670.04,-155.59 702.21,-133.97 687.46,-112 676.79,-96.11 659.41,-85.82 641.58,-79.17"/>
<polygon fill="#63b8ff" stroke="#63b8ff" points="642.81,-75.89 632.21,-76.05 640.59,-82.53 642.81,-75.89"/>
</a>
</g>
</g>
<!-- Node4&#45;&gt;Node10 -->
<g id="edge9_Node000004_Node000010" class="edge">
<title>Node4&#45;&gt;Node10</title>
<g id="a_edge9_Node000004_Node000010"><a xlink:title=" ">
<path fill="none" stroke="#63b8ff" d="M659.21,-167.59C693.23,-157.82 746.22,-142.6 780.64,-132.71"/>
<polygon fill="#63b8ff" stroke="#63b8ff" points="781.45,-136.12 790.09,-130 779.51,-129.4 781.45,-136.12"/>
</a>
</g>
</g>
<!-- Node4&#45;&gt;Node11 -->
<g id="edge10_Node000004_Node000011" class="edge">
<title>Node4&#45;&gt;Node11</title>
<g id="a_edge10_Node000004_Node000011"><a xlink:title=" ">
<path fill="none" stroke="#63b8ff" d="M626.28,-167.59C626.16,-161.01 625.99,-151.96 625.84,-143.73"/>
<polygon fill="#63b8ff" stroke="#63b8ff" points="629.34,-143.75 625.66,-133.81 622.34,-143.87 629.34,-143.75"/>
</a>
</g>
</g>
<!-- Node4&#45;&gt;Node12 -->
<g id="edge11_Node000004_Node000012" class="edge">
<title>Node4&#45;&gt;Node12</title>
<g id="a_edge11_Node000004_Node000012"><a xlink:title=" ">
<path fill="none" stroke="#63b8ff" d="M676.95,-167.53C732,-157.21 819.15,-140.87 871.17,-131.12"/>
<polygon fill="#63b8ff" stroke="#63b8ff" points="871.68,-134.58 880.86,-129.3 870.39,-127.7 871.68,-134.58"/>
</a>
</g>
</g>
<!-- Node6 -->
<g id="Node000006" class="node">
<title>Node6</title>
<g id="a_Node000006"><a xlink:title=" ">
<polygon fill="#e0e0e0" stroke="#999999" points="419.71,-20 375.21,-20 375.21,0 419.71,0 419.71,-20"/>
<text text-anchor="middle" x="397.46" y="-6.5" font-family="Helvetica,sans-Serif" font-size="10.00">climits</text>
</a>
</g>
</g>
<!-- Node5&#45;&gt;Node6 -->
<g id="edge5_Node000005_Node000006" class="edge">
<title>Node5&#45;&gt;Node6</title>
<g id="a_edge5_Node000005_Node000006"><a xlink:title=" ">
<path fill="none" stroke="#63b8ff" d="M371.86,-55.59C375.9,-48.55 381.57,-38.67 386.55,-30"/>
<polygon fill="#63b8ff" stroke="#63b8ff" points="389.42,-32.03 391.37,-21.61 383.35,-28.54 389.42,-32.03"/>
</a>
</g>
</g>
<!-- Node7 -->
<g id="Node000007" class="node">
<title>Node7</title>
<g id="a_Node000007"><a xlink:title=" ">
<polygon fill="#e0e0e0" stroke="#999999" points="357.08,-20 311.83,-20 311.83,0 357.08,0 357.08,-20"/>
<text text-anchor="middle" x="334.46" y="-6.5" font-family="Helvetica,sans-Serif" font-size="10.00">chrono</text>
</a>
</g>
</g>
<!-- Node5&#45;&gt;Node7 -->
<g id="edge6_Node000005_Node000007" class="edge">
<title>Node5&#45;&gt;Node7</title>
<g id="a_edge6_Node000005_Node000007"><a xlink:title=" ">
<path fill="none" stroke="#63b8ff" d="M360.88,-55.59C356.71,-48.55 350.85,-38.67 345.72,-30"/>
<polygon fill="#63b8ff" stroke="#63b8ff" points="348.85,-28.42 340.74,-21.6 342.83,-31.99 348.85,-28.42"/>
</a>
</g>
</g>
<!-- Node5&#45;&gt;Node8 -->
<g id="edge7_Node000005_Node000008" class="edge">
<title>Node5&#45;&gt;Node8</title>
<g id="a_edge7_Node000005_Node000008"><a xlink:title=" ">
<path fill="none" stroke="#63b8ff" d="M329.18,-55.59C288.42,-45.31 223.74,-28.99 184.97,-19.2"/>
<polygon fill="#63b8ff" stroke="#63b8ff" points="186.31,-15.93 175.76,-16.88 184.6,-22.72 186.31,-15.93"/>
</a>
</g>
</g>
<!-- Node13&#45;&gt;Node5 -->
<g id="edge21_Node000013_Node000005" class="edge">
<title>Node13&#45;&gt;Node5</title>
<g id="a_edge21_Node000013_Node000005"><a xlink:title=" ">
<path fill="none" stroke="#63b8ff" d="M381.24,-167.8C372.76,-159.43 361.34,-146.23 356.46,-132 351.41,-117.28 354.57,-99.81 358.63,-86.69"/>
<polygon fill="#63b8ff" stroke="#63b8ff" points="361.85,-88.09 361.9,-77.5 355.25,-85.75 361.85,-88.09"/>
</a>
</g>
</g>
<!-- Node13&#45;&gt;Node9 -->
<g id="edge20_Node000013_Node000009" class="edge">
<title>Node13&#45;&gt;Node9</title>
<g id="a_edge20_Node000013_Node000009"><a xlink:title=" ">
<path fill="none" stroke="#63b8ff" d="M442.42,-168.89C485.23,-161.09 541.99,-148.12 558.46,-132 570.28,-120.42 574.85,-101.92 576.56,-87.62"/>
<polygon fill="#63b8ff" stroke="#63b8ff" points="580.03,-88.15 577.33,-77.91 573.05,-87.6 580.03,-88.15"/>
</a>
</g>
</g>
<!-- Node13&#45;&gt;Node11 -->
<g id="edge23_Node000013_Node000011" class="edge">
<title>Node13&#45;&gt;Node11</title>
<g id="a_edge23_Node000013_Node000011"><a xlink:title=" ">
<path fill="none" stroke="#63b8ff" d="M435.66,-167.55C476.26,-158.76 538.05,-145.07 591.46,-132 592.28,-131.8 593.11,-131.59 593.96,-131.38"/>
<polygon fill="#63b8ff" stroke="#63b8ff" points="594.71,-134.8 603.53,-128.93 592.97,-128.02 594.71,-134.8"/>
</a>
</g>
</g>
<!-- Node14 -->
<g id="Node000014" class="node">
<title>Node14</title>
<g id="a_Node000014"><a xlink:href="../../d9/d6a/_a_e_utils_macros_8hpp.html" target="_top" xlink:title="This file contains the engine&#39;s usefull macros for trivial tasks.">
<polygon fill="white" stroke="#666666" points="241.46,-132 141.46,-132 141.46,-112 241.46,-112 241.46,-132"/>
<text text-anchor="middle" x="191.46" y="-118.5" font-family="Helvetica,sans-Serif" font-size="10.00">AEUtilsMacros.hpp</text>
</a>
</g>
</g>
<!-- Node13&#45;&gt;Node14 -->
<g id="edge13_Node000013_Node000014" class="edge">
<title>Node13&#45;&gt;Node14</title>
<g id="a_edge13_Node000013_Node000014"><a xlink:title=" ">
<path fill="none" stroke="#63b8ff" d="M356.62,-167.59C323.56,-158.67 273.66,-145.19 237.36,-135.39"/>
<polygon fill="#63b8ff" stroke="#63b8ff" points="238.6,-132.1 228.03,-132.87 236.77,-138.86 238.6,-132.1"/>
</a>
</g>
</g>
<!-- Node19 -->
<g id="Node000019" class="node">
<title>Node19</title>
<g id="a_Node000019"><a xlink:title=" ">
<polygon fill="#e0e0e0" stroke="#999999" points="421.33,-132 365.58,-132 365.58,-112 421.33,-112 421.33,-132"/>
<text text-anchor="middle" x="393.46" y="-118.5" font-family="Helvetica,sans-Serif" font-size="10.00">algorithm</text>
</a>
</g>
</g>
<!-- Node13&#45;&gt;Node19 -->
<g id="edge22_Node000013_Node000019" class="edge">
<title>Node13&#45;&gt;Node19</title>
<g id="a_edge22_Node000013_Node000019"><a xlink:title=" ">
<path fill="none" stroke="#63b8ff" d="M391.81,-167.59C392.05,-161.01 392.39,-151.96 392.69,-143.73"/>
<polygon fill="#63b8ff" stroke="#63b8ff" points="396.19,-143.93 393.06,-133.81 389.19,-143.67 396.19,-143.93"/>
</a>
</g>
</g>
<!-- Node13&#45;&gt;Node20 -->
<g id="edge24_Node000013_Node000020" class="edge">
<title>Node13&#45;&gt;Node20</title>
<g id="a_edge24_Node000013_Node000020"><a xlink:title=" ">
<path fill="none" stroke="#63b8ff" d="M340.4,-168.77C281.22,-159.12 186.15,-143.28 134.66,-132.25"/>
<polygon fill="#63b8ff" stroke="#63b8ff" points="135.46,-128.85 124.94,-130.1 133.94,-135.68 135.46,-128.85"/>
</a>
</g>
</g>
<!-- Node21 -->
<g id="Node000021" class="node">
<title>Node21</title>
<g id="a_Node000021"><a xlink:title=" ">
<polygon fill="#e0e0e0" stroke="#999999" points="479.46,-132 439.46,-132 439.46,-112 479.46,-112 479.46,-132"/>
<text text-anchor="middle" x="459.46" y="-118.5" font-family="Helvetica,sans-Serif" font-size="10.00">ctime</text>
</a>
</g>
</g>
<!-- Node13&#45;&gt;Node21 -->
<g id="edge25_Node000013_Node000021" class="edge">
<title>Node13&#45;&gt;Node21</title>
<g id="a_edge25_Node000013_Node000021"><a xlink:title=" ">
<path fill="none" stroke="#63b8ff" d="M403.3,-167.59C413.15,-159.77 427.39,-148.46 439.07,-139.19"/>
<polygon fill="#63b8ff" stroke="#63b8ff" points="440.91,-142.2 446.56,-133.24 436.56,-136.72 440.91,-142.2"/>
</a>
</g>
</g>
<!-- Node22 -->
<g id="Node000022" class="node">
<title>Node22</title>
<g id="a_Node000022"><a xlink:title=" ">
<polygon fill="#e0e0e0" stroke="#999999" points="549.08,-132 497.83,-132 497.83,-112 549.08,-112 549.08,-132"/>
<text text-anchor="middle" x="523.46" y="-118.5" font-family="Helvetica,sans-Serif" font-size="10.00">sstream</text>
</a>
</g>
</g>
<!-- Node13&#45;&gt;Node22 -->
<g id="edge26_Node000013_Node000022" class="edge">
<title>Node13&#45;&gt;Node22</title>
<g id="a_edge26_Node000013_Node000022"><a xlink:title=" ">
<path fill="none" stroke="#63b8ff" d="M414.45,-167.59C435.24,-159.09 466.11,-146.46 489.7,-136.81"/>
<polygon fill="#63b8ff" stroke="#63b8ff" points="490.95,-140.08 498.89,-133.05 488.3,-133.6 490.95,-140.08"/>
</a>
</g>
</g>
<!-- Node23 -->
<g id="Node000023" class="node">
<title>Node23</title>
<g id="a_Node000023"><a xlink:title=" ">
<polygon fill="#e0e0e0" stroke="#999999" points="309.33,-132 259.58,-132 259.58,-112 309.33,-112 309.33,-132"/>
<text text-anchor="middle" x="284.46" y="-118.5" font-family="Helvetica,sans-Serif" font-size="10.00">iomanip</text>
</a>
</g>
</g>
<!-- Node13&#45;&gt;Node23 -->
<g id="edge27_Node000013_Node000023" class="edge">
<title>Node13&#45;&gt;Node23</title>
<g id="a_edge27_Node000013_Node000023"><a xlink:title=" ">
<path fill="none" stroke="#63b8ff" d="M372.82,-167.59C356.43,-159.32 332.3,-147.14 313.4,-137.6"/>
<polygon fill="#63b8ff" stroke="#63b8ff" points="315.1,-134.54 304.59,-133.16 311.94,-140.79 315.1,-134.54"/>
</a>
</g>
</g>
<!-- Node14&#45;&gt;Node5 -->
<g id="edge14_Node000014_Node000005" class="edge">
<title>Node14&#45;&gt;Node5</title>
<g id="a_edge14_Node000014_Node000005"><a xlink:title=" ">
<path fill="none" stroke="#63b8ff" d="M221.94,-111.59C250.5,-102.78 293.41,-89.54 325.05,-79.78"/>
<polygon fill="#63b8ff" stroke="#63b8ff" points="325.77,-83.22 334.29,-76.93 323.7,-76.53 325.77,-83.22"/>
</a>
</g>
</g>
<!-- Node14&#45;&gt;Node9 -->
<g id="edge15_Node000014_Node000009" class="edge">
<title>Node14&#45;&gt;Node9</title>
<g id="a_edge15_Node000014_Node000009"><a xlink:title=" ">
<path fill="none" stroke="#63b8ff" d="M241.66,-113.29C244.64,-112.85 247.59,-112.42 250.46,-112 341.6,-98.78 447.17,-84.42 513.14,-75.57"/>
<polygon fill="#63b8ff" stroke="#63b8ff" points="513.24,-79.09 522.68,-74.29 512.31,-72.15 513.24,-79.09"/>
</a>
</g>
</g>
<!-- Node15 -->
<g id="Node000015" class="node">
<title>Node15</title>
<g id="a_Node000015"><a xlink:title=" ">
<polygon fill="#e0e0e0" stroke="#999999" points="142.21,-76 88.71,-76 88.71,-56 142.21,-56 142.21,-76"/>
<text text-anchor="middle" x="115.46" y="-62.5" font-family="Helvetica,sans-Serif" font-size="10.00">iostream</text>
</a>
</g>
</g>
<!-- Node14&#45;&gt;Node15 -->
<g id="edge16_Node000014_Node000015" class="edge">
<title>Node14&#45;&gt;Node15</title>
<g id="a_edge16_Node000014_Node000015"><a xlink:title=" ">
<path fill="none" stroke="#63b8ff" d="M178.22,-111.59C167.17,-103.74 151.18,-92.38 138.1,-83.09"/>
<polygon fill="#63b8ff" stroke="#63b8ff" points="140.21,-80.3 130.03,-77.36 136.16,-86 140.21,-80.3"/>
</a>
</g>
</g>
<!-- Node14&#45;&gt;Node16 -->
<g id="edge17_Node000014_Node000016" class="edge">
<title>Node14&#45;&gt;Node16</title>
<g id="a_edge17_Node000014_Node000016"><a xlink:title=" ">
<path fill="none" stroke="#63b8ff" d="M166.72,-111.59C143.05,-102.59 107.22,-88.97 81.4,-79.15"/>
<polygon fill="#63b8ff" stroke="#63b8ff" points="82.67,-75.89 72.08,-75.6 80.19,-82.43 82.67,-75.89"/>
</a>
</g>
</g>
<!-- Node17 -->
<g id="Node000017" class="node">
<title>Node17</title>
<g id="a_Node000017"><a xlink:title=" ">
<polygon fill="#e0e0e0" stroke="#999999" points="222.33,-76 160.58,-76 160.58,-56 222.33,-56 222.33,-76"/>
<text text-anchor="middle" x="191.46" y="-62.5" font-family="Helvetica,sans-Serif" font-size="10.00">type_traits</text>
</a>
</g>
</g>
<!-- Node14&#45;&gt;Node17 -->
<g id="edge18_Node000014_Node000017" class="edge">
<title>Node14&#45;&gt;Node17</title>
<g id="a_edge18_Node000014_Node000017"><a xlink:title=" ">
<path fill="none" stroke="#63b8ff" d="M191.46,-111.59C191.46,-105.01 191.46,-95.96 191.46,-87.73"/>
<polygon fill="#63b8ff" stroke="#63b8ff" points="194.96,-87.81 191.46,-77.81 187.96,-87.81 194.96,-87.81"/>
</a>
</g>
</g>
<!-- Node18 -->
<g id="Node000018" class="node">
<title>Node18</title>
<g id="a_Node000018"><a xlink:title=" ">
<polygon fill="#e0e0e0" stroke="#999999" points="288.21,-76 240.71,-76 240.71,-56 288.21,-56 288.21,-76"/>
<text text-anchor="middle" x="264.46" y="-62.5" font-family="Helvetica,sans-Serif" font-size="10.00">cstddef</text>
</a>
</g>
</g>
<!-- Node14&#45;&gt;Node18 -->
<g id="edge19_Node000014_Node000018" class="edge">
<title>Node14&#45;&gt;Node18</title>
<g id="a_edge19_Node000014_Node000018"><a xlink:title=" ">
<path fill="none" stroke="#63b8ff" d="M204.17,-111.59C214.85,-103.7 230.34,-92.24 242.94,-82.92"/>
<polygon fill="#63b8ff" stroke="#63b8ff" points="244.71,-85.96 250.67,-77.2 240.55,-80.33 244.71,-85.96"/>
</a>
</g>
</g>
<!-- Node27&#45;&gt;Node4 -->
<g id="edge37_Node000027_Node000004" class="edge">
<title>Node27&#45;&gt;Node4</title>
<g id="a_edge37_Node000027_Node000004"><a xlink:title=" ">
<path fill="none" stroke="#63b8ff" d="M695.83,-223.59C683.38,-215.59 665.24,-203.93 650.64,-194.54"/>
<polygon fill="#63b8ff" stroke="#63b8ff" points="652.78,-191.76 642.48,-189.3 649,-197.65 652.78,-191.76"/>
</a>
</g>
</g>
<!-- Node27&#45;&gt;Node10 -->
<g id="edge39_Node000027_Node000010" class="edge">
<title>Node27&#45;&gt;Node10</title>
<g id="a_edge39_Node000027_Node000010"><a xlink:title=" ">
<path fill="none" stroke="#63b8ff" d="M771.31,-229.23C799.89,-224.04 831.55,-212.62 849.46,-188 860.57,-172.72 847.28,-153.49 834.01,-139.92"/>
<polygon fill="#63b8ff" stroke="#63b8ff" points="836.73,-137.67 827.06,-133.33 831.91,-142.75 836.73,-137.67"/>
</a>
</g>
</g>
<!-- Node27&#45;&gt;Node13 -->
<g id="edge38_Node000027_Node000013" class="edge">
<title>Node27&#45;&gt;Node13</title>
<g id="a_edge38_Node000027_Node000013"><a xlink:title=" ">
<path fill="none" stroke="#63b8ff" d="M654.53,-223.53C598.41,-214.03 512.15,-199.43 453.85,-189.56"/>
<polygon fill="#63b8ff" stroke="#63b8ff" points="454.51,-186.12 444.07,-187.91 453.35,-193.03 454.51,-186.12"/>
</a>
</g>
</g>
<!-- Node28 -->
<g id="Node000028" class="node">
<title>Node28</title>
<g id="a_Node000028"><a xlink:href="../../dc/dd8/_a_e_log_types_8hpp.html" target="_top" xlink:title=" ">
<polygon fill="white" stroke="#666666" points="840.58,-188 750.33,-188 750.33,-168 840.58,-168 840.58,-188"/>
<text text-anchor="middle" x="795.46" y="-174.5" font-family="Helvetica,sans-Serif" font-size="10.00">AELogTypes.hpp</text>
</a>
</g>
</g>
<!-- Node27&#45;&gt;Node28 -->
<g id="edge36_Node000027_Node000028" class="edge">
<title>Node27&#45;&gt;Node28</title>
<g id="a_edge36_Node000027_Node000028"><a xlink:title=" ">
<path fill="none" stroke="#63b8ff" d="M725.26,-223.59C737.86,-215.59 756.21,-203.93 770.99,-194.54"/>
<polygon fill="#63b8ff" stroke="#63b8ff" points="772.7,-197.61 779.26,-189.29 768.94,-191.7 772.7,-197.61"/>
</a>
</g>
</g>
</g>
</svg>

<g id="navigator" transform="translate(0 0)" fill="#404254">
  <rect fill="#f2f5e9" fill-opacity="0.5" stroke="#606060" stroke-width=".5" x="0" y="0" width="60" height="60"/>
  <use id="zoomplus" xlink:href="#zoomPlus" x="17" y="9" onmousedown="handleZoom(evt,'in')"/>
  <use id="zoomminus" xlink:href="#zoomMin" x="42" y="9" onmousedown="handleZoom(evt,'out')"/>
  <use id="reset" xlink:href="#resetDef" x="30" y="36" onmousedown="handleReset()"/>
   <use id="arrowup" xlink:href="#arrowUp" x="0" y="0" onmousedown="handlePan(0,-1)"/>
  <use id="arrowright" xlink:href="#arrowRight" x="0" y="0" onmousedown="handlePan(1,0)"/>
  <use id="arrowdown" xlink:href="#arrowDown" x="0" y="0" onmousedown="handlePan(0,1)"/>
  <use id="arrowleft" xlink:href="#arrowLeft" x="0" y="0" onmousedown="handlePan(-1,0)"/>
</g>
<svg viewBox="0 0 15 15" width="100%" height="30px" preserveAspectRatio="xMaxYMin meet">
 <g id="arrow_out" transform="scale(0.3 0.3)">
  <a xlink:href="_a_e_logger_8cpp__incl_org.svg" target="_base">
   <rect id="button" ry="5" rx="5" y="6" x="6" height="38" width="38"
        fill="#f2f5e9" fill-opacity="0.5" stroke="#606060" stroke-width="1.0"/>
   <path id="arrow"
     d="M 11.500037,31.436501 C 11.940474,20.09759 22.043105,11.32322 32.158766,21.979434 L 37.068811,17.246167 C 37.068811,17.246167 37.088388,32 37.088388,32 L 22.160133,31.978069 C 22.160133,31.978069 26.997745,27.140456 26.997745,27.140456 C 18.528582,18.264221 13.291696,25.230495 11.500037,31.436501 z"
     style="fill:#404040;"/>
  </a>
 </g>
</svg>

<style type='text/css'>
<![CDATA[
[data-mouse-over-selected='false'] { opacity: 0.7; }
[data-mouse-over-selected='true']  { opacity: 1.0; }
]]>
</style>
<script type="application/ecmascript"><![CDATA[
document.addEventListener('DOMContentLoaded', (event) => {
  highlightEdges();
  highlightAdjacentNodes();
});
]]></script>
</svg>
