<?xml version="1.0" encoding="UTF-8" standalone="no"?>
<!DOCTYPE svg PUBLIC "-//W3C//DTD SVG 1.1//EN"
 "http://www.w3.org/Graphics/SVG/1.1/DTD/svg11.dtd">
<!-- Generated by graphviz version 10.0.1 (20240210.2158)
 -->
<!-- Title: AELogger/src/AELogger.cpp Pages: 1 -->
<svg width="948pt" height="308pt"
 viewBox="0.00 0.00 948.12 308.00" xmlns="http://www.w3.org/2000/svg" xmlns:xlink="http://www.w3.org/1999/xlink">
<g id="graph0" class="graph" transform="scale(1 1) rotate(0) translate(4 304)">
<title>AELogger/src/AELogger.cpp</title>
<!-- Node1 -->
<g id="Node000001" class="node">
<title>Node1</title>
<g id="a_Node000001"><a xlink:title=" ">
<polygon fill="#999999" stroke="#666666" points="704.49,-300 564.74,-300 564.74,-280 704.49,-280 704.49,-300"/>
<text text-anchor="middle" x="634.62" y="-286.5" font-family="Helvetica,sans-Serif" font-size="10.00">AELogger/src/AELogger.cpp</text>
</a>
</g>
</g>
<!-- Node2 -->
<g id="Node000002" class="node">
<title>Node2</title>
<g id="a_Node000002"><a xlink:href="../../d4/d9f/_a_e_logger_8hpp.html" target="_top" xlink:title=" ">
<polygon fill="white" stroke="#666666" points="694.74,-244 574.49,-244 574.49,-224 694.74,-224 694.74,-244"/>
<text text-anchor="middle" x="634.62" y="-230.5" font-family="Helvetica,sans-Serif" font-size="10.00">../include/AELogger.hpp</text>
</a>
</g>
</g>
<!-- Node1&#45;&gt;Node2 -->
<g id="edge1_Node000001_Node000002" class="edge">
<title>Node1&#45;&gt;Node2</title>
<g id="a_edge1_Node000001_Node000002"><a xlink:title=" ">
<path fill="none" stroke="#63b8ff" d="M634.62,-279.59C634.62,-273.01 634.62,-263.96 634.62,-255.73"/>
<polygon fill="#63b8ff" stroke="#63b8ff" points="638.12,-255.81 634.62,-245.81 631.12,-255.81 638.12,-255.81"/>
</a>
</g>
</g>
<!-- Node3 -->
<g id="Node000003" class="node">
<title>Node3</title>
<g id="a_Node000003"><a xlink:href="../../db/da4/_a_e_file_writer_8hpp.html" target="_top" xlink:title=" ">
<polygon fill="white" stroke="#666666" points="400.62,-188 276.62,-188 276.62,-168 400.62,-168 400.62,-188"/>
<text text-anchor="middle" x="338.62" y="-174.5" font-family="Helvetica,sans-Serif" font-size="10.00">include/AEFileWriter.hpp</text>
</a>
</g>
</g>
<!-- Node2&#45;&gt;Node3 -->
<g id="edge2_Node000002_Node000003" class="edge">
<title>Node2&#45;&gt;Node3</title>
<g id="a_edge2_Node000002_Node000003"><a xlink:title=" ">
<path fill="none" stroke="#63b8ff" d="M582.72,-223.53C532.26,-214.33 455.54,-200.33 401.6,-190.49"/>
<polygon fill="#63b8ff" stroke="#63b8ff" points="402.41,-187.08 391.95,-188.73 401.16,-193.97 402.41,-187.08"/>
</a>
</g>
</g>
<!-- Node8 -->
<g id="Node000008" class="node">
<title>Node8</title>
<g id="a_Node000008"><a xlink:title=" ">
<polygon fill="#e0e0e0" stroke="#999999" points="227.12,-20 184.12,-20 184.12,0 227.12,0 227.12,-20"/>
<text text-anchor="middle" x="205.62" y="-6.5" font-family="Helvetica,sans-Serif" font-size="10.00">thread</text>
</a>
</g>
</g>
<!-- Node2&#45;&gt;Node8 -->
<g id="edge37_Node000002_Node000008" class="edge">
<title>Node2&#45;&gt;Node8</title>
<g id="a_edge37_Node000002_Node000008"><a xlink:title=" ">
<path fill="none" stroke="#63b8ff" d="M574.24,-229.4C441.17,-220.42 127.81,-193.21 43.62,-132 13.54,-110.13 -14.56,-85.08 8.62,-56 28.77,-30.73 121.94,-18.53 172.6,-13.67"/>
<polygon fill="#63b8ff" stroke="#63b8ff" points="172.76,-17.17 182.4,-12.78 172.12,-10.2 172.76,-17.17"/>
</a>
</g>
</g>
<!-- Node10 -->
<g id="Node000010" class="node">
<title>Node10</title>
<g id="a_Node000010"><a xlink:title=" ">
<polygon fill="#e0e0e0" stroke="#999999" points="802.24,-76 756.99,-76 756.99,-56 802.24,-56 802.24,-76"/>
<text text-anchor="middle" x="779.62" y="-62.5" font-family="Helvetica,sans-Serif" font-size="10.00">atomic</text>
</a>
</g>
</g>
<!-- Node2&#45;&gt;Node10 -->
<g id="edge34_Node000002_Node000010" class="edge">
<title>Node2&#45;&gt;Node10</title>
<g id="a_edge34_Node000002_Node000010"><a xlink:title=" ">
<path fill="none" stroke="#63b8ff" d="M664.96,-223.56C702.51,-210.04 764.77,-181.22 791.62,-132 799.26,-117.99 795.06,-100.02 789.63,-86.53"/>
<polygon fill="#63b8ff" stroke="#63b8ff" points="792.98,-85.44 785.64,-77.81 786.62,-88.36 792.98,-85.44"/>
</a>
</g>
</g>
<!-- Node12 -->
<g id="Node000012" class="node">
<title>Node12</title>
<g id="a_Node000012"><a xlink:title=" ">
<polygon fill="#e0e0e0" stroke="#999999" points="891.24,-76 827.99,-76 827.99,-56 891.24,-56 891.24,-76"/>
<text text-anchor="middle" x="859.62" y="-62.5" font-family="Helvetica,sans-Serif" font-size="10.00">string_view</text>
</a>
</g>
</g>
<!-- Node2&#45;&gt;Node12 -->
<g id="edge36_Node000002_Node000012" class="edge">
<title>Node2&#45;&gt;Node12</title>
<g id="a_edge36_Node000002_Node000012"><a xlink:title=" ">
<path fill="none" stroke="#63b8ff" d="M681.17,-223.53C707.13,-216.66 739.07,-205.45 763.62,-188 802.44,-160.41 833.61,-112.85 849.05,-86.32"/>
<polygon fill="#63b8ff" stroke="#63b8ff" points="852.07,-88.1 853.94,-77.67 845.97,-84.66 852.07,-88.1"/>
</a>
</g>
</g>
<!-- Node21 -->
<g id="Node000021" class="node">
<title>Node21</title>
<g id="a_Node000021"><a xlink:title=" ">
<polygon fill="#e0e0e0" stroke="#999999" points="464.37,-132 422.87,-132 422.87,-112 464.37,-112 464.37,-132"/>
<text text-anchor="middle" x="443.62" y="-118.5" font-family="Helvetica,sans-Serif" font-size="10.00">vector</text>
</a>
</g>
</g>
<!-- Node2&#45;&gt;Node21 -->
<g id="edge38_Node000002_Node000021" class="edge">
<title>Node2&#45;&gt;Node21</title>
<g id="a_edge38_Node000002_Node000021"><a xlink:title=" ">
<path fill="none" stroke="#63b8ff" d="M618.33,-223.62C585.21,-204.54 509.74,-161.08 469.69,-138.02"/>
<polygon fill="#63b8ff" stroke="#63b8ff" points="471.59,-135.07 461.17,-133.11 468.09,-141.13 471.59,-135.07"/>
</a>
</g>
</g>
<!-- Node24 -->
<g id="Node000024" class="node">
<title>Node24</title>
<g id="a_Node000024"><a xlink:href="../../dc/dc6/_a_e_log_entry_8hpp.html" target="_top" xlink:title=" ">
<polygon fill="white" stroke="#666666" points="695.12,-188 574.12,-188 574.12,-168 695.12,-168 695.12,-188"/>
<text text-anchor="middle" x="634.62" y="-174.5" font-family="Helvetica,sans-Serif" font-size="10.00">include/AELogEntry.hpp</text>
</a>
</g>
</g>
<!-- Node2&#45;&gt;Node24 -->
<g id="edge29_Node000002_Node000024" class="edge">
<title>Node2&#45;&gt;Node24</title>
<g id="a_edge29_Node000002_Node000024"><a xlink:title=" ">
<path fill="none" stroke="#63b8ff" d="M634.62,-223.59C634.62,-217.01 634.62,-207.96 634.62,-199.73"/>
<polygon fill="#63b8ff" stroke="#63b8ff" points="638.12,-199.81 634.62,-189.81 631.12,-199.81 638.12,-199.81"/>
</a>
</g>
</g>
<!-- Node26 -->
<g id="Node000026" class="node">
<title>Node26</title>
<g id="a_Node000026"><a xlink:title=" ">
<polygon fill="#e0e0e0" stroke="#999999" points="940.12,-188 897.12,-188 897.12,-168 940.12,-168 940.12,-188"/>
<text text-anchor="middle" x="918.62" y="-174.5" font-family="Helvetica,sans-Serif" font-size="10.00">mutex</text>
</a>
</g>
</g>
<!-- Node2&#45;&gt;Node26 -->
<g id="edge35_Node000002_Node000026" class="edge">
<title>Node2&#45;&gt;Node26</title>
<g id="a_edge35_Node000002_Node000026"><a xlink:title=" ">
<path fill="none" stroke="#63b8ff" d="M692.96,-223.52C743.35,-215.07 818.03,-201.92 882.62,-188 883.78,-187.75 884.97,-187.49 886.16,-187.22"/>
<polygon fill="#63b8ff" stroke="#63b8ff" points="886.58,-190.72 895.5,-185.01 884.96,-183.91 886.58,-190.72"/>
</a>
</g>
</g>
<!-- Node4 -->
<g id="Node000004" class="node">
<title>Node4</title>
<g id="a_Node000004"><a xlink:href="../../d7/d7f/_a_e_module_base_8hpp.html" target="_top" xlink:title=" ">
<polygon fill="white" stroke="#666666" points="618.62,-132 482.62,-132 482.62,-112 618.62,-112 618.62,-132"/>
<text text-anchor="middle" x="550.62" y="-118.5" font-family="Helvetica,sans-Serif" font-size="10.00">include/AEModuleBase.hpp</text>
</a>
</g>
</g>
<!-- Node3&#45;&gt;Node4 -->
<g id="edge3_Node000003_Node000004" class="edge">
<title>Node3&#45;&gt;Node4</title>
<g id="a_edge3_Node000003_Node000004"><a xlink:title=" ">
<path fill="none" stroke="#63b8ff" d="M375.55,-167.59C410.75,-158.63 463.94,-145.08 502.46,-135.27"/>
<polygon fill="#63b8ff" stroke="#63b8ff" points="503.11,-138.71 511.94,-132.85 501.38,-131.93 503.11,-138.71"/>
</a>
</g>
</g>
<!-- Node3&#45;&gt;Node10 -->
<g id="edge22_Node000003_Node000010" class="edge">
<title>Node3&#45;&gt;Node10</title>
<g id="a_edge22_Node000003_Node000010"><a xlink:title=" ">
<path fill="none" stroke="#63b8ff" d="M400.89,-173.25C460.38,-168.29 551.93,-157.04 627.62,-132 645.74,-126.01 648.27,-119.96 665.62,-112 692.21,-99.8 723.12,-87.72 746.05,-79.16"/>
<polygon fill="#63b8ff" stroke="#63b8ff" points="747.02,-82.53 755.18,-75.77 744.59,-75.96 747.02,-82.53"/>
</a>
</g>
</g>
<!-- Node11 -->
<g id="Node000011" class="node">
<title>Node11</title>
<g id="a_Node000011"><a xlink:title=" ">
<polygon fill="#e0e0e0" stroke="#999999" points="602.62,-76 562.62,-76 562.62,-56 602.62,-56 602.62,-76"/>
<text text-anchor="middle" x="582.62" y="-62.5" font-family="Helvetica,sans-Serif" font-size="10.00">string</text>
</a>
</g>
</g>
<!-- Node3&#45;&gt;Node11 -->
<g id="edge24_Node000003_Node000011" class="edge">
<title>Node3&#45;&gt;Node11</title>
<g id="a_edge24_Node000003_Node000011"><a xlink:title=" ">
<path fill="none" stroke="#63b8ff" d="M346.84,-167.5C359.66,-153.29 385.86,-126.59 413.62,-112 467.13,-83.88 488.84,-92.14 551.46,-76.12"/>
<polygon fill="#63b8ff" stroke="#63b8ff" points="552.1,-79.57 560.85,-73.6 550.29,-72.81 552.1,-79.57"/>
</a>
</g>
</g>
<!-- Node13 -->
<g id="Node000013" class="node">
<title>Node13</title>
<g id="a_Node000013"><a xlink:href="../../de/de8/_a_e_utils_8hpp.html" target="_top" xlink:title="This file contains the engine&#39;s usefull utilities for trivial tasks.">
<polygon fill="white" stroke="#666666" points="366.37,-132 264.87,-132 264.87,-112 366.37,-112 366.37,-132"/>
<text text-anchor="middle" x="315.62" y="-118.5" font-family="Helvetica,sans-Serif" font-size="10.00">include/AEUtils.hpp</text>
</a>
</g>
</g>
<!-- Node3&#45;&gt;Node13 -->
<g id="edge12_Node000003_Node000013" class="edge">
<title>Node3&#45;&gt;Node13</title>
<g id="a_edge12_Node000003_Node000013"><a xlink:title=" ">
<path fill="none" stroke="#63b8ff" d="M334.61,-167.59C331.71,-160.78 327.68,-151.32 324.08,-142.86"/>
<polygon fill="#63b8ff" stroke="#63b8ff" points="327.31,-141.52 320.17,-133.69 320.87,-144.26 327.31,-141.52"/>
</a>
</g>
</g>
<!-- Node16 -->
<g id="Node000016" class="node">
<title>Node16</title>
<g id="a_Node000016"><a xlink:title=" ">
<polygon fill="#e0e0e0" stroke="#999999" points="63.24,-76 17.99,-76 17.99,-56 63.24,-56 63.24,-76"/>
<text text-anchor="middle" x="40.62" y="-62.5" font-family="Helvetica,sans-Serif" font-size="10.00">cstring</text>
</a>
</g>
</g>
<!-- Node3&#45;&gt;Node16 -->
<g id="edge26_Node000003_Node000016" class="edge">
<title>Node3&#45;&gt;Node16</title>
<g id="a_edge26_Node000003_Node000016"><a xlink:title=" ">
<path fill="none" stroke="#63b8ff" d="M276.22,-174.54C203.99,-170.42 90.93,-159.64 59.62,-132 47.08,-120.93 42.61,-102.08 41.11,-87.52"/>
<polygon fill="#63b8ff" stroke="#63b8ff" points="44.61,-87.42 40.52,-77.65 37.62,-87.84 44.61,-87.42"/>
</a>
</g>
</g>
<!-- Node20 -->
<g id="Node000020" class="node">
<title>Node20</title>
<g id="a_Node000020"><a xlink:title=" ">
<polygon fill="#e0e0e0" stroke="#999999" points="246.74,-132 186.49,-132 186.49,-112 246.74,-112 246.74,-132"/>
<text text-anchor="middle" x="216.62" y="-118.5" font-family="Helvetica,sans-Serif" font-size="10.00">filesystem</text>
</a>
</g>
</g>
<!-- Node3&#45;&gt;Node20 -->
<g id="edge23_Node000003_Node000020" class="edge">
<title>Node3&#45;&gt;Node20</title>
<g id="a_edge23_Node000003_Node000020"><a xlink:title=" ">
<path fill="none" stroke="#63b8ff" d="M317.37,-167.59C298.33,-159.17 270.14,-146.69 248.42,-137.07"/>
<polygon fill="#63b8ff" stroke="#63b8ff" points="249.98,-133.94 239.42,-133.09 247.15,-140.34 249.98,-133.94"/>
</a>
</g>
</g>
<!-- Node3&#45;&gt;Node21 -->
<g id="edge25_Node000003_Node000021" class="edge">
<title>Node3&#45;&gt;Node21</title>
<g id="a_edge25_Node000003_Node000021"><a xlink:title=" ">
<path fill="none" stroke="#63b8ff" d="M356.91,-167.59C372.92,-159.36 396.45,-147.26 414.96,-137.74"/>
<polygon fill="#63b8ff" stroke="#63b8ff" points="416.55,-140.86 423.84,-133.17 413.35,-134.63 416.55,-140.86"/>
</a>
</g>
</g>
<!-- Node22 -->
<g id="Node000022" class="node">
<title>Node22</title>
<g id="a_Node000022"><a xlink:title=" ">
<polygon fill="#e0e0e0" stroke="#999999" points="108.24,-132 68.99,-132 68.99,-112 108.24,-112 108.24,-132"/>
<text text-anchor="middle" x="88.62" y="-118.5" font-family="Helvetica,sans-Serif" font-size="10.00">cfloat</text>
</a>
</g>
</g>
<!-- Node3&#45;&gt;Node22 -->
<g id="edge27_Node000003_Node000022" class="edge">
<title>Node3&#45;&gt;Node22</title>
<g id="a_edge27_Node000003_Node000022"><a xlink:title=" ">
<path fill="none" stroke="#63b8ff" d="M284.69,-167.58C242.27,-159.82 181.5,-147.93 119.66,-132.31"/>
<polygon fill="#63b8ff" stroke="#63b8ff" points="120.53,-128.92 109.98,-129.84 118.8,-135.71 120.53,-128.92"/>
</a>
</g>
</g>
<!-- Node23 -->
<g id="Node000023" class="node">
<title>Node23</title>
<g id="a_Node000023"><a xlink:title=" ">
<polygon fill="#e0e0e0" stroke="#999999" points="168.74,-132 126.49,-132 126.49,-112 168.74,-112 168.74,-132"/>
<text text-anchor="middle" x="147.62" y="-118.5" font-family="Helvetica,sans-Serif" font-size="10.00">cstdio</text>
</a>
</g>
</g>
<!-- Node3&#45;&gt;Node23 -->
<g id="edge28_Node000003_Node000023" class="edge">
<title>Node3&#45;&gt;Node23</title>
<g id="a_edge28_Node000003_Node000023"><a xlink:title=" ">
<path fill="none" stroke="#63b8ff" d="M304.02,-167.53C273.67,-159.18 228.09,-146.54 180.15,-132.7"/>
<polygon fill="#63b8ff" stroke="#63b8ff" points="181.27,-129.38 170.69,-129.96 179.32,-136.1 181.27,-129.38"/>
</a>
</g>
</g>
<!-- Node5 -->
<g id="Node000005" class="node">
<title>Node5</title>
<g id="a_Node000005"><a xlink:href="../../dc/d89/_a_e_typedefs_8hpp.html" target="_top" xlink:title="This file contains the engine&#39;s typedefs and variable type aliases.">
<polygon fill="white" stroke="#666666" points="544.12,-76 423.12,-76 423.12,-56 544.12,-56 544.12,-76"/>
<text text-anchor="middle" x="483.62" y="-62.5" font-family="Helvetica,sans-Serif" font-size="10.00">include/AETypedefs.hpp</text>
</a>
</g>
</g>
<!-- Node4&#45;&gt;Node5 -->
<g id="edge4_Node000004_Node000005" class="edge">
<title>Node4&#45;&gt;Node5</title>
<g id="a_edge4_Node000004_Node000005"><a xlink:title=" ">
<path fill="none" stroke="#63b8ff" d="M538.95,-111.59C529.34,-103.85 515.49,-92.69 504.05,-83.47"/>
<polygon fill="#63b8ff" stroke="#63b8ff" points="506.32,-80.8 496.33,-77.25 501.92,-86.25 506.32,-80.8"/>
</a>
</g>
</g>
<!-- Node9 -->
<g id="Node000009" class="node">
<title>Node9</title>
<g id="a_Node000009"><a xlink:href="../../dd/dd8/_a_e_flags_8hpp.html" target="_top" xlink:title="This file contains the flags to manipulate engine&#39;s funcitonality.">
<polygon fill="white" stroke="#666666" points="726.62,-76 620.62,-76 620.62,-56 726.62,-56 726.62,-76"/>
<text text-anchor="middle" x="673.62" y="-62.5" font-family="Helvetica,sans-Serif" font-size="10.00">include/AEFlags.hpp</text>
</a>
</g>
</g>
<!-- Node4&#45;&gt;Node9 -->
<g id="edge8_Node000004_Node000009" class="edge">
<title>Node4&#45;&gt;Node9</title>
<g id="a_edge8_Node000004_Node000009"><a xlink:title=" ">
<path fill="none" stroke="#63b8ff" d="M572.04,-111.59C591.24,-103.17 619.66,-90.69 641.56,-81.07"/>
<polygon fill="#63b8ff" stroke="#63b8ff" points="642.89,-84.31 650.64,-77.09 640.08,-77.9 642.89,-84.31"/>
</a>
</g>
</g>
<!-- Node4&#45;&gt;Node10 -->
<g id="edge9_Node000004_Node000010" class="edge">
<title>Node4&#45;&gt;Node10</title>
<g id="a_edge9_Node000004_Node000010"><a xlink:title=" ">
<path fill="none" stroke="#63b8ff" d="M590.77,-111.53C634.65,-101.19 704.18,-84.79 745.51,-75.04"/>
<polygon fill="#63b8ff" stroke="#63b8ff" points="746.22,-78.47 755.15,-72.77 744.61,-71.66 746.22,-78.47"/>
</a>
</g>
</g>
<!-- Node4&#45;&gt;Node11 -->
<g id="edge10_Node000004_Node000011" class="edge">
<title>Node4&#45;&gt;Node11</title>
<g id="a_edge10_Node000004_Node000011"><a xlink:title=" ">
<path fill="none" stroke="#63b8ff" d="M556.19,-111.59C560.37,-104.55 566.22,-94.67 571.36,-86"/>
<polygon fill="#63b8ff" stroke="#63b8ff" points="574.25,-87.99 576.34,-77.6 568.23,-84.42 574.25,-87.99"/>
</a>
</g>
</g>
<!-- Node4&#45;&gt;Node12 -->
<g id="edge11_Node000004_Node000012" class="edge">
<title>Node4&#45;&gt;Node12</title>
<g id="a_edge11_Node000004_Node000012"><a xlink:title=" ">
<path fill="none" stroke="#63b8ff" d="M606.92,-111.54C659.81,-102.59 741.14,-88.68 811.62,-76 813.24,-75.71 814.88,-75.41 816.55,-75.11"/>
<polygon fill="#63b8ff" stroke="#63b8ff" points="816.93,-78.6 826.13,-73.34 815.66,-71.71 816.93,-78.6"/>
</a>
</g>
</g>
<!-- Node6 -->
<g id="Node000006" class="node">
<title>Node6</title>
<g id="a_Node000006"><a xlink:title=" ">
<polygon fill="#e0e0e0" stroke="#999999" points="536.87,-20 492.37,-20 492.37,0 536.87,0 536.87,-20"/>
<text text-anchor="middle" x="514.62" y="-6.5" font-family="Helvetica,sans-Serif" font-size="10.00">climits</text>
</a>
</g>
</g>
<!-- Node5&#45;&gt;Node6 -->
<g id="edge5_Node000005_Node000006" class="edge">
<title>Node5&#45;&gt;Node6</title>
<g id="a_edge5_Node000005_Node000006"><a xlink:title=" ">
<path fill="none" stroke="#63b8ff" d="M489.02,-55.59C493.06,-48.55 498.74,-38.67 503.71,-30"/>
<polygon fill="#63b8ff" stroke="#63b8ff" points="506.58,-32.03 508.53,-21.61 500.51,-28.54 506.58,-32.03"/>
</a>
</g>
</g>
<!-- Node7 -->
<g id="Node000007" class="node">
<title>Node7</title>
<g id="a_Node000007"><a xlink:title=" ">
<polygon fill="#e0e0e0" stroke="#999999" points="474.24,-20 428.99,-20 428.99,0 474.24,0 474.24,-20"/>
<text text-anchor="middle" x="451.62" y="-6.5" font-family="Helvetica,sans-Serif" font-size="10.00">chrono</text>
</a>
</g>
</g>
<!-- Node5&#45;&gt;Node7 -->
<g id="edge6_Node000005_Node000007" class="edge">
<title>Node5&#45;&gt;Node7</title>
<g id="a_edge6_Node000005_Node000007"><a xlink:title=" ">
<path fill="none" stroke="#63b8ff" d="M478.05,-55.59C473.87,-48.55 468.02,-38.67 462.88,-30"/>
<polygon fill="#63b8ff" stroke="#63b8ff" points="466.01,-28.42 457.9,-21.6 459.99,-31.99 466.01,-28.42"/>
</a>
</g>
</g>
<!-- Node5&#45;&gt;Node8 -->
<g id="edge7_Node000005_Node000008" class="edge">
<title>Node5&#45;&gt;Node8</title>
<g id="a_edge7_Node000005_Node000008"><a xlink:title=" ">
<path fill="none" stroke="#63b8ff" d="M434.88,-55.53C378.48,-44.58 287.17,-26.84 238.55,-17.4"/>
<polygon fill="#63b8ff" stroke="#63b8ff" points="239.41,-14 228.92,-15.53 238.07,-20.87 239.41,-14"/>
</a>
</g>
</g>
<!-- Node13&#45;&gt;Node5 -->
<g id="edge14_Node000013_Node000005" class="edge">
<title>Node13&#45;&gt;Node5</title>
<g id="a_edge14_Node000013_Node000005"><a xlink:title=" ">
<path fill="none" stroke="#63b8ff" d="M344.88,-111.59C372.18,-102.82 413.13,-89.66 443.47,-79.9"/>
<polygon fill="#63b8ff" stroke="#63b8ff" points="444.24,-83.33 452.69,-76.94 442.1,-76.67 444.24,-83.33"/>
</a>
</g>
</g>
<!-- Node13&#45;&gt;Node9 -->
<g id="edge13_Node000013_Node000009" class="edge">
<title>Node13&#45;&gt;Node9</title>
<g id="a_edge13_Node000013_Node000009"><a xlink:title=" ">
<path fill="none" stroke="#63b8ff" d="M366.53,-113.32C430.26,-103.71 539.47,-87.23 609.02,-76.74"/>
<polygon fill="#63b8ff" stroke="#63b8ff" points="609.39,-80.23 618.76,-75.28 608.35,-73.31 609.39,-80.23"/>
</a>
</g>
</g>
<!-- Node13&#45;&gt;Node11 -->
<g id="edge17_Node000013_Node000011" class="edge">
<title>Node13&#45;&gt;Node11</title>
<g id="a_edge17_Node000013_Node000011"><a xlink:title=" ">
<path fill="none" stroke="#63b8ff" d="M366.8,-112.86C412.58,-105.23 481.69,-92.84 551.21,-76.11"/>
<polygon fill="#63b8ff" stroke="#63b8ff" points="552.01,-79.52 560.89,-73.75 550.35,-72.72 552.01,-79.52"/>
</a>
</g>
</g>
<!-- Node14 -->
<g id="Node000014" class="node">
<title>Node14</title>
<g id="a_Node000014"><a xlink:title=" ">
<polygon fill="#e0e0e0" stroke="#999999" points="333.49,-76 277.74,-76 277.74,-56 333.49,-56 333.49,-76"/>
<text text-anchor="middle" x="305.62" y="-62.5" font-family="Helvetica,sans-Serif" font-size="10.00">algorithm</text>
</a>
</g>
</g>
<!-- Node13&#45;&gt;Node14 -->
<g id="edge15_Node000013_Node000014" class="edge">
<title>Node13&#45;&gt;Node14</title>
<g id="a_edge15_Node000013_Node000014"><a xlink:title=" ">
<path fill="none" stroke="#63b8ff" d="M313.88,-111.59C312.64,-104.93 310.94,-95.75 309.4,-87.44"/>
<polygon fill="#63b8ff" stroke="#63b8ff" points="312.88,-86.98 307.62,-77.79 306,-88.26 312.88,-86.98"/>
</a>
</g>
</g>
<!-- Node15 -->
<g id="Node000015" class="node">
<title>Node15</title>
<g id="a_Node000015"><a xlink:title=" ">
<polygon fill="#e0e0e0" stroke="#999999" points="405.37,-76 351.87,-76 351.87,-56 405.37,-56 405.37,-76"/>
<text text-anchor="middle" x="378.62" y="-62.5" font-family="Helvetica,sans-Serif" font-size="10.00">iostream</text>
</a>
</g>
</g>
<!-- Node13&#45;&gt;Node15 -->
<g id="edge16_Node000013_Node000015" class="edge">
<title>Node13&#45;&gt;Node15</title>
<g id="a_edge16_Node000013_Node000015"><a xlink:title=" ">
<path fill="none" stroke="#63b8ff" d="M326.59,-111.59C335.54,-103.93 348.39,-92.91 359.08,-83.75"/>
<polygon fill="#63b8ff" stroke="#63b8ff" points="361.31,-86.45 366.62,-77.28 356.75,-81.13 361.31,-86.45"/>
</a>
</g>
</g>
<!-- Node13&#45;&gt;Node16 -->
<g id="edge18_Node000013_Node000016" class="edge">
<title>Node13&#45;&gt;Node16</title>
<g id="a_edge18_Node000013_Node000016"><a xlink:title=" ">
<path fill="none" stroke="#63b8ff" d="M264.61,-112.94C217.66,-105.22 145.87,-92.62 74.6,-76.29"/>
<polygon fill="#63b8ff" stroke="#63b8ff" points="75.63,-72.93 65.1,-74.08 74.05,-79.75 75.63,-72.93"/>
</a>
</g>
</g>
<!-- Node17 -->
<g id="Node000017" class="node">
<title>Node17</title>
<g id="a_Node000017"><a xlink:title=" ">
<polygon fill="#e0e0e0" stroke="#999999" points="121.62,-76 81.62,-76 81.62,-56 121.62,-56 121.62,-76"/>
<text text-anchor="middle" x="101.62" y="-62.5" font-family="Helvetica,sans-Serif" font-size="10.00">ctime</text>
</a>
</g>
</g>
<!-- Node13&#45;&gt;Node17 -->
<g id="edge19_Node000013_Node000017" class="edge">
<title>Node13&#45;&gt;Node17</title>
<g id="a_edge19_Node000013_Node000017"><a xlink:title=" ">
<path fill="none" stroke="#63b8ff" d="M273.55,-111.55C238.28,-103.46 186.36,-91.14 132.62,-76.43"/>
<polygon fill="#63b8ff" stroke="#63b8ff" points="133.88,-73.15 123.31,-73.86 132.02,-79.89 133.88,-73.15"/>
</a>
</g>
</g>
<!-- Node18 -->
<g id="Node000018" class="node">
<title>Node18</title>
<g id="a_Node000018"><a xlink:title=" ">
<polygon fill="#e0e0e0" stroke="#999999" points="191.24,-76 139.99,-76 139.99,-56 191.24,-56 191.24,-76"/>
<text text-anchor="middle" x="165.62" y="-62.5" font-family="Helvetica,sans-Serif" font-size="10.00">sstream</text>
</a>
</g>
</g>
<!-- Node13&#45;&gt;Node18 -->
<g id="edge20_Node000013_Node000018" class="edge">
<title>Node13&#45;&gt;Node18</title>
<g id="a_edge20_Node000013_Node000018"><a xlink:title=" ">
<path fill="none" stroke="#63b8ff" d="M289.49,-111.59C265.37,-102.91 229.3,-89.92 202.29,-80.2"/>
<polygon fill="#63b8ff" stroke="#63b8ff" points="203.72,-77 193.12,-76.9 201.35,-83.58 203.72,-77"/>
</a>
</g>
</g>
<!-- Node19 -->
<g id="Node000019" class="node">
<title>Node19</title>
<g id="a_Node000019"><a xlink:title=" ">
<polygon fill="#e0e0e0" stroke="#999999" points="259.49,-76 209.74,-76 209.74,-56 259.49,-56 259.49,-76"/>
<text text-anchor="middle" x="234.62" y="-62.5" font-family="Helvetica,sans-Serif" font-size="10.00">iomanip</text>
</a>
</g>
</g>
<!-- Node13&#45;&gt;Node19 -->
<g id="edge21_Node000013_Node000019" class="edge">
<title>Node13&#45;&gt;Node19</title>
<g id="a_edge21_Node000013_Node000019"><a xlink:title=" ">
<path fill="none" stroke="#63b8ff" d="M301.51,-111.59C289.62,-103.67 272.35,-92.16 258.34,-82.82"/>
<polygon fill="#63b8ff" stroke="#63b8ff" points="260.36,-79.95 250.1,-77.32 256.48,-85.78 260.36,-79.95"/>
</a>
</g>
</g>
<!-- Node24&#45;&gt;Node4 -->
<g id="edge31_Node000024_Node000004" class="edge">
<title>Node24&#45;&gt;Node4</title>
<g id="a_edge31_Node000024_Node000004"><a xlink:title=" ">
<path fill="none" stroke="#63b8ff" d="M619.99,-167.59C607.54,-159.59 589.4,-147.93 574.8,-138.54"/>
<polygon fill="#63b8ff" stroke="#63b8ff" points="576.94,-135.76 566.64,-133.3 573.16,-141.65 576.94,-135.76"/>
</a>
</g>
</g>
<!-- Node24&#45;&gt;Node10 -->
<g id="edge33_Node000024_Node000010" class="edge">
<title>Node24&#45;&gt;Node10</title>
<g id="a_edge33_Node000024_Node000010"><a xlink:title=" ">
<path fill="none" stroke="#63b8ff" d="M695.59,-172.31C723.66,-166.85 754.84,-155.47 773.62,-132 783.49,-119.67 784.39,-101.51 783.16,-87.51"/>
<polygon fill="#63b8ff" stroke="#63b8ff" points="786.64,-87.06 781.84,-77.62 779.7,-87.99 786.64,-87.06"/>
</a>
</g>
</g>
<!-- Node24&#45;&gt;Node13 -->
<g id="edge32_Node000024_Node000013" class="edge">
<title>Node24&#45;&gt;Node13</title>
<g id="a_edge32_Node000024_Node000013"><a xlink:title=" ">
<path fill="none" stroke="#63b8ff" d="M578.69,-167.53C522.57,-158.03 436.31,-143.43 378.01,-133.56"/>
<polygon fill="#63b8ff" stroke="#63b8ff" points="378.68,-130.12 368.23,-131.91 377.51,-137.03 378.68,-130.12"/>
</a>
</g>
</g>
<!-- Node25 -->
<g id="Node000025" class="node">
<title>Node25</title>
<g id="a_Node000025"><a xlink:href="../../dc/dd8/_a_e_log_types_8hpp.html" target="_top" xlink:title=" ">
<polygon fill="white" stroke="#666666" points="764.74,-132 674.49,-132 674.49,-112 764.74,-112 764.74,-132"/>
<text text-anchor="middle" x="719.62" y="-118.5" font-family="Helvetica,sans-Serif" font-size="10.00">AELogTypes.hpp</text>
</a>
</g>
</g>
<!-- Node24&#45;&gt;Node25 -->
<g id="edge30_Node000024_Node000025" class="edge">
<title>Node24&#45;&gt;Node25</title>
<g id="a_edge30_Node000024_Node000025"><a xlink:title=" ">
<path fill="none" stroke="#63b8ff" d="M649.43,-167.59C662.02,-159.59 680.37,-147.93 695.15,-138.54"/>
<polygon fill="#63b8ff" stroke="#63b8ff" points="696.86,-141.61 703.42,-133.29 693.1,-135.7 696.86,-141.61"/>
</a>
</g>
</g>
</g>
</svg>
