<?xml version="1.0" encoding="UTF-8" standalone="no"?>
<!DOCTYPE svg PUBLIC "-//W3C//DTD SVG 1.1//EN"
 "http://www.w3.org/Graphics/SVG/1.1/DTD/svg11.dtd">
<!-- Generated by graphviz version 10.0.1 (20240210.2158)
 -->
<!-- Title: ace::math::lookup::_getTrigTableIndex Pages: 1 -->
<svg width="408pt" height="446pt"
 viewBox="0.00 0.00 408.25 446.00" xmlns="http://www.w3.org/2000/svg" xmlns:xlink="http://www.w3.org/1999/xlink">
<g id="graph0" class="graph" transform="scale(1 1) rotate(0) translate(4 442)">
<title>ace::math::lookup::_getTrigTableIndex</title>
<!-- Node1 -->
<g id="Node000001" class="node">
<title>Node1</title>
<g id="a_Node000001"><a xlink:title="Returns the index to the trig table from the given (int) degree number.">
<polygon fill="#999999" stroke="#666666" points="400.25,-229 219.25,-229 219.25,-209 400.25,-209 400.25,-229"/>
<text text-anchor="middle" x="309.75" y="-215.5" font-family="Helvetica,sans-Serif" font-size="10.00">ace::math::lookup::_getTrigTableIndex</text>
</a>
</g>
</g>
<!-- Node2 -->
<g id="Node000002" class="node">
<title>Node2</title>
<g id="a_Node000002"><a xlink:href="../../d7/d2c/namespaceace_1_1math_1_1lookup.html#ac23a61031b3bff79b3493ece248abff5" target="_top" xlink:title="Rounds the degrees value, and looks up the value of cosine in the table.">
<polygon fill="white" stroke="#666666" points="171.25,-438 12,-438 12,-418 171.25,-418 171.25,-438"/>
<text text-anchor="middle" x="91.62" y="-424.5" font-family="Helvetica,sans-Serif" font-size="10.00">ace::math::lookup::cosDeg_table</text>
</a>
</g>
</g>
<!-- Node1&#45;&gt;Node2 -->
<g id="edge1_Node000001_Node000002" class="edge">
<title>Node1&#45;&gt;Node2</title>
<g id="a_edge1_Node000001_Node000002"><a xlink:title=" ">
<path fill="none" stroke="#63b8ff" d="M301.16,-240.05C285.65,-279.87 246.37,-366.11 183.25,-409 178.2,-412.43 172.65,-415.27 166.86,-417.6"/>
<polygon fill="#63b8ff" stroke="#63b8ff" points="304.44,-241.28 304.68,-230.69 297.88,-238.82 304.44,-241.28"/>
</a>
</g>
</g>
<!-- Node3 -->
<g id="Node000003" class="node">
<title>Node3</title>
<g id="a_Node000003"><a xlink:href="../../d7/d2c/namespaceace_1_1math_1_1lookup.html#abbfe8148837eadb3a83a33ba9a02d19f" target="_top" xlink:title="Calculates the interpolated cosine value from the cosine lookup table.">
<polygon fill="white" stroke="#666666" points="183.25,-400 0,-400 0,-380 183.25,-380 183.25,-400"/>
<text text-anchor="middle" x="91.62" y="-386.5" font-family="Helvetica,sans-Serif" font-size="10.00">ace::math::lookup::cosDeg_tableInterp</text>
</a>
</g>
</g>
<!-- Node1&#45;&gt;Node3 -->
<g id="edge2_Node000001_Node000003" class="edge">
<title>Node1&#45;&gt;Node3</title>
<g id="a_edge2_Node000001_Node000003"><a xlink:title=" ">
<path fill="none" stroke="#63b8ff" d="M298.21,-239.03C279.68,-272.14 237.98,-337.92 183.25,-371 177.61,-374.41 171.45,-377.21 165.08,-379.52"/>
<polygon fill="#63b8ff" stroke="#63b8ff" points="301.16,-240.93 302.87,-230.47 295.01,-237.58 301.16,-240.93"/>
</a>
</g>
</g>
<!-- Node4 -->
<g id="Node000004" class="node">
<title>Node4</title>
<g id="a_Node000004"><a xlink:href="../../d7/d2c/namespaceace_1_1math_1_1lookup.html#a781bfcb5fee0cbf82eae216210e344cc" target="_top" xlink:title="Rounds the degrees value, and looks up the value of cotangent in the table.">
<polygon fill="white" stroke="#666666" points="170.12,-362 13.12,-362 13.12,-342 170.12,-342 170.12,-362"/>
<text text-anchor="middle" x="91.62" y="-348.5" font-family="Helvetica,sans-Serif" font-size="10.00">ace::math::lookup::cotDeg_table</text>
</a>
</g>
</g>
<!-- Node1&#45;&gt;Node4 -->
<g id="edge3_Node000001_Node000004" class="edge">
<title>Node1&#45;&gt;Node4</title>
<g id="a_edge3_Node000001_Node000004"><a xlink:title=" ">
<path fill="none" stroke="#63b8ff" d="M293.33,-238.34C271.62,-264.16 229.51,-309.38 183.25,-333 176.52,-336.44 169.21,-339.25 161.75,-341.56"/>
<polygon fill="#63b8ff" stroke="#63b8ff" points="296.01,-240.59 299.65,-230.65 290.6,-236.15 296.01,-240.59"/>
</a>
</g>
</g>
<!-- Node5 -->
<g id="Node000005" class="node">
<title>Node5</title>
<g id="a_Node000005"><a xlink:href="../../d7/d2c/namespaceace_1_1math_1_1lookup.html#abf04874acf4316d96c1a0b532453dc3a" target="_top" xlink:title="Calculates the interpolated cotangent value from the cotangent lookup table.">
<polygon fill="white" stroke="#666666" points="182.12,-324 1.12,-324 1.12,-304 182.12,-304 182.12,-324"/>
<text text-anchor="middle" x="91.62" y="-310.5" font-family="Helvetica,sans-Serif" font-size="10.00">ace::math::lookup::cotDeg_tableInterp</text>
</a>
</g>
</g>
<!-- Node1&#45;&gt;Node5 -->
<g id="edge4_Node000001_Node000005" class="edge">
<title>Node1&#45;&gt;Node5</title>
<g id="a_edge4_Node000001_Node000005"><a xlink:title=" ">
<path fill="none" stroke="#63b8ff" d="M286.21,-235.9C261.99,-253.25 221.78,-279.81 183.25,-295 174.58,-298.42 165.18,-301.27 155.84,-303.62"/>
<polygon fill="#63b8ff" stroke="#63b8ff" points="288.02,-238.92 294.04,-230.2 283.89,-233.26 288.02,-238.92"/>
</a>
</g>
</g>
<!-- Node6 -->
<g id="Node000006" class="node">
<title>Node6</title>
<g id="a_Node000006"><a xlink:href="../../d7/d2c/namespaceace_1_1math_1_1lookup.html#a53e01dcdf28ba329b81af2059158e056" target="_top" xlink:title="Rounds the degrees value, and looks up the value of cosecant in the table.">
<polygon fill="white" stroke="#666666" points="171.25,-286 12,-286 12,-266 171.25,-266 171.25,-286"/>
<text text-anchor="middle" x="91.62" y="-272.5" font-family="Helvetica,sans-Serif" font-size="10.00">ace::math::lookup::cscDeg_table</text>
</a>
</g>
</g>
<!-- Node1&#45;&gt;Node6 -->
<g id="edge5_Node000001_Node000006" class="edge">
<title>Node1&#45;&gt;Node6</title>
<g id="a_edge5_Node000001_Node000006"><a xlink:title=" ">
<path fill="none" stroke="#63b8ff" d="M266.05,-232.94C241.9,-240.57 211.05,-249.89 183.25,-257 171.41,-260.03 158.62,-262.93 146.48,-265.52"/>
<polygon fill="#63b8ff" stroke="#63b8ff" points="267.08,-236.29 275.54,-229.92 264.95,-229.62 267.08,-236.29"/>
</a>
</g>
</g>
<!-- Node7 -->
<g id="Node000007" class="node">
<title>Node7</title>
<g id="a_Node000007"><a xlink:href="../../d7/d2c/namespaceace_1_1math_1_1lookup.html#a3ee63cea375c99c44db7d659427de5cc" target="_top" xlink:title="Approximates the interpolated cosecant value from the cosecant lookup table.">
<polygon fill="white" stroke="#666666" points="183.25,-248 0,-248 0,-228 183.25,-228 183.25,-248"/>
<text text-anchor="middle" x="91.62" y="-234.5" font-family="Helvetica,sans-Serif" font-size="10.00">ace::math::lookup::cscDeg_tableInterp</text>
</a>
</g>
</g>
<!-- Node1&#45;&gt;Node7 -->
<g id="edge6_Node000001_Node000007" class="edge">
<title>Node1&#45;&gt;Node7</title>
<g id="a_edge6_Node000001_Node000007"><a xlink:title=" ">
<path fill="none" stroke="#63b8ff" d="M207.64,-227.89C199.59,-228.6 191.49,-229.31 183.52,-230.01"/>
<polygon fill="#63b8ff" stroke="#63b8ff" points="207.81,-231.39 217.46,-227.03 207.2,-224.41 207.81,-231.39"/>
</a>
</g>
</g>
<!-- Node8 -->
<g id="Node000008" class="node">
<title>Node8</title>
<g id="a_Node000008"><a xlink:href="../../d7/d2c/namespaceace_1_1math_1_1lookup.html#a16435af856f99fd268d2524648be0bb1" target="_top" xlink:title="Rounds the degrees value, and looks up the value of secant in the table.">
<polygon fill="white" stroke="#666666" points="171.25,-210 12,-210 12,-190 171.25,-190 171.25,-210"/>
<text text-anchor="middle" x="91.62" y="-196.5" font-family="Helvetica,sans-Serif" font-size="10.00">ace::math::lookup::secDeg_table</text>
</a>
</g>
</g>
<!-- Node1&#45;&gt;Node8 -->
<g id="edge7_Node000001_Node000008" class="edge">
<title>Node1&#45;&gt;Node8</title>
<g id="a_edge7_Node000001_Node000008"><a xlink:title=" ">
<path fill="none" stroke="#63b8ff" d="M207.81,-210.13C195.6,-209.05 183.27,-207.97 171.44,-206.93"/>
<polygon fill="#63b8ff" stroke="#63b8ff" points="207.2,-213.59 217.46,-210.97 207.81,-206.61 207.2,-213.59"/>
</a>
</g>
</g>
<!-- Node9 -->
<g id="Node000009" class="node">
<title>Node9</title>
<g id="a_Node000009"><a xlink:href="../../d7/d2c/namespaceace_1_1math_1_1lookup.html#af24f87d23914edec32fa064024aeade4" target="_top" xlink:title="Calculates the interpolated secant value from the secant lookup table.">
<polygon fill="white" stroke="#666666" points="183.25,-172 0,-172 0,-152 183.25,-152 183.25,-172"/>
<text text-anchor="middle" x="91.62" y="-158.5" font-family="Helvetica,sans-Serif" font-size="10.00">ace::math::lookup::secDeg_tableInterp</text>
</a>
</g>
</g>
<!-- Node1&#45;&gt;Node9 -->
<g id="edge8_Node000001_Node000009" class="edge">
<title>Node1&#45;&gt;Node9</title>
<g id="a_edge8_Node000001_Node000009"><a xlink:title=" ">
<path fill="none" stroke="#63b8ff" d="M266.05,-205.06C241.9,-197.43 211.05,-188.11 183.25,-181 171.41,-177.97 158.62,-175.07 146.48,-172.48"/>
<polygon fill="#63b8ff" stroke="#63b8ff" points="264.95,-208.38 275.54,-208.08 267.08,-201.71 264.95,-208.38"/>
</a>
</g>
</g>
<!-- Node10 -->
<g id="Node000010" class="node">
<title>Node10</title>
<g id="a_Node000010"><a xlink:href="../../d7/d2c/namespaceace_1_1math_1_1lookup.html#a3cc7b50ad2dcc013691b83d2edccee25" target="_top" xlink:title="Rounds the degrees value, and looks up the value of sine in the table.">
<polygon fill="white" stroke="#666666" points="169.75,-134 13.5,-134 13.5,-114 169.75,-114 169.75,-134"/>
<text text-anchor="middle" x="91.62" y="-120.5" font-family="Helvetica,sans-Serif" font-size="10.00">ace::math::lookup::sinDeg_table</text>
</a>
</g>
</g>
<!-- Node1&#45;&gt;Node10 -->
<g id="edge9_Node000001_Node000010" class="edge">
<title>Node1&#45;&gt;Node10</title>
<g id="a_edge9_Node000001_Node000010"><a xlink:title=" ">
<path fill="none" stroke="#63b8ff" d="M286.21,-202.1C261.99,-184.75 221.78,-158.19 183.25,-143 174.58,-139.58 165.18,-136.73 155.84,-134.38"/>
<polygon fill="#63b8ff" stroke="#63b8ff" points="283.89,-204.74 294.04,-207.8 288.02,-199.08 283.89,-204.74"/>
</a>
</g>
</g>
<!-- Node11 -->
<g id="Node000011" class="node">
<title>Node11</title>
<g id="a_Node000011"><a xlink:href="../../d7/d2c/namespaceace_1_1math_1_1lookup.html#a113d607ceb372cae6509c0217174c396" target="_top" xlink:title="Calculates the interpolated sine value from the sine lookup table.">
<polygon fill="white" stroke="#666666" points="181.75,-96 1.5,-96 1.5,-76 181.75,-76 181.75,-96"/>
<text text-anchor="middle" x="91.62" y="-82.5" font-family="Helvetica,sans-Serif" font-size="10.00">ace::math::lookup::sinDeg_tableInterp</text>
</a>
</g>
</g>
<!-- Node1&#45;&gt;Node11 -->
<g id="edge10_Node000001_Node000011" class="edge">
<title>Node1&#45;&gt;Node11</title>
<g id="a_edge10_Node000001_Node000011"><a xlink:title=" ">
<path fill="none" stroke="#63b8ff" d="M293.33,-199.66C271.62,-173.84 229.51,-128.62 183.25,-105 176.52,-101.56 169.21,-98.75 161.75,-96.44"/>
<polygon fill="#63b8ff" stroke="#63b8ff" points="290.6,-201.85 299.65,-207.35 296.01,-197.41 290.6,-201.85"/>
</a>
</g>
</g>
<!-- Node12 -->
<g id="Node000012" class="node">
<title>Node12</title>
<g id="a_Node000012"><a xlink:href="../../d7/d2c/namespaceace_1_1math_1_1lookup.html#a16414468904411af523271b8004dd710" target="_top" xlink:title="Rounds the degrees value, and looks up the value of tangent in the table.">
<polygon fill="white" stroke="#666666" points="170.12,-58 13.12,-58 13.12,-38 170.12,-38 170.12,-58"/>
<text text-anchor="middle" x="91.62" y="-44.5" font-family="Helvetica,sans-Serif" font-size="10.00">ace::math::lookup::tanDeg_table</text>
</a>
</g>
</g>
<!-- Node1&#45;&gt;Node12 -->
<g id="edge11_Node000001_Node000012" class="edge">
<title>Node1&#45;&gt;Node12</title>
<g id="a_edge11_Node000001_Node000012"><a xlink:title=" ">
<path fill="none" stroke="#63b8ff" d="M298.21,-198.97C279.68,-165.86 237.98,-100.08 183.25,-67 177.61,-63.59 171.45,-60.79 165.08,-58.48"/>
<polygon fill="#63b8ff" stroke="#63b8ff" points="295.01,-200.42 302.87,-207.53 301.16,-197.07 295.01,-200.42"/>
</a>
</g>
</g>
<!-- Node13 -->
<g id="Node000013" class="node">
<title>Node13</title>
<g id="a_Node000013"><a xlink:href="../../d7/d2c/namespaceace_1_1math_1_1lookup.html#a815acb61180fa295b7eb03314fe13ca3" target="_top" xlink:title="Calculates the interpolated tangent value from the tangent lookup table.">
<polygon fill="white" stroke="#666666" points="182.12,-20 1.12,-20 1.12,0 182.12,0 182.12,-20"/>
<text text-anchor="middle" x="91.62" y="-6.5" font-family="Helvetica,sans-Serif" font-size="10.00">ace::math::lookup::tanDeg_tableInterp</text>
</a>
</g>
</g>
<!-- Node1&#45;&gt;Node13 -->
<g id="edge12_Node000001_Node000013" class="edge">
<title>Node1&#45;&gt;Node13</title>
<g id="a_edge12_Node000001_Node000013"><a xlink:title=" ">
<path fill="none" stroke="#63b8ff" d="M301.16,-197.95C285.65,-158.13 246.37,-71.89 183.25,-29 178.2,-25.57 172.65,-22.73 166.86,-20.4"/>
<polygon fill="#63b8ff" stroke="#63b8ff" points="297.88,-199.18 304.68,-207.31 304.44,-196.72 297.88,-199.18"/>
</a>
</g>
</g>
</g>
</svg>
