<?xml version="1.0" encoding="UTF-8" standalone="no"?>
<!DOCTYPE svg PUBLIC "-//W3C//DTD SVG 1.1//EN"
 "http://www.w3.org/Graphics/SVG/1.1/DTD/svg11.dtd">
<!-- Generated by graphviz version 10.0.1 (20240210.2158)
 -->
<!-- Title: ace::math::lookup::secDeg_tableInterp Pages: 1 -->
<svg width="408pt" height="66pt"
 viewBox="0.00 0.00 408.25 66.00" xmlns="http://www.w3.org/2000/svg" xmlns:xlink="http://www.w3.org/1999/xlink">
<g id="graph0" class="graph" transform="scale(1 1) rotate(0) translate(4 62)">
<title>ace::math::lookup::secDeg_tableInterp</title>
<!-- Node1 -->
<g id="Node000001" class="node">
<title>Node1</title>
<g id="a_Node000001"><a xlink:title="Calculates the interpolated secant value from the secant lookup table.">
<polygon fill="#999999" stroke="#666666" points="183.25,-39 0,-39 0,-19 183.25,-19 183.25,-39"/>
<text text-anchor="middle" x="91.62" y="-25.5" font-family="Helvetica,sans-Serif" font-size="10.00">ace::math::lookup::secDeg_tableInterp</text>
</a>
</g>
</g>
<!-- Node2 -->
<g id="Node000002" class="node">
<title>Node2</title>
<g id="a_Node000002"><a xlink:href="../../d7/d2c/namespaceace_1_1math_1_1lookup.html#aca2a7abf579cf2a1a22d152921e0e472" target="_top" xlink:title="Returns the index to the trig table from the given (int) degree number.">
<polygon fill="white" stroke="#666666" points="400.25,-58 219.25,-58 219.25,-38 400.25,-38 400.25,-58"/>
<text text-anchor="middle" x="309.75" y="-44.5" font-family="Helvetica,sans-Serif" font-size="10.00">ace::math::lookup::_getTrigTableIndex</text>
</a>
</g>
</g>
<!-- Node1&#45;&gt;Node2 -->
<g id="edge1_Node000001_Node000002" class="edge">
<title>Node1&#45;&gt;Node2</title>
<g id="a_edge1_Node000001_Node000002"><a xlink:title=" ">
<path fill="none" stroke="#63b8ff" d="M183.66,-37C191.57,-37.7 199.62,-38.41 207.61,-39.11"/>
<polygon fill="#63b8ff" stroke="#63b8ff" points="207.09,-42.58 217.35,-39.97 207.7,-35.6 207.09,-42.58"/>
</a>
</g>
</g>
<!-- Node3 -->
<g id="Node000003" class="node">
<title>Node3</title>
<g id="a_Node000003"><a xlink:href="../../d5/d0f/namespaceace_1_1math.html#aa76b58464f6cbc1a0adfb9f1f7add2c3" target="_top" xlink:title="Truncates the given float of type Y and converts to integer of type T.">
<polygon fill="white" stroke="#666666" points="363.88,-20 255.62,-20 255.62,0 363.88,0 363.88,-20"/>
<text text-anchor="middle" x="309.75" y="-6.5" font-family="Helvetica,sans-Serif" font-size="10.00">ace::math::truncToInt</text>
</a>
</g>
</g>
<!-- Node1&#45;&gt;Node3 -->
<g id="edge2_Node000001_Node000003" class="edge">
<title>Node1&#45;&gt;Node3</title>
<g id="a_edge2_Node000001_Node000003"><a xlink:title=" ">
<path fill="none" stroke="#63b8ff" d="M183.66,-21C204,-19.21 225.18,-17.35 244.2,-15.68"/>
<polygon fill="#63b8ff" stroke="#63b8ff" points="244.26,-19.18 253.92,-14.82 243.65,-12.21 244.26,-19.18"/>
</a>
</g>
</g>
</g>
</svg>
