<?xml version="1.0" encoding="UTF-8" standalone="no"?>
<!DOCTYPE svg PUBLIC "-//W3C//DTD SVG 1.1//EN"
 "http://www.w3.org/Graphics/SVG/1.1/DTD/svg11.dtd">
<!-- Generated by graphviz version 10.0.1 (20240210.2158)
 -->
<!-- Title: AELogger::closeLog Pages: 1 -->
<svg width="976pt" height="382pt"
 viewBox="0.00 0.00 976.25 382.00" xmlns="http://www.w3.org/2000/svg" xmlns:xlink="http://www.w3.org/1999/xlink">
<g id="graph0" class="graph" transform="scale(1 1) rotate(0) translate(4 378)">
<title>AELogger::closeLog</title>
<!-- Node1 -->
<g id="Node000001" class="node">
<title>Node1</title>
<g id="a_Node000001"><a xlink:title="Close the file, if it was opened.">
<polygon fill="#999999" stroke="#666666" points="103.75,-278 0,-278 0,-258 103.75,-258 103.75,-278"/>
<text text-anchor="middle" x="51.88" y="-264.5" font-family="Helvetica,sans-Serif" font-size="10.00">AELogger::closeLog</text>
</a>
</g>
</g>
<!-- Node2 -->
<g id="Node000002" class="node">
<title>Node2</title>
<g id="a_Node000002"><a xlink:href="../../db/d15/class_a_e_file_writer.html#a05ceb471801ae111d68859f9d3b9eb78" target="_top" xlink:title="Closes the currently opened file.">
<polygon fill="white" stroke="#666666" points="272,-373 155.5,-373 155.5,-353 272,-353 272,-373"/>
<text text-anchor="middle" x="213.75" y="-359.5" font-family="Helvetica,sans-Serif" font-size="10.00">AEFileWriter::closeFile</text>
</a>
</g>
</g>
<!-- Node1&#45;&gt;Node2 -->
<g id="edge1_Node000001_Node000002" class="edge">
<title>Node1&#45;&gt;Node2</title>
<g id="a_edge1_Node000001_Node000002"><a xlink:title=" ">
<path fill="none" stroke="#63b8ff" d="M61.65,-278.29C76.2,-294.69 106.98,-326.66 139.75,-344 142.99,-345.71 146.4,-347.28 149.89,-348.71"/>
<polygon fill="#63b8ff" stroke="#63b8ff" points="148.55,-351.95 159.15,-352.09 150.95,-345.38 148.55,-351.95"/>
</a>
</g>
</g>
<!-- Node3 -->
<g id="Node000003" class="node">
<title>Node3</title>
<g id="a_Node000003"><a xlink:href="../../db/d15/class_a_e_file_writer.html#a26ea7c97bfdbed142df1863d8d47d895" target="_top" xlink:title="Returns the full name of currently open file, including the relative path, if such was provided.">
<polygon fill="white" stroke="#666666" points="287.75,-335 139.75,-335 139.75,-315 287.75,-315 287.75,-335"/>
<text text-anchor="middle" x="213.75" y="-321.5" font-family="Helvetica,sans-Serif" font-size="10.00">AEFileWriter::getFullFileName</text>
</a>
</g>
</g>
<!-- Node1&#45;&gt;Node3 -->
<g id="edge2_Node000001_Node000003" class="edge">
<title>Node1&#45;&gt;Node3</title>
<g id="a_edge2_Node000001_Node000003"><a xlink:title=" ">
<path fill="none" stroke="#63b8ff" d="M79.38,-278.42C96.52,-285.08 119.37,-293.78 139.75,-301 149.25,-304.36 159.51,-307.83 169.24,-311.05"/>
<polygon fill="#63b8ff" stroke="#63b8ff" points="167.91,-314.3 178.5,-314.09 170.09,-307.65 167.91,-314.3"/>
</a>
</g>
</g>
<!-- Node4 -->
<g id="Node000004" class="node">
<title>Node4</title>
<g id="a_Node000004"><a xlink:href="../../d8/dfc/class_a_e_logger.html#a4d512bf9f4d0a6a1b6a332b9c99e22ac" target="_top" xlink:title="Checks if a log file isn&#39;t open by this logger.">
<polygon fill="white" stroke="#666666" points="632.5,-260 530.25,-260 530.25,-240 632.5,-240 632.5,-260"/>
<text text-anchor="middle" x="581.38" y="-246.5" font-family="Helvetica,sans-Serif" font-size="10.00">AELogger::isClosed</text>
</a>
</g>
</g>
<!-- Node1&#45;&gt;Node4 -->
<g id="edge3_Node000001_Node000004" class="edge">
<title>Node1&#45;&gt;Node4</title>
<g id="a_edge3_Node000001_Node000004"><a xlink:title=" ">
<path fill="none" stroke="#63b8ff" d="M103.93,-266.26C201.38,-262.93 413.51,-255.69 518.7,-252.1"/>
<polygon fill="#63b8ff" stroke="#63b8ff" points="518.67,-255.61 528.55,-251.77 518.44,-248.61 518.67,-255.61"/>
</a>
</g>
</g>
<!-- Node7 -->
<g id="Node000007" class="node">
<title>Node7</title>
<g id="a_Node000007"><a xlink:href="../../d8/dfc/class_a_e_logger.html#a53b212c259c40bda694476f09d1f171b" target="_top" xlink:title="Stops the log&#45;writing thread (after flushing the log queue).">
<polygon fill="white" stroke="#666666" points="268.62,-218 158.88,-218 158.88,-198 268.62,-198 268.62,-218"/>
<text text-anchor="middle" x="213.75" y="-204.5" font-family="Helvetica,sans-Serif" font-size="10.00">AELogger::stopWriter</text>
</a>
</g>
</g>
<!-- Node1&#45;&gt;Node7 -->
<g id="edge6_Node000001_Node000007" class="edge">
<title>Node1&#45;&gt;Node7</title>
<g id="a_edge6_Node000001_Node000007"><a xlink:title=" ">
<path fill="none" stroke="#63b8ff" d="M80.24,-257.53C97.33,-251.02 119.81,-242.48 139.75,-235 150.76,-230.87 162.72,-226.43 173.7,-222.37"/>
<polygon fill="#63b8ff" stroke="#63b8ff" points="174.71,-225.73 182.88,-218.98 172.29,-219.16 174.71,-225.73"/>
</a>
</g>
</g>
<!-- Node9 -->
<g id="Node000009" class="node">
<title>Node9</title>
<g id="a_Node000009"><a xlink:href="../../d8/dfc/class_a_e_logger.html#ac533941173224cb21fe09326726ce754" target="_top" xlink:title="Request a log entry to be written to the opened log file.">
<polygon fill="white" stroke="#666666" points="451.5,-146 340.25,-146 340.25,-126 451.5,-126 451.5,-146"/>
<text text-anchor="middle" x="395.88" y="-132.5" font-family="Helvetica,sans-Serif" font-size="10.00">AELogger::writeToLog</text>
</a>
</g>
</g>
<!-- Node1&#45;&gt;Node9 -->
<g id="edge23_Node000001_Node000009" class="edge">
<title>Node1&#45;&gt;Node9</title>
<g id="a_edge23_Node000001_Node000009"><a xlink:title=" ">
<path fill="none" stroke="#63b8ff" d="M61,-257.65C75.09,-240.49 105.79,-206.31 139.75,-189 199.27,-158.66 275.01,-145.69 328.45,-140.14"/>
<polygon fill="#63b8ff" stroke="#63b8ff" points="328.72,-143.63 338.34,-139.18 328.04,-136.67 328.72,-143.63"/>
</a>
</g>
</g>
<!-- Node15 -->
<g id="Node000015" class="node">
<title>Node15</title>
<g id="a_Node000015"><a xlink:href="../../d8/dfc/class_a_e_logger.html#a54bad71bcfea05c3d17d7ba1bacfec8c" target="_top" xlink:title="Writes to log directly, without thinking of the queue.">
<polygon fill="white" stroke="#666666" points="468,-298 323.75,-298 323.75,-278 468,-278 468,-298"/>
<text text-anchor="middle" x="395.88" y="-284.5" font-family="Helvetica,sans-Serif" font-size="10.00">AELogger::writeToLogDirectly</text>
</a>
</g>
</g>
<!-- Node1&#45;&gt;Node15 -->
<g id="edge24_Node000001_Node000015" class="edge">
<title>Node1&#45;&gt;Node15</title>
<g id="a_edge24_Node000001_Node000015"><a xlink:title=" ">
<path fill="none" stroke="#63b8ff" d="M104.08,-270.99C159.01,-274.21 247.09,-279.36 311.94,-283.15"/>
<polygon fill="#63b8ff" stroke="#63b8ff" points="311.65,-286.64 321.84,-283.73 312.06,-279.65 311.65,-286.64"/>
</a>
</g>
</g>
<!-- Node5 -->
<g id="Node000005" class="node">
<title>Node5</title>
<g id="a_Node000005"><a xlink:href="../../db/d15/class_a_e_file_writer.html#a0743145db01b527ae9612f359e5c0090" target="_top" xlink:title="Checks if a file isn&#39;t open by this file&#45;writer.">
<polygon fill="white" stroke="#666666" points="816.88,-260 701.88,-260 701.88,-240 816.88,-240 816.88,-260"/>
<text text-anchor="middle" x="759.38" y="-246.5" font-family="Helvetica,sans-Serif" font-size="10.00">AEFileWriter::isClosed</text>
</a>
</g>
</g>
<!-- Node4&#45;&gt;Node5 -->
<g id="edge4_Node000004_Node000005" class="edge">
<title>Node4&#45;&gt;Node5</title>
<g id="a_edge4_Node000004_Node000005"><a xlink:title=" ">
<path fill="none" stroke="#63b8ff" d="M632.81,-250C650.64,-250 671.01,-250 690.07,-250"/>
<polygon fill="#63b8ff" stroke="#63b8ff" points="689.92,-253.5 699.92,-250 689.92,-246.5 689.92,-253.5"/>
</a>
</g>
</g>
<!-- Node6 -->
<g id="Node000006" class="node">
<title>Node6</title>
<g id="a_Node000006"><a xlink:href="../../db/d15/class_a_e_file_writer.html#a47e3c08c276394bce7b612331cf4762d" target="_top" xlink:title="Checks if a file is open by this file&#45;writer.">
<polygon fill="white" stroke="#666666" points="968.25,-260 860,-260 860,-240 968.25,-240 968.25,-260"/>
<text text-anchor="middle" x="914.12" y="-246.5" font-family="Helvetica,sans-Serif" font-size="10.00">AEFileWriter::isOpen</text>
</a>
</g>
</g>
<!-- Node5&#45;&gt;Node6 -->
<g id="edge5_Node000005_Node000006" class="edge">
<title>Node5&#45;&gt;Node6</title>
<g id="a_edge5_Node000005_Node000006"><a xlink:title=" ">
<path fill="none" stroke="#63b8ff" d="M817.25,-250C827.36,-250 837.96,-250 848.26,-250"/>
<polygon fill="#63b8ff" stroke="#63b8ff" points="848.23,-253.5 858.23,-250 848.23,-246.5 848.23,-253.5"/>
</a>
</g>
</g>
<!-- Node8 -->
<g id="Node000008" class="node">
<title>Node8</title>
<g id="a_Node000008"><a xlink:href="../../d0/d8a/class_____a_e_module_base.html#a2f3461ab9cf4aa231ba93ce28f7f856c" target="_top" xlink:title="Returns the name of the registered module.">
<polygon fill="white" stroke="#666666" points="658.75,-222 504,-222 504,-190 658.75,-190 658.75,-222"/>
<text text-anchor="start" x="512" y="-208.5" font-family="Helvetica,sans-Serif" font-size="10.00">__AEModuleBase&lt; AELogger &gt;</text>
<text text-anchor="middle" x="581.38" y="-196.5" font-family="Helvetica,sans-Serif" font-size="10.00">::getModuleName</text>
</a>
</g>
</g>
<!-- Node7&#45;&gt;Node8 -->
<g id="edge7_Node000007_Node000008" class="edge">
<title>Node7&#45;&gt;Node8</title>
<g id="a_edge7_Node000007_Node000008"><a xlink:title=" ">
<path fill="none" stroke="#63b8ff" d="M269.09,-207.7C327.98,-207.38 422.83,-206.86 492.37,-206.48"/>
<polygon fill="#63b8ff" stroke="#63b8ff" points="492.24,-209.98 502.22,-206.43 492.21,-202.98 492.24,-209.98"/>
</a>
</g>
</g>
<!-- Node7&#45;&gt;Node9 -->
<g id="edge8_Node000007_Node000009" class="edge">
<title>Node7&#45;&gt;Node9</title>
<g id="a_edge8_Node000007_Node000009"><a xlink:title=" ">
<path fill="none" stroke="#63b8ff" d="M240.94,-197.53C271.76,-185.21 323.13,-164.68 357.97,-150.75"/>
<polygon fill="#63b8ff" stroke="#63b8ff" points="359.26,-154.01 367.25,-147.04 356.66,-147.51 359.26,-154.01"/>
</a>
</g>
</g>
<!-- Node7&#45;&gt;Node15 -->
<g id="edge17_Node000007_Node000015" class="edge">
<title>Node7&#45;&gt;Node15</title>
<g id="a_edge17_Node000007_Node000015"><a xlink:title=" ">
<path fill="none" stroke="#63b8ff" d="M238.3,-218.46C269.58,-232.35 325.06,-256.99 360.88,-272.9"/>
<polygon fill="#63b8ff" stroke="#63b8ff" points="359.38,-276.06 369.94,-276.92 362.22,-269.67 359.38,-276.06"/>
</a>
</g>
</g>
<!-- Node9&#45;&gt;Node4 -->
<g id="edge11_Node000009_Node000004" class="edge">
<title>Node9&#45;&gt;Node4</title>
<g id="a_edge11_Node000009_Node000004"><a xlink:title=" ">
<path fill="none" stroke="#63b8ff" d="M405.43,-146.37C422.22,-166 461.55,-208.65 504,-231 508.74,-233.49 513.81,-235.67 519.02,-237.57"/>
<polygon fill="#63b8ff" stroke="#63b8ff" points="517.77,-240.84 528.36,-240.61 519.94,-234.19 517.77,-240.84"/>
</a>
</g>
</g>
<!-- Node9&#45;&gt;Node8 -->
<g id="edge9_Node000009_Node000008" class="edge">
<title>Node9&#45;&gt;Node8</title>
<g id="a_edge9_Node000009_Node000008"><a xlink:title=" ">
<path fill="none" stroke="#63b8ff" d="M420.06,-146.38C441.61,-155.88 474.7,-170.07 504,-181 508.41,-182.65 512.99,-184.29 517.61,-185.91"/>
<polygon fill="#63b8ff" stroke="#63b8ff" points="516.39,-189.19 526.98,-189.13 518.66,-182.57 516.39,-189.19"/>
</a>
</g>
</g>
<!-- Node10 -->
<g id="Node000010" class="node">
<title>Node10</title>
<g id="a_Node000010"><a xlink:href="../../de/dde/namespaceace_1_1utils.html#ac3eadc5f289b54059322023f3c5eed96" target="_top" xlink:title="Checks if the passed string is alpha&#45;numeric with underscores (contains only numbers,...">
<polygon fill="white" stroke="#666666" points="636.62,-172 526.12,-172 526.12,-152 636.62,-152 636.62,-172"/>
<text text-anchor="middle" x="581.38" y="-158.5" font-family="Helvetica,sans-Serif" font-size="10.00">ace::utils::isAlNumUs</text>
</a>
</g>
</g>
<!-- Node9&#45;&gt;Node10 -->
<g id="edge10_Node000009_Node000010" class="edge">
<title>Node9&#45;&gt;Node10</title>
<g id="a_edge10_Node000009_Node000010"><a xlink:title=" ">
<path fill="none" stroke="#63b8ff" d="M451.93,-143.8C471.62,-146.59 494,-149.76 514.5,-152.67"/>
<polygon fill="#63b8ff" stroke="#63b8ff" points="513.78,-156.1 524.18,-154.04 514.77,-149.17 513.78,-156.1"/>
</a>
</g>
</g>
<!-- Node11 -->
<g id="Node000011" class="node">
<title>Node11</title>
<g id="a_Node000011"><a xlink:href="../../de/dde/namespaceace_1_1utils.html#a878c53ede8589dbc6a50734c9c4ad4d7" target="_top" xlink:title="Checks if the value is within some range.">
<polygon fill="white" stroke="#666666" points="633.62,-134 529.12,-134 529.12,-114 633.62,-114 633.62,-134"/>
<text text-anchor="middle" x="581.38" y="-120.5" font-family="Helvetica,sans-Serif" font-size="10.00">ace::utils::isInRange</text>
</a>
</g>
</g>
<!-- Node9&#45;&gt;Node11 -->
<g id="edge12_Node000009_Node000011" class="edge">
<title>Node9&#45;&gt;Node11</title>
<g id="a_edge12_Node000009_Node000011"><a xlink:title=" ">
<path fill="none" stroke="#63b8ff" d="M451.93,-132.4C472.6,-131.05 496.25,-129.5 517.57,-128.11"/>
<polygon fill="#63b8ff" stroke="#63b8ff" points="517.55,-131.62 527.3,-127.47 517.09,-124.63 517.55,-131.62"/>
</a>
</g>
</g>
<!-- Node12 -->
<g id="Node000012" class="node">
<title>Node12</title>
<g id="a_Node000012"><a xlink:href="../../da/dea/struct_a_e_log_entry.html#a42447b345f72f22ec655556af2db7c28" target="_top" xlink:title="Allocates the queue of the given size on the heap and returns the pointer to it&#39;s first node.">
<polygon fill="white" stroke="#666666" points="644.88,-96 517.88,-96 517.88,-76 644.88,-76 644.88,-96"/>
<text text-anchor="middle" x="581.38" y="-82.5" font-family="Helvetica,sans-Serif" font-size="10.00">AELogEntry::makeQueue</text>
</a>
</g>
</g>
<!-- Node9&#45;&gt;Node12 -->
<g id="edge13_Node000009_Node000012" class="edge">
<title>Node9&#45;&gt;Node12</title>
<g id="a_edge13_Node000009_Node000012"><a xlink:title=" ">
<path fill="none" stroke="#63b8ff" d="M431.52,-125.61C452.45,-119.43 479.69,-111.54 504,-105 511.1,-103.09 518.58,-101.15 525.98,-99.26"/>
<polygon fill="#63b8ff" stroke="#63b8ff" points="526.77,-102.67 535.62,-96.84 525.06,-95.89 526.77,-102.67"/>
</a>
</g>
</g>
<!-- Node13 -->
<g id="Node000013" class="node">
<title>Node13</title>
<g id="a_Node000013"><a xlink:href="../../d8/dfc/class_a_e_logger.html#af4bff840ffdcfcb5ecb1251fddbf9690" target="_top" xlink:title="Checks for the given index number and returns the pointer in the queue of log entries.">
<polygon fill="white" stroke="#666666" points="642.25,-58 520.5,-58 520.5,-38 642.25,-38 642.25,-58"/>
<text text-anchor="middle" x="581.38" y="-44.5" font-family="Helvetica,sans-Serif" font-size="10.00">AELogger::ptrFromIndex</text>
</a>
</g>
</g>
<!-- Node9&#45;&gt;Node13 -->
<g id="edge14_Node000009_Node000013" class="edge">
<title>Node9&#45;&gt;Node13</title>
<g id="a_edge14_Node000009_Node000013"><a xlink:title=" ">
<path fill="none" stroke="#63b8ff" d="M409.93,-125.54C429.34,-110.49 467.45,-82.8 504,-67 508.5,-65.06 513.23,-63.29 518.05,-61.68"/>
<polygon fill="#63b8ff" stroke="#63b8ff" points="518.69,-65.14 527.22,-58.85 516.63,-58.45 518.69,-65.14"/>
</a>
</g>
</g>
<!-- Node14 -->
<g id="Node000014" class="node">
<title>Node14</title>
<g id="a_Node000014"><a xlink:href="../../d8/dfc/class_a_e_logger.html#a50dfd96a74d13471faebd4de499db5bf" target="_top" xlink:title="Request a debug log entry to be written to the opened log file.">
<polygon fill="white" stroke="#666666" points="650.88,-20 511.88,-20 511.88,0 650.88,0 650.88,-20"/>
<text text-anchor="middle" x="581.38" y="-6.5" font-family="Helvetica,sans-Serif" font-size="10.00">AELogger::writeToLogDebug</text>
</a>
</g>
</g>
<!-- Node9&#45;&gt;Node14 -->
<g id="edge15_Node000009_Node000014" class="edge">
<title>Node9&#45;&gt;Node14</title>
<g id="a_edge15_Node000009_Node000014"><a xlink:title=" ">
<path fill="none" stroke="#63b8ff" d="M401.17,-125.81C413.48,-103.66 450.95,-53.62 501.75,-21.94"/>
<polygon fill="#63b8ff" stroke="#63b8ff" points="503.26,-25.12 510.09,-17.02 499.7,-19.09 503.26,-25.12"/>
</a>
</g>
</g>
<!-- Node14&#45;&gt;Node9 -->
<g id="edge16_Node000014_Node000009" class="edge">
<title>Node14&#45;&gt;Node9</title>
<g id="a_edge16_Node000014_Node000009"><a xlink:title=" ">
<path fill="none" stroke="#63b8ff" d="M555.38,-20.49C539.82,-24.28 519.82,-29.06 504,-38 467.75,-58.48 435.36,-94.57 415.92,-116.99"/>
<polygon fill="#63b8ff" stroke="#63b8ff" points="413.29,-114.68 409.4,-124.53 418.58,-119.26 413.29,-114.68"/>
</a>
</g>
</g>
<!-- Node16 -->
<g id="Node000016" class="node">
<title>Node16</title>
<g id="a_Node000016"><a xlink:href="../../db/d15/class_a_e_file_writer.html#a0c238267ee45ca15672d4e9246cdca2c" target="_top" xlink:title="Flushes the opened file.">
<polygon fill="white" stroke="#666666" points="638.12,-336 524.62,-336 524.62,-316 638.12,-316 638.12,-336"/>
<text text-anchor="middle" x="581.38" y="-322.5" font-family="Helvetica,sans-Serif" font-size="10.00">AEFileWriter::flushFile</text>
</a>
</g>
</g>
<!-- Node15&#45;&gt;Node16 -->
<g id="edge18_Node000015_Node000016" class="edge">
<title>Node15&#45;&gt;Node16</title>
<g id="a_edge18_Node000015_Node000016"><a xlink:title=" ">
<path fill="none" stroke="#63b8ff" d="M447.5,-298.48C469.57,-303.05 495.63,-308.45 518.8,-313.25"/>
<polygon fill="#63b8ff" stroke="#63b8ff" points="517.93,-316.64 528.43,-315.24 519.35,-309.79 517.93,-316.64"/>
</a>
</g>
</g>
<!-- Node17 -->
<g id="Node000017" class="node">
<title>Node17</title>
<g id="a_Node000017"><a xlink:href="../../da/dea/struct_a_e_log_entry.html#ab803ea47d06098feab470f265498f617" target="_top" xlink:title="Formats the passed entry to the given c&#45;string.">
<polygon fill="white" stroke="#666666" points="643.75,-298 519,-298 519,-278 643.75,-278 643.75,-298"/>
<text text-anchor="middle" x="581.38" y="-284.5" font-family="Helvetica,sans-Serif" font-size="10.00">AELogEntry::formatEntry</text>
</a>
</g>
</g>
<!-- Node15&#45;&gt;Node17 -->
<g id="edge19_Node000015_Node000017" class="edge">
<title>Node15&#45;&gt;Node17</title>
<g id="a_edge19_Node000015_Node000017"><a xlink:title=" ">
<path fill="none" stroke="#63b8ff" d="M468.35,-288C481.19,-288 494.59,-288 507.47,-288"/>
<polygon fill="#63b8ff" stroke="#63b8ff" points="507.12,-291.5 517.12,-288 507.12,-284.5 507.12,-291.5"/>
</a>
</g>
</g>
<!-- Node20 -->
<g id="Node000020" class="node">
<title>Node20</title>
<g id="a_Node000020"><a xlink:href="../../db/d15/class_a_e_file_writer.html#a01d537821c5760615e126f1c159b67da" target="_top" xlink:title="Write binary data, as is, to file, and flush if necessary.">
<polygon fill="white" stroke="#666666" points="648.62,-374 514.12,-374 514.12,-354 648.62,-354 648.62,-374"/>
<text text-anchor="middle" x="581.38" y="-360.5" font-family="Helvetica,sans-Serif" font-size="10.00">AEFileWriter::writeData_ptr</text>
</a>
</g>
</g>
<!-- Node15&#45;&gt;Node20 -->
<g id="edge22_Node000015_Node000020" class="edge">
<title>Node15&#45;&gt;Node20</title>
<g id="a_edge22_Node000015_Node000020"><a xlink:title=" ">
<path fill="none" stroke="#63b8ff" d="M413.34,-298.41C433.87,-311 470.37,-332.09 504,-345 509.21,-347 514.7,-348.84 520.25,-350.53"/>
<polygon fill="#63b8ff" stroke="#63b8ff" points="518.9,-353.79 529.48,-353.17 520.82,-347.06 518.9,-353.79"/>
</a>
</g>
</g>
<!-- Node18 -->
<g id="Node000018" class="node">
<title>Node18</title>
<g id="a_Node000018"><a xlink:href="../../de/dde/namespaceace_1_1utils.html#a2458b79e1a70255b471414a4bb5680ce" target="_top" xlink:title="Formats the current **(c)time point as YYYY&#45;MM&#45;DD.HH:mm:SS string**.">
<polygon fill="white" stroke="#666666" points="813.88,-298 704.88,-298 704.88,-278 813.88,-278 813.88,-298"/>
<text text-anchor="middle" x="759.38" y="-284.5" font-family="Helvetica,sans-Serif" font-size="10.00">ace::utils::formatDate</text>
</a>
</g>
</g>
<!-- Node17&#45;&gt;Node18 -->
<g id="edge20_Node000017_Node000018" class="edge">
<title>Node17&#45;&gt;Node18</title>
<g id="a_edge20_Node000017_Node000018"><a xlink:title=" ">
<path fill="none" stroke="#63b8ff" d="M643.93,-288C659.8,-288 676.94,-288 693,-288"/>
<polygon fill="#63b8ff" stroke="#63b8ff" points="692.96,-291.5 702.96,-288 692.96,-284.5 692.96,-291.5"/>
</a>
</g>
</g>
<!-- Node19 -->
<g id="Node000019" class="node">
<title>Node19</title>
<g id="a_Node000019"><a xlink:href="../../da/dea/struct_a_e_log_entry.html#a958d25c57a94cfae8e7f31843e6c63ef" target="_top" xlink:title="Deduces the entry&#39;s log type and returns a c&#45;string of it.">
<polygon fill="white" stroke="#666666" points="824,-336 694.75,-336 694.75,-316 824,-316 824,-336"/>
<text text-anchor="middle" x="759.38" y="-322.5" font-family="Helvetica,sans-Serif" font-size="10.00">AELogEntry::typeToString</text>
</a>
</g>
</g>
<!-- Node17&#45;&gt;Node19 -->
<g id="edge21_Node000017_Node000019" class="edge">
<title>Node17&#45;&gt;Node19</title>
<g id="a_edge21_Node000017_Node000019"><a xlink:title=" ">
<path fill="none" stroke="#63b8ff" d="M630.93,-298.48C652,-303.03 676.86,-308.4 699.01,-313.18"/>
<polygon fill="#63b8ff" stroke="#63b8ff" points="697.98,-316.54 708.5,-315.23 699.46,-309.7 697.98,-316.54"/>
</a>
</g>
</g>
</g>
</svg>
