<?xml version="1.0" encoding="UTF-8" standalone="no"?>
<!DOCTYPE svg PUBLIC "-//W3C//DTD SVG 1.1//EN"
 "http://www.w3.org/Graphics/SVG/1.1/DTD/svg11.dtd">
<!-- Generated by graphviz version 10.0.1 (20240210.2158)
 -->
<!-- Title: AELogger::stopWriter Pages: 1 -->
<!--zoomable 104 -->

<svg id="main" version="1.1" xmlns="http://www.w3.org/2000/svg" xmlns:xlink="http://www.w3.org/1999/xlink" xml:space="preserve" onload="init(evt)">
<style type="text/css"><![CDATA[
.node, .edge {opacity: 0.7;}
.node.selected, .edge.selected {opacity: 1;}
.edge:hover path { stroke: red; }
.edge:hover polygon { stroke: red; fill: red; }
]]></style>

<defs>
  <circle id="rim" cx="0" cy="0" r="7"/>
  <circle id="rim2" cx="0" cy="0" r="3.5"/>
  <g id="zoomPlus">
    <use xlink:href="#rim" fill="#404040"><set attributeName="fill" to="#808080" begin="zoomplus.mouseover" end="zoomplus.mouseout"/></use>
    <path d="M-4,0h8M0,-4v8" fill="none" stroke="white" stroke-width="1.5" pointer-events="none"/>
  </g>
  <g id="zoomMin">
    <use xlink:href="#rim" fill="#404040"><set attributeName="fill" to="#808080" begin="zoomminus.mouseover" end="zoomminus.mouseout"/></use>
    <path d="M-4,0h8" fill="none" stroke="white" stroke-width="1.5" pointer-events="none"/>
  </g>
  <g id="arrowUp" transform="translate(30 24)">
    <use xlink:href="#rim"/>
    <path pointer-events="none" fill="none" stroke="white" stroke-width="1.5" d="M0,-3.0v7 M-2.5,-0.5L0,-3.0L2.5,-0.5"/>
  </g>
  <g id="arrowRight" transform="rotate(90) translate(36 -43)">
    <use xlink:href="#rim"/>
    <path pointer-events="none" fill="none" stroke="white" stroke-width="1.5" d="M0,-3.0v7 M-2.5,-0.5L0,-3.0L2.5,-0.5"/>
  </g>
  <g id="arrowDown" transform="rotate(180) translate(-30 -48)">
    <use xlink:href="#rim"/>
    <path pointer-events="none" fill="none" stroke="white" stroke-width="1.5" d="M0,-3.0v7 M-2.5,-0.5L0,-3.0L2.5,-0.5"/>
  </g>
  <g id="arrowLeft" transform="rotate(270) translate(-36 17)">
    <use xlink:href="#rim"/>
    <path pointer-events="none" fill="none" stroke="white" stroke-width="1.5" d="M0,-3.0v7 M-2.5,-0.5L0,-3.0L2.5,-0.5"/>
  </g>
  <g id="resetDef">
    <use xlink:href="#rim2" fill="#404040"><set attributeName="fill" to="#808080" begin="reset.mouseover" end="reset.mouseout"/></use>
  </g>
</defs>
<script type="application/ecmascript">
var viewWidth = 688;
var viewHeight = 104;
var sectionId = 'dynsection-7';
</script>
<script type="application/ecmascript" xlink:href="../../svg.min.js"/>
<svg id="graph" class="graph">
<g id="viewport">
<title>AELogger::stopWriter</title>
<!-- Node1 -->
<g id="Node000001" class="node">
<title>Node1</title>
<g id="a_Node000001"><a xlink:title="Stops the log&#45;writing thread (after flushing the log queue).">
<polygon fill="#999999" stroke="#666666" points="680,-77 570.25,-77 570.25,-57 680,-57 680,-77"/>
<text text-anchor="middle" x="625.12" y="-63.5" font-family="Helvetica,sans-Serif" font-size="10.00">AELogger::stopWriter</text>
</a>
</g>
</g>
<!-- Node2 -->
<g id="Node000002" class="node">
<title>Node2</title>
<g id="a_Node000002"><a xlink:href="../../d8/dfc/class_a_e_logger.html#a2f64d8f5de2f249f7cb973a82ec1e48a" target="_top" xlink:title="Close the file, if it was opened.">
<polygon fill="white" stroke="#666666" points="534.25,-77 430.5,-77 430.5,-57 534.25,-57 534.25,-77"/>
<text text-anchor="middle" x="482.38" y="-63.5" font-family="Helvetica,sans-Serif" font-size="10.00">AELogger::closeLog</text>
</a>
</g>
</g>
<!-- Node1&#45;&gt;Node2 -->
<g id="edge1_Node000001_Node000002" class="edge">
<title>Node1&#45;&gt;Node2</title>
<g id="a_edge1_Node000001_Node000002"><a xlink:title=" ">
<path fill="none" stroke="#63b8ff" d="M558.79,-67C550.7,-67 542.53,-67 534.7,-67"/>
<polygon fill="#63b8ff" stroke="#63b8ff" points="558.6,-70.5 568.6,-67 558.6,-63.5 558.6,-70.5"/>
</a>
</g>
</g>
<!-- Node3 -->
<g id="Node000003" class="node">
<title>Node3</title>
<g id="a_Node000003"><a xlink:href="../../d8/dfc/class_a_e_logger.html#a4b6c6a8134c8f7f24db7d3f35d62624d" target="_top" xlink:title="Class destructor.">
<polygon fill="white" stroke="#666666" points="394.5,-96 281,-96 281,-76 394.5,-76 394.5,-96"/>
<text text-anchor="middle" x="337.75" y="-82.5" font-family="Helvetica,sans-Serif" font-size="10.00">AELogger::~AELogger</text>
</a>
</g>
</g>
<!-- Node2&#45;&gt;Node3 -->
<g id="edge2_Node000002_Node000003" class="edge">
<title>Node2&#45;&gt;Node3</title>
<g id="a_edge2_Node000002_Node000003"><a xlink:title=" ">
<path fill="none" stroke="#63b8ff" d="M419.03,-75.3C410.97,-76.38 402.75,-77.47 394.8,-78.53"/>
<polygon fill="#63b8ff" stroke="#63b8ff" points="419.34,-78.8 428.79,-74.01 418.41,-71.86 419.34,-78.8"/>
</a>
</g>
</g>
<!-- Node4 -->
<g id="Node000004" class="node">
<title>Node4</title>
<g id="a_Node000004"><a xlink:href="../../d8/dfc/class_a_e_logger.html#a284034896688215f7e87242764c5985d" target="_top" xlink:title="Starts the log&#45;writing thread.">
<polygon fill="white" stroke="#666666" points="393,-58 282.5,-58 282.5,-38 393,-38 393,-58"/>
<text text-anchor="middle" x="337.75" y="-44.5" font-family="Helvetica,sans-Serif" font-size="10.00">AELogger::startWriter</text>
</a>
</g>
</g>
<!-- Node2&#45;&gt;Node4 -->
<g id="edge3_Node000002_Node000004" class="edge">
<title>Node2&#45;&gt;Node4</title>
<g id="a_edge3_Node000002_Node000004"><a xlink:title=" ">
<path fill="none" stroke="#63b8ff" d="M419.14,-58.71C410.55,-57.56 401.78,-56.4 393.34,-55.27"/>
<polygon fill="#63b8ff" stroke="#63b8ff" points="418.41,-62.14 428.79,-59.99 419.34,-55.2 418.41,-62.14"/>
</a>
</g>
</g>
<!-- Node5 -->
<g id="Node000005" class="node">
<title>Node5</title>
<g id="a_Node000005"><a xlink:href="../../d8/dfc/class_a_e_logger.html#a134f36542cb09532588436c53df9653d" target="_top" xlink:title="Class constructor – it opens the file with the given path and name and start logging to it.">
<polygon fill="white" stroke="#666666" points="245,-77 137.5,-77 137.5,-57 245,-57 245,-77"/>
<text text-anchor="middle" x="191.25" y="-63.5" font-family="Helvetica,sans-Serif" font-size="10.00">AELogger::AELogger</text>
</a>
</g>
</g>
<!-- Node4&#45;&gt;Node5 -->
<g id="edge4_Node000004_Node000005" class="edge">
<title>Node4&#45;&gt;Node5</title>
<g id="a_edge4_Node000004_Node000005"><a xlink:title=" ">
<path fill="none" stroke="#63b8ff" d="M270.86,-56.66C262.21,-57.8 253.44,-58.95 245.04,-60.06"/>
<polygon fill="#63b8ff" stroke="#63b8ff" points="271.16,-60.15 280.62,-55.38 270.25,-53.21 271.16,-60.15"/>
</a>
</g>
</g>
<!-- Node6 -->
<g id="Node000006" class="node">
<title>Node6</title>
<g id="a_Node000006"><a xlink:href="../../d8/dfc/class_a_e_logger.html#a53b588f9874535299d612a4c71de9950" target="_top" xlink:title="Open the file to start logging.">
<polygon fill="white" stroke="#666666" points="242,-39 140.5,-39 140.5,-19 242,-19 242,-39"/>
<text text-anchor="middle" x="191.25" y="-25.5" font-family="Helvetica,sans-Serif" font-size="10.00">AELogger::openLog</text>
</a>
</g>
</g>
<!-- Node4&#45;&gt;Node6 -->
<g id="edge5_Node000004_Node000006" class="edge">
<title>Node4&#45;&gt;Node6</title>
<g id="a_edge5_Node000004_Node000006"><a xlink:title=" ">
<path fill="none" stroke="#63b8ff" d="M270.91,-39.34C261.26,-38.07 251.46,-36.79 242.2,-35.57"/>
<polygon fill="#63b8ff" stroke="#63b8ff" points="270.25,-42.79 280.62,-40.62 271.16,-35.85 270.25,-42.79"/>
</a>
</g>
</g>
<!-- Node7 -->
<g id="Node000007" class="node">
<title>Node7</title>
<g id="a_Node000007"><a xlink:href="../../d8/dfc/class_a_e_logger.html#ac8f55a9e3c92557ea3d92974093ff6fb" target="_top" xlink:title="Open the file to start logging.">
<polygon fill="white" stroke="#666666" points="101.5,-58 0,-58 0,-38 101.5,-38 101.5,-58"/>
<text text-anchor="middle" x="50.75" y="-44.5" font-family="Helvetica,sans-Serif" font-size="10.00">AELogger::openLog</text>
</a>
</g>
</g>
<!-- Node6&#45;&gt;Node7 -->
<g id="edge6_Node000006_Node000007" class="edge">
<title>Node6&#45;&gt;Node7</title>
<g id="a_edge6_Node000006_Node000007"><a xlink:title=" ">
<path fill="none" stroke="#63b8ff" d="M128.87,-37.42C119.78,-38.67 110.5,-39.94 101.68,-41.15"/>
<polygon fill="#63b8ff" stroke="#63b8ff" points="129.32,-40.89 138.75,-36.07 128.37,-33.96 129.32,-40.89"/>
</a>
</g>
</g>
<!-- Node8 -->
<g id="Node000008" class="node">
<title>Node8</title>
<g id="a_Node000008"><a xlink:href="../../d8/dfc/class_a_e_logger.html#acbfddb2d8f459f32ce58d7c06cc2ddaa" target="_top" xlink:title="Open the file to start logging.">
<polygon fill="white" stroke="#666666" points="101.5,-20 0,-20 0,0 101.5,0 101.5,-20"/>
<text text-anchor="middle" x="50.75" y="-6.5" font-family="Helvetica,sans-Serif" font-size="10.00">AELogger::openLog</text>
</a>
</g>
</g>
<!-- Node6&#45;&gt;Node8 -->
<g id="edge7_Node000006_Node000008" class="edge">
<title>Node6&#45;&gt;Node8</title>
<g id="a_edge7_Node000006_Node000008"><a xlink:title=" ">
<path fill="none" stroke="#63b8ff" d="M128.87,-20.58C119.78,-19.33 110.5,-18.06 101.68,-16.85"/>
<polygon fill="#63b8ff" stroke="#63b8ff" points="128.37,-24.04 138.75,-21.93 129.32,-17.11 128.37,-24.04"/>
</a>
</g>
</g>
</g>
</svg>

<g id="navigator" transform="translate(0 0)" fill="#404254">
  <rect fill="#f2f5e9" fill-opacity="0.5" stroke="#606060" stroke-width=".5" x="0" y="0" width="60" height="60"/>
  <use id="zoomplus" xlink:href="#zoomPlus" x="17" y="9" onmousedown="handleZoom(evt,'in')"/>
  <use id="zoomminus" xlink:href="#zoomMin" x="42" y="9" onmousedown="handleZoom(evt,'out')"/>
  <use id="reset" xlink:href="#resetDef" x="30" y="36" onmousedown="handleReset()"/>
   <use id="arrowup" xlink:href="#arrowUp" x="0" y="0" onmousedown="handlePan(0,-1)"/>
  <use id="arrowright" xlink:href="#arrowRight" x="0" y="0" onmousedown="handlePan(1,0)"/>
  <use id="arrowdown" xlink:href="#arrowDown" x="0" y="0" onmousedown="handlePan(0,1)"/>
  <use id="arrowleft" xlink:href="#arrowLeft" x="0" y="0" onmousedown="handlePan(-1,0)"/>
</g>
<svg viewBox="0 0 15 15" width="100%" height="30px" preserveAspectRatio="xMaxYMin meet">
 <g id="arrow_out" transform="scale(0.3 0.3)">
  <a xlink:href="class_a_e_logger_a53b212c259c40bda694476f09d1f171b_icgraph_org.svg" target="_base">
   <rect id="button" ry="5" rx="5" y="6" x="6" height="38" width="38"
        fill="#f2f5e9" fill-opacity="0.5" stroke="#606060" stroke-width="1.0"/>
   <path id="arrow"
     d="M 11.500037,31.436501 C 11.940474,20.09759 22.043105,11.32322 32.158766,21.979434 L 37.068811,17.246167 C 37.068811,17.246167 37.088388,32 37.088388,32 L 22.160133,31.978069 C 22.160133,31.978069 26.997745,27.140456 26.997745,27.140456 C 18.528582,18.264221 13.291696,25.230495 11.500037,31.436501 z"
     style="fill:#404040;"/>
  </a>
 </g>
</svg>

<style type='text/css'>
<![CDATA[
[data-mouse-over-selected='false'] { opacity: 0.7; }
[data-mouse-over-selected='true']  { opacity: 1.0; }
]]>
</style>
<script type="application/ecmascript"><![CDATA[
document.addEventListener('DOMContentLoaded', (event) => {
  highlightEdges();
  highlightAdjacentNodes();
});
]]></script>
</svg>
