<?xml version="1.0" encoding="UTF-8" standalone="no"?>
<!DOCTYPE svg PUBLIC "-//W3C//DTD SVG 1.1//EN"
 "http://www.w3.org/Graphics/SVG/1.1/DTD/svg11.dtd">
<!-- Generated by graphviz version 10.0.1 (20240210.2158)
 -->
<!-- Title: AELogger::startWriter Pages: 1 -->
<!--zoomable 556 -->

<svg id="main" version="1.1" xmlns="http://www.w3.org/2000/svg" xmlns:xlink="http://www.w3.org/1999/xlink" xml:space="preserve" onload="init(evt)">
<style type="text/css"><![CDATA[
.node, .edge {opacity: 0.7;}
.node.selected, .edge.selected {opacity: 1;}
.edge:hover path { stroke: red; }
.edge:hover polygon { stroke: red; fill: red; }
]]></style>

<defs>
  <circle id="rim" cx="0" cy="0" r="7"/>
  <circle id="rim2" cx="0" cy="0" r="3.5"/>
  <g id="zoomPlus">
    <use xlink:href="#rim" fill="#404040"><set attributeName="fill" to="#808080" begin="zoomplus.mouseover" end="zoomplus.mouseout"/></use>
    <path d="M-4,0h8M0,-4v8" fill="none" stroke="white" stroke-width="1.5" pointer-events="none"/>
  </g>
  <g id="zoomMin">
    <use xlink:href="#rim" fill="#404040"><set attributeName="fill" to="#808080" begin="zoomminus.mouseover" end="zoomminus.mouseout"/></use>
    <path d="M-4,0h8" fill="none" stroke="white" stroke-width="1.5" pointer-events="none"/>
  </g>
  <g id="arrowUp" transform="translate(30 24)">
    <use xlink:href="#rim"/>
    <path pointer-events="none" fill="none" stroke="white" stroke-width="1.5" d="M0,-3.0v7 M-2.5,-0.5L0,-3.0L2.5,-0.5"/>
  </g>
  <g id="arrowRight" transform="rotate(90) translate(36 -43)">
    <use xlink:href="#rim"/>
    <path pointer-events="none" fill="none" stroke="white" stroke-width="1.5" d="M0,-3.0v7 M-2.5,-0.5L0,-3.0L2.5,-0.5"/>
  </g>
  <g id="arrowDown" transform="rotate(180) translate(-30 -48)">
    <use xlink:href="#rim"/>
    <path pointer-events="none" fill="none" stroke="white" stroke-width="1.5" d="M0,-3.0v7 M-2.5,-0.5L0,-3.0L2.5,-0.5"/>
  </g>
  <g id="arrowLeft" transform="rotate(270) translate(-36 17)">
    <use xlink:href="#rim"/>
    <path pointer-events="none" fill="none" stroke="white" stroke-width="1.5" d="M0,-3.0v7 M-2.5,-0.5L0,-3.0L2.5,-0.5"/>
  </g>
  <g id="resetDef">
    <use xlink:href="#rim2" fill="#404040"><set attributeName="fill" to="#808080" begin="reset.mouseover" end="reset.mouseout"/></use>
  </g>
</defs>
<script type="application/ecmascript">
var viewWidth = 1123;
var viewHeight = 556;
var sectionId = 'dynsection-4';
</script>
<script type="application/ecmascript" xlink:href="../../svg.min.js"/>
<svg id="graph" class="graph">
<g id="viewport">
<title>AELogger::startWriter</title>
<!-- Node1 -->
<g id="Node000001" class="node">
<title>Node1</title>
<g id="a_Node000001"><a xlink:title="Starts the log&#45;writing thread.">
<polygon fill="#999999" stroke="#666666" points="110.5,-278 0,-278 0,-258 110.5,-258 110.5,-278"/>
<text text-anchor="middle" x="55.25" y="-264.5" font-family="Helvetica,sans-Serif" font-size="10.00">AELogger::startWriter</text>
</a>
</g>
</g>
<!-- Node2 -->
<g id="Node000002" class="node">
<title>Node2</title>
<g id="a_Node000002"><a xlink:href="../../d8/dfc/class_a_e_logger.html#a2f64d8f5de2f249f7cb973a82ec1e48a" target="_top" xlink:title="Close the file, if it was opened.">
<polygon fill="white" stroke="#666666" points="250.25,-335 146.5,-335 146.5,-315 250.25,-315 250.25,-335"/>
<text text-anchor="middle" x="198.38" y="-321.5" font-family="Helvetica,sans-Serif" font-size="10.00">AELogger::closeLog</text>
</a>
</g>
</g>
<!-- Node1&#45;&gt;Node2 -->
<g id="edge1_Node000001_Node000002" class="edge">
<title>Node1&#45;&gt;Node2</title>
<g id="a_edge1_Node000001_Node000002"><a xlink:title=" ">
<path fill="none" stroke="#63b8ff" d="M82.13,-278.45C104.32,-287.41 136.5,-300.41 161.23,-310.4"/>
<polygon fill="#63b8ff" stroke="#63b8ff" points="159.67,-313.54 170.25,-314.04 162.29,-307.05 159.67,-313.54"/>
</a>
</g>
</g>
<!-- Node9 -->
<g id="Node000009" class="node">
<title>Node9</title>
<g id="a_Node000009"><a xlink:href="../../d0/d8a/class_____a_e_module_base.html#a625c82f27195de3f9ab5af4fc7437e2f" target="_top" xlink:title="Get the name of the module.">
<polygon fill="white" stroke="#666666" points="805.25,-312 650.5,-312 650.5,-280 805.25,-280 805.25,-312"/>
<text text-anchor="start" x="658.5" y="-298.5" font-family="Helvetica,sans-Serif" font-size="10.00">__AEModuleBase&lt; AELogger &gt;</text>
<text text-anchor="middle" x="727.88" y="-286.5" font-family="Helvetica,sans-Serif" font-size="10.00">::getModuleName</text>
</a>
</g>
</g>
<!-- Node1&#45;&gt;Node9 -->
<g id="edge26_Node000001_Node000009" class="edge">
<title>Node1&#45;&gt;Node9</title>
<g id="a_edge26_Node000001_Node000009"><a xlink:title=" ">
<path fill="none" stroke="#63b8ff" d="M110.75,-266.37C184.25,-264.55 319.21,-262.51 434.25,-268 503.07,-271.28 580.68,-278.89 638.68,-285.35"/>
<polygon fill="#63b8ff" stroke="#63b8ff" points="638.17,-288.81 648.5,-286.45 638.95,-281.86 638.17,-288.81"/>
</a>
</g>
</g>
<!-- Node10 -->
<g id="Node000010" class="node">
<title>Node10</title>
<g id="a_Node000010"><a xlink:href="../../d8/dfc/class_a_e_logger.html#ac533941173224cb21fe09326726ce754" target="_top" xlink:title="Request a log entry to be written to the opened log file.">
<polygon fill="white" stroke="#666666" points="598,-419 486.75,-419 486.75,-399 598,-399 598,-419"/>
<text text-anchor="middle" x="542.38" y="-405.5" font-family="Helvetica,sans-Serif" font-size="10.00">AELogger::writeToLog</text>
</a>
</g>
</g>
<!-- Node1&#45;&gt;Node10 -->
<g id="edge36_Node000001_Node000010" class="edge">
<title>Node1&#45;&gt;Node10</title>
<g id="a_edge36_Node000001_Node000010"><a xlink:title=" ">
<path fill="none" stroke="#63b8ff" d="M64.93,-278.36C92.86,-310.76 184.55,-409.89 286.25,-442 361.68,-465.81 454.85,-440.88 505.11,-423.26"/>
<polygon fill="#63b8ff" stroke="#63b8ff" points="506.11,-426.61 514.33,-419.92 503.73,-420.03 506.11,-426.61"/>
</a>
</g>
</g>
<!-- Node22 -->
<g id="Node000022" class="node">
<title>Node22</title>
<g id="a_Node000022"><a xlink:href="../../d8/dfc/class_a_e_logger.html#a5938787b6933f4b96ebff10643bd2497" target="_top" xlink:title="The function of the log writing thread to...read the entries, format them, write them,...">
<polygon fill="white" stroke="#666666" points="426.75,-176 293.75,-176 293.75,-156 426.75,-156 426.75,-176"/>
<text text-anchor="middle" x="360.25" y="-162.5" font-family="Helvetica,sans-Serif" font-size="10.00">AELogger::logWriterThread</text>
</a>
</g>
</g>
<!-- Node1&#45;&gt;Node22 -->
<g id="edge27_Node000001_Node000022" class="edge">
<title>Node1&#45;&gt;Node22</title>
<g id="a_edge27_Node000001_Node000022"><a xlink:title=" ">
<path fill="none" stroke="#63b8ff" d="M65.65,-257.75C80.92,-241.82 112.79,-211.47 146.5,-197 189.14,-178.69 240.53,-170.85 282.12,-167.63"/>
<polygon fill="#63b8ff" stroke="#63b8ff" points="282.34,-171.13 292.07,-166.95 281.85,-164.15 282.34,-171.13"/>
</a>
</g>
</g>
<!-- Node3 -->
<g id="Node000003" class="node">
<title>Node3</title>
<g id="a_Node000003"><a xlink:href="../../db/d15/class_a_e_file_writer.html#a05ceb471801ae111d68859f9d3b9eb78" target="_top" xlink:title="Closes the currently opened file.">
<polygon fill="white" stroke="#666666" points="418.5,-411 302,-411 302,-391 418.5,-391 418.5,-411"/>
<text text-anchor="middle" x="360.25" y="-397.5" font-family="Helvetica,sans-Serif" font-size="10.00">AEFileWriter::closeFile</text>
</a>
</g>
</g>
<!-- Node2&#45;&gt;Node3 -->
<g id="edge2_Node000002_Node000003" class="edge">
<title>Node2&#45;&gt;Node3</title>
<g id="a_edge2_Node000002_Node000003"><a xlink:title=" ">
<path fill="none" stroke="#63b8ff" d="M214.5,-335.47C231.4,-346.83 259.87,-364.95 286.25,-377 294.27,-380.66 303.02,-384.04 311.58,-387.02"/>
<polygon fill="#63b8ff" stroke="#63b8ff" points="310.22,-390.26 320.82,-390.11 312.44,-383.62 310.22,-390.26"/>
</a>
</g>
</g>
<!-- Node4 -->
<g id="Node000004" class="node">
<title>Node4</title>
<g id="a_Node000004"><a xlink:href="../../db/d15/class_a_e_file_writer.html#a26ea7c97bfdbed142df1863d8d47d895" target="_top" xlink:title="Returns the full name of currently open file, including the relative path, if such was provided.">
<polygon fill="white" stroke="#666666" points="434.25,-335 286.25,-335 286.25,-315 434.25,-315 434.25,-335"/>
<text text-anchor="middle" x="360.25" y="-321.5" font-family="Helvetica,sans-Serif" font-size="10.00">AEFileWriter::getFullFileName</text>
</a>
</g>
</g>
<!-- Node2&#45;&gt;Node4 -->
<g id="edge3_Node000002_Node000004" class="edge">
<title>Node2&#45;&gt;Node4</title>
<g id="a_edge3_Node000002_Node000004"><a xlink:title=" ">
<path fill="none" stroke="#63b8ff" d="M250.4,-325C258.19,-325 266.4,-325 274.68,-325"/>
<polygon fill="#63b8ff" stroke="#63b8ff" points="274.47,-328.5 284.47,-325 274.47,-321.5 274.47,-328.5"/>
</a>
</g>
</g>
<!-- Node5 -->
<g id="Node000005" class="node">
<title>Node5</title>
<g id="a_Node000005"><a xlink:href="../../d8/dfc/class_a_e_logger.html#a4d512bf9f4d0a6a1b6a332b9c99e22ac" target="_top" xlink:title="Checks if a log file isn&#39;t open by this logger.">
<polygon fill="white" stroke="#666666" points="779,-358 676.75,-358 676.75,-338 779,-338 779,-358"/>
<text text-anchor="middle" x="727.88" y="-344.5" font-family="Helvetica,sans-Serif" font-size="10.00">AELogger::isClosed</text>
</a>
</g>
</g>
<!-- Node2&#45;&gt;Node5 -->
<g id="edge4_Node000002_Node000005" class="edge">
<title>Node2&#45;&gt;Node5</title>
<g id="a_edge4_Node000002_Node000005"><a xlink:title=" ">
<path fill="none" stroke="#63b8ff" d="M238.88,-335.44C253.63,-338.86 270.6,-342.24 286.25,-344 420.71,-359.15 579.7,-355.27 665.14,-351.43"/>
<polygon fill="#63b8ff" stroke="#63b8ff" points="665.11,-354.94 674.94,-350.97 664.79,-347.94 665.11,-354.94"/>
</a>
</g>
</g>
<!-- Node8 -->
<g id="Node000008" class="node">
<title>Node8</title>
<g id="a_Node000008"><a xlink:href="../../d8/dfc/class_a_e_logger.html#a53b212c259c40bda694476f09d1f171b" target="_top" xlink:title="Stops the log&#45;writing thread (after flushing the log queue).">
<polygon fill="white" stroke="#666666" points="415.12,-297 305.38,-297 305.38,-277 415.12,-277 415.12,-297"/>
<text text-anchor="middle" x="360.25" y="-283.5" font-family="Helvetica,sans-Serif" font-size="10.00">AELogger::stopWriter</text>
</a>
</g>
</g>
<!-- Node2&#45;&gt;Node8 -->
<g id="edge7_Node000002_Node000008" class="edge">
<title>Node2&#45;&gt;Node8</title>
<g id="a_edge7_Node000002_Node000008"><a xlink:title=" ">
<path fill="none" stroke="#63b8ff" d="M243.48,-314.52C262.27,-310.05 284.38,-304.79 304.22,-300.08"/>
<polygon fill="#63b8ff" stroke="#63b8ff" points="304.89,-303.52 313.81,-297.8 303.27,-296.71 304.89,-303.52"/>
</a>
</g>
</g>
<!-- Node2&#45;&gt;Node10 -->
<g id="edge24_Node000002_Node000010" class="edge">
<title>Node2&#45;&gt;Node10</title>
<g id="a_edge24_Node000002_Node000010"><a xlink:title=" ">
<path fill="none" stroke="#63b8ff" d="M204.85,-335.3C216.53,-356.03 246.16,-402.34 286.25,-420 354.85,-450.23 444.13,-435.72 496.85,-422.39"/>
<polygon fill="#63b8ff" stroke="#63b8ff" points="497.6,-425.82 506.38,-419.88 495.81,-419.05 497.6,-425.82"/>
</a>
</g>
</g>
<!-- Node16 -->
<g id="Node000016" class="node">
<title>Node16</title>
<g id="a_Node000016"><a xlink:href="../../d8/dfc/class_a_e_logger.html#a54bad71bcfea05c3d17d7ba1bacfec8c" target="_top" xlink:title="Writes to log directly, without thinking of the queue.">
<polygon fill="white" stroke="#666666" points="614.5,-214 470.25,-214 470.25,-194 614.5,-194 614.5,-214"/>
<text text-anchor="middle" x="542.38" y="-200.5" font-family="Helvetica,sans-Serif" font-size="10.00">AELogger::writeToLogDirectly</text>
</a>
</g>
</g>
<!-- Node2&#45;&gt;Node16 -->
<g id="edge25_Node000002_Node000016" class="edge">
<title>Node2&#45;&gt;Node16</title>
<g id="a_edge25_Node000002_Node000016"><a xlink:title=" ">
<path fill="none" stroke="#63b8ff" d="M212.12,-314.64C228.39,-301.91 257.83,-280.46 286.25,-268 343.14,-243.06 411.59,-226.55 463.27,-216.56"/>
<polygon fill="#63b8ff" stroke="#63b8ff" points="463.7,-220.04 472.88,-214.75 462.4,-213.16 463.7,-220.04"/>
</a>
</g>
</g>
<!-- Node6 -->
<g id="Node000006" class="node">
<title>Node6</title>
<g id="a_Node000006"><a xlink:href="../../db/d15/class_a_e_file_writer.html#a0743145db01b527ae9612f359e5c0090" target="_top" xlink:title="Checks if a file isn&#39;t open by this file&#45;writer.">
<polygon fill="white" stroke="#666666" points="963.38,-358 848.38,-358 848.38,-338 963.38,-338 963.38,-358"/>
<text text-anchor="middle" x="905.88" y="-344.5" font-family="Helvetica,sans-Serif" font-size="10.00">AEFileWriter::isClosed</text>
</a>
</g>
</g>
<!-- Node5&#45;&gt;Node6 -->
<g id="edge5_Node000005_Node000006" class="edge">
<title>Node5&#45;&gt;Node6</title>
<g id="a_edge5_Node000005_Node000006"><a xlink:title=" ">
<path fill="none" stroke="#63b8ff" d="M779.31,-348C797.14,-348 817.51,-348 836.57,-348"/>
<polygon fill="#63b8ff" stroke="#63b8ff" points="836.42,-351.5 846.42,-348 836.42,-344.5 836.42,-351.5"/>
</a>
</g>
</g>
<!-- Node7 -->
<g id="Node000007" class="node">
<title>Node7</title>
<g id="a_Node000007"><a xlink:href="../../db/d15/class_a_e_file_writer.html#a47e3c08c276394bce7b612331cf4762d" target="_top" xlink:title="Checks if a file is open by this file&#45;writer.">
<polygon fill="white" stroke="#666666" points="1114.75,-358 1006.5,-358 1006.5,-338 1114.75,-338 1114.75,-358"/>
<text text-anchor="middle" x="1060.62" y="-344.5" font-family="Helvetica,sans-Serif" font-size="10.00">AEFileWriter::isOpen</text>
</a>
</g>
</g>
<!-- Node6&#45;&gt;Node7 -->
<g id="edge6_Node000006_Node000007" class="edge">
<title>Node6&#45;&gt;Node7</title>
<g id="a_edge6_Node000006_Node000007"><a xlink:title=" ">
<path fill="none" stroke="#63b8ff" d="M963.75,-348C973.86,-348 984.46,-348 994.76,-348"/>
<polygon fill="#63b8ff" stroke="#63b8ff" points="994.73,-351.5 1004.73,-348 994.73,-344.5 994.73,-351.5"/>
</a>
</g>
</g>
<!-- Node8&#45;&gt;Node9 -->
<g id="edge8_Node000008_Node000009" class="edge">
<title>Node8&#45;&gt;Node9</title>
<g id="a_edge8_Node000008_Node000009"><a xlink:title=" ">
<path fill="none" stroke="#63b8ff" d="M415.55,-291.09C433.01,-292.25 452.44,-293.36 470.25,-294 526.33,-296.02 589.34,-296.53 638.89,-296.54"/>
<polygon fill="#63b8ff" stroke="#63b8ff" points="638.7,-300.04 648.7,-296.53 638.69,-293.04 638.7,-300.04"/>
</a>
</g>
</g>
<!-- Node8&#45;&gt;Node10 -->
<g id="edge9_Node000008_Node000010" class="edge">
<title>Node8&#45;&gt;Node10</title>
<g id="a_edge9_Node000008_Node000010"><a xlink:title=" ">
<path fill="none" stroke="#63b8ff" d="M414.35,-297.37C421.26,-299.7 428.08,-302.55 434.25,-306 454.58,-317.38 499.53,-363.96 524.26,-390.41"/>
<polygon fill="#63b8ff" stroke="#63b8ff" points="521.4,-392.48 530.77,-397.42 526.53,-387.72 521.4,-392.48"/>
</a>
</g>
</g>
<!-- Node8&#45;&gt;Node16 -->
<g id="edge18_Node000008_Node000016" class="edge">
<title>Node8&#45;&gt;Node16</title>
<g id="a_edge18_Node000008_Node000016"><a xlink:title=" ">
<path fill="none" stroke="#63b8ff" d="M397.39,-276.58C409.31,-272.76 422.51,-268.11 434.25,-263 462.86,-250.55 493.92,-232.95 515.2,-220.22"/>
<polygon fill="#63b8ff" stroke="#63b8ff" points="516.76,-223.36 523.5,-215.19 513.14,-217.37 516.76,-223.36"/>
</a>
</g>
</g>
<!-- Node10&#45;&gt;Node5 -->
<g id="edge12_Node000010_Node000005" class="edge">
<title>Node10&#45;&gt;Node5</title>
<g id="a_edge12_Node000010_Node000005"><a xlink:title=" ">
<path fill="none" stroke="#63b8ff" d="M567.3,-398.58C588.8,-389.48 621.38,-376.29 650.5,-367 656.67,-365.03 663.18,-363.14 669.68,-361.37"/>
<polygon fill="#63b8ff" stroke="#63b8ff" points="670.32,-364.82 679.1,-358.88 668.54,-358.05 670.32,-364.82"/>
</a>
</g>
</g>
<!-- Node10&#45;&gt;Node9 -->
<g id="edge10_Node000010_Node000009" class="edge">
<title>Node10&#45;&gt;Node9</title>
<g id="a_edge10_Node000010_Node000009"><a xlink:title=" ">
<path fill="none" stroke="#63b8ff" d="M555.26,-398.65C574.37,-382.36 613.53,-350.39 650.5,-329 657.8,-324.77 665.75,-320.76 673.66,-317.08"/>
<polygon fill="#63b8ff" stroke="#63b8ff" points="674.92,-320.35 682.61,-313.06 672.06,-313.96 674.92,-320.35"/>
</a>
</g>
</g>
<!-- Node11 -->
<g id="Node000011" class="node">
<title>Node11</title>
<g id="a_Node000011"><a xlink:href="../../de/dde/namespaceace_1_1utils.html#ac3eadc5f289b54059322023f3c5eed96" target="_top" xlink:title="Checks if the passed string is alpha&#45;numeric with underscores (contains only numbers,...">
<polygon fill="white" stroke="#666666" points="783.12,-548 672.62,-548 672.62,-528 783.12,-528 783.12,-548"/>
<text text-anchor="middle" x="727.88" y="-534.5" font-family="Helvetica,sans-Serif" font-size="10.00">ace::utils::isAlNumUs</text>
</a>
</g>
</g>
<!-- Node10&#45;&gt;Node11 -->
<g id="edge11_Node000010_Node000011" class="edge">
<title>Node10&#45;&gt;Node11</title>
<g id="a_edge11_Node000010_Node000011"><a xlink:title=" ">
<path fill="none" stroke="#63b8ff" d="M550.33,-419.33C565.68,-441.29 604.73,-492.72 650.5,-519 654.09,-521.06 657.9,-522.9 661.82,-524.54"/>
<polygon fill="#63b8ff" stroke="#63b8ff" points="660.4,-527.75 671,-527.91 662.82,-521.18 660.4,-527.75"/>
</a>
</g>
</g>
<!-- Node12 -->
<g id="Node000012" class="node">
<title>Node12</title>
<g id="a_Node000012"><a xlink:href="../../de/dde/namespaceace_1_1utils.html#a878c53ede8589dbc6a50734c9c4ad4d7" target="_top" xlink:title="Checks if the value is within some range.">
<polygon fill="white" stroke="#666666" points="780.12,-510 675.62,-510 675.62,-490 780.12,-490 780.12,-510"/>
<text text-anchor="middle" x="727.88" y="-496.5" font-family="Helvetica,sans-Serif" font-size="10.00">ace::utils::isInRange</text>
</a>
</g>
</g>
<!-- Node10&#45;&gt;Node12 -->
<g id="edge13_Node000010_Node000012" class="edge">
<title>Node10&#45;&gt;Node12</title>
<g id="a_edge13_Node000010_Node000012"><a xlink:title=" ">
<path fill="none" stroke="#63b8ff" d="M555.71,-419.42C574.81,-435.04 613.22,-464.45 650.5,-481 655.05,-483.02 659.85,-484.85 664.74,-486.5"/>
<polygon fill="#63b8ff" stroke="#63b8ff" points="663.48,-489.78 674.07,-489.39 665.55,-483.09 663.48,-489.78"/>
</a>
</g>
</g>
<!-- Node13 -->
<g id="Node000013" class="node">
<title>Node13</title>
<g id="a_Node000013"><a xlink:href="../../da/dea/struct_a_e_log_entry.html#a42447b345f72f22ec655556af2db7c28" target="_top" xlink:title="Allocates the queue of the given size on the heap and returns the pointer to it&#39;s first node.">
<polygon fill="white" stroke="#666666" points="791.38,-472 664.38,-472 664.38,-452 791.38,-452 791.38,-472"/>
<text text-anchor="middle" x="727.88" y="-458.5" font-family="Helvetica,sans-Serif" font-size="10.00">AELogEntry::makeQueue</text>
</a>
</g>
</g>
<!-- Node10&#45;&gt;Node13 -->
<g id="edge14_Node000010_Node000013" class="edge">
<title>Node10&#45;&gt;Node13</title>
<g id="a_edge14_Node000010_Node000013"><a xlink:title=" ">
<path fill="none" stroke="#63b8ff" d="M574.62,-419.49C595.91,-426.5 624.78,-435.73 650.5,-443 657.32,-444.93 664.5,-446.85 671.63,-448.7"/>
<polygon fill="#63b8ff" stroke="#63b8ff" points="670.71,-452.08 681.26,-451.15 672.43,-445.29 670.71,-452.08"/>
</a>
</g>
</g>
<!-- Node14 -->
<g id="Node000014" class="node">
<title>Node14</title>
<g id="a_Node000014"><a xlink:href="../../d8/dfc/class_a_e_logger.html#af4bff840ffdcfcb5ecb1251fddbf9690" target="_top" xlink:title="Checks for the given index number and returns the pointer in the queue of log entries.">
<polygon fill="white" stroke="#666666" points="788.75,-434 667,-434 667,-414 788.75,-414 788.75,-434"/>
<text text-anchor="middle" x="727.88" y="-420.5" font-family="Helvetica,sans-Serif" font-size="10.00">AELogger::ptrFromIndex</text>
</a>
</g>
</g>
<!-- Node10&#45;&gt;Node14 -->
<g id="edge15_Node000010_Node000014" class="edge">
<title>Node10&#45;&gt;Node14</title>
<g id="a_edge15_Node000010_Node000014"><a xlink:title=" ">
<path fill="none" stroke="#63b8ff" d="M598.43,-413.5C616.35,-414.97 636.5,-416.61 655.44,-418.16"/>
<polygon fill="#63b8ff" stroke="#63b8ff" points="654.97,-421.63 665.23,-418.96 655.54,-414.66 654.97,-421.63"/>
</a>
</g>
</g>
<!-- Node15 -->
<g id="Node000015" class="node">
<title>Node15</title>
<g id="a_Node000015"><a xlink:href="../../d8/dfc/class_a_e_logger.html#a50dfd96a74d13471faebd4de499db5bf" target="_top" xlink:title="Request a debug log entry to be written to the opened log file.">
<polygon fill="white" stroke="#666666" points="797.38,-396 658.38,-396 658.38,-376 797.38,-376 797.38,-396"/>
<text text-anchor="middle" x="727.88" y="-382.5" font-family="Helvetica,sans-Serif" font-size="10.00">AELogger::writeToLogDebug</text>
</a>
</g>
</g>
<!-- Node10&#45;&gt;Node15 -->
<g id="edge16_Node000010_Node000015" class="edge">
<title>Node10&#45;&gt;Node15</title>
<g id="a_edge16_Node000010_Node000015"><a xlink:title=" ">
<path fill="none" stroke="#63b8ff" d="M581.84,-398.56C600.72,-395.28 624.21,-391.98 646.74,-389.34"/>
<polygon fill="#63b8ff" stroke="#63b8ff" points="647.01,-392.83 656.55,-388.24 646.23,-385.88 647.01,-392.83"/>
</a>
</g>
</g>
<!-- Node15&#45;&gt;Node10 -->
<g id="edge17_Node000015_Node000010" class="edge">
<title>Node15&#45;&gt;Node10</title>
<g id="a_edge17_Node000015_Node000010"><a xlink:title=" ">
<path fill="none" stroke="#63b8ff" d="M688.17,-396.48C665.47,-400.41 636.17,-404.38 609.88,-407.18"/>
<polygon fill="#63b8ff" stroke="#63b8ff" points="609.53,-403.7 599.94,-408.19 610.24,-410.66 609.53,-403.7"/>
</a>
</g>
</g>
<!-- Node17 -->
<g id="Node000017" class="node">
<title>Node17</title>
<g id="a_Node000017"><a xlink:href="../../db/d15/class_a_e_file_writer.html#a0c238267ee45ca15672d4e9246cdca2c" target="_top" xlink:title="Flushes the opened file.">
<polygon fill="white" stroke="#666666" points="784.62,-200 671.12,-200 671.12,-180 784.62,-180 784.62,-200"/>
<text text-anchor="middle" x="727.88" y="-186.5" font-family="Helvetica,sans-Serif" font-size="10.00">AEFileWriter::flushFile</text>
</a>
</g>
</g>
<!-- Node16&#45;&gt;Node17 -->
<g id="edge19_Node000016_Node000017" class="edge">
<title>Node16&#45;&gt;Node17</title>
<g id="a_edge19_Node000016_Node000017"><a xlink:title=" ">
<path fill="none" stroke="#63b8ff" d="M614.85,-198.55C629.46,-197.43 644.79,-196.26 659.26,-195.16"/>
<polygon fill="#63b8ff" stroke="#63b8ff" points="659.44,-198.66 669.14,-194.4 658.9,-191.68 659.44,-198.66"/>
</a>
</g>
</g>
<!-- Node18 -->
<g id="Node000018" class="node">
<title>Node18</title>
<g id="a_Node000018"><a xlink:href="../../da/dea/struct_a_e_log_entry.html#ab803ea47d06098feab470f265498f617" target="_top" xlink:title="Formats the passed entry to the given c&#45;string.">
<polygon fill="white" stroke="#666666" points="790.25,-39 665.5,-39 665.5,-19 790.25,-19 790.25,-39"/>
<text text-anchor="middle" x="727.88" y="-25.5" font-family="Helvetica,sans-Serif" font-size="10.00">AELogEntry::formatEntry</text>
</a>
</g>
</g>
<!-- Node16&#45;&gt;Node18 -->
<g id="edge20_Node000016_Node000018" class="edge">
<title>Node16&#45;&gt;Node18</title>
<g id="a_edge20_Node000016_Node000018"><a xlink:title=" ">
<path fill="none" stroke="#63b8ff" d="M557.93,-193.6C572.78,-182.69 596.19,-164.71 614.5,-147 632.17,-129.9 633.77,-123.02 650.5,-105 669.51,-84.53 692.33,-62.08 708.05,-46.92"/>
<polygon fill="#63b8ff" stroke="#63b8ff" points="710.09,-49.81 714.89,-40.36 705.25,-44.76 710.09,-49.81"/>
</a>
</g>
</g>
<!-- Node21 -->
<g id="Node000021" class="node">
<title>Node21</title>
<g id="a_Node000021"><a xlink:href="../../db/d15/class_a_e_file_writer.html#a01d537821c5760615e126f1c159b67da" target="_top" xlink:title="Write binary data, as is, to file, and flush if necessary.">
<polygon fill="white" stroke="#666666" points="795.12,-134 660.62,-134 660.62,-114 795.12,-114 795.12,-134"/>
<text text-anchor="middle" x="727.88" y="-120.5" font-family="Helvetica,sans-Serif" font-size="10.00">AEFileWriter::writeData_ptr</text>
</a>
</g>
</g>
<!-- Node16&#45;&gt;Node21 -->
<g id="edge23_Node000016_Node000021" class="edge">
<title>Node16&#45;&gt;Node21</title>
<g id="a_edge23_Node000016_Node000021"><a xlink:title=" ">
<path fill="none" stroke="#63b8ff" d="M567.36,-193.54C599.37,-179.59 656.24,-154.79 692.72,-138.89"/>
<polygon fill="#63b8ff" stroke="#63b8ff" points="693.72,-142.27 701.49,-135.07 690.93,-135.85 693.72,-142.27"/>
</a>
</g>
</g>
<!-- Node19 -->
<g id="Node000019" class="node">
<title>Node19</title>
<g id="a_Node000019"><a xlink:href="../../de/dde/namespaceace_1_1utils.html#a2458b79e1a70255b471414a4bb5680ce" target="_top" xlink:title="Formats the current **(c)time point as YYYY&#45;MM&#45;DD.HH:mm:SS string**.">
<polygon fill="white" stroke="#666666" points="960.38,-20 851.38,-20 851.38,0 960.38,0 960.38,-20"/>
<text text-anchor="middle" x="905.88" y="-6.5" font-family="Helvetica,sans-Serif" font-size="10.00">ace::utils::formatDate</text>
</a>
</g>
</g>
<!-- Node18&#45;&gt;Node19 -->
<g id="edge21_Node000018_Node000019" class="edge">
<title>Node18&#45;&gt;Node19</title>
<g id="a_edge21_Node000018_Node000019"><a xlink:title=" ">
<path fill="none" stroke="#63b8ff" d="M790.43,-22.35C806.46,-20.62 823.78,-18.75 839.97,-17.01"/>
<polygon fill="#63b8ff" stroke="#63b8ff" points="839.9,-20.53 849.47,-15.98 839.15,-13.57 839.9,-20.53"/>
</a>
</g>
</g>
<!-- Node20 -->
<g id="Node000020" class="node">
<title>Node20</title>
<g id="a_Node000020"><a xlink:href="../../da/dea/struct_a_e_log_entry.html#a958d25c57a94cfae8e7f31843e6c63ef" target="_top" xlink:title="Deduces the entry&#39;s log type and returns a c&#45;string of it.">
<polygon fill="white" stroke="#666666" points="970.5,-58 841.25,-58 841.25,-38 970.5,-38 970.5,-58"/>
<text text-anchor="middle" x="905.88" y="-44.5" font-family="Helvetica,sans-Serif" font-size="10.00">AELogEntry::typeToString</text>
</a>
</g>
</g>
<!-- Node18&#45;&gt;Node20 -->
<g id="edge22_Node000018_Node000020" class="edge">
<title>Node18&#45;&gt;Node20</title>
<g id="a_edge22_Node000018_Node000020"><a xlink:title=" ">
<path fill="none" stroke="#63b8ff" d="M790.43,-35.65C803.08,-37.01 816.54,-38.46 829.61,-39.87"/>
<polygon fill="#63b8ff" stroke="#63b8ff" points="829.14,-43.34 839.46,-40.94 829.89,-36.39 829.14,-43.34"/>
</a>
</g>
</g>
<!-- Node22&#45;&gt;Node9 -->
<g id="edge31_Node000022_Node000009" class="edge">
<title>Node22&#45;&gt;Node9</title>
<g id="a_edge31_Node000022_Node000009"><a xlink:title=" ">
<path fill="none" stroke="#63b8ff" d="M390.03,-176.49C403.76,-181.93 420.22,-189.09 434.25,-197 451.44,-206.7 452.49,-214.39 470.25,-223 487.02,-231.13 584.07,-257.87 653.88,-276.62"/>
<polygon fill="#63b8ff" stroke="#63b8ff" points="652.8,-279.96 663.37,-279.17 654.61,-273.2 652.8,-279.96"/>
</a>
</g>
</g>
<!-- Node22&#45;&gt;Node10 -->
<g id="edge34_Node000022_Node000010" class="edge">
<title>Node22&#45;&gt;Node10</title>
<g id="a_edge34_Node000022_Node000010"><a xlink:title=" ">
<path fill="none" stroke="#63b8ff" d="M368.99,-176.44C396.59,-213.67 490.46,-340.32 526.82,-389.37"/>
<polygon fill="#63b8ff" stroke="#63b8ff" points="524,-391.43 532.76,-397.38 529.62,-387.26 524,-391.43"/>
</a>
</g>
</g>
<!-- Node22&#45;&gt;Node16 -->
<g id="edge35_Node000022_Node000016" class="edge">
<title>Node22&#45;&gt;Node16</title>
<g id="a_edge35_Node000022_Node000016"><a xlink:title=" ">
<path fill="none" stroke="#63b8ff" d="M410.95,-176.48C432.5,-181.03 457.95,-186.4 480.62,-191.18"/>
<polygon fill="#63b8ff" stroke="#63b8ff" points="479.85,-194.6 490.36,-193.24 481.3,-187.75 479.85,-194.6"/>
</a>
</g>
</g>
<!-- Node22&#45;&gt;Node17 -->
<g id="edge29_Node000022_Node000017" class="edge">
<title>Node22&#45;&gt;Node17</title>
<g id="a_edge29_Node000022_Node000017"><a xlink:title=" ">
<path fill="none" stroke="#63b8ff" d="M427.04,-170.32C492.83,-174.64 593.5,-181.25 659.75,-185.59"/>
<polygon fill="#63b8ff" stroke="#63b8ff" points="659.18,-189.06 669.38,-186.23 659.63,-182.08 659.18,-189.06"/>
</a>
</g>
</g>
<!-- Node22&#45;&gt;Node18 -->
<g id="edge30_Node000022_Node000018" class="edge">
<title>Node22&#45;&gt;Node18</title>
<g id="a_edge30_Node000022_Node000018"><a xlink:title=" ">
<path fill="none" stroke="#63b8ff" d="M365.76,-155.82C378.04,-129.57 414.87,-59.75 470.25,-33 533.18,-2.61 615.33,-7.95 669.52,-16.66"/>
<polygon fill="#63b8ff" stroke="#63b8ff" points="668.71,-20.07 679.15,-18.3 669.89,-13.17 668.71,-20.07"/>
</a>
</g>
</g>
<!-- Node22&#45;&gt;Node21 -->
<g id="edge33_Node000022_Node000021" class="edge">
<title>Node22&#45;&gt;Node21</title>
<g id="a_edge33_Node000022_Node000021"><a xlink:title=" ">
<path fill="none" stroke="#63b8ff" d="M375.5,-155.64C395.49,-141.81 433.54,-118.02 470.25,-109 538.08,-92.33 618.9,-101.65 671.46,-111.41"/>
<polygon fill="#63b8ff" stroke="#63b8ff" points="670.59,-114.81 681.08,-113.27 671.92,-107.94 670.59,-114.81"/>
</a>
</g>
</g>
<!-- Node23 -->
<g id="Node000023" class="node">
<title>Node23</title>
<g id="a_Node000023"><a xlink:href="../../da/dea/struct_a_e_log_entry.html#a58aeadbca0c2c0863b534a52d40d22a8" target="_top" xlink:title="Clears the current entry and sets its values to zero/invalid.">
<polygon fill="white" stroke="#666666" points="601.75,-62 483,-62 483,-42 601.75,-42 601.75,-62"/>
<text text-anchor="middle" x="542.38" y="-48.5" font-family="Helvetica,sans-Serif" font-size="10.00">AELogEntry::clearEntry</text>
</a>
</g>
</g>
<!-- Node22&#45;&gt;Node23 -->
<g id="edge28_Node000022_Node000023" class="edge">
<title>Node22&#45;&gt;Node23</title>
<g id="a_edge28_Node000022_Node000023"><a xlink:title=" ">
<path fill="none" stroke="#63b8ff" d="M371.12,-155.66C389.2,-137.27 429.51,-98.67 470.25,-76 476.75,-72.38 483.89,-69.18 491.07,-66.4"/>
<polygon fill="#63b8ff" stroke="#63b8ff" points="492.25,-69.69 500.47,-63 489.88,-63.1 492.25,-69.69"/>
</a>
</g>
</g>
<!-- Node24 -->
<g id="Node000024" class="node">
<title>Node24</title>
<g id="a_Node000024"><a xlink:href="../../de/dde/namespaceace_1_1utils.html#ae3cab8babc7164fe97d71c65b247e848" target="_top" xlink:title="Convenient sleep function to sleep the thread for microseconds.">
<polygon fill="white" stroke="#666666" points="591.62,-138 493.12,-138 493.12,-118 591.62,-118 591.62,-138"/>
<text text-anchor="middle" x="542.38" y="-124.5" font-family="Helvetica,sans-Serif" font-size="10.00">ace::utils::sleepUS</text>
</a>
</g>
</g>
<!-- Node22&#45;&gt;Node24 -->
<g id="edge32_Node000022_Node000024" class="edge">
<title>Node22&#45;&gt;Node24</title>
<g id="a_edge32_Node000022_Node000024"><a xlink:title=" ">
<path fill="none" stroke="#63b8ff" d="M410.95,-155.52C432.87,-150.89 458.82,-145.42 481.78,-140.57"/>
<polygon fill="#63b8ff" stroke="#63b8ff" points="482.23,-144.05 491.29,-138.57 480.79,-137.21 482.23,-144.05"/>
</a>
</g>
</g>
</g>
</svg>

<g id="navigator" transform="translate(0 0)" fill="#404254">
  <rect fill="#f2f5e9" fill-opacity="0.5" stroke="#606060" stroke-width=".5" x="0" y="0" width="60" height="60"/>
  <use id="zoomplus" xlink:href="#zoomPlus" x="17" y="9" onmousedown="handleZoom(evt,'in')"/>
  <use id="zoomminus" xlink:href="#zoomMin" x="42" y="9" onmousedown="handleZoom(evt,'out')"/>
  <use id="reset" xlink:href="#resetDef" x="30" y="36" onmousedown="handleReset()"/>
   <use id="arrowup" xlink:href="#arrowUp" x="0" y="0" onmousedown="handlePan(0,-1)"/>
  <use id="arrowright" xlink:href="#arrowRight" x="0" y="0" onmousedown="handlePan(1,0)"/>
  <use id="arrowdown" xlink:href="#arrowDown" x="0" y="0" onmousedown="handlePan(0,1)"/>
  <use id="arrowleft" xlink:href="#arrowLeft" x="0" y="0" onmousedown="handlePan(-1,0)"/>
</g>
<svg viewBox="0 0 15 15" width="100%" height="30px" preserveAspectRatio="xMaxYMin meet">
 <g id="arrow_out" transform="scale(0.3 0.3)">
  <a xlink:href="class_a_e_logger_a284034896688215f7e87242764c5985d_cgraph_org.svg" target="_base">
   <rect id="button" ry="5" rx="5" y="6" x="6" height="38" width="38"
        fill="#f2f5e9" fill-opacity="0.5" stroke="#606060" stroke-width="1.0"/>
   <path id="arrow"
     d="M 11.500037,31.436501 C 11.940474,20.09759 22.043105,11.32322 32.158766,21.979434 L 37.068811,17.246167 C 37.068811,17.246167 37.088388,32 37.088388,32 L 22.160133,31.978069 C 22.160133,31.978069 26.997745,27.140456 26.997745,27.140456 C 18.528582,18.264221 13.291696,25.230495 11.500037,31.436501 z"
     style="fill:#404040;"/>
  </a>
 </g>
</svg>

<style type='text/css'>
<![CDATA[
[data-mouse-over-selected='false'] { opacity: 0.7; }
[data-mouse-over-selected='true']  { opacity: 1.0; }
]]>
</style>
<script type="application/ecmascript"><![CDATA[
document.addEventListener('DOMContentLoaded', (event) => {
  highlightEdges();
  highlightAdjacentNodes();
});
]]></script>
</svg>
