<?xml version="1.0" encoding="UTF-8" standalone="no"?>
<!DOCTYPE svg PUBLIC "-//W3C//DTD SVG 1.1//EN"
 "http://www.w3.org/Graphics/SVG/1.1/DTD/svg11.dtd">
<!-- Generated by graphviz version 10.0.1 (20240210.2158)
 -->
<!-- Title: AELogger::writeToLog Pages: 1 -->
<svg width="753pt" height="268pt"
 viewBox="0.00 0.00 752.50 268.00" xmlns="http://www.w3.org/2000/svg" xmlns:xlink="http://www.w3.org/1999/xlink">
<g id="graph0" class="graph" transform="scale(1 1) rotate(0) translate(4 264)">
<title>AELogger::writeToLog</title>
<!-- Node1 -->
<g id="Node000001" class="node">
<title>Node1</title>
<g id="a_Node000001"><a xlink:title="Request a log entry to be written to the opened log file, using data from a log entry type.">
<polygon fill="#999999" stroke="#666666" points="111.25,-115 0,-115 0,-95 111.25,-95 111.25,-115"/>
<text text-anchor="middle" x="55.62" y="-101.5" font-family="Helvetica,sans-Serif" font-size="10.00">AELogger::writeToLog</text>
</a>
</g>
</g>
<!-- Node2 -->
<g id="Node000002" class="node">
<title>Node2</title>
<g id="a_Node000002"><a xlink:href="../../d8/dfc/class_a_e_logger.html#ac533941173224cb21fe09326726ce754" target="_top" xlink:title="Request a log entry to be written to the opened log file.">
<polygon fill="white" stroke="#666666" points="258.5,-115 147.25,-115 147.25,-95 258.5,-95 258.5,-115"/>
<text text-anchor="middle" x="202.88" y="-101.5" font-family="Helvetica,sans-Serif" font-size="10.00">AELogger::writeToLog</text>
</a>
</g>
</g>
<!-- Node1&#45;&gt;Node2 -->
<g id="edge1_Node000001_Node000002" class="edge">
<title>Node1&#45;&gt;Node2</title>
<g id="a_edge1_Node000001_Node000002"><a xlink:title=" ">
<path fill="none" stroke="#63b8ff" d="M111.54,-105C119.4,-105 127.56,-105 135.61,-105"/>
<polygon fill="#63b8ff" stroke="#63b8ff" points="135.37,-108.5 145.37,-105 135.37,-101.5 135.37,-108.5"/>
</a>
</g>
</g>
<!-- Node3 -->
<g id="Node000003" class="node">
<title>Node3</title>
<g id="a_Node000003"><a xlink:href="../../d0/d8a/class_____a_e_module_base.html#a625c82f27195de3f9ab5af4fc7437e2f" target="_top" xlink:title="Get the name of the module">
<polygon fill="white" stroke="#666666" points="449.25,-260 294.5,-260 294.5,-228 449.25,-228 449.25,-260"/>
<text text-anchor="start" x="302.5" y="-246.5" font-family="Helvetica,sans-Serif" font-size="10.00">__AEModuleBase&lt; AELogger &gt;</text>
<text text-anchor="middle" x="371.88" y="-234.5" font-family="Helvetica,sans-Serif" font-size="10.00">::getModuleName</text>
</a>
</g>
</g>
<!-- Node2&#45;&gt;Node3 -->
<g id="edge2_Node000002_Node000003" class="edge">
<title>Node2&#45;&gt;Node3</title>
<g id="a_edge2_Node000002_Node000003"><a xlink:title=" ">
<path fill="none" stroke="#63b8ff" d="M209.21,-115.17C221.35,-137.32 253.2,-190.27 294.5,-219 296.26,-220.22 298.09,-221.39 299.96,-222.51"/>
<polygon fill="#63b8ff" stroke="#63b8ff" points="297.87,-225.36 308.35,-226.92 301.13,-219.17 297.87,-225.36"/>
</a>
</g>
</g>
<!-- Node4 -->
<g id="Node000004" class="node">
<title>Node4</title>
<g id="a_Node000004"><a xlink:href="../../de/dde/namespaceace_1_1utils.html#ac3eadc5f289b54059322023f3c5eed96" target="_top" xlink:title="Checks if the passed string is alpha&#45;numeric with underscores (contains only numbers,...">
<polygon fill="white" stroke="#666666" points="427.12,-210 316.62,-210 316.62,-190 427.12,-190 427.12,-210"/>
<text text-anchor="middle" x="371.88" y="-196.5" font-family="Helvetica,sans-Serif" font-size="10.00">ace::utils::isAlNumUs</text>
</a>
</g>
</g>
<!-- Node2&#45;&gt;Node4 -->
<g id="edge3_Node000002_Node000004" class="edge">
<title>Node2&#45;&gt;Node4</title>
<g id="a_edge3_Node000002_Node000004"><a xlink:title=" ">
<path fill="none" stroke="#63b8ff" d="M213.11,-115.32C228.39,-131.75 260.65,-163.77 294.5,-181 298.02,-182.79 301.71,-184.42 305.5,-185.9"/>
<polygon fill="#63b8ff" stroke="#63b8ff" points="304.33,-189.2 314.92,-189.19 306.63,-182.59 304.33,-189.2"/>
</a>
</g>
</g>
<!-- Node5 -->
<g id="Node000005" class="node">
<title>Node5</title>
<g id="a_Node000005"><a xlink:href="../../d8/dfc/class_a_e_logger.html#a4d512bf9f4d0a6a1b6a332b9c99e22ac" target="_top" xlink:title="Checks if a log file isn&#39;t open by this logger.">
<polygon fill="white" stroke="#666666" points="423,-172 320.75,-172 320.75,-152 423,-152 423,-172"/>
<text text-anchor="middle" x="371.88" y="-158.5" font-family="Helvetica,sans-Serif" font-size="10.00">AELogger::isClosed</text>
</a>
</g>
</g>
<!-- Node2&#45;&gt;Node5 -->
<g id="edge4_Node000002_Node000005" class="edge">
<title>Node2&#45;&gt;Node5</title>
<g id="a_edge4_Node000002_Node000005"><a xlink:title=" ">
<path fill="none" stroke="#63b8ff" d="M225.86,-115.34C243.99,-123.59 270.54,-135.05 294.5,-143 300.56,-145.01 306.96,-146.92 313.37,-148.7"/>
<polygon fill="#63b8ff" stroke="#63b8ff" points="312.08,-151.98 322.64,-151.18 313.88,-145.22 312.08,-151.98"/>
</a>
</g>
</g>
<!-- Node8 -->
<g id="Node000008" class="node">
<title>Node8</title>
<g id="a_Node000008"><a xlink:href="../../de/dde/namespaceace_1_1utils.html#a878c53ede8589dbc6a50734c9c4ad4d7" target="_top" xlink:title="Checks if the value is within some range.">
<polygon fill="white" stroke="#666666" points="424.12,-134 319.62,-134 319.62,-114 424.12,-114 424.12,-134"/>
<text text-anchor="middle" x="371.88" y="-120.5" font-family="Helvetica,sans-Serif" font-size="10.00">ace::utils::isInRange</text>
</a>
</g>
</g>
<!-- Node2&#45;&gt;Node8 -->
<g id="edge7_Node000002_Node000008" class="edge">
<title>Node2&#45;&gt;Node8</title>
<g id="a_edge7_Node000002_Node000008"><a xlink:title=" ">
<path fill="none" stroke="#63b8ff" d="M258.56,-111.22C274.4,-113.02 291.82,-115.01 308.12,-116.86"/>
<polygon fill="#63b8ff" stroke="#63b8ff" points="307.35,-120.3 317.69,-117.95 308.15,-113.34 307.35,-120.3"/>
</a>
</g>
</g>
<!-- Node9 -->
<g id="Node000009" class="node">
<title>Node9</title>
<g id="a_Node000009"><a xlink:href="../../da/dea/struct_a_e_log_entry.html#a42447b345f72f22ec655556af2db7c28" target="_top" xlink:title="Allocates the queue of the given size on the heap and returns the pointer to it&#39;s first node.">
<polygon fill="white" stroke="#666666" points="435.38,-96 308.38,-96 308.38,-76 435.38,-76 435.38,-96"/>
<text text-anchor="middle" x="371.88" y="-82.5" font-family="Helvetica,sans-Serif" font-size="10.00">AELogEntry::makeQueue</text>
</a>
</g>
</g>
<!-- Node2&#45;&gt;Node9 -->
<g id="edge8_Node000002_Node000009" class="edge">
<title>Node2&#45;&gt;Node9</title>
<g id="a_edge8_Node000002_Node000009"><a xlink:title=" ">
<path fill="none" stroke="#63b8ff" d="M258.56,-98.78C270.77,-97.39 283.92,-95.89 296.77,-94.43"/>
<polygon fill="#63b8ff" stroke="#63b8ff" points="296.91,-97.94 306.45,-93.33 296.12,-90.98 296.91,-97.94"/>
</a>
</g>
</g>
<!-- Node10 -->
<g id="Node000010" class="node">
<title>Node10</title>
<g id="a_Node000010"><a xlink:href="../../d8/dfc/class_a_e_logger.html#af4bff840ffdcfcb5ecb1251fddbf9690" target="_top" xlink:title="Checks for the given index number and returns the pointer in the queue of log entries.">
<polygon fill="white" stroke="#666666" points="432.75,-58 311,-58 311,-38 432.75,-38 432.75,-58"/>
<text text-anchor="middle" x="371.88" y="-44.5" font-family="Helvetica,sans-Serif" font-size="10.00">AELogger::ptrFromIndex</text>
</a>
</g>
</g>
<!-- Node2&#45;&gt;Node10 -->
<g id="edge9_Node000002_Node000010" class="edge">
<title>Node2&#45;&gt;Node10</title>
<g id="a_edge9_Node000002_Node000010"><a xlink:title=" ">
<path fill="none" stroke="#63b8ff" d="M225.86,-94.66C243.99,-86.41 270.54,-74.95 294.5,-67 300.56,-64.99 306.96,-63.08 313.37,-61.3"/>
<polygon fill="#63b8ff" stroke="#63b8ff" points="313.88,-64.78 322.64,-58.82 312.08,-58.02 313.88,-64.78"/>
</a>
</g>
</g>
<!-- Node11 -->
<g id="Node000011" class="node">
<title>Node11</title>
<g id="a_Node000011"><a xlink:href="../../d8/dfc/class_a_e_logger.html#a50dfd96a74d13471faebd4de499db5bf" target="_top" xlink:title="Request a debug log entry to be written to the opened log file.">
<polygon fill="white" stroke="#666666" points="441.38,-20 302.38,-20 302.38,0 441.38,0 441.38,-20"/>
<text text-anchor="middle" x="371.88" y="-6.5" font-family="Helvetica,sans-Serif" font-size="10.00">AELogger::writeToLogDebug</text>
</a>
</g>
</g>
<!-- Node2&#45;&gt;Node11 -->
<g id="edge10_Node000002_Node000011" class="edge">
<title>Node2&#45;&gt;Node11</title>
<g id="a_edge10_Node000002_Node000011"><a xlink:title=" ">
<path fill="none" stroke="#63b8ff" d="M208.95,-94.77C220.81,-77.41 251.91,-44.53 291.95,-21.89"/>
<polygon fill="#63b8ff" stroke="#63b8ff" points="293.52,-25.02 300.7,-17.23 290.23,-18.84 293.52,-25.02"/>
</a>
</g>
</g>
<!-- Node6 -->
<g id="Node000006" class="node">
<title>Node6</title>
<g id="a_Node000006"><a xlink:href="../../db/d15/class_a_e_file_writer.html#a0743145db01b527ae9612f359e5c0090" target="_top" xlink:title="Checks if a file isn&#39;t open by this file&#45;writer.">
<polygon fill="white" stroke="#666666" points="600.25,-172 485.25,-172 485.25,-152 600.25,-152 600.25,-172"/>
<text text-anchor="middle" x="542.75" y="-158.5" font-family="Helvetica,sans-Serif" font-size="10.00">AEFileWriter::isClosed</text>
</a>
</g>
</g>
<!-- Node5&#45;&gt;Node6 -->
<g id="edge5_Node000005_Node000006" class="edge">
<title>Node5&#45;&gt;Node6</title>
<g id="a_edge5_Node000005_Node000006"><a xlink:title=" ">
<path fill="none" stroke="#63b8ff" d="M423.09,-162C438.89,-162 456.61,-162 473.44,-162"/>
<polygon fill="#63b8ff" stroke="#63b8ff" points="473.41,-165.5 483.41,-162 473.41,-158.5 473.41,-165.5"/>
</a>
</g>
</g>
<!-- Node7 -->
<g id="Node000007" class="node">
<title>Node7</title>
<g id="a_Node000007"><a xlink:href="../../db/d15/class_a_e_file_writer.html#a47e3c08c276394bce7b612331cf4762d" target="_top" xlink:title="Checks if a file is open by this file&#45;writer.">
<polygon fill="white" stroke="#666666" points="744.5,-172 636.25,-172 636.25,-152 744.5,-152 744.5,-172"/>
<text text-anchor="middle" x="690.38" y="-158.5" font-family="Helvetica,sans-Serif" font-size="10.00">AEFileWriter::isOpen</text>
</a>
</g>
</g>
<!-- Node6&#45;&gt;Node7 -->
<g id="edge6_Node000006_Node000007" class="edge">
<title>Node6&#45;&gt;Node7</title>
<g id="a_edge6_Node000006_Node000007"><a xlink:title=" ">
<path fill="none" stroke="#63b8ff" d="M600.47,-162C608.39,-162 616.59,-162 624.65,-162"/>
<polygon fill="#63b8ff" stroke="#63b8ff" points="624.4,-165.5 634.4,-162 624.4,-158.5 624.4,-165.5"/>
</a>
</g>
</g>
<!-- Node11&#45;&gt;Node2 -->
<g id="edge11_Node000011_Node000002" class="edge">
<title>Node11&#45;&gt;Node2</title>
<g id="a_edge11_Node000011_Node000002"><a xlink:title=" ">
<path fill="none" stroke="#63b8ff" d="M348.2,-20.44C332.49,-24.52 311.43,-29.38 294.5,-38 269.26,-50.85 244.9,-71.92 227.81,-87.21"/>
<polygon fill="#63b8ff" stroke="#63b8ff" points="225.8,-84.31 220.69,-93.6 230.47,-89.52 225.8,-84.31"/>
</a>
</g>
</g>
</g>
</svg>
