<?xml version="1.0" encoding="UTF-8" standalone="no"?>
<!DOCTYPE svg PUBLIC "-//W3C//DTD SVG 1.1//EN"
 "http://www.w3.org/Graphics/SVG/1.1/DTD/svg11.dtd">
<!-- Generated by graphviz version 10.0.1 (20240210.2158)
 -->
<!-- Title: AELogger::stopWriter Pages: 1 -->
<svg width="798pt" height="382pt"
 viewBox="0.00 0.00 798.25 382.00" xmlns="http://www.w3.org/2000/svg" xmlns:xlink="http://www.w3.org/1999/xlink">
<g id="graph0" class="graph" transform="scale(1 1) rotate(0) translate(4 378)">
<title>AELogger::stopWriter</title>
<!-- Node1 -->
<g id="Node000001" class="node">
<title>Node1</title>
<g id="a_Node000001"><a xlink:title="Stops the log&#45;writing thread (after flushing the log queue).">
<polygon fill="#999999" stroke="#666666" points="109.75,-229 0,-229 0,-209 109.75,-209 109.75,-229"/>
<text text-anchor="middle" x="54.88" y="-215.5" font-family="Helvetica,sans-Serif" font-size="10.00">AELogger::stopWriter</text>
</a>
</g>
</g>
<!-- Node2 -->
<g id="Node000002" class="node">
<title>Node2</title>
<g id="a_Node000002"><a xlink:href="../../d0/d8a/class_____a_e_module_base.html#a625c82f27195de3f9ab5af4fc7437e2f" target="_top" xlink:title="Get the name of the module">
<polygon fill="white" stroke="#666666" points="480.75,-374 326,-374 326,-342 480.75,-342 480.75,-374"/>
<text text-anchor="start" x="334" y="-360.5" font-family="Helvetica,sans-Serif" font-size="10.00">__AEModuleBase&lt; AELogger &gt;</text>
<text text-anchor="middle" x="403.38" y="-348.5" font-family="Helvetica,sans-Serif" font-size="10.00">::getModuleName</text>
</a>
</g>
</g>
<!-- Node1&#45;&gt;Node2 -->
<g id="edge1_Node000001_Node000002" class="edge">
<title>Node1&#45;&gt;Node2</title>
<g id="a_edge1_Node000001_Node000002"><a xlink:title=" ">
<path fill="none" stroke="#63b8ff" d="M78.74,-229.41C124.96,-250.29 233.03,-298.23 326,-333 330.41,-334.65 334.99,-336.3 339.6,-337.92"/>
<polygon fill="#63b8ff" stroke="#63b8ff" points="338.38,-341.2 348.98,-341.14 340.66,-334.58 338.38,-341.2"/>
</a>
</g>
</g>
<!-- Node3 -->
<g id="Node000003" class="node">
<title>Node3</title>
<g id="a_Node000003"><a xlink:href="../../d8/dfc/class_a_e_logger.html#ac533941173224cb21fe09326726ce754" target="_top" xlink:title="Request a log entry to be written to the opened log file.">
<polygon fill="white" stroke="#666666" points="273.5,-229 162.25,-229 162.25,-209 273.5,-209 273.5,-229"/>
<text text-anchor="middle" x="217.88" y="-215.5" font-family="Helvetica,sans-Serif" font-size="10.00">AELogger::writeToLog</text>
</a>
</g>
</g>
<!-- Node1&#45;&gt;Node3 -->
<g id="edge2_Node000001_Node000003" class="edge">
<title>Node1&#45;&gt;Node3</title>
<g id="a_edge2_Node000001_Node000003"><a xlink:title=" ">
<path fill="none" stroke="#63b8ff" d="M109.93,-219C122.99,-219 137.1,-219 150.65,-219"/>
<polygon fill="#63b8ff" stroke="#63b8ff" points="150.35,-222.5 160.35,-219 150.35,-215.5 150.35,-222.5"/>
</a>
</g>
</g>
<!-- Node12 -->
<g id="Node000012" class="node">
<title>Node12</title>
<g id="a_Node000012"><a xlink:href="../../d8/dfc/class_a_e_logger.html#a54bad71bcfea05c3d17d7ba1bacfec8c" target="_top" xlink:title="Writes to log directly, without thinking of the queue.">
<polygon fill="white" stroke="#666666" points="290,-77 145.75,-77 145.75,-57 290,-57 290,-77"/>
<text text-anchor="middle" x="217.88" y="-63.5" font-family="Helvetica,sans-Serif" font-size="10.00">AELogger::writeToLogDirectly</text>
</a>
</g>
</g>
<!-- Node1&#45;&gt;Node12 -->
<g id="edge13_Node000001_Node000012" class="edge">
<title>Node1&#45;&gt;Node12</title>
<g id="a_edge13_Node000001_Node000012"><a xlink:title=" ">
<path fill="none" stroke="#63b8ff" d="M66.94,-208.55C94.07,-182.94 164.14,-116.79 198,-84.82"/>
<polygon fill="#63b8ff" stroke="#63b8ff" points="200.19,-87.57 205.05,-78.16 195.38,-82.48 200.19,-87.57"/>
</a>
</g>
</g>
<!-- Node3&#45;&gt;Node2 -->
<g id="edge3_Node000003_Node000002" class="edge">
<title>Node3&#45;&gt;Node2</title>
<g id="a_edge3_Node000003_Node000002"><a xlink:title=" ">
<path fill="none" stroke="#63b8ff" d="M229.11,-229.44C243.03,-243.67 268.64,-270.04 290,-293 306.29,-310.51 305.96,-319.95 326,-333 327.84,-334.2 329.75,-335.35 331.7,-336.44"/>
<polygon fill="#63b8ff" stroke="#63b8ff" points="329.93,-339.47 340.43,-340.82 333.06,-333.21 329.93,-339.47"/>
</a>
</g>
</g>
<!-- Node4 -->
<g id="Node000004" class="node">
<title>Node4</title>
<g id="a_Node000004"><a xlink:href="../../de/dde/namespaceace_1_1utils.html#ac3eadc5f289b54059322023f3c5eed96" target="_top" xlink:title="Checks if the passed string is alpha&#45;numeric with underscores (contains only numbers,...">
<polygon fill="white" stroke="#666666" points="458.62,-324 348.12,-324 348.12,-304 458.62,-304 458.62,-324"/>
<text text-anchor="middle" x="403.38" y="-310.5" font-family="Helvetica,sans-Serif" font-size="10.00">ace::utils::isAlNumUs</text>
</a>
</g>
</g>
<!-- Node3&#45;&gt;Node4 -->
<g id="edge4_Node000003_Node000004" class="edge">
<title>Node3&#45;&gt;Node4</title>
<g id="a_edge4_Node000003_Node000004"><a xlink:title=" ">
<path fill="none" stroke="#63b8ff" d="M230.48,-229.5C249.21,-245.89 287.87,-277.49 326,-295 330.01,-296.84 334.22,-298.52 338.51,-300.04"/>
<polygon fill="#63b8ff" stroke="#63b8ff" points="337.28,-303.32 347.88,-303.07 339.44,-296.66 337.28,-303.32"/>
</a>
</g>
</g>
<!-- Node5 -->
<g id="Node000005" class="node">
<title>Node5</title>
<g id="a_Node000005"><a xlink:href="../../d8/dfc/class_a_e_logger.html#a4d512bf9f4d0a6a1b6a332b9c99e22ac" target="_top" xlink:title="Checks if a log file isn&#39;t open by this logger.">
<polygon fill="white" stroke="#666666" points="454.5,-286 352.25,-286 352.25,-266 454.5,-266 454.5,-286"/>
<text text-anchor="middle" x="403.38" y="-272.5" font-family="Helvetica,sans-Serif" font-size="10.00">AELogger::isClosed</text>
</a>
</g>
</g>
<!-- Node3&#45;&gt;Node5 -->
<g id="edge5_Node000003_Node000005" class="edge">
<title>Node3&#45;&gt;Node5</title>
<g id="a_edge5_Node000003_Node000005"><a xlink:title=" ">
<path fill="none" stroke="#63b8ff" d="M245.93,-229.42C267.45,-237.5 298.41,-248.7 326,-257 332.61,-258.99 339.59,-260.93 346.53,-262.77"/>
<polygon fill="#63b8ff" stroke="#63b8ff" points="345.33,-266.08 355.88,-265.19 347.08,-259.3 345.33,-266.08"/>
</a>
</g>
</g>
<!-- Node8 -->
<g id="Node000008" class="node">
<title>Node8</title>
<g id="a_Node000008"><a xlink:href="../../de/dde/namespaceace_1_1utils.html#a878c53ede8589dbc6a50734c9c4ad4d7" target="_top" xlink:title="Checks if the value is within some range.">
<polygon fill="white" stroke="#666666" points="455.62,-248 351.12,-248 351.12,-228 455.62,-228 455.62,-248"/>
<text text-anchor="middle" x="403.38" y="-234.5" font-family="Helvetica,sans-Serif" font-size="10.00">ace::utils::isInRange</text>
</a>
</g>
</g>
<!-- Node3&#45;&gt;Node8 -->
<g id="edge8_Node000003_Node000008" class="edge">
<title>Node3&#45;&gt;Node8</title>
<g id="a_edge8_Node000003_Node000008"><a xlink:title=" ">
<path fill="none" stroke="#63b8ff" d="M273.93,-224.7C294.6,-226.84 318.25,-229.29 339.57,-231.5"/>
<polygon fill="#63b8ff" stroke="#63b8ff" points="339,-234.96 349.31,-232.51 339.72,-227.99 339,-234.96"/>
</a>
</g>
</g>
<!-- Node9 -->
<g id="Node000009" class="node">
<title>Node9</title>
<g id="a_Node000009"><a xlink:href="../../da/dea/struct_a_e_log_entry.html#a42447b345f72f22ec655556af2db7c28" target="_top" xlink:title="Allocates the queue of the given size on the heap and returns the pointer to it&#39;s first node.">
<polygon fill="white" stroke="#666666" points="466.88,-210 339.88,-210 339.88,-190 466.88,-190 466.88,-210"/>
<text text-anchor="middle" x="403.38" y="-196.5" font-family="Helvetica,sans-Serif" font-size="10.00">AELogEntry::makeQueue</text>
</a>
</g>
</g>
<!-- Node3&#45;&gt;Node9 -->
<g id="edge9_Node000003_Node000009" class="edge">
<title>Node3&#45;&gt;Node9</title>
<g id="a_edge9_Node000003_Node000009"><a xlink:title=" ">
<path fill="none" stroke="#63b8ff" d="M273.93,-213.3C290.99,-211.53 310.06,-209.56 328.19,-207.68"/>
<polygon fill="#63b8ff" stroke="#63b8ff" points="328.54,-211.16 338.13,-206.65 327.82,-204.2 328.54,-211.16"/>
</a>
</g>
</g>
<!-- Node10 -->
<g id="Node000010" class="node">
<title>Node10</title>
<g id="a_Node000010"><a xlink:href="../../d8/dfc/class_a_e_logger.html#af4bff840ffdcfcb5ecb1251fddbf9690" target="_top" xlink:title="Checks for the given index number and returns the pointer in the queue of log entries.">
<polygon fill="white" stroke="#666666" points="464.25,-172 342.5,-172 342.5,-152 464.25,-152 464.25,-172"/>
<text text-anchor="middle" x="403.38" y="-158.5" font-family="Helvetica,sans-Serif" font-size="10.00">AELogger::ptrFromIndex</text>
</a>
</g>
</g>
<!-- Node3&#45;&gt;Node10 -->
<g id="edge10_Node000003_Node000010" class="edge">
<title>Node3&#45;&gt;Node10</title>
<g id="a_edge10_Node000003_Node000010"><a xlink:title=" ">
<path fill="none" stroke="#63b8ff" d="M245.93,-208.58C267.45,-200.5 298.41,-189.3 326,-181 332.61,-179.01 339.59,-177.07 346.53,-175.23"/>
<polygon fill="#63b8ff" stroke="#63b8ff" points="347.08,-178.7 355.88,-172.81 345.33,-171.92 347.08,-178.7"/>
</a>
</g>
</g>
<!-- Node11 -->
<g id="Node000011" class="node">
<title>Node11</title>
<g id="a_Node000011"><a xlink:href="../../d8/dfc/class_a_e_logger.html#a50dfd96a74d13471faebd4de499db5bf" target="_top" xlink:title="Request a debug log entry to be written to the opened log file.">
<polygon fill="white" stroke="#666666" points="472.88,-134 333.88,-134 333.88,-114 472.88,-114 472.88,-134"/>
<text text-anchor="middle" x="403.38" y="-120.5" font-family="Helvetica,sans-Serif" font-size="10.00">AELogger::writeToLogDebug</text>
</a>
</g>
</g>
<!-- Node3&#45;&gt;Node11 -->
<g id="edge11_Node000003_Node000011" class="edge">
<title>Node3&#45;&gt;Node11</title>
<g id="a_edge11_Node000003_Node000011"><a xlink:title=" ">
<path fill="none" stroke="#63b8ff" d="M225.34,-208.55C240.1,-191.11 278.06,-158.36 323.28,-135.72"/>
<polygon fill="#63b8ff" stroke="#63b8ff" points="324.77,-138.88 332.29,-131.42 321.76,-132.57 324.77,-138.88"/>
</a>
</g>
</g>
<!-- Node6 -->
<g id="Node000006" class="node">
<title>Node6</title>
<g id="a_Node000006"><a xlink:href="../../db/d15/class_a_e_file_writer.html#a0743145db01b527ae9612f359e5c0090" target="_top" xlink:title="Checks if a file isn&#39;t open by this file&#45;writer.">
<polygon fill="white" stroke="#666666" points="638.88,-286 523.88,-286 523.88,-266 638.88,-266 638.88,-286"/>
<text text-anchor="middle" x="581.38" y="-272.5" font-family="Helvetica,sans-Serif" font-size="10.00">AEFileWriter::isClosed</text>
</a>
</g>
</g>
<!-- Node5&#45;&gt;Node6 -->
<g id="edge6_Node000005_Node000006" class="edge">
<title>Node5&#45;&gt;Node6</title>
<g id="a_edge6_Node000005_Node000006"><a xlink:title=" ">
<path fill="none" stroke="#63b8ff" d="M454.81,-276C472.64,-276 493.01,-276 512.07,-276"/>
<polygon fill="#63b8ff" stroke="#63b8ff" points="511.92,-279.5 521.92,-276 511.92,-272.5 511.92,-279.5"/>
</a>
</g>
</g>
<!-- Node7 -->
<g id="Node000007" class="node">
<title>Node7</title>
<g id="a_Node000007"><a xlink:href="../../db/d15/class_a_e_file_writer.html#a47e3c08c276394bce7b612331cf4762d" target="_top" xlink:title="Checks if a file is open by this file&#45;writer.">
<polygon fill="white" stroke="#666666" points="790.25,-286 682,-286 682,-266 790.25,-266 790.25,-286"/>
<text text-anchor="middle" x="736.12" y="-272.5" font-family="Helvetica,sans-Serif" font-size="10.00">AEFileWriter::isOpen</text>
</a>
</g>
</g>
<!-- Node6&#45;&gt;Node7 -->
<g id="edge7_Node000006_Node000007" class="edge">
<title>Node6&#45;&gt;Node7</title>
<g id="a_edge7_Node000006_Node000007"><a xlink:title=" ">
<path fill="none" stroke="#63b8ff" d="M639.25,-276C649.36,-276 659.96,-276 670.26,-276"/>
<polygon fill="#63b8ff" stroke="#63b8ff" points="670.23,-279.5 680.23,-276 670.23,-272.5 670.23,-279.5"/>
</a>
</g>
</g>
<!-- Node11&#45;&gt;Node3 -->
<g id="edge12_Node000011_Node000003" class="edge">
<title>Node11&#45;&gt;Node3</title>
<g id="a_edge12_Node000011_Node000003"><a xlink:title=" ">
<path fill="none" stroke="#63b8ff" d="M381.58,-134.41C365.81,-138.8 343.88,-143.79 326,-152 297.02,-165.31 267.73,-186.76 247.12,-202.01"/>
<polygon fill="#63b8ff" stroke="#63b8ff" points="245.2,-199.08 239.24,-207.84 249.36,-204.71 245.2,-199.08"/>
</a>
</g>
</g>
<!-- Node13 -->
<g id="Node000013" class="node">
<title>Node13</title>
<g id="a_Node000013"><a xlink:href="../../db/d15/class_a_e_file_writer.html#a0c238267ee45ca15672d4e9246cdca2c" target="_top" xlink:title="Flushes the opened file.">
<polygon fill="white" stroke="#666666" points="460.12,-96 346.62,-96 346.62,-76 460.12,-76 460.12,-96"/>
<text text-anchor="middle" x="403.38" y="-82.5" font-family="Helvetica,sans-Serif" font-size="10.00">AEFileWriter::flushFile</text>
</a>
</g>
</g>
<!-- Node12&#45;&gt;Node13 -->
<g id="edge14_Node000012_Node000013" class="edge">
<title>Node12&#45;&gt;Node13</title>
<g id="a_edge14_Node000012_Node000013"><a xlink:title=" ">
<path fill="none" stroke="#63b8ff" d="M290.35,-74.4C304.96,-75.91 320.29,-77.5 334.76,-79"/>
<polygon fill="#63b8ff" stroke="#63b8ff" points="334.34,-82.47 344.64,-80.02 335.06,-75.51 334.34,-82.47"/>
</a>
</g>
</g>
<!-- Node14 -->
<g id="Node000014" class="node">
<title>Node14</title>
<g id="a_Node000014"><a xlink:href="../../da/dea/struct_a_e_log_entry.html#ab803ea47d06098feab470f265498f617" target="_top" xlink:title="Formats the passed entry to the given c&#45;string.">
<polygon fill="white" stroke="#666666" points="465.75,-58 341,-58 341,-38 465.75,-38 465.75,-58"/>
<text text-anchor="middle" x="403.38" y="-44.5" font-family="Helvetica,sans-Serif" font-size="10.00">AELogEntry::formatEntry</text>
</a>
</g>
</g>
<!-- Node12&#45;&gt;Node14 -->
<g id="edge15_Node000012_Node000014" class="edge">
<title>Node12&#45;&gt;Node14</title>
<g id="a_edge15_Node000012_Node000014"><a xlink:title=" ">
<path fill="none" stroke="#63b8ff" d="M290.35,-59.6C303.19,-58.27 316.59,-56.88 329.47,-55.55"/>
<polygon fill="#63b8ff" stroke="#63b8ff" points="329.54,-59.06 339.13,-54.55 328.82,-52.1 329.54,-59.06"/>
</a>
</g>
</g>
<!-- Node17 -->
<g id="Node000017" class="node">
<title>Node17</title>
<g id="a_Node000017"><a xlink:href="../../db/d15/class_a_e_file_writer.html#a01d537821c5760615e126f1c159b67da" target="_top" xlink:title="Write binary data, as is, to file, and flush if necessary.">
<polygon fill="white" stroke="#666666" points="470.62,-20 336.12,-20 336.12,0 470.62,0 470.62,-20"/>
<text text-anchor="middle" x="403.38" y="-6.5" font-family="Helvetica,sans-Serif" font-size="10.00">AEFileWriter::writeData_ptr</text>
</a>
</g>
</g>
<!-- Node12&#45;&gt;Node17 -->
<g id="edge18_Node000012_Node000017" class="edge">
<title>Node12&#45;&gt;Node17</title>
<g id="a_edge18_Node000012_Node000017"><a xlink:title=" ">
<path fill="none" stroke="#63b8ff" d="M245.93,-56.58C267.45,-48.5 298.41,-37.3 326,-29 332.61,-27.01 339.59,-25.07 346.53,-23.23"/>
<polygon fill="#63b8ff" stroke="#63b8ff" points="347.08,-26.7 355.88,-20.81 345.33,-19.92 347.08,-26.7"/>
</a>
</g>
</g>
<!-- Node15 -->
<g id="Node000015" class="node">
<title>Node15</title>
<g id="a_Node000015"><a xlink:href="../../de/dde/namespaceace_1_1utils.html#a2458b79e1a70255b471414a4bb5680ce" target="_top" xlink:title="Formats the current **(c)time point as YYYY&#45;MM&#45;DD.HH:mm:SS string**.">
<polygon fill="white" stroke="#666666" points="635.88,-77 526.88,-77 526.88,-57 635.88,-57 635.88,-77"/>
<text text-anchor="middle" x="581.38" y="-63.5" font-family="Helvetica,sans-Serif" font-size="10.00">ace::utils::formatDate</text>
</a>
</g>
</g>
<!-- Node14&#45;&gt;Node15 -->
<g id="edge16_Node000014_Node000015" class="edge">
<title>Node14&#45;&gt;Node15</title>
<g id="a_edge16_Node000014_Node000015"><a xlink:title=" ">
<path fill="none" stroke="#63b8ff" d="M465.93,-54.65C481.96,-56.38 499.28,-58.25 515.47,-59.99"/>
<polygon fill="#63b8ff" stroke="#63b8ff" points="514.65,-63.43 524.97,-61.02 515.4,-56.47 514.65,-63.43"/>
</a>
</g>
</g>
<!-- Node16 -->
<g id="Node000016" class="node">
<title>Node16</title>
<g id="a_Node000016"><a xlink:href="../../da/dea/struct_a_e_log_entry.html#a958d25c57a94cfae8e7f31843e6c63ef" target="_top" xlink:title="Deduces the entry&#39;s log type and returns a c&#45;string of it.">
<polygon fill="white" stroke="#666666" points="646,-39 516.75,-39 516.75,-19 646,-19 646,-39"/>
<text text-anchor="middle" x="581.38" y="-25.5" font-family="Helvetica,sans-Serif" font-size="10.00">AELogEntry::typeToString</text>
</a>
</g>
</g>
<!-- Node14&#45;&gt;Node16 -->
<g id="edge17_Node000014_Node000016" class="edge">
<title>Node14&#45;&gt;Node16</title>
<g id="a_edge17_Node000014_Node000016"><a xlink:title=" ">
<path fill="none" stroke="#63b8ff" d="M465.93,-41.35C478.58,-39.99 492.04,-38.54 505.11,-37.13"/>
<polygon fill="#63b8ff" stroke="#63b8ff" points="505.39,-40.61 514.96,-36.06 504.64,-33.66 505.39,-40.61"/>
</a>
</g>
</g>
</g>
</svg>
