<?xml version="1.0" encoding="UTF-8" standalone="no"?>
<!DOCTYPE svg PUBLIC "-//W3C//DTD SVG 1.1//EN"
 "http://www.w3.org/Graphics/SVG/1.1/DTD/svg11.dtd">
<!-- Generated by graphviz version 10.0.1 (20240210.2158)
 -->
<!-- Title: AELogger::writeStatus Pages: 1 -->
<svg width="792pt" height="268pt"
 viewBox="0.00 0.00 791.50 268.00" xmlns="http://www.w3.org/2000/svg" xmlns:xlink="http://www.w3.org/1999/xlink">
<g id="graph0" class="graph" transform="scale(1 1) rotate(0) translate(4 264)">
<title>AELogger::writeStatus</title>
<!-- Node1 -->
<g id="Node000001" class="node">
<title>Node1</title>
<g id="a_Node000001"><a xlink:title="Writes the current status of the file logger instance (file name, and entries written).">
<polygon fill="#999999" stroke="#666666" points="113.5,-134 0,-134 0,-114 113.5,-114 113.5,-134"/>
<text text-anchor="middle" x="56.75" y="-120.5" font-family="Helvetica,sans-Serif" font-size="10.00">AELogger::writeStatus</text>
</a>
</g>
</g>
<!-- Node2 -->
<g id="Node000002" class="node">
<title>Node2</title>
<g id="a_Node000002"><a xlink:href="../../db/d15/class_a_e_file_writer.html#a26ea7c97bfdbed142df1863d8d47d895" target="_top" xlink:title="Returns the full name of currently open file, including the relative path, if such was provided.">
<polygon fill="white" stroke="#666666" points="297.5,-153 149.5,-153 149.5,-133 297.5,-133 297.5,-153"/>
<text text-anchor="middle" x="223.5" y="-139.5" font-family="Helvetica,sans-Serif" font-size="10.00">AEFileWriter::getFullFileName</text>
</a>
</g>
</g>
<!-- Node1&#45;&gt;Node2 -->
<g id="edge1_Node000001_Node000002" class="edge">
<title>Node1&#45;&gt;Node2</title>
<g id="a_edge1_Node000001_Node000002"><a xlink:title=" ">
<path fill="none" stroke="#63b8ff" d="M113.99,-130.49C121.65,-131.37 129.66,-132.29 137.69,-133.22"/>
<polygon fill="#63b8ff" stroke="#63b8ff" points="137.2,-136.69 147.53,-134.35 138,-129.73 137.2,-136.69"/>
</a>
</g>
</g>
<!-- Node3 -->
<g id="Node000003" class="node">
<title>Node3</title>
<g id="a_Node000003"><a xlink:href="../../d8/dfc/class_a_e_logger.html#ac533941173224cb21fe09326726ce754" target="_top" xlink:title="Request a log entry to be written to the opened log file.">
<polygon fill="white" stroke="#666666" points="279.12,-115 167.88,-115 167.88,-95 279.12,-95 279.12,-115"/>
<text text-anchor="middle" x="223.5" y="-101.5" font-family="Helvetica,sans-Serif" font-size="10.00">AELogger::writeToLog</text>
</a>
</g>
</g>
<!-- Node1&#45;&gt;Node3 -->
<g id="edge2_Node000001_Node000003" class="edge">
<title>Node1&#45;&gt;Node3</title>
<g id="a_edge2_Node000001_Node000003"><a xlink:title=" ">
<path fill="none" stroke="#63b8ff" d="M113.99,-117.51C127.67,-115.94 142.42,-114.24 156.51,-112.61"/>
<polygon fill="#63b8ff" stroke="#63b8ff" points="156.59,-116.12 166.13,-111.5 155.79,-109.17 156.59,-116.12"/>
</a>
</g>
</g>
<!-- Node4 -->
<g id="Node000004" class="node">
<title>Node4</title>
<g id="a_Node000004"><a xlink:href="../../d0/d8a/class_____a_e_module_base.html#a625c82f27195de3f9ab5af4fc7437e2f" target="_top" xlink:title="Get the name of the module.">
<polygon fill="white" stroke="#666666" points="488.25,-260 333.5,-260 333.5,-228 488.25,-228 488.25,-260"/>
<text text-anchor="start" x="341.5" y="-246.5" font-family="Helvetica,sans-Serif" font-size="10.00">__AEModuleBase&lt; AELogger &gt;</text>
<text text-anchor="middle" x="410.88" y="-234.5" font-family="Helvetica,sans-Serif" font-size="10.00">::getModuleName</text>
</a>
</g>
</g>
<!-- Node3&#45;&gt;Node4 -->
<g id="edge3_Node000003_Node000004" class="edge">
<title>Node3&#45;&gt;Node4</title>
<g id="a_edge3_Node000003_Node000004"><a xlink:title=" ">
<path fill="none" stroke="#63b8ff" d="M279.3,-113C285.95,-115.7 292.24,-119.28 297.5,-124 331.1,-154.16 300.85,-187.81 333.5,-219 334.25,-219.72 335.02,-220.41 335.81,-221.09"/>
<polygon fill="#63b8ff" stroke="#63b8ff" points="333.52,-223.75 343.69,-226.72 337.59,-218.06 333.52,-223.75"/>
</a>
</g>
</g>
<!-- Node5 -->
<g id="Node000005" class="node">
<title>Node5</title>
<g id="a_Node000005"><a xlink:href="../../de/dde/namespaceace_1_1utils.html#ac3eadc5f289b54059322023f3c5eed96" target="_top" xlink:title="Checks if the passed string is alpha&#45;numeric with underscores (contains only numbers,...">
<polygon fill="white" stroke="#666666" points="466.12,-210 355.62,-210 355.62,-190 466.12,-190 466.12,-210"/>
<text text-anchor="middle" x="410.88" y="-196.5" font-family="Helvetica,sans-Serif" font-size="10.00">ace::utils::isAlNumUs</text>
</a>
</g>
</g>
<!-- Node3&#45;&gt;Node5 -->
<g id="edge4_Node000003_Node000005" class="edge">
<title>Node3&#45;&gt;Node5</title>
<g id="a_edge4_Node000003_Node000005"><a xlink:title=" ">
<path fill="none" stroke="#63b8ff" d="M279.59,-114.46C285.97,-116.93 292.11,-120.06 297.5,-124 321.69,-141.68 309.21,-163.45 333.5,-181 337.07,-183.58 340.96,-185.81 345.02,-187.75"/>
<polygon fill="#63b8ff" stroke="#63b8ff" points="343.42,-190.87 354.01,-191.38 346.05,-184.39 343.42,-190.87"/>
</a>
</g>
</g>
<!-- Node6 -->
<g id="Node000006" class="node">
<title>Node6</title>
<g id="a_Node000006"><a xlink:href="../../d8/dfc/class_a_e_logger.html#a4d512bf9f4d0a6a1b6a332b9c99e22ac" target="_top" xlink:title="Checks if a log file isn&#39;t open by this logger.">
<polygon fill="white" stroke="#666666" points="462,-172 359.75,-172 359.75,-152 462,-152 462,-172"/>
<text text-anchor="middle" x="410.88" y="-158.5" font-family="Helvetica,sans-Serif" font-size="10.00">AELogger::isClosed</text>
</a>
</g>
</g>
<!-- Node3&#45;&gt;Node6 -->
<g id="edge5_Node000003_Node000006" class="edge">
<title>Node3&#45;&gt;Node6</title>
<g id="a_edge5_Node000003_Node000006"><a xlink:title=" ">
<path fill="none" stroke="#63b8ff" d="M271.35,-115.48C280.16,-117.93 289.2,-120.78 297.5,-124 314.37,-130.54 316.6,-136.55 333.5,-143 338.71,-144.99 344.2,-146.83 349.75,-148.51"/>
<polygon fill="#63b8ff" stroke="#63b8ff" points="348.41,-151.77 358.99,-151.15 350.33,-145.04 348.41,-151.77"/>
</a>
</g>
</g>
<!-- Node9 -->
<g id="Node000009" class="node">
<title>Node9</title>
<g id="a_Node000009"><a xlink:href="../../de/dde/namespaceace_1_1utils.html#a878c53ede8589dbc6a50734c9c4ad4d7" target="_top" xlink:title="Checks if the value is within some range.">
<polygon fill="white" stroke="#666666" points="463.12,-134 358.62,-134 358.62,-114 463.12,-114 463.12,-134"/>
<text text-anchor="middle" x="410.88" y="-120.5" font-family="Helvetica,sans-Serif" font-size="10.00">ace::utils::isInRange</text>
</a>
</g>
</g>
<!-- Node3&#45;&gt;Node9 -->
<g id="edge8_Node000003_Node000009" class="edge">
<title>Node3&#45;&gt;Node9</title>
<g id="a_edge8_Node000003_Node000009"><a xlink:title=" ">
<path fill="none" stroke="#63b8ff" d="M279.62,-110.65C300.79,-112.82 325.12,-115.31 346.97,-117.55"/>
<polygon fill="#63b8ff" stroke="#63b8ff" points="346.33,-121.01 356.64,-118.54 347.05,-114.04 346.33,-121.01"/>
</a>
</g>
</g>
<!-- Node10 -->
<g id="Node000010" class="node">
<title>Node10</title>
<g id="a_Node000010"><a xlink:href="../../da/dea/struct_a_e_log_entry.html#a42447b345f72f22ec655556af2db7c28" target="_top" xlink:title="Allocates the queue of the given size on the heap and returns the pointer to it&#39;s first node.">
<polygon fill="white" stroke="#666666" points="474.38,-96 347.38,-96 347.38,-76 474.38,-76 474.38,-96"/>
<text text-anchor="middle" x="410.88" y="-82.5" font-family="Helvetica,sans-Serif" font-size="10.00">AELogEntry::makeQueue</text>
</a>
</g>
</g>
<!-- Node3&#45;&gt;Node10 -->
<g id="edge9_Node000003_Node000010" class="edge">
<title>Node3&#45;&gt;Node10</title>
<g id="a_edge9_Node000003_Node000010"><a xlink:title=" ">
<path fill="none" stroke="#63b8ff" d="M279.62,-99.35C297.29,-97.54 317.15,-95.5 335.94,-93.58"/>
<polygon fill="#63b8ff" stroke="#63b8ff" points="336.07,-97.08 345.66,-92.58 335.35,-90.12 336.07,-97.08"/>
</a>
</g>
</g>
<!-- Node11 -->
<g id="Node000011" class="node">
<title>Node11</title>
<g id="a_Node000011"><a xlink:href="../../d8/dfc/class_a_e_logger.html#af4bff840ffdcfcb5ecb1251fddbf9690" target="_top" xlink:title="Checks for the given index number and returns the pointer in the queue of log entries.">
<polygon fill="white" stroke="#666666" points="471.75,-58 350,-58 350,-38 471.75,-38 471.75,-58"/>
<text text-anchor="middle" x="410.88" y="-44.5" font-family="Helvetica,sans-Serif" font-size="10.00">AELogger::ptrFromIndex</text>
</a>
</g>
</g>
<!-- Node3&#45;&gt;Node11 -->
<g id="edge10_Node000003_Node000011" class="edge">
<title>Node3&#45;&gt;Node11</title>
<g id="a_edge10_Node000003_Node000011"><a xlink:title=" ">
<path fill="none" stroke="#63b8ff" d="M252.05,-94.61C273.95,-86.54 305.46,-75.36 333.5,-67 340.12,-65.03 347.1,-63.09 354.04,-61.26"/>
<polygon fill="#63b8ff" stroke="#63b8ff" points="354.59,-64.73 363.4,-58.85 352.84,-57.96 354.59,-64.73"/>
</a>
</g>
</g>
<!-- Node12 -->
<g id="Node000012" class="node">
<title>Node12</title>
<g id="a_Node000012"><a xlink:href="../../d8/dfc/class_a_e_logger.html#a50dfd96a74d13471faebd4de499db5bf" target="_top" xlink:title="Request a debug log entry to be written to the opened log file.">
<polygon fill="white" stroke="#666666" points="480.38,-20 341.38,-20 341.38,0 480.38,0 480.38,-20"/>
<text text-anchor="middle" x="410.88" y="-6.5" font-family="Helvetica,sans-Serif" font-size="10.00">AELogger::writeToLogDebug</text>
</a>
</g>
</g>
<!-- Node3&#45;&gt;Node12 -->
<g id="edge11_Node000003_Node000012" class="edge">
<title>Node3&#45;&gt;Node12</title>
<g id="a_edge11_Node000003_Node000012"><a xlink:title=" ">
<path fill="none" stroke="#63b8ff" d="M231.1,-94.55C246.2,-77.09 285.03,-44.27 330.95,-21.61"/>
<polygon fill="#63b8ff" stroke="#63b8ff" points="332.25,-24.87 339.8,-17.44 329.26,-18.53 332.25,-24.87"/>
</a>
</g>
</g>
<!-- Node7 -->
<g id="Node000007" class="node">
<title>Node7</title>
<g id="a_Node000007"><a xlink:href="../../db/d15/class_a_e_file_writer.html#a0743145db01b527ae9612f359e5c0090" target="_top" xlink:title="Checks if a file isn&#39;t open by this file&#45;writer.">
<polygon fill="white" stroke="#666666" points="639.25,-172 524.25,-172 524.25,-152 639.25,-152 639.25,-172"/>
<text text-anchor="middle" x="581.75" y="-158.5" font-family="Helvetica,sans-Serif" font-size="10.00">AEFileWriter::isClosed</text>
</a>
</g>
</g>
<!-- Node6&#45;&gt;Node7 -->
<g id="edge6_Node000006_Node000007" class="edge">
<title>Node6&#45;&gt;Node7</title>
<g id="a_edge6_Node000006_Node000007"><a xlink:title=" ">
<path fill="none" stroke="#63b8ff" d="M462.09,-162C477.89,-162 495.61,-162 512.44,-162"/>
<polygon fill="#63b8ff" stroke="#63b8ff" points="512.41,-165.5 522.41,-162 512.41,-158.5 512.41,-165.5"/>
</a>
</g>
</g>
<!-- Node8 -->
<g id="Node000008" class="node">
<title>Node8</title>
<g id="a_Node000008"><a xlink:href="../../db/d15/class_a_e_file_writer.html#a47e3c08c276394bce7b612331cf4762d" target="_top" xlink:title="Checks if a file is open by this file&#45;writer.">
<polygon fill="white" stroke="#666666" points="783.5,-172 675.25,-172 675.25,-152 783.5,-152 783.5,-172"/>
<text text-anchor="middle" x="729.38" y="-158.5" font-family="Helvetica,sans-Serif" font-size="10.00">AEFileWriter::isOpen</text>
</a>
</g>
</g>
<!-- Node7&#45;&gt;Node8 -->
<g id="edge7_Node000007_Node000008" class="edge">
<title>Node7&#45;&gt;Node8</title>
<g id="a_edge7_Node000007_Node000008"><a xlink:title=" ">
<path fill="none" stroke="#63b8ff" d="M639.47,-162C647.39,-162 655.59,-162 663.65,-162"/>
<polygon fill="#63b8ff" stroke="#63b8ff" points="663.4,-165.5 673.4,-162 663.4,-158.5 663.4,-165.5"/>
</a>
</g>
</g>
<!-- Node12&#45;&gt;Node3 -->
<g id="edge12_Node000012_Node000003" class="edge">
<title>Node12&#45;&gt;Node3</title>
<g id="a_edge12_Node000012_Node000003"><a xlink:title=" ">
<path fill="none" stroke="#63b8ff" d="M389.1,-20.45C373.34,-24.87 351.41,-29.86 333.5,-38 304.13,-51.34 274.32,-72.79 253.31,-88.03"/>
<polygon fill="#63b8ff" stroke="#63b8ff" points="251.3,-85.17 245.26,-93.87 255.41,-90.84 251.3,-85.17"/>
</a>
</g>
</g>
</g>
</svg>
