<?xml version="1.0" encoding="UTF-8" standalone="no"?>
<!DOCTYPE svg PUBLIC "-//W3C//DTD SVG 1.1//EN"
 "http://www.w3.org/Graphics/SVG/1.1/DTD/svg11.dtd">
<!-- Generated by graphviz version 10.0.1 (20240210.2158)
 -->
<!-- Title: AELogger::writeToLog Pages: 1 -->
<svg width="605pt" height="268pt"
 viewBox="0.00 0.00 605.25 268.00" xmlns="http://www.w3.org/2000/svg" xmlns:xlink="http://www.w3.org/1999/xlink">
<g id="graph0" class="graph" transform="scale(1 1) rotate(0) translate(4 264)">
<title>AELogger::writeToLog</title>
<!-- Node1 -->
<g id="Node000001" class="node">
<title>Node1</title>
<g id="a_Node000001"><a xlink:title="Request a log entry to be written to the opened log file.">
<polygon fill="#999999" stroke="#666666" points="111.25,-115 0,-115 0,-95 111.25,-95 111.25,-115"/>
<text text-anchor="middle" x="55.62" y="-101.5" font-family="Helvetica,sans-Serif" font-size="10.00">AELogger::writeToLog</text>
</a>
</g>
</g>
<!-- Node2 -->
<g id="Node000002" class="node">
<title>Node2</title>
<g id="a_Node000002"><a xlink:href="../../d0/d8a/class_____a_e_module_base.html#a2f3461ab9cf4aa231ba93ce28f7f856c" target="_top" xlink:title="Returns the name of the registered module.">
<polygon fill="white" stroke="#666666" points="302,-260 147.25,-260 147.25,-228 302,-228 302,-260"/>
<text text-anchor="start" x="155.25" y="-246.5" font-family="Helvetica,sans-Serif" font-size="10.00">__AEModuleBase&lt; AELogger &gt;</text>
<text text-anchor="middle" x="224.62" y="-234.5" font-family="Helvetica,sans-Serif" font-size="10.00">::getModuleName</text>
</a>
</g>
</g>
<!-- Node1&#45;&gt;Node2 -->
<g id="edge1_Node000001_Node000002" class="edge">
<title>Node1&#45;&gt;Node2</title>
<g id="a_edge1_Node000001_Node000002"><a xlink:title=" ">
<path fill="none" stroke="#63b8ff" d="M61.96,-115.17C74.1,-137.32 105.95,-190.27 147.25,-219 149.01,-220.22 150.84,-221.39 152.71,-222.51"/>
<polygon fill="#63b8ff" stroke="#63b8ff" points="150.62,-225.36 161.1,-226.92 153.88,-219.17 150.62,-225.36"/>
</a>
</g>
</g>
<!-- Node3 -->
<g id="Node000003" class="node">
<title>Node3</title>
<g id="a_Node000003"><a xlink:href="../../de/dde/namespaceace_1_1utils.html#ac3eadc5f289b54059322023f3c5eed96" target="_top" xlink:title="Checks if the passed string is alpha&#45;numeric with underscores (contains only numbers,...">
<polygon fill="white" stroke="#666666" points="279.88,-210 169.38,-210 169.38,-190 279.88,-190 279.88,-210"/>
<text text-anchor="middle" x="224.62" y="-196.5" font-family="Helvetica,sans-Serif" font-size="10.00">ace::utils::isAlNumUs</text>
</a>
</g>
</g>
<!-- Node1&#45;&gt;Node3 -->
<g id="edge2_Node000001_Node000003" class="edge">
<title>Node1&#45;&gt;Node3</title>
<g id="a_edge2_Node000001_Node000003"><a xlink:title=" ">
<path fill="none" stroke="#63b8ff" d="M65.86,-115.32C81.14,-131.75 113.4,-163.77 147.25,-181 150.77,-182.79 154.46,-184.42 158.25,-185.9"/>
<polygon fill="#63b8ff" stroke="#63b8ff" points="157.08,-189.2 167.67,-189.19 159.38,-182.59 157.08,-189.2"/>
</a>
</g>
</g>
<!-- Node4 -->
<g id="Node000004" class="node">
<title>Node4</title>
<g id="a_Node000004"><a xlink:href="../../d8/dfc/class_a_e_logger.html#a4d512bf9f4d0a6a1b6a332b9c99e22ac" target="_top" xlink:title="Checks if a log file isn&#39;t open by this logger.">
<polygon fill="white" stroke="#666666" points="275.75,-172 173.5,-172 173.5,-152 275.75,-152 275.75,-172"/>
<text text-anchor="middle" x="224.62" y="-158.5" font-family="Helvetica,sans-Serif" font-size="10.00">AELogger::isClosed</text>
</a>
</g>
</g>
<!-- Node1&#45;&gt;Node4 -->
<g id="edge3_Node000001_Node000004" class="edge">
<title>Node1&#45;&gt;Node4</title>
<g id="a_edge3_Node000001_Node000004"><a xlink:title=" ">
<path fill="none" stroke="#63b8ff" d="M78.61,-115.34C96.74,-123.59 123.29,-135.05 147.25,-143 153.31,-145.01 159.71,-146.92 166.12,-148.7"/>
<polygon fill="#63b8ff" stroke="#63b8ff" points="164.83,-151.98 175.39,-151.18 166.63,-145.22 164.83,-151.98"/>
</a>
</g>
</g>
<!-- Node7 -->
<g id="Node000007" class="node">
<title>Node7</title>
<g id="a_Node000007"><a xlink:href="../../de/dde/namespaceace_1_1utils.html#a878c53ede8589dbc6a50734c9c4ad4d7" target="_top" xlink:title="Checks if the value is within some range.">
<polygon fill="white" stroke="#666666" points="276.88,-134 172.38,-134 172.38,-114 276.88,-114 276.88,-134"/>
<text text-anchor="middle" x="224.62" y="-120.5" font-family="Helvetica,sans-Serif" font-size="10.00">ace::utils::isInRange</text>
</a>
</g>
</g>
<!-- Node1&#45;&gt;Node7 -->
<g id="edge6_Node000001_Node000007" class="edge">
<title>Node1&#45;&gt;Node7</title>
<g id="a_edge6_Node000001_Node000007"><a xlink:title=" ">
<path fill="none" stroke="#63b8ff" d="M111.31,-111.22C127.15,-113.02 144.57,-115.01 160.87,-116.86"/>
<polygon fill="#63b8ff" stroke="#63b8ff" points="160.1,-120.3 170.44,-117.95 160.9,-113.34 160.1,-120.3"/>
</a>
</g>
</g>
<!-- Node8 -->
<g id="Node000008" class="node">
<title>Node8</title>
<g id="a_Node000008"><a xlink:href="../../da/dea/struct_a_e_log_entry.html#a42447b345f72f22ec655556af2db7c28" target="_top" xlink:title="Allocates the queue of the given size on the heap and returns the pointer to it&#39;s first node.">
<polygon fill="white" stroke="#666666" points="288.12,-96 161.12,-96 161.12,-76 288.12,-76 288.12,-96"/>
<text text-anchor="middle" x="224.62" y="-82.5" font-family="Helvetica,sans-Serif" font-size="10.00">AELogEntry::makeQueue</text>
</a>
</g>
</g>
<!-- Node1&#45;&gt;Node8 -->
<g id="edge7_Node000001_Node000008" class="edge">
<title>Node1&#45;&gt;Node8</title>
<g id="a_edge7_Node000001_Node000008"><a xlink:title=" ">
<path fill="none" stroke="#63b8ff" d="M111.31,-98.78C123.52,-97.39 136.67,-95.89 149.52,-94.43"/>
<polygon fill="#63b8ff" stroke="#63b8ff" points="149.66,-97.94 159.2,-93.33 148.87,-90.98 149.66,-97.94"/>
</a>
</g>
</g>
<!-- Node9 -->
<g id="Node000009" class="node">
<title>Node9</title>
<g id="a_Node000009"><a xlink:href="../../d8/dfc/class_a_e_logger.html#af4bff840ffdcfcb5ecb1251fddbf9690" target="_top" xlink:title="Checks for the given index number and returns the pointer in the queue of log entries.">
<polygon fill="white" stroke="#666666" points="285.5,-58 163.75,-58 163.75,-38 285.5,-38 285.5,-58"/>
<text text-anchor="middle" x="224.62" y="-44.5" font-family="Helvetica,sans-Serif" font-size="10.00">AELogger::ptrFromIndex</text>
</a>
</g>
</g>
<!-- Node1&#45;&gt;Node9 -->
<g id="edge8_Node000001_Node000009" class="edge">
<title>Node1&#45;&gt;Node9</title>
<g id="a_edge8_Node000001_Node000009"><a xlink:title=" ">
<path fill="none" stroke="#63b8ff" d="M78.61,-94.66C96.74,-86.41 123.29,-74.95 147.25,-67 153.31,-64.99 159.71,-63.08 166.12,-61.3"/>
<polygon fill="#63b8ff" stroke="#63b8ff" points="166.63,-64.78 175.39,-58.82 164.83,-58.02 166.63,-64.78"/>
</a>
</g>
</g>
<!-- Node10 -->
<g id="Node000010" class="node">
<title>Node10</title>
<g id="a_Node000010"><a xlink:href="../../d8/dfc/class_a_e_logger.html#a50dfd96a74d13471faebd4de499db5bf" target="_top" xlink:title="Request a debug log entry to be written to the opened log file.">
<polygon fill="white" stroke="#666666" points="294.12,-20 155.12,-20 155.12,0 294.12,0 294.12,-20"/>
<text text-anchor="middle" x="224.62" y="-6.5" font-family="Helvetica,sans-Serif" font-size="10.00">AELogger::writeToLogDebug</text>
</a>
</g>
</g>
<!-- Node1&#45;&gt;Node10 -->
<g id="edge9_Node000001_Node000010" class="edge">
<title>Node1&#45;&gt;Node10</title>
<g id="a_edge9_Node000001_Node000010"><a xlink:title=" ">
<path fill="none" stroke="#63b8ff" d="M61.7,-94.77C73.56,-77.41 104.66,-44.53 144.7,-21.89"/>
<polygon fill="#63b8ff" stroke="#63b8ff" points="146.27,-25.02 153.45,-17.23 142.98,-18.84 146.27,-25.02"/>
</a>
</g>
</g>
<!-- Node5 -->
<g id="Node000005" class="node">
<title>Node5</title>
<g id="a_Node000005"><a xlink:href="../../db/d15/class_a_e_file_writer.html#a0743145db01b527ae9612f359e5c0090" target="_top" xlink:title="Checks if a file isn&#39;t open by this file&#45;writer.">
<polygon fill="white" stroke="#666666" points="453,-172 338,-172 338,-152 453,-152 453,-172"/>
<text text-anchor="middle" x="395.5" y="-158.5" font-family="Helvetica,sans-Serif" font-size="10.00">AEFileWriter::isClosed</text>
</a>
</g>
</g>
<!-- Node4&#45;&gt;Node5 -->
<g id="edge4_Node000004_Node000005" class="edge">
<title>Node4&#45;&gt;Node5</title>
<g id="a_edge4_Node000004_Node000005"><a xlink:title=" ">
<path fill="none" stroke="#63b8ff" d="M275.84,-162C291.64,-162 309.36,-162 326.19,-162"/>
<polygon fill="#63b8ff" stroke="#63b8ff" points="326.16,-165.5 336.16,-162 326.16,-158.5 326.16,-165.5"/>
</a>
</g>
</g>
<!-- Node6 -->
<g id="Node000006" class="node">
<title>Node6</title>
<g id="a_Node000006"><a xlink:href="../../db/d15/class_a_e_file_writer.html#a47e3c08c276394bce7b612331cf4762d" target="_top" xlink:title="Checks if a file is open by this file&#45;writer.">
<polygon fill="white" stroke="#666666" points="597.25,-172 489,-172 489,-152 597.25,-152 597.25,-172"/>
<text text-anchor="middle" x="543.12" y="-158.5" font-family="Helvetica,sans-Serif" font-size="10.00">AEFileWriter::isOpen</text>
</a>
</g>
</g>
<!-- Node5&#45;&gt;Node6 -->
<g id="edge5_Node000005_Node000006" class="edge">
<title>Node5&#45;&gt;Node6</title>
<g id="a_edge5_Node000005_Node000006"><a xlink:title=" ">
<path fill="none" stroke="#63b8ff" d="M453.22,-162C461.14,-162 469.34,-162 477.4,-162"/>
<polygon fill="#63b8ff" stroke="#63b8ff" points="477.15,-165.5 487.15,-162 477.15,-158.5 477.15,-165.5"/>
</a>
</g>
</g>
<!-- Node10&#45;&gt;Node1 -->
<g id="edge10_Node000010_Node000001" class="edge">
<title>Node10&#45;&gt;Node1</title>
<g id="a_edge10_Node000010_Node000001"><a xlink:title=" ">
<path fill="none" stroke="#63b8ff" d="M200.95,-20.44C185.24,-24.52 164.18,-29.38 147.25,-38 122.01,-50.85 97.65,-71.92 80.56,-87.21"/>
<polygon fill="#63b8ff" stroke="#63b8ff" points="78.55,-84.31 73.44,-93.6 83.22,-89.52 78.55,-84.31"/>
</a>
</g>
</g>
</g>
</svg>
