<?xml version="1.0" encoding="UTF-8" standalone="no"?>
<!DOCTYPE svg PUBLIC "-//W3C//DTD SVG 1.1//EN"
 "http://www.w3.org/Graphics/SVG/1.1/DTD/svg11.dtd">
<!-- Generated by graphviz version 10.0.1 (20240210.2158)
 -->
<!-- Title: AELogger::openLog Pages: 1 -->
<svg width="1260pt" height="669pt"
 viewBox="0.00 0.00 1260.25 669.00" xmlns="http://www.w3.org/2000/svg" xmlns:xlink="http://www.w3.org/1999/xlink">
<g id="graph0" class="graph" transform="scale(1 1) rotate(0) translate(4 665)">
<title>AELogger::openLog</title>
<!-- Node1 -->
<g id="Node000001" class="node">
<title>Node1</title>
<g id="a_Node000001"><a xlink:title="Open the file to start logging.">
<polygon fill="#999999" stroke="#666666" points="101.5,-471 0,-471 0,-451 101.5,-451 101.5,-471"/>
<text text-anchor="middle" x="50.75" y="-457.5" font-family="Helvetica,sans-Serif" font-size="10.00">AELogger::openLog</text>
</a>
</g>
</g>
<!-- Node2 -->
<g id="Node000002" class="node">
<title>Node2</title>
<g id="a_Node000002"><a xlink:href="../../d0/d8a/class_____a_e_module_base.html#a625c82f27195de3f9ab5af4fc7437e2f" target="_top" xlink:title="Get the name of the module">
<polygon fill="white" stroke="#666666" points="942.75,-322 788,-322 788,-290 942.75,-290 942.75,-322"/>
<text text-anchor="start" x="796" y="-308.5" font-family="Helvetica,sans-Serif" font-size="10.00">__AEModuleBase&lt; AELogger &gt;</text>
<text text-anchor="middle" x="865.38" y="-296.5" font-family="Helvetica,sans-Serif" font-size="10.00">::getModuleName</text>
</a>
</g>
</g>
<!-- Node1&#45;&gt;Node2 -->
<g id="edge1_Node000001_Node000002" class="edge">
<title>Node1&#45;&gt;Node2</title>
<g id="a_edge1_Node000001_Node000002"><a xlink:title=" ">
<path fill="none" stroke="#63b8ff" d="M59.45,-450.51C89.68,-410.68 204.94,-271 334.88,-271 334.88,-271 334.88,-271 498.75,-271 593.98,-271 702.52,-282.91 776.44,-292.83"/>
<polygon fill="#63b8ff" stroke="#63b8ff" points="775.66,-296.26 786.04,-294.14 776.61,-289.33 775.66,-296.26"/>
</a>
</g>
</g>
<!-- Node3 -->
<g id="Node000003" class="node">
<title>Node3</title>
<g id="a_Node000003"><a xlink:href="../../db/d15/class_a_e_file_writer.html#a939fe602eecb15ba71448a9de13bb2c0" target="_top" xlink:title="Open(and create) file with given name and flag.">
<polygon fill="white" stroke="#666666" points="922.5,-623 808.25,-623 808.25,-603 922.5,-603 922.5,-623"/>
<text text-anchor="middle" x="865.38" y="-609.5" font-family="Helvetica,sans-Serif" font-size="10.00">AEFileWriter::openFile</text>
</a>
</g>
</g>
<!-- Node1&#45;&gt;Node3 -->
<g id="edge2_Node000001_Node000003" class="edge">
<title>Node1&#45;&gt;Node3</title>
<g id="a_edge2_Node000001_Node000003"><a xlink:title=" ">
<path fill="none" stroke="#63b8ff" d="M61.98,-471.45C96.76,-505.79 214.93,-613 334.88,-613 334.88,-613 334.88,-613 498.75,-613 602.69,-613 723.24,-613 796.64,-613"/>
<polygon fill="#63b8ff" stroke="#63b8ff" points="796.49,-616.5 806.49,-613 796.49,-609.5 796.49,-616.5"/>
</a>
</g>
</g>
<!-- Node7 -->
<g id="Node000007" class="node">
<title>Node7</title>
<g id="a_Node000007"><a xlink:href="../../d8/dfc/class_a_e_logger.html#a284034896688215f7e87242764c5985d" target="_top" xlink:title="Starts the log&#45;writing thread.">
<polygon fill="white" stroke="#666666" points="248,-395 137.5,-395 137.5,-375 248,-375 248,-395"/>
<text text-anchor="middle" x="192.75" y="-381.5" font-family="Helvetica,sans-Serif" font-size="10.00">AELogger::startWriter</text>
</a>
</g>
</g>
<!-- Node1&#45;&gt;Node7 -->
<g id="edge7_Node000001_Node000007" class="edge">
<title>Node1&#45;&gt;Node7</title>
<g id="a_edge7_Node000001_Node000007"><a xlink:title=" ">
<path fill="none" stroke="#63b8ff" d="M70.92,-450.59C94.7,-437.69 135.44,-415.57 162.97,-400.62"/>
<polygon fill="#63b8ff" stroke="#63b8ff" points="164.36,-403.85 171.48,-396 161.02,-397.7 164.36,-403.85"/>
</a>
</g>
</g>
<!-- Node13 -->
<g id="Node000013" class="node">
<title>Node13</title>
<g id="a_Node000013"><a xlink:href="../../d8/dfc/class_a_e_logger.html#ac533941173224cb21fe09326726ce754" target="_top" xlink:title="Request a log entry to be written to the opened log file.">
<polygon fill="white" stroke="#666666" points="735.5,-398 624.25,-398 624.25,-378 735.5,-378 735.5,-398"/>
<text text-anchor="middle" x="679.88" y="-384.5" font-family="Helvetica,sans-Serif" font-size="10.00">AELogger::writeToLog</text>
</a>
</g>
</g>
<!-- Node1&#45;&gt;Node13 -->
<g id="edge43_Node000001_Node000013" class="edge">
<title>Node1&#45;&gt;Node13</title>
<g id="a_edge43_Node000001_Node000013"><a xlink:title=" ">
<path fill="none" stroke="#63b8ff" d="M74.16,-471.44C148.98,-504.71 395.36,-601.21 571.75,-518 620.04,-495.22 653.94,-438.81 669.41,-408.32"/>
<polygon fill="#63b8ff" stroke="#63b8ff" points="672.36,-410.26 673.61,-399.74 666.07,-407.19 672.36,-410.26"/>
</a>
</g>
</g>
<!-- Node4 -->
<g id="Node000004" class="node">
<title>Node4</title>
<g id="a_Node000004"><a xlink:href="../../de/dde/namespaceace_1_1utils.html#a6eb2322353edc04f78dbc3589e60d98c" target="_top" xlink:title="A wrapper to make the proper cross&#45;compiler version of fopen() Opens the file with given name and fla...">
<polygon fill="white" stroke="#666666" points="1092.62,-661 994.12,-661 994.12,-641 1092.62,-641 1092.62,-661"/>
<text text-anchor="middle" x="1043.38" y="-647.5" font-family="Helvetica,sans-Serif" font-size="10.00">ace::utils::fopenCC</text>
</a>
</g>
</g>
<!-- Node3&#45;&gt;Node4 -->
<g id="edge3_Node000003_Node000004" class="edge">
<title>Node3&#45;&gt;Node4</title>
<g id="a_edge3_Node000003_Node000004"><a xlink:title=" ">
<path fill="none" stroke="#63b8ff" d="M914.93,-623.48C936,-628.03 960.86,-633.4 983.01,-638.18"/>
<polygon fill="#63b8ff" stroke="#63b8ff" points="981.98,-641.54 992.5,-640.23 983.46,-634.7 981.98,-641.54"/>
</a>
</g>
</g>
<!-- Node5 -->
<g id="Node000005" class="node">
<title>Node5</title>
<g id="a_Node000005"><a xlink:href="../../db/d15/class_a_e_file_writer.html#a0743145db01b527ae9612f359e5c0090" target="_top" xlink:title="Checks if a file isn&#39;t open by this file&#45;writer.">
<polygon fill="white" stroke="#666666" points="1100.88,-585 985.88,-585 985.88,-565 1100.88,-565 1100.88,-585"/>
<text text-anchor="middle" x="1043.38" y="-571.5" font-family="Helvetica,sans-Serif" font-size="10.00">AEFileWriter::isClosed</text>
</a>
</g>
</g>
<!-- Node3&#45;&gt;Node5 -->
<g id="edge4_Node000003_Node000005" class="edge">
<title>Node3&#45;&gt;Node5</title>
<g id="a_edge4_Node000003_Node000005"><a xlink:title=" ">
<path fill="none" stroke="#63b8ff" d="M914.93,-602.52C936,-597.97 960.86,-592.6 983.01,-587.82"/>
<polygon fill="#63b8ff" stroke="#63b8ff" points="983.46,-591.3 992.5,-585.77 981.98,-584.46 983.46,-591.3"/>
</a>
</g>
</g>
<!-- Node6 -->
<g id="Node000006" class="node">
<title>Node6</title>
<g id="a_Node000006"><a xlink:href="../../db/d15/class_a_e_file_writer.html#a47e3c08c276394bce7b612331cf4762d" target="_top" xlink:title="Checks if a file is open by this file&#45;writer.">
<polygon fill="white" stroke="#666666" points="1252.25,-604 1144,-604 1144,-584 1252.25,-584 1252.25,-604"/>
<text text-anchor="middle" x="1198.12" y="-590.5" font-family="Helvetica,sans-Serif" font-size="10.00">AEFileWriter::isOpen</text>
</a>
</g>
</g>
<!-- Node3&#45;&gt;Node6 -->
<g id="edge6_Node000003_Node000006" class="edge">
<title>Node3&#45;&gt;Node6</title>
<g id="a_edge6_Node000003_Node000006"><a xlink:title=" ">
<path fill="none" stroke="#63b8ff" d="M922.86,-609.76C980.92,-606.42 1071.23,-601.23 1132.21,-597.73"/>
<polygon fill="#63b8ff" stroke="#63b8ff" points="1132.32,-601.23 1142.1,-597.16 1131.92,-594.24 1132.32,-601.23"/>
</a>
</g>
</g>
<!-- Node5&#45;&gt;Node6 -->
<g id="edge5_Node000005_Node000006" class="edge">
<title>Node5&#45;&gt;Node6</title>
<g id="a_edge5_Node000005_Node000006"><a xlink:title=" ">
<path fill="none" stroke="#63b8ff" d="M1101.25,-582.07C1111.47,-583.35 1122.18,-584.68 1132.6,-585.97"/>
<polygon fill="#63b8ff" stroke="#63b8ff" points="1131.88,-589.41 1142.24,-587.17 1132.75,-582.47 1131.88,-589.41"/>
</a>
</g>
</g>
<!-- Node7&#45;&gt;Node2 -->
<g id="edge32_Node000007_Node000002" class="edge">
<title>Node7&#45;&gt;Node2</title>
<g id="a_edge32_Node000007_Node000002"><a xlink:title=" ">
<path fill="none" stroke="#63b8ff" d="M227.25,-374.53C271.67,-361.15 352.73,-338.47 423.75,-328 544.98,-310.12 686.77,-306 776.08,-305.42"/>
<polygon fill="#63b8ff" stroke="#63b8ff" points="776.02,-308.92 786.01,-305.37 775.99,-301.92 776.02,-308.92"/>
</a>
</g>
</g>
<!-- Node8 -->
<g id="Node000008" class="node">
<title>Node8</title>
<g id="a_Node000008"><a xlink:href="../../d8/dfc/class_a_e_logger.html#a2f64d8f5de2f249f7cb973a82ec1e48a" target="_top" xlink:title="Close the file, if it was opened.">
<polygon fill="white" stroke="#666666" points="387.75,-433 284,-433 284,-413 387.75,-413 387.75,-433"/>
<text text-anchor="middle" x="335.88" y="-419.5" font-family="Helvetica,sans-Serif" font-size="10.00">AELogger::closeLog</text>
</a>
</g>
</g>
<!-- Node7&#45;&gt;Node8 -->
<g id="edge8_Node000007_Node000008" class="edge">
<title>Node7&#45;&gt;Node8</title>
<g id="a_edge8_Node000007_Node000008"><a xlink:title=" ">
<path fill="none" stroke="#63b8ff" d="M232.69,-395.48C248.88,-399.85 267.88,-404.96 285.08,-409.59"/>
<polygon fill="#63b8ff" stroke="#63b8ff" points="284.04,-412.94 294.6,-412.16 285.86,-406.18 284.04,-412.94"/>
</a>
</g>
</g>
<!-- Node7&#45;&gt;Node13 -->
<g id="edge42_Node000007_Node000013" class="edge">
<title>Node7&#45;&gt;Node13</title>
<g id="a_edge42_Node000007_Node000013"><a xlink:title=" ">
<path fill="none" stroke="#63b8ff" d="M248.46,-385.34C338.11,-385.89 515.98,-386.99 612.62,-387.59"/>
<polygon fill="#63b8ff" stroke="#63b8ff" points="612.46,-391.09 622.48,-387.65 612.5,-384.09 612.46,-391.09"/>
</a>
</g>
</g>
<!-- Node25 -->
<g id="Node000025" class="node">
<title>Node25</title>
<g id="a_Node000025"><a xlink:href="../../d8/dfc/class_a_e_logger.html#a5938787b6933f4b96ebff10643bd2497" target="_top" xlink:title="The function of the log writing thread to...read the entries, format them, write them,...">
<polygon fill="white" stroke="#666666" points="564.25,-167 431.25,-167 431.25,-147 564.25,-147 564.25,-167"/>
<text text-anchor="middle" x="497.75" y="-153.5" font-family="Helvetica,sans-Serif" font-size="10.00">AELogger::logWriterThread</text>
</a>
</g>
</g>
<!-- Node7&#45;&gt;Node25 -->
<g id="edge33_Node000007_Node000025" class="edge">
<title>Node7&#45;&gt;Node25</title>
<g id="a_edge33_Node000007_Node000025"><a xlink:title=" ">
<path fill="none" stroke="#63b8ff" d="M202.87,-374.58C218.5,-357.04 251.82,-321.01 284,-295 345.71,-245.13 425.98,-197.08 468.09,-173"/>
<polygon fill="#63b8ff" stroke="#63b8ff" points="469.65,-176.14 476.62,-168.16 466.19,-170.05 469.65,-176.14"/>
</a>
</g>
</g>
<!-- Node9 -->
<g id="Node000009" class="node">
<title>Node9</title>
<g id="a_Node000009"><a xlink:href="../../db/d15/class_a_e_file_writer.html#a05ceb471801ae111d68859f9d3b9eb78" target="_top" xlink:title="Closes the currently opened file.">
<polygon fill="white" stroke="#666666" points="556,-509 439.5,-509 439.5,-489 556,-489 556,-509"/>
<text text-anchor="middle" x="497.75" y="-495.5" font-family="Helvetica,sans-Serif" font-size="10.00">AEFileWriter::closeFile</text>
</a>
</g>
</g>
<!-- Node8&#45;&gt;Node9 -->
<g id="edge9_Node000008_Node000009" class="edge">
<title>Node8&#45;&gt;Node9</title>
<g id="a_edge9_Node000008_Node000009"><a xlink:title=" ">
<path fill="none" stroke="#63b8ff" d="M349.64,-433.32C365.92,-446.01 395.39,-467.42 423.75,-480 427.99,-481.88 432.46,-483.61 437.01,-485.18"/>
<polygon fill="#63b8ff" stroke="#63b8ff" points="435.66,-488.43 446.25,-488.13 437.79,-481.76 435.66,-488.43"/>
</a>
</g>
</g>
<!-- Node10 -->
<g id="Node000010" class="node">
<title>Node10</title>
<g id="a_Node000010"><a xlink:href="../../db/d15/class_a_e_file_writer.html#a26ea7c97bfdbed142df1863d8d47d895" target="_top" xlink:title="Returns the full name of currently open file, including the relative path, if such was provided.">
<polygon fill="white" stroke="#666666" points="571.75,-471 423.75,-471 423.75,-451 571.75,-451 571.75,-471"/>
<text text-anchor="middle" x="497.75" y="-457.5" font-family="Helvetica,sans-Serif" font-size="10.00">AEFileWriter::getFullFileName</text>
</a>
</g>
</g>
<!-- Node8&#45;&gt;Node10 -->
<g id="edge10_Node000008_Node000010" class="edge">
<title>Node8&#45;&gt;Node10</title>
<g id="a_edge10_Node000008_Node000010"><a xlink:title=" ">
<path fill="none" stroke="#63b8ff" d="M380.98,-433.48C399.77,-437.95 421.88,-443.21 441.72,-447.92"/>
<polygon fill="#63b8ff" stroke="#63b8ff" points="440.77,-451.29 451.31,-450.2 442.39,-444.48 440.77,-451.29"/>
</a>
</g>
</g>
<!-- Node11 -->
<g id="Node000011" class="node">
<title>Node11</title>
<g id="a_Node000011"><a xlink:href="../../d8/dfc/class_a_e_logger.html#a4d512bf9f4d0a6a1b6a332b9c99e22ac" target="_top" xlink:title="Checks if a log file isn&#39;t open by this logger.">
<polygon fill="white" stroke="#666666" points="916.5,-585 814.25,-585 814.25,-565 916.5,-565 916.5,-585"/>
<text text-anchor="middle" x="865.38" y="-571.5" font-family="Helvetica,sans-Serif" font-size="10.00">AELogger::isClosed</text>
</a>
</g>
</g>
<!-- Node8&#45;&gt;Node11 -->
<g id="edge11_Node000008_Node000011" class="edge">
<title>Node8&#45;&gt;Node11</title>
<g id="a_edge11_Node000008_Node000011"><a xlink:title=" ">
<path fill="none" stroke="#63b8ff" d="M342.92,-433.5C355.22,-453.76 385.28,-498 423.75,-518 546.53,-581.82 713.59,-584.18 802.59,-579.89"/>
<polygon fill="#63b8ff" stroke="#63b8ff" points="802.53,-583.4 812.33,-579.37 802.15,-576.41 802.53,-583.4"/>
</a>
</g>
</g>
<!-- Node12 -->
<g id="Node000012" class="node">
<title>Node12</title>
<g id="a_Node000012"><a xlink:href="../../d8/dfc/class_a_e_logger.html#a53b212c259c40bda694476f09d1f171b" target="_top" xlink:title="Stops the log&#45;writing thread (after flushing the log queue).">
<polygon fill="white" stroke="#666666" points="552.62,-357 442.88,-357 442.88,-337 552.62,-337 552.62,-357"/>
<text text-anchor="middle" x="497.75" y="-343.5" font-family="Helvetica,sans-Serif" font-size="10.00">AELogger::stopWriter</text>
</a>
</g>
</g>
<!-- Node8&#45;&gt;Node12 -->
<g id="edge13_Node000008_Node000012" class="edge">
<title>Node8&#45;&gt;Node12</title>
<g id="a_edge13_Node000008_Node000012"><a xlink:title=" ">
<path fill="none" stroke="#63b8ff" d="M358.77,-412.59C386.2,-399.55 433.41,-377.11 464.86,-362.16"/>
<polygon fill="#63b8ff" stroke="#63b8ff" points="465.97,-365.51 473.5,-358.05 462.96,-359.19 465.97,-365.51"/>
</a>
</g>
</g>
<!-- Node8&#45;&gt;Node13 -->
<g id="edge30_Node000008_Node000013" class="edge">
<title>Node8&#45;&gt;Node13</title>
<g id="a_edge30_Node000008_Node000013"><a xlink:title=" ">
<path fill="none" stroke="#63b8ff" d="M388.19,-417.76C435.78,-412.91 508.55,-405.47 571.75,-399 584.97,-397.65 599.11,-396.2 612.64,-394.81"/>
<polygon fill="#63b8ff" stroke="#63b8ff" points="612.73,-398.32 622.32,-393.81 612.02,-391.35 612.73,-398.32"/>
</a>
</g>
</g>
<!-- Node19 -->
<g id="Node000019" class="node">
<title>Node19</title>
<g id="a_Node000019"><a xlink:href="../../d8/dfc/class_a_e_logger.html#a54bad71bcfea05c3d17d7ba1bacfec8c" target="_top" xlink:title="Writes to log directly, without thinking of the queue.">
<polygon fill="white" stroke="#666666" points="752,-91 607.75,-91 607.75,-71 752,-71 752,-91"/>
<text text-anchor="middle" x="679.88" y="-77.5" font-family="Helvetica,sans-Serif" font-size="10.00">AELogger::writeToLogDirectly</text>
</a>
</g>
</g>
<!-- Node8&#45;&gt;Node19 -->
<g id="edge31_Node000008_Node000019" class="edge">
<title>Node8&#45;&gt;Node19</title>
<g id="a_edge31_Node000008_Node000019"><a xlink:title=" ">
<path fill="none" stroke="#63b8ff" d="M336.6,-412.55C336.1,-370.94 340.09,-215.53 423.75,-138 469.84,-95.29 540.71,-82.1 596.06,-79"/>
<polygon fill="#63b8ff" stroke="#63b8ff" points="595.93,-82.51 605.76,-78.57 595.61,-75.52 595.93,-82.51"/>
</a>
</g>
</g>
<!-- Node11&#45;&gt;Node5 -->
<g id="edge12_Node000011_Node000005" class="edge">
<title>Node11&#45;&gt;Node5</title>
<g id="a_edge12_Node000011_Node000005"><a xlink:title=" ">
<path fill="none" stroke="#63b8ff" d="M916.81,-575C934.64,-575 955.01,-575 974.07,-575"/>
<polygon fill="#63b8ff" stroke="#63b8ff" points="973.92,-578.5 983.92,-575 973.92,-571.5 973.92,-578.5"/>
</a>
</g>
</g>
<!-- Node12&#45;&gt;Node2 -->
<g id="edge14_Node000012_Node000002" class="edge">
<title>Node12&#45;&gt;Node2</title>
<g id="a_edge14_Node000012_Node000002"><a xlink:title=" ">
<path fill="none" stroke="#63b8ff" d="M552.69,-342.76C604.03,-338.52 683.4,-331.43 752,-323 759.94,-322.02 768.19,-320.93 776.45,-319.78"/>
<polygon fill="#63b8ff" stroke="#63b8ff" points="776.78,-323.27 786.18,-318.4 775.79,-316.34 776.78,-323.27"/>
</a>
</g>
</g>
<!-- Node12&#45;&gt;Node13 -->
<g id="edge15_Node000012_Node000013" class="edge">
<title>Node12&#45;&gt;Node13</title>
<g id="a_edge15_Node000012_Node000013"><a xlink:title=" ">
<path fill="none" stroke="#63b8ff" d="M544.67,-357.45C568.17,-362.8 597,-369.36 621.91,-375.03"/>
<polygon fill="#63b8ff" stroke="#63b8ff" points="621.04,-378.42 631.56,-377.23 622.59,-371.6 621.04,-378.42"/>
</a>
</g>
</g>
<!-- Node12&#45;&gt;Node19 -->
<g id="edge24_Node000012_Node000019" class="edge">
<title>Node12&#45;&gt;Node19</title>
<g id="a_edge24_Node000012_Node000019"><a xlink:title=" ">
<path fill="none" stroke="#63b8ff" d="M502.42,-336.54C514.06,-304.37 552.66,-205.02 607.75,-138 620.57,-122.41 638.27,-108.2 652.81,-97.87"/>
<polygon fill="#63b8ff" stroke="#63b8ff" points="654.76,-100.77 661.02,-92.23 650.8,-95.01 654.76,-100.77"/>
</a>
</g>
</g>
<!-- Node13&#45;&gt;Node2 -->
<g id="edge16_Node000013_Node000002" class="edge">
<title>Node13&#45;&gt;Node2</title>
<g id="a_edge16_Node000013_Node000002"><a xlink:title=" ">
<path fill="none" stroke="#63b8ff" d="M715.22,-377.56C727.25,-373.24 740.6,-367.66 752,-361 769.98,-350.49 769.78,-341.09 788,-331 790.51,-329.61 793.11,-328.28 795.77,-327.02"/>
<polygon fill="#63b8ff" stroke="#63b8ff" points="797.1,-330.25 804.86,-323.04 794.3,-323.84 797.1,-330.25"/>
</a>
</g>
</g>
<!-- Node13&#45;&gt;Node11 -->
<g id="edge18_Node000013_Node000011" class="edge">
<title>Node13&#45;&gt;Node11</title>
<g id="a_edge18_Node000013_Node000011"><a xlink:title=" ">
<path fill="none" stroke="#63b8ff" d="M687.81,-398.48C703.71,-422.06 744.78,-480.4 788,-521 803.15,-535.23 822.24,-548.72 837.54,-558.67"/>
<polygon fill="#63b8ff" stroke="#63b8ff" points="835.38,-561.44 845.69,-563.85 839.13,-555.53 835.38,-561.44"/>
</a>
</g>
</g>
<!-- Node14 -->
<g id="Node000014" class="node">
<title>Node14</title>
<g id="a_Node000014"><a xlink:href="../../de/dde/namespaceace_1_1utils.html#ac3eadc5f289b54059322023f3c5eed96" target="_top" xlink:title="Checks if the passed string is alpha&#45;numeric with underscores (contains only numbers,...">
<polygon fill="white" stroke="#666666" points="920.62,-512 810.12,-512 810.12,-492 920.62,-492 920.62,-512"/>
<text text-anchor="middle" x="865.38" y="-498.5" font-family="Helvetica,sans-Serif" font-size="10.00">ace::utils::isAlNumUs</text>
</a>
</g>
</g>
<!-- Node13&#45;&gt;Node14 -->
<g id="edge17_Node000013_Node000014" class="edge">
<title>Node13&#45;&gt;Node14</title>
<g id="a_edge17_Node000013_Node000014"><a xlink:title=" ">
<path fill="none" stroke="#63b8ff" d="M689.43,-398.37C706.22,-418 745.55,-460.65 788,-483 791.49,-484.84 795.17,-486.5 798.94,-488.01"/>
<polygon fill="#63b8ff" stroke="#63b8ff" points="797.74,-491.3 808.34,-491.35 800.09,-484.7 797.74,-491.3"/>
</a>
</g>
</g>
<!-- Node15 -->
<g id="Node000015" class="node">
<title>Node15</title>
<g id="a_Node000015"><a xlink:href="../../de/dde/namespaceace_1_1utils.html#a878c53ede8589dbc6a50734c9c4ad4d7" target="_top" xlink:title="Checks if the value is within some range.">
<polygon fill="white" stroke="#666666" points="917.62,-474 813.12,-474 813.12,-454 917.62,-454 917.62,-474"/>
<text text-anchor="middle" x="865.38" y="-460.5" font-family="Helvetica,sans-Serif" font-size="10.00">ace::utils::isInRange</text>
</a>
</g>
</g>
<!-- Node13&#45;&gt;Node15 -->
<g id="edge19_Node000013_Node000015" class="edge">
<title>Node13&#45;&gt;Node15</title>
<g id="a_edge19_Node000013_Node000015"><a xlink:title=" ">
<path fill="none" stroke="#63b8ff" d="M697.34,-398.41C717.87,-411 754.37,-432.09 788,-445 793.21,-447 798.7,-448.84 804.25,-450.53"/>
<polygon fill="#63b8ff" stroke="#63b8ff" points="802.9,-453.79 813.48,-453.17 804.82,-447.06 802.9,-453.79"/>
</a>
</g>
</g>
<!-- Node16 -->
<g id="Node000016" class="node">
<title>Node16</title>
<g id="a_Node000016"><a xlink:href="../../da/dea/struct_a_e_log_entry.html#a42447b345f72f22ec655556af2db7c28" target="_top" xlink:title="Allocates the queue of the given size on the heap and returns the pointer to it&#39;s first node.">
<polygon fill="white" stroke="#666666" points="928.88,-436 801.88,-436 801.88,-416 928.88,-416 928.88,-436"/>
<text text-anchor="middle" x="865.38" y="-422.5" font-family="Helvetica,sans-Serif" font-size="10.00">AELogEntry::makeQueue</text>
</a>
</g>
</g>
<!-- Node13&#45;&gt;Node16 -->
<g id="edge20_Node000013_Node000016" class="edge">
<title>Node13&#45;&gt;Node16</title>
<g id="a_edge20_Node000013_Node000016"><a xlink:title=" ">
<path fill="none" stroke="#63b8ff" d="M731.5,-398.48C753.57,-403.05 779.63,-408.45 802.8,-413.25"/>
<polygon fill="#63b8ff" stroke="#63b8ff" points="801.93,-416.64 812.43,-415.24 803.35,-409.79 801.93,-416.64"/>
</a>
</g>
</g>
<!-- Node17 -->
<g id="Node000017" class="node">
<title>Node17</title>
<g id="a_Node000017"><a xlink:href="../../d8/dfc/class_a_e_logger.html#af4bff840ffdcfcb5ecb1251fddbf9690" target="_top" xlink:title="Checks for the given index number and returns the pointer in the queue of log entries.">
<polygon fill="white" stroke="#666666" points="926.25,-398 804.5,-398 804.5,-378 926.25,-378 926.25,-398"/>
<text text-anchor="middle" x="865.38" y="-384.5" font-family="Helvetica,sans-Serif" font-size="10.00">AELogger::ptrFromIndex</text>
</a>
</g>
</g>
<!-- Node13&#45;&gt;Node17 -->
<g id="edge21_Node000013_Node000017" class="edge">
<title>Node13&#45;&gt;Node17</title>
<g id="a_edge21_Node000013_Node000017"><a xlink:title=" ">
<path fill="none" stroke="#63b8ff" d="M735.93,-388C753.85,-388 774,-388 792.94,-388"/>
<polygon fill="#63b8ff" stroke="#63b8ff" points="792.72,-391.5 802.72,-388 792.72,-384.5 792.72,-391.5"/>
</a>
</g>
</g>
<!-- Node18 -->
<g id="Node000018" class="node">
<title>Node18</title>
<g id="a_Node000018"><a xlink:href="../../d8/dfc/class_a_e_logger.html#a50dfd96a74d13471faebd4de499db5bf" target="_top" xlink:title="Request a debug log entry to be written to the opened log file.">
<polygon fill="white" stroke="#666666" points="934.88,-360 795.88,-360 795.88,-340 934.88,-340 934.88,-360"/>
<text text-anchor="middle" x="865.38" y="-346.5" font-family="Helvetica,sans-Serif" font-size="10.00">AELogger::writeToLogDebug</text>
</a>
</g>
</g>
<!-- Node13&#45;&gt;Node18 -->
<g id="edge22_Node000013_Node000018" class="edge">
<title>Node13&#45;&gt;Node18</title>
<g id="a_edge22_Node000013_Node000018"><a xlink:title=" ">
<path fill="none" stroke="#63b8ff" d="M707.56,-377.55C727.83,-371.93 756.82,-365.34 784.38,-359.87"/>
<polygon fill="#63b8ff" stroke="#63b8ff" points="785.03,-363.3 794.18,-357.96 783.69,-356.43 785.03,-363.3"/>
</a>
</g>
</g>
<!-- Node18&#45;&gt;Node13 -->
<g id="edge23_Node000018_Node000013" class="edge">
<title>Node18&#45;&gt;Node13</title>
<g id="a_edge23_Node000018_Node000013"><a xlink:title=" ">
<path fill="none" stroke="#63b8ff" d="M837.74,-360.44C814.08,-366.99 778.52,-374.89 747.23,-380.77"/>
<polygon fill="#63b8ff" stroke="#63b8ff" points="746.63,-377.33 737.42,-382.57 747.89,-384.21 746.63,-377.33"/>
</a>
</g>
</g>
<!-- Node20 -->
<g id="Node000020" class="node">
<title>Node20</title>
<g id="a_Node000020"><a xlink:href="../../db/d15/class_a_e_file_writer.html#a0c238267ee45ca15672d4e9246cdca2c" target="_top" xlink:title="Flushes the opened file.">
<polygon fill="white" stroke="#666666" points="922.12,-110 808.62,-110 808.62,-90 922.12,-90 922.12,-110"/>
<text text-anchor="middle" x="865.38" y="-96.5" font-family="Helvetica,sans-Serif" font-size="10.00">AEFileWriter::flushFile</text>
</a>
</g>
</g>
<!-- Node19&#45;&gt;Node20 -->
<g id="edge25_Node000019_Node000020" class="edge">
<title>Node19&#45;&gt;Node20</title>
<g id="a_edge25_Node000019_Node000020"><a xlink:title=" ">
<path fill="none" stroke="#63b8ff" d="M752.35,-88.4C766.96,-89.91 782.29,-91.5 796.76,-93"/>
<polygon fill="#63b8ff" stroke="#63b8ff" points="796.34,-96.47 806.64,-94.02 797.06,-89.51 796.34,-96.47"/>
</a>
</g>
</g>
<!-- Node21 -->
<g id="Node000021" class="node">
<title>Node21</title>
<g id="a_Node000021"><a xlink:href="../../da/dea/struct_a_e_log_entry.html#ab803ea47d06098feab470f265498f617" target="_top" xlink:title="Formats the passed entry to the given c&#45;string.">
<polygon fill="white" stroke="#666666" points="927.75,-63 803,-63 803,-43 927.75,-43 927.75,-63"/>
<text text-anchor="middle" x="865.38" y="-49.5" font-family="Helvetica,sans-Serif" font-size="10.00">AELogEntry::formatEntry</text>
</a>
</g>
</g>
<!-- Node19&#45;&gt;Node21 -->
<g id="edge26_Node000019_Node000021" class="edge">
<title>Node19&#45;&gt;Node21</title>
<g id="a_edge26_Node000019_Node000021"><a xlink:title=" ">
<path fill="none" stroke="#63b8ff" d="M749.46,-70.53C763.2,-68.44 777.68,-66.23 791.55,-64.11"/>
<polygon fill="#63b8ff" stroke="#63b8ff" points="791.67,-67.64 801.02,-62.67 790.61,-60.72 791.67,-67.64"/>
</a>
</g>
</g>
<!-- Node24 -->
<g id="Node000024" class="node">
<title>Node24</title>
<g id="a_Node000024"><a xlink:href="../../db/d15/class_a_e_file_writer.html#a01d537821c5760615e126f1c159b67da" target="_top" xlink:title="Write binary data, as is, to file, and flush if necessary.">
<polygon fill="white" stroke="#666666" points="932.62,-20 798.12,-20 798.12,0 932.62,0 932.62,-20"/>
<text text-anchor="middle" x="865.38" y="-6.5" font-family="Helvetica,sans-Serif" font-size="10.00">AEFileWriter::writeData_ptr</text>
</a>
</g>
</g>
<!-- Node19&#45;&gt;Node24 -->
<g id="edge29_Node000019_Node000024" class="edge">
<title>Node19&#45;&gt;Node24</title>
<g id="a_edge29_Node000019_Node000024"><a xlink:title=" ">
<path fill="none" stroke="#63b8ff" d="M702.74,-70.57C724.19,-60.53 757.96,-45.27 788,-34 797.45,-30.45 807.69,-26.99 817.51,-23.84"/>
<polygon fill="#63b8ff" stroke="#63b8ff" points="818.42,-27.22 826.91,-20.89 816.32,-20.54 818.42,-27.22"/>
</a>
</g>
</g>
<!-- Node22 -->
<g id="Node000022" class="node">
<title>Node22</title>
<g id="a_Node000022"><a xlink:href="../../de/dde/namespaceace_1_1utils.html#a2458b79e1a70255b471414a4bb5680ce" target="_top" xlink:title="Formats the current **(c)time point as YYYY&#45;MM&#45;DD.HH:mm:SS string**.">
<polygon fill="white" stroke="#666666" points="1097.88,-44 988.88,-44 988.88,-24 1097.88,-24 1097.88,-44"/>
<text text-anchor="middle" x="1043.38" y="-30.5" font-family="Helvetica,sans-Serif" font-size="10.00">ace::utils::formatDate</text>
</a>
</g>
</g>
<!-- Node21&#45;&gt;Node22 -->
<g id="edge27_Node000021_Node000022" class="edge">
<title>Node21&#45;&gt;Node22</title>
<g id="a_edge27_Node000021_Node000022"><a xlink:title=" ">
<path fill="none" stroke="#63b8ff" d="M927.93,-46.35C943.96,-44.62 961.28,-42.75 977.47,-41.01"/>
<polygon fill="#63b8ff" stroke="#63b8ff" points="977.4,-44.53 986.97,-39.98 976.65,-37.57 977.4,-44.53"/>
</a>
</g>
</g>
<!-- Node23 -->
<g id="Node000023" class="node">
<title>Node23</title>
<g id="a_Node000023"><a xlink:href="../../da/dea/struct_a_e_log_entry.html#a958d25c57a94cfae8e7f31843e6c63ef" target="_top" xlink:title="Deduces the entry&#39;s log type and returns a c&#45;string of it.">
<polygon fill="white" stroke="#666666" points="1108,-82 978.75,-82 978.75,-62 1108,-62 1108,-82"/>
<text text-anchor="middle" x="1043.38" y="-68.5" font-family="Helvetica,sans-Serif" font-size="10.00">AELogEntry::typeToString</text>
</a>
</g>
</g>
<!-- Node21&#45;&gt;Node23 -->
<g id="edge28_Node000021_Node000023" class="edge">
<title>Node21&#45;&gt;Node23</title>
<g id="a_edge28_Node000021_Node000023"><a xlink:title=" ">
<path fill="none" stroke="#63b8ff" d="M927.93,-59.65C940.58,-61.01 954.04,-62.46 967.11,-63.87"/>
<polygon fill="#63b8ff" stroke="#63b8ff" points="966.64,-67.34 976.96,-64.94 967.39,-60.39 966.64,-67.34"/>
</a>
</g>
</g>
<!-- Node25&#45;&gt;Node2 -->
<g id="edge37_Node000025_Node000002" class="edge">
<title>Node25&#45;&gt;Node2</title>
<g id="a_edge37_Node000025_Node000002"><a xlink:title=" ">
<path fill="none" stroke="#63b8ff" d="M516,-167.35C537.08,-179.69 574.11,-200.34 607.75,-214 669.73,-239.17 689.17,-234.03 752,-257 774.64,-265.28 799.24,-275.82 819.64,-285"/>
<polygon fill="#63b8ff" stroke="#63b8ff" points="817.96,-288.09 828.51,-289.04 820.86,-281.71 817.96,-288.09"/>
</a>
</g>
</g>
<!-- Node25&#45;&gt;Node13 -->
<g id="edge40_Node000025_Node000013" class="edge">
<title>Node25&#45;&gt;Node13</title>
<g id="a_edge40_Node000025_Node000013"><a xlink:title=" ">
<path fill="none" stroke="#63b8ff" d="M506.72,-167.22C534.5,-202.85 627.32,-321.88 663.88,-368.78"/>
<polygon fill="#63b8ff" stroke="#63b8ff" points="660.95,-370.7 669.86,-376.44 666.47,-366.4 660.95,-370.7"/>
</a>
</g>
</g>
<!-- Node25&#45;&gt;Node19 -->
<g id="edge41_Node000025_Node000019" class="edge">
<title>Node25&#45;&gt;Node19</title>
<g id="a_edge41_Node000025_Node000019"><a xlink:title=" ">
<path fill="none" stroke="#63b8ff" d="M518.52,-146.69C540.11,-135.63 575.89,-117.92 607.75,-105 616.34,-101.52 625.64,-98.12 634.6,-95.03"/>
<polygon fill="#63b8ff" stroke="#63b8ff" points="635.49,-98.42 643.85,-91.9 633.26,-91.78 635.49,-98.42"/>
</a>
</g>
</g>
<!-- Node25&#45;&gt;Node20 -->
<g id="edge35_Node000025_Node000020" class="edge">
<title>Node25&#45;&gt;Node20</title>
<g id="a_edge35_Node000025_Node000020"><a xlink:title=" ">
<path fill="none" stroke="#63b8ff" d="M557.25,-146.52C573.58,-143.67 591.35,-140.64 607.75,-138 671.82,-127.67 745.08,-116.93 796.87,-109.51"/>
<polygon fill="#63b8ff" stroke="#63b8ff" points="797.34,-112.98 806.74,-108.1 796.35,-106.05 797.34,-112.98"/>
</a>
</g>
</g>
<!-- Node25&#45;&gt;Node21 -->
<g id="edge36_Node000025_Node000021" class="edge">
<title>Node25&#45;&gt;Node21</title>
<g id="a_edge36_Node000025_Node000021"><a xlink:title=" ">
<path fill="none" stroke="#63b8ff" d="M506.36,-146.77C522.4,-126.16 561.99,-80.07 607.75,-62 666.37,-38.86 738.51,-38.53 791.36,-42.88"/>
<polygon fill="#63b8ff" stroke="#63b8ff" points="790.89,-46.35 801.16,-43.77 791.52,-39.38 790.89,-46.35"/>
</a>
</g>
</g>
<!-- Node25&#45;&gt;Node24 -->
<g id="edge39_Node000025_Node000024" class="edge">
<title>Node25&#45;&gt;Node24</title>
<g id="a_edge39_Node000025_Node000024"><a xlink:title=" ">
<path fill="none" stroke="#63b8ff" d="M504.48,-146.67C518.49,-122.56 557.04,-62.7 607.75,-37 662.94,-9.03 733.28,-3.38 786.35,-4.11"/>
<polygon fill="#63b8ff" stroke="#63b8ff" points="786.15,-7.6 796.23,-4.33 786.31,-0.61 786.15,-7.6"/>
</a>
</g>
</g>
<!-- Node26 -->
<g id="Node000026" class="node">
<title>Node26</title>
<g id="a_Node000026"><a xlink:href="../../da/dea/struct_a_e_log_entry.html#a58aeadbca0c2c0863b534a52d40d22a8" target="_top" xlink:title="Clears the current entry and sets its values to zero/invalid.">
<polygon fill="white" stroke="#666666" points="739.25,-205 620.5,-205 620.5,-185 739.25,-185 739.25,-205"/>
<text text-anchor="middle" x="679.88" y="-191.5" font-family="Helvetica,sans-Serif" font-size="10.00">AELogEntry::clearEntry</text>
</a>
</g>
</g>
<!-- Node25&#45;&gt;Node26 -->
<g id="edge34_Node000025_Node000026" class="edge">
<title>Node25&#45;&gt;Node26</title>
<g id="a_edge34_Node000025_Node000026"><a xlink:title=" ">
<path fill="none" stroke="#63b8ff" d="M548.45,-167.48C570,-172.03 595.45,-177.4 618.12,-182.18"/>
<polygon fill="#63b8ff" stroke="#63b8ff" points="617.35,-185.6 627.86,-184.24 618.8,-178.75 617.35,-185.6"/>
</a>
</g>
</g>
<!-- Node27 -->
<g id="Node000027" class="node">
<title>Node27</title>
<g id="a_Node000027"><a xlink:href="../../de/dde/namespaceace_1_1utils.html#ae3cab8babc7164fe97d71c65b247e848" target="_top" xlink:title="Convenient sleep function to sleep the thread for microseconds.">
<polygon fill="white" stroke="#666666" points="729.12,-167 630.62,-167 630.62,-147 729.12,-147 729.12,-167"/>
<text text-anchor="middle" x="679.88" y="-153.5" font-family="Helvetica,sans-Serif" font-size="10.00">ace::utils::sleepUS</text>
</a>
</g>
</g>
<!-- Node25&#45;&gt;Node27 -->
<g id="edge38_Node000025_Node000027" class="edge">
<title>Node25&#45;&gt;Node27</title>
<g id="a_edge38_Node000025_Node000027"><a xlink:title=" ">
<path fill="none" stroke="#63b8ff" d="M564.54,-157C582.35,-157 601.53,-157 618.99,-157"/>
<polygon fill="#63b8ff" stroke="#63b8ff" points="618.67,-160.5 628.67,-157 618.67,-153.5 618.67,-160.5"/>
</a>
</g>
</g>
</g>
</svg>
