<?xml version="1.0" encoding="UTF-8" standalone="no"?>
<!DOCTYPE svg PUBLIC "-//W3C//DTD SVG 1.1//EN"
 "http://www.w3.org/Graphics/SVG/1.1/DTD/svg11.dtd">
<!-- Generated by graphviz version 10.0.1 (20240210.2158)
 -->
<!-- Title: AELogger::writeToLogDebug Pages: 1 -->
<svg width="780pt" height="230pt"
 viewBox="0.00 0.00 780.25 230.00" xmlns="http://www.w3.org/2000/svg" xmlns:xlink="http://www.w3.org/1999/xlink">
<g id="graph0" class="graph" transform="scale(1 1) rotate(0) translate(4 226)">
<title>AELogger::writeToLogDebug</title>
<!-- Node1 -->
<g id="Node000001" class="node">
<title>Node1</title>
<g id="a_Node000001"><a xlink:title="Request a debug log entry to be written to the opened log file.">
<polygon fill="#999999" stroke="#666666" points="139,-115 0,-115 0,-95 139,-95 139,-115"/>
<text text-anchor="middle" x="69.5" y="-101.5" font-family="Helvetica,sans-Serif" font-size="10.00">AELogger::writeToLogDebug</text>
</a>
</g>
</g>
<!-- Node2 -->
<g id="Node000002" class="node">
<title>Node2</title>
<g id="a_Node000002"><a xlink:href="../../d8/dfc/class_a_e_logger.html#ac533941173224cb21fe09326726ce754" target="_top" xlink:title="Request a log entry to be written to the opened log file.">
<polygon fill="white" stroke="#666666" points="286.25,-115 175,-115 175,-95 286.25,-95 286.25,-115"/>
<text text-anchor="middle" x="230.62" y="-101.5" font-family="Helvetica,sans-Serif" font-size="10.00">AELogger::writeToLog</text>
</a>
</g>
</g>
<!-- Node1&#45;&gt;Node2 -->
<g id="edge1_Node000001_Node000002" class="edge">
<title>Node1&#45;&gt;Node2</title>
<g id="a_edge1_Node000001_Node000002"><a xlink:title=" ">
<path fill="none" stroke="#63b8ff" d="M139.37,-98.3C147.27,-98.22 155.31,-98.23 163.18,-98.33"/>
<polygon fill="#63b8ff" stroke="#63b8ff" points="162.97,-101.83 173.03,-98.51 163.1,-94.83 162.97,-101.83"/>
</a>
</g>
</g>
<!-- Node2&#45;&gt;Node1 -->
<g id="edge10_Node000002_Node000001" class="edge">
<title>Node2&#45;&gt;Node1</title>
<g id="a_edge10_Node000002_Node000001"><a xlink:title=" ">
<path fill="none" stroke="#63b8ff" d="M174.55,-111.46C166.84,-111.65 158.79,-111.74 150.73,-111.75"/>
<polygon fill="#63b8ff" stroke="#63b8ff" points="150.9,-108.25 140.88,-111.7 150.87,-115.25 150.9,-108.25"/>
</a>
</g>
</g>
<!-- Node3 -->
<g id="Node000003" class="node">
<title>Node3</title>
<g id="a_Node000003"><a xlink:href="../../d0/d8a/class_____a_e_module_base.html#a625c82f27195de3f9ab5af4fc7437e2f" target="_top" xlink:title="Get the name of the module">
<polygon fill="white" stroke="#666666" points="477,-222 322.25,-222 322.25,-190 477,-190 477,-222"/>
<text text-anchor="start" x="330.25" y="-208.5" font-family="Helvetica,sans-Serif" font-size="10.00">__AEModuleBase&lt; AELogger &gt;</text>
<text text-anchor="middle" x="399.62" y="-196.5" font-family="Helvetica,sans-Serif" font-size="10.00">::getModuleName</text>
</a>
</g>
</g>
<!-- Node2&#45;&gt;Node3 -->
<g id="edge2_Node000002_Node000003" class="edge">
<title>Node2&#45;&gt;Node3</title>
<g id="a_edge2_Node000002_Node000003"><a xlink:title=" ">
<path fill="none" stroke="#63b8ff" d="M241.26,-115.3C256.85,-131.42 289.22,-162.65 322.25,-181 324.76,-182.39 327.36,-183.72 330.01,-184.99"/>
<polygon fill="#63b8ff" stroke="#63b8ff" points="328.54,-188.17 339.1,-188.98 331.35,-181.76 328.54,-188.17"/>
</a>
</g>
</g>
<!-- Node4 -->
<g id="Node000004" class="node">
<title>Node4</title>
<g id="a_Node000004"><a xlink:href="../../de/dde/namespaceace_1_1utils.html#ac3eadc5f289b54059322023f3c5eed96" target="_top" xlink:title="Checks if the passed string is alpha&#45;numeric with underscores (contains only numbers,...">
<polygon fill="white" stroke="#666666" points="454.88,-172 344.38,-172 344.38,-152 454.88,-152 454.88,-172"/>
<text text-anchor="middle" x="399.62" y="-158.5" font-family="Helvetica,sans-Serif" font-size="10.00">ace::utils::isAlNumUs</text>
</a>
</g>
</g>
<!-- Node2&#45;&gt;Node4 -->
<g id="edge3_Node000002_Node000004" class="edge">
<title>Node2&#45;&gt;Node4</title>
<g id="a_edge3_Node000002_Node000004"><a xlink:title=" ">
<path fill="none" stroke="#63b8ff" d="M253.61,-115.34C271.74,-123.59 298.29,-135.05 322.25,-143 328.31,-145.01 334.71,-146.92 341.12,-148.7"/>
<polygon fill="#63b8ff" stroke="#63b8ff" points="339.83,-151.98 350.39,-151.18 341.63,-145.22 339.83,-151.98"/>
</a>
</g>
</g>
<!-- Node5 -->
<g id="Node000005" class="node">
<title>Node5</title>
<g id="a_Node000005"><a xlink:href="../../d8/dfc/class_a_e_logger.html#a4d512bf9f4d0a6a1b6a332b9c99e22ac" target="_top" xlink:title="Checks if a log file isn&#39;t open by this logger.">
<polygon fill="white" stroke="#666666" points="450.75,-134 348.5,-134 348.5,-114 450.75,-114 450.75,-134"/>
<text text-anchor="middle" x="399.62" y="-120.5" font-family="Helvetica,sans-Serif" font-size="10.00">AELogger::isClosed</text>
</a>
</g>
</g>
<!-- Node2&#45;&gt;Node5 -->
<g id="edge4_Node000002_Node000005" class="edge">
<title>Node2&#45;&gt;Node5</title>
<g id="a_edge4_Node000002_Node000005"><a xlink:title=" ">
<path fill="none" stroke="#63b8ff" d="M286.31,-111.22C302.46,-113.06 320.25,-115.08 336.82,-116.97"/>
<polygon fill="#63b8ff" stroke="#63b8ff" points="336.23,-120.42 346.56,-118.08 337.02,-113.47 336.23,-120.42"/>
</a>
</g>
</g>
<!-- Node8 -->
<g id="Node000008" class="node">
<title>Node8</title>
<g id="a_Node000008"><a xlink:href="../../de/dde/namespaceace_1_1utils.html#a878c53ede8589dbc6a50734c9c4ad4d7" target="_top" xlink:title="Checks if the value is within some range.">
<polygon fill="white" stroke="#666666" points="451.88,-96 347.38,-96 347.38,-76 451.88,-76 451.88,-96"/>
<text text-anchor="middle" x="399.62" y="-82.5" font-family="Helvetica,sans-Serif" font-size="10.00">ace::utils::isInRange</text>
</a>
</g>
</g>
<!-- Node2&#45;&gt;Node8 -->
<g id="edge7_Node000002_Node000008" class="edge">
<title>Node2&#45;&gt;Node8</title>
<g id="a_edge7_Node000002_Node000008"><a xlink:title=" ">
<path fill="none" stroke="#63b8ff" d="M286.31,-98.78C302.15,-96.98 319.57,-94.99 335.87,-93.14"/>
<polygon fill="#63b8ff" stroke="#63b8ff" points="335.9,-96.66 345.44,-92.05 335.1,-89.7 335.9,-96.66"/>
</a>
</g>
</g>
<!-- Node9 -->
<g id="Node000009" class="node">
<title>Node9</title>
<g id="a_Node000009"><a xlink:href="../../da/dea/struct_a_e_log_entry.html#a42447b345f72f22ec655556af2db7c28" target="_top" xlink:title="Allocates the queue of the given size on the heap and returns the pointer to it&#39;s first node.">
<polygon fill="white" stroke="#666666" points="463.12,-58 336.12,-58 336.12,-38 463.12,-38 463.12,-58"/>
<text text-anchor="middle" x="399.62" y="-44.5" font-family="Helvetica,sans-Serif" font-size="10.00">AELogEntry::makeQueue</text>
</a>
</g>
</g>
<!-- Node2&#45;&gt;Node9 -->
<g id="edge8_Node000002_Node000009" class="edge">
<title>Node2&#45;&gt;Node9</title>
<g id="a_edge8_Node000002_Node000009"><a xlink:title=" ">
<path fill="none" stroke="#63b8ff" d="M253.61,-94.66C271.74,-86.41 298.29,-74.95 322.25,-67 328.31,-64.99 334.71,-63.08 341.12,-61.3"/>
<polygon fill="#63b8ff" stroke="#63b8ff" points="341.63,-64.78 350.39,-58.82 339.83,-58.02 341.63,-64.78"/>
</a>
</g>
</g>
<!-- Node10 -->
<g id="Node000010" class="node">
<title>Node10</title>
<g id="a_Node000010"><a xlink:href="../../d8/dfc/class_a_e_logger.html#af4bff840ffdcfcb5ecb1251fddbf9690" target="_top" xlink:title="Checks for the given index number and returns the pointer in the queue of log entries.">
<polygon fill="white" stroke="#666666" points="460.5,-20 338.75,-20 338.75,0 460.5,0 460.5,-20"/>
<text text-anchor="middle" x="399.62" y="-6.5" font-family="Helvetica,sans-Serif" font-size="10.00">AELogger::ptrFromIndex</text>
</a>
</g>
</g>
<!-- Node2&#45;&gt;Node10 -->
<g id="edge9_Node000002_Node000010" class="edge">
<title>Node2&#45;&gt;Node10</title>
<g id="a_edge9_Node000002_Node000010"><a xlink:title=" ">
<path fill="none" stroke="#63b8ff" d="M240.86,-94.68C256.14,-78.25 288.4,-46.23 322.25,-29 325.7,-27.24 329.33,-25.64 333.05,-24.18"/>
<polygon fill="#63b8ff" stroke="#63b8ff" points="333.99,-27.56 342.27,-20.94 331.67,-20.95 333.99,-27.56"/>
</a>
</g>
</g>
<!-- Node6 -->
<g id="Node000006" class="node">
<title>Node6</title>
<g id="a_Node000006"><a xlink:href="../../db/d15/class_a_e_file_writer.html#a0743145db01b527ae9612f359e5c0090" target="_top" xlink:title="Checks if a file isn&#39;t open by this file&#45;writer.">
<polygon fill="white" stroke="#666666" points="628,-134 513,-134 513,-114 628,-114 628,-134"/>
<text text-anchor="middle" x="570.5" y="-120.5" font-family="Helvetica,sans-Serif" font-size="10.00">AEFileWriter::isClosed</text>
</a>
</g>
</g>
<!-- Node5&#45;&gt;Node6 -->
<g id="edge5_Node000005_Node000006" class="edge">
<title>Node5&#45;&gt;Node6</title>
<g id="a_edge5_Node000005_Node000006"><a xlink:title=" ">
<path fill="none" stroke="#63b8ff" d="M450.84,-124C466.64,-124 484.36,-124 501.19,-124"/>
<polygon fill="#63b8ff" stroke="#63b8ff" points="501.16,-127.5 511.16,-124 501.16,-120.5 501.16,-127.5"/>
</a>
</g>
</g>
<!-- Node7 -->
<g id="Node000007" class="node">
<title>Node7</title>
<g id="a_Node000007"><a xlink:href="../../db/d15/class_a_e_file_writer.html#a47e3c08c276394bce7b612331cf4762d" target="_top" xlink:title="Checks if a file is open by this file&#45;writer.">
<polygon fill="white" stroke="#666666" points="772.25,-134 664,-134 664,-114 772.25,-114 772.25,-134"/>
<text text-anchor="middle" x="718.12" y="-120.5" font-family="Helvetica,sans-Serif" font-size="10.00">AEFileWriter::isOpen</text>
</a>
</g>
</g>
<!-- Node6&#45;&gt;Node7 -->
<g id="edge6_Node000006_Node000007" class="edge">
<title>Node6&#45;&gt;Node7</title>
<g id="a_edge6_Node000006_Node000007"><a xlink:title=" ">
<path fill="none" stroke="#63b8ff" d="M628.22,-124C636.14,-124 644.34,-124 652.4,-124"/>
<polygon fill="#63b8ff" stroke="#63b8ff" points="652.15,-127.5 662.15,-124 652.15,-120.5 652.15,-127.5"/>
</a>
</g>
</g>
</g>
</svg>
