<?xml version="1.0" encoding="UTF-8" standalone="no"?>
<!DOCTYPE svg PUBLIC "-//W3C//DTD SVG 1.1//EN"
 "http://www.w3.org/Graphics/SVG/1.1/DTD/svg11.dtd">
<!-- Generated by graphviz version 10.0.1 (20240210.2158)
 -->
<!-- Title: AELogger::openLog Pages: 1 -->
<svg width="1398pt" height="669pt"
 viewBox="0.00 0.00 1397.75 669.00" xmlns="http://www.w3.org/2000/svg" xmlns:xlink="http://www.w3.org/1999/xlink">
<g id="graph0" class="graph" transform="scale(1 1) rotate(0) translate(4 665)">
<title>AELogger::openLog</title>
<!-- Node1 -->
<g id="Node000001" class="node">
<title>Node1</title>
<g id="a_Node000001"><a xlink:title="Open the file to start logging.">
<polygon fill="#999999" stroke="#666666" points="101.5,-471 0,-471 0,-451 101.5,-451 101.5,-471"/>
<text text-anchor="middle" x="50.75" y="-457.5" font-family="Helvetica,sans-Serif" font-size="10.00">AELogger::openLog</text>
</a>
</g>
</g>
<!-- Node2 -->
<g id="Node000002" class="node">
<title>Node2</title>
<g id="a_Node000002"><a xlink:href="../../d8/dfc/class_a_e_logger.html#a53b588f9874535299d612a4c71de9950" target="_top" xlink:title="Open the file to start logging.">
<polygon fill="white" stroke="#666666" points="239,-471 137.5,-471 137.5,-451 239,-451 239,-471"/>
<text text-anchor="middle" x="188.25" y="-457.5" font-family="Helvetica,sans-Serif" font-size="10.00">AELogger::openLog</text>
</a>
</g>
</g>
<!-- Node1&#45;&gt;Node2 -->
<g id="edge1_Node000001_Node000002" class="edge">
<title>Node1&#45;&gt;Node2</title>
<g id="a_edge1_Node000001_Node000002"><a xlink:title=" ">
<path fill="none" stroke="#63b8ff" d="M101.82,-461C109.71,-461 117.95,-461 126.06,-461"/>
<polygon fill="#63b8ff" stroke="#63b8ff" points="125.87,-464.5 135.87,-461 125.87,-457.5 125.87,-464.5"/>
</a>
</g>
</g>
<!-- Node3 -->
<g id="Node000003" class="node">
<title>Node3</title>
<g id="a_Node000003"><a xlink:href="../../d0/d8a/class_____a_e_module_base.html#a625c82f27195de3f9ab5af4fc7437e2f" target="_top" xlink:title="Get the name of the module">
<polygon fill="white" stroke="#666666" points="1080.25,-322 925.5,-322 925.5,-290 1080.25,-290 1080.25,-322"/>
<text text-anchor="start" x="933.5" y="-308.5" font-family="Helvetica,sans-Serif" font-size="10.00">__AEModuleBase&lt; AELogger &gt;</text>
<text text-anchor="middle" x="1002.88" y="-296.5" font-family="Helvetica,sans-Serif" font-size="10.00">::getModuleName</text>
</a>
</g>
</g>
<!-- Node2&#45;&gt;Node3 -->
<g id="edge2_Node000002_Node000003" class="edge">
<title>Node2&#45;&gt;Node3</title>
<g id="a_edge2_Node000002_Node000003"><a xlink:title=" ">
<path fill="none" stroke="#63b8ff" d="M196.95,-450.51C227.18,-410.68 342.44,-271 472.38,-271 472.38,-271 472.38,-271 636.25,-271 731.48,-271 840.02,-282.91 913.94,-292.83"/>
<polygon fill="#63b8ff" stroke="#63b8ff" points="913.16,-296.26 923.54,-294.14 914.11,-289.33 913.16,-296.26"/>
</a>
</g>
</g>
<!-- Node4 -->
<g id="Node000004" class="node">
<title>Node4</title>
<g id="a_Node000004"><a xlink:href="../../db/d15/class_a_e_file_writer.html#a939fe602eecb15ba71448a9de13bb2c0" target="_top" xlink:title="Open(and create) file with given name and flag.">
<polygon fill="white" stroke="#666666" points="1060,-623 945.75,-623 945.75,-603 1060,-603 1060,-623"/>
<text text-anchor="middle" x="1002.88" y="-609.5" font-family="Helvetica,sans-Serif" font-size="10.00">AEFileWriter::openFile</text>
</a>
</g>
</g>
<!-- Node2&#45;&gt;Node4 -->
<g id="edge3_Node000002_Node000004" class="edge">
<title>Node2&#45;&gt;Node4</title>
<g id="a_edge3_Node000002_Node000004"><a xlink:title=" ">
<path fill="none" stroke="#63b8ff" d="M199.48,-471.45C234.26,-505.79 352.43,-613 472.38,-613 472.38,-613 472.38,-613 636.25,-613 740.19,-613 860.74,-613 934.14,-613"/>
<polygon fill="#63b8ff" stroke="#63b8ff" points="933.99,-616.5 943.99,-613 933.99,-609.5 933.99,-616.5"/>
</a>
</g>
</g>
<!-- Node8 -->
<g id="Node000008" class="node">
<title>Node8</title>
<g id="a_Node000008"><a xlink:href="../../d8/dfc/class_a_e_logger.html#a284034896688215f7e87242764c5985d" target="_top" xlink:title="Starts the log&#45;writing thread.">
<polygon fill="white" stroke="#666666" points="385.5,-395 275,-395 275,-375 385.5,-375 385.5,-395"/>
<text text-anchor="middle" x="330.25" y="-381.5" font-family="Helvetica,sans-Serif" font-size="10.00">AELogger::startWriter</text>
</a>
</g>
</g>
<!-- Node2&#45;&gt;Node8 -->
<g id="edge8_Node000002_Node000008" class="edge">
<title>Node2&#45;&gt;Node8</title>
<g id="a_edge8_Node000002_Node000008"><a xlink:title=" ">
<path fill="none" stroke="#63b8ff" d="M208.42,-450.59C232.2,-437.69 272.94,-415.57 300.47,-400.62"/>
<polygon fill="#63b8ff" stroke="#63b8ff" points="301.86,-403.85 308.98,-396 298.52,-397.7 301.86,-403.85"/>
</a>
</g>
</g>
<!-- Node14 -->
<g id="Node000014" class="node">
<title>Node14</title>
<g id="a_Node000014"><a xlink:href="../../d8/dfc/class_a_e_logger.html#ac533941173224cb21fe09326726ce754" target="_top" xlink:title="Request a log entry to be written to the opened log file.">
<polygon fill="white" stroke="#666666" points="873,-398 761.75,-398 761.75,-378 873,-378 873,-398"/>
<text text-anchor="middle" x="817.38" y="-384.5" font-family="Helvetica,sans-Serif" font-size="10.00">AELogger::writeToLog</text>
</a>
</g>
</g>
<!-- Node2&#45;&gt;Node14 -->
<g id="edge44_Node000002_Node000014" class="edge">
<title>Node2&#45;&gt;Node14</title>
<g id="a_edge44_Node000002_Node000014"><a xlink:title=" ">
<path fill="none" stroke="#63b8ff" d="M211.66,-471.44C286.48,-504.71 532.86,-601.21 709.25,-518 757.54,-495.22 791.44,-438.81 806.91,-408.32"/>
<polygon fill="#63b8ff" stroke="#63b8ff" points="809.86,-410.26 811.11,-399.74 803.57,-407.19 809.86,-410.26"/>
</a>
</g>
</g>
<!-- Node5 -->
<g id="Node000005" class="node">
<title>Node5</title>
<g id="a_Node000005"><a xlink:href="../../de/dde/namespaceace_1_1utils.html#a6eb2322353edc04f78dbc3589e60d98c" target="_top" xlink:title="A wrapper to make the proper cross&#45;compiler version of fopen() Opens the file with given name and fla...">
<polygon fill="white" stroke="#666666" points="1230.12,-661 1131.62,-661 1131.62,-641 1230.12,-641 1230.12,-661"/>
<text text-anchor="middle" x="1180.88" y="-647.5" font-family="Helvetica,sans-Serif" font-size="10.00">ace::utils::fopenCC</text>
</a>
</g>
</g>
<!-- Node4&#45;&gt;Node5 -->
<g id="edge4_Node000004_Node000005" class="edge">
<title>Node4&#45;&gt;Node5</title>
<g id="a_edge4_Node000004_Node000005"><a xlink:title=" ">
<path fill="none" stroke="#63b8ff" d="M1052.43,-623.48C1073.5,-628.03 1098.36,-633.4 1120.51,-638.18"/>
<polygon fill="#63b8ff" stroke="#63b8ff" points="1119.48,-641.54 1130,-640.23 1120.96,-634.7 1119.48,-641.54"/>
</a>
</g>
</g>
<!-- Node6 -->
<g id="Node000006" class="node">
<title>Node6</title>
<g id="a_Node000006"><a xlink:href="../../db/d15/class_a_e_file_writer.html#a0743145db01b527ae9612f359e5c0090" target="_top" xlink:title="Checks if a file isn&#39;t open by this file&#45;writer.">
<polygon fill="white" stroke="#666666" points="1238.38,-585 1123.38,-585 1123.38,-565 1238.38,-565 1238.38,-585"/>
<text text-anchor="middle" x="1180.88" y="-571.5" font-family="Helvetica,sans-Serif" font-size="10.00">AEFileWriter::isClosed</text>
</a>
</g>
</g>
<!-- Node4&#45;&gt;Node6 -->
<g id="edge5_Node000004_Node000006" class="edge">
<title>Node4&#45;&gt;Node6</title>
<g id="a_edge5_Node000004_Node000006"><a xlink:title=" ">
<path fill="none" stroke="#63b8ff" d="M1052.43,-602.52C1073.5,-597.97 1098.36,-592.6 1120.51,-587.82"/>
<polygon fill="#63b8ff" stroke="#63b8ff" points="1120.96,-591.3 1130,-585.77 1119.48,-584.46 1120.96,-591.3"/>
</a>
</g>
</g>
<!-- Node7 -->
<g id="Node000007" class="node">
<title>Node7</title>
<g id="a_Node000007"><a xlink:href="../../db/d15/class_a_e_file_writer.html#a47e3c08c276394bce7b612331cf4762d" target="_top" xlink:title="Checks if a file is open by this file&#45;writer.">
<polygon fill="white" stroke="#666666" points="1389.75,-604 1281.5,-604 1281.5,-584 1389.75,-584 1389.75,-604"/>
<text text-anchor="middle" x="1335.62" y="-590.5" font-family="Helvetica,sans-Serif" font-size="10.00">AEFileWriter::isOpen</text>
</a>
</g>
</g>
<!-- Node4&#45;&gt;Node7 -->
<g id="edge7_Node000004_Node000007" class="edge">
<title>Node4&#45;&gt;Node7</title>
<g id="a_edge7_Node000004_Node000007"><a xlink:title=" ">
<path fill="none" stroke="#63b8ff" d="M1060.36,-609.76C1118.42,-606.42 1208.73,-601.23 1269.71,-597.73"/>
<polygon fill="#63b8ff" stroke="#63b8ff" points="1269.82,-601.23 1279.6,-597.16 1269.42,-594.24 1269.82,-601.23"/>
</a>
</g>
</g>
<!-- Node6&#45;&gt;Node7 -->
<g id="edge6_Node000006_Node000007" class="edge">
<title>Node6&#45;&gt;Node7</title>
<g id="a_edge6_Node000006_Node000007"><a xlink:title=" ">
<path fill="none" stroke="#63b8ff" d="M1238.75,-582.07C1248.97,-583.35 1259.68,-584.68 1270.1,-585.97"/>
<polygon fill="#63b8ff" stroke="#63b8ff" points="1269.38,-589.41 1279.74,-587.17 1270.25,-582.47 1269.38,-589.41"/>
</a>
</g>
</g>
<!-- Node8&#45;&gt;Node3 -->
<g id="edge33_Node000008_Node000003" class="edge">
<title>Node8&#45;&gt;Node3</title>
<g id="a_edge33_Node000008_Node000003"><a xlink:title=" ">
<path fill="none" stroke="#63b8ff" d="M364.75,-374.53C409.17,-361.15 490.23,-338.47 561.25,-328 682.48,-310.12 824.27,-306 913.58,-305.42"/>
<polygon fill="#63b8ff" stroke="#63b8ff" points="913.52,-308.92 923.51,-305.37 913.49,-301.92 913.52,-308.92"/>
</a>
</g>
</g>
<!-- Node9 -->
<g id="Node000009" class="node">
<title>Node9</title>
<g id="a_Node000009"><a xlink:href="../../d8/dfc/class_a_e_logger.html#a2f64d8f5de2f249f7cb973a82ec1e48a" target="_top" xlink:title="Close the file, if it was opened.">
<polygon fill="white" stroke="#666666" points="525.25,-433 421.5,-433 421.5,-413 525.25,-413 525.25,-433"/>
<text text-anchor="middle" x="473.38" y="-419.5" font-family="Helvetica,sans-Serif" font-size="10.00">AELogger::closeLog</text>
</a>
</g>
</g>
<!-- Node8&#45;&gt;Node9 -->
<g id="edge9_Node000008_Node000009" class="edge">
<title>Node8&#45;&gt;Node9</title>
<g id="a_edge9_Node000008_Node000009"><a xlink:title=" ">
<path fill="none" stroke="#63b8ff" d="M370.19,-395.48C386.38,-399.85 405.38,-404.96 422.58,-409.59"/>
<polygon fill="#63b8ff" stroke="#63b8ff" points="421.54,-412.94 432.1,-412.16 423.36,-406.18 421.54,-412.94"/>
</a>
</g>
</g>
<!-- Node8&#45;&gt;Node14 -->
<g id="edge43_Node000008_Node000014" class="edge">
<title>Node8&#45;&gt;Node14</title>
<g id="a_edge43_Node000008_Node000014"><a xlink:title=" ">
<path fill="none" stroke="#63b8ff" d="M385.96,-385.34C475.61,-385.89 653.48,-386.99 750.12,-387.59"/>
<polygon fill="#63b8ff" stroke="#63b8ff" points="749.96,-391.09 759.98,-387.65 750,-384.09 749.96,-391.09"/>
</a>
</g>
</g>
<!-- Node26 -->
<g id="Node000026" class="node">
<title>Node26</title>
<g id="a_Node000026"><a xlink:href="../../d8/dfc/class_a_e_logger.html#a5938787b6933f4b96ebff10643bd2497" target="_top" xlink:title="The function of the log writing thread to...read the entries, format them, write them,...">
<polygon fill="white" stroke="#666666" points="701.75,-167 568.75,-167 568.75,-147 701.75,-147 701.75,-167"/>
<text text-anchor="middle" x="635.25" y="-153.5" font-family="Helvetica,sans-Serif" font-size="10.00">AELogger::logWriterThread</text>
</a>
</g>
</g>
<!-- Node8&#45;&gt;Node26 -->
<g id="edge34_Node000008_Node000026" class="edge">
<title>Node8&#45;&gt;Node26</title>
<g id="a_edge34_Node000008_Node000026"><a xlink:title=" ">
<path fill="none" stroke="#63b8ff" d="M340.37,-374.58C356,-357.04 389.32,-321.01 421.5,-295 483.21,-245.13 563.48,-197.08 605.59,-173"/>
<polygon fill="#63b8ff" stroke="#63b8ff" points="607.15,-176.14 614.12,-168.16 603.69,-170.05 607.15,-176.14"/>
</a>
</g>
</g>
<!-- Node10 -->
<g id="Node000010" class="node">
<title>Node10</title>
<g id="a_Node000010"><a xlink:href="../../db/d15/class_a_e_file_writer.html#a05ceb471801ae111d68859f9d3b9eb78" target="_top" xlink:title="Closes the currently opened file.">
<polygon fill="white" stroke="#666666" points="693.5,-509 577,-509 577,-489 693.5,-489 693.5,-509"/>
<text text-anchor="middle" x="635.25" y="-495.5" font-family="Helvetica,sans-Serif" font-size="10.00">AEFileWriter::closeFile</text>
</a>
</g>
</g>
<!-- Node9&#45;&gt;Node10 -->
<g id="edge10_Node000009_Node000010" class="edge">
<title>Node9&#45;&gt;Node10</title>
<g id="a_edge10_Node000009_Node000010"><a xlink:title=" ">
<path fill="none" stroke="#63b8ff" d="M487.14,-433.32C503.42,-446.01 532.89,-467.42 561.25,-480 565.49,-481.88 569.96,-483.61 574.51,-485.18"/>
<polygon fill="#63b8ff" stroke="#63b8ff" points="573.16,-488.43 583.75,-488.13 575.29,-481.76 573.16,-488.43"/>
</a>
</g>
</g>
<!-- Node11 -->
<g id="Node000011" class="node">
<title>Node11</title>
<g id="a_Node000011"><a xlink:href="../../db/d15/class_a_e_file_writer.html#a26ea7c97bfdbed142df1863d8d47d895" target="_top" xlink:title="Returns the full name of currently open file, including the relative path, if such was provided.">
<polygon fill="white" stroke="#666666" points="709.25,-471 561.25,-471 561.25,-451 709.25,-451 709.25,-471"/>
<text text-anchor="middle" x="635.25" y="-457.5" font-family="Helvetica,sans-Serif" font-size="10.00">AEFileWriter::getFullFileName</text>
</a>
</g>
</g>
<!-- Node9&#45;&gt;Node11 -->
<g id="edge11_Node000009_Node000011" class="edge">
<title>Node9&#45;&gt;Node11</title>
<g id="a_edge11_Node000009_Node000011"><a xlink:title=" ">
<path fill="none" stroke="#63b8ff" d="M518.48,-433.48C537.27,-437.95 559.38,-443.21 579.22,-447.92"/>
<polygon fill="#63b8ff" stroke="#63b8ff" points="578.27,-451.29 588.81,-450.2 579.89,-444.48 578.27,-451.29"/>
</a>
</g>
</g>
<!-- Node12 -->
<g id="Node000012" class="node">
<title>Node12</title>
<g id="a_Node000012"><a xlink:href="../../d8/dfc/class_a_e_logger.html#a4d512bf9f4d0a6a1b6a332b9c99e22ac" target="_top" xlink:title="Checks if a log file isn&#39;t open by this logger.">
<polygon fill="white" stroke="#666666" points="1054,-585 951.75,-585 951.75,-565 1054,-565 1054,-585"/>
<text text-anchor="middle" x="1002.88" y="-571.5" font-family="Helvetica,sans-Serif" font-size="10.00">AELogger::isClosed</text>
</a>
</g>
</g>
<!-- Node9&#45;&gt;Node12 -->
<g id="edge12_Node000009_Node000012" class="edge">
<title>Node9&#45;&gt;Node12</title>
<g id="a_edge12_Node000009_Node000012"><a xlink:title=" ">
<path fill="none" stroke="#63b8ff" d="M480.42,-433.5C492.72,-453.76 522.78,-498 561.25,-518 684.03,-581.82 851.09,-584.18 940.09,-579.89"/>
<polygon fill="#63b8ff" stroke="#63b8ff" points="940.03,-583.4 949.83,-579.37 939.65,-576.41 940.03,-583.4"/>
</a>
</g>
</g>
<!-- Node13 -->
<g id="Node000013" class="node">
<title>Node13</title>
<g id="a_Node000013"><a xlink:href="../../d8/dfc/class_a_e_logger.html#a53b212c259c40bda694476f09d1f171b" target="_top" xlink:title="Stops the log&#45;writing thread (after flushing the log queue).">
<polygon fill="white" stroke="#666666" points="690.12,-357 580.38,-357 580.38,-337 690.12,-337 690.12,-357"/>
<text text-anchor="middle" x="635.25" y="-343.5" font-family="Helvetica,sans-Serif" font-size="10.00">AELogger::stopWriter</text>
</a>
</g>
</g>
<!-- Node9&#45;&gt;Node13 -->
<g id="edge14_Node000009_Node000013" class="edge">
<title>Node9&#45;&gt;Node13</title>
<g id="a_edge14_Node000009_Node000013"><a xlink:title=" ">
<path fill="none" stroke="#63b8ff" d="M496.27,-412.59C523.7,-399.55 570.91,-377.11 602.36,-362.16"/>
<polygon fill="#63b8ff" stroke="#63b8ff" points="603.47,-365.51 611,-358.05 600.46,-359.19 603.47,-365.51"/>
</a>
</g>
</g>
<!-- Node9&#45;&gt;Node14 -->
<g id="edge31_Node000009_Node000014" class="edge">
<title>Node9&#45;&gt;Node14</title>
<g id="a_edge31_Node000009_Node000014"><a xlink:title=" ">
<path fill="none" stroke="#63b8ff" d="M525.69,-417.76C573.28,-412.91 646.05,-405.47 709.25,-399 722.47,-397.65 736.61,-396.2 750.14,-394.81"/>
<polygon fill="#63b8ff" stroke="#63b8ff" points="750.23,-398.32 759.82,-393.81 749.52,-391.35 750.23,-398.32"/>
</a>
</g>
</g>
<!-- Node20 -->
<g id="Node000020" class="node">
<title>Node20</title>
<g id="a_Node000020"><a xlink:href="../../d8/dfc/class_a_e_logger.html#a54bad71bcfea05c3d17d7ba1bacfec8c" target="_top" xlink:title="Writes to log directly, without thinking of the queue.">
<polygon fill="white" stroke="#666666" points="889.5,-91 745.25,-91 745.25,-71 889.5,-71 889.5,-91"/>
<text text-anchor="middle" x="817.38" y="-77.5" font-family="Helvetica,sans-Serif" font-size="10.00">AELogger::writeToLogDirectly</text>
</a>
</g>
</g>
<!-- Node9&#45;&gt;Node20 -->
<g id="edge32_Node000009_Node000020" class="edge">
<title>Node9&#45;&gt;Node20</title>
<g id="a_edge32_Node000009_Node000020"><a xlink:title=" ">
<path fill="none" stroke="#63b8ff" d="M474.1,-412.55C473.6,-370.94 477.59,-215.53 561.25,-138 607.34,-95.29 678.21,-82.1 733.56,-79"/>
<polygon fill="#63b8ff" stroke="#63b8ff" points="733.43,-82.51 743.26,-78.57 733.11,-75.52 733.43,-82.51"/>
</a>
</g>
</g>
<!-- Node12&#45;&gt;Node6 -->
<g id="edge13_Node000012_Node000006" class="edge">
<title>Node12&#45;&gt;Node6</title>
<g id="a_edge13_Node000012_Node000006"><a xlink:title=" ">
<path fill="none" stroke="#63b8ff" d="M1054.31,-575C1072.14,-575 1092.51,-575 1111.57,-575"/>
<polygon fill="#63b8ff" stroke="#63b8ff" points="1111.42,-578.5 1121.42,-575 1111.42,-571.5 1111.42,-578.5"/>
</a>
</g>
</g>
<!-- Node13&#45;&gt;Node3 -->
<g id="edge15_Node000013_Node000003" class="edge">
<title>Node13&#45;&gt;Node3</title>
<g id="a_edge15_Node000013_Node000003"><a xlink:title=" ">
<path fill="none" stroke="#63b8ff" d="M690.19,-342.76C741.53,-338.52 820.9,-331.43 889.5,-323 897.44,-322.02 905.69,-320.93 913.95,-319.78"/>
<polygon fill="#63b8ff" stroke="#63b8ff" points="914.28,-323.27 923.68,-318.4 913.29,-316.34 914.28,-323.27"/>
</a>
</g>
</g>
<!-- Node13&#45;&gt;Node14 -->
<g id="edge16_Node000013_Node000014" class="edge">
<title>Node13&#45;&gt;Node14</title>
<g id="a_edge16_Node000013_Node000014"><a xlink:title=" ">
<path fill="none" stroke="#63b8ff" d="M682.17,-357.45C705.67,-362.8 734.5,-369.36 759.41,-375.03"/>
<polygon fill="#63b8ff" stroke="#63b8ff" points="758.54,-378.42 769.06,-377.23 760.09,-371.6 758.54,-378.42"/>
</a>
</g>
</g>
<!-- Node13&#45;&gt;Node20 -->
<g id="edge25_Node000013_Node000020" class="edge">
<title>Node13&#45;&gt;Node20</title>
<g id="a_edge25_Node000013_Node000020"><a xlink:title=" ">
<path fill="none" stroke="#63b8ff" d="M639.92,-336.54C651.56,-304.37 690.16,-205.02 745.25,-138 758.07,-122.41 775.77,-108.2 790.31,-97.87"/>
<polygon fill="#63b8ff" stroke="#63b8ff" points="792.26,-100.77 798.52,-92.23 788.3,-95.01 792.26,-100.77"/>
</a>
</g>
</g>
<!-- Node14&#45;&gt;Node3 -->
<g id="edge17_Node000014_Node000003" class="edge">
<title>Node14&#45;&gt;Node3</title>
<g id="a_edge17_Node000014_Node000003"><a xlink:title=" ">
<path fill="none" stroke="#63b8ff" d="M852.72,-377.56C864.75,-373.24 878.1,-367.66 889.5,-361 907.48,-350.49 907.28,-341.09 925.5,-331 928.01,-329.61 930.61,-328.28 933.27,-327.02"/>
<polygon fill="#63b8ff" stroke="#63b8ff" points="934.6,-330.25 942.36,-323.04 931.8,-323.84 934.6,-330.25"/>
</a>
</g>
</g>
<!-- Node14&#45;&gt;Node12 -->
<g id="edge19_Node000014_Node000012" class="edge">
<title>Node14&#45;&gt;Node12</title>
<g id="a_edge19_Node000014_Node000012"><a xlink:title=" ">
<path fill="none" stroke="#63b8ff" d="M825.31,-398.48C841.21,-422.06 882.28,-480.4 925.5,-521 940.65,-535.23 959.74,-548.72 975.04,-558.67"/>
<polygon fill="#63b8ff" stroke="#63b8ff" points="972.88,-561.44 983.19,-563.85 976.63,-555.53 972.88,-561.44"/>
</a>
</g>
</g>
<!-- Node15 -->
<g id="Node000015" class="node">
<title>Node15</title>
<g id="a_Node000015"><a xlink:href="../../de/dde/namespaceace_1_1utils.html#ac3eadc5f289b54059322023f3c5eed96" target="_top" xlink:title="Checks if the passed string is alpha&#45;numeric with underscores (contains only numbers,...">
<polygon fill="white" stroke="#666666" points="1058.12,-512 947.62,-512 947.62,-492 1058.12,-492 1058.12,-512"/>
<text text-anchor="middle" x="1002.88" y="-498.5" font-family="Helvetica,sans-Serif" font-size="10.00">ace::utils::isAlNumUs</text>
</a>
</g>
</g>
<!-- Node14&#45;&gt;Node15 -->
<g id="edge18_Node000014_Node000015" class="edge">
<title>Node14&#45;&gt;Node15</title>
<g id="a_edge18_Node000014_Node000015"><a xlink:title=" ">
<path fill="none" stroke="#63b8ff" d="M826.93,-398.37C843.72,-418 883.05,-460.65 925.5,-483 928.99,-484.84 932.67,-486.5 936.44,-488.01"/>
<polygon fill="#63b8ff" stroke="#63b8ff" points="935.24,-491.3 945.84,-491.35 937.59,-484.7 935.24,-491.3"/>
</a>
</g>
</g>
<!-- Node16 -->
<g id="Node000016" class="node">
<title>Node16</title>
<g id="a_Node000016"><a xlink:href="../../de/dde/namespaceace_1_1utils.html#a878c53ede8589dbc6a50734c9c4ad4d7" target="_top" xlink:title="Checks if the value is within some range.">
<polygon fill="white" stroke="#666666" points="1055.12,-474 950.62,-474 950.62,-454 1055.12,-454 1055.12,-474"/>
<text text-anchor="middle" x="1002.88" y="-460.5" font-family="Helvetica,sans-Serif" font-size="10.00">ace::utils::isInRange</text>
</a>
</g>
</g>
<!-- Node14&#45;&gt;Node16 -->
<g id="edge20_Node000014_Node000016" class="edge">
<title>Node14&#45;&gt;Node16</title>
<g id="a_edge20_Node000014_Node000016"><a xlink:title=" ">
<path fill="none" stroke="#63b8ff" d="M834.84,-398.41C855.37,-411 891.87,-432.09 925.5,-445 930.71,-447 936.2,-448.84 941.75,-450.53"/>
<polygon fill="#63b8ff" stroke="#63b8ff" points="940.4,-453.79 950.98,-453.17 942.32,-447.06 940.4,-453.79"/>
</a>
</g>
</g>
<!-- Node17 -->
<g id="Node000017" class="node">
<title>Node17</title>
<g id="a_Node000017"><a xlink:href="../../da/dea/struct_a_e_log_entry.html#a42447b345f72f22ec655556af2db7c28" target="_top" xlink:title="Allocates the queue of the given size on the heap and returns the pointer to it&#39;s first node.">
<polygon fill="white" stroke="#666666" points="1066.38,-436 939.38,-436 939.38,-416 1066.38,-416 1066.38,-436"/>
<text text-anchor="middle" x="1002.88" y="-422.5" font-family="Helvetica,sans-Serif" font-size="10.00">AELogEntry::makeQueue</text>
</a>
</g>
</g>
<!-- Node14&#45;&gt;Node17 -->
<g id="edge21_Node000014_Node000017" class="edge">
<title>Node14&#45;&gt;Node17</title>
<g id="a_edge21_Node000014_Node000017"><a xlink:title=" ">
<path fill="none" stroke="#63b8ff" d="M869,-398.48C891.07,-403.05 917.13,-408.45 940.3,-413.25"/>
<polygon fill="#63b8ff" stroke="#63b8ff" points="939.43,-416.64 949.93,-415.24 940.85,-409.79 939.43,-416.64"/>
</a>
</g>
</g>
<!-- Node18 -->
<g id="Node000018" class="node">
<title>Node18</title>
<g id="a_Node000018"><a xlink:href="../../d8/dfc/class_a_e_logger.html#af4bff840ffdcfcb5ecb1251fddbf9690" target="_top" xlink:title="Checks for the given index number and returns the pointer in the queue of log entries.">
<polygon fill="white" stroke="#666666" points="1063.75,-398 942,-398 942,-378 1063.75,-378 1063.75,-398"/>
<text text-anchor="middle" x="1002.88" y="-384.5" font-family="Helvetica,sans-Serif" font-size="10.00">AELogger::ptrFromIndex</text>
</a>
</g>
</g>
<!-- Node14&#45;&gt;Node18 -->
<g id="edge22_Node000014_Node000018" class="edge">
<title>Node14&#45;&gt;Node18</title>
<g id="a_edge22_Node000014_Node000018"><a xlink:title=" ">
<path fill="none" stroke="#63b8ff" d="M873.43,-388C891.35,-388 911.5,-388 930.44,-388"/>
<polygon fill="#63b8ff" stroke="#63b8ff" points="930.22,-391.5 940.22,-388 930.22,-384.5 930.22,-391.5"/>
</a>
</g>
</g>
<!-- Node19 -->
<g id="Node000019" class="node">
<title>Node19</title>
<g id="a_Node000019"><a xlink:href="../../d8/dfc/class_a_e_logger.html#a50dfd96a74d13471faebd4de499db5bf" target="_top" xlink:title="Request a debug log entry to be written to the opened log file.">
<polygon fill="white" stroke="#666666" points="1072.38,-360 933.38,-360 933.38,-340 1072.38,-340 1072.38,-360"/>
<text text-anchor="middle" x="1002.88" y="-346.5" font-family="Helvetica,sans-Serif" font-size="10.00">AELogger::writeToLogDebug</text>
</a>
</g>
</g>
<!-- Node14&#45;&gt;Node19 -->
<g id="edge23_Node000014_Node000019" class="edge">
<title>Node14&#45;&gt;Node19</title>
<g id="a_edge23_Node000014_Node000019"><a xlink:title=" ">
<path fill="none" stroke="#63b8ff" d="M845.06,-377.55C865.33,-371.93 894.32,-365.34 921.88,-359.87"/>
<polygon fill="#63b8ff" stroke="#63b8ff" points="922.53,-363.3 931.68,-357.96 921.19,-356.43 922.53,-363.3"/>
</a>
</g>
</g>
<!-- Node19&#45;&gt;Node14 -->
<g id="edge24_Node000019_Node000014" class="edge">
<title>Node19&#45;&gt;Node14</title>
<g id="a_edge24_Node000019_Node000014"><a xlink:title=" ">
<path fill="none" stroke="#63b8ff" d="M975.24,-360.44C951.58,-366.99 916.02,-374.89 884.73,-380.77"/>
<polygon fill="#63b8ff" stroke="#63b8ff" points="884.13,-377.33 874.92,-382.57 885.39,-384.21 884.13,-377.33"/>
</a>
</g>
</g>
<!-- Node21 -->
<g id="Node000021" class="node">
<title>Node21</title>
<g id="a_Node000021"><a xlink:href="../../db/d15/class_a_e_file_writer.html#a0c238267ee45ca15672d4e9246cdca2c" target="_top" xlink:title="Flushes the opened file.">
<polygon fill="white" stroke="#666666" points="1059.62,-110 946.12,-110 946.12,-90 1059.62,-90 1059.62,-110"/>
<text text-anchor="middle" x="1002.88" y="-96.5" font-family="Helvetica,sans-Serif" font-size="10.00">AEFileWriter::flushFile</text>
</a>
</g>
</g>
<!-- Node20&#45;&gt;Node21 -->
<g id="edge26_Node000020_Node000021" class="edge">
<title>Node20&#45;&gt;Node21</title>
<g id="a_edge26_Node000020_Node000021"><a xlink:title=" ">
<path fill="none" stroke="#63b8ff" d="M889.85,-88.4C904.46,-89.91 919.79,-91.5 934.26,-93"/>
<polygon fill="#63b8ff" stroke="#63b8ff" points="933.84,-96.47 944.14,-94.02 934.56,-89.51 933.84,-96.47"/>
</a>
</g>
</g>
<!-- Node22 -->
<g id="Node000022" class="node">
<title>Node22</title>
<g id="a_Node000022"><a xlink:href="../../da/dea/struct_a_e_log_entry.html#ab803ea47d06098feab470f265498f617" target="_top" xlink:title="Formats the passed entry to the given c&#45;string.">
<polygon fill="white" stroke="#666666" points="1065.25,-63 940.5,-63 940.5,-43 1065.25,-43 1065.25,-63"/>
<text text-anchor="middle" x="1002.88" y="-49.5" font-family="Helvetica,sans-Serif" font-size="10.00">AELogEntry::formatEntry</text>
</a>
</g>
</g>
<!-- Node20&#45;&gt;Node22 -->
<g id="edge27_Node000020_Node000022" class="edge">
<title>Node20&#45;&gt;Node22</title>
<g id="a_edge27_Node000020_Node000022"><a xlink:title=" ">
<path fill="none" stroke="#63b8ff" d="M886.96,-70.53C900.7,-68.44 915.18,-66.23 929.05,-64.11"/>
<polygon fill="#63b8ff" stroke="#63b8ff" points="929.17,-67.64 938.52,-62.67 928.11,-60.72 929.17,-67.64"/>
</a>
</g>
</g>
<!-- Node25 -->
<g id="Node000025" class="node">
<title>Node25</title>
<g id="a_Node000025"><a xlink:href="../../db/d15/class_a_e_file_writer.html#a01d537821c5760615e126f1c159b67da" target="_top" xlink:title="Write binary data, as is, to file, and flush if necessary.">
<polygon fill="white" stroke="#666666" points="1070.12,-20 935.62,-20 935.62,0 1070.12,0 1070.12,-20"/>
<text text-anchor="middle" x="1002.88" y="-6.5" font-family="Helvetica,sans-Serif" font-size="10.00">AEFileWriter::writeData_ptr</text>
</a>
</g>
</g>
<!-- Node20&#45;&gt;Node25 -->
<g id="edge30_Node000020_Node000025" class="edge">
<title>Node20&#45;&gt;Node25</title>
<g id="a_edge30_Node000020_Node000025"><a xlink:title=" ">
<path fill="none" stroke="#63b8ff" d="M840.24,-70.57C861.69,-60.53 895.46,-45.27 925.5,-34 934.95,-30.45 945.19,-26.99 955.01,-23.84"/>
<polygon fill="#63b8ff" stroke="#63b8ff" points="955.92,-27.22 964.41,-20.89 953.82,-20.54 955.92,-27.22"/>
</a>
</g>
</g>
<!-- Node23 -->
<g id="Node000023" class="node">
<title>Node23</title>
<g id="a_Node000023"><a xlink:href="../../de/dde/namespaceace_1_1utils.html#a2458b79e1a70255b471414a4bb5680ce" target="_top" xlink:title="Formats the current **(c)time point as YYYY&#45;MM&#45;DD.HH:mm:SS string**.">
<polygon fill="white" stroke="#666666" points="1235.38,-44 1126.38,-44 1126.38,-24 1235.38,-24 1235.38,-44"/>
<text text-anchor="middle" x="1180.88" y="-30.5" font-family="Helvetica,sans-Serif" font-size="10.00">ace::utils::formatDate</text>
</a>
</g>
</g>
<!-- Node22&#45;&gt;Node23 -->
<g id="edge28_Node000022_Node000023" class="edge">
<title>Node22&#45;&gt;Node23</title>
<g id="a_edge28_Node000022_Node000023"><a xlink:title=" ">
<path fill="none" stroke="#63b8ff" d="M1065.43,-46.35C1081.46,-44.62 1098.78,-42.75 1114.97,-41.01"/>
<polygon fill="#63b8ff" stroke="#63b8ff" points="1114.9,-44.53 1124.47,-39.98 1114.15,-37.57 1114.9,-44.53"/>
</a>
</g>
</g>
<!-- Node24 -->
<g id="Node000024" class="node">
<title>Node24</title>
<g id="a_Node000024"><a xlink:href="../../da/dea/struct_a_e_log_entry.html#a958d25c57a94cfae8e7f31843e6c63ef" target="_top" xlink:title="Deduces the entry&#39;s log type and returns a c&#45;string of it.">
<polygon fill="white" stroke="#666666" points="1245.5,-82 1116.25,-82 1116.25,-62 1245.5,-62 1245.5,-82"/>
<text text-anchor="middle" x="1180.88" y="-68.5" font-family="Helvetica,sans-Serif" font-size="10.00">AELogEntry::typeToString</text>
</a>
</g>
</g>
<!-- Node22&#45;&gt;Node24 -->
<g id="edge29_Node000022_Node000024" class="edge">
<title>Node22&#45;&gt;Node24</title>
<g id="a_edge29_Node000022_Node000024"><a xlink:title=" ">
<path fill="none" stroke="#63b8ff" d="M1065.43,-59.65C1078.08,-61.01 1091.54,-62.46 1104.61,-63.87"/>
<polygon fill="#63b8ff" stroke="#63b8ff" points="1104.14,-67.34 1114.46,-64.94 1104.89,-60.39 1104.14,-67.34"/>
</a>
</g>
</g>
<!-- Node26&#45;&gt;Node3 -->
<g id="edge38_Node000026_Node000003" class="edge">
<title>Node26&#45;&gt;Node3</title>
<g id="a_edge38_Node000026_Node000003"><a xlink:title=" ">
<path fill="none" stroke="#63b8ff" d="M653.5,-167.35C674.58,-179.69 711.61,-200.34 745.25,-214 807.23,-239.17 826.67,-234.03 889.5,-257 912.14,-265.28 936.74,-275.82 957.14,-285"/>
<polygon fill="#63b8ff" stroke="#63b8ff" points="955.46,-288.09 966.01,-289.04 958.36,-281.71 955.46,-288.09"/>
</a>
</g>
</g>
<!-- Node26&#45;&gt;Node14 -->
<g id="edge41_Node000026_Node000014" class="edge">
<title>Node26&#45;&gt;Node14</title>
<g id="a_edge41_Node000026_Node000014"><a xlink:title=" ">
<path fill="none" stroke="#63b8ff" d="M644.22,-167.22C672,-202.85 764.82,-321.88 801.38,-368.78"/>
<polygon fill="#63b8ff" stroke="#63b8ff" points="798.45,-370.7 807.36,-376.44 803.97,-366.4 798.45,-370.7"/>
</a>
</g>
</g>
<!-- Node26&#45;&gt;Node20 -->
<g id="edge42_Node000026_Node000020" class="edge">
<title>Node26&#45;&gt;Node20</title>
<g id="a_edge42_Node000026_Node000020"><a xlink:title=" ">
<path fill="none" stroke="#63b8ff" d="M656.02,-146.69C677.61,-135.63 713.39,-117.92 745.25,-105 753.84,-101.52 763.14,-98.12 772.1,-95.03"/>
<polygon fill="#63b8ff" stroke="#63b8ff" points="772.99,-98.42 781.35,-91.9 770.76,-91.78 772.99,-98.42"/>
</a>
</g>
</g>
<!-- Node26&#45;&gt;Node21 -->
<g id="edge36_Node000026_Node000021" class="edge">
<title>Node26&#45;&gt;Node21</title>
<g id="a_edge36_Node000026_Node000021"><a xlink:title=" ">
<path fill="none" stroke="#63b8ff" d="M694.75,-146.52C711.08,-143.67 728.85,-140.64 745.25,-138 809.32,-127.67 882.58,-116.93 934.37,-109.51"/>
<polygon fill="#63b8ff" stroke="#63b8ff" points="934.84,-112.98 944.24,-108.1 933.85,-106.05 934.84,-112.98"/>
</a>
</g>
</g>
<!-- Node26&#45;&gt;Node22 -->
<g id="edge37_Node000026_Node000022" class="edge">
<title>Node26&#45;&gt;Node22</title>
<g id="a_edge37_Node000026_Node000022"><a xlink:title=" ">
<path fill="none" stroke="#63b8ff" d="M643.86,-146.77C659.9,-126.16 699.49,-80.07 745.25,-62 803.87,-38.86 876.01,-38.53 928.86,-42.88"/>
<polygon fill="#63b8ff" stroke="#63b8ff" points="928.39,-46.35 938.66,-43.77 929.02,-39.38 928.39,-46.35"/>
</a>
</g>
</g>
<!-- Node26&#45;&gt;Node25 -->
<g id="edge40_Node000026_Node000025" class="edge">
<title>Node26&#45;&gt;Node25</title>
<g id="a_edge40_Node000026_Node000025"><a xlink:title=" ">
<path fill="none" stroke="#63b8ff" d="M641.98,-146.67C655.99,-122.56 694.54,-62.7 745.25,-37 800.44,-9.03 870.78,-3.38 923.85,-4.11"/>
<polygon fill="#63b8ff" stroke="#63b8ff" points="923.65,-7.6 933.73,-4.33 923.81,-0.61 923.65,-7.6"/>
</a>
</g>
</g>
<!-- Node27 -->
<g id="Node000027" class="node">
<title>Node27</title>
<g id="a_Node000027"><a xlink:href="../../da/dea/struct_a_e_log_entry.html#a58aeadbca0c2c0863b534a52d40d22a8" target="_top" xlink:title="Clears the current entry and sets its values to zero/invalid.">
<polygon fill="white" stroke="#666666" points="876.75,-205 758,-205 758,-185 876.75,-185 876.75,-205"/>
<text text-anchor="middle" x="817.38" y="-191.5" font-family="Helvetica,sans-Serif" font-size="10.00">AELogEntry::clearEntry</text>
</a>
</g>
</g>
<!-- Node26&#45;&gt;Node27 -->
<g id="edge35_Node000026_Node000027" class="edge">
<title>Node26&#45;&gt;Node27</title>
<g id="a_edge35_Node000026_Node000027"><a xlink:title=" ">
<path fill="none" stroke="#63b8ff" d="M685.95,-167.48C707.5,-172.03 732.95,-177.4 755.62,-182.18"/>
<polygon fill="#63b8ff" stroke="#63b8ff" points="754.85,-185.6 765.36,-184.24 756.3,-178.75 754.85,-185.6"/>
</a>
</g>
</g>
<!-- Node28 -->
<g id="Node000028" class="node">
<title>Node28</title>
<g id="a_Node000028"><a xlink:href="../../de/dde/namespaceace_1_1utils.html#ae3cab8babc7164fe97d71c65b247e848" target="_top" xlink:title="Convenient sleep function to sleep the thread for microseconds.">
<polygon fill="white" stroke="#666666" points="866.62,-167 768.12,-167 768.12,-147 866.62,-147 866.62,-167"/>
<text text-anchor="middle" x="817.38" y="-153.5" font-family="Helvetica,sans-Serif" font-size="10.00">ace::utils::sleepUS</text>
</a>
</g>
</g>
<!-- Node26&#45;&gt;Node28 -->
<g id="edge39_Node000026_Node000028" class="edge">
<title>Node26&#45;&gt;Node28</title>
<g id="a_edge39_Node000026_Node000028"><a xlink:title=" ">
<path fill="none" stroke="#63b8ff" d="M702.04,-157C719.85,-157 739.03,-157 756.49,-157"/>
<polygon fill="#63b8ff" stroke="#63b8ff" points="756.17,-160.5 766.17,-157 756.17,-153.5 756.17,-160.5"/>
</a>
</g>
</g>
</g>
</svg>
