<?xml version="1.0" encoding="UTF-8" standalone="no"?>
<!DOCTYPE svg PUBLIC "-//W3C//DTD SVG 1.1//EN"
 "http://www.w3.org/Graphics/SVG/1.1/DTD/svg11.dtd">
<!-- Generated by graphviz version 10.0.1 (20240210.2158)
 -->
<!-- Title: AELogger::logWriterThread Pages: 1 -->
<svg width="822pt" height="420pt"
 viewBox="0.00 0.00 821.50 420.00" xmlns="http://www.w3.org/2000/svg" xmlns:xlink="http://www.w3.org/1999/xlink">
<g id="graph0" class="graph" transform="scale(1 1) rotate(0) translate(4 416)">
<title>AELogger::logWriterThread</title>
<!-- Node1 -->
<g id="Node000001" class="node">
<title>Node1</title>
<g id="a_Node000001"><a xlink:title="The function of the log writing thread to...read the entries, format them, write them,...">
<polygon fill="#999999" stroke="#666666" points="133,-279 0,-279 0,-259 133,-259 133,-279"/>
<text text-anchor="middle" x="66.5" y="-265.5" font-family="Helvetica,sans-Serif" font-size="10.00">AELogger::logWriterThread</text>
</a>
</g>
</g>
<!-- Node2 -->
<g id="Node000002" class="node">
<title>Node2</title>
<g id="a_Node000002"><a xlink:href="../../da/dea/struct_a_e_log_entry.html#a58aeadbca0c2c0863b534a52d40d22a8" target="_top" xlink:title="Clears the current entry and sets its values to zero/invalid.">
<polygon fill="white" stroke="#666666" points="300.5,-412 181.75,-412 181.75,-392 300.5,-392 300.5,-412"/>
<text text-anchor="middle" x="241.12" y="-398.5" font-family="Helvetica,sans-Serif" font-size="10.00">AELogEntry::clearEntry</text>
</a>
</g>
</g>
<!-- Node1&#45;&gt;Node2 -->
<g id="edge1_Node000001_Node000002" class="edge">
<title>Node1&#45;&gt;Node2</title>
<g id="a_edge1_Node000001_Node000002"><a xlink:title=" ">
<path fill="none" stroke="#63b8ff" d="M74.37,-279.3C89.17,-300.72 126.2,-350.37 169,-378 174.61,-381.62 180.83,-384.76 187.18,-387.45"/>
<polygon fill="#63b8ff" stroke="#63b8ff" points="185.91,-390.72 196.5,-391.04 188.43,-384.18 185.91,-390.72"/>
</a>
</g>
</g>
<!-- Node3 -->
<g id="Node000003" class="node">
<title>Node3</title>
<g id="a_Node000003"><a xlink:href="../../db/d15/class_a_e_file_writer.html#a0c238267ee45ca15672d4e9246cdca2c" target="_top" xlink:title="Flushes the opened file.">
<polygon fill="white" stroke="#666666" points="483.38,-374 369.88,-374 369.88,-354 483.38,-354 483.38,-374"/>
<text text-anchor="middle" x="426.62" y="-360.5" font-family="Helvetica,sans-Serif" font-size="10.00">AEFileWriter::flushFile</text>
</a>
</g>
</g>
<!-- Node1&#45;&gt;Node3 -->
<g id="edge2_Node000001_Node000003" class="edge">
<title>Node1&#45;&gt;Node3</title>
<g id="a_edge2_Node000001_Node000003"><a xlink:title=" ">
<path fill="none" stroke="#63b8ff" d="M77.24,-279.44C94.06,-296.67 130.45,-330.56 169,-345 230.1,-367.88 305,-370.84 358.07,-369.16"/>
<polygon fill="#63b8ff" stroke="#63b8ff" points="358.02,-372.66 367.88,-368.78 357.75,-365.67 358.02,-372.66"/>
</a>
</g>
</g>
<!-- Node4 -->
<g id="Node000004" class="node">
<title>Node4</title>
<g id="a_Node000004"><a xlink:href="../../da/dea/struct_a_e_log_entry.html#ab803ea47d06098feab470f265498f617" target="_top" xlink:title="Formats the passed entry to the given c&#45;string.">
<polygon fill="white" stroke="#666666" points="489,-336 364.25,-336 364.25,-316 489,-316 489,-336"/>
<text text-anchor="middle" x="426.62" y="-322.5" font-family="Helvetica,sans-Serif" font-size="10.00">AELogEntry::formatEntry</text>
</a>
</g>
</g>
<!-- Node1&#45;&gt;Node4 -->
<g id="edge3_Node000001_Node000004" class="edge">
<title>Node1&#45;&gt;Node4</title>
<g id="a_edge3_Node000001_Node000004"><a xlink:title=" ">
<path fill="none" stroke="#63b8ff" d="M133.25,-278.91C182.77,-286.44 252.31,-297.14 313.25,-307 326.3,-309.11 340.19,-311.41 353.59,-313.67"/>
<polygon fill="#63b8ff" stroke="#63b8ff" points="352.77,-317.08 363.21,-315.29 353.93,-310.17 352.77,-317.08"/>
</a>
</g>
</g>
<!-- Node7 -->
<g id="Node000007" class="node">
<title>Node7</title>
<g id="a_Node000007"><a xlink:href="../../d0/d8a/class_____a_e_module_base.html#a625c82f27195de3f9ab5af4fc7437e2f" target="_top" xlink:title="Get the name of the module">
<polygon fill="white" stroke="#666666" points="504,-260 349.25,-260 349.25,-228 504,-228 504,-260"/>
<text text-anchor="start" x="357.25" y="-246.5" font-family="Helvetica,sans-Serif" font-size="10.00">__AEModuleBase&lt; AELogger &gt;</text>
<text text-anchor="middle" x="426.62" y="-234.5" font-family="Helvetica,sans-Serif" font-size="10.00">::getModuleName</text>
</a>
</g>
</g>
<!-- Node1&#45;&gt;Node7 -->
<g id="edge6_Node000001_Node000007" class="edge">
<title>Node1&#45;&gt;Node7</title>
<g id="a_edge6_Node000001_Node000007"><a xlink:title=" ">
<path fill="none" stroke="#63b8ff" d="M133.19,-264.41C190.62,-260.41 274.49,-254.55 337.7,-250.14"/>
<polygon fill="#63b8ff" stroke="#63b8ff" points="337.61,-253.65 347.34,-249.46 337.12,-246.67 337.61,-253.65"/>
</a>
</g>
</g>
<!-- Node8 -->
<g id="Node000008" class="node">
<title>Node8</title>
<g id="a_Node000008"><a xlink:href="../../de/dde/namespaceace_1_1utils.html#ae3cab8babc7164fe97d71c65b247e848" target="_top" xlink:title="Convenient sleep function to sleep the thread for microseconds.">
<polygon fill="white" stroke="#666666" points="290.38,-115 191.88,-115 191.88,-95 290.38,-95 290.38,-115"/>
<text text-anchor="middle" x="241.12" y="-101.5" font-family="Helvetica,sans-Serif" font-size="10.00">ace::utils::sleepUS</text>
</a>
</g>
</g>
<!-- Node1&#45;&gt;Node8 -->
<g id="edge7_Node000001_Node000008" class="edge">
<title>Node1&#45;&gt;Node8</title>
<g id="a_edge7_Node000001_Node000008"><a xlink:title=" ">
<path fill="none" stroke="#63b8ff" d="M71.67,-258.72C83.02,-232.07 117.14,-160.29 169,-124 172.67,-121.44 176.66,-119.22 180.82,-117.3"/>
<polygon fill="#63b8ff" stroke="#63b8ff" points="182,-120.6 190.01,-113.67 179.43,-114.08 182,-120.6"/>
</a>
</g>
</g>
<!-- Node9 -->
<g id="Node000009" class="node">
<title>Node9</title>
<g id="a_Node000009"><a xlink:href="../../db/d15/class_a_e_file_writer.html#a01d537821c5760615e126f1c159b67da" target="_top" xlink:title="Write binary data, as is, to file, and flush if necessary.">
<polygon fill="white" stroke="#666666" points="493.88,-298 359.38,-298 359.38,-278 493.88,-278 493.88,-298"/>
<text text-anchor="middle" x="426.62" y="-284.5" font-family="Helvetica,sans-Serif" font-size="10.00">AEFileWriter::writeData_ptr</text>
</a>
</g>
</g>
<!-- Node1&#45;&gt;Node9 -->
<g id="edge8_Node000001_Node000009" class="edge">
<title>Node1&#45;&gt;Node9</title>
<g id="a_edge8_Node000001_Node000009"><a xlink:title=" ">
<path fill="none" stroke="#63b8ff" d="M133.3,-268.49C182.84,-268.56 252.39,-269.6 313.25,-274 324.35,-274.8 336.04,-275.93 347.52,-277.21"/>
<polygon fill="#63b8ff" stroke="#63b8ff" points="347.05,-280.68 357.38,-278.36 347.85,-273.73 347.05,-280.68"/>
</a>
</g>
</g>
<!-- Node10 -->
<g id="Node000010" class="node">
<title>Node10</title>
<g id="a_Node000010"><a xlink:href="../../d8/dfc/class_a_e_logger.html#ac533941173224cb21fe09326726ce754" target="_top" xlink:title="Request a log entry to be written to the opened log file.">
<polygon fill="white" stroke="#666666" points="296.75,-153 185.5,-153 185.5,-133 296.75,-133 296.75,-153"/>
<text text-anchor="middle" x="241.12" y="-139.5" font-family="Helvetica,sans-Serif" font-size="10.00">AELogger::writeToLog</text>
</a>
</g>
</g>
<!-- Node1&#45;&gt;Node10 -->
<g id="edge9_Node000001_Node000010" class="edge">
<title>Node1&#45;&gt;Node10</title>
<g id="a_edge9_Node000001_Node000010"><a xlink:title=" ">
<path fill="none" stroke="#63b8ff" d="M81.63,-258.69C111.34,-237 180.56,-186.48 216.9,-159.95"/>
<polygon fill="#63b8ff" stroke="#63b8ff" points="218.57,-163.07 224.58,-154.35 214.44,-157.41 218.57,-163.07"/>
</a>
</g>
</g>
<!-- Node19 -->
<g id="Node000019" class="node">
<title>Node19</title>
<g id="a_Node000019"><a xlink:href="../../d8/dfc/class_a_e_logger.html#a54bad71bcfea05c3d17d7ba1bacfec8c" target="_top" xlink:title="Writes to log directly, without thinking of the queue.">
<polygon fill="white" stroke="#666666" points="313.25,-336 169,-336 169,-316 313.25,-316 313.25,-336"/>
<text text-anchor="middle" x="241.12" y="-322.5" font-family="Helvetica,sans-Serif" font-size="10.00">AELogger::writeToLogDirectly</text>
</a>
</g>
</g>
<!-- Node1&#45;&gt;Node19 -->
<g id="edge20_Node000001_Node000019" class="edge">
<title>Node1&#45;&gt;Node19</title>
<g id="a_edge20_Node000001_Node000019"><a xlink:title=" ">
<path fill="none" stroke="#63b8ff" d="M99.16,-279.45C126.82,-288.59 167.18,-301.92 197.64,-311.97"/>
<polygon fill="#63b8ff" stroke="#63b8ff" points="196.34,-315.23 206.93,-315.04 198.54,-308.58 196.34,-315.23"/>
</a>
</g>
</g>
<!-- Node5 -->
<g id="Node000005" class="node">
<title>Node5</title>
<g id="a_Node000005"><a xlink:href="../../de/dde/namespaceace_1_1utils.html#a2458b79e1a70255b471414a4bb5680ce" target="_top" xlink:title="Formats the current **(c)time point as YYYY&#45;MM&#45;DD.HH:mm:SS string**.">
<polygon fill="white" stroke="#666666" points="659.12,-317 550.12,-317 550.12,-297 659.12,-297 659.12,-317"/>
<text text-anchor="middle" x="604.62" y="-303.5" font-family="Helvetica,sans-Serif" font-size="10.00">ace::utils::formatDate</text>
</a>
</g>
</g>
<!-- Node4&#45;&gt;Node5 -->
<g id="edge4_Node000004_Node000005" class="edge">
<title>Node4&#45;&gt;Node5</title>
<g id="a_edge4_Node000004_Node000005"><a xlink:title=" ">
<path fill="none" stroke="#63b8ff" d="M489.18,-319.35C505.21,-317.62 522.53,-315.75 538.72,-314.01"/>
<polygon fill="#63b8ff" stroke="#63b8ff" points="538.65,-317.53 548.22,-312.98 537.9,-310.57 538.65,-317.53"/>
</a>
</g>
</g>
<!-- Node6 -->
<g id="Node000006" class="node">
<title>Node6</title>
<g id="a_Node000006"><a xlink:href="../../da/dea/struct_a_e_log_entry.html#a958d25c57a94cfae8e7f31843e6c63ef" target="_top" xlink:title="Deduces the entry&#39;s log type and returns a c&#45;string of it.">
<polygon fill="white" stroke="#666666" points="669.25,-355 540,-355 540,-335 669.25,-335 669.25,-355"/>
<text text-anchor="middle" x="604.62" y="-341.5" font-family="Helvetica,sans-Serif" font-size="10.00">AELogEntry::typeToString</text>
</a>
</g>
</g>
<!-- Node4&#45;&gt;Node6 -->
<g id="edge5_Node000004_Node000006" class="edge">
<title>Node4&#45;&gt;Node6</title>
<g id="a_edge5_Node000004_Node000006"><a xlink:title=" ">
<path fill="none" stroke="#63b8ff" d="M489.18,-332.65C501.83,-334.01 515.29,-335.46 528.36,-336.87"/>
<polygon fill="#63b8ff" stroke="#63b8ff" points="527.89,-340.34 538.21,-337.94 528.64,-333.39 527.89,-340.34"/>
</a>
</g>
</g>
<!-- Node10&#45;&gt;Node7 -->
<g id="edge10_Node000010_Node000007" class="edge">
<title>Node10&#45;&gt;Node7</title>
<g id="a_edge10_Node000010_Node000007"><a xlink:title=" ">
<path fill="none" stroke="#63b8ff" d="M254.2,-153.43C273.25,-169.46 311.98,-200.22 349.25,-219 352.27,-220.52 355.4,-221.98 358.59,-223.37"/>
<polygon fill="#63b8ff" stroke="#63b8ff" points="356.97,-226.49 367.55,-227.01 359.61,-220 356.97,-226.49"/>
</a>
</g>
</g>
<!-- Node11 -->
<g id="Node000011" class="node">
<title>Node11</title>
<g id="a_Node000011"><a xlink:href="../../de/dde/namespaceace_1_1utils.html#ac3eadc5f289b54059322023f3c5eed96" target="_top" xlink:title="Checks if the passed string is alpha&#45;numeric with underscores (contains only numbers,...">
<polygon fill="white" stroke="#666666" points="481.88,-210 371.38,-210 371.38,-190 481.88,-190 481.88,-210"/>
<text text-anchor="middle" x="426.62" y="-196.5" font-family="Helvetica,sans-Serif" font-size="10.00">ace::utils::isAlNumUs</text>
</a>
</g>
</g>
<!-- Node10&#45;&gt;Node11 -->
<g id="edge11_Node000010_Node000011" class="edge">
<title>Node10&#45;&gt;Node11</title>
<g id="a_edge11_Node000010_Node000011"><a xlink:title=" ">
<path fill="none" stroke="#63b8ff" d="M269.18,-153.42C290.7,-161.5 321.66,-172.7 349.25,-181 355.86,-182.99 362.84,-184.93 369.78,-186.77"/>
<polygon fill="#63b8ff" stroke="#63b8ff" points="368.58,-190.08 379.13,-189.19 370.33,-183.3 368.58,-190.08"/>
</a>
</g>
</g>
<!-- Node12 -->
<g id="Node000012" class="node">
<title>Node12</title>
<g id="a_Node000012"><a xlink:href="../../d8/dfc/class_a_e_logger.html#a4d512bf9f4d0a6a1b6a332b9c99e22ac" target="_top" xlink:title="Checks if a log file isn&#39;t open by this logger.">
<polygon fill="white" stroke="#666666" points="477.75,-172 375.5,-172 375.5,-152 477.75,-152 477.75,-172"/>
<text text-anchor="middle" x="426.62" y="-158.5" font-family="Helvetica,sans-Serif" font-size="10.00">AELogger::isClosed</text>
</a>
</g>
</g>
<!-- Node10&#45;&gt;Node12 -->
<g id="edge12_Node000010_Node000012" class="edge">
<title>Node10&#45;&gt;Node12</title>
<g id="a_edge12_Node000010_Node000012"><a xlink:title=" ">
<path fill="none" stroke="#63b8ff" d="M297.18,-148.7C318.21,-150.88 342.32,-153.37 363.93,-155.61"/>
<polygon fill="#63b8ff" stroke="#63b8ff" points="363.49,-159.09 373.8,-156.63 364.21,-152.12 363.49,-159.09"/>
</a>
</g>
</g>
<!-- Node15 -->
<g id="Node000015" class="node">
<title>Node15</title>
<g id="a_Node000015"><a xlink:href="../../de/dde/namespaceace_1_1utils.html#a878c53ede8589dbc6a50734c9c4ad4d7" target="_top" xlink:title="Checks if the value is within some range.">
<polygon fill="white" stroke="#666666" points="478.88,-134 374.38,-134 374.38,-114 478.88,-114 478.88,-134"/>
<text text-anchor="middle" x="426.62" y="-120.5" font-family="Helvetica,sans-Serif" font-size="10.00">ace::utils::isInRange</text>
</a>
</g>
</g>
<!-- Node10&#45;&gt;Node15 -->
<g id="edge15_Node000010_Node000015" class="edge">
<title>Node10&#45;&gt;Node15</title>
<g id="a_edge15_Node000010_Node000015"><a xlink:title=" ">
<path fill="none" stroke="#63b8ff" d="M297.18,-137.3C317.85,-135.16 341.5,-132.71 362.82,-130.5"/>
<polygon fill="#63b8ff" stroke="#63b8ff" points="362.97,-134.01 372.56,-129.49 362.25,-127.04 362.97,-134.01"/>
</a>
</g>
</g>
<!-- Node16 -->
<g id="Node000016" class="node">
<title>Node16</title>
<g id="a_Node000016"><a xlink:href="../../da/dea/struct_a_e_log_entry.html#a42447b345f72f22ec655556af2db7c28" target="_top" xlink:title="Allocates the queue of the given size on the heap and returns the pointer to it&#39;s first node.">
<polygon fill="white" stroke="#666666" points="490.12,-96 363.12,-96 363.12,-76 490.12,-76 490.12,-96"/>
<text text-anchor="middle" x="426.62" y="-82.5" font-family="Helvetica,sans-Serif" font-size="10.00">AELogEntry::makeQueue</text>
</a>
</g>
</g>
<!-- Node10&#45;&gt;Node16 -->
<g id="edge16_Node000010_Node000016" class="edge">
<title>Node10&#45;&gt;Node16</title>
<g id="a_edge16_Node000010_Node000016"><a xlink:title=" ">
<path fill="none" stroke="#63b8ff" d="M287.39,-132.55C296.09,-130.08 305.04,-127.22 313.25,-124 330.1,-117.4 332.35,-111.45 349.25,-105 354.46,-103.01 359.95,-101.17 365.5,-99.49"/>
<polygon fill="#63b8ff" stroke="#63b8ff" points="366.08,-102.96 374.74,-96.85 364.16,-96.23 366.08,-102.96"/>
</a>
</g>
</g>
<!-- Node17 -->
<g id="Node000017" class="node">
<title>Node17</title>
<g id="a_Node000017"><a xlink:href="../../d8/dfc/class_a_e_logger.html#af4bff840ffdcfcb5ecb1251fddbf9690" target="_top" xlink:title="Checks for the given index number and returns the pointer in the queue of log entries.">
<polygon fill="white" stroke="#666666" points="487.5,-58 365.75,-58 365.75,-38 487.5,-38 487.5,-58"/>
<text text-anchor="middle" x="426.62" y="-44.5" font-family="Helvetica,sans-Serif" font-size="10.00">AELogger::ptrFromIndex</text>
</a>
</g>
</g>
<!-- Node10&#45;&gt;Node17 -->
<g id="edge17_Node000010_Node000017" class="edge">
<title>Node10&#45;&gt;Node17</title>
<g id="a_edge17_Node000010_Node000017"><a xlink:title=" ">
<path fill="none" stroke="#63b8ff" d="M296.9,-132.95C302.72,-130.58 308.31,-127.64 313.25,-124 337.39,-106.24 324.96,-84.55 349.25,-67 351.08,-65.68 352.99,-64.45 354.96,-63.31"/>
<polygon fill="#63b8ff" stroke="#63b8ff" points="356.46,-66.47 363.91,-58.93 353.39,-60.18 356.46,-66.47"/>
</a>
</g>
</g>
<!-- Node18 -->
<g id="Node000018" class="node">
<title>Node18</title>
<g id="a_Node000018"><a xlink:href="../../d8/dfc/class_a_e_logger.html#a50dfd96a74d13471faebd4de499db5bf" target="_top" xlink:title="Request a debug log entry to be written to the opened log file.">
<polygon fill="white" stroke="#666666" points="496.12,-20 357.12,-20 357.12,0 496.12,0 496.12,-20"/>
<text text-anchor="middle" x="426.62" y="-6.5" font-family="Helvetica,sans-Serif" font-size="10.00">AELogger::writeToLogDebug</text>
</a>
</g>
</g>
<!-- Node10&#45;&gt;Node18 -->
<g id="edge18_Node000010_Node000018" class="edge">
<title>Node10&#45;&gt;Node18</title>
<g id="a_edge18_Node000010_Node000018"><a xlink:title=" ">
<path fill="none" stroke="#63b8ff" d="M274.6,-132.51C287.95,-129.35 302.72,-124.51 313.25,-115 344.26,-86.97 319.77,-55.12 348.77,-22.3"/>
<polygon fill="#63b8ff" stroke="#63b8ff" points="351.06,-24.95 355.75,-15.45 346.16,-19.95 351.06,-24.95"/>
</a>
</g>
</g>
<!-- Node13 -->
<g id="Node000013" class="node">
<title>Node13</title>
<g id="a_Node000013"><a xlink:href="../../db/d15/class_a_e_file_writer.html#a0743145db01b527ae9612f359e5c0090" target="_top" xlink:title="Checks if a file isn&#39;t open by this file&#45;writer.">
<polygon fill="white" stroke="#666666" points="662.12,-172 547.12,-172 547.12,-152 662.12,-152 662.12,-172"/>
<text text-anchor="middle" x="604.62" y="-158.5" font-family="Helvetica,sans-Serif" font-size="10.00">AEFileWriter::isClosed</text>
</a>
</g>
</g>
<!-- Node12&#45;&gt;Node13 -->
<g id="edge13_Node000012_Node000013" class="edge">
<title>Node12&#45;&gt;Node13</title>
<g id="a_edge13_Node000012_Node000013"><a xlink:title=" ">
<path fill="none" stroke="#63b8ff" d="M478.06,-162C495.89,-162 516.26,-162 535.32,-162"/>
<polygon fill="#63b8ff" stroke="#63b8ff" points="535.17,-165.5 545.17,-162 535.17,-158.5 535.17,-165.5"/>
</a>
</g>
</g>
<!-- Node14 -->
<g id="Node000014" class="node">
<title>Node14</title>
<g id="a_Node000014"><a xlink:href="../../db/d15/class_a_e_file_writer.html#a47e3c08c276394bce7b612331cf4762d" target="_top" xlink:title="Checks if a file is open by this file&#45;writer.">
<polygon fill="white" stroke="#666666" points="813.5,-172 705.25,-172 705.25,-152 813.5,-152 813.5,-172"/>
<text text-anchor="middle" x="759.38" y="-158.5" font-family="Helvetica,sans-Serif" font-size="10.00">AEFileWriter::isOpen</text>
</a>
</g>
</g>
<!-- Node13&#45;&gt;Node14 -->
<g id="edge14_Node000013_Node000014" class="edge">
<title>Node13&#45;&gt;Node14</title>
<g id="a_edge14_Node000013_Node000014"><a xlink:title=" ">
<path fill="none" stroke="#63b8ff" d="M662.5,-162C672.61,-162 683.21,-162 693.51,-162"/>
<polygon fill="#63b8ff" stroke="#63b8ff" points="693.48,-165.5 703.48,-162 693.48,-158.5 693.48,-165.5"/>
</a>
</g>
</g>
<!-- Node18&#45;&gt;Node10 -->
<g id="edge19_Node000018_Node000010" class="edge">
<title>Node18&#45;&gt;Node10</title>
<g id="a_edge19_Node000018_Node000010"><a xlink:title=" ">
<path fill="none" stroke="#63b8ff" d="M388.45,-20.47C374.75,-23.57 359.98,-28.47 349.25,-38 315.49,-67.98 346.75,-102.73 313.25,-133 311.32,-134.74 309.26,-136.32 307.08,-137.76"/>
<polygon fill="#63b8ff" stroke="#63b8ff" points="305.48,-134.65 298.3,-142.44 308.77,-140.83 305.48,-134.65"/>
</a>
</g>
</g>
<!-- Node19&#45;&gt;Node3 -->
<g id="edge21_Node000019_Node000003" class="edge">
<title>Node19&#45;&gt;Node3</title>
<g id="a_edge21_Node000019_Node000003"><a xlink:title=" ">
<path fill="none" stroke="#63b8ff" d="M292.75,-336.48C314.82,-341.05 340.88,-346.45 364.05,-351.25"/>
<polygon fill="#63b8ff" stroke="#63b8ff" points="363.18,-354.64 373.68,-353.24 364.6,-347.79 363.18,-354.64"/>
</a>
</g>
</g>
<!-- Node19&#45;&gt;Node4 -->
<g id="edge22_Node000019_Node000004" class="edge">
<title>Node19&#45;&gt;Node4</title>
<g id="a_edge22_Node000019_Node000004"><a xlink:title=" ">
<path fill="none" stroke="#63b8ff" d="M313.6,-326C326.44,-326 339.84,-326 352.72,-326"/>
<polygon fill="#63b8ff" stroke="#63b8ff" points="352.37,-329.5 362.37,-326 352.37,-322.5 352.37,-329.5"/>
</a>
</g>
</g>
<!-- Node19&#45;&gt;Node9 -->
<g id="edge23_Node000019_Node000009" class="edge">
<title>Node19&#45;&gt;Node9</title>
<g id="a_edge23_Node000019_Node000009"><a xlink:title=" ">
<path fill="none" stroke="#63b8ff" d="M292.75,-315.52C314.82,-310.95 340.88,-305.55 364.05,-300.75"/>
<polygon fill="#63b8ff" stroke="#63b8ff" points="364.6,-304.21 373.68,-298.76 363.18,-297.36 364.6,-304.21"/>
</a>
</g>
</g>
</g>
</svg>
