<?xml version="1.0" encoding="UTF-8" standalone="no"?>
<!DOCTYPE svg PUBLIC "-//W3C//DTD SVG 1.1//EN"
 "http://www.w3.org/Graphics/SVG/1.1/DTD/svg11.dtd">
<!-- Generated by graphviz version 10.0.1 (20240210.2158)
 -->
<!-- Title: AELogger::AELogger Pages: 1 -->
<!--zoomable 556 -->

<svg id="main" version="1.1" xmlns="http://www.w3.org/2000/svg" xmlns:xlink="http://www.w3.org/1999/xlink" xml:space="preserve" onload="init(evt)">
<style type="text/css"><![CDATA[
.node, .edge {opacity: 0.7;}
.node.selected, .edge.selected {opacity: 1;}
.edge:hover path { stroke: red; }
.edge:hover polygon { stroke: red; fill: red; }
]]></style>

<defs>
  <circle id="rim" cx="0" cy="0" r="7"/>
  <circle id="rim2" cx="0" cy="0" r="3.5"/>
  <g id="zoomPlus">
    <use xlink:href="#rim" fill="#404040"><set attributeName="fill" to="#808080" begin="zoomplus.mouseover" end="zoomplus.mouseout"/></use>
    <path d="M-4,0h8M0,-4v8" fill="none" stroke="white" stroke-width="1.5" pointer-events="none"/>
  </g>
  <g id="zoomMin">
    <use xlink:href="#rim" fill="#404040"><set attributeName="fill" to="#808080" begin="zoomminus.mouseover" end="zoomminus.mouseout"/></use>
    <path d="M-4,0h8" fill="none" stroke="white" stroke-width="1.5" pointer-events="none"/>
  </g>
  <g id="arrowUp" transform="translate(30 24)">
    <use xlink:href="#rim"/>
    <path pointer-events="none" fill="none" stroke="white" stroke-width="1.5" d="M0,-3.0v7 M-2.5,-0.5L0,-3.0L2.5,-0.5"/>
  </g>
  <g id="arrowRight" transform="rotate(90) translate(36 -43)">
    <use xlink:href="#rim"/>
    <path pointer-events="none" fill="none" stroke="white" stroke-width="1.5" d="M0,-3.0v7 M-2.5,-0.5L0,-3.0L2.5,-0.5"/>
  </g>
  <g id="arrowDown" transform="rotate(180) translate(-30 -48)">
    <use xlink:href="#rim"/>
    <path pointer-events="none" fill="none" stroke="white" stroke-width="1.5" d="M0,-3.0v7 M-2.5,-0.5L0,-3.0L2.5,-0.5"/>
  </g>
  <g id="arrowLeft" transform="rotate(270) translate(-36 17)">
    <use xlink:href="#rim"/>
    <path pointer-events="none" fill="none" stroke="white" stroke-width="1.5" d="M0,-3.0v7 M-2.5,-0.5L0,-3.0L2.5,-0.5"/>
  </g>
  <g id="resetDef">
    <use xlink:href="#rim2" fill="#404040"><set attributeName="fill" to="#808080" begin="reset.mouseover" end="reset.mouseout"/></use>
  </g>
</defs>
<script type="application/ecmascript">
var viewWidth = 1266;
var viewHeight = 556;
var sectionId = 'dynsection-2';
</script>
<script type="application/ecmascript" xlink:href="../../svg.min.js"/>
<svg id="graph" class="graph">
<g id="viewport">
<title>AELogger::AELogger</title>
<!-- Node1 -->
<g id="Node000001" class="node">
<title>Node1</title>
<g id="a_Node000001"><a xlink:title="Class constructor – it opens the file with the given path and name and start logging to it.">
<polygon fill="#999999" stroke="#666666" points="107.5,-314 0,-314 0,-294 107.5,-294 107.5,-314"/>
<text text-anchor="middle" x="53.75" y="-300.5" font-family="Helvetica,sans-Serif" font-size="10.00">AELogger::AELogger</text>
</a>
</g>
</g>
<!-- Node2 -->
<g id="Node000002" class="node">
<title>Node2</title>
<g id="a_Node000002"><a xlink:href="../../d0/d8a/class_____a_e_module_base.html#a625c82f27195de3f9ab5af4fc7437e2f" target="_top" xlink:title="Get the name of the module.">
<polygon fill="white" stroke="#666666" points="948.75,-320 794,-320 794,-288 948.75,-288 948.75,-320"/>
<text text-anchor="start" x="802" y="-306.5" font-family="Helvetica,sans-Serif" font-size="10.00">__AEModuleBase&lt; AELogger &gt;</text>
<text text-anchor="middle" x="871.38" y="-294.5" font-family="Helvetica,sans-Serif" font-size="10.00">::getModuleName</text>
</a>
</g>
</g>
<!-- Node1&#45;&gt;Node2 -->
<g id="edge1_Node000001_Node000002" class="edge">
<title>Node1&#45;&gt;Node2</title>
<g id="a_edge1_Node000001_Node000002"><a xlink:title=" ">
<path fill="none" stroke="#63b8ff" d="M107.95,-304C245.22,-304 612.43,-304 782.13,-304"/>
<polygon fill="#63b8ff" stroke="#63b8ff" points="782,-307.5 792,-304 782,-300.5 782,-307.5"/>
</a>
</g>
</g>
<!-- Node3 -->
<g id="Node000003" class="node">
<title>Node3</title>
<g id="a_Node000003"><a xlink:href="../../db/d15/class_a_e_file_writer.html#a47e3c08c276394bce7b612331cf4762d" target="_top" xlink:title="Checks if a file is open by this file&#45;writer.">
<polygon fill="white" stroke="#666666" points="1258.25,-67 1150,-67 1150,-47 1258.25,-47 1258.25,-67"/>
<text text-anchor="middle" x="1204.12" y="-53.5" font-family="Helvetica,sans-Serif" font-size="10.00">AEFileWriter::isOpen</text>
</a>
</g>
</g>
<!-- Node1&#45;&gt;Node3 -->
<g id="edge2_Node000001_Node000003" class="edge">
<title>Node1&#45;&gt;Node3</title>
<g id="a_edge2_Node000001_Node000003"><a xlink:title=" ">
<path fill="none" stroke="#63b8ff" d="M58.47,-293.54C78.2,-240.08 175.99,0 340.88,0 340.88,0 340.88,0 872.38,0 974.62,0 1092.08,-26.78 1155.88,-43.63"/>
<polygon fill="#63b8ff" stroke="#63b8ff" points="1154.74,-46.95 1165.31,-46.15 1156.55,-40.18 1154.74,-46.95"/>
</a>
</g>
</g>
<!-- Node4 -->
<g id="Node000004" class="node">
<title>Node4</title>
<g id="a_Node000004"><a xlink:href="../../d8/dfc/class_a_e_logger.html#a284034896688215f7e87242764c5985d" target="_top" xlink:title="Starts the log&#45;writing thread.">
<polygon fill="white" stroke="#666666" points="254,-352 143.5,-352 143.5,-332 254,-332 254,-352"/>
<text text-anchor="middle" x="198.75" y="-338.5" font-family="Helvetica,sans-Serif" font-size="10.00">AELogger::startWriter</text>
</a>
</g>
</g>
<!-- Node1&#45;&gt;Node4 -->
<g id="edge3_Node000001_Node000004" class="edge">
<title>Node1&#45;&gt;Node4</title>
<g id="a_edge3_Node000001_Node000004"><a xlink:title=" ">
<path fill="none" stroke="#63b8ff" d="M94.2,-314.48C110.77,-318.89 130.23,-324.06 147.79,-328.72"/>
<polygon fill="#63b8ff" stroke="#63b8ff" points="146.4,-331.98 156.96,-331.16 148.2,-325.21 146.4,-331.98"/>
</a>
</g>
</g>
<!-- Node11 -->
<g id="Node000011" class="node">
<title>Node11</title>
<g id="a_Node000011"><a xlink:href="../../d8/dfc/class_a_e_logger.html#ac533941173224cb21fe09326726ce754" target="_top" xlink:title="Request a log entry to be written to the opened log file.">
<polygon fill="white" stroke="#666666" points="741.5,-472 630.25,-472 630.25,-452 741.5,-452 741.5,-472"/>
<text text-anchor="middle" x="685.88" y="-458.5" font-family="Helvetica,sans-Serif" font-size="10.00">AELogger::writeToLog</text>
</a>
</g>
</g>
<!-- Node1&#45;&gt;Node11 -->
<g id="edge40_Node000001_Node000011" class="edge">
<title>Node1&#45;&gt;Node11</title>
<g id="a_edge40_Node000001_Node000011"><a xlink:title=" ">
<path fill="none" stroke="#63b8ff" d="M65.53,-314.17C97.28,-343.57 194.23,-429.48 290,-475 348.03,-502.58 366.04,-503.71 429.75,-512 494.98,-520.49 513.53,-526.25 577.75,-512 607.06,-505.5 637.85,-490.1 658.86,-478.1"/>
<polygon fill="#63b8ff" stroke="#63b8ff" points="660.47,-481.21 667.31,-473.13 656.92,-475.18 660.47,-481.21"/>
</a>
</g>
</g>
<!-- Node4&#45;&gt;Node2 -->
<g id="edge29_Node000004_Node000002" class="edge">
<title>Node4&#45;&gt;Node2</title>
<g id="a_edge29_Node000004_Node000002"><a xlink:title=" ">
<path fill="none" stroke="#63b8ff" d="M254.12,-341.12C354.06,-339.19 573.6,-333.42 758,-318 765.95,-317.34 774.2,-316.53 782.45,-315.64"/>
<polygon fill="#63b8ff" stroke="#63b8ff" points="782.64,-319.15 792.19,-314.56 781.86,-312.19 782.64,-319.15"/>
</a>
</g>
</g>
<!-- Node5 -->
<g id="Node000005" class="node">
<title>Node5</title>
<g id="a_Node000005"><a xlink:href="../../d8/dfc/class_a_e_logger.html#a2f64d8f5de2f249f7cb973a82ec1e48a" target="_top" xlink:title="Close the file, if it was opened.">
<polygon fill="white" stroke="#666666" points="393.75,-428 290,-428 290,-408 393.75,-408 393.75,-428"/>
<text text-anchor="middle" x="341.88" y="-414.5" font-family="Helvetica,sans-Serif" font-size="10.00">AELogger::closeLog</text>
</a>
</g>
</g>
<!-- Node4&#45;&gt;Node5 -->
<g id="edge4_Node000004_Node000005" class="edge">
<title>Node4&#45;&gt;Node5</title>
<g id="a_edge4_Node000004_Node000005"><a xlink:title=" ">
<path fill="none" stroke="#63b8ff" d="M219.08,-352.41C243.04,-365.31 284.11,-387.43 311.86,-402.38"/>
<polygon fill="#63b8ff" stroke="#63b8ff" points="309.98,-405.34 320.45,-407 313.3,-399.18 309.98,-405.34"/>
</a>
</g>
</g>
<!-- Node4&#45;&gt;Node11 -->
<g id="edge39_Node000004_Node000011" class="edge">
<title>Node4&#45;&gt;Node11</title>
<g id="a_edge39_Node000004_Node000011"><a xlink:title=" ">
<path fill="none" stroke="#63b8ff" d="M207.09,-352.23C221.2,-371.25 253.93,-412.37 290,-437 345.39,-474.83 363.92,-481.09 429.75,-494 494.3,-506.66 512.66,-503.51 577.75,-494 601.41,-490.54 627.1,-483 647.4,-476.11"/>
<polygon fill="#63b8ff" stroke="#63b8ff" points="648.36,-479.48 656.64,-472.88 646.04,-472.87 648.36,-479.48"/>
</a>
</g>
</g>
<!-- Node23 -->
<g id="Node000023" class="node">
<title>Node23</title>
<g id="a_Node000023"><a xlink:href="../../d8/dfc/class_a_e_logger.html#a5938787b6933f4b96ebff10643bd2497" target="_top" xlink:title="The function of the log writing thread to...read the entries, format them, write them,...">
<polygon fill="white" stroke="#666666" points="570.25,-200 437.25,-200 437.25,-180 570.25,-180 570.25,-200"/>
<text text-anchor="middle" x="503.75" y="-186.5" font-family="Helvetica,sans-Serif" font-size="10.00">AELogger::logWriterThread</text>
</a>
</g>
</g>
<!-- Node4&#45;&gt;Node23 -->
<g id="edge30_Node000004_Node000023" class="edge">
<title>Node4&#45;&gt;Node23</title>
<g id="a_edge30_Node000004_Node000023"><a xlink:title=" ">
<path fill="none" stroke="#63b8ff" d="M220.58,-331.55C272.92,-305.29 410.19,-236.43 471.91,-205.47"/>
<polygon fill="#63b8ff" stroke="#63b8ff" points="473.46,-208.61 480.83,-201 470.32,-202.35 473.46,-208.61"/>
</a>
</g>
</g>
<!-- Node6 -->
<g id="Node000006" class="node">
<title>Node6</title>
<g id="a_Node000006"><a xlink:href="../../db/d15/class_a_e_file_writer.html#a05ceb471801ae111d68859f9d3b9eb78" target="_top" xlink:title="Closes the currently opened file.">
<polygon fill="white" stroke="#666666" points="562,-466 445.5,-466 445.5,-446 562,-446 562,-466"/>
<text text-anchor="middle" x="503.75" y="-452.5" font-family="Helvetica,sans-Serif" font-size="10.00">AEFileWriter::closeFile</text>
</a>
</g>
</g>
<!-- Node5&#45;&gt;Node6 -->
<g id="edge5_Node000005_Node000006" class="edge">
<title>Node5&#45;&gt;Node6</title>
<g id="a_edge5_Node000005_Node000006"><a xlink:title=" ">
<path fill="none" stroke="#63b8ff" d="M386.98,-428.48C405.77,-432.95 427.88,-438.21 447.72,-442.92"/>
<polygon fill="#63b8ff" stroke="#63b8ff" points="446.77,-446.29 457.31,-445.2 448.39,-439.48 446.77,-446.29"/>
</a>
</g>
</g>
<!-- Node7 -->
<g id="Node000007" class="node">
<title>Node7</title>
<g id="a_Node000007"><a xlink:href="../../db/d15/class_a_e_file_writer.html#a26ea7c97bfdbed142df1863d8d47d895" target="_top" xlink:title="Returns the full name of currently open file, including the relative path, if such was provided.">
<polygon fill="white" stroke="#666666" points="577.75,-428 429.75,-428 429.75,-408 577.75,-408 577.75,-428"/>
<text text-anchor="middle" x="503.75" y="-414.5" font-family="Helvetica,sans-Serif" font-size="10.00">AEFileWriter::getFullFileName</text>
</a>
</g>
</g>
<!-- Node5&#45;&gt;Node7 -->
<g id="edge6_Node000005_Node000007" class="edge">
<title>Node5&#45;&gt;Node7</title>
<g id="a_edge6_Node000005_Node000007"><a xlink:title=" ">
<path fill="none" stroke="#63b8ff" d="M393.9,-418C401.69,-418 409.9,-418 418.18,-418"/>
<polygon fill="#63b8ff" stroke="#63b8ff" points="417.97,-421.5 427.97,-418 417.97,-414.5 417.97,-421.5"/>
</a>
</g>
</g>
<!-- Node8 -->
<g id="Node000008" class="node">
<title>Node8</title>
<g id="a_Node000008"><a xlink:href="../../d8/dfc/class_a_e_logger.html#a4d512bf9f4d0a6a1b6a332b9c99e22ac" target="_top" xlink:title="Checks if a log file isn&#39;t open by this logger.">
<polygon fill="white" stroke="#666666" points="922.5,-548 820.25,-548 820.25,-528 922.5,-528 922.5,-548"/>
<text text-anchor="middle" x="871.38" y="-534.5" font-family="Helvetica,sans-Serif" font-size="10.00">AELogger::isClosed</text>
</a>
</g>
</g>
<!-- Node5&#45;&gt;Node8 -->
<g id="edge7_Node000005_Node000008" class="edge">
<title>Node5&#45;&gt;Node8</title>
<g id="a_edge7_Node000005_Node000008"><a xlink:title=" ">
<path fill="none" stroke="#63b8ff" d="M350.91,-428.34C364.86,-445.41 395.37,-479.09 429.75,-494 555.81,-548.66 720.62,-548.44 808.63,-543.33"/>
<polygon fill="#63b8ff" stroke="#63b8ff" points="808.73,-546.83 818.5,-542.72 808.3,-539.85 808.73,-546.83"/>
</a>
</g>
</g>
<!-- Node10 -->
<g id="Node000010" class="node">
<title>Node10</title>
<g id="a_Node000010"><a xlink:href="../../d8/dfc/class_a_e_logger.html#a53b212c259c40bda694476f09d1f171b" target="_top" xlink:title="Stops the log&#45;writing thread (after flushing the log queue).">
<polygon fill="white" stroke="#666666" points="558.62,-390 448.88,-390 448.88,-370 558.62,-370 558.62,-390"/>
<text text-anchor="middle" x="503.75" y="-376.5" font-family="Helvetica,sans-Serif" font-size="10.00">AELogger::stopWriter</text>
</a>
</g>
</g>
<!-- Node5&#45;&gt;Node10 -->
<g id="edge10_Node000005_Node000010" class="edge">
<title>Node5&#45;&gt;Node10</title>
<g id="a_edge10_Node000005_Node000010"><a xlink:title=" ">
<path fill="none" stroke="#63b8ff" d="M386.98,-407.52C405.77,-403.05 427.88,-397.79 447.72,-393.08"/>
<polygon fill="#63b8ff" stroke="#63b8ff" points="448.39,-396.52 457.31,-390.8 446.77,-389.71 448.39,-396.52"/>
</a>
</g>
</g>
<!-- Node5&#45;&gt;Node11 -->
<g id="edge27_Node000005_Node000011" class="edge">
<title>Node5&#45;&gt;Node11</title>
<g id="a_edge27_Node000005_Node000011"><a xlink:title=" ">
<path fill="none" stroke="#63b8ff" d="M353.85,-428.32C369.34,-442.11 399.16,-465.86 429.75,-475 497.65,-495.29 580.17,-485.19 632.62,-474.73"/>
<polygon fill="#63b8ff" stroke="#63b8ff" points="633.1,-478.2 642.17,-472.74 631.67,-471.35 633.1,-478.2"/>
</a>
</g>
</g>
<!-- Node17 -->
<g id="Node000017" class="node">
<title>Node17</title>
<g id="a_Node000017"><a xlink:href="../../d8/dfc/class_a_e_logger.html#a54bad71bcfea05c3d17d7ba1bacfec8c" target="_top" xlink:title="Writes to log directly, without thinking of the queue.">
<polygon fill="white" stroke="#666666" points="758,-200 613.75,-200 613.75,-180 758,-180 758,-200"/>
<text text-anchor="middle" x="685.88" y="-186.5" font-family="Helvetica,sans-Serif" font-size="10.00">AELogger::writeToLogDirectly</text>
</a>
</g>
</g>
<!-- Node5&#45;&gt;Node17 -->
<g id="edge28_Node000005_Node000017" class="edge">
<title>Node5&#45;&gt;Node17</title>
<g id="a_edge28_Node000005_Node000017"><a xlink:title=" ">
<path fill="none" stroke="#63b8ff" d="M358.46,-407.61C412.65,-371.48 593.21,-251.11 659.87,-206.67"/>
<polygon fill="#63b8ff" stroke="#63b8ff" points="661.56,-209.75 667.94,-201.29 657.68,-203.92 661.56,-209.75"/>
</a>
</g>
</g>
<!-- Node9 -->
<g id="Node000009" class="node">
<title>Node9</title>
<g id="a_Node000009"><a xlink:href="../../db/d15/class_a_e_file_writer.html#a0743145db01b527ae9612f359e5c0090" target="_top" xlink:title="Checks if a file isn&#39;t open by this file&#45;writer.">
<polygon fill="white" stroke="#666666" points="1106.88,-364 991.88,-364 991.88,-344 1106.88,-344 1106.88,-364"/>
<text text-anchor="middle" x="1049.38" y="-350.5" font-family="Helvetica,sans-Serif" font-size="10.00">AEFileWriter::isClosed</text>
</a>
</g>
</g>
<!-- Node8&#45;&gt;Node9 -->
<g id="edge8_Node000008_Node000009" class="edge">
<title>Node8&#45;&gt;Node9</title>
<g id="a_edge8_Node000008_Node000009"><a xlink:title=" ">
<path fill="none" stroke="#63b8ff" d="M922.95,-531.36C932.12,-528.56 941.16,-524.6 948.75,-519 999.31,-481.69 1029.3,-410.34 1041.69,-374.96"/>
<polygon fill="#63b8ff" stroke="#63b8ff" points="1044.88,-376.47 1044.74,-365.88 1038.24,-374.24 1044.88,-376.47"/>
</a>
</g>
</g>
<!-- Node9&#45;&gt;Node3 -->
<g id="edge9_Node000009_Node000003" class="edge">
<title>Node9&#45;&gt;Node3</title>
<g id="a_edge9_Node000009_Node000003"><a xlink:title=" ">
<path fill="none" stroke="#63b8ff" d="M1055.63,-343.78C1077.62,-301.03 1162.42,-136.14 1192.48,-77.69"/>
<polygon fill="#63b8ff" stroke="#63b8ff" points="1195.58,-79.33 1197.04,-68.83 1189.35,-76.13 1195.58,-79.33"/>
</a>
</g>
</g>
<!-- Node10&#45;&gt;Node2 -->
<g id="edge11_Node000010_Node000002" class="edge">
<title>Node10&#45;&gt;Node2</title>
<g id="a_edge11_Node000010_Node000002"><a xlink:title=" ">
<path fill="none" stroke="#63b8ff" d="M559.06,-383.21C611.7,-384.41 692.92,-381.17 758,-356 776.65,-348.79 776.26,-338.23 794,-329 796.84,-327.52 799.79,-326.11 802.8,-324.75"/>
<polygon fill="#63b8ff" stroke="#63b8ff" points="803.94,-328.07 811.82,-320.99 801.24,-321.61 803.94,-328.07"/>
</a>
</g>
</g>
<!-- Node10&#45;&gt;Node11 -->
<g id="edge12_Node000010_Node000011" class="edge">
<title>Node10&#45;&gt;Node11</title>
<g id="a_edge12_Node000010_Node000011"><a xlink:title=" ">
<path fill="none" stroke="#63b8ff" d="M552.5,-390.39C561.05,-392.82 569.77,-395.69 577.75,-399 607.89,-411.5 639.81,-431.22 660.89,-445.27"/>
<polygon fill="#63b8ff" stroke="#63b8ff" points="658.81,-448.09 669.05,-450.8 662.74,-442.29 658.81,-448.09"/>
</a>
</g>
</g>
<!-- Node10&#45;&gt;Node17 -->
<g id="edge21_Node000010_Node000017" class="edge">
<title>Node10&#45;&gt;Node17</title>
<g id="a_edge21_Node000010_Node000017"><a xlink:title=" ">
<path fill="none" stroke="#63b8ff" d="M518.26,-369.66C533.38,-357.84 558.3,-337.59 577.75,-318 613.44,-282.05 650.33,-235.52 670.15,-209.62"/>
<polygon fill="#63b8ff" stroke="#63b8ff" points="672.92,-211.75 676.18,-201.67 667.35,-207.52 672.92,-211.75"/>
</a>
</g>
</g>
<!-- Node11&#45;&gt;Node2 -->
<g id="edge13_Node000011_Node000002" class="edge">
<title>Node11&#45;&gt;Node2</title>
<g id="a_edge13_Node000011_Node000002"><a xlink:title=" ">
<path fill="none" stroke="#63b8ff" d="M699.83,-451.7C715.02,-439.18 740.37,-416.86 758,-394 778.16,-367.85 768.54,-350.04 794,-329 795.12,-328.08 796.27,-327.18 797.46,-326.33"/>
<polygon fill="#63b8ff" stroke="#63b8ff" points="799.13,-329.41 805.78,-321.16 795.43,-323.46 799.13,-329.41"/>
</a>
</g>
</g>
<!-- Node11&#45;&gt;Node8 -->
<g id="edge15_Node000011_Node000008" class="edge">
<title>Node11&#45;&gt;Node8</title>
<g id="a_edge15_Node000011_Node000008"><a xlink:title=" ">
<path fill="none" stroke="#63b8ff" d="M703.34,-472.41C723.87,-485 760.37,-506.09 794,-519 799.21,-521 804.7,-522.84 810.25,-524.53"/>
<polygon fill="#63b8ff" stroke="#63b8ff" points="808.9,-527.79 819.48,-527.17 810.82,-521.06 808.9,-527.79"/>
</a>
</g>
</g>
<!-- Node12 -->
<g id="Node000012" class="node">
<title>Node12</title>
<g id="a_Node000012"><a xlink:href="../../de/dde/namespaceace_1_1utils.html#ac3eadc5f289b54059322023f3c5eed96" target="_top" xlink:title="Checks if the passed string is alpha&#45;numeric with underscores (contains only numbers,...">
<polygon fill="white" stroke="#666666" points="926.62,-472 816.12,-472 816.12,-452 926.62,-452 926.62,-472"/>
<text text-anchor="middle" x="871.38" y="-458.5" font-family="Helvetica,sans-Serif" font-size="10.00">ace::utils::isAlNumUs</text>
</a>
</g>
</g>
<!-- Node11&#45;&gt;Node12 -->
<g id="edge14_Node000011_Node000012" class="edge">
<title>Node11&#45;&gt;Node12</title>
<g id="a_edge14_Node000011_Node000012"><a xlink:title=" ">
<path fill="none" stroke="#63b8ff" d="M741.93,-462C761.53,-462 783.79,-462 804.22,-462"/>
<polygon fill="#63b8ff" stroke="#63b8ff" points="804.16,-465.5 814.16,-462 804.16,-458.5 804.16,-465.5"/>
</a>
</g>
</g>
<!-- Node13 -->
<g id="Node000013" class="node">
<title>Node13</title>
<g id="a_Node000013"><a xlink:href="../../de/dde/namespaceace_1_1utils.html#a878c53ede8589dbc6a50734c9c4ad4d7" target="_top" xlink:title="Checks if the value is within some range.">
<polygon fill="white" stroke="#666666" points="923.62,-434 819.12,-434 819.12,-414 923.62,-414 923.62,-434"/>
<text text-anchor="middle" x="871.38" y="-420.5" font-family="Helvetica,sans-Serif" font-size="10.00">ace::utils::isInRange</text>
</a>
</g>
</g>
<!-- Node11&#45;&gt;Node13 -->
<g id="edge16_Node000011_Node000013" class="edge">
<title>Node11&#45;&gt;Node13</title>
<g id="a_edge16_Node000011_Node000013"><a xlink:title=" ">
<path fill="none" stroke="#63b8ff" d="M737.5,-451.52C759.57,-446.95 785.63,-441.55 808.8,-436.75"/>
<polygon fill="#63b8ff" stroke="#63b8ff" points="809.35,-440.21 818.43,-434.76 807.93,-433.36 809.35,-440.21"/>
</a>
</g>
</g>
<!-- Node14 -->
<g id="Node000014" class="node">
<title>Node14</title>
<g id="a_Node000014"><a xlink:href="../../da/dea/struct_a_e_log_entry.html#a42447b345f72f22ec655556af2db7c28" target="_top" xlink:title="Allocates the queue of the given size on the heap and returns the pointer to it&#39;s first node.">
<polygon fill="white" stroke="#666666" points="934.88,-396 807.88,-396 807.88,-376 934.88,-376 934.88,-396"/>
<text text-anchor="middle" x="871.38" y="-382.5" font-family="Helvetica,sans-Serif" font-size="10.00">AELogEntry::makeQueue</text>
</a>
</g>
</g>
<!-- Node11&#45;&gt;Node14 -->
<g id="edge17_Node000011_Node000014" class="edge">
<title>Node11&#45;&gt;Node14</title>
<g id="a_edge17_Node000011_Node000014"><a xlink:title=" ">
<path fill="none" stroke="#63b8ff" d="M703.34,-451.59C723.87,-439 760.37,-417.91 794,-405 799.21,-403 804.7,-401.16 810.25,-399.47"/>
<polygon fill="#63b8ff" stroke="#63b8ff" points="810.82,-402.94 819.48,-396.83 808.9,-396.21 810.82,-402.94"/>
</a>
</g>
</g>
<!-- Node15 -->
<g id="Node000015" class="node">
<title>Node15</title>
<g id="a_Node000015"><a xlink:href="../../d8/dfc/class_a_e_logger.html#af4bff840ffdcfcb5ecb1251fddbf9690" target="_top" xlink:title="Checks for the given index number and returns the pointer in the queue of log entries.">
<polygon fill="white" stroke="#666666" points="932.25,-358 810.5,-358 810.5,-338 932.25,-338 932.25,-358"/>
<text text-anchor="middle" x="871.38" y="-344.5" font-family="Helvetica,sans-Serif" font-size="10.00">AELogger::ptrFromIndex</text>
</a>
</g>
</g>
<!-- Node11&#45;&gt;Node15 -->
<g id="edge18_Node000011_Node000015" class="edge">
<title>Node11&#45;&gt;Node15</title>
<g id="a_edge18_Node000011_Node000015"><a xlink:title=" ">
<path fill="none" stroke="#63b8ff" d="M697.19,-451.68C719.52,-429.54 772.11,-378.52 794,-367 797.26,-365.28 800.69,-363.71 804.21,-362.28"/>
<polygon fill="#63b8ff" stroke="#63b8ff" points="805.32,-365.6 813.53,-358.91 802.94,-359.02 805.32,-365.6"/>
</a>
</g>
</g>
<!-- Node16 -->
<g id="Node000016" class="node">
<title>Node16</title>
<g id="a_Node000016"><a xlink:href="../../d8/dfc/class_a_e_logger.html#a50dfd96a74d13471faebd4de499db5bf" target="_top" xlink:title="Request a debug log entry to be written to the opened log file.">
<polygon fill="white" stroke="#666666" points="940.88,-510 801.88,-510 801.88,-490 940.88,-490 940.88,-510"/>
<text text-anchor="middle" x="871.38" y="-496.5" font-family="Helvetica,sans-Serif" font-size="10.00">AELogger::writeToLogDebug</text>
</a>
</g>
</g>
<!-- Node11&#45;&gt;Node16 -->
<g id="edge19_Node000011_Node000016" class="edge">
<title>Node11&#45;&gt;Node16</title>
<g id="a_edge19_Node000011_Node000016"><a xlink:title=" ">
<path fill="none" stroke="#63b8ff" d="M741.93,-467.16C771.27,-472.38 806.59,-479.92 832.77,-486.64"/>
<polygon fill="#63b8ff" stroke="#63b8ff" points="831.71,-489.98 842.27,-489.17 833.51,-483.22 831.71,-489.98"/>
</a>
</g>
</g>
<!-- Node16&#45;&gt;Node11 -->
<g id="edge20_Node000016_Node000011" class="edge">
<title>Node16&#45;&gt;Node11</title>
<g id="a_edge20_Node000016_Node000011"><a xlink:title=" ">
<path fill="none" stroke="#63b8ff" d="M801.66,-492.33C775.53,-487.36 746.74,-481.07 724.52,-475.37"/>
<polygon fill="#63b8ff" stroke="#63b8ff" points="725.58,-472.03 715.02,-472.84 723.78,-478.8 725.58,-472.03"/>
</a>
</g>
</g>
<!-- Node18 -->
<g id="Node000018" class="node">
<title>Node18</title>
<g id="a_Node000018"><a xlink:href="../../db/d15/class_a_e_file_writer.html#a0c238267ee45ca15672d4e9246cdca2c" target="_top" xlink:title="Flushes the opened file.">
<polygon fill="white" stroke="#666666" points="928.12,-238 814.62,-238 814.62,-218 928.12,-218 928.12,-238"/>
<text text-anchor="middle" x="871.38" y="-224.5" font-family="Helvetica,sans-Serif" font-size="10.00">AEFileWriter::flushFile</text>
</a>
</g>
</g>
<!-- Node17&#45;&gt;Node18 -->
<g id="edge22_Node000017_Node000018" class="edge">
<title>Node17&#45;&gt;Node18</title>
<g id="a_edge22_Node000017_Node000018"><a xlink:title=" ">
<path fill="none" stroke="#63b8ff" d="M737.5,-200.48C759.57,-205.05 785.63,-210.45 808.8,-215.25"/>
<polygon fill="#63b8ff" stroke="#63b8ff" points="807.93,-218.64 818.43,-217.24 809.35,-211.79 807.93,-218.64"/>
</a>
</g>
</g>
<!-- Node19 -->
<g id="Node000019" class="node">
<title>Node19</title>
<g id="a_Node000019"><a xlink:href="../../da/dea/struct_a_e_log_entry.html#ab803ea47d06098feab470f265498f617" target="_top" xlink:title="Formats the passed entry to the given c&#45;string.">
<polygon fill="white" stroke="#666666" points="933.75,-124 809,-124 809,-104 933.75,-104 933.75,-124"/>
<text text-anchor="middle" x="871.38" y="-110.5" font-family="Helvetica,sans-Serif" font-size="10.00">AELogEntry::formatEntry</text>
</a>
</g>
</g>
<!-- Node17&#45;&gt;Node19 -->
<g id="edge23_Node000017_Node000019" class="edge">
<title>Node17&#45;&gt;Node19</title>
<g id="a_edge23_Node000017_Node000019"><a xlink:title=" ">
<path fill="none" stroke="#63b8ff" d="M732.14,-179.55C740.84,-177.08 749.79,-174.22 758,-171 774.85,-164.4 777.9,-160.25 794,-152 808.81,-144.41 825.33,-136.16 839.21,-129.3"/>
<polygon fill="#63b8ff" stroke="#63b8ff" points="840.46,-132.58 847.88,-125.02 837.36,-126.31 840.46,-132.58"/>
</a>
</g>
</g>
<!-- Node22 -->
<g id="Node000022" class="node">
<title>Node22</title>
<g id="a_Node000022"><a xlink:href="../../db/d15/class_a_e_file_writer.html#a01d537821c5760615e126f1c159b67da" target="_top" xlink:title="Write binary data, as is, to file, and flush if necessary.">
<polygon fill="white" stroke="#666666" points="938.62,-181 804.12,-181 804.12,-161 938.62,-161 938.62,-181"/>
<text text-anchor="middle" x="871.38" y="-167.5" font-family="Helvetica,sans-Serif" font-size="10.00">AEFileWriter::writeData_ptr</text>
</a>
</g>
</g>
<!-- Node17&#45;&gt;Node22 -->
<g id="edge26_Node000017_Node000022" class="edge">
<title>Node17&#45;&gt;Node22</title>
<g id="a_edge26_Node000017_Node000022"><a xlink:title=" ">
<path fill="none" stroke="#63b8ff" d="M758.35,-182.6C769.59,-181.44 781.27,-180.23 792.64,-179.05"/>
<polygon fill="#63b8ff" stroke="#63b8ff" points="792.81,-182.55 802.39,-178.04 792.09,-175.59 792.81,-182.55"/>
</a>
</g>
</g>
<!-- Node20 -->
<g id="Node000020" class="node">
<title>Node20</title>
<g id="a_Node000020"><a xlink:href="../../de/dde/namespaceace_1_1utils.html#a2458b79e1a70255b471414a4bb5680ce" target="_top" xlink:title="Formats the current **(c)time point as YYYY&#45;MM&#45;DD.HH:mm:SS string**.">
<polygon fill="white" stroke="#666666" points="1103.88,-143 994.88,-143 994.88,-123 1103.88,-123 1103.88,-143"/>
<text text-anchor="middle" x="1049.38" y="-129.5" font-family="Helvetica,sans-Serif" font-size="10.00">ace::utils::formatDate</text>
</a>
</g>
</g>
<!-- Node19&#45;&gt;Node20 -->
<g id="edge24_Node000019_Node000020" class="edge">
<title>Node19&#45;&gt;Node20</title>
<g id="a_edge24_Node000019_Node000020"><a xlink:title=" ">
<path fill="none" stroke="#63b8ff" d="M933.93,-120.65C949.96,-122.38 967.28,-124.25 983.47,-125.99"/>
<polygon fill="#63b8ff" stroke="#63b8ff" points="982.65,-129.43 992.97,-127.02 983.4,-122.47 982.65,-129.43"/>
</a>
</g>
</g>
<!-- Node21 -->
<g id="Node000021" class="node">
<title>Node21</title>
<g id="a_Node000021"><a xlink:href="../../da/dea/struct_a_e_log_entry.html#a958d25c57a94cfae8e7f31843e6c63ef" target="_top" xlink:title="Deduces the entry&#39;s log type and returns a c&#45;string of it.">
<polygon fill="white" stroke="#666666" points="1114,-105 984.75,-105 984.75,-85 1114,-85 1114,-105"/>
<text text-anchor="middle" x="1049.38" y="-91.5" font-family="Helvetica,sans-Serif" font-size="10.00">AELogEntry::typeToString</text>
</a>
</g>
</g>
<!-- Node19&#45;&gt;Node21 -->
<g id="edge25_Node000019_Node000021" class="edge">
<title>Node19&#45;&gt;Node21</title>
<g id="a_edge25_Node000019_Node000021"><a xlink:title=" ">
<path fill="none" stroke="#63b8ff" d="M933.93,-107.35C946.58,-105.99 960.04,-104.54 973.11,-103.13"/>
<polygon fill="#63b8ff" stroke="#63b8ff" points="973.39,-106.61 982.96,-102.06 972.64,-99.66 973.39,-106.61"/>
</a>
</g>
</g>
<!-- Node23&#45;&gt;Node2 -->
<g id="edge34_Node000023_Node000002" class="edge">
<title>Node23&#45;&gt;Node2</title>
<g id="a_edge34_Node000023_Node000002"><a xlink:title=" ">
<path fill="none" stroke="#63b8ff" d="M532.37,-200.39C554.31,-208.53 585.84,-219.94 613.75,-229 676.06,-249.23 747.67,-269.95 799.39,-284.47"/>
<polygon fill="#63b8ff" stroke="#63b8ff" points="798.41,-287.83 808.98,-287.16 800.29,-281.09 798.41,-287.83"/>
</a>
</g>
</g>
<!-- Node23&#45;&gt;Node11 -->
<g id="edge37_Node000023_Node000011" class="edge">
<title>Node23&#45;&gt;Node11</title>
<g id="a_edge37_Node000023_Node000011"><a xlink:title=" ">
<path fill="none" stroke="#63b8ff" d="M511.59,-200.33C538.34,-240.72 636.13,-388.39 671.77,-442.21"/>
<polygon fill="#63b8ff" stroke="#63b8ff" points="668.75,-443.99 677.19,-450.4 674.59,-440.13 668.75,-443.99"/>
</a>
</g>
</g>
<!-- Node23&#45;&gt;Node17 -->
<g id="edge38_Node000023_Node000017" class="edge">
<title>Node23&#45;&gt;Node17</title>
<g id="a_edge38_Node000023_Node000017"><a xlink:title=" ">
<path fill="none" stroke="#63b8ff" d="M570.54,-190C580.8,-190 591.52,-190 602.09,-190"/>
<polygon fill="#63b8ff" stroke="#63b8ff" points="601.98,-193.5 611.98,-190 601.98,-186.5 601.98,-193.5"/>
</a>
</g>
</g>
<!-- Node23&#45;&gt;Node18 -->
<g id="edge32_Node000023_Node000018" class="edge">
<title>Node23&#45;&gt;Node18</title>
<g id="a_edge32_Node000023_Node000018"><a xlink:title=" ">
<path fill="none" stroke="#63b8ff" d="M558.65,-200.48C576.17,-203.6 595.74,-206.77 613.75,-209 677.64,-216.91 750.91,-221.94 802.77,-224.82"/>
<polygon fill="#63b8ff" stroke="#63b8ff" points="802.46,-228.31 812.64,-225.35 802.84,-221.32 802.46,-228.31"/>
</a>
</g>
</g>
<!-- Node23&#45;&gt;Node19 -->
<g id="edge33_Node000023_Node000019" class="edge">
<title>Node23&#45;&gt;Node19</title>
<g id="a_edge33_Node000023_Node000019"><a xlink:title=" ">
<path fill="none" stroke="#63b8ff" d="M510.39,-179.57C524.19,-155.29 562.33,-95.37 613.75,-73 690.48,-39.61 790.73,-76.13 840.15,-98.78"/>
<polygon fill="#63b8ff" stroke="#63b8ff" points="838.55,-101.89 849.08,-103 841.54,-95.56 838.55,-101.89"/>
</a>
</g>
</g>
<!-- Node23&#45;&gt;Node22 -->
<g id="edge36_Node000023_Node000022" class="edge">
<title>Node23&#45;&gt;Node22</title>
<g id="a_edge36_Node000023_Node000022"><a xlink:title=" ">
<path fill="none" stroke="#63b8ff" d="M512.31,-179.64C528.26,-158.78 567.68,-112.26 613.75,-95 673.79,-72.51 699.11,-69.67 758,-95 779.37,-104.19 775.3,-119.16 794,-133 806.12,-141.97 820.67,-149.81 833.81,-156.01"/>
<polygon fill="#63b8ff" stroke="#63b8ff" points="832.04,-159.05 842.6,-159.99 834.93,-152.67 832.04,-159.05"/>
</a>
</g>
</g>
<!-- Node24 -->
<g id="Node000024" class="node">
<title>Node24</title>
<g id="a_Node000024"><a xlink:href="../../da/dea/struct_a_e_log_entry.html#a58aeadbca0c2c0863b534a52d40d22a8" target="_top" xlink:title="Clears the current entry and sets its values to zero/invalid.">
<polygon fill="white" stroke="#666666" points="745.25,-162 626.5,-162 626.5,-142 745.25,-142 745.25,-162"/>
<text text-anchor="middle" x="685.88" y="-148.5" font-family="Helvetica,sans-Serif" font-size="10.00">AELogEntry::clearEntry</text>
</a>
</g>
</g>
<!-- Node23&#45;&gt;Node24 -->
<g id="edge31_Node000023_Node000024" class="edge">
<title>Node23&#45;&gt;Node24</title>
<g id="a_edge31_Node000023_Node000024"><a xlink:title=" ">
<path fill="none" stroke="#63b8ff" d="M554.45,-179.52C576,-174.97 601.45,-169.6 624.12,-164.82"/>
<polygon fill="#63b8ff" stroke="#63b8ff" points="624.8,-168.25 633.86,-162.76 623.35,-161.4 624.8,-168.25"/>
</a>
</g>
</g>
<!-- Node25 -->
<g id="Node000025" class="node">
<title>Node25</title>
<g id="a_Node000025"><a xlink:href="../../de/dde/namespaceace_1_1utils.html#ae3cab8babc7164fe97d71c65b247e848" target="_top" xlink:title="Convenient sleep function to sleep the thread for microseconds.">
<polygon fill="white" stroke="#666666" points="735.12,-124 636.62,-124 636.62,-104 735.12,-104 735.12,-124"/>
<text text-anchor="middle" x="685.88" y="-110.5" font-family="Helvetica,sans-Serif" font-size="10.00">ace::utils::sleepUS</text>
</a>
</g>
</g>
<!-- Node23&#45;&gt;Node25 -->
<g id="edge35_Node000023_Node000025" class="edge">
<title>Node23&#45;&gt;Node25</title>
<g id="a_edge35_Node000023_Node000025"><a xlink:title=" ">
<path fill="none" stroke="#63b8ff" d="M521.57,-179.7C542.52,-167.23 579.72,-146.25 613.75,-133 618.63,-131.1 623.77,-129.32 628.96,-127.67"/>
<polygon fill="#63b8ff" stroke="#63b8ff" points="629.6,-131.14 638.17,-124.91 627.59,-124.43 629.6,-131.14"/>
</a>
</g>
</g>
</g>
</svg>

<g id="navigator" transform="translate(0 0)" fill="#404254">
  <rect fill="#f2f5e9" fill-opacity="0.5" stroke="#606060" stroke-width=".5" x="0" y="0" width="60" height="60"/>
  <use id="zoomplus" xlink:href="#zoomPlus" x="17" y="9" onmousedown="handleZoom(evt,'in')"/>
  <use id="zoomminus" xlink:href="#zoomMin" x="42" y="9" onmousedown="handleZoom(evt,'out')"/>
  <use id="reset" xlink:href="#resetDef" x="30" y="36" onmousedown="handleReset()"/>
   <use id="arrowup" xlink:href="#arrowUp" x="0" y="0" onmousedown="handlePan(0,-1)"/>
  <use id="arrowright" xlink:href="#arrowRight" x="0" y="0" onmousedown="handlePan(1,0)"/>
  <use id="arrowdown" xlink:href="#arrowDown" x="0" y="0" onmousedown="handlePan(0,1)"/>
  <use id="arrowleft" xlink:href="#arrowLeft" x="0" y="0" onmousedown="handlePan(-1,0)"/>
</g>
<svg viewBox="0 0 15 15" width="100%" height="30px" preserveAspectRatio="xMaxYMin meet">
 <g id="arrow_out" transform="scale(0.3 0.3)">
  <a xlink:href="class_a_e_logger_a134f36542cb09532588436c53df9653d_cgraph_org.svg" target="_base">
   <rect id="button" ry="5" rx="5" y="6" x="6" height="38" width="38"
        fill="#f2f5e9" fill-opacity="0.5" stroke="#606060" stroke-width="1.0"/>
   <path id="arrow"
     d="M 11.500037,31.436501 C 11.940474,20.09759 22.043105,11.32322 32.158766,21.979434 L 37.068811,17.246167 C 37.068811,17.246167 37.088388,32 37.088388,32 L 22.160133,31.978069 C 22.160133,31.978069 26.997745,27.140456 26.997745,27.140456 C 18.528582,18.264221 13.291696,25.230495 11.500037,31.436501 z"
     style="fill:#404040;"/>
  </a>
 </g>
</svg>

<style type='text/css'>
<![CDATA[
[data-mouse-over-selected='false'] { opacity: 0.7; }
[data-mouse-over-selected='true']  { opacity: 1.0; }
]]>
</style>
<script type="application/ecmascript"><![CDATA[
document.addEventListener('DOMContentLoaded', (event) => {
  highlightEdges();
  highlightAdjacentNodes();
});
]]></script>
</svg>
