<?xml version="1.0" encoding="UTF-8" standalone="no"?>
<!DOCTYPE svg PUBLIC "-//W3C//DTD SVG 1.1//EN"
 "http://www.w3.org/Graphics/SVG/1.1/DTD/svg11.dtd">
<!-- Generated by graphviz version 10.0.1 (20240210.2158)
 -->
<!-- Title: AELogger::isClosed Pages: 1 -->
<svg width="1032pt" height="372pt"
 viewBox="0.00 0.00 1032.00 371.91" xmlns="http://www.w3.org/2000/svg" xmlns:xlink="http://www.w3.org/1999/xlink">
<g id="graph0" class="graph" transform="scale(1 1) rotate(0) translate(4 367.91)">
<title>AELogger::isClosed</title>
<!-- Node1 -->
<g id="Node000001" class="node">
<title>Node1</title>
<g id="a_Node000001"><a xlink:title="Checks if a log file isn&#39;t open by this logger.">
<polygon fill="#999999" stroke="#666666" points="1024,-300.46 921.75,-300.46 921.75,-280.46 1024,-280.46 1024,-300.46"/>
<text text-anchor="middle" x="972.88" y="-286.96" font-family="Helvetica,sans-Serif" font-size="10.00">AELogger::isClosed</text>
</a>
</g>
</g>
<!-- Node2 -->
<g id="Node000002" class="node">
<title>Node2</title>
<g id="a_Node000002"><a xlink:href="../../d8/dfc/class_a_e_logger.html#a2f64d8f5de2f249f7cb973a82ec1e48a" target="_top" xlink:title="Close the file, if it was opened.">
<polygon fill="white" stroke="#666666" points="548.88,-186.46 445.12,-186.46 445.12,-166.46 548.88,-166.46 548.88,-186.46"/>
<text text-anchor="middle" x="497" y="-172.96" font-family="Helvetica,sans-Serif" font-size="10.00">AELogger::closeLog</text>
</a>
</g>
</g>
<!-- Node1&#45;&gt;Node2 -->
<g id="edge1_Node000001_Node000002" class="edge">
<title>Node1&#45;&gt;Node2</title>
<g id="a_edge1_Node000001_Node000002"><a xlink:title=" ">
<path fill="none" stroke="#63b8ff" d="M932.72,-304.36C861.97,-327 709.92,-364.1 599.5,-309.46 545.87,-282.93 512.83,-212.98 501.97,-186.67"/>
<polygon fill="#63b8ff" stroke="#63b8ff" points="933.51,-307.79 941.92,-301.34 931.33,-301.14 933.51,-307.79"/>
</a>
</g>
</g>
<!-- Node9 -->
<g id="Node000009" class="node">
<title>Node9</title>
<g id="a_Node000009"><a xlink:href="../../d8/dfc/class_a_e_logger.html#ac533941173224cb21fe09326726ce754" target="_top" xlink:title="Request a log entry to be written to the opened log file.">
<polygon fill="white" stroke="#666666" points="885.75,-224.46 774.5,-224.46 774.5,-204.46 885.75,-204.46 885.75,-224.46"/>
<text text-anchor="middle" x="830.12" y="-210.96" font-family="Helvetica,sans-Serif" font-size="10.00">AELogger::writeToLog</text>
</a>
</g>
</g>
<!-- Node1&#45;&gt;Node9 -->
<g id="edge8_Node000001_Node000009" class="edge">
<title>Node1&#45;&gt;Node9</title>
<g id="a_edge8_Node000001_Node000009"><a xlink:title=" ">
<path fill="none" stroke="#63b8ff" d="M942.67,-274.69C914.9,-259.7 873.96,-237.59 850.17,-224.75"/>
<polygon fill="#63b8ff" stroke="#63b8ff" points="940.81,-277.66 951.27,-279.34 944.13,-271.51 940.81,-277.66"/>
</a>
</g>
</g>
<!-- Node3 -->
<g id="Node000003" class="node">
<title>Node3</title>
<g id="a_Node000003"><a xlink:href="../../d8/dfc/class_a_e_logger.html#a4b6c6a8134c8f7f24db7d3f35d62624d" target="_top" xlink:title="Class destructor.">
<polygon fill="white" stroke="#666666" points="394.5,-262.46 281,-262.46 281,-242.46 394.5,-242.46 394.5,-262.46"/>
<text text-anchor="middle" x="337.75" y="-248.96" font-family="Helvetica,sans-Serif" font-size="10.00">AELogger::~AELogger</text>
</a>
</g>
</g>
<!-- Node2&#45;&gt;Node3 -->
<g id="edge2_Node000002_Node000003" class="edge">
<title>Node2&#45;&gt;Node3</title>
<g id="a_edge2_Node000002_Node000003"><a xlink:title=" ">
<path fill="none" stroke="#63b8ff" d="M464.22,-191.83C433.28,-206.77 387.13,-229.08 360.28,-242.06"/>
<polygon fill="#63b8ff" stroke="#63b8ff" points="465.62,-195.03 473.1,-187.53 462.58,-188.73 465.62,-195.03"/>
</a>
</g>
</g>
<!-- Node4 -->
<g id="Node000004" class="node">
<title>Node4</title>
<g id="a_Node000004"><a xlink:href="../../d8/dfc/class_a_e_logger.html#a284034896688215f7e87242764c5985d" target="_top" xlink:title="Starts the log&#45;writing thread.">
<polygon fill="white" stroke="#666666" points="393,-110.46 282.5,-110.46 282.5,-90.46 393,-90.46 393,-110.46"/>
<text text-anchor="middle" x="337.75" y="-96.96" font-family="Helvetica,sans-Serif" font-size="10.00">AELogger::startWriter</text>
</a>
</g>
</g>
<!-- Node2&#45;&gt;Node4 -->
<g id="edge3_Node000002_Node000004" class="edge">
<title>Node2&#45;&gt;Node4</title>
<g id="a_edge3_Node000002_Node000004"><a xlink:title=" ">
<path fill="none" stroke="#63b8ff" d="M464.22,-161.1C433.28,-146.15 387.13,-123.85 360.28,-110.87"/>
<polygon fill="#63b8ff" stroke="#63b8ff" points="462.58,-164.2 473.1,-165.4 465.62,-157.89 462.58,-164.2"/>
</a>
</g>
</g>
<!-- Node5 -->
<g id="Node000005" class="node">
<title>Node5</title>
<g id="a_Node000005"><a xlink:href="../../d8/dfc/class_a_e_logger.html#a134f36542cb09532588436c53df9653d" target="_top" xlink:title="Class constructor – it opens the file with the given path and name and start logging to it.">
<polygon fill="white" stroke="#666666" points="245,-138.46 137.5,-138.46 137.5,-118.46 245,-118.46 245,-138.46"/>
<text text-anchor="middle" x="191.25" y="-124.96" font-family="Helvetica,sans-Serif" font-size="10.00">AELogger::AELogger</text>
</a>
</g>
</g>
<!-- Node4&#45;&gt;Node5 -->
<g id="edge4_Node000004_Node000005" class="edge">
<title>Node4&#45;&gt;Node5</title>
<g id="a_edge4_Node000004_Node000005"><a xlink:title=" ">
<path fill="none" stroke="#63b8ff" d="M271.78,-113.05C262.86,-114.78 253.8,-116.54 245.14,-118.22"/>
<polygon fill="#63b8ff" stroke="#63b8ff" points="272.31,-116.52 281.46,-111.18 270.97,-109.64 272.31,-116.52"/>
</a>
</g>
</g>
<!-- Node6 -->
<g id="Node000006" class="node">
<title>Node6</title>
<g id="a_Node000006"><a xlink:href="../../d8/dfc/class_a_e_logger.html#a53b588f9874535299d612a4c71de9950" target="_top" xlink:title="Open the file to start logging.">
<polygon fill="white" stroke="#666666" points="242,-81.46 140.5,-81.46 140.5,-61.46 242,-61.46 242,-81.46"/>
<text text-anchor="middle" x="191.25" y="-67.96" font-family="Helvetica,sans-Serif" font-size="10.00">AELogger::openLog</text>
</a>
</g>
</g>
<!-- Node4&#45;&gt;Node6 -->
<g id="edge5_Node000004_Node000006" class="edge">
<title>Node4&#45;&gt;Node6</title>
<g id="a_edge5_Node000004_Node000006"><a xlink:title=" ">
<path fill="none" stroke="#63b8ff" d="M273.45,-87.76C263.06,-85.67 252.42,-83.54 242.41,-81.53"/>
<polygon fill="#63b8ff" stroke="#63b8ff" points="272.61,-91.16 283.1,-89.7 273.98,-84.3 272.61,-91.16"/>
</a>
</g>
</g>
<!-- Node7 -->
<g id="Node000007" class="node">
<title>Node7</title>
<g id="a_Node000007"><a xlink:href="../../d8/dfc/class_a_e_logger.html#ac8f55a9e3c92557ea3d92974093ff6fb" target="_top" xlink:title="Open the file to start logging.">
<polygon fill="white" stroke="#666666" points="101.5,-100.46 0,-100.46 0,-80.46 101.5,-80.46 101.5,-100.46"/>
<text text-anchor="middle" x="50.75" y="-86.96" font-family="Helvetica,sans-Serif" font-size="10.00">AELogger::openLog</text>
</a>
</g>
</g>
<!-- Node6&#45;&gt;Node7 -->
<g id="edge6_Node000006_Node000007" class="edge">
<title>Node6&#45;&gt;Node7</title>
<g id="a_edge6_Node000006_Node000007"><a xlink:title=" ">
<path fill="none" stroke="#63b8ff" d="M128.87,-79.88C119.78,-81.13 110.5,-82.4 101.68,-83.61"/>
<polygon fill="#63b8ff" stroke="#63b8ff" points="129.32,-83.36 138.75,-78.53 128.37,-76.42 129.32,-83.36"/>
</a>
</g>
</g>
<!-- Node8 -->
<g id="Node000008" class="node">
<title>Node8</title>
<g id="a_Node000008"><a xlink:href="../../d8/dfc/class_a_e_logger.html#acbfddb2d8f459f32ce58d7c06cc2ddaa" target="_top" xlink:title="Open the file to start logging.">
<polygon fill="white" stroke="#666666" points="101.5,-62.46 0,-62.46 0,-42.46 101.5,-42.46 101.5,-62.46"/>
<text text-anchor="middle" x="50.75" y="-48.96" font-family="Helvetica,sans-Serif" font-size="10.00">AELogger::openLog</text>
</a>
</g>
</g>
<!-- Node6&#45;&gt;Node8 -->
<g id="edge7_Node000006_Node000008" class="edge">
<title>Node6&#45;&gt;Node8</title>
<g id="a_edge7_Node000006_Node000008"><a xlink:title=" ">
<path fill="none" stroke="#63b8ff" d="M128.87,-63.04C119.78,-61.8 110.5,-60.52 101.68,-59.31"/>
<polygon fill="#63b8ff" stroke="#63b8ff" points="128.37,-66.51 138.75,-64.4 129.32,-59.57 128.37,-66.51"/>
</a>
</g>
</g>
<!-- Node9&#45;&gt;Node2 -->
<g id="edge11_Node000009_Node000002" class="edge">
<title>Node9&#45;&gt;Node2</title>
<g id="a_edge11_Node000009_Node000002"><a xlink:title=" ">
<path fill="none" stroke="#63b8ff" d="M774.09,-201.75C762.39,-199.38 750.08,-197.13 738.5,-195.46 673.62,-186.14 598.18,-181.11 549.35,-178.62"/>
<polygon fill="#63b8ff" stroke="#63b8ff" points="773.09,-205.12 783.59,-203.74 774.52,-198.27 773.09,-205.12"/>
</a>
</g>
</g>
<!-- Node9&#45;&gt;Node3 -->
<g id="edge10_Node000009_Node000003" class="edge">
<title>Node9&#45;&gt;Node3</title>
<g id="a_edge10_Node000009_Node000003"><a xlink:title=" ">
<path fill="none" stroke="#63b8ff" d="M817.37,-234.27C802.39,-257.34 774.12,-294.22 738.5,-309.46 603.16,-367.4 420.87,-291.93 359.72,-262.94"/>
<polygon fill="#63b8ff" stroke="#63b8ff" points="820.17,-236.4 822.49,-226.06 814.23,-232.69 820.17,-236.4"/>
</a>
</g>
</g>
<!-- Node9&#45;&gt;Node4 -->
<g id="edge15_Node000009_Node000004" class="edge">
<title>Node9&#45;&gt;Node4</title>
<g id="a_edge15_Node000009_Node000004"><a xlink:title=" ">
<path fill="none" stroke="#63b8ff" d="M821.22,-193.86C808.69,-164.46 781.23,-111.46 738.5,-88.46 615.45,-22.26 438.82,-67.56 368.9,-89.97"/>
<polygon fill="#63b8ff" stroke="#63b8ff" points="817.84,-194.85 824.85,-202.8 824.33,-192.22 817.84,-194.85"/>
</a>
</g>
</g>
<!-- Node9&#45;&gt;Node5 -->
<g id="edge9_Node000009_Node000005" class="edge">
<title>Node9&#45;&gt;Node5</title>
<g id="a_edge9_Node000009_Node000005"><a xlink:title=" ">
<path fill="none" stroke="#63b8ff" d="M820.64,-234.96C807.68,-263.19 780.02,-312.9 738.5,-333.46 615.76,-394.27 564.83,-349.26 430.5,-322.46 361.65,-308.73 335.94,-315.17 281,-271.46 234.13,-234.17 205.41,-164.91 195.83,-138.79"/>
<polygon fill="#63b8ff" stroke="#63b8ff" points="823.74,-236.6 824.55,-226.03 817.33,-233.79 823.74,-236.6"/>
</a>
</g>
</g>
<!-- Node9&#45;&gt;Node6 -->
<g id="edge14_Node000009_Node000006" class="edge">
<title>Node9&#45;&gt;Node6</title>
<g id="a_edge14_Node000009_Node000006"><a xlink:title=" ">
<path fill="none" stroke="#63b8ff" d="M824.7,-193.43C815.71,-156.73 791.52,-81.95 738.5,-50.46 564.89,52.62 302.57,-30.13 218.89,-61.04"/>
<polygon fill="#63b8ff" stroke="#63b8ff" points="821.2,-193.85 826.84,-202.82 828.03,-192.29 821.2,-193.85"/>
</a>
</g>
</g>
<!-- Node10 -->
<g id="Node000010" class="node">
<title>Node10</title>
<g id="a_Node000010"><a xlink:href="../../d8/dfc/class_a_e_logger.html#a5938787b6933f4b96ebff10643bd2497" target="_top" xlink:title="The function of the log writing thread to...read the entries, format them, write them,...">
<polygon fill="white" stroke="#666666" points="563.5,-110.46 430.5,-110.46 430.5,-90.46 563.5,-90.46 563.5,-110.46"/>
<text text-anchor="middle" x="497" y="-96.96" font-family="Helvetica,sans-Serif" font-size="10.00">AELogger::logWriterThread</text>
</a>
</g>
</g>
<!-- Node9&#45;&gt;Node10 -->
<g id="edge12_Node000009_Node000010" class="edge">
<title>Node9&#45;&gt;Node10</title>
<g id="a_edge12_Node000009_Node000010"><a xlink:title=" ">
<path fill="none" stroke="#63b8ff" d="M816.71,-194.47C801.42,-171.83 773.15,-135.94 738.5,-119.46 683.75,-93.43 614.02,-90.76 563.76,-93.36"/>
<polygon fill="#63b8ff" stroke="#63b8ff" points="813.77,-196.36 822.15,-202.84 819.63,-192.54 813.77,-196.36"/>
</a>
</g>
</g>
<!-- Node11 -->
<g id="Node000011" class="node">
<title>Node11</title>
<g id="a_Node000011"><a xlink:href="../../d8/dfc/class_a_e_logger.html#a53b212c259c40bda694476f09d1f171b" target="_top" xlink:title="Stops the log&#45;writing thread (after flushing the log queue).">
<polygon fill="white" stroke="#666666" points="723.88,-148.46 614.12,-148.46 614.12,-128.46 723.88,-128.46 723.88,-148.46"/>
<text text-anchor="middle" x="669" y="-134.96" font-family="Helvetica,sans-Serif" font-size="10.00">AELogger::stopWriter</text>
</a>
</g>
</g>
<!-- Node9&#45;&gt;Node11 -->
<g id="edge16_Node000009_Node000011" class="edge">
<title>Node9&#45;&gt;Node11</title>
<g id="a_edge16_Node000009_Node000011"><a xlink:title=" ">
<path fill="none" stroke="#63b8ff" d="M803.59,-198.12C785.8,-187.16 761.25,-172.87 738.5,-162.46 727.38,-157.38 714.86,-152.7 703.59,-148.85"/>
<polygon fill="#63b8ff" stroke="#63b8ff" points="801.61,-201.01 811.95,-203.34 805.32,-195.07 801.61,-201.01"/>
</a>
</g>
</g>
<!-- Node12 -->
<g id="Node000012" class="node">
<title>Node12</title>
<g id="a_Node000012"><a xlink:href="../../d8/dfc/class_a_e_logger.html#a42debdcd6da993064afc1f4d2357ecfb" target="_top" xlink:title="Writes the current status of the file logger instance (file name, and entries written).">
<polygon fill="white" stroke="#666666" points="725.75,-300.46 612.25,-300.46 612.25,-280.46 725.75,-280.46 725.75,-300.46"/>
<text text-anchor="middle" x="669" y="-286.96" font-family="Helvetica,sans-Serif" font-size="10.00">AELogger::writeStatus</text>
</a>
</g>
</g>
<!-- Node9&#45;&gt;Node12 -->
<g id="edge18_Node000009_Node000012" class="edge">
<title>Node9&#45;&gt;Node12</title>
<g id="a_edge18_Node000009_Node000012"><a xlink:title=" ">
<path fill="none" stroke="#63b8ff" d="M806.43,-231.36C788.7,-243.9 763.03,-260.63 738.5,-271.46 731.05,-274.76 722.89,-277.61 714.88,-280.04"/>
<polygon fill="#63b8ff" stroke="#63b8ff" points="808.11,-234.47 814.17,-225.78 804.02,-228.79 808.11,-234.47"/>
</a>
</g>
</g>
<!-- Node13 -->
<g id="Node000013" class="node">
<title>Node13</title>
<g id="a_Node000013"><a xlink:href="../../d8/dfc/class_a_e_logger.html#aa38725e74a352cd316126b32c614c12f" target="_top" xlink:title="Request a log entry to be written to the opened log file, using data from a log entry type.">
<polygon fill="white" stroke="#666666" points="724.62,-262.46 613.38,-262.46 613.38,-242.46 724.62,-242.46 724.62,-262.46"/>
<text text-anchor="middle" x="669" y="-248.96" font-family="Helvetica,sans-Serif" font-size="10.00">AELogger::writeToLog</text>
</a>
</g>
</g>
<!-- Node9&#45;&gt;Node13 -->
<g id="edge19_Node000009_Node000013" class="edge">
<title>Node9&#45;&gt;Node13</title>
<g id="a_edge19_Node000009_Node000013"><a xlink:title=" ">
<path fill="none" stroke="#63b8ff" d="M774.2,-227.58C754.45,-232.3 732.44,-237.55 713.76,-242.01"/>
<polygon fill="#63b8ff" stroke="#63b8ff" points="774.84,-231.03 783.75,-225.3 773.21,-224.22 774.84,-231.03"/>
</a>
</g>
</g>
<!-- Node14 -->
<g id="Node000014" class="node">
<title>Node14</title>
<g id="a_Node000014"><a xlink:href="../../d8/dfc/class_a_e_logger.html#a50dfd96a74d13471faebd4de499db5bf" target="_top" xlink:title="Request a debug log entry to be written to the opened log file.">
<polygon fill="white" stroke="#666666" points="738.5,-224.46 599.5,-224.46 599.5,-204.46 738.5,-204.46 738.5,-224.46"/>
<text text-anchor="middle" x="669" y="-210.96" font-family="Helvetica,sans-Serif" font-size="10.00">AELogger::writeToLogDebug</text>
</a>
</g>
</g>
<!-- Node9&#45;&gt;Node14 -->
<g id="edge20_Node000009_Node000014" class="edge">
<title>Node9&#45;&gt;Node14</title>
<g id="a_edge20_Node000009_Node000014"><a xlink:title=" ">
<path fill="none" stroke="#63b8ff" d="M762.92,-207.8C754.99,-207.7 746.88,-207.69 738.92,-207.77"/>
<polygon fill="#63b8ff" stroke="#63b8ff" points="762.79,-211.3 772.85,-207.99 762.92,-204.3 762.79,-211.3"/>
</a>
</g>
</g>
<!-- Node10&#45;&gt;Node4 -->
<g id="edge13_Node000010_Node000004" class="edge">
<title>Node10&#45;&gt;Node4</title>
<g id="a_edge13_Node000010_Node000004"><a xlink:title=" ">
<path fill="none" stroke="#63b8ff" d="M418.91,-100.46C410.26,-100.46 401.59,-100.46 393.31,-100.46"/>
<polygon fill="#63b8ff" stroke="#63b8ff" points="418.71,-103.96 428.71,-100.46 418.71,-96.96 418.71,-103.96"/>
</a>
</g>
</g>
<!-- Node11&#45;&gt;Node2 -->
<g id="edge17_Node000011_Node000002" class="edge">
<title>Node11&#45;&gt;Node2</title>
<g id="a_edge17_Node000011_Node000002"><a xlink:title=" ">
<path fill="none" stroke="#63b8ff" d="M609.91,-151.45C588.65,-156.2 564.89,-161.51 544.75,-166.01"/>
<polygon fill="#63b8ff" stroke="#63b8ff" points="610.62,-154.88 619.62,-149.28 609.1,-148.04 610.62,-154.88"/>
</a>
</g>
</g>
<!-- Node14&#45;&gt;Node9 -->
<g id="edge21_Node000014_Node000009" class="edge">
<title>Node14&#45;&gt;Node9</title>
<g id="a_edge21_Node000014_Node000009"><a xlink:title=" ">
<path fill="none" stroke="#63b8ff" d="M750.37,-221.21C758.49,-221.21 766.6,-221.11 774.36,-220.91"/>
<polygon fill="#63b8ff" stroke="#63b8ff" points="750.45,-217.71 740.43,-221.17 750.41,-224.71 750.45,-217.71"/>
</a>
</g>
</g>
</g>
</svg>
