<?xml version="1.0" encoding="UTF-8" standalone="no"?>
<!DOCTYPE svg PUBLIC "-//W3C//DTD SVG 1.1//EN"
 "http://www.w3.org/Graphics/SVG/1.1/DTD/svg11.dtd">
<!-- Generated by graphviz version 10.0.1 (20240210.2158)
 -->
<!-- Title: AELogger::getLogAbsolutePath Pages: 1 -->
<svg width="619pt" height="28pt"
 viewBox="0.00 0.00 618.75 28.00" xmlns="http://www.w3.org/2000/svg" xmlns:xlink="http://www.w3.org/1999/xlink">
<g id="graph0" class="graph" transform="scale(1 1) rotate(0) translate(4 24)">
<title>AELogger::getLogAbsolutePath</title>
<!-- Node1 -->
<g id="Node000001" class="node">
<title>Node1</title>
<g id="a_Node000001"><a xlink:title="Get the full/absolute path of the log file.">
<polygon fill="#999999" stroke="#666666" points="152.5,-20 0,-20 0,0 152.5,0 152.5,-20"/>
<text text-anchor="middle" x="76.25" y="-6.5" font-family="Helvetica,sans-Serif" font-size="10.00">AELogger::getLogAbsolutePath</text>
</a>
</g>
</g>
<!-- Node2 -->
<g id="Node000002" class="node">
<title>Node2</title>
<g id="a_Node000002"><a xlink:href="../../db/d15/class_a_e_file_writer.html#a5980b915ad3a59393e2818d374c3dc85" target="_top" xlink:title="Returns the full, absolute path of the opened file.">
<polygon fill="white" stroke="#666666" points="315.5,-20 188.5,-20 188.5,0 315.5,0 315.5,-20"/>
<text text-anchor="middle" x="252" y="-6.5" font-family="Helvetica,sans-Serif" font-size="10.00">AEFileWriter::getFullPath</text>
</a>
</g>
</g>
<!-- Node1&#45;&gt;Node2 -->
<g id="edge1_Node000001_Node000002" class="edge">
<title>Node1&#45;&gt;Node2</title>
<g id="a_edge1_Node000001_Node000002"><a xlink:title=" ">
<path fill="none" stroke="#63b8ff" d="M152.95,-10C160.82,-10 168.81,-10 176.66,-10"/>
<polygon fill="#63b8ff" stroke="#63b8ff" points="176.51,-13.5 186.51,-10 176.51,-6.5 176.51,-13.5"/>
</a>
</g>
</g>
<!-- Node3 -->
<g id="Node000003" class="node">
<title>Node3</title>
<g id="a_Node000003"><a xlink:href="../../db/d15/class_a_e_file_writer.html#a0743145db01b527ae9612f359e5c0090" target="_top" xlink:title="Checks if a file isn&#39;t open by this file&#45;writer.">
<polygon fill="white" stroke="#666666" points="466.5,-20 351.5,-20 351.5,0 466.5,0 466.5,-20"/>
<text text-anchor="middle" x="409" y="-6.5" font-family="Helvetica,sans-Serif" font-size="10.00">AEFileWriter::isClosed</text>
</a>
</g>
</g>
<!-- Node2&#45;&gt;Node3 -->
<g id="edge2_Node000002_Node000003" class="edge">
<title>Node2&#45;&gt;Node3</title>
<g id="a_edge2_Node000002_Node000003"><a xlink:title=" ">
<path fill="none" stroke="#63b8ff" d="M315.6,-10C323.59,-10 331.81,-10 339.88,-10"/>
<polygon fill="#63b8ff" stroke="#63b8ff" points="339.66,-13.5 349.66,-10 339.66,-6.5 339.66,-13.5"/>
</a>
</g>
</g>
<!-- Node4 -->
<g id="Node000004" class="node">
<title>Node4</title>
<g id="a_Node000004"><a xlink:href="../../db/d15/class_a_e_file_writer.html#a47e3c08c276394bce7b612331cf4762d" target="_top" xlink:title="Checks if a file is open by this file&#45;writer.">
<polygon fill="white" stroke="#666666" points="610.75,-20 502.5,-20 502.5,0 610.75,0 610.75,-20"/>
<text text-anchor="middle" x="556.62" y="-6.5" font-family="Helvetica,sans-Serif" font-size="10.00">AEFileWriter::isOpen</text>
</a>
</g>
</g>
<!-- Node3&#45;&gt;Node4 -->
<g id="edge3_Node000003_Node000004" class="edge">
<title>Node3&#45;&gt;Node4</title>
<g id="a_edge3_Node000003_Node000004"><a xlink:title=" ">
<path fill="none" stroke="#63b8ff" d="M466.72,-10C474.64,-10 482.84,-10 490.9,-10"/>
<polygon fill="#63b8ff" stroke="#63b8ff" points="490.65,-13.5 500.65,-10 490.65,-6.5 490.65,-13.5"/>
</a>
</g>
</g>
</g>
</svg>
