<?xml version="1.0" encoding="UTF-8" standalone="no"?>
<!DOCTYPE svg PUBLIC "-//W3C//DTD SVG 1.1//EN"
 "http://www.w3.org/Graphics/SVG/1.1/DTD/svg11.dtd">
<!-- Generated by graphviz version 10.0.1 (20240210.2158)
 -->
<!-- Title: AECustomTypes/include/AELogEntry.hpp Pages: 1 -->
<svg width="912pt" height="196pt"
 viewBox="0.00 0.00 911.88 196.00" xmlns="http://www.w3.org/2000/svg" xmlns:xlink="http://www.w3.org/1999/xlink">
<g id="graph0" class="graph" transform="scale(1 1) rotate(0) translate(4 192)">
<title>AECustomTypes/include/AELogEntry.hpp</title>
<!-- Node1 -->
<g id="Node000001" class="node">
<title>Node1</title>
<g id="a_Node000001"><a xlink:title=" ">
<polygon fill="#999999" stroke="#666666" points="264.88,-188 67.38,-188 67.38,-168 264.88,-168 264.88,-188"/>
<text text-anchor="middle" x="166.12" y="-174.5" font-family="Helvetica,sans-Serif" font-size="10.00">AECustomTypes/include/AELogEntry.hpp</text>
</a>
</g>
</g>
<!-- Node2 -->
<g id="Node000002" class="node">
<title>Node2</title>
<g id="a_Node000002"><a xlink:href="../../dc/dd8/_a_e_log_types_8hpp.html" target="_top" xlink:title=" ">
<polygon fill="white" stroke="#666666" points="90.25,-132 0,-132 0,-112 90.25,-112 90.25,-132"/>
<text text-anchor="middle" x="45.12" y="-118.5" font-family="Helvetica,sans-Serif" font-size="10.00">AELogTypes.hpp</text>
</a>
</g>
</g>
<!-- Node1&#45;&gt;Node2 -->
<g id="edge1_Node000001_Node000002" class="edge">
<title>Node1&#45;&gt;Node2</title>
<g id="a_edge1_Node000001_Node000002"><a xlink:title=" ">
<path fill="none" stroke="#63b8ff" d="M145.05,-167.59C126.17,-159.17 98.21,-146.69 76.66,-137.07"/>
<polygon fill="#63b8ff" stroke="#63b8ff" points="78.31,-133.98 67.75,-133.1 75.45,-140.37 78.31,-133.98"/>
</a>
</g>
</g>
<!-- Node3 -->
<g id="Node000003" class="node">
<title>Node3</title>
<g id="a_Node000003"><a xlink:href="../../d7/d7f/_a_e_module_base_8hpp.html" target="_top" xlink:title=" ">
<polygon fill="white" stroke="#666666" points="282.12,-132 146.12,-132 146.12,-112 282.12,-112 282.12,-132"/>
<text text-anchor="middle" x="214.12" y="-118.5" font-family="Helvetica,sans-Serif" font-size="10.00">include/AEModuleBase.hpp</text>
</a>
</g>
</g>
<!-- Node1&#45;&gt;Node3 -->
<g id="edge2_Node000001_Node000003" class="edge">
<title>Node1&#45;&gt;Node3</title>
<g id="a_edge2_Node000001_Node000003"><a xlink:title=" ">
<path fill="none" stroke="#63b8ff" d="M174.49,-167.59C181.02,-160.24 190.31,-149.8 198.24,-140.87"/>
<polygon fill="#63b8ff" stroke="#63b8ff" points="200.83,-143.23 204.85,-133.43 195.59,-138.58 200.83,-143.23"/>
</a>
</g>
</g>
<!-- Node9 -->
<g id="Node000009" class="node">
<title>Node9</title>
<g id="a_Node000009"><a xlink:title=" ">
<polygon fill="#e0e0e0" stroke="#999999" points="94.75,-76 49.5,-76 49.5,-56 94.75,-56 94.75,-76"/>
<text text-anchor="middle" x="72.12" y="-62.5" font-family="Helvetica,sans-Serif" font-size="10.00">atomic</text>
</a>
</g>
</g>
<!-- Node1&#45;&gt;Node9 -->
<g id="edge21_Node000001_Node000009" class="edge">
<title>Node1&#45;&gt;Node9</title>
<g id="a_edge21_Node000001_Node000009"><a xlink:title=" ">
<path fill="none" stroke="#63b8ff" d="M158.11,-167.62C142.5,-149.36 107.79,-108.73 87.56,-85.07"/>
<polygon fill="#63b8ff" stroke="#63b8ff" points="90.26,-82.83 81.1,-77.51 84.94,-87.38 90.26,-82.83"/>
</a>
</g>
</g>
<!-- Node12 -->
<g id="Node000012" class="node">
<title>Node12</title>
<g id="a_Node000012"><a xlink:href="../../de/de8/_a_e_utils_8hpp.html" target="_top" xlink:title="This file contains the engine&#39;s usefull utilities for trivial tasks.">
<polygon fill="white" stroke="#666666" points="619.88,-132 518.38,-132 518.38,-112 619.88,-112 619.88,-132"/>
<text text-anchor="middle" x="569.12" y="-118.5" font-family="Helvetica,sans-Serif" font-size="10.00">include/AEUtils.hpp</text>
</a>
</g>
</g>
<!-- Node1&#45;&gt;Node12 -->
<g id="edge11_Node000001_Node000012" class="edge">
<title>Node1&#45;&gt;Node12</title>
<g id="a_edge11_Node000001_Node000012"><a xlink:title=" ">
<path fill="none" stroke="#63b8ff" d="M236.78,-167.53C313.17,-157.3 433.76,-141.14 506.76,-131.36"/>
<polygon fill="#63b8ff" stroke="#63b8ff" points="507.1,-134.84 516.55,-130.04 506.17,-127.9 507.1,-134.84"/>
</a>
</g>
</g>
<!-- Node4 -->
<g id="Node000004" class="node">
<title>Node4</title>
<g id="a_Node000004"><a xlink:href="../../dc/d89/_a_e_typedefs_8hpp.html" target="_top" xlink:title="This file contains the engine&#39;s typedefs and variable type aliases.">
<polygon fill="white" stroke="#666666" points="373.62,-76 252.62,-76 252.62,-56 373.62,-56 373.62,-76"/>
<text text-anchor="middle" x="313.12" y="-62.5" font-family="Helvetica,sans-Serif" font-size="10.00">include/AETypedefs.hpp</text>
</a>
</g>
</g>
<!-- Node3&#45;&gt;Node4 -->
<g id="edge3_Node000003_Node000004" class="edge">
<title>Node3&#45;&gt;Node4</title>
<g id="a_edge3_Node000003_Node000004"><a xlink:title=" ">
<path fill="none" stroke="#63b8ff" d="M231.37,-111.59C246.47,-103.36 268.65,-91.26 286.11,-81.74"/>
<polygon fill="#63b8ff" stroke="#63b8ff" points="287.31,-85.07 294.42,-77.2 283.96,-78.92 287.31,-85.07"/>
</a>
</g>
</g>
<!-- Node8 -->
<g id="Node000008" class="node">
<title>Node8</title>
<g id="a_Node000008"><a xlink:href="../../dd/dd8/_a_e_flags_8hpp.html" target="_top" xlink:title="This file contains the flags to manipulate engine&#39;s funcitonality.">
<polygon fill="white" stroke="#666666" points="498.12,-76 392.12,-76 392.12,-56 498.12,-56 498.12,-76"/>
<text text-anchor="middle" x="445.12" y="-62.5" font-family="Helvetica,sans-Serif" font-size="10.00">include/AEFlags.hpp</text>
</a>
</g>
</g>
<!-- Node3&#45;&gt;Node8 -->
<g id="edge7_Node000003_Node000008" class="edge">
<title>Node3&#45;&gt;Node8</title>
<g id="a_edge7_Node000003_Node000008"><a xlink:title=" ">
<path fill="none" stroke="#63b8ff" d="M254.63,-111.53C293.27,-102.5 351.64,-88.85 393.58,-79.05"/>
<polygon fill="#63b8ff" stroke="#63b8ff" points="394.26,-82.49 403.2,-76.8 392.66,-75.67 394.26,-82.49"/>
</a>
</g>
</g>
<!-- Node3&#45;&gt;Node9 -->
<g id="edge8_Node000003_Node000009" class="edge">
<title>Node3&#45;&gt;Node9</title>
<g id="a_edge8_Node000003_Node000009"><a xlink:title=" ">
<path fill="none" stroke="#63b8ff" d="M189.39,-111.59C166.27,-102.8 131.56,-89.6 105.9,-79.84"/>
<polygon fill="#63b8ff" stroke="#63b8ff" points="107.17,-76.58 96.58,-76.3 104.68,-83.13 107.17,-76.58"/>
</a>
</g>
</g>
<!-- Node10 -->
<g id="Node000010" class="node">
<title>Node10</title>
<g id="a_Node000010"><a xlink:title=" ">
<polygon fill="#e0e0e0" stroke="#999999" points="234.12,-76 194.12,-76 194.12,-56 234.12,-56 234.12,-76"/>
<text text-anchor="middle" x="214.12" y="-62.5" font-family="Helvetica,sans-Serif" font-size="10.00">string</text>
</a>
</g>
</g>
<!-- Node3&#45;&gt;Node10 -->
<g id="edge9_Node000003_Node000010" class="edge">
<title>Node3&#45;&gt;Node10</title>
<g id="a_edge9_Node000003_Node000010"><a xlink:title=" ">
<path fill="none" stroke="#63b8ff" d="M214.12,-111.59C214.12,-105.01 214.12,-95.96 214.12,-87.73"/>
<polygon fill="#63b8ff" stroke="#63b8ff" points="217.63,-87.81 214.13,-77.81 210.63,-87.81 217.63,-87.81"/>
</a>
</g>
</g>
<!-- Node11 -->
<g id="Node000011" class="node">
<title>Node11</title>
<g id="a_Node000011"><a xlink:title=" ">
<polygon fill="#e0e0e0" stroke="#999999" points="175.75,-76 112.5,-76 112.5,-56 175.75,-56 175.75,-76"/>
<text text-anchor="middle" x="144.12" y="-62.5" font-family="Helvetica,sans-Serif" font-size="10.00">string_view</text>
</a>
</g>
</g>
<!-- Node3&#45;&gt;Node11 -->
<g id="edge10_Node000003_Node000011" class="edge">
<title>Node3&#45;&gt;Node11</title>
<g id="a_edge10_Node000003_Node000011"><a xlink:title=" ">
<path fill="none" stroke="#63b8ff" d="M201.93,-111.59C191.79,-103.77 177.13,-92.46 165.11,-83.19"/>
<polygon fill="#63b8ff" stroke="#63b8ff" points="167.43,-80.56 157.38,-77.22 163.16,-86.1 167.43,-80.56"/>
</a>
</g>
</g>
<!-- Node5 -->
<g id="Node000005" class="node">
<title>Node5</title>
<g id="a_Node000005"><a xlink:title=" ">
<polygon fill="#e0e0e0" stroke="#999999" points="272.38,-20 227.88,-20 227.88,0 272.38,0 272.38,-20"/>
<text text-anchor="middle" x="250.12" y="-6.5" font-family="Helvetica,sans-Serif" font-size="10.00">climits</text>
</a>
</g>
</g>
<!-- Node4&#45;&gt;Node5 -->
<g id="edge4_Node000004_Node000005" class="edge">
<title>Node4&#45;&gt;Node5</title>
<g id="a_edge4_Node000004_Node000005"><a xlink:title=" ">
<path fill="none" stroke="#63b8ff" d="M302.15,-55.59C293.21,-47.93 280.35,-36.91 269.66,-27.75"/>
<polygon fill="#63b8ff" stroke="#63b8ff" points="271.99,-25.13 262.12,-21.28 267.44,-30.45 271.99,-25.13"/>
</a>
</g>
</g>
<!-- Node6 -->
<g id="Node000006" class="node">
<title>Node6</title>
<g id="a_Node000006"><a xlink:title=" ">
<polygon fill="#e0e0e0" stroke="#999999" points="335.75,-20 290.5,-20 290.5,0 335.75,0 335.75,-20"/>
<text text-anchor="middle" x="313.12" y="-6.5" font-family="Helvetica,sans-Serif" font-size="10.00">chrono</text>
</a>
</g>
</g>
<!-- Node4&#45;&gt;Node6 -->
<g id="edge5_Node000004_Node000006" class="edge">
<title>Node4&#45;&gt;Node6</title>
<g id="a_edge5_Node000004_Node000006"><a xlink:title=" ">
<path fill="none" stroke="#63b8ff" d="M313.12,-55.59C313.12,-49.01 313.12,-39.96 313.12,-31.73"/>
<polygon fill="#63b8ff" stroke="#63b8ff" points="316.63,-31.81 313.13,-21.81 309.63,-31.81 316.63,-31.81"/>
</a>
</g>
</g>
<!-- Node7 -->
<g id="Node000007" class="node">
<title>Node7</title>
<g id="a_Node000007"><a xlink:title=" ">
<polygon fill="#e0e0e0" stroke="#999999" points="396.62,-20 353.62,-20 353.62,0 396.62,0 396.62,-20"/>
<text text-anchor="middle" x="375.12" y="-6.5" font-family="Helvetica,sans-Serif" font-size="10.00">thread</text>
</a>
</g>
</g>
<!-- Node4&#45;&gt;Node7 -->
<g id="edge6_Node000004_Node000007" class="edge">
<title>Node4&#45;&gt;Node7</title>
<g id="a_edge6_Node000004_Node000007"><a xlink:title=" ">
<path fill="none" stroke="#63b8ff" d="M323.92,-55.59C332.73,-47.93 345.38,-36.91 355.9,-27.75"/>
<polygon fill="#63b8ff" stroke="#63b8ff" points="358.07,-30.5 363.31,-21.29 353.47,-25.22 358.07,-30.5"/>
</a>
</g>
</g>
<!-- Node12&#45;&gt;Node4 -->
<g id="edge13_Node000012_Node000004" class="edge">
<title>Node12&#45;&gt;Node4</title>
<g id="a_edge13_Node000012_Node000004"><a xlink:title=" ">
<path fill="none" stroke="#63b8ff" d="M524.24,-111.53C481.05,-102.42 415.63,-88.62 369.07,-78.8"/>
<polygon fill="#63b8ff" stroke="#63b8ff" points="369.95,-75.41 359.44,-76.77 368.5,-82.26 369.95,-75.41"/>
</a>
</g>
</g>
<!-- Node12&#45;&gt;Node8 -->
<g id="edge12_Node000012_Node000008" class="edge">
<title>Node12&#45;&gt;Node8</title>
<g id="a_edge12_Node000012_Node000008"><a xlink:title=" ">
<path fill="none" stroke="#63b8ff" d="M547.53,-111.59C528.17,-103.17 499.52,-90.69 477.44,-81.07"/>
<polygon fill="#63b8ff" stroke="#63b8ff" points="478.85,-77.87 468.28,-77.08 476.05,-84.29 478.85,-77.87"/>
</a>
</g>
</g>
<!-- Node12&#45;&gt;Node10 -->
<g id="edge16_Node000012_Node000010" class="edge">
<title>Node12&#45;&gt;Node10</title>
<g id="a_edge16_Node000012_Node000010"><a xlink:title=" ">
<path fill="none" stroke="#63b8ff" d="M518.13,-116.57C455.84,-110.58 347.17,-98.29 245.67,-76.26"/>
<polygon fill="#63b8ff" stroke="#63b8ff" points="246.61,-72.88 236.09,-74.14 245.09,-79.72 246.61,-72.88"/>
</a>
</g>
</g>
<!-- Node13 -->
<g id="Node000013" class="node">
<title>Node13</title>
<g id="a_Node000013"><a xlink:title=" ">
<polygon fill="#e0e0e0" stroke="#999999" points="832,-76 776.25,-76 776.25,-56 832,-56 832,-76"/>
<text text-anchor="middle" x="804.12" y="-62.5" font-family="Helvetica,sans-Serif" font-size="10.00">algorithm</text>
</a>
</g>
</g>
<!-- Node12&#45;&gt;Node13 -->
<g id="edge14_Node000012_Node000013" class="edge">
<title>Node12&#45;&gt;Node13</title>
<g id="a_edge14_Node000012_Node000013"><a xlink:title=" ">
<path fill="none" stroke="#63b8ff" d="M611.65,-111.53C649.43,-103.07 706.42,-90.21 764.92,-76.49"/>
<polygon fill="#63b8ff" stroke="#63b8ff" points="765.45,-79.97 774.38,-74.27 763.84,-73.15 765.45,-79.97"/>
</a>
</g>
</g>
<!-- Node14 -->
<g id="Node000014" class="node">
<title>Node14</title>
<g id="a_Node000014"><a xlink:title=" ">
<polygon fill="#e0e0e0" stroke="#999999" points="903.88,-76 850.38,-76 850.38,-56 903.88,-56 903.88,-76"/>
<text text-anchor="middle" x="877.12" y="-62.5" font-family="Helvetica,sans-Serif" font-size="10.00">iostream</text>
</a>
</g>
</g>
<!-- Node12&#45;&gt;Node14 -->
<g id="edge15_Node000012_Node000014" class="edge">
<title>Node12&#45;&gt;Node14</title>
<g id="a_edge15_Node000012_Node000014"><a xlink:title=" ">
<path fill="none" stroke="#63b8ff" d="M620.24,-113.81C672.72,-106.14 756.98,-93.05 839.02,-76.3"/>
<polygon fill="#63b8ff" stroke="#63b8ff" points="839.48,-79.77 848.57,-74.32 838.07,-72.92 839.48,-79.77"/>
</a>
</g>
</g>
<!-- Node15 -->
<g id="Node000015" class="node">
<title>Node15</title>
<g id="a_Node000015"><a xlink:title=" ">
<polygon fill="#e0e0e0" stroke="#999999" points="561.75,-76 516.5,-76 516.5,-56 561.75,-56 561.75,-76"/>
<text text-anchor="middle" x="539.12" y="-62.5" font-family="Helvetica,sans-Serif" font-size="10.00">cstring</text>
</a>
</g>
</g>
<!-- Node12&#45;&gt;Node15 -->
<g id="edge17_Node000012_Node000015" class="edge">
<title>Node12&#45;&gt;Node15</title>
<g id="a_edge17_Node000012_Node000015"><a xlink:title=" ">
<path fill="none" stroke="#63b8ff" d="M563.9,-111.59C560.03,-104.63 554.62,-94.89 549.84,-86.29"/>
<polygon fill="#63b8ff" stroke="#63b8ff" points="552.94,-84.66 545.03,-77.62 546.82,-88.06 552.94,-84.66"/>
</a>
</g>
</g>
<!-- Node16 -->
<g id="Node000016" class="node">
<title>Node16</title>
<g id="a_Node000016"><a xlink:title=" ">
<polygon fill="#e0e0e0" stroke="#999999" points="620.12,-76 580.12,-76 580.12,-56 620.12,-56 620.12,-76"/>
<text text-anchor="middle" x="600.12" y="-62.5" font-family="Helvetica,sans-Serif" font-size="10.00">ctime</text>
</a>
</g>
</g>
<!-- Node12&#45;&gt;Node16 -->
<g id="edge18_Node000012_Node000016" class="edge">
<title>Node12&#45;&gt;Node16</title>
<g id="a_edge18_Node000012_Node000016"><a xlink:title=" ">
<path fill="none" stroke="#63b8ff" d="M574.52,-111.59C578.57,-104.55 584.24,-94.67 589.22,-86"/>
<polygon fill="#63b8ff" stroke="#63b8ff" points="592.09,-88.03 594.03,-77.61 586.02,-84.54 592.09,-88.03"/>
</a>
</g>
</g>
<!-- Node17 -->
<g id="Node000017" class="node">
<title>Node17</title>
<g id="a_Node000017"><a xlink:title=" ">
<polygon fill="#e0e0e0" stroke="#999999" points="689.75,-76 638.5,-76 638.5,-56 689.75,-56 689.75,-76"/>
<text text-anchor="middle" x="664.12" y="-62.5" font-family="Helvetica,sans-Serif" font-size="10.00">sstream</text>
</a>
</g>
</g>
<!-- Node12&#45;&gt;Node17 -->
<g id="edge19_Node000012_Node000017" class="edge">
<title>Node12&#45;&gt;Node17</title>
<g id="a_edge19_Node000012_Node000017"><a xlink:title=" ">
<path fill="none" stroke="#63b8ff" d="M585.67,-111.59C600.02,-103.44 621.05,-91.48 637.73,-82"/>
<polygon fill="#63b8ff" stroke="#63b8ff" points="639.17,-85.21 646.13,-77.23 635.71,-79.13 639.17,-85.21"/>
</a>
</g>
</g>
<!-- Node18 -->
<g id="Node000018" class="node">
<title>Node18</title>
<g id="a_Node000018"><a xlink:title=" ">
<polygon fill="#e0e0e0" stroke="#999999" points="758,-76 708.25,-76 708.25,-56 758,-56 758,-76"/>
<text text-anchor="middle" x="733.12" y="-62.5" font-family="Helvetica,sans-Serif" font-size="10.00">iomanip</text>
</a>
</g>
</g>
<!-- Node12&#45;&gt;Node18 -->
<g id="edge20_Node000012_Node000018" class="edge">
<title>Node12&#45;&gt;Node18</title>
<g id="a_edge20_Node000012_Node000018"><a xlink:title=" ">
<path fill="none" stroke="#63b8ff" d="M597.69,-111.59C625.28,-102.51 667.15,-88.72 697.03,-78.88"/>
<polygon fill="#63b8ff" stroke="#63b8ff" points="698,-82.25 706.4,-75.8 695.81,-75.6 698,-82.25"/>
</a>
</g>
</g>
</g>
</svg>
