<?xml version="1.0" encoding="UTF-8" standalone="no"?>
<!DOCTYPE svg PUBLIC "-//W3C//DTD SVG 1.1//EN"
 "http://www.w3.org/Graphics/SVG/1.1/DTD/svg11.dtd">
<!-- Generated by graphviz version 10.0.1 (20240210.2158)
 -->
<!-- Title: AECustomTypes/include/AELogEntry.hpp Pages: 1 -->
<!--zoomable 252 -->

<svg id="main" version="1.1" xmlns="http://www.w3.org/2000/svg" xmlns:xlink="http://www.w3.org/1999/xlink" xml:space="preserve" onload="init(evt)">
<style type="text/css"><![CDATA[
.node, .edge {opacity: 0.7;}
.node.selected, .edge.selected {opacity: 1;}
.edge:hover path { stroke: red; }
.edge:hover polygon { stroke: red; fill: red; }
]]></style>

<defs>
  <circle id="rim" cx="0" cy="0" r="7"/>
  <circle id="rim2" cx="0" cy="0" r="3.5"/>
  <g id="zoomPlus">
    <use xlink:href="#rim" fill="#404040"><set attributeName="fill" to="#808080" begin="zoomplus.mouseover" end="zoomplus.mouseout"/></use>
    <path d="M-4,0h8M0,-4v8" fill="none" stroke="white" stroke-width="1.5" pointer-events="none"/>
  </g>
  <g id="zoomMin">
    <use xlink:href="#rim" fill="#404040"><set attributeName="fill" to="#808080" begin="zoomminus.mouseover" end="zoomminus.mouseout"/></use>
    <path d="M-4,0h8" fill="none" stroke="white" stroke-width="1.5" pointer-events="none"/>
  </g>
  <g id="arrowUp" transform="translate(30 24)">
    <use xlink:href="#rim"/>
    <path pointer-events="none" fill="none" stroke="white" stroke-width="1.5" d="M0,-3.0v7 M-2.5,-0.5L0,-3.0L2.5,-0.5"/>
  </g>
  <g id="arrowRight" transform="rotate(90) translate(36 -43)">
    <use xlink:href="#rim"/>
    <path pointer-events="none" fill="none" stroke="white" stroke-width="1.5" d="M0,-3.0v7 M-2.5,-0.5L0,-3.0L2.5,-0.5"/>
  </g>
  <g id="arrowDown" transform="rotate(180) translate(-30 -48)">
    <use xlink:href="#rim"/>
    <path pointer-events="none" fill="none" stroke="white" stroke-width="1.5" d="M0,-3.0v7 M-2.5,-0.5L0,-3.0L2.5,-0.5"/>
  </g>
  <g id="arrowLeft" transform="rotate(270) translate(-36 17)">
    <use xlink:href="#rim"/>
    <path pointer-events="none" fill="none" stroke="white" stroke-width="1.5" d="M0,-3.0v7 M-2.5,-0.5L0,-3.0L2.5,-0.5"/>
  </g>
  <g id="resetDef">
    <use xlink:href="#rim2" fill="#404040"><set attributeName="fill" to="#808080" begin="reset.mouseover" end="reset.mouseout"/></use>
  </g>
</defs>
<script type="application/ecmascript">
var viewWidth = 877;
var viewHeight = 252;
var sectionId = 'dynsection-0';
</script>
<script type="application/ecmascript" xlink:href="../../svg.min.js"/>
<svg id="graph" class="graph">
<g id="viewport">
<title>AECustomTypes/include/AELogEntry.hpp</title>
<!-- Node1 -->
<g id="Node000001" class="node">
<title>Node1</title>
<g id="a_Node000001"><a xlink:title=" ">
<polygon fill="#999999" stroke="#666666" points="264.88,-244 67.38,-244 67.38,-224 264.88,-224 264.88,-244"/>
<text text-anchor="middle" x="166.12" y="-230.5" font-family="Helvetica,sans-Serif" font-size="10.00">AECustomTypes/include/AELogEntry.hpp</text>
</a>
</g>
</g>
<!-- Node2 -->
<g id="Node000002" class="node">
<title>Node2</title>
<g id="a_Node000002"><a xlink:href="../../dc/dd8/_a_e_log_types_8hpp.html" target="_top" xlink:title=" ">
<polygon fill="white" stroke="#666666" points="90.25,-188 0,-188 0,-168 90.25,-168 90.25,-188"/>
<text text-anchor="middle" x="45.12" y="-174.5" font-family="Helvetica,sans-Serif" font-size="10.00">AELogTypes.hpp</text>
</a>
</g>
</g>
<!-- Node1&#45;&gt;Node2 -->
<g id="edge1_Node000001_Node000002" class="edge">
<title>Node1&#45;&gt;Node2</title>
<g id="a_edge1_Node000001_Node000002"><a xlink:title=" ">
<path fill="none" stroke="#63b8ff" d="M145.05,-223.59C126.17,-215.17 98.21,-202.69 76.66,-193.07"/>
<polygon fill="#63b8ff" stroke="#63b8ff" points="78.31,-189.98 67.75,-189.1 75.45,-196.37 78.31,-189.98"/>
</a>
</g>
</g>
<!-- Node3 -->
<g id="Node000003" class="node">
<title>Node3</title>
<g id="a_Node000003"><a xlink:href="../../d7/d7f/_a_e_module_base_8hpp.html" target="_top" xlink:title="This file contains the engine&#39;s basic module template.">
<polygon fill="white" stroke="#666666" points="282.12,-188 146.12,-188 146.12,-168 282.12,-168 282.12,-188"/>
<text text-anchor="middle" x="214.12" y="-174.5" font-family="Helvetica,sans-Serif" font-size="10.00">include/AEModuleBase.hpp</text>
</a>
</g>
</g>
<!-- Node1&#45;&gt;Node3 -->
<g id="edge2_Node000001_Node000003" class="edge">
<title>Node1&#45;&gt;Node3</title>
<g id="a_edge2_Node000001_Node000003"><a xlink:title=" ">
<path fill="none" stroke="#63b8ff" d="M174.49,-223.59C181.02,-216.24 190.31,-205.8 198.24,-196.87"/>
<polygon fill="#63b8ff" stroke="#63b8ff" points="200.83,-199.23 204.85,-189.43 195.59,-194.58 200.83,-199.23"/>
</a>
</g>
</g>
<!-- Node14 -->
<g id="Node000014" class="node">
<title>Node14</title>
<g id="a_Node000014"><a xlink:title=" ">
<polygon fill="#e0e0e0" stroke="#999999" points="90.75,-132 45.5,-132 45.5,-112 90.75,-112 90.75,-132"/>
<text text-anchor="middle" x="68.12" y="-118.5" font-family="Helvetica,sans-Serif" font-size="10.00">atomic</text>
</a>
</g>
</g>
<!-- Node1&#45;&gt;Node14 -->
<g id="edge28_Node000001_Node000014" class="edge">
<title>Node1&#45;&gt;Node14</title>
<g id="a_edge28_Node000001_Node000014"><a xlink:title=" ">
<path fill="none" stroke="#63b8ff" d="M157.77,-223.62C141.42,-205.27 104.98,-164.37 83.94,-140.75"/>
<polygon fill="#63b8ff" stroke="#63b8ff" points="86.73,-138.62 77.47,-133.48 81.5,-143.28 86.73,-138.62"/>
</a>
</g>
</g>
<!-- Node17 -->
<g id="Node000017" class="node">
<title>Node17</title>
<g id="a_Node000017"><a xlink:href="../../de/de8/_a_e_utils_8hpp.html" target="_top" xlink:title="This file contains the engine&#39;s usefull utilities for trivial tasks.">
<polygon fill="white" stroke="#666666" points="609.88,-188 508.38,-188 508.38,-168 609.88,-168 609.88,-188"/>
<text text-anchor="middle" x="559.12" y="-174.5" font-family="Helvetica,sans-Serif" font-size="10.00">include/AEUtils.hpp</text>
</a>
</g>
</g>
<!-- Node1&#45;&gt;Node17 -->
<g id="edge18_Node000001_Node000017" class="edge">
<title>Node1&#45;&gt;Node17</title>
<g id="a_edge18_Node000001_Node000017"><a xlink:title=" ">
<path fill="none" stroke="#63b8ff" d="M235.03,-223.53C309.11,-213.35 425.8,-197.32 497.1,-187.52"/>
<polygon fill="#63b8ff" stroke="#63b8ff" points="497.21,-191.04 506.64,-186.21 496.26,-184.11 497.21,-191.04"/>
</a>
</g>
</g>
<!-- Node4 -->
<g id="Node000004" class="node">
<title>Node4</title>
<g id="a_Node000004"><a xlink:href="../../dc/d89/_a_e_typedefs_8hpp.html" target="_top" xlink:title="This file contains the engine&#39;s typedefs and variable type aliases.">
<polygon fill="white" stroke="#666666" points="222.62,-76 101.62,-76 101.62,-56 222.62,-56 222.62,-76"/>
<text text-anchor="middle" x="162.12" y="-62.5" font-family="Helvetica,sans-Serif" font-size="10.00">include/AETypedefs.hpp</text>
</a>
</g>
</g>
<!-- Node3&#45;&gt;Node4 -->
<g id="edge3_Node000003_Node000004" class="edge">
<title>Node3&#45;&gt;Node4</title>
<g id="a_edge3_Node000003_Node000004"><a xlink:title=" ">
<path fill="none" stroke="#63b8ff" d="M184.19,-167.61C167.44,-160.65 148,-149.32 138.12,-132 129.67,-117.18 137.96,-98.82 147.02,-85.41"/>
<polygon fill="#63b8ff" stroke="#63b8ff" points="149.78,-87.57 152.94,-77.46 144.16,-83.39 149.78,-87.57"/>
</a>
</g>
</g>
<!-- Node8 -->
<g id="Node000008" class="node">
<title>Node8</title>
<g id="a_Node000008"><a xlink:href="../../dd/dd8/_a_e_flags_8hpp.html" target="_top" xlink:title="This file contains the flags to manipulate engine&#39;s funcitonality.">
<polygon fill="white" stroke="#666666" points="624.12,-76 518.12,-76 518.12,-56 624.12,-56 624.12,-76"/>
<text text-anchor="middle" x="571.12" y="-62.5" font-family="Helvetica,sans-Serif" font-size="10.00">include/AEFlags.hpp</text>
</a>
</g>
</g>
<!-- Node3&#45;&gt;Node8 -->
<g id="edge7_Node000003_Node000008" class="edge">
<title>Node3&#45;&gt;Node8</title>
<g id="a_edge7_Node000003_Node000008"><a xlink:title=" ">
<path fill="none" stroke="#63b8ff" d="M282.36,-172.11C334.63,-166.68 407.77,-155.35 468.12,-132 484.59,-125.63 523.4,-99.91 548.4,-82.8"/>
<polygon fill="#63b8ff" stroke="#63b8ff" points="550.36,-85.7 556.61,-77.15 546.39,-79.94 550.36,-85.7"/>
</a>
</g>
</g>
<!-- Node9 -->
<g id="Node000009" class="node">
<title>Node9</title>
<g id="a_Node000009"><a xlink:href="../../d9/d6a/_a_e_utils_macros_8hpp.html" target="_top" xlink:title="This file contains the engine&#39;s macros for trivial tasks.">
<polygon fill="white" stroke="#666666" points="459,-132 325.25,-132 325.25,-112 459,-112 459,-132"/>
<text text-anchor="middle" x="392.12" y="-118.5" font-family="Helvetica,sans-Serif" font-size="10.00">include/AEUtilsMacros.hpp</text>
</a>
</g>
</g>
<!-- Node3&#45;&gt;Node9 -->
<g id="edge8_Node000003_Node000009" class="edge">
<title>Node3&#45;&gt;Node9</title>
<g id="a_edge8_Node000003_Node000009"><a xlink:title=" ">
<path fill="none" stroke="#63b8ff" d="M245.13,-167.59C274.18,-158.78 317.82,-145.54 350.01,-135.78"/>
<polygon fill="#63b8ff" stroke="#63b8ff" points="350.88,-139.17 359.43,-132.92 348.84,-132.47 350.88,-139.17"/>
</a>
</g>
</g>
<!-- Node3&#45;&gt;Node14 -->
<g id="edge15_Node000003_Node000014" class="edge">
<title>Node3&#45;&gt;Node14</title>
<g id="a_edge15_Node000003_Node000014"><a xlink:title=" ">
<path fill="none" stroke="#63b8ff" d="M188.69,-167.59C164.53,-158.66 128.05,-145.17 101.55,-135.36"/>
<polygon fill="#63b8ff" stroke="#63b8ff" points="102.88,-132.12 92.29,-131.94 100.45,-138.69 102.88,-132.12"/>
</a>
</g>
</g>
<!-- Node15 -->
<g id="Node000015" class="node">
<title>Node15</title>
<g id="a_Node000015"><a xlink:title=" ">
<polygon fill="#e0e0e0" stroke="#999999" points="269.12,-132 229.12,-132 229.12,-112 269.12,-112 269.12,-132"/>
<text text-anchor="middle" x="249.12" y="-118.5" font-family="Helvetica,sans-Serif" font-size="10.00">string</text>
</a>
</g>
</g>
<!-- Node3&#45;&gt;Node15 -->
<g id="edge16_Node000003_Node000015" class="edge">
<title>Node3&#45;&gt;Node15</title>
<g id="a_edge16_Node000003_Node000015"><a xlink:title=" ">
<path fill="none" stroke="#63b8ff" d="M220.22,-167.59C224.84,-160.47 231.33,-150.45 236.99,-141.72"/>
<polygon fill="#63b8ff" stroke="#63b8ff" points="239.77,-143.86 242.28,-133.57 233.9,-140.06 239.77,-143.86"/>
</a>
</g>
</g>
<!-- Node16 -->
<g id="Node000016" class="node">
<title>Node16</title>
<g id="a_Node000016"><a xlink:title=" ">
<polygon fill="#e0e0e0" stroke="#999999" points="210.75,-132 147.5,-132 147.5,-112 210.75,-112 210.75,-132"/>
<text text-anchor="middle" x="179.12" y="-118.5" font-family="Helvetica,sans-Serif" font-size="10.00">string_view</text>
</a>
</g>
</g>
<!-- Node3&#45;&gt;Node16 -->
<g id="edge17_Node000003_Node000016" class="edge">
<title>Node3&#45;&gt;Node16</title>
<g id="a_edge17_Node000003_Node000016"><a xlink:title=" ">
<path fill="none" stroke="#63b8ff" d="M208.03,-167.59C203.41,-160.47 196.92,-150.45 191.26,-141.72"/>
<polygon fill="#63b8ff" stroke="#63b8ff" points="194.35,-140.06 185.97,-133.57 188.48,-143.86 194.35,-140.06"/>
</a>
</g>
</g>
<!-- Node5 -->
<g id="Node000005" class="node">
<title>Node5</title>
<g id="a_Node000005"><a xlink:title=" ">
<polygon fill="#e0e0e0" stroke="#999999" points="121.38,-20 76.88,-20 76.88,0 121.38,0 121.38,-20"/>
<text text-anchor="middle" x="99.12" y="-6.5" font-family="Helvetica,sans-Serif" font-size="10.00">climits</text>
</a>
</g>
</g>
<!-- Node4&#45;&gt;Node5 -->
<g id="edge4_Node000004_Node000005" class="edge">
<title>Node4&#45;&gt;Node5</title>
<g id="a_edge4_Node000004_Node000005"><a xlink:title=" ">
<path fill="none" stroke="#63b8ff" d="M151.15,-55.59C142.21,-47.93 129.35,-36.91 118.66,-27.75"/>
<polygon fill="#63b8ff" stroke="#63b8ff" points="120.99,-25.13 111.12,-21.28 116.44,-30.45 120.99,-25.13"/>
</a>
</g>
</g>
<!-- Node6 -->
<g id="Node000006" class="node">
<title>Node6</title>
<g id="a_Node000006"><a xlink:title=" ">
<polygon fill="#e0e0e0" stroke="#999999" points="184.75,-20 139.5,-20 139.5,0 184.75,0 184.75,-20"/>
<text text-anchor="middle" x="162.12" y="-6.5" font-family="Helvetica,sans-Serif" font-size="10.00">chrono</text>
</a>
</g>
</g>
<!-- Node4&#45;&gt;Node6 -->
<g id="edge5_Node000004_Node000006" class="edge">
<title>Node4&#45;&gt;Node6</title>
<g id="a_edge5_Node000004_Node000006"><a xlink:title=" ">
<path fill="none" stroke="#63b8ff" d="M162.12,-55.59C162.12,-49.01 162.12,-39.96 162.12,-31.73"/>
<polygon fill="#63b8ff" stroke="#63b8ff" points="165.63,-31.81 162.13,-21.81 158.63,-31.81 165.63,-31.81"/>
</a>
</g>
</g>
<!-- Node7 -->
<g id="Node000007" class="node">
<title>Node7</title>
<g id="a_Node000007"><a xlink:title=" ">
<polygon fill="#e0e0e0" stroke="#999999" points="245.62,-20 202.62,-20 202.62,0 245.62,0 245.62,-20"/>
<text text-anchor="middle" x="224.12" y="-6.5" font-family="Helvetica,sans-Serif" font-size="10.00">thread</text>
</a>
</g>
</g>
<!-- Node4&#45;&gt;Node7 -->
<g id="edge6_Node000004_Node000007" class="edge">
<title>Node4&#45;&gt;Node7</title>
<g id="a_edge6_Node000004_Node000007"><a xlink:title=" ">
<path fill="none" stroke="#63b8ff" d="M172.92,-55.59C181.73,-47.93 194.38,-36.91 204.9,-27.75"/>
<polygon fill="#63b8ff" stroke="#63b8ff" points="207.07,-30.5 212.31,-21.29 202.47,-25.22 207.07,-30.5"/>
</a>
</g>
</g>
<!-- Node9&#45;&gt;Node4 -->
<g id="edge9_Node000009_Node000004" class="edge">
<title>Node9&#45;&gt;Node4</title>
<g id="a_edge9_Node000009_Node000004"><a xlink:title=" ">
<path fill="none" stroke="#63b8ff" d="M351.8,-111.53C313.33,-102.5 255.21,-88.85 213.45,-79.05"/>
<polygon fill="#63b8ff" stroke="#63b8ff" points="214.41,-75.68 203.88,-76.8 212.81,-82.5 214.41,-75.68"/>
</a>
</g>
</g>
<!-- Node9&#45;&gt;Node8 -->
<g id="edge10_Node000009_Node000008" class="edge">
<title>Node9&#45;&gt;Node8</title>
<g id="a_edge10_Node000009_Node000008"><a xlink:title=" ">
<path fill="none" stroke="#63b8ff" d="M423.3,-111.59C452.51,-102.78 496.4,-89.54 528.78,-79.78"/>
<polygon fill="#63b8ff" stroke="#63b8ff" points="529.69,-83.16 538.25,-76.92 527.67,-76.45 529.69,-83.16"/>
</a>
</g>
</g>
<!-- Node10 -->
<g id="Node000010" class="node">
<title>Node10</title>
<g id="a_Node000010"><a xlink:title=" ">
<polygon fill="#e0e0e0" stroke="#999999" points="293.88,-76 240.38,-76 240.38,-56 293.88,-56 293.88,-76"/>
<text text-anchor="middle" x="267.12" y="-62.5" font-family="Helvetica,sans-Serif" font-size="10.00">iostream</text>
</a>
</g>
</g>
<!-- Node9&#45;&gt;Node10 -->
<g id="edge11_Node000009_Node000010" class="edge">
<title>Node9&#45;&gt;Node10</title>
<g id="a_edge11_Node000009_Node000010"><a xlink:title=" ">
<path fill="none" stroke="#63b8ff" d="M370.35,-111.59C350.76,-103.13 321.7,-90.58 299.4,-80.94"/>
<polygon fill="#63b8ff" stroke="#63b8ff" points="301.03,-77.83 290.46,-77.08 298.25,-84.26 301.03,-77.83"/>
</a>
</g>
</g>
<!-- Node11 -->
<g id="Node000011" class="node">
<title>Node11</title>
<g id="a_Node000011"><a xlink:title=" ">
<polygon fill="#e0e0e0" stroke="#999999" points="354.25,-76 312,-76 312,-56 354.25,-56 354.25,-76"/>
<text text-anchor="middle" x="333.12" y="-62.5" font-family="Helvetica,sans-Serif" font-size="10.00">cstdio</text>
</a>
</g>
</g>
<!-- Node9&#45;&gt;Node11 -->
<g id="edge12_Node000009_Node000011" class="edge">
<title>Node9&#45;&gt;Node11</title>
<g id="a_edge12_Node000009_Node000011"><a xlink:title=" ">
<path fill="none" stroke="#63b8ff" d="M381.85,-111.59C373.56,-104.01 361.68,-93.13 351.72,-84.02"/>
<polygon fill="#63b8ff" stroke="#63b8ff" points="354.14,-81.49 344.4,-77.32 349.41,-86.65 354.14,-81.49"/>
</a>
</g>
</g>
<!-- Node12 -->
<g id="Node000012" class="node">
<title>Node12</title>
<g id="a_Node000012"><a xlink:title=" ">
<polygon fill="#e0e0e0" stroke="#999999" points="434,-76 372.25,-76 372.25,-56 434,-56 434,-76"/>
<text text-anchor="middle" x="403.12" y="-62.5" font-family="Helvetica,sans-Serif" font-size="10.00">type_traits</text>
</a>
</g>
</g>
<!-- Node9&#45;&gt;Node12 -->
<g id="edge13_Node000009_Node000012" class="edge">
<title>Node9&#45;&gt;Node12</title>
<g id="a_edge13_Node000009_Node000012"><a xlink:title=" ">
<path fill="none" stroke="#63b8ff" d="M394.04,-111.59C395.4,-104.93 397.27,-95.75 398.96,-87.44"/>
<polygon fill="#63b8ff" stroke="#63b8ff" points="402.36,-88.28 400.93,-77.78 395.5,-86.88 402.36,-88.28"/>
</a>
</g>
</g>
<!-- Node13 -->
<g id="Node000013" class="node">
<title>Node13</title>
<g id="a_Node000013"><a xlink:title=" ">
<polygon fill="#e0e0e0" stroke="#999999" points="499.88,-76 452.38,-76 452.38,-56 499.88,-56 499.88,-76"/>
<text text-anchor="middle" x="476.12" y="-62.5" font-family="Helvetica,sans-Serif" font-size="10.00">cstddef</text>
</a>
</g>
</g>
<!-- Node9&#45;&gt;Node13 -->
<g id="edge14_Node000009_Node000013" class="edge">
<title>Node9&#45;&gt;Node13</title>
<g id="a_edge14_Node000009_Node000013"><a xlink:title=" ">
<path fill="none" stroke="#63b8ff" d="M406.76,-111.59C419.21,-103.59 437.34,-91.93 451.95,-82.54"/>
<polygon fill="#63b8ff" stroke="#63b8ff" points="453.59,-85.65 460.11,-77.3 449.8,-79.76 453.59,-85.65"/>
</a>
</g>
</g>
<!-- Node17&#45;&gt;Node4 -->
<g id="edge21_Node000017_Node000004" class="edge">
<title>Node17&#45;&gt;Node4</title>
<g id="a_edge21_Node000017_Node000004"><a xlink:title=" ">
<path fill="none" stroke="#63b8ff" d="M508.19,-172.09C458.22,-166.22 380.38,-154.28 316.12,-132 298.09,-125.75 295.49,-119.91 278.12,-112 252.28,-100.23 222.38,-88.68 199.41,-80.23"/>
<polygon fill="#63b8ff" stroke="#63b8ff" points="200.76,-76.99 190.16,-76.86 198.36,-83.57 200.76,-76.99"/>
</a>
</g>
</g>
<!-- Node17&#45;&gt;Node8 -->
<g id="edge20_Node000017_Node000008" class="edge">
<title>Node17&#45;&gt;Node8</title>
<g id="a_edge20_Node000017_Node000008"><a xlink:title=" ">
<path fill="none" stroke="#63b8ff" d="M560.17,-167.69C561.19,-158.59 562.77,-144.35 564.12,-132 565.75,-117.11 567.56,-100.29 568.94,-87.49"/>
<polygon fill="#63b8ff" stroke="#63b8ff" points="572.39,-88.08 569.98,-77.76 565.43,-87.33 572.39,-88.08"/>
</a>
</g>
</g>
<!-- Node17&#45;&gt;Node9 -->
<g id="edge19_Node000017_Node000009" class="edge">
<title>Node17&#45;&gt;Node9</title>
<g id="a_edge19_Node000017_Node000009"><a xlink:title=" ">
<path fill="none" stroke="#63b8ff" d="M530.04,-167.59C502.9,-158.82 462.19,-145.66 432.03,-135.9"/>
<polygon fill="#63b8ff" stroke="#63b8ff" points="433.47,-132.69 422.88,-132.95 431.32,-139.35 433.47,-132.69"/>
</a>
</g>
</g>
<!-- Node17&#45;&gt;Node15 -->
<g id="edge23_Node000017_Node000015" class="edge">
<title>Node17&#45;&gt;Node15</title>
<g id="a_edge23_Node000017_Node000015"><a xlink:title=" ">
<path fill="none" stroke="#63b8ff" d="M507.98,-170.18C452.36,-162.41 360.99,-148.61 283.12,-132 282.3,-131.82 281.46,-131.64 280.61,-131.45"/>
<polygon fill="#63b8ff" stroke="#63b8ff" points="281.56,-128.08 271.01,-129.11 279.9,-134.88 281.56,-128.08"/>
</a>
</g>
</g>
<!-- Node18 -->
<g id="Node000018" class="node">
<title>Node18</title>
<g id="a_Node000018"><a xlink:title=" ">
<polygon fill="#e0e0e0" stroke="#999999" points="805,-132 749.25,-132 749.25,-112 805,-112 805,-132"/>
<text text-anchor="middle" x="777.12" y="-118.5" font-family="Helvetica,sans-Serif" font-size="10.00">algorithm</text>
</a>
</g>
</g>
<!-- Node17&#45;&gt;Node18 -->
<g id="edge22_Node000017_Node000018" class="edge">
<title>Node17&#45;&gt;Node18</title>
<g id="a_edge22_Node000017_Node000018"><a xlink:title=" ">
<path fill="none" stroke="#63b8ff" d="M597.35,-167.53C636.8,-157.76 698.06,-142.59 737.88,-132.72"/>
<polygon fill="#63b8ff" stroke="#63b8ff" points="738.67,-136.13 747.54,-130.33 736.99,-129.34 738.67,-136.13"/>
</a>
</g>
</g>
<!-- Node19 -->
<g id="Node000019" class="node">
<title>Node19</title>
<g id="a_Node000019"><a xlink:title=" ">
<polygon fill="#e0e0e0" stroke="#999999" points="868.75,-132 823.5,-132 823.5,-112 868.75,-112 868.75,-132"/>
<text text-anchor="middle" x="846.12" y="-118.5" font-family="Helvetica,sans-Serif" font-size="10.00">cstring</text>
</a>
</g>
</g>
<!-- Node17&#45;&gt;Node19 -->
<g id="edge24_Node000017_Node000019" class="edge">
<title>Node17&#45;&gt;Node19</title>
<g id="a_edge24_Node000017_Node000019"><a xlink:title=" ">
<path fill="none" stroke="#63b8ff" d="M610.22,-169.51C659.5,-161.96 736.37,-149.27 811.98,-132.3"/>
<polygon fill="#63b8ff" stroke="#63b8ff" points="812.67,-135.73 821.65,-130.1 811.12,-128.91 812.67,-135.73"/>
</a>
</g>
</g>
<!-- Node20 -->
<g id="Node000020" class="node">
<title>Node20</title>
<g id="a_Node000020"><a xlink:title=" ">
<polygon fill="#e0e0e0" stroke="#999999" points="555.12,-132 515.12,-132 515.12,-112 555.12,-112 555.12,-132"/>
<text text-anchor="middle" x="535.12" y="-118.5" font-family="Helvetica,sans-Serif" font-size="10.00">ctime</text>
</a>
</g>
</g>
<!-- Node17&#45;&gt;Node20 -->
<g id="edge25_Node000017_Node000020" class="edge">
<title>Node17&#45;&gt;Node20</title>
<g id="a_edge25_Node000017_Node000020"><a xlink:title=" ">
<path fill="none" stroke="#63b8ff" d="M554.94,-167.59C551.88,-160.7 547.61,-151.1 543.82,-142.57"/>
<polygon fill="#63b8ff" stroke="#63b8ff" points="547.13,-141.4 539.87,-133.68 540.74,-144.24 547.13,-141.4"/>
</a>
</g>
</g>
<!-- Node21 -->
<g id="Node000021" class="node">
<title>Node21</title>
<g id="a_Node000021"><a xlink:title=" ">
<polygon fill="#e0e0e0" stroke="#999999" points="662.75,-132 611.5,-132 611.5,-112 662.75,-112 662.75,-132"/>
<text text-anchor="middle" x="637.12" y="-118.5" font-family="Helvetica,sans-Serif" font-size="10.00">sstream</text>
</a>
</g>
</g>
<!-- Node17&#45;&gt;Node21 -->
<g id="edge26_Node000017_Node000021" class="edge">
<title>Node17&#45;&gt;Node21</title>
<g id="a_edge26_Node000017_Node000021"><a xlink:title=" ">
<path fill="none" stroke="#63b8ff" d="M572.71,-167.59C584.16,-159.67 600.79,-148.16 614.28,-138.82"/>
<polygon fill="#63b8ff" stroke="#63b8ff" points="615.96,-141.91 622.19,-133.34 611.97,-136.16 615.96,-141.91"/>
</a>
</g>
</g>
<!-- Node22 -->
<g id="Node000022" class="node">
<title>Node22</title>
<g id="a_Node000022"><a xlink:title=" ">
<polygon fill="#e0e0e0" stroke="#999999" points="731,-132 681.25,-132 681.25,-112 731,-112 731,-132"/>
<text text-anchor="middle" x="706.12" y="-118.5" font-family="Helvetica,sans-Serif" font-size="10.00">iomanip</text>
</a>
</g>
</g>
<!-- Node17&#45;&gt;Node22 -->
<g id="edge27_Node000017_Node000022" class="edge">
<title>Node17&#45;&gt;Node22</title>
<g id="a_edge27_Node000017_Node000022"><a xlink:title=" ">
<path fill="none" stroke="#63b8ff" d="M584.73,-167.59C608.34,-158.92 643.62,-145.96 670.08,-136.24"/>
<polygon fill="#63b8ff" stroke="#63b8ff" points="671.21,-139.55 679.39,-132.82 668.8,-132.98 671.21,-139.55"/>
</a>
</g>
</g>
</g>
</svg>

<g id="navigator" transform="translate(0 0)" fill="#404254">
  <rect fill="#f2f5e9" fill-opacity="0.5" stroke="#606060" stroke-width=".5" x="0" y="0" width="60" height="60"/>
  <use id="zoomplus" xlink:href="#zoomPlus" x="17" y="9" onmousedown="handleZoom(evt,'in')"/>
  <use id="zoomminus" xlink:href="#zoomMin" x="42" y="9" onmousedown="handleZoom(evt,'out')"/>
  <use id="reset" xlink:href="#resetDef" x="30" y="36" onmousedown="handleReset()"/>
   <use id="arrowup" xlink:href="#arrowUp" x="0" y="0" onmousedown="handlePan(0,-1)"/>
  <use id="arrowright" xlink:href="#arrowRight" x="0" y="0" onmousedown="handlePan(1,0)"/>
  <use id="arrowdown" xlink:href="#arrowDown" x="0" y="0" onmousedown="handlePan(0,1)"/>
  <use id="arrowleft" xlink:href="#arrowLeft" x="0" y="0" onmousedown="handlePan(-1,0)"/>
</g>
<svg viewBox="0 0 15 15" width="100%" height="30px" preserveAspectRatio="xMaxYMin meet">
 <g id="arrow_out" transform="scale(0.3 0.3)">
  <a xlink:href="_a_e_log_entry_8hpp__incl_org.svg" target="_base">
   <rect id="button" ry="5" rx="5" y="6" x="6" height="38" width="38"
        fill="#f2f5e9" fill-opacity="0.5" stroke="#606060" stroke-width="1.0"/>
   <path id="arrow"
     d="M 11.500037,31.436501 C 11.940474,20.09759 22.043105,11.32322 32.158766,21.979434 L 37.068811,17.246167 C 37.068811,17.246167 37.088388,32 37.088388,32 L 22.160133,31.978069 C 22.160133,31.978069 26.997745,27.140456 26.997745,27.140456 C 18.528582,18.264221 13.291696,25.230495 11.500037,31.436501 z"
     style="fill:#404040;"/>
  </a>
 </g>
</svg>

<style type='text/css'>
<![CDATA[
[data-mouse-over-selected='false'] { opacity: 0.7; }
[data-mouse-over-selected='true']  { opacity: 1.0; }
]]>
</style>
<script type="application/ecmascript"><![CDATA[
document.addEventListener('DOMContentLoaded', (event) => {
  highlightEdges();
  highlightAdjacentNodes();
});
]]></script>
</svg>
