<?xml version="1.0" encoding="UTF-8" standalone="no"?>
<!DOCTYPE svg PUBLIC "-//W3C//DTD SVG 1.1//EN"
 "http://www.w3.org/Graphics/SVG/1.1/DTD/svg11.dtd">
<!-- Generated by graphviz version 10.0.1 (20240210.2158)
 -->
<!-- Title: AECustomTypes/include/AELogEntry.hpp Pages: 1 -->
<!--zoomable 252 -->

<svg id="main" version="1.1" xmlns="http://www.w3.org/2000/svg" xmlns:xlink="http://www.w3.org/1999/xlink" xml:space="preserve" onload="init(evt)">
<style type="text/css"><![CDATA[
.node, .edge {opacity: 0.7;}
.node.selected, .edge.selected {opacity: 1;}
.edge:hover path { stroke: red; }
.edge:hover polygon { stroke: red; fill: red; }
]]></style>

<defs>
  <circle id="rim" cx="0" cy="0" r="7"/>
  <circle id="rim2" cx="0" cy="0" r="3.5"/>
  <g id="zoomPlus">
    <use xlink:href="#rim" fill="#404040"><set attributeName="fill" to="#808080" begin="zoomplus.mouseover" end="zoomplus.mouseout"/></use>
    <path d="M-4,0h8M0,-4v8" fill="none" stroke="white" stroke-width="1.5" pointer-events="none"/>
  </g>
  <g id="zoomMin">
    <use xlink:href="#rim" fill="#404040"><set attributeName="fill" to="#808080" begin="zoomminus.mouseover" end="zoomminus.mouseout"/></use>
    <path d="M-4,0h8" fill="none" stroke="white" stroke-width="1.5" pointer-events="none"/>
  </g>
  <g id="arrowUp" transform="translate(30 24)">
    <use xlink:href="#rim"/>
    <path pointer-events="none" fill="none" stroke="white" stroke-width="1.5" d="M0,-3.0v7 M-2.5,-0.5L0,-3.0L2.5,-0.5"/>
  </g>
  <g id="arrowRight" transform="rotate(90) translate(36 -43)">
    <use xlink:href="#rim"/>
    <path pointer-events="none" fill="none" stroke="white" stroke-width="1.5" d="M0,-3.0v7 M-2.5,-0.5L0,-3.0L2.5,-0.5"/>
  </g>
  <g id="arrowDown" transform="rotate(180) translate(-30 -48)">
    <use xlink:href="#rim"/>
    <path pointer-events="none" fill="none" stroke="white" stroke-width="1.5" d="M0,-3.0v7 M-2.5,-0.5L0,-3.0L2.5,-0.5"/>
  </g>
  <g id="arrowLeft" transform="rotate(270) translate(-36 17)">
    <use xlink:href="#rim"/>
    <path pointer-events="none" fill="none" stroke="white" stroke-width="1.5" d="M0,-3.0v7 M-2.5,-0.5L0,-3.0L2.5,-0.5"/>
  </g>
  <g id="resetDef">
    <use xlink:href="#rim2" fill="#404040"><set attributeName="fill" to="#808080" begin="reset.mouseover" end="reset.mouseout"/></use>
  </g>
</defs>
<script type="application/ecmascript">
var viewWidth = 796;
var viewHeight = 252;
var sectionId = 'dynsection-0';
</script>
<script type="application/ecmascript" xlink:href="../../svg.min.js"/>
<svg id="graph" class="graph">
<g id="viewport">
<title>AECustomTypes/include/AELogEntry.hpp</title>
<!-- Node1 -->
<g id="Node000001" class="node">
<title>Node1</title>
<g id="a_Node000001"><a xlink:title=" ">
<polygon fill="#999999" stroke="#666666" points="591.38,-244 393.88,-244 393.88,-224 591.38,-224 591.38,-244"/>
<text text-anchor="middle" x="492.62" y="-230.5" font-family="Helvetica,sans-Serif" font-size="10.00">AECustomTypes/include/AELogEntry.hpp</text>
</a>
</g>
</g>
<!-- Node2 -->
<g id="Node000002" class="node">
<title>Node2</title>
<g id="a_Node000002"><a xlink:href="../../dc/dd8/_a_e_log_types_8hpp.html" target="_top" xlink:title=" ">
<polygon fill="white" stroke="#666666" points="321.75,-188 231.5,-188 231.5,-168 321.75,-168 321.75,-188"/>
<text text-anchor="middle" x="276.62" y="-174.5" font-family="Helvetica,sans-Serif" font-size="10.00">AELogTypes.hpp</text>
</a>
</g>
</g>
<!-- Node1&#45;&gt;Node2 -->
<g id="edge1_Node000001_Node000002" class="edge">
<title>Node1&#45;&gt;Node2</title>
<g id="a_edge1_Node000001_Node000002"><a xlink:title=" ">
<path fill="none" stroke="#63b8ff" d="M455,-223.59C419.14,-214.63 364.94,-201.08 325.69,-191.27"/>
<polygon fill="#63b8ff" stroke="#63b8ff" points="326.56,-187.88 316.01,-188.85 324.86,-194.67 326.56,-187.88"/>
</a>
</g>
</g>
<!-- Node3 -->
<g id="Node000003" class="node">
<title>Node3</title>
<g id="a_Node000003"><a xlink:href="../../d7/d7f/_a_e_module_base_8hpp.html" target="_top" xlink:title=" ">
<polygon fill="white" stroke="#666666" points="681.62,-188 545.62,-188 545.62,-168 681.62,-168 681.62,-188"/>
<text text-anchor="middle" x="613.62" y="-174.5" font-family="Helvetica,sans-Serif" font-size="10.00">include/AEModuleBase.hpp</text>
</a>
</g>
</g>
<!-- Node1&#45;&gt;Node3 -->
<g id="edge2_Node000001_Node000003" class="edge">
<title>Node1&#45;&gt;Node3</title>
<g id="a_edge2_Node000001_Node000003"><a xlink:title=" ">
<path fill="none" stroke="#63b8ff" d="M513.7,-223.59C532.58,-215.17 560.54,-202.69 582.09,-193.07"/>
<polygon fill="#63b8ff" stroke="#63b8ff" points="583.3,-196.37 591,-189.1 580.44,-189.98 583.3,-196.37"/>
</a>
</g>
</g>
<!-- Node9 -->
<g id="Node000009" class="node">
<title>Node9</title>
<g id="a_Node000009"><a xlink:title=" ">
<polygon fill="#e0e0e0" stroke="#999999" points="788.25,-132 743,-132 743,-112 788.25,-112 788.25,-132"/>
<text text-anchor="middle" x="765.62" y="-118.5" font-family="Helvetica,sans-Serif" font-size="10.00">atomic</text>
</a>
</g>
</g>
<!-- Node1&#45;&gt;Node9 -->
<g id="edge27_Node000001_Node000009" class="edge">
<title>Node1&#45;&gt;Node9</title>
<g id="a_edge27_Node000001_Node000009"><a xlink:title=" ">
<path fill="none" stroke="#63b8ff" d="M574.71,-223.58C611.59,-217.07 654.77,-206.16 690.62,-188 714.05,-176.14 736.16,-155.37 750.22,-140.5"/>
<polygon fill="#63b8ff" stroke="#63b8ff" points="752.68,-142.99 756.85,-133.25 747.52,-138.26 752.68,-142.99"/>
</a>
</g>
</g>
<!-- Node12 -->
<g id="Node000012" class="node">
<title>Node12</title>
<g id="a_Node000012"><a xlink:href="../../de/de8/_a_e_utils_8hpp.html" target="_top" xlink:title="This file contains the engine&#39;s usefull utilities for trivial tasks.">
<polygon fill="white" stroke="#666666" points="441.38,-188 339.88,-188 339.88,-168 441.38,-168 441.38,-188"/>
<text text-anchor="middle" x="390.62" y="-174.5" font-family="Helvetica,sans-Serif" font-size="10.00">include/AEUtils.hpp</text>
</a>
</g>
</g>
<!-- Node1&#45;&gt;Node12 -->
<g id="edge11_Node000001_Node000012" class="edge">
<title>Node1&#45;&gt;Node12</title>
<g id="a_edge11_Node000001_Node000012"><a xlink:title=" ">
<path fill="none" stroke="#63b8ff" d="M474.86,-223.59C459.3,-215.36 436.44,-203.26 418.46,-193.74"/>
<polygon fill="#63b8ff" stroke="#63b8ff" points="420.34,-190.77 409.87,-189.19 417.07,-196.96 420.34,-190.77"/>
</a>
</g>
</g>
<!-- Node4 -->
<g id="Node000004" class="node">
<title>Node4</title>
<g id="a_Node000004"><a xlink:href="../../dc/d89/_a_e_typedefs_8hpp.html" target="_top" xlink:title="This file contains the engine&#39;s typedefs and variable type aliases.">
<polygon fill="white" stroke="#666666" points="560.12,-76 439.12,-76 439.12,-56 560.12,-56 560.12,-76"/>
<text text-anchor="middle" x="499.62" y="-62.5" font-family="Helvetica,sans-Serif" font-size="10.00">include/AETypedefs.hpp</text>
</a>
</g>
</g>
<!-- Node3&#45;&gt;Node4 -->
<g id="edge3_Node000003_Node000004" class="edge">
<title>Node3&#45;&gt;Node4</title>
<g id="a_edge3_Node000003_Node000004"><a xlink:title=" ">
<path fill="none" stroke="#63b8ff" d="M615.91,-167.59C618.64,-153.96 621.48,-128.54 609.62,-112 598.82,-96.93 582.05,-86.9 564.83,-80.22"/>
<polygon fill="#63b8ff" stroke="#63b8ff" points="566.13,-76.97 555.53,-76.98 563.83,-83.58 566.13,-76.97"/>
</a>
</g>
</g>
<!-- Node8 -->
<g id="Node000008" class="node">
<title>Node8</title>
<g id="a_Node000008"><a xlink:href="../../dd/dd8/_a_e_flags_8hpp.html" target="_top" xlink:title="This file contains the flags to manipulate engine&#39;s funcitonality.">
<polygon fill="white" stroke="#666666" points="407.62,-76 301.62,-76 301.62,-56 407.62,-56 407.62,-76"/>
<text text-anchor="middle" x="354.62" y="-62.5" font-family="Helvetica,sans-Serif" font-size="10.00">include/AEFlags.hpp</text>
</a>
</g>
</g>
<!-- Node3&#45;&gt;Node8 -->
<g id="edge7_Node000003_Node000008" class="edge">
<title>Node3&#45;&gt;Node8</title>
<g id="a_edge7_Node000003_Node000008"><a xlink:title=" ">
<path fill="none" stroke="#63b8ff" d="M611.08,-167.79C606.63,-153.46 595.98,-126.01 576.62,-112 563.86,-102.76 480.06,-87.45 419.18,-77.29"/>
<polygon fill="#63b8ff" stroke="#63b8ff" points="420.03,-73.89 409.59,-75.71 418.89,-80.79 420.03,-73.89"/>
</a>
</g>
</g>
<!-- Node3&#45;&gt;Node9 -->
<g id="edge8_Node000003_Node000009" class="edge">
<title>Node3&#45;&gt;Node9</title>
<g id="a_edge8_Node000003_Node000009"><a xlink:title=" ">
<path fill="none" stroke="#63b8ff" d="M640.1,-167.59C665.67,-158.51 704.48,-144.72 732.17,-134.88"/>
<polygon fill="#63b8ff" stroke="#63b8ff" points="733.24,-138.22 741.49,-131.57 730.9,-131.62 733.24,-138.22"/>
</a>
</g>
</g>
<!-- Node10 -->
<g id="Node000010" class="node">
<title>Node10</title>
<g id="a_Node000010"><a xlink:title=" ">
<polygon fill="#e0e0e0" stroke="#999999" points="567.62,-132 527.62,-132 527.62,-112 567.62,-112 567.62,-132"/>
<text text-anchor="middle" x="547.62" y="-118.5" font-family="Helvetica,sans-Serif" font-size="10.00">string</text>
</a>
</g>
</g>
<!-- Node3&#45;&gt;Node10 -->
<g id="edge9_Node000003_Node000010" class="edge">
<title>Node3&#45;&gt;Node10</title>
<g id="a_edge9_Node000003_Node000010"><a xlink:title=" ">
<path fill="none" stroke="#63b8ff" d="M602.13,-167.59C592.66,-159.85 579.02,-148.69 567.75,-139.47"/>
<polygon fill="#63b8ff" stroke="#63b8ff" points="570.12,-136.88 560.16,-133.26 565.68,-142.3 570.12,-136.88"/>
</a>
</g>
</g>
<!-- Node11 -->
<g id="Node000011" class="node">
<title>Node11</title>
<g id="a_Node000011"><a xlink:title=" ">
<polygon fill="#e0e0e0" stroke="#999999" points="725.25,-132 662,-132 662,-112 725.25,-112 725.25,-132"/>
<text text-anchor="middle" x="693.62" y="-118.5" font-family="Helvetica,sans-Serif" font-size="10.00">string_view</text>
</a>
</g>
</g>
<!-- Node3&#45;&gt;Node11 -->
<g id="edge10_Node000003_Node000011" class="edge">
<title>Node3&#45;&gt;Node11</title>
<g id="a_edge10_Node000003_Node000011"><a xlink:title=" ">
<path fill="none" stroke="#63b8ff" d="M627.56,-167.59C639.3,-159.67 656.36,-148.16 670.19,-138.82"/>
<polygon fill="#63b8ff" stroke="#63b8ff" points="672,-141.82 678.33,-133.33 668.08,-136.02 672,-141.82"/>
</a>
</g>
</g>
<!-- Node5 -->
<g id="Node000005" class="node">
<title>Node5</title>
<g id="a_Node000005"><a xlink:title=" ">
<polygon fill="#e0e0e0" stroke="#999999" points="458.88,-20 414.38,-20 414.38,0 458.88,0 458.88,-20"/>
<text text-anchor="middle" x="436.62" y="-6.5" font-family="Helvetica,sans-Serif" font-size="10.00">climits</text>
</a>
</g>
</g>
<!-- Node4&#45;&gt;Node5 -->
<g id="edge4_Node000004_Node000005" class="edge">
<title>Node4&#45;&gt;Node5</title>
<g id="a_edge4_Node000004_Node000005"><a xlink:title=" ">
<path fill="none" stroke="#63b8ff" d="M488.65,-55.59C479.71,-47.93 466.85,-36.91 456.16,-27.75"/>
<polygon fill="#63b8ff" stroke="#63b8ff" points="458.49,-25.13 448.62,-21.28 453.94,-30.45 458.49,-25.13"/>
</a>
</g>
</g>
<!-- Node6 -->
<g id="Node000006" class="node">
<title>Node6</title>
<g id="a_Node000006"><a xlink:title=" ">
<polygon fill="#e0e0e0" stroke="#999999" points="522.25,-20 477,-20 477,0 522.25,0 522.25,-20"/>
<text text-anchor="middle" x="499.62" y="-6.5" font-family="Helvetica,sans-Serif" font-size="10.00">chrono</text>
</a>
</g>
</g>
<!-- Node4&#45;&gt;Node6 -->
<g id="edge5_Node000004_Node000006" class="edge">
<title>Node4&#45;&gt;Node6</title>
<g id="a_edge5_Node000004_Node000006"><a xlink:title=" ">
<path fill="none" stroke="#63b8ff" d="M499.62,-55.59C499.62,-49.01 499.62,-39.96 499.62,-31.73"/>
<polygon fill="#63b8ff" stroke="#63b8ff" points="503.13,-31.81 499.63,-21.81 496.13,-31.81 503.13,-31.81"/>
</a>
</g>
</g>
<!-- Node7 -->
<g id="Node000007" class="node">
<title>Node7</title>
<g id="a_Node000007"><a xlink:title=" ">
<polygon fill="#e0e0e0" stroke="#999999" points="583.12,-20 540.12,-20 540.12,0 583.12,0 583.12,-20"/>
<text text-anchor="middle" x="561.62" y="-6.5" font-family="Helvetica,sans-Serif" font-size="10.00">thread</text>
</a>
</g>
</g>
<!-- Node4&#45;&gt;Node7 -->
<g id="edge6_Node000004_Node000007" class="edge">
<title>Node4&#45;&gt;Node7</title>
<g id="a_edge6_Node000004_Node000007"><a xlink:title=" ">
<path fill="none" stroke="#63b8ff" d="M510.42,-55.59C519.23,-47.93 531.88,-36.91 542.4,-27.75"/>
<polygon fill="#63b8ff" stroke="#63b8ff" points="544.57,-30.5 549.81,-21.29 539.97,-25.22 544.57,-30.5"/>
</a>
</g>
</g>
<!-- Node12&#45;&gt;Node4 -->
<g id="edge20_Node000012_Node000004" class="edge">
<title>Node12&#45;&gt;Node4</title>
<g id="a_edge20_Node000012_Node000004"><a xlink:title=" ">
<path fill="none" stroke="#63b8ff" d="M424.43,-167.53C443.44,-160.59 466.18,-149.3 480.62,-132 491.01,-119.56 495.72,-101.68 497.86,-87.82"/>
<polygon fill="#63b8ff" stroke="#63b8ff" points="501.32,-88.33 499.01,-77.99 494.37,-87.52 501.32,-88.33"/>
</a>
</g>
</g>
<!-- Node12&#45;&gt;Node8 -->
<g id="edge19_Node000012_Node000008" class="edge">
<title>Node12&#45;&gt;Node8</title>
<g id="a_edge19_Node000012_Node000008"><a xlink:title=" ">
<path fill="none" stroke="#63b8ff" d="M339.47,-168.03C318.82,-161.62 296.98,-150.67 284.62,-132 271.15,-111.64 296.32,-93.2 320.15,-81.21"/>
<polygon fill="#63b8ff" stroke="#63b8ff" points="321.59,-84.4 329.14,-76.97 318.6,-78.07 321.59,-84.4"/>
</a>
</g>
</g>
<!-- Node12&#45;&gt;Node10 -->
<g id="edge22_Node000012_Node000010" class="edge">
<title>Node12&#45;&gt;Node10</title>
<g id="a_edge22_Node000012_Node000010"><a xlink:title=" ">
<path fill="none" stroke="#63b8ff" d="M417.97,-167.59C445.58,-158.1 488.15,-143.46 516.91,-133.57"/>
<polygon fill="#63b8ff" stroke="#63b8ff" points="517.81,-136.96 526.13,-130.39 515.54,-130.34 517.81,-136.96"/>
</a>
</g>
</g>
<!-- Node13 -->
<g id="Node000013" class="node">
<title>Node13</title>
<g id="a_Node000013"><a xlink:href="../../d9/d6a/_a_e_utils_macros_8hpp.html" target="_top" xlink:title="This file contains the engine&#39;s macros for trivial tasks.">
<polygon fill="white" stroke="#666666" points="237.62,-132 137.62,-132 137.62,-112 237.62,-112 237.62,-132"/>
<text text-anchor="middle" x="187.62" y="-118.5" font-family="Helvetica,sans-Serif" font-size="10.00">AEUtilsMacros.hpp</text>
</a>
</g>
</g>
<!-- Node12&#45;&gt;Node13 -->
<g id="edge12_Node000012_Node000013" class="edge">
<title>Node12&#45;&gt;Node13</title>
<g id="a_edge12_Node000012_Node000013"><a xlink:title=" ">
<path fill="none" stroke="#63b8ff" d="M355.27,-167.59C321.7,-158.67 271.06,-145.19 234.22,-135.39"/>
<polygon fill="#63b8ff" stroke="#63b8ff" points="235.29,-132.06 224.72,-132.87 233.49,-138.82 235.29,-132.06"/>
</a>
</g>
</g>
<!-- Node18 -->
<g id="Node000018" class="node">
<title>Node18</title>
<g id="a_Node000018"><a xlink:title=" ">
<polygon fill="#e0e0e0" stroke="#999999" points="349.5,-132 293.75,-132 293.75,-112 349.5,-112 349.5,-132"/>
<text text-anchor="middle" x="321.62" y="-118.5" font-family="Helvetica,sans-Serif" font-size="10.00">algorithm</text>
</a>
</g>
</g>
<!-- Node12&#45;&gt;Node18 -->
<g id="edge21_Node000012_Node000018" class="edge">
<title>Node12&#45;&gt;Node18</title>
<g id="a_edge21_Node000012_Node000018"><a xlink:title=" ">
<path fill="none" stroke="#63b8ff" d="M378.61,-167.59C368.61,-159.77 354.16,-148.46 342.32,-139.19"/>
<polygon fill="#63b8ff" stroke="#63b8ff" points="344.73,-136.64 334.7,-133.23 340.42,-142.15 344.73,-136.64"/>
</a>
</g>
</g>
<!-- Node19 -->
<g id="Node000019" class="node">
<title>Node19</title>
<g id="a_Node000019"><a xlink:title=" ">
<polygon fill="#e0e0e0" stroke="#999999" points="413.25,-132 368,-132 368,-112 413.25,-112 413.25,-132"/>
<text text-anchor="middle" x="390.62" y="-118.5" font-family="Helvetica,sans-Serif" font-size="10.00">cstring</text>
</a>
</g>
</g>
<!-- Node12&#45;&gt;Node19 -->
<g id="edge23_Node000012_Node000019" class="edge">
<title>Node12&#45;&gt;Node19</title>
<g id="a_edge23_Node000012_Node000019"><a xlink:title=" ">
<path fill="none" stroke="#63b8ff" d="M390.62,-167.59C390.62,-161.01 390.62,-151.96 390.62,-143.73"/>
<polygon fill="#63b8ff" stroke="#63b8ff" points="394.13,-143.81 390.63,-133.81 387.13,-143.81 394.13,-143.81"/>
</a>
</g>
</g>
<!-- Node20 -->
<g id="Node000020" class="node">
<title>Node20</title>
<g id="a_Node000020"><a xlink:title=" ">
<polygon fill="#e0e0e0" stroke="#999999" points="471.62,-132 431.62,-132 431.62,-112 471.62,-112 471.62,-132"/>
<text text-anchor="middle" x="451.62" y="-118.5" font-family="Helvetica,sans-Serif" font-size="10.00">ctime</text>
</a>
</g>
</g>
<!-- Node12&#45;&gt;Node20 -->
<g id="edge24_Node000012_Node000020" class="edge">
<title>Node12&#45;&gt;Node20</title>
<g id="a_edge24_Node000012_Node000020"><a xlink:title=" ">
<path fill="none" stroke="#63b8ff" d="M401.25,-167.59C409.91,-159.93 422.36,-148.91 432.71,-139.75"/>
<polygon fill="#63b8ff" stroke="#63b8ff" points="434.82,-142.55 439.99,-133.3 430.18,-137.31 434.82,-142.55"/>
</a>
</g>
</g>
<!-- Node21 -->
<g id="Node000021" class="node">
<title>Node21</title>
<g id="a_Node000021"><a xlink:title=" ">
<polygon fill="#e0e0e0" stroke="#999999" points="51.25,-132 0,-132 0,-112 51.25,-112 51.25,-132"/>
<text text-anchor="middle" x="25.62" y="-118.5" font-family="Helvetica,sans-Serif" font-size="10.00">sstream</text>
</a>
</g>
</g>
<!-- Node12&#45;&gt;Node21 -->
<g id="edge25_Node000012_Node000021" class="edge">
<title>Node12&#45;&gt;Node21</title>
<g id="a_edge25_Node000012_Node000021"><a xlink:title=" ">
<path fill="none" stroke="#63b8ff" d="M339.57,-169.28C336.54,-168.84 333.55,-168.41 330.62,-168 214.27,-151.52 181.37,-154.89 62.54,-132.16"/>
<polygon fill="#63b8ff" stroke="#63b8ff" points="63.51,-128.78 53.03,-130.32 62.18,-135.66 63.51,-128.78"/>
</a>
</g>
</g>
<!-- Node22 -->
<g id="Node000022" class="node">
<title>Node22</title>
<g id="a_Node000022"><a xlink:title=" ">
<polygon fill="#e0e0e0" stroke="#999999" points="119.5,-132 69.75,-132 69.75,-112 119.5,-112 119.5,-132"/>
<text text-anchor="middle" x="94.62" y="-118.5" font-family="Helvetica,sans-Serif" font-size="10.00">iomanip</text>
</a>
</g>
</g>
<!-- Node12&#45;&gt;Node22 -->
<g id="edge26_Node000012_Node000022" class="edge">
<title>Node12&#45;&gt;Node22</title>
<g id="a_edge26_Node000012_Node000022"><a xlink:title=" ">
<path fill="none" stroke="#63b8ff" d="M339.56,-168.78C279.64,-159.05 182.78,-143.02 130.8,-132.28"/>
<polygon fill="#63b8ff" stroke="#63b8ff" points="131.81,-128.91 121.3,-130.25 130.35,-135.76 131.81,-128.91"/>
</a>
</g>
</g>
<!-- Node13&#45;&gt;Node4 -->
<g id="edge13_Node000013_Node000004" class="edge">
<title>Node13&#45;&gt;Node4</title>
<g id="a_edge13_Node000013_Node000004"><a xlink:title=" ">
<path fill="none" stroke="#63b8ff" d="M238.1,-112.26C291.21,-103.07 375.05,-88.56 433.44,-78.46"/>
<polygon fill="#63b8ff" stroke="#63b8ff" points="434.01,-81.91 443.27,-76.75 432.82,-75.01 434.01,-81.91"/>
</a>
</g>
</g>
<!-- Node13&#45;&gt;Node8 -->
<g id="edge14_Node000013_Node000008" class="edge">
<title>Node13&#45;&gt;Node8</title>
<g id="a_edge14_Node000013_Node000008"><a xlink:title=" ">
<path fill="none" stroke="#63b8ff" d="M216.71,-111.59C243.85,-102.82 284.56,-89.66 314.72,-79.9"/>
<polygon fill="#63b8ff" stroke="#63b8ff" points="315.43,-83.35 323.87,-76.95 313.28,-76.69 315.43,-83.35"/>
</a>
</g>
</g>
<!-- Node14 -->
<g id="Node000014" class="node">
<title>Node14</title>
<g id="a_Node000014"><a xlink:title=" ">
<polygon fill="#e0e0e0" stroke="#999999" points="283.38,-76 229.88,-76 229.88,-56 283.38,-56 283.38,-76"/>
<text text-anchor="middle" x="256.62" y="-62.5" font-family="Helvetica,sans-Serif" font-size="10.00">iostream</text>
</a>
</g>
</g>
<!-- Node13&#45;&gt;Node14 -->
<g id="edge15_Node000013_Node000014" class="edge">
<title>Node13&#45;&gt;Node14</title>
<g id="a_edge15_Node000013_Node000014"><a xlink:title=" ">
<path fill="none" stroke="#63b8ff" d="M199.64,-111.59C209.64,-103.77 224.09,-92.46 235.93,-83.19"/>
<polygon fill="#63b8ff" stroke="#63b8ff" points="237.83,-86.15 243.55,-77.23 233.52,-80.64 237.83,-86.15"/>
</a>
</g>
</g>
<!-- Node15 -->
<g id="Node000015" class="node">
<title>Node15</title>
<g id="a_Node000015"><a xlink:title=" ">
<polygon fill="#e0e0e0" stroke="#999999" points="65.75,-76 23.5,-76 23.5,-56 65.75,-56 65.75,-76"/>
<text text-anchor="middle" x="44.62" y="-62.5" font-family="Helvetica,sans-Serif" font-size="10.00">cstdio</text>
</a>
</g>
</g>
<!-- Node13&#45;&gt;Node15 -->
<g id="edge16_Node000013_Node000015" class="edge">
<title>Node13&#45;&gt;Node15</title>
<g id="a_edge16_Node000013_Node000015"><a xlink:title=" ">
<path fill="none" stroke="#63b8ff" d="M162.72,-111.59C138.77,-102.55 102.47,-88.85 76.45,-79.02"/>
<polygon fill="#63b8ff" stroke="#63b8ff" points="77.99,-75.86 67.4,-75.6 75.52,-82.41 77.99,-75.86"/>
</a>
</g>
</g>
<!-- Node16 -->
<g id="Node000016" class="node">
<title>Node16</title>
<g id="a_Node000016"><a xlink:title=" ">
<polygon fill="#e0e0e0" stroke="#999999" points="145.5,-76 83.75,-76 83.75,-56 145.5,-56 145.5,-76"/>
<text text-anchor="middle" x="114.62" y="-62.5" font-family="Helvetica,sans-Serif" font-size="10.00">type_traits</text>
</a>
</g>
</g>
<!-- Node13&#45;&gt;Node16 -->
<g id="edge17_Node000013_Node000016" class="edge">
<title>Node13&#45;&gt;Node16</title>
<g id="a_edge17_Node000013_Node000016"><a xlink:title=" ">
<path fill="none" stroke="#63b8ff" d="M174.91,-111.59C164.23,-103.7 148.75,-92.24 136.14,-82.92"/>
<polygon fill="#63b8ff" stroke="#63b8ff" points="138.53,-80.33 128.41,-77.2 134.37,-85.96 138.53,-80.33"/>
</a>
</g>
</g>
<!-- Node17 -->
<g id="Node000017" class="node">
<title>Node17</title>
<g id="a_Node000017"><a xlink:title=" ">
<polygon fill="#e0e0e0" stroke="#999999" points="211.38,-76 163.88,-76 163.88,-56 211.38,-56 211.38,-76"/>
<text text-anchor="middle" x="187.62" y="-62.5" font-family="Helvetica,sans-Serif" font-size="10.00">cstddef</text>
</a>
</g>
</g>
<!-- Node13&#45;&gt;Node17 -->
<g id="edge18_Node000013_Node000017" class="edge">
<title>Node13&#45;&gt;Node17</title>
<g id="a_edge18_Node000013_Node000017"><a xlink:title=" ">
<path fill="none" stroke="#63b8ff" d="M187.62,-111.59C187.62,-105.01 187.62,-95.96 187.62,-87.73"/>
<polygon fill="#63b8ff" stroke="#63b8ff" points="191.13,-87.81 187.63,-77.81 184.13,-87.81 191.13,-87.81"/>
</a>
</g>
</g>
</g>
</svg>

<g id="navigator" transform="translate(0 0)" fill="#404254">
  <rect fill="#f2f5e9" fill-opacity="0.5" stroke="#606060" stroke-width=".5" x="0" y="0" width="60" height="60"/>
  <use id="zoomplus" xlink:href="#zoomPlus" x="17" y="9" onmousedown="handleZoom(evt,'in')"/>
  <use id="zoomminus" xlink:href="#zoomMin" x="42" y="9" onmousedown="handleZoom(evt,'out')"/>
  <use id="reset" xlink:href="#resetDef" x="30" y="36" onmousedown="handleReset()"/>
   <use id="arrowup" xlink:href="#arrowUp" x="0" y="0" onmousedown="handlePan(0,-1)"/>
  <use id="arrowright" xlink:href="#arrowRight" x="0" y="0" onmousedown="handlePan(1,0)"/>
  <use id="arrowdown" xlink:href="#arrowDown" x="0" y="0" onmousedown="handlePan(0,1)"/>
  <use id="arrowleft" xlink:href="#arrowLeft" x="0" y="0" onmousedown="handlePan(-1,0)"/>
</g>
<svg viewBox="0 0 15 15" width="100%" height="30px" preserveAspectRatio="xMaxYMin meet">
 <g id="arrow_out" transform="scale(0.3 0.3)">
  <a xlink:href="_a_e_log_entry_8hpp__incl_org.svg" target="_base">
   <rect id="button" ry="5" rx="5" y="6" x="6" height="38" width="38"
        fill="#f2f5e9" fill-opacity="0.5" stroke="#606060" stroke-width="1.0"/>
   <path id="arrow"
     d="M 11.500037,31.436501 C 11.940474,20.09759 22.043105,11.32322 32.158766,21.979434 L 37.068811,17.246167 C 37.068811,17.246167 37.088388,32 37.088388,32 L 22.160133,31.978069 C 22.160133,31.978069 26.997745,27.140456 26.997745,27.140456 C 18.528582,18.264221 13.291696,25.230495 11.500037,31.436501 z"
     style="fill:#404040;"/>
  </a>
 </g>
</svg>

<style type='text/css'>
<![CDATA[
[data-mouse-over-selected='false'] { opacity: 0.7; }
[data-mouse-over-selected='true']  { opacity: 1.0; }
]]>
</style>
<script type="application/ecmascript"><![CDATA[
document.addEventListener('DOMContentLoaded', (event) => {
  highlightEdges();
  highlightAdjacentNodes();
});
]]></script>
</svg>
