<?xml version="1.0" encoding="UTF-8" standalone="no"?>
<!DOCTYPE svg PUBLIC "-//W3C//DTD SVG 1.1//EN"
 "http://www.w3.org/Graphics/SVG/1.1/DTD/svg11.dtd">
<!-- Generated by graphviz version 10.0.1 (20240210.2158)
 -->
<!-- Title: AELogParser Pages: 1 -->
<!--zoomable 817 -->

<svg id="main" version="1.1" xmlns="http://www.w3.org/2000/svg" xmlns:xlink="http://www.w3.org/1999/xlink" xml:space="preserve" onload="init(evt)">
<style type="text/css"><![CDATA[
.node, .edge {opacity: 0.7;}
.node.selected, .edge.selected {opacity: 1;}
.edge:hover path { stroke: red; }
.edge:hover polygon { stroke: red; fill: red; }
]]></style>

<defs>
  <circle id="rim" cx="0" cy="0" r="7"/>
  <circle id="rim2" cx="0" cy="0" r="3.5"/>
  <g id="zoomPlus">
    <use xlink:href="#rim" fill="#404040"><set attributeName="fill" to="#808080" begin="zoomplus.mouseover" end="zoomplus.mouseout"/></use>
    <path d="M-4,0h8M0,-4v8" fill="none" stroke="white" stroke-width="1.5" pointer-events="none"/>
  </g>
  <g id="zoomMin">
    <use xlink:href="#rim" fill="#404040"><set attributeName="fill" to="#808080" begin="zoomminus.mouseover" end="zoomminus.mouseout"/></use>
    <path d="M-4,0h8" fill="none" stroke="white" stroke-width="1.5" pointer-events="none"/>
  </g>
  <g id="arrowUp" transform="translate(30 24)">
    <use xlink:href="#rim"/>
    <path pointer-events="none" fill="none" stroke="white" stroke-width="1.5" d="M0,-3.0v7 M-2.5,-0.5L0,-3.0L2.5,-0.5"/>
  </g>
  <g id="arrowRight" transform="rotate(90) translate(36 -43)">
    <use xlink:href="#rim"/>
    <path pointer-events="none" fill="none" stroke="white" stroke-width="1.5" d="M0,-3.0v7 M-2.5,-0.5L0,-3.0L2.5,-0.5"/>
  </g>
  <g id="arrowDown" transform="rotate(180) translate(-30 -48)">
    <use xlink:href="#rim"/>
    <path pointer-events="none" fill="none" stroke="white" stroke-width="1.5" d="M0,-3.0v7 M-2.5,-0.5L0,-3.0L2.5,-0.5"/>
  </g>
  <g id="arrowLeft" transform="rotate(270) translate(-36 17)">
    <use xlink:href="#rim"/>
    <path pointer-events="none" fill="none" stroke="white" stroke-width="1.5" d="M0,-3.0v7 M-2.5,-0.5L0,-3.0L2.5,-0.5"/>
  </g>
  <g id="resetDef">
    <use xlink:href="#rim2" fill="#404040"><set attributeName="fill" to="#808080" begin="reset.mouseover" end="reset.mouseout"/></use>
  </g>
</defs>
<script type="application/ecmascript">
var viewWidth = 1553;
var viewHeight = 817;
var sectionId = 'dynsection-1';
</script>
<script type="application/ecmascript" xlink:href="../../svg.min.js"/>
<svg id="graph" class="graph">
<g id="viewport">
<title>AELogParser</title>
<!-- Node1 -->
<g id="Node000001" class="node">
<title>Node1</title>
<g id="a_Node000001"><a xlink:title="ArtyK&#39;s Engine&#39;s Log Parser; it parses the log files that AELogger writes.">
<polygon fill="#999999" stroke="#666666" points="1544.55,-373 1470.8,-373 1470.8,-353 1544.55,-353 1544.55,-373"/>
<text text-anchor="middle" x="1507.68" y="-359.5" font-family="Helvetica,sans-Serif" font-size="10.00">AELogParser</text>
</a>
</g>
</g>
<!-- Node2 -->
<g id="Node000002" class="node">
<title>Node2</title>
<g id="a_Node000002"><a xlink:href="../../d0/d8a/class_____a_e_module_base.html" target="_top" xlink:title=" ">
<polygon fill="white" stroke="#666666" points="1040.43,-623 870.68,-623 870.68,-603 1040.43,-603 1040.43,-623"/>
<text text-anchor="middle" x="955.55" y="-609.5" font-family="Helvetica,sans-Serif" font-size="10.00">__AEModuleBase&lt; AELogParser &gt;</text>
</a>
</g>
</g>
<!-- Node2&#45;&gt;Node1 -->
<g id="edge1_Node000001_Node000002" class="edge">
<title>Node2&#45;&gt;Node1</title>
<g id="a_edge1_Node000001_Node000002"><a xlink:title=" ">
<path fill="none" stroke="#63b8ff" d="M1011.93,-599.76C1107.71,-575.11 1307.94,-515.72 1452.8,-419 1471.87,-406.26 1489.37,-385.75 1498.98,-373.4"/>
<polygon fill="#63b8ff" stroke="#63b8ff" points="1011.35,-596.3 1002.52,-602.16 1013.07,-603.08 1011.35,-596.3"/>
</a>
</g>
</g>
<!-- Node3 -->
<g id="Node000003" class="node">
<title>Node3</title>
<g id="a_Node000003"><a xlink:title=" ">
<polygon fill="white" stroke="#666666" points="490.8,-693 362.3,-693 362.3,-673 490.8,-673 490.8,-693"/>
<text text-anchor="middle" x="426.55" y="-679.5" font-family="Helvetica,sans-Serif" font-size="10.00">std::atomic&lt; std::size_t &gt;</text>
</a>
</g>
</g>
<!-- Node3&#45;&gt;Node1 -->
<g id="edge50_Node000001_Node000003" class="edge">
<title>Node3&#45;&gt;Node1</title>
<g id="a_edge50_Node000001_Node000003"><a xlink:title=" ">
<path fill="none" stroke="#9a32cd" stroke-dasharray="5,2" d="M446.43,-701.05C462.04,-715.09 485.38,-734.13 508.8,-746 582.3,-783.25 604.65,-797 687.05,-797 687.05,-797 687.05,-797 1245.93,-797 1450.29,-797 1498.52,-439.02 1505.65,-373.3"/>
<polygon fill="#9a32cd" stroke="#9a32cd" points="449.02,-698.68 439.3,-694.48 444.28,-703.83 449.02,-698.68"/>
</a>
</g>
<text text-anchor="middle" x="955.55" y="-799.5" font-family="Helvetica,sans-Serif" font-size="10.00" fill="grey"> m_ullCurrentEntry</text>
</g>
<!-- Node3&#45;&gt;Node2 -->
<g id="edge2_Node000002_Node000003" class="edge">
<title>Node3&#45;&gt;Node2</title>
<g id="a_edge2_Node000002_Node000003"><a xlink:title=" ">
<path fill="none" stroke="#9a32cd" stroke-dasharray="5,2" d="M453.08,-699.2C468.55,-708.08 489.06,-718.22 508.8,-723 614.1,-748.48 647.67,-752.13 752.55,-725 830.58,-704.82 910.61,-647.28 941.39,-623.49"/>
<polygon fill="#9a32cd" stroke="#9a32cd" points="454.92,-696.23 444.54,-694.12 451.34,-702.24 454.92,-696.23"/>
</a>
</g>
<text text-anchor="middle" x="688.05" y="-745.5" font-family="Helvetica,sans-Serif" font-size="10.00" fill="grey"> m_ullModulesAlive</text>
</g>
<!-- Node10 -->
<g id="Node000010" class="node">
<title>Node10</title>
<g id="a_Node000010"><a xlink:href="../../d0/d8a/class_____a_e_module_base.html" target="_top" xlink:title="This is a base class for all the modules in the engine; all basic modules inherit from it.">
<polygon fill="white" stroke="#666666" points="746.68,-577 629.43,-577 629.43,-557 746.68,-557 746.68,-577"/>
<text text-anchor="middle" x="688.05" y="-563.5" font-family="Helvetica,sans-Serif" font-size="10.00">__AEModuleBase&lt; T &gt;</text>
</a>
</g>
</g>
<!-- Node3&#45;&gt;Node10 -->
<g id="edge11_Node000010_Node000003" class="edge">
<title>Node3&#45;&gt;Node10</title>
<g id="a_edge11_Node000010_Node000003"><a xlink:title=" ">
<path fill="none" stroke="#9a32cd" stroke-dasharray="5,2" d="M492.68,-669.77C528.73,-660 572.74,-643.8 605.55,-618 616.89,-609.08 612.26,-599.98 623.55,-591 630.74,-585.28 639.45,-580.81 648.08,-577.37"/>
<polygon fill="#9a32cd" stroke="#9a32cd" points="492.04,-666.32 483.24,-672.22 493.79,-673.09 492.04,-666.32"/>
</a>
</g>
<text text-anchor="middle" x="557.18" y="-666.5" font-family="Helvetica,sans-Serif" font-size="10.00" fill="grey"> m_ullModulesAlive</text>
</g>
<!-- Node12 -->
<g id="Node000012" class="node">
<title>Node12</title>
<g id="a_Node000012"><a xlink:href="../../d0/d8a/class_____a_e_module_base.html" target="_top" xlink:title=" ">
<polygon fill="white" stroke="#666666" points="1041.55,-513 869.55,-513 869.55,-493 1041.55,-493 1041.55,-513"/>
<text text-anchor="middle" x="955.55" y="-499.5" font-family="Helvetica,sans-Serif" font-size="10.00">__AEModuleBase&lt; AEFileReader &gt;</text>
</a>
</g>
</g>
<!-- Node3&#45;&gt;Node12 -->
<g id="edge16_Node000012_Node000003" class="edge">
<title>Node3&#45;&gt;Node12</title>
<g id="a_edge16_Node000012_Node000003"><a xlink:title=" ">
<path fill="none" stroke="#9a32cd" stroke-dasharray="5,2" d="M487.54,-695.41C554.38,-706.53 664.61,-716.69 752.55,-685 806.3,-665.63 821.74,-651.74 851.55,-603 870.79,-571.54 843.49,-548.09 869.55,-522 872.97,-518.58 876.86,-515.71 881.06,-513.32"/>
<polygon fill="#9a32cd" stroke="#9a32cd" points="488.33,-691.99 477.88,-693.74 487.14,-698.89 488.33,-691.99"/>
</a>
</g>
<text text-anchor="middle" x="688.05" y="-708.5" font-family="Helvetica,sans-Serif" font-size="10.00" fill="grey"> m_ullModulesAlive</text>
</g>
<!-- Node4 -->
<g id="Node000004" class="node">
<title>Node4</title>
<g id="a_Node000004"><a xlink:title=" ">
<polygon fill="white" stroke="#666666" points="197.8,-540 155.55,-540 155.55,-520 197.8,-520 197.8,-540"/>
<text text-anchor="middle" x="176.68" y="-526.5" font-family="Helvetica,sans-Serif" font-size="10.00">size_t</text>
</a>
</g>
</g>
<!-- Node4&#45;&gt;Node3 -->
<g id="edge3_Node000003_Node000004" class="edge">
<title>Node4&#45;&gt;Node3</title>
<g id="a_edge3_Node000003_Node000004"><a xlink:title=" ">
<path fill="none" stroke="#9a32cd" stroke-dasharray="5,2" d="M209.34,-525.11C251.96,-519.31 324.7,-512.35 344.3,-529 382.05,-561.08 335.88,-597.1 362.3,-639 371.72,-653.94 388.24,-665.17 402.04,-672.54"/>
<polygon fill="#9a32cd" stroke="#9a32cd" points="209.1,-521.61 199.69,-526.49 210.08,-528.54 209.1,-521.61"/>
</a>
</g>
<text text-anchor="middle" x="304.05" y="-531.5" font-family="Helvetica,sans-Serif" font-size="10.00" fill="grey"> ptr</text>
</g>
<!-- Node11 -->
<g id="Node000011" class="node">
<title>Node11</title>
<g id="a_Node000011"><a xlink:href="../../dd/dd5/class_a_e_file_reader.html" target="_top" xlink:title="ArtyK&#39;s Engine File Reader; umm, it reads data from the given file.">
<polygon fill="white" stroke="#666666" points="1282.93,-434 1206.93,-434 1206.93,-414 1282.93,-414 1282.93,-434"/>
<text text-anchor="middle" x="1244.93" y="-420.5" font-family="Helvetica,sans-Serif" font-size="10.00">AEFileReader</text>
</a>
</g>
</g>
<!-- Node4&#45;&gt;Node11 -->
<g id="edge23_Node000011_Node000004" class="edge">
<title>Node4&#45;&gt;Node11</title>
<g id="a_edge23_Node000011_Node000004"><a xlink:title=" ">
<path fill="none" stroke="#9a32cd" stroke-dasharray="5,2" d="M209.29,-526.01C221.56,-523.28 235.18,-518.7 245.8,-511 257.48,-502.53 253.22,-493.81 263.8,-484 324.29,-427.92 343.07,-393 425.55,-393 425.55,-393 425.55,-393 956.55,-393 1046.88,-393 1152.25,-408.33 1206.86,-417.43"/>
<polygon fill="#9a32cd" stroke="#9a32cd" points="208.76,-522.55 199.57,-527.82 210.04,-529.43 208.76,-522.55"/>
</a>
</g>
<text text-anchor="middle" x="688.05" y="-395.5" font-family="Helvetica,sans-Serif" font-size="10.00" fill="grey"> m_szLastReadAmount</text>
</g>
<!-- Node5 -->
<g id="Node000005" class="node">
<title>Node5</title>
<g id="a_Node000005"><a xlink:title=" ">
<polygon fill="white" stroke="#666666" points="220.68,-578 132.68,-578 132.68,-558 220.68,-558 220.68,-578"/>
<text text-anchor="middle" x="176.68" y="-564.5" font-family="Helvetica,sans-Serif" font-size="10.00">std::atomic&lt; T &gt;</text>
</a>
</g>
</g>
<!-- Node5&#45;&gt;Node3 -->
<g id="edge4_Node000003_Node000005" class="edge">
<title>Node5&#45;&gt;Node3</title>
<g id="a_edge4_Node000003_Node000005"><a xlink:title=" ">
<path fill="none" stroke="orange" stroke-dasharray="5,2" d="M210.27,-583.12C261.34,-606.81 358.94,-652.1 402.99,-672.53"/>
<polygon fill="orange" stroke="orange" points="212.03,-580.08 201.48,-579.05 209.08,-586.43 212.03,-580.08"/>
</a>
</g>
<text text-anchor="middle" x="304.05" y="-644.5" font-family="Helvetica,sans-Serif" font-size="10.00" fill="grey"> &lt; std::size_t &gt;</text>
</g>
<!-- Node7 -->
<g id="Node000007" class="node">
<title>Node7</title>
<g id="a_Node000007"><a xlink:title=" ">
<polygon fill="white" stroke="#666666" points="478.05,-540 375.05,-540 375.05,-520 478.05,-520 478.05,-540"/>
<text text-anchor="middle" x="426.55" y="-526.5" font-family="Helvetica,sans-Serif" font-size="10.00">std::atomic&lt; ullint &gt;</text>
</a>
</g>
</g>
<!-- Node5&#45;&gt;Node7 -->
<g id="edge8_Node000007_Node000005" class="edge">
<title>Node5&#45;&gt;Node7</title>
<g id="a_edge8_Node000007_Node000005"><a xlink:title=" ">
<path fill="none" stroke="orange" stroke-dasharray="5,2" d="M232.02,-561.13C264.63,-556.85 306.91,-551.03 344.3,-545 354.21,-543.4 364.78,-541.56 374.9,-539.72"/>
<polygon fill="orange" stroke="orange" points="231.88,-557.62 222.41,-562.38 232.78,-564.56 231.88,-557.62"/>
</a>
</g>
<text text-anchor="middle" x="304.05" y="-558.5" font-family="Helvetica,sans-Serif" font-size="10.00" fill="grey"> &lt; ullint &gt;</text>
</g>
<!-- Node6 -->
<g id="Node000006" class="node">
<title>Node6</title>
<g id="a_Node000006"><a xlink:title=" ">
<polygon fill="white" stroke="#666666" points="28.8,-333 0,-333 0,-313 28.8,-313 28.8,-333"/>
<text text-anchor="middle" x="14.4" y="-319.5" font-family="Helvetica,sans-Serif" font-size="10.00">T</text>
</a>
</g>
</g>
<!-- Node6&#45;&gt;Node5 -->
<g id="edge5_Node000005_Node000006" class="edge">
<title>Node6&#45;&gt;Node5</title>
<g id="a_edge5_Node000005_Node000006"><a xlink:title=" ">
<path fill="none" stroke="#9a32cd" stroke-dasharray="5,2" d="M17.9,-344.62C24.25,-389.56 45.22,-493.47 107.55,-549 114.52,-555.21 123.35,-559.4 132.33,-562.24"/>
<polygon fill="#9a32cd" stroke="#9a32cd" points="21.39,-344.34 16.64,-334.87 14.45,-345.24 21.39,-344.34"/>
</a>
</g>
<text text-anchor="middle" x="68.18" y="-532.5" font-family="Helvetica,sans-Serif" font-size="10.00" fill="grey"> ptr</text>
</g>
<!-- Node21 -->
<g id="Node000021" class="node">
<title>Node21</title>
<g id="a_Node000021"><a xlink:title=" ">
<polygon fill="white" stroke="#666666" points="997.68,-357 913.43,-357 913.43,-337 997.68,-337 997.68,-357"/>
<text text-anchor="middle" x="955.55" y="-343.5" font-family="Helvetica,sans-Serif" font-size="10.00">std::vector&lt; T &gt;</text>
</a>
</g>
</g>
<!-- Node6&#45;&gt;Node21 -->
<g id="edge31_Node000021_Node000006" class="edge">
<title>Node6&#45;&gt;Node21</title>
<g id="a_edge31_Node000021_Node000006"><a xlink:title=" ">
<path fill="none" stroke="#9a32cd" stroke-dasharray="5,2" d="M40.13,-329.04C71.47,-336.15 127.24,-347 175.68,-347 175.68,-347 175.68,-347 689.05,-347 768.33,-347 860.93,-347 913.16,-347"/>
<polygon fill="#9a32cd" stroke="#9a32cd" points="41.03,-325.65 30.49,-326.78 39.43,-332.47 41.03,-325.65"/>
</a>
</g>
<text text-anchor="middle" x="426.55" y="-349.5" font-family="Helvetica,sans-Serif" font-size="10.00" fill="grey"> elements</text>
</g>
<!-- Node29 -->
<g id="Node000029" class="node">
<title>Node29</title>
<g id="a_Node000029"><a xlink:title=" ">
<polygon fill="white" stroke="#666666" points="245.8,-103 107.55,-103 107.55,-83 245.8,-83 245.8,-103"/>
<text text-anchor="middle" x="176.68" y="-89.5" font-family="Helvetica,sans-Serif" font-size="10.00">std::unordered_map&lt; K, T &gt;</text>
</a>
</g>
</g>
<!-- Node6&#45;&gt;Node29 -->
<g id="edge45_Node000029_Node000006" class="edge">
<title>Node6&#45;&gt;Node29</title>
<g id="a_edge45_Node000029_Node000006"><a xlink:title=" ">
<path fill="none" stroke="#9a32cd" stroke-dasharray="5,2" d="M16.36,-301.52C18.48,-274.46 25.24,-227.45 46.8,-194 74.36,-151.23 126.39,-118.89 155.19,-103.31"/>
<polygon fill="#9a32cd" stroke="#9a32cd" points="12.89,-301.04 15.76,-311.23 19.87,-301.47 12.89,-301.04"/>
</a>
</g>
<text text-anchor="middle" x="68.18" y="-196.5" font-family="Helvetica,sans-Serif" font-size="10.00" fill="grey"> elements</text>
</g>
<!-- Node32 -->
<g id="Node000032" class="node">
<title>Node32</title>
<g id="a_Node000032"><a xlink:title=" ">
<polygon fill="white" stroke="#666666" points="344.3,-191 263.8,-191 263.8,-171 344.3,-171 344.3,-191"/>
<text text-anchor="middle" x="304.05" y="-177.5" font-family="Helvetica,sans-Serif" font-size="10.00">std::array&lt; T &gt;</text>
</a>
</g>
</g>
<!-- Node6&#45;&gt;Node32 -->
<g id="edge49_Node000032_Node000006" class="edge">
<title>Node6&#45;&gt;Node32</title>
<g id="a_edge49_Node000032_Node000006"><a xlink:title=" ">
<path fill="none" stroke="#9a32cd" stroke-dasharray="5,2" d="M39.5,-311.1C94.72,-283.84 229.66,-217.23 281.91,-191.44"/>
<polygon fill="#9a32cd" stroke="#9a32cd" points="38.05,-307.92 30.63,-315.48 41.15,-314.19 38.05,-307.92"/>
</a>
</g>
<text text-anchor="middle" x="68.18" y="-308.5" font-family="Helvetica,sans-Serif" font-size="10.00" fill="grey"> elements</text>
</g>
<!-- Node7&#45;&gt;Node2 -->
<g id="edge6_Node000002_Node000007" class="edge">
<title>Node7&#45;&gt;Node2</title>
<g id="a_edge6_Node000002_Node000007"><a xlink:title=" ">
<path fill="none" stroke="#9a32cd" stroke-dasharray="5,2" d="M453.84,-546.13C469.3,-554.87 489.54,-565.07 508.8,-571 630.63,-608.51 779.3,-615.2 870.43,-615.16"/>
<polygon fill="#9a32cd" stroke="#9a32cd" points="455.68,-543.15 445.28,-541.14 452.16,-549.2 455.68,-543.15"/>
</a>
</g>
<text text-anchor="middle" x="688.05" y="-613.5" font-family="Helvetica,sans-Serif" font-size="10.00" fill="grey"> m_ullInstanceCounter</text>
</g>
<!-- Node7&#45;&gt;Node10 -->
<g id="edge12_Node000010_Node000007" class="edge">
<title>Node7&#45;&gt;Node10</title>
<g id="a_edge12_Node000010_Node000007"><a xlink:title=" ">
<path fill="none" stroke="#9a32cd" stroke-dasharray="5,2" d="M489.78,-538.87C532.06,-544.9 587.59,-552.82 628.97,-558.72"/>
<polygon fill="#9a32cd" stroke="#9a32cd" points="490.4,-535.43 480.01,-537.48 489.41,-542.36 490.4,-535.43"/>
</a>
</g>
<text text-anchor="middle" x="557.18" y="-557.5" font-family="Helvetica,sans-Serif" font-size="10.00" fill="grey"> m_ullInstanceCounter</text>
</g>
<!-- Node7&#45;&gt;Node11 -->
<g id="edge22_Node000011_Node000007" class="edge">
<title>Node7&#45;&gt;Node11</title>
<g id="a_edge22_Node000011_Node000007"><a xlink:title=" ">
<path fill="none" stroke="#9a32cd" stroke-dasharray="5,2" d="M453.8,-513.99C469.25,-505.37 489.49,-495.42 508.8,-490 768.2,-417.23 1097.37,-419.47 1206.74,-422.6"/>
<polygon fill="#9a32cd" stroke="#9a32cd" points="452.17,-510.89 445.25,-518.92 455.66,-516.95 452.17,-510.89"/>
</a>
</g>
<text text-anchor="middle" x="811.05" y="-442.5" font-family="Helvetica,sans-Serif" font-size="10.00" fill="grey"> m_ullTotalReads</text>
</g>
<!-- Node7&#45;&gt;Node12 -->
<g id="edge17_Node000012_Node000007" class="edge">
<title>Node7&#45;&gt;Node12</title>
<g id="a_edge17_Node000012_Node000007"><a xlink:title=" ">
<path fill="none" stroke="#9a32cd" stroke-dasharray="5,2" d="M487.31,-517.26C494.54,-515.79 501.83,-514.34 508.8,-513 559.64,-503.25 571.97,-497.46 623.55,-493 680.67,-488.06 695.23,-491.58 752.55,-493 790.81,-493.95 833.11,-495.9 869.07,-497.83"/>
<polygon fill="#9a32cd" stroke="#9a32cd" points="486.62,-513.83 477.53,-519.27 488.03,-520.68 486.62,-513.83"/>
</a>
</g>
<text text-anchor="middle" x="688.05" y="-495.5" font-family="Helvetica,sans-Serif" font-size="10.00" fill="grey"> m_ullInstanceCounter</text>
</g>
<!-- Node8 -->
<g id="Node000008" class="node">
<title>Node8</title>
<g id="a_Node000008"><a xlink:title=" ">
<polygon fill="white" stroke="#666666" points="194.8,-502 158.55,-502 158.55,-482 194.8,-482 194.8,-502"/>
<text text-anchor="middle" x="176.68" y="-488.5" font-family="Helvetica,sans-Serif" font-size="10.00">ullint</text>
</a>
</g>
</g>
<!-- Node8&#45;&gt;Node7 -->
<g id="edge7_Node000007_Node000008" class="edge">
<title>Node8&#45;&gt;Node7</title>
<g id="a_edge7_Node000007_Node000008"><a xlink:title=" ">
<path fill="none" stroke="#9a32cd" stroke-dasharray="5,2" d="M206.15,-489.82C239.61,-487.95 296.63,-486.94 344.3,-497 366.2,-501.62 389.74,-511.81 405.81,-519.66"/>
<polygon fill="#9a32cd" stroke="#9a32cd" points="206.21,-486.31 196.45,-490.43 206.65,-493.29 206.21,-486.31"/>
</a>
</g>
<text text-anchor="middle" x="304.05" y="-499.5" font-family="Helvetica,sans-Serif" font-size="10.00" fill="grey"> ptr</text>
</g>
<!-- Node9 -->
<g id="Node000009" class="node">
<title>Node9</title>
<g id="a_Node000009"><a xlink:title=" ">
<polygon fill="white" stroke="#666666" points="458.18,-630 394.93,-630 394.93,-610 458.18,-610 458.18,-630"/>
<text text-anchor="middle" x="426.55" y="-616.5" font-family="Helvetica,sans-Serif" font-size="10.00">const ullint</text>
</a>
</g>
</g>
<!-- Node9&#45;&gt;Node2 -->
<g id="edge9_Node000002_Node000009" class="edge">
<title>Node9&#45;&gt;Node2</title>
<g id="a_edge9_Node000002_Node000009"><a xlink:title=" ">
<path fill="none" stroke="#9a32cd" stroke-dasharray="5,2" d="M448.87,-636.92C464.46,-648.17 486.68,-661.95 508.8,-668 583.08,-688.3 808.05,-644.54 906.99,-623.48"/>
<polygon fill="#9a32cd" stroke="#9a32cd" points="451.38,-634.43 441.28,-631.24 447.19,-640.04 451.38,-634.43"/>
</a>
</g>
<text text-anchor="middle" x="688.05" y="-671.5" font-family="Helvetica,sans-Serif" font-size="10.00" fill="grey"> m_ullModuleId</text>
</g>
<!-- Node9&#45;&gt;Node10 -->
<g id="edge13_Node000010_Node000009" class="edge">
<title>Node9&#45;&gt;Node10</title>
<g id="a_edge13_Node000010_Node000009"><a xlink:title=" ">
<path fill="none" stroke="#9a32cd" stroke-dasharray="5,2" d="M469.8,-611.37C515.19,-602.1 587.3,-587.37 635.87,-577.45"/>
<polygon fill="#9a32cd" stroke="#9a32cd" points="469.17,-607.93 460.08,-613.36 470.58,-614.78 469.17,-607.93"/>
</a>
</g>
<text text-anchor="middle" x="557.18" y="-604.5" font-family="Helvetica,sans-Serif" font-size="10.00" fill="grey"> m_ullModuleId</text>
</g>
<!-- Node9&#45;&gt;Node12 -->
<g id="edge18_Node000012_Node000009" class="edge">
<title>Node9&#45;&gt;Node12</title>
<g id="a_edge18_Node000012_Node000009"><a xlink:title=" ">
<path fill="none" stroke="#9a32cd" stroke-dasharray="5,2" d="M441.12,-600.59C455.52,-581.73 480.13,-554.09 508.8,-541 540.66,-526.46 748.92,-513.54 869.18,-507.18"/>
<polygon fill="#9a32cd" stroke="#9a32cd" points="438.37,-598.42 435.28,-608.55 444.02,-602.56 438.37,-598.42"/>
</a>
</g>
<text text-anchor="middle" x="688.05" y="-525.5" font-family="Helvetica,sans-Serif" font-size="10.00" fill="grey"> m_ullModuleId</text>
</g>
<!-- Node10&#45;&gt;Node2 -->
<g id="edge10_Node000002_Node000010" class="edge">
<title>Node10&#45;&gt;Node2</title>
<g id="a_edge10_Node000002_Node000010"><a xlink:title=" ">
<path fill="none" stroke="orange" stroke-dasharray="5,2" d="M758.11,-573.57C787.1,-576.83 821.09,-581.3 851.55,-587 873.85,-591.17 898.5,-597.33 918.09,-602.62"/>
<polygon fill="orange" stroke="orange" points="758.68,-570.12 748.36,-572.51 757.92,-577.07 758.68,-570.12"/>
</a>
</g>
<text text-anchor="middle" x="811.05" y="-589.5" font-family="Helvetica,sans-Serif" font-size="10.00" fill="grey"> &lt; AELogParser &gt;</text>
</g>
<!-- Node10&#45;&gt;Node12 -->
<g id="edge19_Node000012_Node000010" class="edge">
<title>Node10&#45;&gt;Node12</title>
<g id="a_edge19_Node000012_Node000010"><a xlink:title=" ">
<path fill="none" stroke="orange" stroke-dasharray="5,2" d="M753.46,-554.13C783.53,-547.57 819.65,-538.88 851.55,-529 859.75,-526.46 861.34,-524.5 869.55,-522 879.97,-518.83 891.25,-515.94 902.08,-513.42"/>
<polygon fill="orange" stroke="orange" points="752.77,-550.7 743.73,-556.22 754.24,-557.54 752.77,-550.7"/>
</a>
</g>
<text text-anchor="middle" x="811.05" y="-551.5" font-family="Helvetica,sans-Serif" font-size="10.00" fill="grey"> &lt; AEFileReader &gt;</text>
</g>
<!-- Node11&#45;&gt;Node1 -->
<g id="edge14_Node000001_Node000011" class="edge">
<title>Node11&#45;&gt;Node1</title>
<g id="a_edge14_Node000001_Node000011"><a xlink:title=" ">
<path fill="none" stroke="#9a32cd" stroke-dasharray="5,2" d="M1294.15,-414.57C1336.23,-406.09 1398.83,-392.86 1452.8,-379 1459.32,-377.33 1466.24,-375.39 1472.87,-373.46"/>
<polygon fill="#9a32cd" stroke="#9a32cd" points="1293.72,-411.09 1284.6,-416.48 1295.09,-417.95 1293.72,-411.09"/>
</a>
</g>
<text text-anchor="middle" x="1397.3" y="-405.5" font-family="Helvetica,sans-Serif" font-size="10.00" fill="grey"> m_frLogReader</text>
</g>
<!-- Node12&#45;&gt;Node11 -->
<g id="edge15_Node000011_Node000012" class="edge">
<title>Node12&#45;&gt;Node11</title>
<g id="a_edge15_Node000011_Node000012"><a xlink:title=" ">
<path fill="none" stroke="#63b8ff" d="M1005.6,-489.52C1062.51,-473.87 1155.1,-448.42 1206.52,-434.28"/>
<polygon fill="#63b8ff" stroke="#63b8ff" points="1004.89,-486.08 996.17,-492.11 1006.74,-492.83 1004.89,-486.08"/>
</a>
</g>
</g>
<!-- Node13 -->
<g id="Node000013" class="node">
<title>Node13</title>
<g id="a_Node000013"><a xlink:title=" ">
<polygon fill="white" stroke="#666666" points="985.3,-259 925.8,-259 925.8,-239 985.3,-239 985.3,-259"/>
<text text-anchor="middle" x="955.55" y="-245.5" font-family="Helvetica,sans-Serif" font-size="10.00">std::string</text>
</a>
</g>
</g>
<!-- Node13&#45;&gt;Node11 -->
<g id="edge20_Node000011_Node000013" class="edge">
<title>Node13&#45;&gt;Node11</title>
<g id="a_edge20_Node000011_Node000013"><a xlink:title=" ">
<path fill="none" stroke="#9a32cd" stroke-dasharray="5,2" d="M997.01,-251.42C1040.72,-256.28 1109.29,-270.78 1148.05,-314 1168.92,-337.27 1146.7,-357.45 1166.05,-382 1177.65,-396.72 1195.88,-406.95 1211.79,-413.62"/>
<polygon fill="#9a32cd" stroke="#9a32cd" points="997.45,-247.95 987.16,-250.46 996.77,-254.92 997.45,-247.95"/>
</a>
</g>
<text text-anchor="middle" x="1103.8" y="-316.5" font-family="Helvetica,sans-Serif" font-size="10.00" fill="grey"> m_sFilename</text>
</g>
<!-- Node23 -->
<g id="Node000023" class="node">
<title>Node23</title>
<g id="a_Node000023"><a xlink:title=" ">
<polygon fill="white" stroke="#666666" points="1323.8,-142 1166.05,-142 1166.05,-110 1323.8,-110 1323.8,-142"/>
<text text-anchor="start" x="1174.05" y="-128.5" font-family="Helvetica,sans-Serif" font-size="10.00">std::unordered_map&lt; std::string,</text>
<text text-anchor="middle" x="1244.93" y="-116.5" font-family="Helvetica,sans-Serif" font-size="10.00"> std::pair&lt; ullint, short &gt; &gt;</text>
</a>
</g>
</g>
<!-- Node13&#45;&gt;Node23 -->
<g id="edge36_Node000023_Node000013" class="edge">
<title>Node13&#45;&gt;Node23</title>
<g id="a_edge36_Node000023_Node000013"><a xlink:title=" ">
<path fill="none" stroke="#9a32cd" stroke-dasharray="5,2" d="M996.84,-247.17C1012.12,-244.74 1028.87,-239.8 1041.55,-230 1055.39,-219.31 1046.48,-206.63 1059.55,-195 1089.3,-168.54 1130.16,-151.87 1165.85,-141.56"/>
<polygon fill="#9a32cd" stroke="#9a32cd" points="996.53,-243.68 987.04,-248.39 997.4,-250.63 996.53,-243.68"/>
</a>
</g>
<text text-anchor="middle" x="1103.8" y="-197.5" font-family="Helvetica,sans-Serif" font-size="10.00" fill="grey"> keys</text>
</g>
<!-- Node14 -->
<g id="Node000014" class="node">
<title>Node14</title>
<g id="a_Node000014"><a xlink:title=" ">
<polygon fill="white" stroke="#666666" points="751.18,-319 624.93,-319 624.93,-299 751.18,-299 751.18,-319"/>
<text text-anchor="middle" x="688.05" y="-305.5" font-family="Helvetica,sans-Serif" font-size="10.00">std::basic_string&lt; Char &gt;</text>
</a>
</g>
</g>
<!-- Node14&#45;&gt;Node13 -->
<g id="edge21_Node000013_Node000014" class="edge">
<title>Node14&#45;&gt;Node13</title>
<g id="a_edge21_Node000013_Node000014"><a xlink:title=" ">
<path fill="none" stroke="#63b8ff" d="M762.54,-303.92C790.97,-300.36 823.39,-294.3 851.55,-284 860.36,-280.78 860.96,-276.75 869.55,-273 887.54,-265.14 908.79,-259.14 925.54,-255.11"/>
<polygon fill="#63b8ff" stroke="#63b8ff" points="762.48,-300.4 752.95,-305.03 763.29,-307.35 762.48,-300.4"/>
</a>
</g>
</g>
<!-- Node15 -->
<g id="Node000015" class="node">
<title>Node15</title>
<g id="a_Node000015"><a xlink:title=" ">
<polygon fill="white" stroke="#666666" points="977.05,-551 934.05,-551 934.05,-531 977.05,-531 977.05,-551"/>
<text text-anchor="middle" x="955.55" y="-537.5" font-family="Helvetica,sans-Serif" font-size="10.00">FILE *</text>
</a>
</g>
</g>
<!-- Node15&#45;&gt;Node11 -->
<g id="edge24_Node000011_Node000015" class="edge">
<title>Node15&#45;&gt;Node11</title>
<g id="a_edge24_Node000011_Node000015"><a xlink:title=" ">
<path fill="none" stroke="#9a32cd" stroke-dasharray="5,2" d="M988.46,-535.34C1004.57,-532.12 1024.31,-527.6 1041.55,-522 1113.58,-498.62 1192.66,-454.4 1226.74,-434.35"/>
<polygon fill="#9a32cd" stroke="#9a32cd" points="988.1,-531.85 978.94,-537.18 989.42,-538.72 988.1,-531.85"/>
</a>
</g>
<text text-anchor="middle" x="1103.8" y="-515.5" font-family="Helvetica,sans-Serif" font-size="10.00" fill="grey"> m_fpFilestr</text>
</g>
<!-- Node16 -->
<g id="Node000016" class="node">
<title>Node16</title>
<g id="a_Node000016"><a xlink:title=" ">
<polygon fill="white" stroke="#666666" points="1318.18,-335 1171.68,-335 1171.68,-315 1318.18,-315 1318.18,-335"/>
<text text-anchor="middle" x="1244.93" y="-321.5" font-family="Helvetica,sans-Serif" font-size="10.00">std::vector&lt; AELogEntryInfo &gt;</text>
</a>
</g>
</g>
<!-- Node16&#45;&gt;Node1 -->
<g id="edge25_Node000001_Node000016" class="edge">
<title>Node16&#45;&gt;Node1</title>
<g id="a_edge25_Node000001_Node000016"><a xlink:title=" ">
<path fill="none" stroke="#9a32cd" stroke-dasharray="5,2" d="M1329.23,-330.37C1367.17,-333.7 1412.51,-338.94 1452.8,-347 1460.07,-348.45 1467.77,-350.45 1475.01,-352.55"/>
<polygon fill="#9a32cd" stroke="#9a32cd" points="1329.99,-326.92 1319.73,-329.56 1329.4,-333.89 1329.99,-326.92"/>
</a>
</g>
<text text-anchor="middle" x="1397.3" y="-349.5" font-family="Helvetica,sans-Serif" font-size="10.00" fill="grey"> m_vecEntryIndices</text>
</g>
<!-- Node17 -->
<g id="Node000017" class="node">
<title>Node17</title>
<g id="a_Node000017"><a xlink:href="../../db/d7b/struct_a_e_log_entry_info.html" target="_top" xlink:title="The struct that holds the information about the log entry, used by AELogParser.">
<polygon fill="white" stroke="#666666" points="997.3,-221 913.8,-221 913.8,-201 997.3,-201 997.3,-221"/>
<text text-anchor="middle" x="955.55" y="-207.5" font-family="Helvetica,sans-Serif" font-size="10.00">AELogEntryInfo</text>
</a>
</g>
</g>
<!-- Node17&#45;&gt;Node16 -->
<g id="edge26_Node000016_Node000017" class="edge">
<title>Node17&#45;&gt;Node16</title>
<g id="a_edge26_Node000016_Node000017"><a xlink:title=" ">
<path fill="none" stroke="#9a32cd" stroke-dasharray="5,2" d="M1008.82,-207.77C1048.78,-207.38 1104.25,-211.4 1148.05,-232 1188.76,-251.15 1222.83,-294.68 1236.94,-314.65"/>
<polygon fill="#9a32cd" stroke="#9a32cd" points="1008.91,-204.27 998.98,-207.98 1009.05,-211.27 1008.91,-204.27"/>
</a>
</g>
<text text-anchor="middle" x="1103.8" y="-234.5" font-family="Helvetica,sans-Serif" font-size="10.00" fill="grey"> elements</text>
</g>
<!-- Node18 -->
<g id="Node000018" class="node">
<title>Node18</title>
<g id="a_Node000018"><a xlink:title=" ">
<polygon fill="white" stroke="#666666" points="715.55,-281 660.55,-281 660.55,-261 715.55,-261 715.55,-281"/>
<text text-anchor="middle" x="688.05" y="-267.5" font-family="Helvetica,sans-Serif" font-size="10.00">long long</text>
</a>
</g>
</g>
<!-- Node18&#45;&gt;Node17 -->
<g id="edge27_Node000017_Node000018" class="edge">
<title>Node18&#45;&gt;Node17</title>
<g id="a_edge27_Node000017_Node000018"><a xlink:title=" ">
<path fill="none" stroke="#9a32cd" stroke-dasharray="5,2" d="M727.07,-268.64C760.79,-265.52 810.88,-258.35 851.55,-242 860.47,-238.41 860.71,-233.78 869.55,-230 883.32,-224.12 899.15,-219.94 913.39,-217.03"/>
<polygon fill="#9a32cd" stroke="#9a32cd" points="727.04,-265.13 717.37,-269.45 727.63,-272.1 727.04,-265.13"/>
</a>
</g>
<text text-anchor="middle" x="811.05" y="-264.5" font-family="Helvetica,sans-Serif" font-size="10.00" fill="grey"> cursorIndex</text>
</g>
<!-- Node22 -->
<g id="Node000022" class="node">
<title>Node22</title>
<g id="a_Node000022"><a xlink:title=" ">
<polygon fill="white" stroke="#666666" points="1291.93,-373 1197.93,-373 1197.93,-353 1291.93,-353 1291.93,-373"/>
<text text-anchor="middle" x="1244.93" y="-359.5" font-family="Helvetica,sans-Serif" font-size="10.00">std::vector&lt; llint &gt;</text>
</a>
</g>
</g>
<!-- Node18&#45;&gt;Node22 -->
<g id="edge33_Node000022_Node000018" class="edge">
<title>Node18&#45;&gt;Node22</title>
<g id="a_edge33_Node000022_Node000018"><a xlink:title=" ">
<path fill="none" stroke="#9a32cd" stroke-dasharray="5,2" d="M726.89,-274.85C833.39,-285.79 1129.13,-316.81 1148.05,-326 1158.23,-330.94 1156.19,-338.45 1166.05,-344 1175.63,-349.39 1186.72,-353.26 1197.46,-356.04"/>
<polygon fill="#9a32cd" stroke="#9a32cd" points="727.55,-271.4 717.25,-273.86 726.84,-278.37 727.55,-271.4"/>
</a>
</g>
<text text-anchor="middle" x="955.55" y="-311.5" font-family="Helvetica,sans-Serif" font-size="10.00" fill="grey"> elements</text>
</g>
<!-- Node19 -->
<g id="Node000019" class="node">
<title>Node19</title>
<g id="a_Node000019"><a xlink:title=" ">
<polygon fill="white" stroke="#666666" points="706.93,-205 669.18,-205 669.18,-185 706.93,-185 706.93,-205"/>
<text text-anchor="middle" x="688.05" y="-191.5" font-family="Helvetica,sans-Serif" font-size="10.00">short</text>
</a>
</g>
</g>
<!-- Node19&#45;&gt;Node17 -->
<g id="edge28_Node000017_Node000019" class="edge">
<title>Node19&#45;&gt;Node17</title>
<g id="a_edge28_Node000017_Node000019"><a xlink:title=" ">
<path fill="none" stroke="#9a32cd" stroke-dasharray="5,2" d="M718.49,-194.92C751.07,-195.01 805.12,-195.73 851.55,-199 872.02,-200.44 894.69,-202.98 913.53,-205.35"/>
<polygon fill="#9a32cd" stroke="#9a32cd" points="718.63,-191.42 708.62,-194.91 718.62,-198.42 718.63,-191.42"/>
</a>
</g>
<text text-anchor="middle" x="811.05" y="-201.5" font-family="Helvetica,sans-Serif" font-size="10.00" fill="grey"> mnameIndex</text>
</g>
<!-- Node24 -->
<g id="Node000024" class="node">
<title>Node24</title>
<g id="a_Node000024"><a xlink:title=" ">
<polygon fill="white" stroke="#666666" points="1014.18,-79 896.93,-79 896.93,-59 1014.18,-59 1014.18,-79"/>
<text text-anchor="middle" x="955.55" y="-65.5" font-family="Helvetica,sans-Serif" font-size="10.00">std::pair&lt; ullint, short &gt;</text>
</a>
</g>
</g>
<!-- Node19&#45;&gt;Node24 -->
<g id="edge39_Node000024_Node000019" class="edge">
<title>Node19&#45;&gt;Node24</title>
<g id="a_edge39_Node000024_Node000019"><a xlink:title=" ">
<path fill="none" stroke="#9a32cd" stroke-dasharray="5,2" d="M705.62,-176.32C728.24,-150.91 766.47,-108.3 770.55,-106 791.76,-94.03 850.95,-83.42 896.52,-76.67"/>
<polygon fill="#9a32cd" stroke="#9a32cd" points="703.12,-173.87 699.09,-183.67 708.35,-178.52 703.12,-173.87"/>
</a>
</g>
<text text-anchor="middle" x="811.05" y="-108.5" font-family="Helvetica,sans-Serif" font-size="10.00" fill="grey"> second_type</text>
</g>
<!-- Node20 -->
<g id="Node000020" class="node">
<title>Node20</title>
<g id="a_Node000020"><a xlink:title=" ">
<polygon fill="white" stroke="#666666" points="708.05,-243 668.05,-243 668.05,-223 708.05,-223 708.05,-243"/>
<text text-anchor="middle" x="688.05" y="-229.5" font-family="Helvetica,sans-Serif" font-size="10.00">int8_t</text>
</a>
</g>
</g>
<!-- Node20&#45;&gt;Node17 -->
<g id="edge29_Node000017_Node000020" class="edge">
<title>Node20&#45;&gt;Node17</title>
<g id="a_edge29_Node000017_Node000020"><a xlink:title=" ">
<path fill="none" stroke="#9a32cd" stroke-dasharray="5,2" d="M719.56,-230.47C767.38,-226.51 860.04,-218.83 913.61,-214.39"/>
<polygon fill="#9a32cd" stroke="#9a32cd" points="719.33,-226.98 709.65,-231.29 719.91,-233.95 719.33,-226.98"/>
</a>
</g>
<text text-anchor="middle" x="811.05" y="-228.5" font-family="Helvetica,sans-Serif" font-size="10.00" fill="grey"> logType</text>
</g>
<!-- Node21&#45;&gt;Node16 -->
<g id="edge30_Node000016_Node000021" class="edge">
<title>Node21&#45;&gt;Node16</title>
<g id="a_edge30_Node000016_Node000021"><a xlink:title=" ">
<path fill="none" stroke="orange" stroke-dasharray="5,2" d="M1009.49,-341.54C1025.56,-339.96 1043.27,-338.32 1059.55,-337 1096.32,-334.02 1137.26,-331.3 1171.2,-329.2"/>
<polygon fill="orange" stroke="orange" points="1009.23,-338.04 999.63,-342.51 1009.92,-345.01 1009.23,-338.04"/>
</a>
</g>
<text text-anchor="middle" x="1103.8" y="-339.5" font-family="Helvetica,sans-Serif" font-size="10.00" fill="grey"> &lt; AELogEntryInfo &gt;</text>
</g>
<!-- Node21&#45;&gt;Node22 -->
<g id="edge34_Node000022_Node000021" class="edge">
<title>Node21&#45;&gt;Node22</title>
<g id="a_edge34_Node000022_Node000021"><a xlink:title=" ">
<path fill="none" stroke="orange" stroke-dasharray="5,2" d="M1009.42,-349.94C1063.37,-352.95 1146.28,-357.56 1197.7,-360.43"/>
<polygon fill="orange" stroke="orange" points="1009.72,-346.45 999.54,-349.39 1009.33,-353.44 1009.72,-346.45"/>
</a>
</g>
<text text-anchor="middle" x="1103.8" y="-359.5" font-family="Helvetica,sans-Serif" font-size="10.00" fill="grey"> &lt; llint &gt;</text>
</g>
<!-- Node22&#45;&gt;Node1 -->
<g id="edge32_Node000001_Node000022" class="edge">
<title>Node22&#45;&gt;Node1</title>
<g id="a_edge32_Node000001_Node000022"><a xlink:title=" ">
<path fill="none" stroke="#9a32cd" stroke-dasharray="5,2" d="M1303.73,-363C1354.66,-363 1427.29,-363 1470.44,-363"/>
<polygon fill="#9a32cd" stroke="#9a32cd" points="1303.75,-359.5 1293.75,-363 1303.75,-366.5 1303.75,-359.5"/>
</a>
</g>
<text text-anchor="middle" x="1397.3" y="-365.5" font-family="Helvetica,sans-Serif" font-size="10.00" fill="grey"> m_vecInvalidEntryIndices</text>
</g>
<!-- Node23&#45;&gt;Node1 -->
<g id="edge35_Node000001_Node000023" class="edge">
<title>Node23&#45;&gt;Node1</title>
<g id="a_edge35_Node000001_Node000023"><a xlink:title=" ">
<path fill="none" stroke="#9a32cd" stroke-dasharray="5,2" d="M1335.68,-118.41C1375.99,-119.83 1421.44,-128.83 1452.8,-157 1482.78,-183.93 1500.77,-314.38 1505.45,-352.51"/>
<polygon fill="#9a32cd" stroke="#9a32cd" points="1335.76,-114.91 1325.7,-118.23 1335.63,-121.91 1335.76,-114.91"/>
</a>
</g>
<text text-anchor="middle" x="1397.3" y="-159.5" font-family="Helvetica,sans-Serif" font-size="10.00" fill="grey"> m_mapModuleNames</text>
</g>
<!-- Node24&#45;&gt;Node23 -->
<g id="edge37_Node000023_Node000024" class="edge">
<title>Node24&#45;&gt;Node23</title>
<g id="a_edge37_Node000023_Node000024"><a xlink:title=" ">
<path fill="none" stroke="#9a32cd" stroke-dasharray="5,2" d="M1020.41,-81.67C1063.34,-90.18 1120.18,-101.46 1165.8,-110.51"/>
<polygon fill="#9a32cd" stroke="#9a32cd" points="1021.23,-78.26 1010.74,-79.75 1019.87,-85.13 1021.23,-78.26"/>
</a>
</g>
<text text-anchor="middle" x="1103.8" y="-108.5" font-family="Helvetica,sans-Serif" font-size="10.00" fill="grey"> elements</text>
</g>
<!-- Node25 -->
<g id="Node000025" class="node">
<title>Node25</title>
<g id="a_Node000025"><a xlink:title=" ">
<polygon fill="white" stroke="#666666" points="736.55,-115 639.55,-115 639.55,-95 736.55,-95 736.55,-115"/>
<text text-anchor="middle" x="688.05" y="-101.5" font-family="Helvetica,sans-Serif" font-size="10.00">unsigned long long</text>
</a>
</g>
</g>
<!-- Node25&#45;&gt;Node24 -->
<g id="edge38_Node000024_Node000025" class="edge">
<title>Node25&#45;&gt;Node24</title>
<g id="a_edge38_Node000024_Node000025"><a xlink:title=" ">
<path fill="none" stroke="#9a32cd" stroke-dasharray="5,2" d="M716.62,-89.37C731.98,-81.57 751.74,-72.97 770.55,-69 812.12,-60.23 860.16,-60.57 896.73,-62.92"/>
<polygon fill="#9a32cd" stroke="#9a32cd" points="715.31,-86.11 708.11,-93.87 718.58,-92.3 715.31,-86.11"/>
</a>
</g>
<text text-anchor="middle" x="811.05" y="-71.5" font-family="Helvetica,sans-Serif" font-size="10.00" fill="grey"> first_type</text>
</g>
<!-- Node31 -->
<g id="Node000031" class="node">
<title>Node31</title>
<g id="a_Node000031"><a xlink:title=" ">
<polygon fill="white" stroke="#666666" points="1008.93,-175 902.18,-175 902.18,-155 1008.93,-155 1008.93,-175"/>
<text text-anchor="middle" x="955.55" y="-161.5" font-family="Helvetica,sans-Serif" font-size="10.00">std::array&lt; ullint, 9 &gt;</text>
</a>
</g>
</g>
<!-- Node25&#45;&gt;Node31 -->
<g id="edge47_Node000031_Node000025" class="edge">
<title>Node25&#45;&gt;Node31</title>
<g id="a_edge47_Node000031_Node000025"><a xlink:title=" ">
<path fill="none" stroke="#9a32cd" stroke-dasharray="5,2" d="M747.83,-116.69C778.76,-123 817.28,-131.09 851.55,-139 872.58,-143.85 895.9,-149.7 915.02,-154.62"/>
<polygon fill="#9a32cd" stroke="#9a32cd" points="748.78,-113.32 738.29,-114.76 747.39,-120.18 748.78,-113.32"/>
</a>
</g>
<text text-anchor="middle" x="811.05" y="-141.5" font-family="Helvetica,sans-Serif" font-size="10.00" fill="grey"> elements</text>
</g>
<!-- Node26 -->
<g id="Node000026" class="node">
<title>Node26</title>
<g id="a_Node000026"><a xlink:title=" ">
<polygon fill="white" stroke="#666666" points="736.18,-62 639.93,-62 639.93,-42 736.18,-42 736.18,-62"/>
<text text-anchor="middle" x="688.05" y="-48.5" font-family="Helvetica,sans-Serif" font-size="10.00">std::pair&lt; T1, T2 &gt;</text>
</a>
</g>
</g>
<!-- Node26&#45;&gt;Node24 -->
<g id="edge40_Node000024_Node000026" class="edge">
<title>Node26&#45;&gt;Node24</title>
<g id="a_edge40_Node000024_Node000026"><a xlink:title=" ">
<path fill="none" stroke="orange" stroke-dasharray="5,2" d="M739.1,-39.16C749.43,-37.01 760.29,-35.12 770.55,-34 806.34,-30.1 816.03,-28.13 851.55,-34 879.69,-38.65 910.47,-49.99 930.98,-58.51"/>
<polygon fill="orange" stroke="orange" points="738.64,-35.67 729.62,-41.23 740.14,-42.51 738.64,-35.67"/>
</a>
</g>
<text text-anchor="middle" x="811.05" y="-36.5" font-family="Helvetica,sans-Serif" font-size="10.00" fill="grey"> &lt; ullint, short &gt;</text>
</g>
<!-- Node27 -->
<g id="Node000027" class="node">
<title>Node27</title>
<g id="a_Node000027"><a xlink:title=" ">
<polygon fill="white" stroke="#666666" points="440.95,-93 412.15,-93 412.15,-73 440.95,-73 440.95,-93"/>
<text text-anchor="middle" x="426.55" y="-79.5" font-family="Helvetica,sans-Serif" font-size="10.00">T1</text>
</a>
</g>
</g>
<!-- Node27&#45;&gt;Node26 -->
<g id="edge41_Node000026_Node000027" class="edge">
<title>Node27&#45;&gt;Node26</title>
<g id="a_edge41_Node000026_Node000027"><a xlink:title=" ">
<path fill="none" stroke="#9a32cd" stroke-dasharray="5,2" d="M452.45,-80.03C495.45,-74.89 584.31,-64.27 639.47,-57.68"/>
<polygon fill="#9a32cd" stroke="#9a32cd" points="452.15,-76.54 442.64,-81.2 452.98,-83.49 452.15,-76.54"/>
</a>
</g>
<text text-anchor="middle" x="557.18" y="-75.5" font-family="Helvetica,sans-Serif" font-size="10.00" fill="grey"> first_type</text>
</g>
<!-- Node28 -->
<g id="Node000028" class="node">
<title>Node28</title>
<g id="a_Node000028"><a xlink:title=" ">
<polygon fill="white" stroke="#666666" points="440.95,-55 412.15,-55 412.15,-35 440.95,-35 440.95,-55"/>
<text text-anchor="middle" x="426.55" y="-41.5" font-family="Helvetica,sans-Serif" font-size="10.00">T2</text>
</a>
</g>
</g>
<!-- Node28&#45;&gt;Node26 -->
<g id="edge42_Node000026_Node000028" class="edge">
<title>Node28&#45;&gt;Node26</title>
<g id="a_edge42_Node000026_Node000028"><a xlink:title=" ">
<path fill="none" stroke="#9a32cd" stroke-dasharray="5,2" d="M452.7,-45.45C487.18,-46.1 551.07,-47.39 605.55,-49 616.59,-49.33 628.47,-49.73 639.65,-50.14"/>
<polygon fill="#9a32cd" stroke="#9a32cd" points="452.98,-41.96 442.91,-45.27 452.85,-48.96 452.98,-41.96"/>
</a>
</g>
<text text-anchor="middle" x="557.18" y="-51.5" font-family="Helvetica,sans-Serif" font-size="10.00" fill="grey"> second_type</text>
</g>
<!-- Node29&#45;&gt;Node23 -->
<g id="edge43_Node000023_Node000029" class="edge">
<title>Node29&#45;&gt;Node23</title>
<g id="a_edge43_Node000023_Node000029"><a xlink:title=" ">
<path fill="none" stroke="orange" stroke-dasharray="5,2" d="M202.93,-76.58C246.49,-49.87 339.38,0 425.55,0 425.55,0 425.55,0 956.55,0 1064.41,0 1177.33,-75.37 1222.97,-109.53"/>
<polygon fill="orange" stroke="orange" points="201.34,-73.44 194.72,-81.71 205.05,-79.38 201.34,-73.44"/>
</a>
</g>
<text text-anchor="start" x="623.55" y="-14.5" font-family="Helvetica,sans-Serif" font-size="10.00" fill="grey"> &lt; std::string, std::pair&lt; ullint,</text>
<text text-anchor="middle" x="688.05" y="-2.5" font-family="Helvetica,sans-Serif" font-size="10.00" fill="grey"> short &gt; &gt;</text>
</g>
<!-- Node30 -->
<g id="Node000030" class="node">
<title>Node30</title>
<g id="a_Node000030"><a xlink:title=" ">
<polygon fill="white" stroke="#666666" points="28.8,-103 0,-103 0,-83 28.8,-83 28.8,-103"/>
<text text-anchor="middle" x="14.4" y="-89.5" font-family="Helvetica,sans-Serif" font-size="10.00">K</text>
</a>
</g>
</g>
<!-- Node30&#45;&gt;Node29 -->
<g id="edge44_Node000029_Node000030" class="edge">
<title>Node30&#45;&gt;Node29</title>
<g id="a_edge44_Node000029_Node000030"><a xlink:title=" ">
<path fill="none" stroke="#9a32cd" stroke-dasharray="5,2" d="M40.48,-93C58.4,-93 83.43,-93 107.09,-93"/>
<polygon fill="#9a32cd" stroke="#9a32cd" points="40.58,-89.5 30.58,-93 40.58,-96.5 40.58,-89.5"/>
</a>
</g>
<text text-anchor="middle" x="68.18" y="-95.5" font-family="Helvetica,sans-Serif" font-size="10.00" fill="grey"> keys</text>
</g>
<!-- Node31&#45;&gt;Node1 -->
<g id="edge46_Node000001_Node000031" class="edge">
<title>Node31&#45;&gt;Node1</title>
<g id="a_edge46_Node000001_Node000031"><a xlink:title=" ">
<path fill="none" stroke="#9a32cd" stroke-dasharray="5,2" d="M1020.44,-176.37C1057.98,-183.7 1106.15,-194.24 1148.05,-207 1287.31,-249.39 1323.82,-259.51 1452.8,-327 1467.15,-334.51 1482.41,-344.96 1493,-352.67"/>
<polygon fill="#9a32cd" stroke="#9a32cd" points="1021.11,-172.93 1010.63,-174.48 1019.79,-179.81 1021.11,-172.93"/>
</a>
</g>
<text text-anchor="middle" x="1244.93" y="-266.5" font-family="Helvetica,sans-Serif" font-size="10.00" fill="grey"> m_arrEntryAmount</text>
</g>
<!-- Node32&#45;&gt;Node31 -->
<g id="edge48_Node000031_Node000032" class="edge">
<title>Node32&#45;&gt;Node31</title>
<g id="a_edge48_Node000031_Node000032"><a xlink:title=" ">
<path fill="none" stroke="orange" stroke-dasharray="5,2" d="M356.16,-179.74C477,-176.76 779.34,-169.32 901.8,-166.3"/>
<polygon fill="orange" stroke="orange" points="356.13,-176.24 346.21,-179.99 356.3,-183.24 356.13,-176.24"/>
</a>
</g>
<text text-anchor="middle" x="557.18" y="-178.5" font-family="Helvetica,sans-Serif" font-size="10.00" fill="grey"> &lt; ullint, 9 &gt;</text>
</g>
</g>
</svg>

<g id="navigator" transform="translate(0 0)" fill="#404254">
  <rect fill="#f2f5e9" fill-opacity="0.5" stroke="#606060" stroke-width=".5" x="0" y="0" width="60" height="60"/>
  <use id="zoomplus" xlink:href="#zoomPlus" x="17" y="9" onmousedown="handleZoom(evt,'in')"/>
  <use id="zoomminus" xlink:href="#zoomMin" x="42" y="9" onmousedown="handleZoom(evt,'out')"/>
  <use id="reset" xlink:href="#resetDef" x="30" y="36" onmousedown="handleReset()"/>
   <use id="arrowup" xlink:href="#arrowUp" x="0" y="0" onmousedown="handlePan(0,-1)"/>
  <use id="arrowright" xlink:href="#arrowRight" x="0" y="0" onmousedown="handlePan(1,0)"/>
  <use id="arrowdown" xlink:href="#arrowDown" x="0" y="0" onmousedown="handlePan(0,1)"/>
  <use id="arrowleft" xlink:href="#arrowLeft" x="0" y="0" onmousedown="handlePan(-1,0)"/>
</g>
<svg viewBox="0 0 15 15" width="100%" height="30px" preserveAspectRatio="xMaxYMin meet">
 <g id="arrow_out" transform="scale(0.3 0.3)">
  <a xlink:href="class_a_e_log_parser__coll__graph_org.svg" target="_base">
   <rect id="button" ry="5" rx="5" y="6" x="6" height="38" width="38"
        fill="#f2f5e9" fill-opacity="0.5" stroke="#606060" stroke-width="1.0"/>
   <path id="arrow"
     d="M 11.500037,31.436501 C 11.940474,20.09759 22.043105,11.32322 32.158766,21.979434 L 37.068811,17.246167 C 37.068811,17.246167 37.088388,32 37.088388,32 L 22.160133,31.978069 C 22.160133,31.978069 26.997745,27.140456 26.997745,27.140456 C 18.528582,18.264221 13.291696,25.230495 11.500037,31.436501 z"
     style="fill:#404040;"/>
  </a>
 </g>
</svg>

<style type='text/css'>
<![CDATA[
[data-mouse-over-selected='false'] { opacity: 0.7; }
[data-mouse-over-selected='true']  { opacity: 1.0; }
]]>
</style>
<script type="application/ecmascript"><![CDATA[
document.addEventListener('DOMContentLoaded', (event) => {
  highlightEdges();
  highlightAdjacentNodes();
});
]]></script>
</svg>
