<?xml version="1.0" encoding="UTF-8" standalone="no"?>
<!DOCTYPE svg PUBLIC "-//W3C//DTD SVG 1.1//EN"
 "http://www.w3.org/Graphics/SVG/1.1/DTD/svg11.dtd">
<!-- Generated by graphviz version 10.0.1 (20240210.2158)
 -->
<!-- Title: AELogParser Pages: 1 -->
<svg width="1539pt" height="661pt"
 viewBox="0.00 0.00 1539.05 661.00" xmlns="http://www.w3.org/2000/svg" xmlns:xlink="http://www.w3.org/1999/xlink">
<g id="graph0" class="graph" transform="scale(1 1) rotate(0) translate(4 657)">
<title>AELogParser</title>
<!-- Node1 -->
<g id="Node000001" class="node">
<title>Node1</title>
<g id="a_Node000001"><a xlink:title="ArtyK&#39;s Engine&#39;s Log Parser; it parses the log files that AELogger writes.">
<polygon fill="#999999" stroke="#666666" points="1531.05,-359 1457.3,-359 1457.3,-339 1531.05,-339 1531.05,-359"/>
<text text-anchor="middle" x="1494.18" y="-345.5" font-family="Helvetica,sans-Serif" font-size="10.00">AELogParser</text>
</a>
</g>
</g>
<!-- Node2 -->
<g id="Node000002" class="node">
<title>Node2</title>
<g id="a_Node000002"><a xlink:href="../../d0/d8a/class_____a_e_module_base.html" target="_top" xlink:title=" ">
<polygon fill="white" stroke="#666666" points="1026.93,-592 857.18,-592 857.18,-572 1026.93,-572 1026.93,-592"/>
<text text-anchor="middle" x="942.05" y="-578.5" font-family="Helvetica,sans-Serif" font-size="10.00">__AEModuleBase&lt; AELogParser &gt;</text>
</a>
</g>
</g>
<!-- Node2&#45;&gt;Node1 -->
<g id="edge1_Node000001_Node000002" class="edge">
<title>Node2&#45;&gt;Node1</title>
<g id="a_edge1_Node000001_Node000002"><a xlink:title=" ">
<path fill="none" stroke="#63b8ff" d="M1038.41,-589.72C1147.63,-593.28 1326.04,-582.27 1439.3,-488 1480.08,-454.06 1490.1,-385.34 1492.47,-359.31"/>
<polygon fill="#63b8ff" stroke="#63b8ff" points="1038.72,-586.23 1028.59,-589.34 1038.45,-593.22 1038.72,-586.23"/>
</a>
</g>
</g>
<!-- Node3 -->
<g id="Node000003" class="node">
<title>Node3</title>
<g id="a_Node000003"><a xlink:title=" ">
<polygon fill="white" stroke="#666666" points="490.8,-524 362.3,-524 362.3,-504 490.8,-504 490.8,-524"/>
<text text-anchor="middle" x="426.55" y="-510.5" font-family="Helvetica,sans-Serif" font-size="10.00">std::atomic&lt; std::size_t &gt;</text>
</a>
</g>
</g>
<!-- Node3&#45;&gt;Node1 -->
<g id="edge44_Node000001_Node000003" class="edge">
<title>Node3&#45;&gt;Node1</title>
<g id="a_edge44_Node000001_Node000003"><a xlink:title=" ">
<path fill="none" stroke="#9a32cd" stroke-dasharray="5,2" d="M502.28,-503.16C720.53,-471.45 1347.41,-379.95 1439.3,-362 1445.06,-360.87 1451.13,-359.55 1457.05,-358.18"/>
<polygon fill="#9a32cd" stroke="#9a32cd" points="501.85,-499.69 492.46,-504.59 502.86,-506.61 501.85,-499.69"/>
</a>
</g>
<text text-anchor="middle" x="942.05" y="-453.5" font-family="Helvetica,sans-Serif" font-size="10.00" fill="grey"> m_ullCurrentEntry</text>
</g>
<!-- Node3&#45;&gt;Node2 -->
<g id="edge2_Node000002_Node000003" class="edge">
<title>Node3&#45;&gt;Node2</title>
<g id="a_edge2_Node000002_Node000003"><a xlink:title=" ">
<path fill="none" stroke="#9a32cd" stroke-dasharray="5,2" d="M452.76,-530.14C468.34,-539.38 489.05,-550.42 508.8,-557 624.86,-595.69 768.05,-595.29 856.97,-589.86"/>
<polygon fill="#9a32cd" stroke="#9a32cd" points="454.99,-527.39 444.63,-525.17 451.34,-533.37 454.99,-527.39"/>
</a>
</g>
<text text-anchor="middle" x="674.55" y="-593.5" font-family="Helvetica,sans-Serif" font-size="10.00" fill="grey"> m_ullModulesAlive</text>
</g>
<!-- Node7 -->
<g id="Node000007" class="node">
<title>Node7</title>
<g id="a_Node000007"><a xlink:href="../../d0/d8a/class_____a_e_module_base.html" target="_top" xlink:title="This is a base class for all the modules in the engine; all basic modules inherit from it.">
<polygon fill="white" stroke="#666666" points="733.18,-564 615.93,-564 615.93,-544 733.18,-544 733.18,-564"/>
<text text-anchor="middle" x="674.55" y="-550.5" font-family="Helvetica,sans-Serif" font-size="10.00">__AEModuleBase&lt; T &gt;</text>
</a>
</g>
</g>
<!-- Node3&#45;&gt;Node7 -->
<g id="edge7_Node000007_Node000003" class="edge">
<title>Node3&#45;&gt;Node7</title>
<g id="a_edge7_Node000007_Node000003"><a xlink:title=" ">
<path fill="none" stroke="#9a32cd" stroke-dasharray="5,2" d="M499.1,-526.39C502.38,-526.94 505.62,-527.48 508.8,-528 544.23,-533.85 583.99,-540.13 615.57,-545.05"/>
<polygon fill="#9a32cd" stroke="#9a32cd" points="499.81,-522.96 489.37,-524.74 498.65,-529.86 499.81,-522.96"/>
</a>
</g>
<text text-anchor="middle" x="550.43" y="-543.5" font-family="Helvetica,sans-Serif" font-size="10.00" fill="grey"> m_ullModulesAlive</text>
</g>
<!-- Node9 -->
<g id="Node000009" class="node">
<title>Node9</title>
<g id="a_Node000009"><a xlink:href="../../d0/d8a/class_____a_e_module_base.html" target="_top" xlink:title=" ">
<polygon fill="white" stroke="#666666" points="1028.05,-554 856.05,-554 856.05,-534 1028.05,-534 1028.05,-554"/>
<text text-anchor="middle" x="942.05" y="-540.5" font-family="Helvetica,sans-Serif" font-size="10.00">__AEModuleBase&lt; AEFileReader &gt;</text>
</a>
</g>
</g>
<!-- Node3&#45;&gt;Node9 -->
<g id="edge10_Node000009_Node000003" class="edge">
<title>Node3&#45;&gt;Node9</title>
<g id="a_edge10_Node000009_Node000003"><a xlink:title=" ">
<path fill="none" stroke="#9a32cd" stroke-dasharray="5,2" d="M502.59,-514.6C565.73,-515.48 658.37,-517.65 739.05,-523 777.4,-525.54 819.71,-529.73 855.66,-533.7"/>
<polygon fill="#9a32cd" stroke="#9a32cd" points="502.71,-511.1 492.67,-514.47 502.62,-518.1 502.71,-511.1"/>
</a>
</g>
<text text-anchor="middle" x="674.55" y="-525.5" font-family="Helvetica,sans-Serif" font-size="10.00" fill="grey"> m_ullModulesAlive</text>
</g>
<!-- Node4 -->
<g id="Node000004" class="node">
<title>Node4</title>
<g id="a_Node000004"><a xlink:title=" ">
<polygon fill="white" stroke="#666666" points="197.8,-462 155.55,-462 155.55,-442 197.8,-442 197.8,-462"/>
<text text-anchor="middle" x="176.68" y="-448.5" font-family="Helvetica,sans-Serif" font-size="10.00">size_t</text>
</a>
</g>
</g>
<!-- Node4&#45;&gt;Node3 -->
<g id="edge3_Node000003_Node000004" class="edge">
<title>Node4&#45;&gt;Node3</title>
<g id="a_edge3_Node000003_Node000004"><a xlink:title=" ">
<path fill="none" stroke="#9a32cd" stroke-dasharray="5,2" d="M208.9,-459.81C253.19,-470.89 334.34,-491.19 383.77,-503.55"/>
<polygon fill="#9a32cd" stroke="#9a32cd" points="209.98,-456.47 199.43,-457.44 208.28,-463.26 209.98,-456.47"/>
</a>
</g>
<text text-anchor="middle" x="304.05" y="-494.5" font-family="Helvetica,sans-Serif" font-size="10.00" fill="grey"> ptr</text>
</g>
<!-- Node8 -->
<g id="Node000008" class="node">
<title>Node8</title>
<g id="a_Node000008"><a xlink:href="../../dd/dd5/class_a_e_file_reader.html" target="_top" xlink:title="ArtyK&#39;s Engine File Reader; umm, it reads data from the given file.">
<polygon fill="white" stroke="#666666" points="1269.43,-501 1193.43,-501 1193.43,-481 1269.43,-481 1269.43,-501"/>
<text text-anchor="middle" x="1231.43" y="-487.5" font-family="Helvetica,sans-Serif" font-size="10.00">AEFileReader</text>
</a>
</g>
</g>
<!-- Node4&#45;&gt;Node8 -->
<g id="edge17_Node000008_Node000004" class="edge">
<title>Node4&#45;&gt;Node8</title>
<g id="a_edge17_Node000008_Node000004"><a xlink:title=" ">
<path fill="none" stroke="#9a32cd" stroke-dasharray="5,2" d="M209.32,-451.58C278.66,-450.79 449.26,-449.52 592.05,-454 820.63,-461.17 1094.7,-480.76 1193.04,-488.14"/>
<polygon fill="#9a32cd" stroke="#9a32cd" points="209.42,-448.08 199.46,-451.7 209.5,-455.08 209.42,-448.08"/>
</a>
</g>
<text text-anchor="middle" x="674.55" y="-461.5" font-family="Helvetica,sans-Serif" font-size="10.00" fill="grey"> m_szLastReadAmount</text>
</g>
<!-- Node5 -->
<g id="Node000005" class="node">
<title>Node5</title>
<g id="a_Node000005"><a xlink:title=" ">
<polygon fill="white" stroke="#666666" points="220.68,-524 132.68,-524 132.68,-504 220.68,-504 220.68,-524"/>
<text text-anchor="middle" x="176.68" y="-510.5" font-family="Helvetica,sans-Serif" font-size="10.00">std::atomic&lt; T &gt;</text>
</a>
</g>
</g>
<!-- Node5&#45;&gt;Node3 -->
<g id="edge4_Node000003_Node000005" class="edge">
<title>Node5&#45;&gt;Node3</title>
<g id="a_edge4_Node000003_Node000005"><a xlink:title=" ">
<path fill="none" stroke="orange" stroke-dasharray="5,2" d="M232.58,-514C270.86,-514 322.06,-514 362.09,-514"/>
<polygon fill="orange" stroke="orange" points="232.65,-510.5 222.65,-514 232.65,-517.5 232.65,-510.5"/>
</a>
</g>
<text text-anchor="middle" x="304.05" y="-516.5" font-family="Helvetica,sans-Serif" font-size="10.00" fill="grey"> &lt; std::size_t &gt;</text>
</g>
<!-- Node12 -->
<g id="Node000012" class="node">
<title>Node12</title>
<g id="a_Node000012"><a xlink:title=" ">
<polygon fill="white" stroke="#666666" points="478.05,-642 375.05,-642 375.05,-622 478.05,-622 478.05,-642"/>
<text text-anchor="middle" x="426.55" y="-628.5" font-family="Helvetica,sans-Serif" font-size="10.00">std::atomic&lt; ullint &gt;</text>
</a>
</g>
</g>
<!-- Node5&#45;&gt;Node12 -->
<g id="edge16_Node000012_Node000005" class="edge">
<title>Node5&#45;&gt;Node12</title>
<g id="a_edge16_Node000012_Node000005"><a xlink:title=" ">
<path fill="none" stroke="orange" stroke-dasharray="5,2" d="M209.84,-529.31C261.03,-553.68 359.73,-600.67 403.6,-621.55"/>
<polygon fill="orange" stroke="orange" points="211.57,-526.26 201.04,-525.12 208.56,-532.58 211.57,-526.26"/>
</a>
</g>
<text text-anchor="middle" x="304.05" y="-592.5" font-family="Helvetica,sans-Serif" font-size="10.00" fill="grey"> &lt; ullint &gt;</text>
</g>
<!-- Node6 -->
<g id="Node000006" class="node">
<title>Node6</title>
<g id="a_Node000006"><a xlink:title=" ">
<polygon fill="white" stroke="#666666" points="28.8,-324 0,-324 0,-304 28.8,-304 28.8,-324"/>
<text text-anchor="middle" x="14.4" y="-310.5" font-family="Helvetica,sans-Serif" font-size="10.00">T</text>
</a>
</g>
</g>
<!-- Node6&#45;&gt;Node5 -->
<g id="edge5_Node000005_Node000006" class="edge">
<title>Node6&#45;&gt;Node5</title>
<g id="a_edge5_Node000005_Node000006"><a xlink:title=" ">
<path fill="none" stroke="#9a32cd" stroke-dasharray="5,2" d="M23.69,-334.64C37.36,-366.76 67.22,-429.34 107.55,-471 120.78,-484.67 139.18,-495.95 153.52,-503.52"/>
<polygon fill="#9a32cd" stroke="#9a32cd" points="27.03,-333.57 19.97,-325.67 20.57,-336.25 27.03,-333.57"/>
</a>
</g>
<text text-anchor="middle" x="68.18" y="-450.5" font-family="Helvetica,sans-Serif" font-size="10.00" fill="grey"> ptr</text>
</g>
<!-- Node20 -->
<g id="Node000020" class="node">
<title>Node20</title>
<g id="a_Node000020"><a xlink:title=" ">
<polygon fill="white" stroke="#666666" points="984.18,-157 899.93,-157 899.93,-137 984.18,-137 984.18,-157"/>
<text text-anchor="middle" x="942.05" y="-143.5" font-family="Helvetica,sans-Serif" font-size="10.00">std::vector&lt; T &gt;</text>
</a>
</g>
</g>
<!-- Node6&#45;&gt;Node20 -->
<g id="edge25_Node000020_Node000006" class="edge">
<title>Node6&#45;&gt;Node20</title>
<g id="a_edge25_Node000020_Node000006"><a xlink:title=" ">
<path fill="none" stroke="#9a32cd" stroke-dasharray="5,2" d="M22.46,-293.04C40.06,-245.19 90.67,-132 175.68,-132 175.68,-132 175.68,-132 675.55,-132 754.96,-132 847.51,-138.77 899.7,-143.21"/>
<polygon fill="#9a32cd" stroke="#9a32cd" points="19.23,-291.67 19.2,-302.27 25.83,-294 19.23,-291.67"/>
</a>
</g>
<text text-anchor="middle" x="426.55" y="-134.5" font-family="Helvetica,sans-Serif" font-size="10.00" fill="grey"> elements</text>
</g>
<!-- Node28 -->
<g id="Node000028" class="node">
<title>Node28</title>
<g id="a_Node000028"><a xlink:title=" ">
<polygon fill="white" stroke="#666666" points="245.8,-302 107.55,-302 107.55,-282 245.8,-282 245.8,-302"/>
<text text-anchor="middle" x="176.68" y="-288.5" font-family="Helvetica,sans-Serif" font-size="10.00">std::unordered_map&lt; K, T &gt;</text>
</a>
</g>
</g>
<!-- Node6&#45;&gt;Node28 -->
<g id="edge39_Node000028_Node000006" class="edge">
<title>Node6&#45;&gt;Node28</title>
<g id="a_edge39_Node000028_Node000006"><a xlink:title=" ">
<path fill="none" stroke="#9a32cd" stroke-dasharray="5,2" d="M40.09,-304.71C42.34,-304.06 44.6,-303.47 46.8,-303 66.23,-298.84 87.63,-296.24 107.31,-294.62"/>
<polygon fill="#9a32cd" stroke="#9a32cd" points="39.08,-301.35 30.69,-307.83 41.28,-308 39.08,-301.35"/>
</a>
</g>
<text text-anchor="middle" x="68.18" y="-305.5" font-family="Helvetica,sans-Serif" font-size="10.00" fill="grey"> elements</text>
</g>
<!-- Node31 -->
<g id="Node000031" class="node">
<title>Node31</title>
<g id="a_Node000031"><a xlink:title=" ">
<polygon fill="white" stroke="#666666" points="344.3,-351 263.8,-351 263.8,-331 344.3,-331 344.3,-351"/>
<text text-anchor="middle" x="304.05" y="-337.5" font-family="Helvetica,sans-Serif" font-size="10.00">std::array&lt; T &gt;</text>
</a>
</g>
</g>
<!-- Node6&#45;&gt;Node31 -->
<g id="edge43_Node000031_Node000006" class="edge">
<title>Node6&#45;&gt;Node31</title>
<g id="a_edge43_Node000031_Node000006"><a xlink:title=" ">
<path fill="none" stroke="#9a32cd" stroke-dasharray="5,2" d="M40.61,-316.37C90.77,-321.07 203.41,-331.65 263.51,-337.29"/>
<polygon fill="#9a32cd" stroke="#9a32cd" points="41.06,-312.89 30.78,-315.44 40.41,-319.86 41.06,-312.89"/>
</a>
</g>
<text text-anchor="middle" x="68.18" y="-322.5" font-family="Helvetica,sans-Serif" font-size="10.00" fill="grey"> elements</text>
</g>
<!-- Node7&#45;&gt;Node2 -->
<g id="edge6_Node000002_Node000007" class="edge">
<title>Node7&#45;&gt;Node2</title>
<g id="a_edge6_Node000002_Node000007"><a xlink:title=" ">
<path fill="none" stroke="orange" stroke-dasharray="5,2" d="M744.8,-561.3C779.06,-564.92 820.69,-569.31 856.78,-573.11"/>
<polygon fill="orange" stroke="orange" points="745.3,-557.84 734.99,-560.27 744.57,-564.8 745.3,-557.84"/>
</a>
</g>
<text text-anchor="middle" x="797.55" y="-572.5" font-family="Helvetica,sans-Serif" font-size="10.00" fill="grey"> &lt; AELogParser &gt;</text>
</g>
<!-- Node7&#45;&gt;Node9 -->
<g id="edge11_Node000009_Node000007" class="edge">
<title>Node7&#45;&gt;Node9</title>
<g id="a_edge11_Node000009_Node000007"><a xlink:title=" ">
<path fill="none" stroke="orange" stroke-dasharray="5,2" d="M744.59,-548.67C748.81,-548.42 752.98,-548.19 757.05,-548 789.28,-546.46 824.73,-545.52 855.82,-544.93"/>
<polygon fill="orange" stroke="orange" points="744.68,-545.15 734.92,-549.27 745.12,-552.14 744.68,-545.15"/>
</a>
</g>
<text text-anchor="middle" x="797.55" y="-550.5" font-family="Helvetica,sans-Serif" font-size="10.00" fill="grey"> &lt; AEFileReader &gt;</text>
</g>
<!-- Node8&#45;&gt;Node1 -->
<g id="edge8_Node000001_Node000008" class="edge">
<title>Node8&#45;&gt;Node1</title>
<g id="a_edge8_Node000001_Node000008"><a xlink:title=" ">
<path fill="none" stroke="#9a32cd" stroke-dasharray="5,2" d="M1280.8,-484.54C1325.46,-476.62 1391.85,-459.7 1439.3,-425 1463.32,-407.43 1480.64,-375.86 1488.49,-359.48"/>
<polygon fill="#9a32cd" stroke="#9a32cd" points="1280.43,-481.05 1271.15,-486.16 1281.59,-487.95 1280.43,-481.05"/>
</a>
</g>
<text text-anchor="middle" x="1383.8" y="-474.5" font-family="Helvetica,sans-Serif" font-size="10.00" fill="grey"> m_frLogReader</text>
</g>
<!-- Node9&#45;&gt;Node8 -->
<g id="edge9_Node000008_Node000009" class="edge">
<title>Node9&#45;&gt;Node8</title>
<g id="a_edge9_Node000008_Node000009"><a xlink:title=" ">
<path fill="none" stroke="#63b8ff" d="M1039.34,-532.03C1069.91,-527.67 1103.76,-522.25 1134.55,-516 1154.44,-511.96 1176.37,-506.34 1194.22,-501.44"/>
<polygon fill="#63b8ff" stroke="#63b8ff" points="1039.16,-528.52 1029.74,-533.38 1040.13,-535.45 1039.16,-528.52"/>
</a>
</g>
</g>
<!-- Node10 -->
<g id="Node000010" class="node">
<title>Node10</title>
<g id="a_Node000010"><a xlink:title=" ">
<polygon fill="white" stroke="#666666" points="971.8,-392 912.3,-392 912.3,-372 971.8,-372 971.8,-392"/>
<text text-anchor="middle" x="942.05" y="-378.5" font-family="Helvetica,sans-Serif" font-size="10.00">std::string</text>
</a>
</g>
</g>
<!-- Node10&#45;&gt;Node8 -->
<g id="edge12_Node000008_Node000010" class="edge">
<title>Node10&#45;&gt;Node8</title>
<g id="a_edge12_Node000008_Node000010"><a xlink:title=" ">
<path fill="none" stroke="#9a32cd" stroke-dasharray="5,2" d="M982.93,-392.59C997.23,-396.56 1013.43,-401.27 1028.05,-406 1076.01,-421.53 1088.11,-425.41 1134.55,-445 1161.09,-456.19 1190.88,-470.83 1210.11,-480.55"/>
<polygon fill="#9a32cd" stroke="#9a32cd" points="983.96,-389.24 973.39,-389.97 982.11,-395.99 983.96,-389.24"/>
</a>
</g>
<text text-anchor="middle" x="1090.3" y="-447.5" font-family="Helvetica,sans-Serif" font-size="10.00" fill="grey"> m_sFilename</text>
</g>
<!-- Node22 -->
<g id="Node000022" class="node">
<title>Node22</title>
<g id="a_Node000022"><a xlink:title=" ">
<polygon fill="white" stroke="#666666" points="1310.3,-313 1152.55,-313 1152.55,-281 1310.3,-281 1310.3,-313"/>
<text text-anchor="start" x="1160.55" y="-299.5" font-family="Helvetica,sans-Serif" font-size="10.00">std::unordered_map&lt; std::string,</text>
<text text-anchor="middle" x="1231.43" y="-287.5" font-family="Helvetica,sans-Serif" font-size="10.00"> std::pair&lt; ullint, short &gt; &gt;</text>
</a>
</g>
</g>
<!-- Node10&#45;&gt;Node22 -->
<g id="edge30_Node000022_Node000010" class="edge">
<title>Node10&#45;&gt;Node22</title>
<g id="a_edge30_Node000022_Node000010"><a xlink:title=" ">
<path fill="none" stroke="#9a32cd" stroke-dasharray="5,2" d="M982.94,-373.91C997.24,-370.79 1013.44,-367.01 1028.05,-363 1082.22,-348.15 1143.41,-327.67 1184.19,-313.47"/>
<polygon fill="#9a32cd" stroke="#9a32cd" points="982.47,-370.43 973.42,-375.94 983.93,-377.27 982.47,-370.43"/>
</a>
</g>
<text text-anchor="middle" x="1090.3" y="-358.5" font-family="Helvetica,sans-Serif" font-size="10.00" fill="grey"> keys</text>
</g>
<!-- Node11 -->
<g id="Node000011" class="node">
<title>Node11</title>
<g id="a_Node000011"><a xlink:title=" ">
<polygon fill="white" stroke="#666666" points="737.68,-392 611.43,-392 611.43,-372 737.68,-372 737.68,-392"/>
<text text-anchor="middle" x="674.55" y="-378.5" font-family="Helvetica,sans-Serif" font-size="10.00">std::basic_string&lt; Char &gt;</text>
</a>
</g>
</g>
<!-- Node11&#45;&gt;Node10 -->
<g id="edge13_Node000010_Node000011" class="edge">
<title>Node11&#45;&gt;Node10</title>
<g id="a_edge13_Node000010_Node000011"><a xlink:title=" ">
<path fill="none" stroke="#63b8ff" d="M749.35,-382C803.13,-382 873.12,-382 911.92,-382"/>
<polygon fill="#63b8ff" stroke="#63b8ff" points="749.65,-378.5 739.65,-382 749.65,-385.5 749.65,-378.5"/>
</a>
</g>
</g>
<!-- Node12&#45;&gt;Node8 -->
<g id="edge14_Node000008_Node000012" class="edge">
<title>Node12&#45;&gt;Node8</title>
<g id="a_edge14_Node000008_Node000012"><a xlink:title=" ">
<path fill="none" stroke="#9a32cd" stroke-dasharray="5,2" d="M489.44,-637.67C599.98,-645.86 837.6,-654.68 1028.05,-601 1105.03,-579.3 1185.25,-524.37 1216.66,-501.37"/>
<polygon fill="#9a32cd" stroke="#9a32cd" points="489.94,-634.2 479.7,-636.92 489.4,-641.18 489.94,-634.2"/>
</a>
</g>
<text text-anchor="middle" x="797.55" y="-643.5" font-family="Helvetica,sans-Serif" font-size="10.00" fill="grey"> m_ullTotalReads</text>
</g>
<!-- Node13 -->
<g id="Node000013" class="node">
<title>Node13</title>
<g id="a_Node000013"><a xlink:title=" ">
<polygon fill="white" stroke="#666666" points="194.8,-642 158.55,-642 158.55,-622 194.8,-622 194.8,-642"/>
<text text-anchor="middle" x="176.68" y="-628.5" font-family="Helvetica,sans-Serif" font-size="10.00">ullint</text>
</a>
</g>
</g>
<!-- Node13&#45;&gt;Node12 -->
<g id="edge15_Node000012_Node000013" class="edge">
<title>Node13&#45;&gt;Node12</title>
<g id="a_edge15_Node000012_Node000013"><a xlink:title=" ">
<path fill="none" stroke="#9a32cd" stroke-dasharray="5,2" d="M206.44,-632C247.6,-632 323.9,-632 374.7,-632"/>
<polygon fill="#9a32cd" stroke="#9a32cd" points="206.62,-628.5 196.62,-632 206.62,-635.5 206.62,-628.5"/>
</a>
</g>
<text text-anchor="middle" x="304.05" y="-634.5" font-family="Helvetica,sans-Serif" font-size="10.00" fill="grey"> ptr</text>
</g>
<!-- Node14 -->
<g id="Node000014" class="node">
<title>Node14</title>
<g id="a_Node000014"><a xlink:title=" ">
<polygon fill="white" stroke="#666666" points="963.55,-516 920.55,-516 920.55,-496 963.55,-496 963.55,-516"/>
<text text-anchor="middle" x="942.05" y="-502.5" font-family="Helvetica,sans-Serif" font-size="10.00">FILE *</text>
</a>
</g>
</g>
<!-- Node14&#45;&gt;Node8 -->
<g id="edge18_Node000008_Node000014" class="edge">
<title>Node14&#45;&gt;Node8</title>
<g id="a_edge18_Node000008_Node000014"><a xlink:title=" ">
<path fill="none" stroke="#9a32cd" stroke-dasharray="5,2" d="M974.89,-504.34C1028.45,-501.54 1136.28,-495.91 1193.23,-492.94"/>
<polygon fill="#9a32cd" stroke="#9a32cd" points="975.03,-500.83 965.23,-504.84 975.4,-507.82 975.03,-500.83"/>
</a>
</g>
<text text-anchor="middle" x="1090.3" y="-502.5" font-family="Helvetica,sans-Serif" font-size="10.00" fill="grey"> m_fpFilestr</text>
</g>
<!-- Node15 -->
<g id="Node000015" class="node">
<title>Node15</title>
<g id="a_Node000015"><a xlink:title=" ">
<polygon fill="white" stroke="#666666" points="1304.68,-153 1158.18,-153 1158.18,-133 1304.68,-133 1304.68,-153"/>
<text text-anchor="middle" x="1231.43" y="-139.5" font-family="Helvetica,sans-Serif" font-size="10.00">std::vector&lt; AELogEntryInfo &gt;</text>
</a>
</g>
</g>
<!-- Node15&#45;&gt;Node1 -->
<g id="edge19_Node000001_Node000015" class="edge">
<title>Node15&#45;&gt;Node1</title>
<g id="a_edge19_Node000001_Node000015"><a xlink:title=" ">
<path fill="none" stroke="#9a32cd" stroke-dasharray="5,2" d="M1316.29,-150.99C1358.04,-159.02 1406.48,-175.05 1439.3,-207 1478.03,-244.7 1489.28,-313.08 1492.22,-338.83"/>
<polygon fill="#9a32cd" stroke="#9a32cd" points="1316.94,-147.55 1306.48,-149.24 1315.71,-154.44 1316.94,-147.55"/>
</a>
</g>
<text text-anchor="middle" x="1383.8" y="-209.5" font-family="Helvetica,sans-Serif" font-size="10.00" fill="grey"> m_vecEntryIndices</text>
</g>
<!-- Node16 -->
<g id="Node000016" class="node">
<title>Node16</title>
<g id="a_Node000016"><a xlink:href="../../db/d7b/struct_a_e_log_entry_info.html" target="_top" xlink:title="The struct that holds the information about the log entry, used by AELogParser.">
<polygon fill="white" stroke="#666666" points="983.8,-63 900.3,-63 900.3,-43 983.8,-43 983.8,-63"/>
<text text-anchor="middle" x="942.05" y="-49.5" font-family="Helvetica,sans-Serif" font-size="10.00">AELogEntryInfo</text>
</a>
</g>
</g>
<!-- Node16&#45;&gt;Node15 -->
<g id="edge20_Node000015_Node000016" class="edge">
<title>Node16&#45;&gt;Node15</title>
<g id="a_edge20_Node000015_Node000016"><a xlink:title=" ">
<path fill="none" stroke="#9a32cd" stroke-dasharray="5,2" d="M995.72,-54.66C1035.06,-57.33 1089.56,-64.09 1134.55,-81 1167.58,-93.42 1201.03,-118.54 1218.35,-132.7"/>
<polygon fill="#9a32cd" stroke="#9a32cd" points="995.99,-51.17 985.8,-54.07 995.57,-58.16 995.99,-51.17"/>
</a>
</g>
<text text-anchor="middle" x="1090.3" y="-83.5" font-family="Helvetica,sans-Serif" font-size="10.00" fill="grey"> elements</text>
</g>
<!-- Node17 -->
<g id="Node000017" class="node">
<title>Node17</title>
<g id="a_Node000017"><a xlink:title=" ">
<polygon fill="white" stroke="#666666" points="702.05,-81 647.05,-81 647.05,-61 702.05,-61 702.05,-81"/>
<text text-anchor="middle" x="674.55" y="-67.5" font-family="Helvetica,sans-Serif" font-size="10.00">long long</text>
</a>
</g>
</g>
<!-- Node17&#45;&gt;Node16 -->
<g id="edge21_Node000016_Node000017" class="edge">
<title>Node17&#45;&gt;Node16</title>
<g id="a_edge21_Node000016_Node000017"><a xlink:title=" ">
<path fill="none" stroke="#9a32cd" stroke-dasharray="5,2" d="M712.74,-57.04C726.46,-52.58 742.27,-48.22 757.05,-46 805.74,-38.7 862.43,-42.72 899.88,-47.08"/>
<polygon fill="#9a32cd" stroke="#9a32cd" points="712.02,-53.59 703.68,-60.12 714.28,-60.22 712.02,-53.59"/>
</a>
</g>
<text text-anchor="middle" x="797.55" y="-48.5" font-family="Helvetica,sans-Serif" font-size="10.00" fill="grey"> cursorIndex</text>
</g>
<!-- Node21 -->
<g id="Node000021" class="node">
<title>Node21</title>
<g id="a_Node000021"><a xlink:title=" ">
<polygon fill="white" stroke="#666666" points="1278.43,-191 1184.43,-191 1184.43,-171 1278.43,-171 1278.43,-191"/>
<text text-anchor="middle" x="1231.43" y="-177.5" font-family="Helvetica,sans-Serif" font-size="10.00">std::vector&lt; llint &gt;</text>
</a>
</g>
</g>
<!-- Node17&#45;&gt;Node21 -->
<g id="edge27_Node000021_Node000017" class="edge">
<title>Node17&#45;&gt;Node21</title>
<g id="a_edge27_Node000021_Node000017"><a xlink:title=" ">
<path fill="none" stroke="#9a32cd" stroke-dasharray="5,2" d="M713.38,-82.72C727.02,-86.55 742.62,-90.46 757.05,-93 923.62,-122.31 990.04,-53.12 1134.55,-141 1145.05,-147.39 1142.07,-155.57 1152.55,-162 1162.04,-167.83 1173.2,-171.87 1184.06,-174.67"/>
<polygon fill="#9a32cd" stroke="#9a32cd" points="714.48,-79.4 703.9,-79.98 712.53,-86.12 714.48,-79.4"/>
</a>
</g>
<text text-anchor="middle" x="942.05" y="-103.5" font-family="Helvetica,sans-Serif" font-size="10.00" fill="grey"> elements</text>
</g>
<!-- Node18 -->
<g id="Node000018" class="node">
<title>Node18</title>
<g id="a_Node000018"><a xlink:title=" ">
<polygon fill="white" stroke="#666666" points="693.43,-180 655.68,-180 655.68,-160 693.43,-160 693.43,-180"/>
<text text-anchor="middle" x="674.55" y="-166.5" font-family="Helvetica,sans-Serif" font-size="10.00">short</text>
</a>
</g>
</g>
<!-- Node18&#45;&gt;Node16 -->
<g id="edge22_Node000016_Node000018" class="edge">
<title>Node18&#45;&gt;Node16</title>
<g id="a_edge22_Node000016_Node000018"><a xlink:title=" ">
<path fill="none" stroke="#9a32cd" stroke-dasharray="5,2" d="M703.82,-155.83C739.08,-138.34 801.41,-108.11 856.05,-85 874.35,-77.26 895.23,-69.39 911.71,-63.39"/>
<polygon fill="#9a32cd" stroke="#9a32cd" points="702.53,-152.56 695.13,-160.15 705.65,-158.83 702.53,-152.56"/>
</a>
</g>
<text text-anchor="middle" x="797.55" y="-132.5" font-family="Helvetica,sans-Serif" font-size="10.00" fill="grey"> mnameIndex</text>
</g>
<!-- Node23 -->
<g id="Node000023" class="node">
<title>Node23</title>
<g id="a_Node000023"><a xlink:title=" ">
<polygon fill="white" stroke="#666666" points="1000.68,-227 883.43,-227 883.43,-207 1000.68,-207 1000.68,-227"/>
<text text-anchor="middle" x="942.05" y="-213.5" font-family="Helvetica,sans-Serif" font-size="10.00">std::pair&lt; ullint, short &gt;</text>
</a>
</g>
</g>
<!-- Node18&#45;&gt;Node23 -->
<g id="edge33_Node000023_Node000018" class="edge">
<title>Node18&#45;&gt;Node23</title>
<g id="a_edge33_Node000023_Node000018"><a xlink:title=" ">
<path fill="none" stroke="#9a32cd" stroke-dasharray="5,2" d="M705.23,-170.57C738.02,-171.65 792.26,-174.81 838.05,-184 864.56,-189.32 893.84,-199.1 914.38,-206.63"/>
<polygon fill="#9a32cd" stroke="#9a32cd" points="705.38,-167.07 695.29,-170.29 705.18,-174.07 705.38,-167.07"/>
</a>
</g>
<text text-anchor="middle" x="797.55" y="-186.5" font-family="Helvetica,sans-Serif" font-size="10.00" fill="grey"> second_type</text>
</g>
<!-- Node19 -->
<g id="Node000019" class="node">
<title>Node19</title>
<g id="a_Node000019"><a xlink:title=" ">
<polygon fill="white" stroke="#666666" points="694.55,-20 654.55,-20 654.55,0 694.55,0 694.55,-20"/>
<text text-anchor="middle" x="674.55" y="-6.5" font-family="Helvetica,sans-Serif" font-size="10.00">int8_t</text>
</a>
</g>
</g>
<!-- Node19&#45;&gt;Node16 -->
<g id="edge23_Node000016_Node000019" class="edge">
<title>Node19&#45;&gt;Node16</title>
<g id="a_edge23_Node000016_Node000019"><a xlink:title=" ">
<path fill="none" stroke="#9a32cd" stroke-dasharray="5,2" d="M706.04,-11.56C738.84,-13.57 792.45,-17.83 838.05,-26 861.34,-30.17 887.09,-36.92 907.02,-42.63"/>
<polygon fill="#9a32cd" stroke="#9a32cd" points="706.64,-8.09 696.46,-11 706.24,-15.08 706.64,-8.09"/>
</a>
</g>
<text text-anchor="middle" x="797.55" y="-28.5" font-family="Helvetica,sans-Serif" font-size="10.00" fill="grey"> logType</text>
</g>
<!-- Node20&#45;&gt;Node15 -->
<g id="edge24_Node000015_Node000020" class="edge">
<title>Node20&#45;&gt;Node15</title>
<g id="a_edge24_Node000015_Node000020"><a xlink:title=" ">
<path fill="none" stroke="orange" stroke-dasharray="5,2" d="M995.91,-146.26C1041.37,-145.63 1107.4,-144.71 1157.82,-144.01"/>
<polygon fill="orange" stroke="orange" points="995.99,-142.76 986.04,-146.4 996.09,-149.76 995.99,-142.76"/>
</a>
</g>
<text text-anchor="middle" x="1090.3" y="-148.5" font-family="Helvetica,sans-Serif" font-size="10.00" fill="grey"> &lt; AELogEntryInfo &gt;</text>
</g>
<!-- Node20&#45;&gt;Node21 -->
<g id="edge28_Node000021_Node000020" class="edge">
<title>Node20&#45;&gt;Node21</title>
<g id="a_edge28_Node000021_Node000020"><a xlink:title=" ">
<path fill="none" stroke="orange" stroke-dasharray="5,2" d="M995.92,-153.25C1049.87,-159.64 1132.78,-169.45 1184.2,-175.53"/>
<polygon fill="orange" stroke="orange" points="996.37,-149.78 986.03,-152.09 995.55,-156.74 996.37,-149.78"/>
</a>
</g>
<text text-anchor="middle" x="1090.3" y="-172.5" font-family="Helvetica,sans-Serif" font-size="10.00" fill="grey"> &lt; llint &gt;</text>
</g>
<!-- Node21&#45;&gt;Node1 -->
<g id="edge26_Node000001_Node000021" class="edge">
<title>Node21&#45;&gt;Node1</title>
<g id="a_edge26_Node000001_Node000021"><a xlink:title=" ">
<path fill="none" stroke="#9a32cd" stroke-dasharray="5,2" d="M1270.92,-195.5C1314.49,-213.05 1386.29,-245.48 1439.3,-287 1458.83,-302.3 1476.7,-325.44 1486.15,-338.7"/>
<polygon fill="#9a32cd" stroke="#9a32cd" points="1272.48,-192.35 1261.89,-191.92 1269.9,-198.86 1272.48,-192.35"/>
</a>
</g>
<text text-anchor="middle" x="1383.8" y="-289.5" font-family="Helvetica,sans-Serif" font-size="10.00" fill="grey"> m_vecInvalidEntryIndices</text>
</g>
<!-- Node22&#45;&gt;Node1 -->
<g id="edge29_Node000001_Node000022" class="edge">
<title>Node22&#45;&gt;Node1</title>
<g id="a_edge29_Node000001_Node000022"><a xlink:title=" ">
<path fill="none" stroke="#9a32cd" stroke-dasharray="5,2" d="M1322.01,-301.88C1358.9,-305.53 1401.71,-311.89 1439.3,-323 1451.85,-326.71 1465.1,-333.06 1475.31,-338.56"/>
<polygon fill="#9a32cd" stroke="#9a32cd" points="1322.56,-298.42 1312.28,-300.98 1321.91,-305.39 1322.56,-298.42"/>
</a>
</g>
<text text-anchor="middle" x="1383.8" y="-325.5" font-family="Helvetica,sans-Serif" font-size="10.00" fill="grey"> m_mapModuleNames</text>
</g>
<!-- Node23&#45;&gt;Node22 -->
<g id="edge31_Node000022_Node000023" class="edge">
<title>Node23&#45;&gt;Node22</title>
<g id="a_edge31_Node000022_Node000023"><a xlink:title=" ">
<path fill="none" stroke="#9a32cd" stroke-dasharray="5,2" d="M991.69,-230.54C1041.3,-244.35 1118.31,-265.79 1171.39,-280.56"/>
<polygon fill="#9a32cd" stroke="#9a32cd" points="992.65,-227.17 982.08,-227.86 990.77,-233.92 992.65,-227.17"/>
</a>
</g>
<text text-anchor="middle" x="1090.3" y="-270.5" font-family="Helvetica,sans-Serif" font-size="10.00" fill="grey"> elements</text>
</g>
<!-- Node24 -->
<g id="Node000024" class="node">
<title>Node24</title>
<g id="a_Node000024"><a xlink:title=" ">
<polygon fill="white" stroke="#666666" points="723.05,-256 626.05,-256 626.05,-236 723.05,-236 723.05,-256"/>
<text text-anchor="middle" x="674.55" y="-242.5" font-family="Helvetica,sans-Serif" font-size="10.00">unsigned long long</text>
</a>
</g>
</g>
<!-- Node24&#45;&gt;Node23 -->
<g id="edge32_Node000023_Node000024" class="edge">
<title>Node24&#45;&gt;Node23</title>
<g id="a_edge32_Node000023_Node000024"><a xlink:title=" ">
<path fill="none" stroke="#9a32cd" stroke-dasharray="5,2" d="M734.68,-238.61C742.21,-237.71 749.81,-236.82 757.05,-236 799.17,-231.24 846.78,-226.34 883.01,-222.71"/>
<polygon fill="#9a32cd" stroke="#9a32cd" points="734.38,-235.12 724.87,-239.8 735.22,-242.07 734.38,-235.12"/>
</a>
</g>
<text text-anchor="middle" x="797.55" y="-238.5" font-family="Helvetica,sans-Serif" font-size="10.00" fill="grey"> first_type</text>
</g>
<!-- Node30 -->
<g id="Node000030" class="node">
<title>Node30</title>
<g id="a_Node000030"><a xlink:title=" ">
<polygon fill="white" stroke="#666666" points="995.43,-354 888.68,-354 888.68,-334 995.43,-334 995.43,-354"/>
<text text-anchor="middle" x="942.05" y="-340.5" font-family="Helvetica,sans-Serif" font-size="10.00">std::array&lt; ullint, 9 &gt;</text>
</a>
</g>
</g>
<!-- Node24&#45;&gt;Node30 -->
<g id="edge41_Node000030_Node000024" class="edge">
<title>Node24&#45;&gt;Node30</title>
<g id="a_edge41_Node000030_Node000024"><a xlink:title=" ">
<path fill="none" stroke="#9a32cd" stroke-dasharray="5,2" d="M714.51,-260.38C768.6,-280.35 865.17,-315.99 912.84,-333.59"/>
<polygon fill="#9a32cd" stroke="#9a32cd" points="715.98,-257.19 705.38,-257.01 713.55,-263.76 715.98,-257.19"/>
</a>
</g>
<text text-anchor="middle" x="797.55" y="-305.5" font-family="Helvetica,sans-Serif" font-size="10.00" fill="grey"> elements</text>
</g>
<!-- Node25 -->
<g id="Node000025" class="node">
<title>Node25</title>
<g id="a_Node000025"><a xlink:title=" ">
<polygon fill="white" stroke="#666666" points="722.68,-218 626.43,-218 626.43,-198 722.68,-198 722.68,-218"/>
<text text-anchor="middle" x="674.55" y="-204.5" font-family="Helvetica,sans-Serif" font-size="10.00">std::pair&lt; T1, T2 &gt;</text>
</a>
</g>
</g>
<!-- Node25&#45;&gt;Node23 -->
<g id="edge34_Node000023_Node000025" class="edge">
<title>Node25&#45;&gt;Node23</title>
<g id="a_edge34_Node000023_Node000025"><a xlink:title=" ">
<path fill="none" stroke="orange" stroke-dasharray="5,2" d="M734.36,-202.35C741.99,-201.79 749.7,-201.32 757.05,-201 793.02,-199.46 802.16,-198.23 838.05,-201 853.03,-202.16 869.12,-204.24 884.03,-206.54"/>
<polygon fill="orange" stroke="orange" points="734.12,-198.85 724.42,-203.12 734.66,-205.83 734.12,-198.85"/>
</a>
</g>
<text text-anchor="middle" x="797.55" y="-203.5" font-family="Helvetica,sans-Serif" font-size="10.00" fill="grey"> &lt; ullint, short &gt;</text>
</g>
<!-- Node26 -->
<g id="Node000026" class="node">
<title>Node26</title>
<g id="a_Node000026"><a xlink:title=" ">
<polygon fill="white" stroke="#666666" points="440.95,-200 412.15,-200 412.15,-180 440.95,-180 440.95,-200"/>
<text text-anchor="middle" x="426.55" y="-186.5" font-family="Helvetica,sans-Serif" font-size="10.00">T1</text>
</a>
</g>
</g>
<!-- Node26&#45;&gt;Node25 -->
<g id="edge35_Node000025_Node000026" class="edge">
<title>Node26&#45;&gt;Node25</title>
<g id="a_edge35_Node000025_Node000026"><a xlink:title=" ">
<path fill="none" stroke="#9a32cd" stroke-dasharray="5,2" d="M452.68,-189.48C485.01,-189.06 542.85,-189.2 592.05,-194 603.2,-195.09 615.11,-196.81 626.3,-198.68"/>
<polygon fill="#9a32cd" stroke="#9a32cd" points="452.7,-185.98 442.75,-189.64 452.81,-192.97 452.7,-185.98"/>
</a>
</g>
<text text-anchor="middle" x="550.43" y="-196.5" font-family="Helvetica,sans-Serif" font-size="10.00" fill="grey"> first_type</text>
</g>
<!-- Node27 -->
<g id="Node000027" class="node">
<title>Node27</title>
<g id="a_Node000027"><a xlink:title=" ">
<polygon fill="white" stroke="#666666" points="440.95,-238 412.15,-238 412.15,-218 440.95,-218 440.95,-238"/>
<text text-anchor="middle" x="426.55" y="-224.5" font-family="Helvetica,sans-Serif" font-size="10.00">T2</text>
</a>
</g>
</g>
<!-- Node27&#45;&gt;Node25 -->
<g id="edge36_Node000025_Node000027" class="edge">
<title>Node27&#45;&gt;Node25</title>
<g id="a_edge36_Node000025_Node000027"><a xlink:title=" ">
<path fill="none" stroke="#9a32cd" stroke-dasharray="5,2" d="M452.6,-225.96C493.25,-222.66 574.27,-216.07 626.09,-211.86"/>
<polygon fill="#9a32cd" stroke="#9a32cd" points="452.32,-222.47 442.64,-226.77 452.89,-229.45 452.32,-222.47"/>
</a>
</g>
<text text-anchor="middle" x="550.43" y="-223.5" font-family="Helvetica,sans-Serif" font-size="10.00" fill="grey"> second_type</text>
</g>
<!-- Node28&#45;&gt;Node22 -->
<g id="edge37_Node000022_Node000028" class="edge">
<title>Node28&#45;&gt;Node22</title>
<g id="a_edge37_Node000022_Node000028"><a xlink:title=" ">
<path fill="none" stroke="orange" stroke-dasharray="5,2" d="M257.28,-292.38C453.3,-293.31 957.45,-295.7 1152.11,-296.63"/>
<polygon fill="orange" stroke="orange" points="257.47,-288.88 247.45,-292.33 257.43,-295.88 257.47,-288.88"/>
</a>
</g>
<text text-anchor="start" x="610.05" y="-308.5" font-family="Helvetica,sans-Serif" font-size="10.00" fill="grey"> &lt; std::string, std::pair&lt; ullint,</text>
<text text-anchor="middle" x="674.55" y="-296.5" font-family="Helvetica,sans-Serif" font-size="10.00" fill="grey"> short &gt; &gt;</text>
</g>
<!-- Node29 -->
<g id="Node000029" class="node">
<title>Node29</title>
<g id="a_Node000029"><a xlink:title=" ">
<polygon fill="white" stroke="#666666" points="28.8,-115 0,-115 0,-95 28.8,-95 28.8,-115"/>
<text text-anchor="middle" x="14.4" y="-101.5" font-family="Helvetica,sans-Serif" font-size="10.00">K</text>
</a>
</g>
</g>
<!-- Node29&#45;&gt;Node28 -->
<g id="edge38_Node000028_Node000029" class="edge">
<title>Node29&#45;&gt;Node28</title>
<g id="a_edge38_Node000028_Node000029"><a xlink:title=" ">
<path fill="none" stroke="#9a32cd" stroke-dasharray="5,2" d="M31.42,-123.7C64.91,-162.77 141.34,-251.94 167.05,-281.94"/>
<polygon fill="#9a32cd" stroke="#9a32cd" points="34.4,-121.78 25.23,-116.47 29.08,-126.34 34.4,-121.78"/>
</a>
</g>
<text text-anchor="middle" x="68.18" y="-190.5" font-family="Helvetica,sans-Serif" font-size="10.00" fill="grey"> keys</text>
</g>
<!-- Node30&#45;&gt;Node1 -->
<g id="edge40_Node000001_Node000030" class="edge">
<title>Node30&#45;&gt;Node1</title>
<g id="a_edge40_Node000001_Node000030"><a xlink:title=" ">
<path fill="none" stroke="#9a32cd" stroke-dasharray="5,2" d="M1006.98,-344.58C1123.17,-345.64 1365.43,-347.84 1457.04,-348.67"/>
<polygon fill="#9a32cd" stroke="#9a32cd" points="1007.34,-341.08 997.31,-344.49 1007.28,-348.08 1007.34,-341.08"/>
</a>
</g>
<text text-anchor="middle" x="1231.43" y="-349.5" font-family="Helvetica,sans-Serif" font-size="10.00" fill="grey"> m_arrEntryAmount</text>
</g>
<!-- Node31&#45;&gt;Node30 -->
<g id="edge42_Node000030_Node000031" class="edge">
<title>Node31&#45;&gt;Node30</title>
<g id="a_edge42_Node000030_Node000031"><a xlink:title=" ">
<path fill="none" stroke="orange" stroke-dasharray="5,2" d="M355.58,-341.24C473.97,-341.8 768.32,-343.19 888.59,-343.75"/>
<polygon fill="orange" stroke="orange" points="355.88,-337.74 345.87,-341.19 355.85,-344.74 355.88,-337.74"/>
</a>
</g>
<text text-anchor="middle" x="550.43" y="-344.5" font-family="Helvetica,sans-Serif" font-size="10.00" fill="grey"> &lt; ullint, 9 &gt;</text>
</g>
</g>
</svg>
