<?xml version="1.0" encoding="UTF-8" standalone="no"?>
<!DOCTYPE svg PUBLIC "-//W3C//DTD SVG 1.1//EN"
 "http://www.w3.org/Graphics/SVG/1.1/DTD/svg11.dtd">
<!-- Generated by graphviz version 10.0.1 (20240210.2158)
 -->
<!-- Title: AETimer/include/AETimer.hpp Pages: 1 -->
<svg width="574pt" height="308pt"
 viewBox="0.00 0.00 573.50 308.00" xmlns="http://www.w3.org/2000/svg" xmlns:xlink="http://www.w3.org/1999/xlink">
<g id="graph0" class="graph" transform="scale(1 1) rotate(0) translate(4 304)">
<title>AETimer/include/AETimer.hpp</title>
<!-- Node1 -->
<g id="Node000001" class="node">
<title>Node1</title>
<g id="a_Node000001"><a xlink:title=" ">
<polygon fill="#999999" stroke="#666666" points="526.25,-300 379.75,-300 379.75,-280 526.25,-280 526.25,-300"/>
<text text-anchor="middle" x="453" y="-286.5" font-family="Helvetica,sans-Serif" font-size="10.00">AETimer/include/AETimer.hpp</text>
</a>
</g>
</g>
<!-- Node2 -->
<g id="Node000002" class="node">
<title>Node2</title>
<g id="a_Node000002"><a xlink:href="../../de/d72/_a_e_frame_8hpp.html" target="_top" xlink:title=" ">
<polygon fill="white" stroke="#666666" points="303.88,-244 194.12,-244 194.12,-224 303.88,-224 303.88,-244"/>
<text text-anchor="middle" x="249" y="-230.5" font-family="Helvetica,sans-Serif" font-size="10.00">include/AEFrame.hpp</text>
</a>
</g>
</g>
<!-- Node1&#45;&gt;Node2 -->
<g id="edge1_Node000001_Node000002" class="edge">
<title>Node1&#45;&gt;Node2</title>
<g id="a_edge1_Node000001_Node000002"><a xlink:title=" ">
<path fill="none" stroke="#63b8ff" d="M417.47,-279.59C383.74,-270.67 332.84,-257.19 295.82,-247.39"/>
<polygon fill="#63b8ff" stroke="#63b8ff" points="296.84,-244.04 286.27,-244.87 295.05,-250.81 296.84,-244.04"/>
</a>
</g>
</g>
<!-- Node8 -->
<g id="Node000008" class="node">
<title>Node8</title>
<g id="a_Node000008"><a xlink:title=" ">
<polygon fill="#e0e0e0" stroke="#999999" points="565.5,-20 522.5,-20 522.5,0 565.5,0 565.5,-20"/>
<text text-anchor="middle" x="544" y="-6.5" font-family="Helvetica,sans-Serif" font-size="10.00">thread</text>
</a>
</g>
</g>
<!-- Node1&#45;&gt;Node8 -->
<g id="edge20_Node000001_Node000008" class="edge">
<title>Node1&#45;&gt;Node8</title>
<g id="a_edge20_Node000001_Node000008"><a xlink:title=" ">
<path fill="none" stroke="#63b8ff" d="M470.52,-279.76C498.71,-263.48 551,-226.83 551,-179 551,-179 551,-179 551,-121 551,-89.81 548.16,-53.74 546.1,-31.65"/>
<polygon fill="#63b8ff" stroke="#63b8ff" points="549.6,-31.52 545.15,-21.91 542.64,-32.2 549.6,-31.52"/>
</a>
</g>
</g>
<!-- Node14 -->
<g id="Node000014" class="node">
<title>Node14</title>
<g id="a_Node000014"><a xlink:title=" ">
<polygon fill="#e0e0e0" stroke="#999999" points="475.62,-132 430.38,-132 430.38,-112 475.62,-112 475.62,-132"/>
<text text-anchor="middle" x="453" y="-118.5" font-family="Helvetica,sans-Serif" font-size="10.00">atomic</text>
</a>
</g>
</g>
<!-- Node1&#45;&gt;Node14 -->
<g id="edge19_Node000001_Node000014" class="edge">
<title>Node1&#45;&gt;Node14</title>
<g id="a_edge19_Node000001_Node000014"><a xlink:title=" ">
<path fill="none" stroke="#63b8ff" d="M453,-279.6C453,-253.46 453,-179.48 453,-143.36"/>
<polygon fill="#63b8ff" stroke="#63b8ff" points="456.5,-143.81 453,-133.81 449.5,-143.81 456.5,-143.81"/>
</a>
</g>
</g>
<!-- Node3 -->
<g id="Node000003" class="node">
<title>Node3</title>
<g id="a_Node000003"><a xlink:href="../../dd/dd8/_a_e_flags_8hpp.html" target="_top" xlink:title="This file contains the flags to manipulate engine&#39;s funcitonality.">
<polygon fill="white" stroke="#666666" points="106,-76 0,-76 0,-56 106,-56 106,-76"/>
<text text-anchor="middle" x="53" y="-62.5" font-family="Helvetica,sans-Serif" font-size="10.00">include/AEFlags.hpp</text>
</a>
</g>
</g>
<!-- Node2&#45;&gt;Node3 -->
<g id="edge2_Node000002_Node000003" class="edge">
<title>Node2&#45;&gt;Node3</title>
<g id="a_edge2_Node000002_Node000003"><a xlink:title=" ">
<path fill="none" stroke="#63b8ff" d="M216.98,-223.57C176.57,-210 107.78,-181.04 70,-132 60.19,-119.27 56.01,-101.41 54.25,-87.63"/>
<polygon fill="#63b8ff" stroke="#63b8ff" points="57.76,-87.53 53.36,-77.89 50.79,-88.17 57.76,-87.53"/>
</a>
</g>
</g>
<!-- Node4 -->
<g id="Node000004" class="node">
<title>Node4</title>
<g id="a_Node000004"><a xlink:href="../../d7/d7f/_a_e_module_base_8hpp.html" target="_top" xlink:title="This file contains the engine&#39;s basic module template.">
<polygon fill="white" stroke="#666666" points="317,-188 181,-188 181,-168 317,-168 317,-188"/>
<text text-anchor="middle" x="249" y="-174.5" font-family="Helvetica,sans-Serif" font-size="10.00">include/AEModuleBase.hpp</text>
</a>
</g>
</g>
<!-- Node2&#45;&gt;Node4 -->
<g id="edge3_Node000002_Node000004" class="edge">
<title>Node2&#45;&gt;Node4</title>
<g id="a_edge3_Node000002_Node000004"><a xlink:title=" ">
<path fill="none" stroke="#63b8ff" d="M249,-223.59C249,-217.01 249,-207.96 249,-199.73"/>
<polygon fill="#63b8ff" stroke="#63b8ff" points="252.5,-199.81 249,-189.81 245.5,-199.81 252.5,-199.81"/>
</a>
</g>
</g>
<!-- Node4&#45;&gt;Node3 -->
<g id="edge8_Node000004_Node000003" class="edge">
<title>Node4&#45;&gt;Node3</title>
<g id="a_edge8_Node000004_Node000003"><a xlink:title=" ">
<path fill="none" stroke="#63b8ff" d="M180.81,-169.21C150.84,-163.03 116.69,-151.93 91,-132 76.17,-120.5 66.02,-101.44 59.96,-86.93"/>
<polygon fill="#63b8ff" stroke="#63b8ff" points="63.36,-86 56.52,-77.91 56.82,-88.5 63.36,-86"/>
</a>
</g>
</g>
<!-- Node5 -->
<g id="Node000005" class="node">
<title>Node5</title>
<g id="a_Node000005"><a xlink:href="../../dc/d89/_a_e_typedefs_8hpp.html" target="_top" xlink:title="This file contains the engine&#39;s typedefs and variable type aliases.">
<polygon fill="white" stroke="#666666" points="522.5,-76 401.5,-76 401.5,-56 522.5,-56 522.5,-76"/>
<text text-anchor="middle" x="462" y="-62.5" font-family="Helvetica,sans-Serif" font-size="10.00">include/AETypedefs.hpp</text>
</a>
</g>
</g>
<!-- Node4&#45;&gt;Node5 -->
<g id="edge4_Node000004_Node000005" class="edge">
<title>Node4&#45;&gt;Node5</title>
<g id="a_edge4_Node000004_Node000005"><a xlink:title=" ">
<path fill="none" stroke="#63b8ff" d="M289.58,-167.52C317.02,-160.13 353.49,-148.36 383,-132 406.63,-118.9 430.08,-98.41 445.21,-83.95"/>
<polygon fill="#63b8ff" stroke="#63b8ff" points="447.32,-86.78 452.02,-77.28 442.42,-81.78 447.32,-86.78"/>
</a>
</g>
</g>
<!-- Node9 -->
<g id="Node000009" class="node">
<title>Node9</title>
<g id="a_Node000009"><a xlink:href="../../d9/d6a/_a_e_utils_macros_8hpp.html" target="_top" xlink:title="This file contains the engine&#39;s macros for trivial tasks.">
<polygon fill="white" stroke="#666666" points="373.88,-132 240.12,-132 240.12,-112 373.88,-112 373.88,-132"/>
<text text-anchor="middle" x="307" y="-118.5" font-family="Helvetica,sans-Serif" font-size="10.00">include/AEUtilsMacros.hpp</text>
</a>
</g>
</g>
<!-- Node4&#45;&gt;Node9 -->
<g id="edge9_Node000004_Node000009" class="edge">
<title>Node4&#45;&gt;Node9</title>
<g id="a_edge9_Node000004_Node000009"><a xlink:title=" ">
<path fill="none" stroke="#63b8ff" d="M259.1,-167.59C267.25,-160.01 278.93,-149.13 288.72,-140.02"/>
<polygon fill="#63b8ff" stroke="#63b8ff" points="290.97,-142.71 295.91,-133.33 286.2,-137.58 290.97,-142.71"/>
</a>
</g>
</g>
<!-- Node4&#45;&gt;Node14 -->
<g id="edge16_Node000004_Node000014" class="edge">
<title>Node4&#45;&gt;Node14</title>
<g id="a_edge16_Node000004_Node000014"><a xlink:title=" ">
<path fill="none" stroke="#63b8ff" d="M284.53,-167.59C322.4,-157.57 381.91,-141.82 419.12,-131.97"/>
<polygon fill="#63b8ff" stroke="#63b8ff" points="419.67,-135.44 428.45,-129.5 417.88,-128.68 419.67,-135.44"/>
</a>
</g>
</g>
<!-- Node15 -->
<g id="Node000015" class="node">
<title>Node15</title>
<g id="a_Node000015"><a xlink:title=" ">
<polygon fill="#e0e0e0" stroke="#999999" points="140,-132 100,-132 100,-112 140,-112 140,-132"/>
<text text-anchor="middle" x="120" y="-118.5" font-family="Helvetica,sans-Serif" font-size="10.00">string</text>
</a>
</g>
</g>
<!-- Node4&#45;&gt;Node15 -->
<g id="edge17_Node000004_Node000015" class="edge">
<title>Node4&#45;&gt;Node15</title>
<g id="a_edge17_Node000004_Node000015"><a xlink:title=" ">
<path fill="none" stroke="#63b8ff" d="M226.53,-167.59C205.47,-158.78 173.81,-145.53 150.48,-135.76"/>
<polygon fill="#63b8ff" stroke="#63b8ff" points="152.07,-132.63 141.49,-132 149.36,-139.09 152.07,-132.63"/>
</a>
</g>
</g>
<!-- Node16 -->
<g id="Node000016" class="node">
<title>Node16</title>
<g id="a_Node000016"><a xlink:title=" ">
<polygon fill="#e0e0e0" stroke="#999999" points="221.62,-132 158.38,-132 158.38,-112 221.62,-112 221.62,-132"/>
<text text-anchor="middle" x="190" y="-118.5" font-family="Helvetica,sans-Serif" font-size="10.00">string_view</text>
</a>
</g>
</g>
<!-- Node4&#45;&gt;Node16 -->
<g id="edge18_Node000004_Node000016" class="edge">
<title>Node4&#45;&gt;Node16</title>
<g id="a_edge18_Node000004_Node000016"><a xlink:title=" ">
<path fill="none" stroke="#63b8ff" d="M238.72,-167.59C230.43,-160.01 218.55,-149.13 208.6,-140.02"/>
<polygon fill="#63b8ff" stroke="#63b8ff" points="211.02,-137.49 201.28,-133.32 206.29,-142.65 211.02,-137.49"/>
</a>
</g>
</g>
<!-- Node6 -->
<g id="Node000006" class="node">
<title>Node6</title>
<g id="a_Node000006"><a xlink:title=" ">
<polygon fill="#e0e0e0" stroke="#999999" points="491.25,-20 446.75,-20 446.75,0 491.25,0 491.25,-20"/>
<text text-anchor="middle" x="469" y="-6.5" font-family="Helvetica,sans-Serif" font-size="10.00">climits</text>
</a>
</g>
</g>
<!-- Node5&#45;&gt;Node6 -->
<g id="edge5_Node000005_Node000006" class="edge">
<title>Node5&#45;&gt;Node6</title>
<g id="a_edge5_Node000005_Node000006"><a xlink:title=" ">
<path fill="none" stroke="#63b8ff" d="M463.22,-55.59C464.08,-48.93 465.27,-39.75 466.35,-31.44"/>
<polygon fill="#63b8ff" stroke="#63b8ff" points="469.79,-32.17 467.6,-21.8 462.84,-31.27 469.79,-32.17"/>
</a>
</g>
</g>
<!-- Node7 -->
<g id="Node000007" class="node">
<title>Node7</title>
<g id="a_Node000007"><a xlink:title=" ">
<polygon fill="#e0e0e0" stroke="#999999" points="428.62,-20 383.38,-20 383.38,0 428.62,0 428.62,-20"/>
<text text-anchor="middle" x="406" y="-6.5" font-family="Helvetica,sans-Serif" font-size="10.00">chrono</text>
</a>
</g>
</g>
<!-- Node5&#45;&gt;Node7 -->
<g id="edge6_Node000005_Node000007" class="edge">
<title>Node5&#45;&gt;Node7</title>
<g id="a_edge6_Node000005_Node000007"><a xlink:title=" ">
<path fill="none" stroke="#63b8ff" d="M452.25,-55.59C444.38,-48.01 433.1,-37.13 423.65,-28.02"/>
<polygon fill="#63b8ff" stroke="#63b8ff" points="426.36,-25.77 416.73,-21.35 421.5,-30.81 426.36,-25.77"/>
</a>
</g>
</g>
<!-- Node5&#45;&gt;Node8 -->
<g id="edge7_Node000005_Node000008" class="edge">
<title>Node5&#45;&gt;Node8</title>
<g id="a_edge7_Node000005_Node000008"><a xlink:title=" ">
<path fill="none" stroke="#63b8ff" d="M476.28,-55.59C488.44,-47.59 506.14,-35.93 520.4,-26.54"/>
<polygon fill="#63b8ff" stroke="#63b8ff" points="521.91,-29.73 528.34,-21.31 518.06,-23.89 521.91,-29.73"/>
</a>
</g>
</g>
<!-- Node9&#45;&gt;Node3 -->
<g id="edge11_Node000009_Node000003" class="edge">
<title>Node9&#45;&gt;Node3</title>
<g id="a_edge11_Node000009_Node000003"><a xlink:title=" ">
<path fill="none" stroke="#63b8ff" d="M262.47,-111.53C219.62,-102.42 154.7,-88.62 108.51,-78.8"/>
<polygon fill="#63b8ff" stroke="#63b8ff" points="109.47,-75.43 98.96,-76.77 108.02,-82.27 109.47,-75.43"/>
</a>
</g>
</g>
<!-- Node9&#45;&gt;Node5 -->
<g id="edge10_Node000009_Node000005" class="edge">
<title>Node9&#45;&gt;Node5</title>
<g id="a_edge10_Node000009_Node000005"><a xlink:title=" ">
<path fill="none" stroke="#63b8ff" d="M334,-111.59C358.96,-102.9 396.3,-89.89 424.22,-80.16"/>
<polygon fill="#63b8ff" stroke="#63b8ff" points="425.07,-83.57 433.36,-76.98 422.77,-76.96 425.07,-83.57"/>
</a>
</g>
</g>
<!-- Node10 -->
<g id="Node000010" class="node">
<title>Node10</title>
<g id="a_Node000010"><a xlink:title=" ">
<polygon fill="#e0e0e0" stroke="#999999" points="177.75,-76 124.25,-76 124.25,-56 177.75,-56 177.75,-76"/>
<text text-anchor="middle" x="151" y="-62.5" font-family="Helvetica,sans-Serif" font-size="10.00">iostream</text>
</a>
</g>
</g>
<!-- Node9&#45;&gt;Node10 -->
<g id="edge12_Node000009_Node000010" class="edge">
<title>Node9&#45;&gt;Node10</title>
<g id="a_edge12_Node000009_Node000010"><a xlink:title=" ">
<path fill="none" stroke="#63b8ff" d="M279.83,-111.59C254.63,-102.87 216.89,-89.81 188.76,-80.07"/>
<polygon fill="#63b8ff" stroke="#63b8ff" points="190.15,-76.85 179.55,-76.88 187.86,-83.46 190.15,-76.85"/>
</a>
</g>
</g>
<!-- Node11 -->
<g id="Node000011" class="node">
<title>Node11</title>
<g id="a_Node000011"><a xlink:title=" ">
<polygon fill="#e0e0e0" stroke="#999999" points="238.12,-76 195.88,-76 195.88,-56 238.12,-56 238.12,-76"/>
<text text-anchor="middle" x="217" y="-62.5" font-family="Helvetica,sans-Serif" font-size="10.00">cstdio</text>
</a>
</g>
</g>
<!-- Node9&#45;&gt;Node11 -->
<g id="edge13_Node000009_Node000011" class="edge">
<title>Node9&#45;&gt;Node11</title>
<g id="a_edge13_Node000009_Node000011"><a xlink:title=" ">
<path fill="none" stroke="#63b8ff" d="M291.32,-111.59C277.86,-103.51 258.18,-91.71 242.46,-82.27"/>
<polygon fill="#63b8ff" stroke="#63b8ff" points="244.47,-79.4 234.1,-77.26 240.87,-85.4 244.47,-79.4"/>
</a>
</g>
</g>
<!-- Node12 -->
<g id="Node000012" class="node">
<title>Node12</title>
<g id="a_Node000012"><a xlink:title=" ">
<polygon fill="#e0e0e0" stroke="#999999" points="317.88,-76 256.12,-76 256.12,-56 317.88,-56 317.88,-76"/>
<text text-anchor="middle" x="287" y="-62.5" font-family="Helvetica,sans-Serif" font-size="10.00">type_traits</text>
</a>
</g>
</g>
<!-- Node9&#45;&gt;Node12 -->
<g id="edge14_Node000009_Node000012" class="edge">
<title>Node9&#45;&gt;Node12</title>
<g id="a_edge14_Node000009_Node000012"><a xlink:title=" ">
<path fill="none" stroke="#63b8ff" d="M303.52,-111.59C300.99,-104.78 297.49,-95.32 294.36,-86.86"/>
<polygon fill="#63b8ff" stroke="#63b8ff" points="297.72,-85.88 290.97,-77.72 291.16,-88.31 297.72,-85.88"/>
</a>
</g>
</g>
<!-- Node13 -->
<g id="Node000013" class="node">
<title>Node13</title>
<g id="a_Node000013"><a xlink:title=" ">
<polygon fill="#e0e0e0" stroke="#999999" points="383.75,-76 336.25,-76 336.25,-56 383.75,-56 383.75,-76"/>
<text text-anchor="middle" x="360" y="-62.5" font-family="Helvetica,sans-Serif" font-size="10.00">cstddef</text>
</a>
</g>
</g>
<!-- Node9&#45;&gt;Node13 -->
<g id="edge15_Node000009_Node000013" class="edge">
<title>Node9&#45;&gt;Node13</title>
<g id="a_edge15_Node000009_Node000013"><a xlink:title=" ">
<path fill="none" stroke="#63b8ff" d="M316.23,-111.59C323.6,-104.08 334.13,-93.35 343.02,-84.3"/>
<polygon fill="#63b8ff" stroke="#63b8ff" points="345.31,-86.97 349.81,-77.38 340.31,-82.06 345.31,-86.97"/>
</a>
</g>
</g>
</g>
</svg>
