<?xml version="1.0" encoding="UTF-8" standalone="no"?>
<!DOCTYPE svg PUBLIC "-//W3C//DTD SVG 1.1//EN"
 "http://www.w3.org/Graphics/SVG/1.1/DTD/svg11.dtd">
<!-- Generated by graphviz version 10.0.1 (20240210.2158)
 -->
<!-- Title: AETimer/include/AETimer.hpp Pages: 1 -->
<svg width="507pt" height="252pt"
 viewBox="0.00 0.00 507.25 252.00" xmlns="http://www.w3.org/2000/svg" xmlns:xlink="http://www.w3.org/1999/xlink">
<g id="graph0" class="graph" transform="scale(1 1) rotate(0) translate(4 248)">
<title>AETimer/include/AETimer.hpp</title>
<!-- Node1 -->
<g id="Node000001" class="node">
<title>Node1</title>
<g id="a_Node000001"><a xlink:title=" ">
<polygon fill="#999999" stroke="#666666" points="499.25,-244 352.75,-244 352.75,-224 499.25,-224 499.25,-244"/>
<text text-anchor="middle" x="426" y="-230.5" font-family="Helvetica,sans-Serif" font-size="10.00">AETimer/include/AETimer.hpp</text>
</a>
</g>
</g>
<!-- Node2 -->
<g id="Node000002" class="node">
<title>Node2</title>
<g id="a_Node000002"><a xlink:href="../../de/d72/_a_e_frame_8hpp.html" target="_top" xlink:title=" ">
<polygon fill="white" stroke="#666666" points="338.88,-188 229.12,-188 229.12,-168 338.88,-168 338.88,-188"/>
<text text-anchor="middle" x="284" y="-174.5" font-family="Helvetica,sans-Serif" font-size="10.00">include/AEFrame.hpp</text>
</a>
</g>
</g>
<!-- Node1&#45;&gt;Node2 -->
<g id="edge1_Node000001_Node000002" class="edge">
<title>Node1&#45;&gt;Node2</title>
<g id="a_edge1_Node000001_Node000002"><a xlink:title=" ">
<path fill="none" stroke="#63b8ff" d="M401.27,-223.59C378.7,-215.01 345.09,-202.23 319.63,-192.55"/>
<polygon fill="#63b8ff" stroke="#63b8ff" points="320.93,-189.3 310.34,-189.02 318.45,-195.84 320.93,-189.3"/>
</a>
</g>
</g>
<!-- Node8 -->
<g id="Node000008" class="node">
<title>Node8</title>
<g id="a_Node000008"><a xlink:title=" ">
<polygon fill="#e0e0e0" stroke="#999999" points="383.5,-20 340.5,-20 340.5,0 383.5,0 383.5,-20"/>
<text text-anchor="middle" x="362" y="-6.5" font-family="Helvetica,sans-Serif" font-size="10.00">thread</text>
</a>
</g>
</g>
<!-- Node1&#45;&gt;Node8 -->
<g id="edge13_Node000001_Node000008" class="edge">
<title>Node1&#45;&gt;Node8</title>
<g id="a_edge13_Node000001_Node000008"><a xlink:title=" ">
<path fill="none" stroke="#63b8ff" d="M431.9,-223.67C448.69,-195.79 493.35,-111.61 458,-56 444.13,-34.17 416.56,-22.75 394.52,-16.89"/>
<polygon fill="#63b8ff" stroke="#63b8ff" points="395.6,-13.55 385.06,-14.65 393.99,-20.36 395.6,-13.55"/>
</a>
</g>
</g>
<!-- Node9 -->
<g id="Node000009" class="node">
<title>Node9</title>
<g id="a_Node000009"><a xlink:title=" ">
<polygon fill="#e0e0e0" stroke="#999999" points="448.62,-76 403.38,-76 403.38,-56 448.62,-56 448.62,-76"/>
<text text-anchor="middle" x="426" y="-62.5" font-family="Helvetica,sans-Serif" font-size="10.00">atomic</text>
</a>
</g>
</g>
<!-- Node1&#45;&gt;Node9 -->
<g id="edge12_Node000001_Node000009" class="edge">
<title>Node1&#45;&gt;Node9</title>
<g id="a_edge12_Node000001_Node000009"><a xlink:title=" ">
<path fill="none" stroke="#63b8ff" d="M426,-223.6C426,-197.46 426,-123.48 426,-87.36"/>
<polygon fill="#63b8ff" stroke="#63b8ff" points="429.5,-87.81 426,-77.81 422.5,-87.81 429.5,-87.81"/>
</a>
</g>
</g>
<!-- Node3 -->
<g id="Node000003" class="node">
<title>Node3</title>
<g id="a_Node000003"><a xlink:href="../../dd/dd8/_a_e_flags_8hpp.html" target="_top" xlink:title="This file contains the flags to manipulate engine&#39;s funcitonality.">
<polygon fill="white" stroke="#666666" points="106,-76 0,-76 0,-56 106,-56 106,-76"/>
<text text-anchor="middle" x="53" y="-62.5" font-family="Helvetica,sans-Serif" font-size="10.00">include/AEFlags.hpp</text>
</a>
</g>
</g>
<!-- Node2&#45;&gt;Node3 -->
<g id="edge2_Node000002_Node000003" class="edge">
<title>Node2&#45;&gt;Node3</title>
<g id="a_edge2_Node000002_Node000003"><a xlink:title=" ">
<path fill="none" stroke="#63b8ff" d="M264.31,-167.62C223.82,-148.34 131.02,-104.15 83,-81.29"/>
<polygon fill="#63b8ff" stroke="#63b8ff" points="84.54,-78.14 74.01,-77.01 81.54,-84.46 84.54,-78.14"/>
</a>
</g>
</g>
<!-- Node4 -->
<g id="Node000004" class="node">
<title>Node4</title>
<g id="a_Node000004"><a xlink:href="../../d7/d7f/_a_e_module_base_8hpp.html" target="_top" xlink:title=" ">
<polygon fill="white" stroke="#666666" points="352,-132 216,-132 216,-112 352,-112 352,-132"/>
<text text-anchor="middle" x="284" y="-118.5" font-family="Helvetica,sans-Serif" font-size="10.00">include/AEModuleBase.hpp</text>
</a>
</g>
</g>
<!-- Node2&#45;&gt;Node4 -->
<g id="edge3_Node000002_Node000004" class="edge">
<title>Node2&#45;&gt;Node4</title>
<g id="a_edge3_Node000002_Node000004"><a xlink:title=" ">
<path fill="none" stroke="#63b8ff" d="M284,-167.59C284,-161.01 284,-151.96 284,-143.73"/>
<polygon fill="#63b8ff" stroke="#63b8ff" points="287.5,-143.81 284,-133.81 280.5,-143.81 287.5,-143.81"/>
</a>
</g>
</g>
<!-- Node4&#45;&gt;Node3 -->
<g id="edge8_Node000004_Node000003" class="edge">
<title>Node4&#45;&gt;Node3</title>
<g id="a_edge8_Node000004_Node000003"><a xlink:title=" ">
<path fill="none" stroke="#63b8ff" d="M243.5,-111.53C204.86,-102.5 146.49,-88.85 104.55,-79.05"/>
<polygon fill="#63b8ff" stroke="#63b8ff" points="105.46,-75.67 94.93,-76.8 103.87,-82.49 105.46,-75.67"/>
</a>
</g>
</g>
<!-- Node5 -->
<g id="Node000005" class="node">
<title>Node5</title>
<g id="a_Node000005"><a xlink:href="../../dc/d89/_a_e_typedefs_8hpp.html" target="_top" xlink:title="This file contains the engine&#39;s typedefs and variable type aliases.">
<polygon fill="white" stroke="#666666" points="245.5,-76 124.5,-76 124.5,-56 245.5,-56 245.5,-76"/>
<text text-anchor="middle" x="185" y="-62.5" font-family="Helvetica,sans-Serif" font-size="10.00">include/AETypedefs.hpp</text>
</a>
</g>
</g>
<!-- Node4&#45;&gt;Node5 -->
<g id="edge4_Node000004_Node000005" class="edge">
<title>Node4&#45;&gt;Node5</title>
<g id="a_edge4_Node000004_Node000005"><a xlink:title=" ">
<path fill="none" stroke="#63b8ff" d="M266.76,-111.59C251.66,-103.36 229.47,-91.26 212.02,-81.74"/>
<polygon fill="#63b8ff" stroke="#63b8ff" points="214.16,-78.92 203.71,-77.2 210.81,-85.07 214.16,-78.92"/>
</a>
</g>
</g>
<!-- Node4&#45;&gt;Node9 -->
<g id="edge9_Node000004_Node000009" class="edge">
<title>Node4&#45;&gt;Node9</title>
<g id="a_edge9_Node000004_Node000009"><a xlink:title=" ">
<path fill="none" stroke="#63b8ff" d="M308.73,-111.59C331.85,-102.8 366.56,-89.6 392.23,-79.84"/>
<polygon fill="#63b8ff" stroke="#63b8ff" points="393.44,-83.13 401.54,-76.3 390.95,-76.58 393.44,-83.13"/>
</a>
</g>
</g>
<!-- Node10 -->
<g id="Node000010" class="node">
<title>Node10</title>
<g id="a_Node000010"><a xlink:title=" ">
<polygon fill="#e0e0e0" stroke="#999999" points="304,-76 264,-76 264,-56 304,-56 304,-76"/>
<text text-anchor="middle" x="284" y="-62.5" font-family="Helvetica,sans-Serif" font-size="10.00">string</text>
</a>
</g>
</g>
<!-- Node4&#45;&gt;Node10 -->
<g id="edge10_Node000004_Node000010" class="edge">
<title>Node4&#45;&gt;Node10</title>
<g id="a_edge10_Node000004_Node000010"><a xlink:title=" ">
<path fill="none" stroke="#63b8ff" d="M284,-111.59C284,-105.01 284,-95.96 284,-87.73"/>
<polygon fill="#63b8ff" stroke="#63b8ff" points="287.5,-87.81 284,-77.81 280.5,-87.81 287.5,-87.81"/>
</a>
</g>
</g>
<!-- Node11 -->
<g id="Node000011" class="node">
<title>Node11</title>
<g id="a_Node000011"><a xlink:title=" ">
<polygon fill="#e0e0e0" stroke="#999999" points="385.62,-76 322.38,-76 322.38,-56 385.62,-56 385.62,-76"/>
<text text-anchor="middle" x="354" y="-62.5" font-family="Helvetica,sans-Serif" font-size="10.00">string_view</text>
</a>
</g>
</g>
<!-- Node4&#45;&gt;Node11 -->
<g id="edge11_Node000004_Node000011" class="edge">
<title>Node4&#45;&gt;Node11</title>
<g id="a_edge11_Node000004_Node000011"><a xlink:title=" ">
<path fill="none" stroke="#63b8ff" d="M296.19,-111.59C306.33,-103.77 320.99,-92.46 333.01,-83.19"/>
<polygon fill="#63b8ff" stroke="#63b8ff" points="334.97,-86.1 340.75,-77.22 330.69,-80.56 334.97,-86.1"/>
</a>
</g>
</g>
<!-- Node6 -->
<g id="Node000006" class="node">
<title>Node6</title>
<g id="a_Node000006"><a xlink:title=" ">
<polygon fill="#e0e0e0" stroke="#999999" points="239.25,-20 194.75,-20 194.75,0 239.25,0 239.25,-20"/>
<text text-anchor="middle" x="217" y="-6.5" font-family="Helvetica,sans-Serif" font-size="10.00">climits</text>
</a>
</g>
</g>
<!-- Node5&#45;&gt;Node6 -->
<g id="edge5_Node000005_Node000006" class="edge">
<title>Node5&#45;&gt;Node6</title>
<g id="a_edge5_Node000005_Node000006"><a xlink:title=" ">
<path fill="none" stroke="#63b8ff" d="M190.57,-55.59C194.75,-48.55 200.6,-38.67 205.74,-30"/>
<polygon fill="#63b8ff" stroke="#63b8ff" points="208.63,-31.99 210.72,-21.6 202.61,-28.42 208.63,-31.99"/>
</a>
</g>
</g>
<!-- Node7 -->
<g id="Node000007" class="node">
<title>Node7</title>
<g id="a_Node000007"><a xlink:title=" ">
<polygon fill="#e0e0e0" stroke="#999999" points="176.62,-20 131.38,-20 131.38,0 176.62,0 176.62,-20"/>
<text text-anchor="middle" x="154" y="-6.5" font-family="Helvetica,sans-Serif" font-size="10.00">chrono</text>
</a>
</g>
</g>
<!-- Node5&#45;&gt;Node7 -->
<g id="edge6_Node000005_Node000007" class="edge">
<title>Node5&#45;&gt;Node7</title>
<g id="a_edge6_Node000005_Node000007"><a xlink:title=" ">
<path fill="none" stroke="#63b8ff" d="M179.6,-55.59C175.56,-48.55 169.88,-38.67 164.91,-30"/>
<polygon fill="#63b8ff" stroke="#63b8ff" points="168.11,-28.54 160.09,-21.61 162.03,-32.03 168.11,-28.54"/>
</a>
</g>
</g>
<!-- Node5&#45;&gt;Node8 -->
<g id="edge7_Node000005_Node000008" class="edge">
<title>Node5&#45;&gt;Node8</title>
<g id="a_edge7_Node000005_Node000008"><a xlink:title=" ">
<path fill="none" stroke="#63b8ff" d="M215.83,-55.59C247.64,-45.89 297.05,-30.82 329.47,-20.93"/>
<polygon fill="#63b8ff" stroke="#63b8ff" points="330.18,-24.37 338.72,-18.1 328.13,-17.67 330.18,-24.37"/>
</a>
</g>
</g>
</g>
</svg>
