<?xml version="1.0" encoding="UTF-8" standalone="no"?>
<!DOCTYPE svg PUBLIC "-//W3C//DTD SVG 1.1//EN"
 "http://www.w3.org/Graphics/SVG/1.1/DTD/svg11.dtd">
<!-- Generated by graphviz version 10.0.1 (20240210.2158)
 -->
<!-- Title: AEFrame Pages: 1 -->
<!--zoomable 305 -->

<svg id="main" version="1.1" xmlns="http://www.w3.org/2000/svg" xmlns:xlink="http://www.w3.org/1999/xlink" xml:space="preserve" onload="init(evt)">
<style type="text/css"><![CDATA[
.node, .edge {opacity: 0.7;}
.node.selected, .edge.selected {opacity: 1;}
.edge:hover path { stroke: red; }
.edge:hover polygon { stroke: red; fill: red; }
]]></style>

<defs>
  <circle id="rim" cx="0" cy="0" r="7"/>
  <circle id="rim2" cx="0" cy="0" r="3.5"/>
  <g id="zoomPlus">
    <use xlink:href="#rim" fill="#404040"><set attributeName="fill" to="#808080" begin="zoomplus.mouseover" end="zoomplus.mouseout"/></use>
    <path d="M-4,0h8M0,-4v8" fill="none" stroke="white" stroke-width="1.5" pointer-events="none"/>
  </g>
  <g id="zoomMin">
    <use xlink:href="#rim" fill="#404040"><set attributeName="fill" to="#808080" begin="zoomminus.mouseover" end="zoomminus.mouseout"/></use>
    <path d="M-4,0h8" fill="none" stroke="white" stroke-width="1.5" pointer-events="none"/>
  </g>
  <g id="arrowUp" transform="translate(30 24)">
    <use xlink:href="#rim"/>
    <path pointer-events="none" fill="none" stroke="white" stroke-width="1.5" d="M0,-3.0v7 M-2.5,-0.5L0,-3.0L2.5,-0.5"/>
  </g>
  <g id="arrowRight" transform="rotate(90) translate(36 -43)">
    <use xlink:href="#rim"/>
    <path pointer-events="none" fill="none" stroke="white" stroke-width="1.5" d="M0,-3.0v7 M-2.5,-0.5L0,-3.0L2.5,-0.5"/>
  </g>
  <g id="arrowDown" transform="rotate(180) translate(-30 -48)">
    <use xlink:href="#rim"/>
    <path pointer-events="none" fill="none" stroke="white" stroke-width="1.5" d="M0,-3.0v7 M-2.5,-0.5L0,-3.0L2.5,-0.5"/>
  </g>
  <g id="arrowLeft" transform="rotate(270) translate(-36 17)">
    <use xlink:href="#rim"/>
    <path pointer-events="none" fill="none" stroke="white" stroke-width="1.5" d="M0,-3.0v7 M-2.5,-0.5L0,-3.0L2.5,-0.5"/>
  </g>
  <g id="resetDef">
    <use xlink:href="#rim2" fill="#404040"><set attributeName="fill" to="#808080" begin="reset.mouseover" end="reset.mouseout"/></use>
  </g>
</defs>
<script type="application/ecmascript">
var viewWidth = 1103;
var viewHeight = 305;
var sectionId = 'dynsection-1';
</script>
<script type="application/ecmascript" xlink:href="../../svg.min.js"/>
<svg id="graph" class="graph">
<g id="viewport">
<title>AEFrame</title>
<!-- Node1 -->
<g id="Node000001" class="node">
<title>Node1</title>
<g id="a_Node000001"><a xlink:title="This module is the engine&#39;s precise frame/loop&#45;cycle limiter.">
<polygon fill="#999999" stroke="#666666" points="1095.05,-124 1037.8,-124 1037.8,-104 1095.05,-104 1095.05,-124"/>
<text text-anchor="middle" x="1066.43" y="-110.5" font-family="Helvetica,sans-Serif" font-size="10.00">AEFrame</text>
</a>
</g>
</g>
<!-- Node2 -->
<g id="Node000002" class="node">
<title>Node2</title>
<g id="a_Node000002"><a xlink:href="../../d0/d8a/class_____a_e_module_base.html" target="_top" xlink:title=" ">
<polygon fill="white" stroke="#666666" points="910.68,-222 757.43,-222 757.43,-202 910.68,-202 910.68,-222"/>
<text text-anchor="middle" x="834.05" y="-208.5" font-family="Helvetica,sans-Serif" font-size="10.00">__AEModuleBase&lt; AEFrame &gt;</text>
</a>
</g>
</g>
<!-- Node2&#45;&gt;Node1 -->
<g id="edge1_Node000001_Node000002" class="edge">
<title>Node2&#45;&gt;Node1</title>
<g id="a_edge1_Node000001_Node000002"><a xlink:title=" ">
<path fill="none" stroke="#63b8ff" d="M922.22,-209.62C954.87,-205.35 991,-196.33 1019.8,-178 1040.52,-164.81 1054.66,-138.53 1061.23,-124.09"/>
<polygon fill="#63b8ff" stroke="#63b8ff" points="921.87,-206.13 912.33,-210.76 922.67,-213.09 921.87,-206.13"/>
</a>
</g>
</g>
<!-- Node3 -->
<g id="Node000003" class="node">
<title>Node3</title>
<g id="a_Node000003"><a xlink:title=" ">
<polygon fill="white" stroke="#666666" points="398.3,-284 269.8,-284 269.8,-264 398.3,-264 398.3,-284"/>
<text text-anchor="middle" x="334.05" y="-270.5" font-family="Helvetica,sans-Serif" font-size="10.00">std::atomic&lt; std::size_t &gt;</text>
</a>
</g>
</g>
<!-- Node3&#45;&gt;Node2 -->
<g id="edge2_Node000002_Node000003" class="edge">
<title>Node3&#45;&gt;Node2</title>
<g id="a_edge2_Node000002_Node000003"><a xlink:title=" ">
<path fill="none" stroke="#9a32cd" stroke-dasharray="5,2" d="M410.01,-276.45C441.83,-276.85 479.29,-276.49 513.05,-274 609.62,-266.87 633.92,-262.52 728.55,-242 753.08,-236.68 780.33,-228.79 800.85,-222.44"/>
<polygon fill="#9a32cd" stroke="#9a32cd" points="410.13,-272.95 400.08,-276.29 410.02,-279.95 410.13,-272.95"/>
</a>
</g>
<text text-anchor="middle" x="589.68" y="-274.5" font-family="Helvetica,sans-Serif" font-size="10.00" fill="grey"> m_ullModulesAlive</text>
</g>
<!-- Node10 -->
<g id="Node000010" class="node">
<title>Node10</title>
<g id="a_Node000010"><a xlink:href="../../d0/d8a/class_____a_e_module_base.html" target="_top" xlink:title="This is a base class for all the modules in the engine; all basic modules inherit from it.">
<polygon fill="white" stroke="#666666" points="648.3,-243 531.05,-243 531.05,-223 648.3,-223 648.3,-243"/>
<text text-anchor="middle" x="589.68" y="-229.5" font-family="Helvetica,sans-Serif" font-size="10.00">__AEModuleBase&lt; T &gt;</text>
</a>
</g>
</g>
<!-- Node3&#45;&gt;Node10 -->
<g id="edge11_Node000010_Node000003" class="edge">
<title>Node3&#45;&gt;Node10</title>
<g id="a_edge11_Node000010_Node000003"><a xlink:title=" ">
<path fill="none" stroke="#9a32cd" stroke-dasharray="5,2" d="M409.9,-261.9C448.47,-255.67 494.79,-248.18 530.62,-242.38"/>
<polygon fill="#9a32cd" stroke="#9a32cd" points="409.53,-258.41 400.22,-263.47 410.65,-265.32 409.53,-258.41"/>
</a>
</g>
<text text-anchor="middle" x="464.68" y="-262.5" font-family="Helvetica,sans-Serif" font-size="10.00" fill="grey"> m_ullModulesAlive</text>
</g>
<!-- Node4 -->
<g id="Node000004" class="node">
<title>Node4</title>
<g id="a_Node000004"><a xlink:title=" ">
<polygon fill="white" stroke="#666666" points="144.18,-297 101.93,-297 101.93,-277 144.18,-277 144.18,-297"/>
<text text-anchor="middle" x="123.05" y="-283.5" font-family="Helvetica,sans-Serif" font-size="10.00">size_t</text>
</a>
</g>
</g>
<!-- Node4&#45;&gt;Node3 -->
<g id="edge3_Node000003_Node000004" class="edge">
<title>Node4&#45;&gt;Node3</title>
<g id="a_edge3_Node000003_Node000004"><a xlink:title=" ">
<path fill="none" stroke="#9a32cd" stroke-dasharray="5,2" d="M155.95,-285.02C186.08,-283.14 232.11,-280.28 269.7,-277.94"/>
<polygon fill="#9a32cd" stroke="#9a32cd" points="155.74,-281.52 145.98,-285.64 156.18,-288.51 155.74,-281.52"/>
</a>
</g>
<text text-anchor="middle" x="218.43" y="-285.5" font-family="Helvetica,sans-Serif" font-size="10.00" fill="grey"> ptr</text>
</g>
<!-- Node5 -->
<g id="Node000005" class="node">
<title>Node5</title>
<g id="a_Node000005"><a xlink:title=" ">
<polygon fill="white" stroke="#666666" points="167.05,-244 79.05,-244 79.05,-224 167.05,-224 167.05,-244"/>
<text text-anchor="middle" x="123.05" y="-230.5" font-family="Helvetica,sans-Serif" font-size="10.00">std::atomic&lt; T &gt;</text>
</a>
</g>
</g>
<!-- Node5&#45;&gt;Node3 -->
<g id="edge4_Node000003_Node000005" class="edge">
<title>Node5&#45;&gt;Node3</title>
<g id="a_edge4_Node000003_Node000005"><a xlink:title=" ">
<path fill="none" stroke="orange" stroke-dasharray="5,2" d="M178.31,-244.38C209.05,-250.27 247.41,-257.61 278.24,-263.51"/>
<polygon fill="orange" stroke="orange" points="179.32,-241.01 168.84,-242.57 178.01,-247.89 179.32,-241.01"/>
</a>
</g>
<text text-anchor="middle" x="218.43" y="-259.5" font-family="Helvetica,sans-Serif" font-size="10.00" fill="grey"> &lt; std::size_t &gt;</text>
</g>
<!-- Node7 -->
<g id="Node000007" class="node">
<title>Node7</title>
<g id="a_Node000007"><a xlink:title=" ">
<polygon fill="white" stroke="#666666" points="385.55,-211 282.55,-211 282.55,-191 385.55,-191 385.55,-211"/>
<text text-anchor="middle" x="334.05" y="-197.5" font-family="Helvetica,sans-Serif" font-size="10.00">std::atomic&lt; ullint &gt;</text>
</a>
</g>
</g>
<!-- Node5&#45;&gt;Node7 -->
<g id="edge8_Node000007_Node000005" class="edge">
<title>Node5&#45;&gt;Node7</title>
<g id="a_edge8_Node000007_Node000005"><a xlink:title=" ">
<path fill="none" stroke="orange" stroke-dasharray="5,2" d="M171.7,-220.81C176.19,-219.78 180.7,-218.82 185.05,-218 217.08,-211.99 253.43,-207.78 282.09,-205.05"/>
<polygon fill="orange" stroke="orange" points="170.99,-217.38 162.1,-223.15 172.65,-224.18 170.99,-217.38"/>
</a>
</g>
<text text-anchor="middle" x="218.43" y="-220.5" font-family="Helvetica,sans-Serif" font-size="10.00" fill="grey"> &lt; ullint &gt;</text>
</g>
<!-- Node6 -->
<g id="Node000006" class="node">
<title>Node6</title>
<g id="a_Node000006"><a xlink:title=" ">
<polygon fill="white" stroke="#666666" points="28.8,-244 0,-244 0,-224 28.8,-224 28.8,-244"/>
<text text-anchor="middle" x="14.4" y="-230.5" font-family="Helvetica,sans-Serif" font-size="10.00">T</text>
</a>
</g>
</g>
<!-- Node6&#45;&gt;Node5 -->
<g id="edge5_Node000005_Node000006" class="edge">
<title>Node6&#45;&gt;Node5</title>
<g id="a_edge5_Node000005_Node000006"><a xlink:title=" ">
<path fill="none" stroke="#9a32cd" stroke-dasharray="5,2" d="M40.2,-234C51.66,-234 65.6,-234 78.71,-234"/>
<polygon fill="#9a32cd" stroke="#9a32cd" points="40.42,-230.5 30.42,-234 40.42,-237.5 40.42,-230.5"/>
</a>
</g>
<text text-anchor="middle" x="53.93" y="-236.5" font-family="Helvetica,sans-Serif" font-size="10.00" fill="grey"> ptr</text>
</g>
<!-- Node7&#45;&gt;Node2 -->
<g id="edge6_Node000002_Node000007" class="edge">
<title>Node7&#45;&gt;Node2</title>
<g id="a_edge6_Node000002_Node000007"><a xlink:title=" ">
<path fill="none" stroke="#9a32cd" stroke-dasharray="5,2" d="M397.15,-200.27C460.36,-199.74 561.17,-199.5 648.3,-202 684.1,-203.03 723.76,-205.05 757.13,-207.02"/>
<polygon fill="#9a32cd" stroke="#9a32cd" points="397.27,-196.77 387.3,-200.36 397.34,-203.77 397.27,-196.77"/>
</a>
</g>
<text text-anchor="middle" x="589.68" y="-204.5" font-family="Helvetica,sans-Serif" font-size="10.00" fill="grey"> m_ullInstanceCounter</text>
</g>
<!-- Node7&#45;&gt;Node10 -->
<g id="edge12_Node000010_Node000007" class="edge">
<title>Node7&#45;&gt;Node10</title>
<g id="a_edge12_Node000010_Node000007"><a xlink:title=" ">
<path fill="none" stroke="#9a32cd" stroke-dasharray="5,2" d="M396.94,-208.81C437.8,-213.96 490.98,-220.67 530.96,-225.72"/>
<polygon fill="#9a32cd" stroke="#9a32cd" points="397.63,-205.37 387.27,-207.59 396.75,-212.31 397.63,-205.37"/>
</a>
</g>
<text text-anchor="middle" x="464.68" y="-224.5" font-family="Helvetica,sans-Serif" font-size="10.00" fill="grey"> m_ullInstanceCounter</text>
</g>
<!-- Node8 -->
<g id="Node000008" class="node">
<title>Node8</title>
<g id="a_Node000008"><a xlink:title=" ">
<polygon fill="white" stroke="#666666" points="141.18,-192 104.93,-192 104.93,-172 141.18,-172 141.18,-192"/>
<text text-anchor="middle" x="123.05" y="-178.5" font-family="Helvetica,sans-Serif" font-size="10.00">ullint</text>
</a>
</g>
</g>
<!-- Node8&#45;&gt;Node7 -->
<g id="edge7_Node000007_Node000008" class="edge">
<title>Node8&#45;&gt;Node7</title>
<g id="a_edge7_Node000007_Node000008"><a xlink:title=" ">
<path fill="none" stroke="#9a32cd" stroke-dasharray="5,2" d="M152.74,-180.51C178.7,-179.57 217.94,-179.16 251.8,-183 265.58,-184.56 280.45,-187.48 293.66,-190.53"/>
<polygon fill="#9a32cd" stroke="#9a32cd" points="152.83,-177 142.99,-180.92 153.13,-184 152.83,-177"/>
</a>
</g>
<text text-anchor="middle" x="218.43" y="-185.5" font-family="Helvetica,sans-Serif" font-size="10.00" fill="grey"> ptr</text>
</g>
<!-- Node9 -->
<g id="Node000009" class="node">
<title>Node9</title>
<g id="a_Node000009"><a xlink:title=" ">
<polygon fill="white" stroke="#666666" points="365.68,-154 302.43,-154 302.43,-134 365.68,-134 365.68,-154"/>
<text text-anchor="middle" x="334.05" y="-140.5" font-family="Helvetica,sans-Serif" font-size="10.00">const ullint</text>
</a>
</g>
</g>
<!-- Node9&#45;&gt;Node2 -->
<g id="edge9_Node000002_Node000009" class="edge">
<title>Node9&#45;&gt;Node2</title>
<g id="a_edge9_Node000002_Node000009"><a xlink:title=" ">
<path fill="none" stroke="#9a32cd" stroke-dasharray="5,2" d="M377.11,-145.58C413.25,-147.23 466.71,-150.4 513.05,-156 609.08,-167.61 720.06,-188.79 782.86,-201.52"/>
<polygon fill="#9a32cd" stroke="#9a32cd" points="377.67,-142.1 367.53,-145.16 377.36,-149.09 377.67,-142.1"/>
</a>
</g>
<text text-anchor="middle" x="589.68" y="-177.5" font-family="Helvetica,sans-Serif" font-size="10.00" fill="grey"> m_ullModuleId</text>
</g>
<!-- Node9&#45;&gt;Node10 -->
<g id="edge13_Node000010_Node000009" class="edge">
<title>Node9&#45;&gt;Node10</title>
<g id="a_edge13_Node000010_Node000009"><a xlink:title=" ">
<path fill="none" stroke="#9a32cd" stroke-dasharray="5,2" d="M376.9,-151.28C414.07,-158.83 469.16,-172.7 513.05,-195 522.09,-199.59 522.29,-203.9 531.05,-209 539.94,-214.19 550.17,-218.83 559.52,-222.62"/>
<polygon fill="#9a32cd" stroke="#9a32cd" points="377.94,-147.92 367.45,-149.43 376.59,-154.79 377.94,-147.92"/>
</a>
</g>
<text text-anchor="middle" x="464.68" y="-197.5" font-family="Helvetica,sans-Serif" font-size="10.00" fill="grey"> m_ullModuleId</text>
</g>
<!-- Node10&#45;&gt;Node2 -->
<g id="edge10_Node000002_Node000010" class="edge">
<title>Node10&#45;&gt;Node2</title>
<g id="a_edge10_Node000002_Node000010"><a xlink:title=" ">
<path fill="none" stroke="orange" stroke-dasharray="5,2" d="M660.07,-226.99C690.41,-224.36 726.08,-221.27 757.12,-218.58"/>
<polygon fill="orange" stroke="orange" points="659.9,-223.49 650.24,-227.84 660.5,-230.46 659.9,-223.49"/>
</a>
</g>
<text text-anchor="middle" x="697.43" y="-228.5" font-family="Helvetica,sans-Serif" font-size="10.00" fill="grey"> &lt; AEFrame &gt;</text>
</g>
<!-- Node11 -->
<g id="Node000011" class="node">
<title>Node11</title>
<g id="a_Node000011"><a xlink:title=" ">
<polygon fill="white" stroke="#666666" points="918.55,-184 749.55,-184 749.55,-164 918.55,-164 918.55,-184"/>
<text text-anchor="middle" x="834.05" y="-170.5" font-family="Helvetica,sans-Serif" font-size="10.00">static constexpr timeDur&lt; double &gt;</text>
</a>
</g>
</g>
<!-- Node11&#45;&gt;Node1 -->
<g id="edge14_Node000001_Node000011" class="edge">
<title>Node11&#45;&gt;Node1</title>
<g id="a_edge14_Node000001_Node000011"><a xlink:title=" ">
<path fill="none" stroke="#9a32cd" stroke-dasharray="5,2" d="M929.82,-164.62C959.28,-159.85 991.45,-152.7 1019.8,-142 1031.28,-137.67 1043.05,-130.36 1051.76,-124.29"/>
<polygon fill="#9a32cd" stroke="#9a32cd" points="929.53,-161.13 920.17,-166.1 930.59,-168.04 929.53,-161.13"/>
</a>
</g>
<text text-anchor="middle" x="979.68" y="-164.5" font-family="Helvetica,sans-Serif" font-size="10.00" fill="grey"> m_tdResetTime</text>
</g>
<!-- Node12 -->
<g id="Node000012" class="node">
<title>Node12</title>
<g id="a_Node000012"><a xlink:title=" ">
<polygon fill="white" stroke="#666666" points="882.18,-146 785.93,-146 785.93,-126 882.18,-126 882.18,-146"/>
<text text-anchor="middle" x="834.05" y="-132.5" font-family="Helvetica,sans-Serif" font-size="10.00">timeDur&lt; double &gt;</text>
</a>
</g>
</g>
<!-- Node12&#45;&gt;Node1 -->
<g id="edge15_Node000001_Node000012" class="edge">
<title>Node12&#45;&gt;Node1</title>
<g id="a_edge15_Node000001_Node000012"><a xlink:title=" ">
<path fill="none" stroke="#9a32cd" stroke-dasharray="5,2" d="M893.86,-130.38C939.99,-125.98 1002.12,-120.05 1037.56,-116.66"/>
<polygon fill="#9a32cd" stroke="#9a32cd" points="893.63,-126.89 884.01,-131.32 894.3,-133.86 893.63,-126.89"/>
</a>
</g>
<text text-anchor="middle" x="979.68" y="-128.5" font-family="Helvetica,sans-Serif" font-size="10.00" fill="grey"> m_tdChronoDelay</text>
</g>
<!-- Node13 -->
<g id="Node000013" class="node">
<title>Node13</title>
<g id="a_Node000013"><a xlink:title=" ">
<polygon fill="white" stroke="#666666" points="921.55,-108 746.55,-108 746.55,-76 921.55,-76 921.55,-108"/>
<text text-anchor="start" x="754.55" y="-94.5" font-family="Helvetica,sans-Serif" font-size="10.00">timePoint&lt; AEFrameClock, decltype</text>
<text text-anchor="middle" x="834.05" y="-82.5" font-family="Helvetica,sans-Serif" font-size="10.00">(m_tdChronoDelay)&gt;</text>
</a>
</g>
</g>
<!-- Node13&#45;&gt;Node1 -->
<g id="edge16_Node000001_Node000013" class="edge">
<title>Node13&#45;&gt;Node1</title>
<g id="a_edge16_Node000001_Node000013"><a xlink:title=" ">
<path fill="none" stroke="#9a32cd" stroke-dasharray="5,2" d="M933.29,-94.61C961.34,-96.23 991.87,-98.83 1019.8,-103 1025.6,-103.87 1031.75,-105.11 1037.59,-106.46"/>
<polygon fill="#9a32cd" stroke="#9a32cd" points="933.53,-91.12 923.36,-94.08 933.16,-98.11 933.53,-91.12"/>
</a>
</g>
<text text-anchor="middle" x="979.68" y="-105.5" font-family="Helvetica,sans-Serif" font-size="10.00" fill="grey"> m_tpTimepoint</text>
</g>
<!-- Node14 -->
<g id="Node000014" class="node">
<title>Node14</title>
<g id="a_Node000014"><a xlink:title=" ">
<polygon fill="white" stroke="#666666" points="856.3,-58 811.8,-58 811.8,-38 856.3,-38 856.3,-58"/>
<text text-anchor="middle" x="834.05" y="-44.5" font-family="Helvetica,sans-Serif" font-size="10.00">double</text>
</a>
</g>
</g>
<!-- Node14&#45;&gt;Node1 -->
<g id="edge17_Node000001_Node000014" class="edge">
<title>Node14&#45;&gt;Node1</title>
<g id="a_edge17_Node000001_Node000014"><a xlink:title=" ">
<path fill="none" stroke="#9a32cd" stroke-dasharray="5,2" d="M868.14,-49.11C906.16,-51.42 969.74,-58.48 1019.8,-80 1033.05,-85.7 1046.03,-95.95 1054.73,-103.72"/>
<polygon fill="#9a32cd" stroke="#9a32cd" points="868.43,-45.62 858.26,-48.6 868.06,-52.61 868.43,-45.62"/>
</a>
</g>
<text text-anchor="middle" x="979.68" y="-82.5" font-family="Helvetica,sans-Serif" font-size="10.00" fill="grey"> m_fFPS</text>
</g>
<!-- Node15 -->
<g id="Node000015" class="node">
<title>Node15</title>
<g id="a_Node000015"><a xlink:title=" ">
<polygon fill="white" stroke="#666666" points="851.05,-20 817.05,-20 817.05,0 851.05,0 851.05,-20"/>
<text text-anchor="middle" x="834.05" y="-6.5" font-family="Helvetica,sans-Serif" font-size="10.00">bool</text>
</a>
</g>
</g>
<!-- Node15&#45;&gt;Node1 -->
<g id="edge18_Node000001_Node000015" class="edge">
<title>Node15&#45;&gt;Node1</title>
<g id="a_edge18_Node000001_Node000015"><a xlink:title=" ">
<path fill="none" stroke="#9a32cd" stroke-dasharray="5,2" d="M862.79,-8.14C901.31,-6.93 971.68,-9.87 1019.8,-42 1042.44,-57.12 1056.11,-87.7 1062,-103.71"/>
<polygon fill="#9a32cd" stroke="#9a32cd" points="862.81,-4.63 852.98,-8.57 863.13,-11.62 862.81,-4.63"/>
</a>
</g>
<text text-anchor="middle" x="979.68" y="-44.5" font-family="Helvetica,sans-Serif" font-size="10.00" fill="grey"> m_bNoDelay</text>
</g>
</g>
</svg>

<g id="navigator" transform="translate(0 0)" fill="#404254">
  <rect fill="#f2f5e9" fill-opacity="0.5" stroke="#606060" stroke-width=".5" x="0" y="0" width="60" height="60"/>
  <use id="zoomplus" xlink:href="#zoomPlus" x="17" y="9" onmousedown="handleZoom(evt,'in')"/>
  <use id="zoomminus" xlink:href="#zoomMin" x="42" y="9" onmousedown="handleZoom(evt,'out')"/>
  <use id="reset" xlink:href="#resetDef" x="30" y="36" onmousedown="handleReset()"/>
   <use id="arrowup" xlink:href="#arrowUp" x="0" y="0" onmousedown="handlePan(0,-1)"/>
  <use id="arrowright" xlink:href="#arrowRight" x="0" y="0" onmousedown="handlePan(1,0)"/>
  <use id="arrowdown" xlink:href="#arrowDown" x="0" y="0" onmousedown="handlePan(0,1)"/>
  <use id="arrowleft" xlink:href="#arrowLeft" x="0" y="0" onmousedown="handlePan(-1,0)"/>
</g>
<svg viewBox="0 0 15 15" width="100%" height="30px" preserveAspectRatio="xMaxYMin meet">
 <g id="arrow_out" transform="scale(0.3 0.3)">
  <a xlink:href="class_a_e_frame__coll__graph_org.svg" target="_base">
   <rect id="button" ry="5" rx="5" y="6" x="6" height="38" width="38"
        fill="#f2f5e9" fill-opacity="0.5" stroke="#606060" stroke-width="1.0"/>
   <path id="arrow"
     d="M 11.500037,31.436501 C 11.940474,20.09759 22.043105,11.32322 32.158766,21.979434 L 37.068811,17.246167 C 37.068811,17.246167 37.088388,32 37.088388,32 L 22.160133,31.978069 C 22.160133,31.978069 26.997745,27.140456 26.997745,27.140456 C 18.528582,18.264221 13.291696,25.230495 11.500037,31.436501 z"
     style="fill:#404040;"/>
  </a>
 </g>
</svg>

<style type='text/css'>
<![CDATA[
[data-mouse-over-selected='false'] { opacity: 0.7; }
[data-mouse-over-selected='true']  { opacity: 1.0; }
]]>
</style>
<script type="application/ecmascript"><![CDATA[
document.addEventListener('DOMContentLoaded', (event) => {
  highlightEdges();
  highlightAdjacentNodes();
});
]]></script>
</svg>
