<?xml version="1.0" encoding="UTF-8" standalone="no"?>
<!DOCTYPE svg PUBLIC "-//W3C//DTD SVG 1.1//EN"
 "http://www.w3.org/Graphics/SVG/1.1/DTD/svg11.dtd">
<!-- Generated by graphviz version 10.0.1 (20240210.2158)
 -->
<!-- Title: AEFrame Pages: 1 -->
<svg width="1079pt" height="206pt"
 viewBox="0.00 0.00 1079.05 206.00" xmlns="http://www.w3.org/2000/svg" xmlns:xlink="http://www.w3.org/1999/xlink">
<g id="graph0" class="graph" transform="scale(1 1) rotate(0) translate(4 202)">
<title>AEFrame</title>
<!-- Node1 -->
<g id="Node000001" class="node">
<title>Node1</title>
<g id="a_Node000001"><a xlink:title="This is the ArtyK&#39;s Engine&#39;s frame delay module – it allows to create precise delays for game loops.">
<polygon fill="#999999" stroke="#666666" points="1071.05,-102 1013.8,-102 1013.8,-82 1071.05,-82 1071.05,-102"/>
<text text-anchor="middle" x="1042.43" y="-88.5" font-family="Helvetica,sans-Serif" font-size="10.00">AEFrame</text>
</a>
</g>
</g>
<!-- Node2 -->
<g id="Node000002" class="node">
<title>Node2</title>
<g id="a_Node000002"><a xlink:href="../../d0/d8a/class_____a_e_module_base.html" target="_top" xlink:title=" ">
<polygon fill="white" stroke="#666666" points="891.93,-184 738.68,-184 738.68,-164 891.93,-164 891.93,-184"/>
<text text-anchor="middle" x="815.3" y="-170.5" font-family="Helvetica,sans-Serif" font-size="10.00">__AEModuleBase&lt; AEFrame &gt;</text>
</a>
</g>
</g>
<!-- Node2&#45;&gt;Node1 -->
<g id="edge1_Node000001_Node000002" class="edge">
<title>Node2&#45;&gt;Node1</title>
<g id="a_edge1_Node000001_Node000002"><a xlink:title=" ">
<path fill="none" stroke="#63b8ff" d="M903.42,-168.51C934.04,-163.79 967.77,-155.27 995.8,-140 1012.56,-130.87 1026.77,-113.4 1034.69,-102.24"/>
<polygon fill="#63b8ff" stroke="#63b8ff" points="903.21,-165 893.79,-169.87 904.18,-171.94 903.21,-165"/>
</a>
</g>
</g>
<!-- Node3 -->
<g id="Node000003" class="node">
<title>Node3</title>
<g id="a_Node000003"><a xlink:title=" ">
<polygon fill="white" stroke="#666666" points="398.3,-179 269.8,-179 269.8,-159 398.3,-159 398.3,-179"/>
<text text-anchor="middle" x="334.05" y="-165.5" font-family="Helvetica,sans-Serif" font-size="10.00">std::atomic&lt; std::size_t &gt;</text>
</a>
</g>
</g>
<!-- Node3&#45;&gt;Node2 -->
<g id="edge2_Node000002_Node000003" class="edge">
<title>Node3&#45;&gt;Node2</title>
<g id="a_edge2_Node000002_Node000003"><a xlink:title=" ">
<path fill="none" stroke="#9a32cd" stroke-dasharray="5,2" d="M409.69,-175.67C411.92,-175.79 414.13,-175.9 416.3,-176 548.94,-181.98 582.29,-179.01 715.05,-177 722.63,-176.89 730.54,-176.72 738.44,-176.53"/>
<polygon fill="#9a32cd" stroke="#9a32cd" points="410.15,-172.19 399.96,-175.06 409.72,-179.18 410.15,-172.19"/>
</a>
</g>
<text text-anchor="middle" x="576.18" y="-181.5" font-family="Helvetica,sans-Serif" font-size="10.00" fill="grey"> m_ullModulesAlive</text>
</g>
<!-- Node7 -->
<g id="Node000007" class="node">
<title>Node7</title>
<g id="a_Node000007"><a xlink:href="../../d0/d8a/class_____a_e_module_base.html" target="_top" xlink:title="This is a base class for all the modules in the engine; all basic modules inherit from it.">
<polygon fill="white" stroke="#666666" points="634.8,-156 517.55,-156 517.55,-136 634.8,-136 634.8,-156"/>
<text text-anchor="middle" x="576.18" y="-142.5" font-family="Helvetica,sans-Serif" font-size="10.00">__AEModuleBase&lt; T &gt;</text>
</a>
</g>
</g>
<!-- Node3&#45;&gt;Node7 -->
<g id="edge7_Node000007_Node000003" class="edge">
<title>Node3&#45;&gt;Node7</title>
<g id="a_edge7_Node000007_Node000003"><a xlink:title=" ">
<path fill="none" stroke="#9a32cd" stroke-dasharray="5,2" d="M409.8,-161.84C444.47,-158.52 485.04,-154.63 517.33,-151.54"/>
<polygon fill="#9a32cd" stroke="#9a32cd" points="409.9,-158.31 400.28,-162.75 410.56,-165.28 409.9,-158.31"/>
</a>
</g>
<text text-anchor="middle" x="457.93" y="-162.5" font-family="Helvetica,sans-Serif" font-size="10.00" fill="grey"> m_ullModulesAlive</text>
</g>
<!-- Node4 -->
<g id="Node000004" class="node">
<title>Node4</title>
<g id="a_Node000004"><a xlink:title=" ">
<polygon fill="white" stroke="#666666" points="144.18,-198 101.93,-198 101.93,-178 144.18,-178 144.18,-198"/>
<text text-anchor="middle" x="123.05" y="-184.5" font-family="Helvetica,sans-Serif" font-size="10.00">size_t</text>
</a>
</g>
</g>
<!-- Node4&#45;&gt;Node3 -->
<g id="edge3_Node000003_Node000004" class="edge">
<title>Node4&#45;&gt;Node3</title>
<g id="a_edge3_Node000003_Node000004"><a xlink:title=" ">
<path fill="none" stroke="#9a32cd" stroke-dasharray="5,2" d="M155.55,-185.14C185.67,-182.4 231.94,-178.19 269.7,-174.76"/>
<polygon fill="#9a32cd" stroke="#9a32cd" points="155.62,-181.62 145.98,-186.01 156.25,-188.59 155.62,-181.62"/>
</a>
</g>
<text text-anchor="middle" x="218.43" y="-184.5" font-family="Helvetica,sans-Serif" font-size="10.00" fill="grey"> ptr</text>
</g>
<!-- Node5 -->
<g id="Node000005" class="node">
<title>Node5</title>
<g id="a_Node000005"><a xlink:title=" ">
<polygon fill="white" stroke="#666666" points="167.05,-160 79.05,-160 79.05,-140 167.05,-140 167.05,-160"/>
<text text-anchor="middle" x="123.05" y="-146.5" font-family="Helvetica,sans-Serif" font-size="10.00">std::atomic&lt; T &gt;</text>
</a>
</g>
</g>
<!-- Node5&#45;&gt;Node3 -->
<g id="edge4_Node000003_Node000005" class="edge">
<title>Node5&#45;&gt;Node3</title>
<g id="a_edge4_Node000003_Node000005"><a xlink:title=" ">
<path fill="none" stroke="orange" stroke-dasharray="5,2" d="M178.96,-153.91C201.54,-155.62 227.94,-157.75 251.8,-160 257.59,-160.55 263.61,-161.15 269.64,-161.78"/>
<polygon fill="orange" stroke="orange" points="179.28,-150.42 169.05,-153.17 178.76,-157.4 179.28,-150.42"/>
</a>
</g>
<text text-anchor="middle" x="218.43" y="-162.5" font-family="Helvetica,sans-Serif" font-size="10.00" fill="grey"> &lt; std::size_t &gt;</text>
</g>
<!-- Node6 -->
<g id="Node000006" class="node">
<title>Node6</title>
<g id="a_Node000006"><a xlink:title=" ">
<polygon fill="white" stroke="#666666" points="28.8,-160 0,-160 0,-140 28.8,-140 28.8,-160"/>
<text text-anchor="middle" x="14.4" y="-146.5" font-family="Helvetica,sans-Serif" font-size="10.00">T</text>
</a>
</g>
</g>
<!-- Node6&#45;&gt;Node5 -->
<g id="edge5_Node000005_Node000006" class="edge">
<title>Node6&#45;&gt;Node5</title>
<g id="a_edge5_Node000005_Node000006"><a xlink:title=" ">
<path fill="none" stroke="#9a32cd" stroke-dasharray="5,2" d="M40.2,-150C51.66,-150 65.6,-150 78.71,-150"/>
<polygon fill="#9a32cd" stroke="#9a32cd" points="40.42,-146.5 30.42,-150 40.42,-153.5 40.42,-146.5"/>
</a>
</g>
<text text-anchor="middle" x="53.93" y="-152.5" font-family="Helvetica,sans-Serif" font-size="10.00" fill="grey"> ptr</text>
</g>
<!-- Node7&#45;&gt;Node2 -->
<g id="edge6_Node000002_Node000007" class="edge">
<title>Node7&#45;&gt;Node2</title>
<g id="a_edge6_Node000002_Node000007"><a xlink:title=" ">
<path fill="none" stroke="orange" stroke-dasharray="5,2" d="M646.42,-154.18C675.31,-157.59 708.96,-161.56 738.52,-165.05"/>
<polygon fill="orange" stroke="orange" points="647.03,-150.72 636.69,-153.03 646.21,-157.68 647.03,-150.72"/>
</a>
</g>
<text text-anchor="middle" x="683.93" y="-163.5" font-family="Helvetica,sans-Serif" font-size="10.00" fill="grey"> &lt; AEFrame &gt;</text>
</g>
<!-- Node8 -->
<g id="Node000008" class="node">
<title>Node8</title>
<g id="a_Node000008"><a xlink:title=" ">
<polygon fill="white" stroke="#666666" points="863.43,-146 767.18,-146 767.18,-126 863.43,-126 863.43,-146"/>
<text text-anchor="middle" x="815.3" y="-132.5" font-family="Helvetica,sans-Serif" font-size="10.00">timeDur&lt; double &gt;</text>
</a>
</g>
</g>
<!-- Node8&#45;&gt;Node1 -->
<g id="edge8_Node000001_Node000008" class="edge">
<title>Node8&#45;&gt;Node1</title>
<g id="a_edge8_Node000001_Node000008"><a xlink:title=" ">
<path fill="none" stroke="#9a32cd" stroke-dasharray="5,2" d="M874.73,-129.63C910.09,-125.09 955.91,-118.02 995.8,-108 1001.82,-106.49 1008.18,-104.51 1014.17,-102.47"/>
<polygon fill="#9a32cd" stroke="#9a32cd" points="874.63,-126.11 865.14,-130.82 875.49,-133.06 874.63,-126.11"/>
</a>
</g>
<text text-anchor="middle" x="955.68" y="-126.5" font-family="Helvetica,sans-Serif" font-size="10.00" fill="grey"> m_tdChronoDelay</text>
</g>
<!-- Node9 -->
<g id="Node000009" class="node">
<title>Node9</title>
<g id="a_Node000009"><a xlink:title=" ">
<polygon fill="white" stroke="#666666" points="897.55,-108 733.05,-108 733.05,-76 897.55,-76 897.55,-108"/>
<text text-anchor="start" x="741.05" y="-94.5" font-family="Helvetica,sans-Serif" font-size="10.00">timePoint&lt; SteadyClock, decltype</text>
<text text-anchor="middle" x="815.3" y="-82.5" font-family="Helvetica,sans-Serif" font-size="10.00">(m_tdChronoDelay)&gt;</text>
</a>
</g>
</g>
<!-- Node9&#45;&gt;Node1 -->
<g id="edge9_Node000001_Node000009" class="edge">
<title>Node9&#45;&gt;Node1</title>
<g id="a_edge9_Node000001_Node000009"><a xlink:title=" ">
<path fill="none" stroke="#9a32cd" stroke-dasharray="5,2" d="M908.94,-92C946.59,-92 987.32,-92 1013.54,-92"/>
<polygon fill="#9a32cd" stroke="#9a32cd" points="909.41,-88.5 899.41,-92 909.41,-95.5 909.41,-88.5"/>
</a>
</g>
<text text-anchor="middle" x="955.68" y="-94.5" font-family="Helvetica,sans-Serif" font-size="10.00" fill="grey"> m_tpTimepoint</text>
</g>
<!-- Node10 -->
<g id="Node000010" class="node">
<title>Node10</title>
<g id="a_Node000010"><a xlink:title=" ">
<polygon fill="white" stroke="#666666" points="837.55,-58 793.05,-58 793.05,-38 837.55,-38 837.55,-58"/>
<text text-anchor="middle" x="815.3" y="-44.5" font-family="Helvetica,sans-Serif" font-size="10.00">double</text>
</a>
</g>
</g>
<!-- Node10&#45;&gt;Node1 -->
<g id="edge10_Node000001_Node000010" class="edge">
<title>Node10&#45;&gt;Node1</title>
<g id="a_edge10_Node000001_Node000010"><a xlink:title=" ">
<path fill="none" stroke="#9a32cd" stroke-dasharray="5,2" d="M849.18,-51.3C885.45,-55.37 945.37,-63.34 995.8,-76 1001.82,-77.51 1008.18,-79.49 1014.17,-81.53"/>
<polygon fill="#9a32cd" stroke="#9a32cd" points="849.65,-47.84 839.33,-50.24 848.9,-54.79 849.65,-47.84"/>
</a>
</g>
<text text-anchor="middle" x="955.68" y="-78.5" font-family="Helvetica,sans-Serif" font-size="10.00" fill="grey"> m_fFPS</text>
</g>
<!-- Node11 -->
<g id="Node000011" class="node">
<title>Node11</title>
<g id="a_Node000011"><a xlink:title=" ">
<polygon fill="white" stroke="#666666" points="832.3,-20 798.3,-20 798.3,0 832.3,0 832.3,-20"/>
<text text-anchor="middle" x="815.3" y="-6.5" font-family="Helvetica,sans-Serif" font-size="10.00">bool</text>
</a>
</g>
</g>
<!-- Node11&#45;&gt;Node1 -->
<g id="edge11_Node000001_Node000011" class="edge">
<title>Node11&#45;&gt;Node1</title>
<g id="a_edge11_Node000001_Node000011"><a xlink:title=" ">
<path fill="none" stroke="#9a32cd" stroke-dasharray="5,2" d="M844.04,-10.34C880.86,-11.88 946.89,-18.51 995.8,-45 1012.2,-53.88 1026.31,-70.67 1034.34,-81.59"/>
<polygon fill="#9a32cd" stroke="#9a32cd" points="844.36,-6.85 834.26,-10.04 844.14,-13.85 844.36,-6.85"/>
</a>
</g>
<text text-anchor="middle" x="955.68" y="-47.5" font-family="Helvetica,sans-Serif" font-size="10.00" fill="grey"> m_bNoDelay</text>
</g>
</g>
</svg>
