<?xml version="1.0" encoding="UTF-8" standalone="no"?>
<!DOCTYPE svg PUBLIC "-//W3C//DTD SVG 1.1//EN"
 "http://www.w3.org/Graphics/SVG/1.1/DTD/svg11.dtd">
<!-- Generated by graphviz version 10.0.1 (20240210.2158)
 -->
<!-- Title: ace::math::cst::pi Pages: 1 -->
<!--zoomable 170 -->

<svg id="main" version="1.1" xmlns="http://www.w3.org/2000/svg" xmlns:xlink="http://www.w3.org/1999/xlink" xml:space="preserve" onload="init(evt)">
<style type="text/css"><![CDATA[
.node, .edge {opacity: 0.7;}
.node.selected, .edge.selected {opacity: 1;}
.edge:hover path { stroke: red; }
.edge:hover polygon { stroke: red; fill: red; }
]]></style>

<defs>
  <circle id="rim" cx="0" cy="0" r="7"/>
  <circle id="rim2" cx="0" cy="0" r="3.5"/>
  <g id="zoomPlus">
    <use xlink:href="#rim" fill="#404040"><set attributeName="fill" to="#808080" begin="zoomplus.mouseover" end="zoomplus.mouseout"/></use>
    <path d="M-4,0h8M0,-4v8" fill="none" stroke="white" stroke-width="1.5" pointer-events="none"/>
  </g>
  <g id="zoomMin">
    <use xlink:href="#rim" fill="#404040"><set attributeName="fill" to="#808080" begin="zoomminus.mouseover" end="zoomminus.mouseout"/></use>
    <path d="M-4,0h8" fill="none" stroke="white" stroke-width="1.5" pointer-events="none"/>
  </g>
  <g id="arrowUp" transform="translate(30 24)">
    <use xlink:href="#rim"/>
    <path pointer-events="none" fill="none" stroke="white" stroke-width="1.5" d="M0,-3.0v7 M-2.5,-0.5L0,-3.0L2.5,-0.5"/>
  </g>
  <g id="arrowRight" transform="rotate(90) translate(36 -43)">
    <use xlink:href="#rim"/>
    <path pointer-events="none" fill="none" stroke="white" stroke-width="1.5" d="M0,-3.0v7 M-2.5,-0.5L0,-3.0L2.5,-0.5"/>
  </g>
  <g id="arrowDown" transform="rotate(180) translate(-30 -48)">
    <use xlink:href="#rim"/>
    <path pointer-events="none" fill="none" stroke="white" stroke-width="1.5" d="M0,-3.0v7 M-2.5,-0.5L0,-3.0L2.5,-0.5"/>
  </g>
  <g id="arrowLeft" transform="rotate(270) translate(-36 17)">
    <use xlink:href="#rim"/>
    <path pointer-events="none" fill="none" stroke="white" stroke-width="1.5" d="M0,-3.0v7 M-2.5,-0.5L0,-3.0L2.5,-0.5"/>
  </g>
  <g id="resetDef">
    <use xlink:href="#rim2" fill="#404040"><set attributeName="fill" to="#808080" begin="reset.mouseover" end="reset.mouseout"/></use>
  </g>
</defs>
<script type="application/ecmascript">
var viewWidth = 572;
var viewHeight = 170;
var sectionId = 'dynsection-0';
</script>
<script type="application/ecmascript" xlink:href="../../svg.min.js"/>
<svg id="graph" class="graph">
<g id="viewport">
<title>ace::math::cst::pi</title>
<!-- Node1 -->
<g id="Node000001" class="node">
<title>Node1</title>
<g id="a_Node000001"><a xlink:title="Engine&#39;s pi value.">
<polygon fill="#999999" stroke="#666666" points="563.5,-124 471,-124 471,-104 563.5,-104 563.5,-124"/>
<text text-anchor="middle" x="517.25" y="-110.5" font-family="Helvetica,sans-Serif" font-size="10.00">ace::math::cst::pi</text>
</a>
</g>
</g>
<!-- Node2 -->
<g id="Node000002" class="node">
<title>Node2</title>
<g id="a_Node000002"><a xlink:href="../../d2/dca/namespaceace_1_1math_1_1cst.html#a807117f0ba993e9936e1fe09bdedde00" target="_top" xlink:title="Engine&#39;s pi*2 (tau) value Just another name for ace::math::tau()">
<polygon fill="white" stroke="#666666" points="435,-162 312.5,-162 312.5,-142 435,-142 435,-162"/>
<text text-anchor="middle" x="373.75" y="-148.5" font-family="Helvetica,sans-Serif" font-size="10.00">ace::math::cst::piDouble</text>
</a>
</g>
</g>
<!-- Node1&#45;&gt;Node2 -->
<g id="edge1_Node000001_Node000002" class="edge">
<title>Node1&#45;&gt;Node2</title>
<g id="a_edge1_Node000001_Node000002"><a xlink:title=" ">
<path fill="none" stroke="#63b8ff" d="M466.18,-127.45C448.93,-132.08 429.89,-137.19 413.66,-141.55"/>
<polygon fill="#63b8ff" stroke="#63b8ff" points="467,-130.85 475.75,-124.88 465.18,-124.09 467,-130.85"/>
</a>
</g>
</g>
<!-- Node3 -->
<g id="Node000003" class="node">
<title>Node3</title>
<g id="a_Node000003"><a xlink:href="../../d5/d0f/namespaceace_1_1math.html#a368a7c4b20718dbf45bd3b0b144ec216" target="_top" xlink:title="Convert given radians to degrees">
<polygon fill="white" stroke="#666666" points="419.25,-124 328.25,-124 328.25,-104 419.25,-104 419.25,-124"/>
<text text-anchor="middle" x="373.75" y="-110.5" font-family="Helvetica,sans-Serif" font-size="10.00">ace::math::toDeg</text>
</a>
</g>
</g>
<!-- Node1&#45;&gt;Node3 -->
<g id="edge2_Node000001_Node000003" class="edge">
<title>Node1&#45;&gt;Node3</title>
<g id="a_edge2_Node000001_Node000003"><a xlink:title=" ">
<path fill="none" stroke="#63b8ff" d="M459.34,-114C446.16,-114 432.32,-114 419.73,-114"/>
<polygon fill="#63b8ff" stroke="#63b8ff" points="459.19,-117.5 469.19,-114 459.19,-110.5 459.19,-117.5"/>
</a>
</g>
</g>
<!-- Node5 -->
<g id="Node000005" class="node">
<title>Node5</title>
<g id="a_Node000005"><a xlink:href="../../d5/d0f/namespaceace_1_1math.html#a34df987782d57f3ccb8d1cf75deb2fd2" target="_top" xlink:title="Convert given degrees to radians">
<polygon fill="white" stroke="#666666" points="419.25,-77 328.25,-77 328.25,-57 419.25,-57 419.25,-77"/>
<text text-anchor="middle" x="373.75" y="-63.5" font-family="Helvetica,sans-Serif" font-size="10.00">ace::math::toRad</text>
</a>
</g>
</g>
<!-- Node1&#45;&gt;Node5 -->
<g id="edge4_Node000001_Node000005" class="edge">
<title>Node1&#45;&gt;Node5</title>
<g id="a_edge4_Node000001_Node000005"><a xlink:title=" ">
<path fill="none" stroke="#63b8ff" d="M474.2,-100.03C452.35,-92.78 426.11,-84.06 406.07,-77.4"/>
<polygon fill="#63b8ff" stroke="#63b8ff" points="472.82,-103.26 483.41,-103.09 475.02,-96.62 472.82,-103.26"/>
</a>
</g>
</g>
<!-- Node4 -->
<g id="Node000004" class="node">
<title>Node4</title>
<g id="a_Node000004"><a xlink:href="../../dc/df6/struct_a_e_vector.html#a91924bfd79e8f848e29f92fd3662be78" target="_top" xlink:title="Calculate the angle between the vectors as degrees.">
<polygon fill="white" stroke="#666666" points="276.5,-134 134.5,-134 134.5,-114 276.5,-114 276.5,-134"/>
<text text-anchor="middle" x="205.5" y="-120.5" font-family="Helvetica,sans-Serif" font-size="10.00">AEVector::angleBetweenDeg</text>
</a>
</g>
</g>
<!-- Node3&#45;&gt;Node4 -->
<g id="edge3_Node000003_Node000004" class="edge">
<title>Node3&#45;&gt;Node4</title>
<g id="a_edge3_Node000003_Node000004"><a xlink:title=" ">
<path fill="none" stroke="#63b8ff" d="M316.4,-117.39C303.7,-118.15 290.06,-118.97 276.87,-119.77"/>
<polygon fill="#63b8ff" stroke="#63b8ff" points="316.48,-120.89 326.25,-116.8 316.06,-113.9 316.48,-120.89"/>
</a>
</g>
</g>
<!-- Node6 -->
<g id="Node000006" class="node">
<title>Node6</title>
<g id="a_Node000006"><a xlink:href="../../d5/d0f/namespaceace_1_1math.html#a6d6fc7afd09d4c910a45218da9ae2bc6" target="_top" xlink:title="Calculates the cosine of degrees">
<polygon fill="white" stroke="#666666" points="254.75,-96 156.25,-96 156.25,-76 254.75,-76 254.75,-96"/>
<text text-anchor="middle" x="205.5" y="-82.5" font-family="Helvetica,sans-Serif" font-size="10.00">ace::math::cosDeg</text>
</a>
</g>
</g>
<!-- Node5&#45;&gt;Node6 -->
<g id="edge5_Node000005_Node000006" class="edge">
<title>Node5&#45;&gt;Node6</title>
<g id="a_edge5_Node000005_Node000006"><a xlink:title=" ">
<path fill="none" stroke="#63b8ff" d="M316.34,-73.45C296.43,-75.72 274.23,-78.26 255.02,-80.45"/>
<polygon fill="#63b8ff" stroke="#63b8ff" points="316.72,-76.93 326.26,-72.31 315.92,-69.97 316.72,-76.93"/>
</a>
</g>
</g>
<!-- Node8 -->
<g id="Node000008" class="node">
<title>Node8</title>
<g id="a_Node000008"><a xlink:href="../../d5/d0f/namespaceace_1_1math.html#a2d1b0ee0e065a1fb3350dad86d582d17" target="_top" xlink:title="Calculates the sine of degrees">
<polygon fill="white" stroke="#666666" points="253.25,-58 157.75,-58 157.75,-38 253.25,-38 253.25,-58"/>
<text text-anchor="middle" x="205.5" y="-44.5" font-family="Helvetica,sans-Serif" font-size="10.00">ace::math::sinDeg</text>
</a>
</g>
</g>
<!-- Node5&#45;&gt;Node8 -->
<g id="edge7_Node000005_Node000008" class="edge">
<title>Node5&#45;&gt;Node8</title>
<g id="a_edge7_Node000005_Node000008"><a xlink:title=" ">
<path fill="none" stroke="#63b8ff" d="M316.38,-60.56C295.94,-58.22 273.1,-55.61 253.56,-53.38"/>
<polygon fill="#63b8ff" stroke="#63b8ff" points="315.92,-64.03 326.26,-61.69 316.72,-57.07 315.92,-64.03"/>
</a>
</g>
</g>
<!-- Node10 -->
<g id="Node000010" class="node">
<title>Node10</title>
<g id="a_Node000010"><a xlink:href="../../d5/d0f/namespaceace_1_1math.html#a15512ebb416126f59cdb7669b5c39b48" target="_top" xlink:title="Calculates the tangent of degrees">
<polygon fill="white" stroke="#666666" points="253.62,-20 157.38,-20 157.38,0 253.62,0 253.62,-20"/>
<text text-anchor="middle" x="205.5" y="-6.5" font-family="Helvetica,sans-Serif" font-size="10.00">ace::math::tanDeg</text>
</a>
</g>
</g>
<!-- Node5&#45;&gt;Node10 -->
<g id="edge9_Node000005_Node000010" class="edge">
<title>Node5&#45;&gt;Node10</title>
<g id="a_edge9_Node000005_Node000010"><a xlink:title=" ">
<path fill="none" stroke="#63b8ff" d="M338.11,-52.24C319.94,-44.78 297.21,-35.88 276.5,-29 267.42,-25.98 257.56,-23.09 248.18,-20.5"/>
<polygon fill="#63b8ff" stroke="#63b8ff" points="336.52,-55.38 347.1,-55.98 339.21,-48.91 336.52,-55.38"/>
</a>
</g>
</g>
<!-- Node7 -->
<g id="Node000007" class="node">
<title>Node7</title>
<g id="a_Node000007"><a xlink:href="../../d5/d0f/namespaceace_1_1math.html#a5cbfa3de675e6e68387a936162bfe77b" target="_top" xlink:title="Calculates the secant of degrees">
<polygon fill="white" stroke="#666666" points="98.5,-96 0,-96 0,-76 98.5,-76 98.5,-96"/>
<text text-anchor="middle" x="49.25" y="-82.5" font-family="Helvetica,sans-Serif" font-size="10.00">ace::math::secDeg</text>
</a>
</g>
</g>
<!-- Node6&#45;&gt;Node7 -->
<g id="edge6_Node000006_Node000007" class="edge">
<title>Node6&#45;&gt;Node7</title>
<g id="a_edge6_Node000006_Node000007"><a xlink:title=" ">
<path fill="none" stroke="#63b8ff" d="M144.76,-86C129.61,-86 113.52,-86 98.99,-86"/>
<polygon fill="#63b8ff" stroke="#63b8ff" points="144.6,-89.5 154.6,-86 144.6,-82.5 144.6,-89.5"/>
</a>
</g>
</g>
<!-- Node9 -->
<g id="Node000009" class="node">
<title>Node9</title>
<g id="a_Node000009"><a xlink:href="../../d5/d0f/namespaceace_1_1math.html#aeb83e68b525d9da76ba43522371e1faf" target="_top" xlink:title="Calculates the cosecant of degrees">
<polygon fill="white" stroke="#666666" points="98.5,-58 0,-58 0,-38 98.5,-38 98.5,-58"/>
<text text-anchor="middle" x="49.25" y="-44.5" font-family="Helvetica,sans-Serif" font-size="10.00">ace::math::cscDeg</text>
</a>
</g>
</g>
<!-- Node8&#45;&gt;Node9 -->
<g id="edge8_Node000008_Node000009" class="edge">
<title>Node8&#45;&gt;Node9</title>
<g id="a_edge8_Node000008_Node000009"><a xlink:title=" ">
<path fill="none" stroke="#63b8ff" d="M146.26,-48C130.66,-48 113.97,-48 98.95,-48"/>
<polygon fill="#63b8ff" stroke="#63b8ff" points="145.87,-51.5 155.87,-48 145.87,-44.5 145.87,-51.5"/>
</a>
</g>
</g>
<!-- Node11 -->
<g id="Node000011" class="node">
<title>Node11</title>
<g id="a_Node000011"><a xlink:href="../../d5/d0f/namespaceace_1_1math.html#a6ae1260251ad68d4b5d97276dfe067f1" target="_top" xlink:title="Calculates the cotangent of degrees">
<polygon fill="white" stroke="#666666" points="97.38,-20 1.13,-20 1.13,0 97.38,0 97.38,-20"/>
<text text-anchor="middle" x="49.25" y="-6.5" font-family="Helvetica,sans-Serif" font-size="10.00">ace::math::cotDeg</text>
</a>
</g>
</g>
<!-- Node10&#45;&gt;Node11 -->
<g id="edge10_Node000010_Node000011" class="edge">
<title>Node10&#45;&gt;Node11</title>
<g id="a_edge10_Node000010_Node000011"><a xlink:title=" ">
<path fill="none" stroke="#63b8ff" d="M145.64,-10C129.76,-10 112.79,-10 97.63,-10"/>
<polygon fill="#63b8ff" stroke="#63b8ff" points="145.45,-13.5 155.45,-10 145.45,-6.5 145.45,-13.5"/>
</a>
</g>
</g>
</g>
</svg>

<g id="navigator" transform="translate(0 0)" fill="#404254">
  <rect fill="#f2f5e9" fill-opacity="0.5" stroke="#606060" stroke-width=".5" x="0" y="0" width="60" height="60"/>
  <use id="zoomplus" xlink:href="#zoomPlus" x="17" y="9" onmousedown="handleZoom(evt,'in')"/>
  <use id="zoomminus" xlink:href="#zoomMin" x="42" y="9" onmousedown="handleZoom(evt,'out')"/>
  <use id="reset" xlink:href="#resetDef" x="30" y="36" onmousedown="handleReset()"/>
   <use id="arrowup" xlink:href="#arrowUp" x="0" y="0" onmousedown="handlePan(0,-1)"/>
  <use id="arrowright" xlink:href="#arrowRight" x="0" y="0" onmousedown="handlePan(1,0)"/>
  <use id="arrowdown" xlink:href="#arrowDown" x="0" y="0" onmousedown="handlePan(0,1)"/>
  <use id="arrowleft" xlink:href="#arrowLeft" x="0" y="0" onmousedown="handlePan(-1,0)"/>
</g>
<svg viewBox="0 0 15 15" width="100%" height="30px" preserveAspectRatio="xMaxYMin meet">
 <g id="arrow_out" transform="scale(0.3 0.3)">
  <a xlink:href="namespaceace_1_1math_1_1cst_ae76a425b6168742ae8e3a247aeeb6e59_icgraph_org.svg" target="_base">
   <rect id="button" ry="5" rx="5" y="6" x="6" height="38" width="38"
        fill="#f2f5e9" fill-opacity="0.5" stroke="#606060" stroke-width="1.0"/>
   <path id="arrow"
     d="M 11.500037,31.436501 C 11.940474,20.09759 22.043105,11.32322 32.158766,21.979434 L 37.068811,17.246167 C 37.068811,17.246167 37.088388,32 37.088388,32 L 22.160133,31.978069 C 22.160133,31.978069 26.997745,27.140456 26.997745,27.140456 C 18.528582,18.264221 13.291696,25.230495 11.500037,31.436501 z"
     style="fill:#404040;"/>
  </a>
 </g>
</svg>

<style type='text/css'>
<![CDATA[
[data-mouse-over-selected='false'] { opacity: 0.7; }
[data-mouse-over-selected='true']  { opacity: 1.0; }
]]>
</style>
<script type="application/ecmascript"><![CDATA[
document.addEventListener('DOMContentLoaded', (event) => {
  highlightEdges();
  highlightAdjacentNodes();
});
]]></script>
</svg>
