<?xml version="1.0" encoding="UTF-8" standalone="no"?>
<!DOCTYPE svg PUBLIC "-//W3C//DTD SVG 1.1//EN"
 "http://www.w3.org/Graphics/SVG/1.1/DTD/svg11.dtd">
<!-- Generated by graphviz version 10.0.1 (20240210.2158)
 -->
<!-- Title: AELogEntry Pages: 1 -->
<svg width="381pt" height="244pt"
 viewBox="0.00 0.00 380.62 244.00" xmlns="http://www.w3.org/2000/svg" xmlns:xlink="http://www.w3.org/1999/xlink">

<svg id="main" version="1.1" xmlns="http://www.w3.org/2000/svg" xmlns:xlink="http://www.w3.org/1999/xlink" xml:space="preserve" onload="init(evt)">
<style type="text/css"><![CDATA[
.node, .edge {opacity: 0.7;}
.node.selected, .edge.selected {opacity: 1;}
.edge:hover path { stroke: red; }
.edge:hover polygon { stroke: red; fill: red; }
]]></style>
<script type="application/ecmascript" xlink:href="../../svg.min.js"/>
<svg id="graph" class="graph">
<g id="graph0" class="graph" transform="scale(1 1) rotate(0) translate(4 240)">
<title>AELogEntry</title>
<!-- Node1 -->
<g id="Node000001" class="node">
<title>Node1</title>
<g id="a_Node000001"><a xlink:title="The structure for the data of the log entry to be manipulated with the log files.">
<polygon fill="#999999" stroke="#666666" points="191.62,-20 123.12,-20 123.12,0 191.62,0 191.62,-20"/>
<text text-anchor="middle" x="157.38" y="-6.5" font-family="Helvetica,sans-Serif" font-size="10.00">AELogEntry</text>
</a>
</g>
</g>
<!-- Node1&#45;&gt;Node1 -->
<g id="edge3_Node000001_Node000001" class="edge">
<title>Node1&#45;&gt;Node1</title>
<g id="a_edge3_Node000001_Node000001"><a xlink:title=" ">
<path fill="none" stroke="#9a32cd" stroke-dasharray="5,2" d="M203.32,-15.82C207.2,-14.58 209.62,-12.64 209.62,-10 209.62,-5.31 201.97,-2.82 192.05,-2.53"/>
<polygon fill="#9a32cd" stroke="#9a32cd" points="202.93,-12.34 193.54,-17.25 203.94,-19.27 202.93,-12.34"/>
</a>
</g>
<text text-anchor="middle" x="241.88" y="-6.5" font-family="Helvetica,sans-Serif" font-size="10.00" fill="grey"> m_pNextNode</text>
</g>
<!-- Node2 -->
<g id="Node000002" class="node">
<title>Node2</title>
<g id="a_Node000002"><a xlink:title=" ">
<polygon fill="white" stroke="#666666" points="34.75,-100 0,-100 0,-80 34.75,-80 34.75,-100"/>
<text text-anchor="middle" x="17.38" y="-86.5" font-family="Helvetica,sans-Serif" font-size="10.00">char</text>
</a>
</g>
</g>
<!-- Node2&#45;&gt;Node1 -->
<g id="edge1_Node000001_Node000002" class="edge">
<title>Node2&#45;&gt;Node1</title>
<g id="a_edge1_Node000001_Node000002"><a xlink:title=" ">
<path fill="none" stroke="#9a32cd" stroke-dasharray="5,2" d="M18.88,-68.41C20.72,-57.9 24.69,-45.75 33.12,-38 46.01,-26.17 90.57,-18.64 122.64,-14.62"/>
<polygon fill="#9a32cd" stroke="#9a32cd" points="15.44,-67.77 17.73,-78.11 22.39,-68.59 15.44,-67.77"/>
</a>
</g>
<text text-anchor="middle" x="72" y="-52.5" font-family="Helvetica,sans-Serif" font-size="10.00" fill="grey"> m_sLogMessage</text>
<text text-anchor="middle" x="72" y="-40.5" font-family="Helvetica,sans-Serif" font-size="10.00" fill="grey">m_sModuleName</text>
</g>
<!-- Node3 -->
<g id="Node000003" class="node">
<title>Node3</title>
<g id="a_Node000003"><a xlink:title=" ">
<polygon fill="white" stroke="#666666" points="138.88,-100 95.88,-100 95.88,-80 138.88,-80 138.88,-100"/>
<text text-anchor="middle" x="117.38" y="-86.5" font-family="Helvetica,sans-Serif" font-size="10.00">time_t</text>
</a>
</g>
</g>
<!-- Node3&#45;&gt;Node1 -->
<g id="edge2_Node000001_Node000003" class="edge">
<title>Node3&#45;&gt;Node1</title>
<g id="a_edge2_Node000001_Node000003"><a xlink:title=" ">
<path fill="none" stroke="#9a32cd" stroke-dasharray="5,2" d="M113.89,-68.57C113.21,-58.78 113.91,-47.21 118.88,-38 122.9,-30.53 130.01,-24.67 137.03,-20.35"/>
<polygon fill="#9a32cd" stroke="#9a32cd" points="110.38,-68.72 115.09,-78.21 117.33,-67.85 110.38,-68.72"/>
</a>
</g>
<text text-anchor="middle" x="151.62" y="-46.5" font-family="Helvetica,sans-Serif" font-size="10.00" fill="grey"> m_tmLogTime</text>
</g>
<!-- Node4 -->
<g id="Node000004" class="node">
<title>Node4</title>
<g id="a_Node000004"><a xlink:title=" ">
<polygon fill="white" stroke="#666666" points="239.38,-168 199.38,-168 199.38,-148 239.38,-148 239.38,-168"/>
<text text-anchor="middle" x="219.38" y="-154.5" font-family="Helvetica,sans-Serif" font-size="10.00">int8_t</text>
</a>
</g>
</g>
<!-- Node4&#45;&gt;Node1 -->
<g id="edge4_Node000001_Node000004" class="edge">
<title>Node4&#45;&gt;Node1</title>
<g id="a_edge4_Node000001_Node000004"><a xlink:title=" ">
<path fill="none" stroke="#9a32cd" stroke-dasharray="5,2" d="M214.47,-136.74C207.18,-107.43 193.26,-54.86 183.38,-38 179.49,-31.38 173.66,-25.12 168.51,-20.3"/>
<polygon fill="#9a32cd" stroke="#9a32cd" points="211.02,-137.36 216.8,-146.24 217.82,-135.69 211.02,-137.36"/>
</a>
</g>
<text text-anchor="middle" x="234.62" y="-86.5" font-family="Helvetica,sans-Serif" font-size="10.00" fill="grey"> m_cLogType</text>
</g>
<!-- Node5 -->
<g id="Node000005" class="node">
<title>Node5</title>
<g id="a_Node000005"><a xlink:title=" ">
<polygon fill="white" stroke="#666666" points="372.62,-100 274.12,-100 274.12,-80 372.62,-80 372.62,-100"/>
<text text-anchor="middle" x="323.38" y="-86.5" font-family="Helvetica,sans-Serif" font-size="10.00">std::atomic&lt; cint &gt;</text>
</a>
</g>
</g>
<!-- Node4&#45;&gt;Node5 -->
<g id="edge6_Node000005_Node000004" class="edge">
<title>Node4&#45;&gt;Node5</title>
<g id="a_edge6_Node000005_Node000004"><a xlink:title=" ">
<path fill="none" stroke="#9a32cd" stroke-dasharray="5,2" d="M243.97,-141.39C264.02,-128.67 291.68,-111.12 308.5,-100.44"/>
<polygon fill="#9a32cd" stroke="#9a32cd" points="242.12,-138.42 235.55,-146.73 245.87,-144.33 242.12,-138.42"/>
</a>
</g>
<text text-anchor="middle" x="288.5" y="-120.5" font-family="Helvetica,sans-Serif" font-size="10.00" fill="grey"> ptr</text>
</g>
<!-- Node5&#45;&gt;Node1 -->
<g id="edge5_Node000001_Node000005" class="edge">
<title>Node5&#45;&gt;Node1</title>
<g id="a_edge5_Node000001_Node000005"><a xlink:title=" ">
<path fill="none" stroke="#9a32cd" stroke-dasharray="5,2" d="M293.2,-74.82C259.62,-59.04 206.3,-33.99 177.47,-20.44"/>
<polygon fill="#9a32cd" stroke="#9a32cd" points="291.44,-77.86 301.98,-78.95 294.42,-71.53 291.44,-77.86"/>
</a>
</g>
<text text-anchor="middle" x="290.5" y="-46.5" font-family="Helvetica,sans-Serif" font-size="10.00" fill="grey"> m_cStatus</text>
</g>
<!-- Node6 -->
<g id="Node000006" class="node">
<title>Node6</title>
<g id="a_Node000006"><a xlink:title=" ">
<polygon fill="white" stroke="#666666" points="367.38,-168 279.38,-168 279.38,-148 367.38,-148 367.38,-168"/>
<text text-anchor="middle" x="323.38" y="-154.5" font-family="Helvetica,sans-Serif" font-size="10.00">std::atomic&lt; T &gt;</text>
</a>
</g>
</g>
<!-- Node6&#45;&gt;Node5 -->
<g id="edge7_Node000005_Node000006" class="edge">
<title>Node6&#45;&gt;Node5</title>
<g id="a_edge7_Node000005_Node000006"><a xlink:title=" ">
<path fill="none" stroke="orange" stroke-dasharray="5,2" d="M323.38,-136.28C323.38,-124.27 323.38,-109.74 323.38,-100.44"/>
<polygon fill="orange" stroke="orange" points="319.88,-136.03 323.38,-146.03 326.88,-136.03 319.88,-136.03"/>
</a>
</g>
<text text-anchor="middle" x="341.75" y="-120.5" font-family="Helvetica,sans-Serif" font-size="10.00" fill="grey"> &lt; cint &gt;</text>
</g>
<!-- Node7 -->
<g id="Node000007" class="node">
<title>Node7</title>
<g id="a_Node000007"><a xlink:title=" ">
<polygon fill="white" stroke="#666666" points="337.77,-236 308.98,-236 308.98,-216 337.77,-216 337.77,-236"/>
<text text-anchor="middle" x="323.38" y="-222.5" font-family="Helvetica,sans-Serif" font-size="10.00">T</text>
</a>
</g>
</g>
<!-- Node7&#45;&gt;Node6 -->
<g id="edge8_Node000006_Node000007" class="edge">
<title>Node7&#45;&gt;Node6</title>
<g id="a_edge8_Node000006_Node000007"><a xlink:title=" ">
<path fill="none" stroke="#9a32cd" stroke-dasharray="5,2" d="M323.38,-204.28C323.38,-192.27 323.38,-177.74 323.38,-168.44"/>
<polygon fill="#9a32cd" stroke="#9a32cd" points="319.88,-204.03 323.38,-214.03 326.88,-204.03 319.88,-204.03"/>
</a>
</g>
<text text-anchor="middle" x="330.5" y="-188.5" font-family="Helvetica,sans-Serif" font-size="10.00" fill="grey"> ptr</text>
</g>
</g>
</svg>
</svg>

<style type='text/css'>
<![CDATA[
[data-mouse-over-selected='false'] { opacity: 0.7; }
[data-mouse-over-selected='true']  { opacity: 1.0; }
]]>
</style>
<script type="application/ecmascript"><![CDATA[
document.addEventListener('DOMContentLoaded', (event) => {
  highlightEdges();
  highlightAdjacentNodes();
});
]]></script>
</svg>
