<?xml version="1.0" encoding="UTF-8" standalone="no"?>
<!DOCTYPE svg PUBLIC "-//W3C//DTD SVG 1.1//EN"
 "http://www.w3.org/Graphics/SVG/1.1/DTD/svg11.dtd">
<!-- Generated by graphviz version 10.0.1 (20240210.2158)
 -->
<!-- Title: AEFrame/include/AEFrame.hpp Pages: 1 -->
<svg width="457pt" height="196pt"
 viewBox="0.00 0.00 456.62 196.00" xmlns="http://www.w3.org/2000/svg" xmlns:xlink="http://www.w3.org/1999/xlink">
<g id="graph0" class="graph" transform="scale(1 1) rotate(0) translate(4 192)">
<title>AEFrame/include/AEFrame.hpp</title>
<!-- Node1 -->
<g id="Node000001" class="node">
<title>Node1</title>
<g id="a_Node000001"><a xlink:title=" ">
<polygon fill="#999999" stroke="#666666" points="246,-188 92,-188 92,-168 246,-168 246,-188"/>
<text text-anchor="middle" x="169" y="-174.5" font-family="Helvetica,sans-Serif" font-size="10.00">AEFrame/include/AEFrame.hpp</text>
</a>
</g>
</g>
<!-- Node2 -->
<g id="Node000002" class="node">
<title>Node2</title>
<g id="a_Node000002"><a xlink:href="../../dd/dd8/_a_e_flags_8hpp.html" target="_top" xlink:title="This file contains the flags to manipulate engine&#39;s funcitonality.">
<polygon fill="white" stroke="#666666" points="106,-76 0,-76 0,-56 106,-56 106,-76"/>
<text text-anchor="middle" x="53" y="-62.5" font-family="Helvetica,sans-Serif" font-size="10.00">include/AEFlags.hpp</text>
</a>
</g>
</g>
<!-- Node1&#45;&gt;Node2 -->
<g id="edge1_Node000001_Node000002" class="edge">
<title>Node1&#45;&gt;Node2</title>
<g id="a_edge1_Node000001_Node000002"><a xlink:title=" ">
<path fill="none" stroke="#63b8ff" d="M159.11,-167.62C139.59,-149.11 95.86,-107.65 71.06,-84.13"/>
<polygon fill="#63b8ff" stroke="#63b8ff" points="73.63,-81.74 63.96,-77.4 68.81,-86.82 73.63,-81.74"/>
</a>
</g>
</g>
<!-- Node3 -->
<g id="Node000003" class="node">
<title>Node3</title>
<g id="a_Node000003"><a xlink:href="../../d7/d7f/_a_e_module_base_8hpp.html" target="_top" xlink:title=" ">
<polygon fill="white" stroke="#666666" points="303,-132 167,-132 167,-112 303,-112 303,-132"/>
<text text-anchor="middle" x="235" y="-118.5" font-family="Helvetica,sans-Serif" font-size="10.00">include/AEModuleBase.hpp</text>
</a>
</g>
</g>
<!-- Node1&#45;&gt;Node3 -->
<g id="edge2_Node000001_Node000003" class="edge">
<title>Node1&#45;&gt;Node3</title>
<g id="a_edge2_Node000001_Node000003"><a xlink:title=" ">
<path fill="none" stroke="#63b8ff" d="M180.5,-167.59C189.96,-159.85 203.6,-148.69 214.87,-139.47"/>
<polygon fill="#63b8ff" stroke="#63b8ff" points="216.94,-142.3 222.46,-133.26 212.51,-136.88 216.94,-142.3"/>
</a>
</g>
</g>
<!-- Node3&#45;&gt;Node2 -->
<g id="edge7_Node000003_Node000002" class="edge">
<title>Node3&#45;&gt;Node2</title>
<g id="a_edge7_Node000003_Node000002"><a xlink:title=" ">
<path fill="none" stroke="#63b8ff" d="M203.3,-111.59C173.47,-102.74 128.58,-89.43 95.63,-79.65"/>
<polygon fill="#63b8ff" stroke="#63b8ff" points="96.98,-76.4 86.4,-76.91 94.99,-83.11 96.98,-76.4"/>
</a>
</g>
</g>
<!-- Node4 -->
<g id="Node000004" class="node">
<title>Node4</title>
<g id="a_Node000004"><a xlink:href="../../dc/d89/_a_e_typedefs_8hpp.html" target="_top" xlink:title="This file contains the engine&#39;s typedefs and variable type aliases.">
<polygon fill="white" stroke="#666666" points="245.5,-76 124.5,-76 124.5,-56 245.5,-56 245.5,-76"/>
<text text-anchor="middle" x="185" y="-62.5" font-family="Helvetica,sans-Serif" font-size="10.00">include/AETypedefs.hpp</text>
</a>
</g>
</g>
<!-- Node3&#45;&gt;Node4 -->
<g id="edge3_Node000003_Node000004" class="edge">
<title>Node3&#45;&gt;Node4</title>
<g id="a_edge3_Node000003_Node000004"><a xlink:title=" ">
<path fill="none" stroke="#63b8ff" d="M226.29,-111.59C219.41,-104.16 209.61,-93.58 201.28,-84.58"/>
<polygon fill="#63b8ff" stroke="#63b8ff" points="204,-82.37 194.64,-77.41 198.86,-87.12 204,-82.37"/>
</a>
</g>
</g>
<!-- Node8 -->
<g id="Node000008" class="node">
<title>Node8</title>
<g id="a_Node000008"><a xlink:title=" ">
<polygon fill="#e0e0e0" stroke="#999999" points="308.62,-76 263.38,-76 263.38,-56 308.62,-56 308.62,-76"/>
<text text-anchor="middle" x="286" y="-62.5" font-family="Helvetica,sans-Serif" font-size="10.00">atomic</text>
</a>
</g>
</g>
<!-- Node3&#45;&gt;Node8 -->
<g id="edge8_Node000003_Node000008" class="edge">
<title>Node3&#45;&gt;Node8</title>
<g id="a_edge8_Node000003_Node000008"><a xlink:title=" ">
<path fill="none" stroke="#63b8ff" d="M243.88,-111.59C250.9,-104.16 260.9,-93.58 269.39,-84.58"/>
<polygon fill="#63b8ff" stroke="#63b8ff" points="271.86,-87.07 276.18,-77.4 266.77,-82.27 271.86,-87.07"/>
</a>
</g>
</g>
<!-- Node9 -->
<g id="Node000009" class="node">
<title>Node9</title>
<g id="a_Node000009"><a xlink:title=" ">
<polygon fill="#e0e0e0" stroke="#999999" points="367,-76 327,-76 327,-56 367,-56 367,-76"/>
<text text-anchor="middle" x="347" y="-62.5" font-family="Helvetica,sans-Serif" font-size="10.00">string</text>
</a>
</g>
</g>
<!-- Node3&#45;&gt;Node9 -->
<g id="edge9_Node000003_Node000009" class="edge">
<title>Node3&#45;&gt;Node9</title>
<g id="a_edge9_Node000003_Node000009"><a xlink:title=" ">
<path fill="none" stroke="#63b8ff" d="M254.51,-111.59C271.75,-103.28 297.16,-91.03 316.99,-81.47"/>
<polygon fill="#63b8ff" stroke="#63b8ff" points="318.49,-84.63 325.98,-77.14 315.45,-78.33 318.49,-84.63"/>
</a>
</g>
</g>
<!-- Node10 -->
<g id="Node000010" class="node">
<title>Node10</title>
<g id="a_Node000010"><a xlink:title=" ">
<polygon fill="#e0e0e0" stroke="#999999" points="448.62,-76 385.38,-76 385.38,-56 448.62,-56 448.62,-76"/>
<text text-anchor="middle" x="417" y="-62.5" font-family="Helvetica,sans-Serif" font-size="10.00">string_view</text>
</a>
</g>
</g>
<!-- Node3&#45;&gt;Node10 -->
<g id="edge10_Node000003_Node000010" class="edge">
<title>Node3&#45;&gt;Node10</title>
<g id="a_edge10_Node000003_Node000010"><a xlink:title=" ">
<path fill="none" stroke="#63b8ff" d="M266.7,-111.59C296.53,-102.74 341.42,-89.43 374.37,-79.65"/>
<polygon fill="#63b8ff" stroke="#63b8ff" points="375.01,-83.11 383.6,-76.91 373.02,-76.4 375.01,-83.11"/>
</a>
</g>
</g>
<!-- Node5 -->
<g id="Node000005" class="node">
<title>Node5</title>
<g id="a_Node000005"><a xlink:title=" ">
<polygon fill="#e0e0e0" stroke="#999999" points="144.25,-20 99.75,-20 99.75,0 144.25,0 144.25,-20"/>
<text text-anchor="middle" x="122" y="-6.5" font-family="Helvetica,sans-Serif" font-size="10.00">climits</text>
</a>
</g>
</g>
<!-- Node4&#45;&gt;Node5 -->
<g id="edge4_Node000004_Node000005" class="edge">
<title>Node4&#45;&gt;Node5</title>
<g id="a_edge4_Node000004_Node000005"><a xlink:title=" ">
<path fill="none" stroke="#63b8ff" d="M174.03,-55.59C165.08,-47.93 152.23,-36.91 141.54,-27.75"/>
<polygon fill="#63b8ff" stroke="#63b8ff" points="143.87,-25.13 134,-21.28 139.31,-30.45 143.87,-25.13"/>
</a>
</g>
</g>
<!-- Node6 -->
<g id="Node000006" class="node">
<title>Node6</title>
<g id="a_Node000006"><a xlink:title=" ">
<polygon fill="#e0e0e0" stroke="#999999" points="207.62,-20 162.38,-20 162.38,0 207.62,0 207.62,-20"/>
<text text-anchor="middle" x="185" y="-6.5" font-family="Helvetica,sans-Serif" font-size="10.00">chrono</text>
</a>
</g>
</g>
<!-- Node4&#45;&gt;Node6 -->
<g id="edge5_Node000004_Node000006" class="edge">
<title>Node4&#45;&gt;Node6</title>
<g id="a_edge5_Node000004_Node000006"><a xlink:title=" ">
<path fill="none" stroke="#63b8ff" d="M185,-55.59C185,-49.01 185,-39.96 185,-31.73"/>
<polygon fill="#63b8ff" stroke="#63b8ff" points="188.5,-31.81 185,-21.81 181.5,-31.81 188.5,-31.81"/>
</a>
</g>
</g>
<!-- Node7 -->
<g id="Node000007" class="node">
<title>Node7</title>
<g id="a_Node000007"><a xlink:title=" ">
<polygon fill="#e0e0e0" stroke="#999999" points="268.5,-20 225.5,-20 225.5,0 268.5,0 268.5,-20"/>
<text text-anchor="middle" x="247" y="-6.5" font-family="Helvetica,sans-Serif" font-size="10.00">thread</text>
</a>
</g>
</g>
<!-- Node4&#45;&gt;Node7 -->
<g id="edge6_Node000004_Node000007" class="edge">
<title>Node4&#45;&gt;Node7</title>
<g id="a_edge6_Node000004_Node000007"><a xlink:title=" ">
<path fill="none" stroke="#63b8ff" d="M195.8,-55.59C204.6,-47.93 217.25,-36.91 227.77,-27.75"/>
<polygon fill="#63b8ff" stroke="#63b8ff" points="229.94,-30.5 235.18,-21.29 225.34,-25.22 229.94,-30.5"/>
</a>
</g>
</g>
</g>
</svg>
