<?xml version="1.0" encoding="UTF-8" standalone="no"?>
<!DOCTYPE svg PUBLIC "-//W3C//DTD SVG 1.1//EN"
 "http://www.w3.org/Graphics/SVG/1.1/DTD/svg11.dtd">
<!-- Generated by graphviz version 10.0.1 (20240210.2158)
 -->
<!-- Title: AEFileReader::AEFileReader Pages: 1 -->
<svg width="609pt" height="85pt"
 viewBox="0.00 0.00 609.00 85.00" xmlns="http://www.w3.org/2000/svg" xmlns:xlink="http://www.w3.org/1999/xlink">
<g id="graph0" class="graph" transform="scale(1 1) rotate(0) translate(4 81)">
<title>AEFileReader::AEFileReader</title>
<!-- Node1 -->
<g id="Node000001" class="node">
<title>Node1</title>
<g id="a_Node000001"><a xlink:title="Class constructor – constructs the instance and opens the file of given name.">
<polygon fill="#999999" stroke="#666666" points="142,-39 0,-39 0,-19 142,-19 142,-39"/>
<text text-anchor="middle" x="71" y="-25.5" font-family="Helvetica,sans-Serif" font-size="10.00">AEFileReader::AEFileReader</text>
</a>
</g>
</g>
<!-- Node2 -->
<g id="Node000002" class="node">
<title>Node2</title>
<g id="a_Node000002"><a xlink:href="../../dd/dd5/class_a_e_file_reader.html#a3afc3610a9a39a170c7f405dc97557ee" target="_top" xlink:title="Opens the file for reading.">
<polygon fill="white" stroke="#666666" points="296.75,-39 178,-39 178,-19 296.75,-19 296.75,-39"/>
<text text-anchor="middle" x="237.38" y="-25.5" font-family="Helvetica,sans-Serif" font-size="10.00">AEFileReader::openFile</text>
</a>
</g>
</g>
<!-- Node1&#45;&gt;Node2 -->
<g id="edge1_Node000001_Node000002" class="edge">
<title>Node1&#45;&gt;Node2</title>
<g id="a_edge1_Node000001_Node000002"><a xlink:title=" ">
<path fill="none" stroke="#63b8ff" d="M142.19,-29C150.1,-29 158.17,-29 166.08,-29"/>
<polygon fill="#63b8ff" stroke="#63b8ff" points="166.03,-32.5 176.03,-29 166.03,-25.5 166.03,-32.5"/>
</a>
</g>
</g>
<!-- Node3 -->
<g id="Node000003" class="node">
<title>Node3</title>
<g id="a_Node000003"><a xlink:href="../../de/dde/namespaceace_1_1utils.html#a6eb2322353edc04f78dbc3589e60d98c" target="_top" xlink:title="A wrapper to make the proper cross&#45;compiler version of fopen() Opens the file with given name and fla...">
<polygon fill="white" stroke="#666666" points="441.75,-77 343.25,-77 343.25,-57 441.75,-57 441.75,-77"/>
<text text-anchor="middle" x="392.5" y="-63.5" font-family="Helvetica,sans-Serif" font-size="10.00">ace::utils::fopenCC</text>
</a>
</g>
</g>
<!-- Node2&#45;&gt;Node3 -->
<g id="edge2_Node000002_Node000003" class="edge">
<title>Node2&#45;&gt;Node3</title>
<g id="a_edge2_Node000002_Node000003"><a xlink:title=" ">
<path fill="none" stroke="#63b8ff" d="M280.62,-39.48C298.45,-43.91 319.4,-49.11 338.26,-53.79"/>
<polygon fill="#63b8ff" stroke="#63b8ff" points="337.37,-57.17 347.92,-56.19 339.06,-50.38 337.37,-57.17"/>
</a>
</g>
</g>
<!-- Node4 -->
<g id="Node000004" class="node">
<title>Node4</title>
<g id="a_Node000004"><a xlink:href="../../dd/dd5/class_a_e_file_reader.html#a81bb672d7d1a142c7473d880a3842073" target="_top" xlink:title="Checks if a file isn&#39;t open by this file&#45;reader.">
<polygon fill="white" stroke="#666666" points="452.25,-39 332.75,-39 332.75,-19 452.25,-19 452.25,-39"/>
<text text-anchor="middle" x="392.5" y="-25.5" font-family="Helvetica,sans-Serif" font-size="10.00">AEFileReader::isClosed</text>
</a>
</g>
</g>
<!-- Node2&#45;&gt;Node4 -->
<g id="edge3_Node000002_Node000004" class="edge">
<title>Node2&#45;&gt;Node4</title>
<g id="a_edge3_Node000002_Node000004"><a xlink:title=" ">
<path fill="none" stroke="#63b8ff" d="M297.14,-29C304.99,-29 313.11,-29 321.14,-29"/>
<polygon fill="#63b8ff" stroke="#63b8ff" points="320.87,-32.5 330.87,-29 320.87,-25.5 320.87,-32.5"/>
</a>
</g>
</g>
<!-- Node5 -->
<g id="Node000005" class="node">
<title>Node5</title>
<g id="a_Node000005"><a xlink:href="../../dd/dd5/class_a_e_file_reader.html#a07f32763fbb1df143c8aab2be7b856c1" target="_top" xlink:title="Checks if a file is open by this file&#45;reader.">
<polygon fill="white" stroke="#666666" points="601,-20 488.25,-20 488.25,0 601,0 601,-20"/>
<text text-anchor="middle" x="544.62" y="-6.5" font-family="Helvetica,sans-Serif" font-size="10.00">AEFileReader::isOpen</text>
</a>
</g>
</g>
<!-- Node2&#45;&gt;Node5 -->
<g id="edge5_Node000002_Node000005" class="edge">
<title>Node2&#45;&gt;Node5</title>
<g id="a_edge5_Node000002_Node000005"><a xlink:title=" ">
<path fill="none" stroke="#63b8ff" d="M280.86,-18.58C297,-15.12 315.62,-11.71 332.75,-10 380.7,-5.22 435.09,-5.36 476.62,-6.62"/>
<polygon fill="#63b8ff" stroke="#63b8ff" points="476.35,-10.11 486.46,-6.95 476.59,-3.11 476.35,-10.11"/>
</a>
</g>
</g>
<!-- Node4&#45;&gt;Node5 -->
<g id="edge4_Node000004_Node000005" class="edge">
<title>Node4&#45;&gt;Node5</title>
<g id="a_edge4_Node000004_Node000005"><a xlink:title=" ">
<path fill="none" stroke="#63b8ff" d="M452.4,-21.55C460.33,-20.54 468.51,-19.51 476.57,-18.49"/>
<polygon fill="#63b8ff" stroke="#63b8ff" points="476.85,-21.98 486.33,-17.25 475.97,-15.03 476.85,-21.98"/>
</a>
</g>
</g>
</g>
</svg>
