<?xml version="1.0" encoding="UTF-8" standalone="no"?>
<!DOCTYPE svg PUBLIC "-//W3C//DTD SVG 1.1//EN"
 "http://www.w3.org/Graphics/SVG/1.1/DTD/svg11.dtd">
<!-- Generated by graphviz version 10.0.1 (20240210.2158)
 -->
<!-- Title: AEFileReader::readBytes Pages: 1 -->
<svg width="480pt" height="47pt"
 viewBox="0.00 0.00 479.75 47.00" xmlns="http://www.w3.org/2000/svg" xmlns:xlink="http://www.w3.org/1999/xlink">
<g id="graph0" class="graph" transform="scale(1 1) rotate(0) translate(4 43)">
<title>AEFileReader::readBytes</title>
<!-- Node1 -->
<g id="Node000001" class="node">
<title>Node1</title>
<g id="a_Node000001"><a xlink:title="Reads the bytes from the file and dumps them into the given pointer.">
<polygon fill="#999999" stroke="#666666" points="126.25,-39 0,-39 0,-19 126.25,-19 126.25,-39"/>
<text text-anchor="middle" x="63.12" y="-25.5" font-family="Helvetica,sans-Serif" font-size="10.00">AEFileReader::readBytes</text>
</a>
</g>
</g>
<!-- Node2 -->
<g id="Node000002" class="node">
<title>Node2</title>
<g id="a_Node000002"><a xlink:href="../../dd/dd5/class_a_e_file_reader.html#a67d3baebff92aaa0b41216cb67a91e4c" target="_top" xlink:title="Reads an array of dcount elements, each one with a size of dsize bytes, to memory block pointed by cd...">
<polygon fill="white" stroke="#666666" points="471.75,-39 334.25,-39 334.25,-19 471.75,-19 471.75,-39"/>
<text text-anchor="middle" x="403" y="-25.5" font-family="Helvetica,sans-Serif" font-size="10.00">AEFileReader::readData_ptr</text>
</a>
</g>
</g>
<!-- Node1&#45;&gt;Node2 -->
<g id="edge1_Node000001_Node000002" class="edge">
<title>Node1&#45;&gt;Node2</title>
<g id="a_edge1_Node000001_Node000002"><a xlink:title=" ">
<path fill="none" stroke="#63b8ff" d="M126.49,-29C181.75,-29 262.73,-29 322.6,-29"/>
<polygon fill="#63b8ff" stroke="#63b8ff" points="322.39,-32.5 332.39,-29 322.39,-25.5 322.39,-32.5"/>
</a>
</g>
</g>
<!-- Node3 -->
<g id="Node000003" class="node">
<title>Node3</title>
<g id="a_Node000003"><a xlink:href="../../dd/dd5/class_a_e_file_reader.html#abbc85b7bb94f31f54df561d23a38e3dc" target="_top" xlink:title="Reads the bytes (size of T) from the file and dumps/reinterprets them as the value in the passed vari...">
<polygon fill="white" stroke="#666666" points="298.25,-20 162.25,-20 162.25,0 298.25,0 298.25,-20"/>
<text text-anchor="middle" x="230.25" y="-6.5" font-family="Helvetica,sans-Serif" font-size="10.00">AEFileReader::readVariable</text>
</a>
</g>
</g>
<!-- Node1&#45;&gt;Node3 -->
<g id="edge2_Node000001_Node000003" class="edge">
<title>Node1&#45;&gt;Node3</title>
<g id="a_edge2_Node000001_Node000003"><a xlink:title=" ">
<path fill="none" stroke="#63b8ff" d="M126.55,-21.82C134.37,-20.92 142.45,-19.99 150.48,-19.06"/>
<polygon fill="#63b8ff" stroke="#63b8ff" points="150.73,-22.56 160.27,-17.94 149.93,-15.6 150.73,-22.56"/>
</a>
</g>
</g>
<!-- Node3&#45;&gt;Node2 -->
<g id="edge3_Node000003_Node000002" class="edge">
<title>Node3&#45;&gt;Node2</title>
<g id="a_edge3_Node000003_Node000002"><a xlink:title=" ">
<path fill="none" stroke="#63b8ff" d="M298.73,-17.51C306.59,-18.38 314.66,-19.28 322.66,-20.17"/>
<polygon fill="#63b8ff" stroke="#63b8ff" points="322.06,-23.63 332.38,-21.25 322.83,-16.67 322.06,-23.63"/>
</a>
</g>
</g>
</g>
</svg>
