<?xml version="1.0" encoding="UTF-8" standalone="no"?>
<!DOCTYPE svg PUBLIC "-//W3C//DTD SVG 1.1//EN"
 "http://www.w3.org/Graphics/SVG/1.1/DTD/svg11.dtd">
<!-- Generated by graphviz version 10.0.1 (20240210.2158)
 -->
<!-- Title: AEFileReader::isClosed Pages: 1 -->
<svg width="1449pt" height="218pt"
 viewBox="0.00 0.00 1448.50 218.00" xmlns="http://www.w3.org/2000/svg" xmlns:xlink="http://www.w3.org/1999/xlink">
<g id="graph0" class="graph" transform="scale(1 1) rotate(0) translate(4 214)">
<title>AEFileReader::isClosed</title>
<!-- Node1 -->
<g id="Node000001" class="node">
<title>Node1</title>
<g id="a_Node000001"><a xlink:title="Checks if a file isn&#39;t open by this file&#45;reader.">
<polygon fill="#999999" stroke="#666666" points="1440.5,-153 1321,-153 1321,-133 1440.5,-133 1440.5,-153"/>
<text text-anchor="middle" x="1380.75" y="-139.5" font-family="Helvetica,sans-Serif" font-size="10.00">AEFileReader::isClosed</text>
</a>
</g>
</g>
<!-- Node2 -->
<g id="Node000002" class="node">
<title>Node2</title>
<g id="a_Node000002"><a xlink:href="../../dd/dd5/class_a_e_file_reader.html#ad762205dbc9d1c3f2e2043bf8aeebf7c" target="_top" xlink:title="Returns the full, absolute path of the opened file.">
<polygon fill="white" stroke="#666666" points="1276,-210 1144.5,-210 1144.5,-190 1276,-190 1276,-210"/>
<text text-anchor="middle" x="1210.25" y="-196.5" font-family="Helvetica,sans-Serif" font-size="10.00">AEFileReader::getFullPath</text>
</a>
</g>
</g>
<!-- Node1&#45;&gt;Node2 -->
<g id="edge1_Node000001_Node000002" class="edge">
<title>Node1&#45;&gt;Node2</title>
<g id="a_edge1_Node000001_Node000002"><a xlink:title=" ">
<path fill="none" stroke="#63b8ff" d="M1345.82,-157.85C1327.93,-165.36 1305.5,-174.28 1285,-181 1275.58,-184.09 1265.35,-187 1255.59,-189.57"/>
<polygon fill="#63b8ff" stroke="#63b8ff" points="1347.08,-161.11 1354.92,-153.98 1344.35,-154.67 1347.08,-161.11"/>
</a>
</g>
</g>
<!-- Node4 -->
<g id="Node000004" class="node">
<title>Node4</title>
<g id="a_Node000004"><a xlink:href="../../dd/dd5/class_a_e_file_reader.html#aa1f9d6a22bac28f3409558084eb03103" target="_top" xlink:title="Returns the relative path of the opened file.">
<polygon fill="white" stroke="#666666" points="1285,-172 1135.5,-172 1135.5,-152 1285,-152 1285,-172"/>
<text text-anchor="middle" x="1210.25" y="-158.5" font-family="Helvetica,sans-Serif" font-size="10.00">AEFileReader::getRelativePath</text>
</a>
</g>
</g>
<!-- Node1&#45;&gt;Node4 -->
<g id="edge3_Node000001_Node000004" class="edge">
<title>Node1&#45;&gt;Node4</title>
<g id="a_edge3_Node000001_Node000004"><a xlink:title=" ">
<path fill="none" stroke="#63b8ff" d="M1309.6,-150.91C1301.56,-151.82 1293.35,-152.74 1285.26,-153.65"/>
<polygon fill="#63b8ff" stroke="#63b8ff" points="1309.77,-154.41 1319.31,-149.81 1308.98,-147.46 1309.77,-154.41"/>
</a>
</g>
</g>
<!-- Node6 -->
<g id="Node000006" class="node">
<title>Node6</title>
<g id="a_Node000006"><a xlink:href="../../d8/d52/class_a_e_log_parser.html#af349b880be4cdd8c6d27960a038680ab" target="_top" xlink:title="Checks if the file is closed by the AELogParser.">
<polygon fill="white" stroke="#666666" points="1268.88,-134 1151.62,-134 1151.62,-114 1268.88,-114 1268.88,-134"/>
<text text-anchor="middle" x="1210.25" y="-120.5" font-family="Helvetica,sans-Serif" font-size="10.00">AELogParser::isClosed</text>
</a>
</g>
</g>
<!-- Node1&#45;&gt;Node6 -->
<g id="edge5_Node000001_Node000006" class="edge">
<title>Node1&#45;&gt;Node6</title>
<g id="a_edge5_Node000001_Node000006"><a xlink:title=" ">
<path fill="none" stroke="#63b8ff" d="M1309.68,-135.1C1296.24,-133.58 1282.31,-132.01 1269.3,-130.55"/>
<polygon fill="#63b8ff" stroke="#63b8ff" points="1308.98,-138.54 1319.31,-136.19 1309.77,-131.59 1308.98,-138.54"/>
</a>
</g>
</g>
<!-- Node18 -->
<g id="Node000018" class="node">
<title>Node18</title>
<g id="a_Node000018"><a xlink:href="../../dd/dd5/class_a_e_file_reader.html#a3afc3610a9a39a170c7f405dc97557ee" target="_top" xlink:title="Opens the file for reading.">
<polygon fill="white" stroke="#666666" points="1269.62,-58 1150.88,-58 1150.88,-38 1269.62,-38 1269.62,-58"/>
<text text-anchor="middle" x="1210.25" y="-44.5" font-family="Helvetica,sans-Serif" font-size="10.00">AEFileReader::openFile</text>
</a>
</g>
</g>
<!-- Node1&#45;&gt;Node18 -->
<g id="edge18_Node000001_Node000018" class="edge">
<title>Node1&#45;&gt;Node18</title>
<g id="a_edge18_Node000001_Node000018"><a xlink:title=" ">
<path fill="none" stroke="#63b8ff" d="M1351.45,-127.05C1316.86,-107.54 1259.28,-75.08 1229.84,-58.48"/>
<polygon fill="#63b8ff" stroke="#63b8ff" points="1349.65,-130.05 1360.08,-131.91 1353.09,-123.95 1349.65,-130.05"/>
</a>
</g>
</g>
<!-- Node3 -->
<g id="Node000003" class="node">
<title>Node3</title>
<g id="a_Node000003"><a xlink:href="../../d8/d52/class_a_e_log_parser.html#a8b852e7f006c6414580aaec49dab321a" target="_top" xlink:title="Returns the full, absolute path of the opened file.">
<polygon fill="white" stroke="#666666" points="1088.62,-210 959.38,-210 959.38,-190 1088.62,-190 1088.62,-210"/>
<text text-anchor="middle" x="1024" y="-196.5" font-family="Helvetica,sans-Serif" font-size="10.00">AELogParser::getFullPath</text>
</a>
</g>
</g>
<!-- Node2&#45;&gt;Node3 -->
<g id="edge2_Node000002_Node000003" class="edge">
<title>Node2&#45;&gt;Node3</title>
<g id="a_edge2_Node000002_Node000003"><a xlink:title=" ">
<path fill="none" stroke="#63b8ff" d="M1132.53,-200C1118.01,-200 1102.96,-200 1088.89,-200"/>
<polygon fill="#63b8ff" stroke="#63b8ff" points="1132.52,-203.5 1142.52,-200 1132.52,-196.5 1132.52,-203.5"/>
</a>
</g>
</g>
<!-- Node5 -->
<g id="Node000005" class="node">
<title>Node5</title>
<g id="a_Node000005"><a xlink:href="../../d8/d52/class_a_e_log_parser.html#a0a1f374dbcebcbe44497d593247ac8c6" target="_top" xlink:title="Returns the relative path of the opened file.">
<polygon fill="white" stroke="#666666" points="1097.62,-172 950.38,-172 950.38,-152 1097.62,-152 1097.62,-172"/>
<text text-anchor="middle" x="1024" y="-158.5" font-family="Helvetica,sans-Serif" font-size="10.00">AELogParser::getRelativePath</text>
</a>
</g>
</g>
<!-- Node4&#45;&gt;Node5 -->
<g id="edge4_Node000004_Node000005" class="edge">
<title>Node4&#45;&gt;Node5</title>
<g id="a_edge4_Node000004_Node000005"><a xlink:title=" ">
<path fill="none" stroke="#63b8ff" d="M1123.86,-162C1115.25,-162 1106.56,-162 1098.09,-162"/>
<polygon fill="#63b8ff" stroke="#63b8ff" points="1123.59,-165.5 1133.59,-162 1123.59,-158.5 1123.59,-165.5"/>
</a>
</g>
</g>
<!-- Node7 -->
<g id="Node000007" class="node">
<title>Node7</title>
<g id="a_Node000007"><a xlink:href="../../d8/d52/class_a_e_log_parser.html#a04627d27deedd7981a5e106dd8ade5ed" target="_top" xlink:title="Checks if the current log file contains the given severity (or higher, depending on the &quot;strict&#45;sever...">
<polygon fill="white" stroke="#666666" points="1099.5,-134 948.5,-134 948.5,-114 1099.5,-114 1099.5,-134"/>
<text text-anchor="middle" x="1024" y="-120.5" font-family="Helvetica,sans-Serif" font-size="10.00">AELogParser::containsSeverity</text>
</a>
</g>
</g>
<!-- Node6&#45;&gt;Node7 -->
<g id="edge6_Node000006_Node000007" class="edge">
<title>Node6&#45;&gt;Node7</title>
<g id="a_edge6_Node000006_Node000007"><a xlink:title=" ">
<path fill="none" stroke="#63b8ff" d="M1139.94,-124C1126.9,-124 1113.2,-124 1099.99,-124"/>
<polygon fill="#63b8ff" stroke="#63b8ff" points="1139.69,-127.5 1149.69,-124 1139.69,-120.5 1139.69,-127.5"/>
</a>
</g>
</g>
<!-- Node8 -->
<g id="Node000008" class="node">
<title>Node8</title>
<g id="a_Node000008"><a xlink:href="../../d8/d52/class_a_e_log_parser.html#afcff7caee18bdcafa1dc0edb75a75590" target="_top" xlink:title="Finds the AELogEntryInfo corresponding to the next log entry with the specified severity and module n...">
<polygon fill="white" stroke="#666666" points="912.5,-115 774.25,-115 774.25,-95 912.5,-95 912.5,-115"/>
<text text-anchor="middle" x="843.38" y="-101.5" font-family="Helvetica,sans-Serif" font-size="10.00">AELogParser::findNextEntry</text>
</a>
</g>
</g>
<!-- Node6&#45;&gt;Node8 -->
<g id="edge17_Node000006_Node000008" class="edge">
<title>Node6&#45;&gt;Node8</title>
<g id="a_edge17_Node000006_Node000008"><a xlink:title=" ">
<path fill="none" stroke="#63b8ff" d="M1148.24,-111.53C1132.43,-108.82 1115.39,-106.37 1099.5,-105 1036.39,-99.58 964.18,-100.21 912.73,-101.83"/>
<polygon fill="#63b8ff" stroke="#63b8ff" points="1147.55,-114.96 1158,-113.26 1148.77,-108.07 1147.55,-114.96"/>
</a>
</g>
</g>
<!-- Node7&#45;&gt;Node8 -->
<g id="edge7_Node000007_Node000008" class="edge">
<title>Node7&#45;&gt;Node8</title>
<g id="a_edge7_Node000007_Node000008"><a xlink:title=" ">
<path fill="none" stroke="#63b8ff" d="M936.75,-114.83C928.75,-113.97 920.71,-113.12 912.9,-112.29"/>
<polygon fill="#63b8ff" stroke="#63b8ff" points="936.2,-118.29 946.52,-115.86 936.94,-111.33 936.2,-118.29"/>
</a>
</g>
</g>
<!-- Node9 -->
<g id="Node000009" class="node">
<title>Node9</title>
<g id="a_Node000009"><a xlink:href="../../d8/d52/class_a_e_log_parser.html#ae89b754ad98409469e9b7405f63edee2" target="_top" xlink:title="Read the next indexed valid log entry in the file of the given severity and module name filter,...">
<polygon fill="white" stroke="#666666" points="738.25,-115 588,-115 588,-95 738.25,-95 738.25,-115"/>
<text text-anchor="middle" x="663.12" y="-101.5" font-family="Helvetica,sans-Serif" font-size="10.00">AELogParser::nextEntryCursor</text>
</a>
</g>
</g>
<!-- Node8&#45;&gt;Node9 -->
<g id="edge8_Node000008_Node000009" class="edge">
<title>Node8&#45;&gt;Node9</title>
<g id="a_edge8_Node000008_Node000009"><a xlink:title=" ">
<path fill="none" stroke="#63b8ff" d="M762.71,-105C754.68,-105 746.55,-105 738.57,-105"/>
<polygon fill="#63b8ff" stroke="#63b8ff" points="762.46,-108.5 772.46,-105 762.46,-101.5 762.46,-108.5"/>
</a>
</g>
</g>
<!-- Node10 -->
<g id="Node000010" class="node">
<title>Node10</title>
<g id="a_Node000010"><a xlink:href="../../d8/d52/class_a_e_log_parser.html#af3c28f50c5f52840be97e631d67b244c" target="_top" xlink:title="Read the next valid entry in the log file of the given severity and module name filter,...">
<polygon fill="white" stroke="#666666" points="525,-153 403.25,-153 403.25,-133 525,-133 525,-153"/>
<text text-anchor="middle" x="464.12" y="-139.5" font-family="Helvetica,sans-Serif" font-size="10.00">AELogParser::nextEntry</text>
</a>
</g>
</g>
<!-- Node9&#45;&gt;Node10 -->
<g id="edge9_Node000009_Node000010" class="edge">
<title>Node9&#45;&gt;Node10</title>
<g id="a_edge9_Node000009_Node000010"><a xlink:title=" ">
<path fill="none" stroke="#63b8ff" d="M596.51,-117.66C571.45,-122.49 543.18,-127.94 519.3,-132.55"/>
<polygon fill="#63b8ff" stroke="#63b8ff" points="597.13,-121.1 606.29,-115.77 595.8,-114.23 597.13,-121.1"/>
</a>
</g>
</g>
<!-- Node16 -->
<g id="Node000016" class="node">
<title>Node16</title>
<g id="a_Node000016"><a xlink:href="../../d8/d52/class_a_e_log_parser.html#a6e74863a220efa6ca9c3b3067d953469" target="_top" xlink:title="Read the next indexed valid log entry in the file of the given module name filter,...">
<polygon fill="white" stroke="#666666" points="552,-115 376.25,-115 376.25,-95 552,-95 552,-115"/>
<text text-anchor="middle" x="464.12" y="-101.5" font-family="Helvetica,sans-Serif" font-size="10.00">AELogParser::nextEntryCursorName</text>
</a>
</g>
</g>
<!-- Node9&#45;&gt;Node16 -->
<g id="edge15_Node000009_Node000016" class="edge">
<title>Node9&#45;&gt;Node16</title>
<g id="a_edge15_Node000009_Node000016"><a xlink:title=" ">
<path fill="none" stroke="#63b8ff" d="M576.15,-105C568.23,-105 560.21,-105 552.28,-105"/>
<polygon fill="#63b8ff" stroke="#63b8ff" points="576.13,-108.5 586.13,-105 576.13,-101.5 576.13,-108.5"/>
</a>
</g>
</g>
<!-- Node17 -->
<g id="Node000017" class="node">
<title>Node17</title>
<g id="a_Node000017"><a xlink:href="../../d8/d52/class_a_e_log_parser.html#aff3bcd025e52cd530cbb576d47915c53" target="_top" xlink:title="Read the next indexed valid log entry in the file of the given severity filter and return it&#39;s file c...">
<polygon fill="white" stroke="#666666" points="549.75,-77 378.5,-77 378.5,-57 549.75,-57 549.75,-77"/>
<text text-anchor="middle" x="464.12" y="-63.5" font-family="Helvetica,sans-Serif" font-size="10.00">AELogParser::nextEntryCursorType</text>
</a>
</g>
</g>
<!-- Node9&#45;&gt;Node17 -->
<g id="edge16_Node000009_Node000017" class="edge">
<title>Node9&#45;&gt;Node17</title>
<g id="a_edge16_Node000009_Node000017"><a xlink:title=" ">
<path fill="none" stroke="#63b8ff" d="M596.51,-92.34C571.45,-87.51 543.18,-82.06 519.3,-77.45"/>
<polygon fill="#63b8ff" stroke="#63b8ff" points="595.8,-95.77 606.29,-94.23 597.13,-88.9 595.8,-95.77"/>
</a>
</g>
</g>
<!-- Node11 -->
<g id="Node000011" class="node">
<title>Node11</title>
<g id="a_Node000011"><a xlink:href="../../d8/d52/class_a_e_log_parser.html#a182d51b4aa5771e2e6f6919300e571ca" target="_top" xlink:title="Same as the AELogParser::nextEntry() but on massive scale – scans the whole log file and parses it to...">
<polygon fill="white" stroke="#666666" points="332.38,-191 200.88,-191 200.88,-171 332.38,-171 332.38,-191"/>
<text text-anchor="middle" x="266.62" y="-177.5" font-family="Helvetica,sans-Serif" font-size="10.00">AELogParser::logToQueue</text>
</a>
</g>
</g>
<!-- Node10&#45;&gt;Node11 -->
<g id="edge10_Node000010_Node000011" class="edge">
<title>Node10&#45;&gt;Node11</title>
<g id="a_edge10_Node000010_Node000011"><a xlink:title=" ">
<path fill="none" stroke="#63b8ff" d="M398.01,-155.66C373.14,-160.49 345.08,-165.94 321.39,-170.55"/>
<polygon fill="#63b8ff" stroke="#63b8ff" points="398.55,-159.12 407.7,-153.77 397.22,-152.25 398.55,-159.12"/>
</a>
</g>
</g>
<!-- Node14 -->
<g id="Node000014" class="node">
<title>Node14</title>
<g id="a_Node000014"><a xlink:href="../../d8/d52/class_a_e_log_parser.html#a768d4b94cbf1504d72f93ec5d131e915" target="_top" xlink:title="Read the next valid entry in the log file of the given module name, and parse it into the given AELog...">
<polygon fill="white" stroke="#666666" points="340.25,-153 193,-153 193,-133 340.25,-133 340.25,-153"/>
<text text-anchor="middle" x="266.62" y="-139.5" font-family="Helvetica,sans-Serif" font-size="10.00">AELogParser::nextEntryName</text>
</a>
</g>
</g>
<!-- Node10&#45;&gt;Node14 -->
<g id="edge13_Node000010_Node000014" class="edge">
<title>Node10&#45;&gt;Node14</title>
<g id="a_edge13_Node000010_Node000014"><a xlink:title=" ">
<path fill="none" stroke="#63b8ff" d="M391.54,-143C374.88,-143 357.12,-143 340.4,-143"/>
<polygon fill="#63b8ff" stroke="#63b8ff" points="391.36,-146.5 401.36,-143 391.36,-139.5 391.36,-146.5"/>
</a>
</g>
</g>
<!-- Node15 -->
<g id="Node000015" class="node">
<title>Node15</title>
<g id="a_Node000015"><a xlink:href="../../d8/d52/class_a_e_log_parser.html#a0e03f67c2a0eaa0317904a2bd9f70cc0" target="_top" xlink:title="Read the next valid entry in the log file of the given severity, and parse it to the given AELogEntry...">
<polygon fill="white" stroke="#666666" points="338,-115 195.25,-115 195.25,-95 338,-95 338,-115"/>
<text text-anchor="middle" x="266.62" y="-101.5" font-family="Helvetica,sans-Serif" font-size="10.00">AELogParser::nextEntryType</text>
</a>
</g>
</g>
<!-- Node10&#45;&gt;Node15 -->
<g id="edge14_Node000010_Node000015" class="edge">
<title>Node10&#45;&gt;Node15</title>
<g id="a_edge14_Node000010_Node000015"><a xlink:title=" ">
<path fill="none" stroke="#63b8ff" d="M398.01,-130.34C373.14,-125.51 345.08,-120.06 321.39,-115.45"/>
<polygon fill="#63b8ff" stroke="#63b8ff" points="397.22,-133.75 407.7,-132.23 398.55,-126.88 397.22,-133.75"/>
</a>
</g>
</g>
<!-- Node12 -->
<g id="Node000012" class="node">
<title>Node12</title>
<g id="a_Node000012"><a xlink:href="../../d8/d52/class_a_e_log_parser.html#ae5044cf01623156d91ddc74492b0aeda" target="_top" xlink:title="A shortcut to AELogParser::logToQueue() to filter only by the module name of the log entries.">
<polygon fill="white" stroke="#666666" points="157,-210 0,-210 0,-190 157,-190 157,-210"/>
<text text-anchor="middle" x="78.5" y="-196.5" font-family="Helvetica,sans-Serif" font-size="10.00">AELogParser::logToQueueName</text>
</a>
</g>
</g>
<!-- Node11&#45;&gt;Node12 -->
<g id="edge11_Node000011_Node000012" class="edge">
<title>Node11&#45;&gt;Node12</title>
<g id="a_edge11_Node000011_Node000012"><a xlink:title=" ">
<path fill="none" stroke="#63b8ff" d="M189.25,-188.8C178.72,-189.87 167.9,-190.98 157.35,-192.05"/>
<polygon fill="#63b8ff" stroke="#63b8ff" points="189.43,-192.3 199.02,-187.8 188.72,-185.33 189.43,-192.3"/>
</a>
</g>
</g>
<!-- Node13 -->
<g id="Node000013" class="node">
<title>Node13</title>
<g id="a_Node000013"><a xlink:href="../../d8/d52/class_a_e_log_parser.html#ab84bb93f08ed48082f74b00290deb308" target="_top" xlink:title="A shortcut to AELogParser::logToQueue() to filter only by type/severity of the log entries.">
<polygon fill="white" stroke="#666666" points="154.75,-172 2.25,-172 2.25,-152 154.75,-152 154.75,-172"/>
<text text-anchor="middle" x="78.5" y="-158.5" font-family="Helvetica,sans-Serif" font-size="10.00">AELogParser::logToQueueType</text>
</a>
</g>
</g>
<!-- Node11&#45;&gt;Node13 -->
<g id="edge12_Node000011_Node000013" class="edge">
<title>Node11&#45;&gt;Node13</title>
<g id="a_edge12_Node000011_Node000013"><a xlink:title=" ">
<path fill="none" stroke="#63b8ff" d="M189.35,-173.21C178.04,-172.06 166.39,-170.87 155.09,-169.72"/>
<polygon fill="#63b8ff" stroke="#63b8ff" points="188.72,-176.67 199.02,-174.2 189.43,-169.7 188.72,-176.67"/>
</a>
</g>
</g>
<!-- Node19 -->
<g id="Node000019" class="node">
<title>Node19</title>
<g id="a_Node000019"><a xlink:href="../../dd/dd5/class_a_e_file_reader.html#a7d0c498896f1c10c36330ef4efaee81e" target="_top" xlink:title="Class constructor – constructs the instance and opens the file of given name.">
<polygon fill="white" stroke="#666666" points="1095,-58 953,-58 953,-38 1095,-38 1095,-58"/>
<text text-anchor="middle" x="1024" y="-44.5" font-family="Helvetica,sans-Serif" font-size="10.00">AEFileReader::AEFileReader</text>
</a>
</g>
</g>
<!-- Node18&#45;&gt;Node19 -->
<g id="edge19_Node000018_Node000019" class="edge">
<title>Node18&#45;&gt;Node19</title>
<g id="a_edge19_Node000018_Node000019"><a xlink:title=" ">
<path fill="none" stroke="#63b8ff" d="M1139.16,-48C1124.86,-48 1109.8,-48 1095.48,-48"/>
<polygon fill="#63b8ff" stroke="#63b8ff" points="1138.93,-51.5 1148.93,-48 1138.93,-44.5 1138.93,-51.5"/>
</a>
</g>
</g>
<!-- Node20 -->
<g id="Node000020" class="node">
<title>Node20</title>
<g id="a_Node000020"><a xlink:href="../../d8/d52/class_a_e_log_parser.html#a8e90913ac25c938e2e84a9887c5bae66" target="_top" xlink:title="Opens the log file, reading and parsing every single entry, classifying it by type.">
<polygon fill="white" stroke="#666666" points="1082.25,-20 965.75,-20 965.75,0 1082.25,0 1082.25,-20"/>
<text text-anchor="middle" x="1024" y="-6.5" font-family="Helvetica,sans-Serif" font-size="10.00">AELogParser::openLog</text>
</a>
</g>
</g>
<!-- Node18&#45;&gt;Node20 -->
<g id="edge20_Node000018_Node000020" class="edge">
<title>Node18&#45;&gt;Node20</title>
<g id="a_edge20_Node000018_Node000020"><a xlink:title=" ">
<path fill="none" stroke="#63b8ff" d="M1147.25,-35.21C1123.97,-30.41 1097.8,-25.01 1075.67,-20.45"/>
<polygon fill="#63b8ff" stroke="#63b8ff" points="1146.43,-38.62 1156.93,-37.21 1147.85,-31.76 1146.43,-38.62"/>
</a>
</g>
</g>
</g>
</svg>
