<?xml version="1.0" encoding="UTF-8" standalone="no"?>
<!DOCTYPE svg PUBLIC "-//W3C//DTD SVG 1.1//EN"
 "http://www.w3.org/Graphics/SVG/1.1/DTD/svg11.dtd">
<!-- Generated by graphviz version 10.0.1 (20240210.2158)
 -->
<!-- Title: AEFileReader::closeFile Pages: 1 -->
<svg width="493pt" height="66pt"
 viewBox="0.00 0.00 492.50 66.00" xmlns="http://www.w3.org/2000/svg" xmlns:xlink="http://www.w3.org/1999/xlink">
<g id="graph0" class="graph" transform="scale(1 1) rotate(0) translate(4 62)">
<title>AEFileReader::closeFile</title>
<!-- Node1 -->
<g id="Node000001" class="node">
<title>Node1</title>
<g id="a_Node000001"><a xlink:title="Closes the currently opened file.">
<polygon fill="#999999" stroke="#666666" points="484.5,-39 363.5,-39 363.5,-19 484.5,-19 484.5,-39"/>
<text text-anchor="middle" x="424" y="-25.5" font-family="Helvetica,sans-Serif" font-size="10.00">AEFileReader::closeFile</text>
</a>
</g>
</g>
<!-- Node2 -->
<g id="Node000002" class="node">
<title>Node2</title>
<g id="a_Node000002"><a xlink:href="../../dd/dd5/class_a_e_file_reader.html#a474cd877396fb45421a6973762e83d7c" target="_top" xlink:title="Default Destructor.">
<polygon fill="white" stroke="#666666" points="327.5,-58 179.5,-58 179.5,-38 327.5,-38 327.5,-58"/>
<text text-anchor="middle" x="253.5" y="-44.5" font-family="Helvetica,sans-Serif" font-size="10.00">AEFileReader::~AEFileReader</text>
</a>
</g>
</g>
<!-- Node1&#45;&gt;Node2 -->
<g id="edge1_Node000001_Node000002" class="edge">
<title>Node1&#45;&gt;Node2</title>
<g id="a_edge1_Node000001_Node000002"><a xlink:title=" ">
<path fill="none" stroke="#63b8ff" d="M351.95,-37.01C343.95,-37.91 335.79,-38.83 327.76,-39.74"/>
<polygon fill="#63b8ff" stroke="#63b8ff" points="352.07,-40.52 361.61,-35.92 351.29,-33.56 352.07,-40.52"/>
</a>
</g>
</g>
<!-- Node3 -->
<g id="Node000003" class="node">
<title>Node3</title>
<g id="a_Node000003"><a xlink:href="../../d8/d52/class_a_e_log_parser.html#ad79df0ff0313d4414ce55c13c7078ece" target="_top" xlink:title="Closes the log file and clears the memory.">
<polygon fill="white" stroke="#666666" points="312.88,-20 194.12,-20 194.12,0 312.88,0 312.88,-20"/>
<text text-anchor="middle" x="253.5" y="-6.5" font-family="Helvetica,sans-Serif" font-size="10.00">AELogParser::closeLog</text>
</a>
</g>
</g>
<!-- Node1&#45;&gt;Node3 -->
<g id="edge2_Node000001_Node000003" class="edge">
<title>Node1&#45;&gt;Node3</title>
<g id="a_edge2_Node000001_Node000003"><a xlink:title=" ">
<path fill="none" stroke="#63b8ff" d="M351.95,-20.99C339.09,-19.54 325.8,-18.04 313.34,-16.63"/>
<polygon fill="#63b8ff" stroke="#63b8ff" points="351.29,-24.44 361.61,-22.08 352.07,-17.48 351.29,-24.44"/>
</a>
</g>
</g>
<!-- Node4 -->
<g id="Node000004" class="node">
<title>Node4</title>
<g id="a_Node000004"><a xlink:href="../../d8/d52/class_a_e_log_parser.html#a2c35902cdfa4f883d1d8f10dd546f4ed" target="_top" xlink:title="Class destructor – closes the log file.">
<polygon fill="white" stroke="#666666" points="143.5,-20 0,-20 0,0 143.5,0 143.5,-20"/>
<text text-anchor="middle" x="71.75" y="-6.5" font-family="Helvetica,sans-Serif" font-size="10.00">AELogParser::~AELogParser</text>
</a>
</g>
</g>
<!-- Node3&#45;&gt;Node4 -->
<g id="edge3_Node000003_Node000004" class="edge">
<title>Node3&#45;&gt;Node4</title>
<g id="a_edge3_Node000003_Node000004"><a xlink:title=" ">
<path fill="none" stroke="#63b8ff" d="M182.27,-10C169.69,-10 156.57,-10 143.97,-10"/>
<polygon fill="#63b8ff" stroke="#63b8ff" points="182.13,-13.5 192.13,-10 182.13,-6.5 182.13,-13.5"/>
</a>
</g>
</g>
</g>
</svg>
