<?xml version="1.0" encoding="UTF-8" standalone="no"?>
<!DOCTYPE svg PUBLIC "-//W3C//DTD SVG 1.1//EN"
 "http://www.w3.org/Graphics/SVG/1.1/DTD/svg11.dtd">
<!-- Generated by graphviz version 10.0.1 (20240210.2158)
 -->
<!-- Title: AEFileReader::readData_ptr Pages: 1 -->
<!--zoomable 446 -->

<svg id="main" version="1.1" xmlns="http://www.w3.org/2000/svg" xmlns:xlink="http://www.w3.org/1999/xlink" xml:space="preserve" onload="init(evt)">
<style type="text/css"><![CDATA[
.node, .edge {opacity: 0.7;}
.node.selected, .edge.selected {opacity: 1;}
.edge:hover path { stroke: red; }
.edge:hover polygon { stroke: red; fill: red; }
]]></style>

<defs>
  <circle id="rim" cx="0" cy="0" r="7"/>
  <circle id="rim2" cx="0" cy="0" r="3.5"/>
  <g id="zoomPlus">
    <use xlink:href="#rim" fill="#404040"><set attributeName="fill" to="#808080" begin="zoomplus.mouseover" end="zoomplus.mouseout"/></use>
    <path d="M-4,0h8M0,-4v8" fill="none" stroke="white" stroke-width="1.5" pointer-events="none"/>
  </g>
  <g id="zoomMin">
    <use xlink:href="#rim" fill="#404040"><set attributeName="fill" to="#808080" begin="zoomminus.mouseover" end="zoomminus.mouseout"/></use>
    <path d="M-4,0h8" fill="none" stroke="white" stroke-width="1.5" pointer-events="none"/>
  </g>
  <g id="arrowUp" transform="translate(30 24)">
    <use xlink:href="#rim"/>
    <path pointer-events="none" fill="none" stroke="white" stroke-width="1.5" d="M0,-3.0v7 M-2.5,-0.5L0,-3.0L2.5,-0.5"/>
  </g>
  <g id="arrowRight" transform="rotate(90) translate(36 -43)">
    <use xlink:href="#rim"/>
    <path pointer-events="none" fill="none" stroke="white" stroke-width="1.5" d="M0,-3.0v7 M-2.5,-0.5L0,-3.0L2.5,-0.5"/>
  </g>
  <g id="arrowDown" transform="rotate(180) translate(-30 -48)">
    <use xlink:href="#rim"/>
    <path pointer-events="none" fill="none" stroke="white" stroke-width="1.5" d="M0,-3.0v7 M-2.5,-0.5L0,-3.0L2.5,-0.5"/>
  </g>
  <g id="arrowLeft" transform="rotate(270) translate(-36 17)">
    <use xlink:href="#rim"/>
    <path pointer-events="none" fill="none" stroke="white" stroke-width="1.5" d="M0,-3.0v7 M-2.5,-0.5L0,-3.0L2.5,-0.5"/>
  </g>
  <g id="resetDef">
    <use xlink:href="#rim2" fill="#404040"><set attributeName="fill" to="#808080" begin="reset.mouseover" end="reset.mouseout"/></use>
  </g>
</defs>
<script type="application/ecmascript">
var viewWidth = 1063;
var viewHeight = 446;
var sectionId = 'dynsection-25';
</script>
<script type="application/ecmascript" xlink:href="../../svg.min.js"/>
<svg id="graph" class="graph">
<g id="viewport">
<title>AEFileReader::readData_ptr</title>
<!-- Node1 -->
<g id="Node000001" class="node">
<title>Node1</title>
<g id="a_Node000001"><a xlink:title="Reads an array of dcount elements, each one with a size of dsize bytes, to memory block pointed by cd...">
<polygon fill="#999999" stroke="#666666" points="1054.5,-400 917,-400 917,-380 1054.5,-380 1054.5,-400"/>
<text text-anchor="middle" x="985.75" y="-386.5" font-family="Helvetica,sans-Serif" font-size="10.00">AEFileReader::readData_ptr</text>
</a>
</g>
</g>
<!-- Node2 -->
<g id="Node000002" class="node">
<title>Node2</title>
<g id="a_Node000002"><a xlink:href="../../dd/dd5/class_a_e_file_reader.html#ae7a5a1bbf170bb315c9f0b448a862882" target="_top" xlink:title="Reads the bytes from the file and dumps them into the std::vector&lt;unsigned char&gt;.">
<polygon fill="white" stroke="#666666" points="697.38,-438 571.12,-438 571.12,-418 697.38,-418 697.38,-438"/>
<text text-anchor="middle" x="634.25" y="-424.5" font-family="Helvetica,sans-Serif" font-size="10.00">AEFileReader::readBytes</text>
</a>
</g>
</g>
<!-- Node1&#45;&gt;Node2 -->
<g id="edge1_Node000001_Node000002" class="edge">
<title>Node1&#45;&gt;Node2</title>
<g id="a_edge1_Node000001_Node000002"><a xlink:title=" ">
<path fill="none" stroke="#63b8ff" d="M905.48,-401C897.22,-402.06 888.94,-403.08 881,-404 818.73,-411.24 747.4,-418.04 697.69,-422.54"/>
<polygon fill="#63b8ff" stroke="#63b8ff" points="905.74,-404.5 915.21,-399.74 904.84,-397.56 905.74,-404.5"/>
</a>
</g>
</g>
<!-- Node3 -->
<g id="Node000003" class="node">
<title>Node3</title>
<g id="a_Node000003"><a xlink:href="../../dd/dd5/class_a_e_file_reader.html#acc49d70dfb4385a28d70f06717a16426" target="_top" xlink:title="Reads the bytes from the file and dumps them into the given pointer.">
<polygon fill="white" stroke="#666666" points="697.38,-400 571.12,-400 571.12,-380 697.38,-380 697.38,-400"/>
<text text-anchor="middle" x="634.25" y="-386.5" font-family="Helvetica,sans-Serif" font-size="10.00">AEFileReader::readBytes</text>
</a>
</g>
</g>
<!-- Node1&#45;&gt;Node3 -->
<g id="edge2_Node000001_Node000003" class="edge">
<title>Node1&#45;&gt;Node3</title>
<g id="a_edge2_Node000001_Node000003"><a xlink:title=" ">
<path fill="none" stroke="#63b8ff" d="M905.08,-390C842.18,-390 755.67,-390 697.72,-390"/>
<polygon fill="#63b8ff" stroke="#63b8ff" points="905.02,-393.5 915.02,-390 905.02,-386.5 905.02,-393.5"/>
</a>
</g>
</g>
<!-- Node4 -->
<g id="Node000004" class="node">
<title>Node4</title>
<g id="a_Node000004"><a xlink:href="../../dd/dd5/class_a_e_file_reader.html#abbc85b7bb94f31f54df561d23a38e3dc" target="_top" xlink:title="Reads the bytes (size of T) from the file and dumps/reinterprets them as the value in the passed vari...">
<polygon fill="white" stroke="#666666" points="881,-248 745,-248 745,-228 881,-228 881,-248"/>
<text text-anchor="middle" x="813" y="-234.5" font-family="Helvetica,sans-Serif" font-size="10.00">AEFileReader::readVariable</text>
</a>
</g>
</g>
<!-- Node1&#45;&gt;Node4 -->
<g id="edge3_Node000001_Node000004" class="edge">
<title>Node1&#45;&gt;Node4</title>
<g id="a_edge3_Node000001_Node000004"><a xlink:title=" ">
<path fill="none" stroke="#63b8ff" d="M964.73,-372.18C928.66,-340.07 853.87,-273.49 825.37,-248.12"/>
<polygon fill="#63b8ff" stroke="#63b8ff" points="962.09,-374.51 971.88,-378.55 966.74,-369.28 962.09,-374.51"/>
</a>
</g>
</g>
<!-- Node4&#45;&gt;Node2 -->
<g id="edge13_Node000004_Node000002" class="edge">
<title>Node4&#45;&gt;Node2</title>
<g id="a_edge13_Node000004_Node000002"><a xlink:title=" ">
<path fill="none" stroke="#63b8ff" d="M805.25,-259.15C792.53,-295.57 761.43,-369.93 709,-409 704.34,-412.48 699.1,-415.32 693.62,-417.64"/>
<polygon fill="#63b8ff" stroke="#63b8ff" points="808.53,-260.4 808.39,-249.8 801.89,-258.17 808.53,-260.4"/>
</a>
</g>
</g>
<!-- Node4&#45;&gt;Node3 -->
<g id="edge14_Node000004_Node000003" class="edge">
<title>Node4&#45;&gt;Node3</title>
<g id="a_edge14_Node000004_Node000003"><a xlink:title=" ">
<path fill="none" stroke="#63b8ff" d="M802,-258.13C786.32,-287.55 753.13,-341.96 709,-371 703.81,-374.42 698.04,-377.22 692.08,-379.52"/>
<polygon fill="#63b8ff" stroke="#63b8ff" points="804.97,-260.02 806.44,-249.52 798.75,-256.8 804.97,-260.02"/>
</a>
</g>
</g>
<!-- Node5 -->
<g id="Node000005" class="node">
<title>Node5</title>
<g id="a_Node000005"><a xlink:href="../../dd/dd5/class_a_e_file_reader.html#a4f23e9b7f6465dc50432ee4f20f6f73e" target="_top" xlink:title="Returns current read cursor position.">
<polygon fill="white" stroke="#666666" points="704.88,-134 563.62,-134 563.62,-114 704.88,-114 704.88,-134"/>
<text text-anchor="middle" x="634.25" y="-120.5" font-family="Helvetica,sans-Serif" font-size="10.00">AEFileReader::getCursorPos</text>
</a>
</g>
</g>
<!-- Node4&#45;&gt;Node5 -->
<g id="edge4_Node000004_Node000005" class="edge">
<title>Node4&#45;&gt;Node5</title>
<g id="a_edge4_Node000004_Node000005"><a xlink:title=" ">
<path fill="none" stroke="#63b8ff" d="M796.62,-219.02C778.08,-197.4 744.92,-162.56 709,-143 702.73,-139.59 695.82,-136.77 688.83,-134.44"/>
<polygon fill="#63b8ff" stroke="#63b8ff" points="793.77,-221.07 802.88,-226.49 799.14,-216.58 793.77,-221.07"/>
</a>
</g>
</g>
<!-- Node7 -->
<g id="Node000007" class="node">
<title>Node7</title>
<g id="a_Node000007"><a xlink:href="../../dd/dd5/class_a_e_file_reader.html#a753c6f40c4a15739ed88aa0937f72969" target="_top" xlink:title="Returns the name of the opened file, devoid of the path.">
<polygon fill="white" stroke="#666666" points="702.62,-96 565.88,-96 565.88,-76 702.62,-76 702.62,-96"/>
<text text-anchor="middle" x="634.25" y="-82.5" font-family="Helvetica,sans-Serif" font-size="10.00">AEFileReader::getFileName</text>
</a>
</g>
</g>
<!-- Node4&#45;&gt;Node7 -->
<g id="edge6_Node000004_Node000007" class="edge">
<title>Node4&#45;&gt;Node7</title>
<g id="a_edge6_Node000004_Node000007"><a xlink:title=" ">
<path fill="none" stroke="#63b8ff" d="M802,-217.87C786.32,-188.45 753.13,-134.04 709,-105 703.81,-101.58 698.04,-98.78 692.08,-96.48"/>
<polygon fill="#63b8ff" stroke="#63b8ff" points="798.75,-219.2 806.44,-226.48 804.97,-215.98 798.75,-219.2"/>
</a>
</g>
</g>
<!-- Node9 -->
<g id="Node000009" class="node">
<title>Node9</title>
<g id="a_Node000009"><a xlink:href="../../dd/dd5/class_a_e_file_reader.html#ac66abca824fd32fb0c854d0391a64289" target="_top" xlink:title="Returns size of the file in bytes.">
<polygon fill="white" stroke="#666666" points="699.62,-58 568.88,-58 568.88,-38 699.62,-38 699.62,-58"/>
<text text-anchor="middle" x="634.25" y="-44.5" font-family="Helvetica,sans-Serif" font-size="10.00">AEFileReader::getFileSize</text>
</a>
</g>
</g>
<!-- Node4&#45;&gt;Node9 -->
<g id="edge8_Node000004_Node000009" class="edge">
<title>Node4&#45;&gt;Node9</title>
<g id="a_edge8_Node000004_Node000009"><a xlink:title=" ">
<path fill="none" stroke="#63b8ff" d="M805.25,-216.85C792.53,-180.43 761.43,-106.07 709,-67 704.34,-63.52 699.1,-60.68 693.62,-58.36"/>
<polygon fill="#63b8ff" stroke="#63b8ff" points="801.89,-217.83 808.39,-226.2 808.53,-215.6 801.89,-217.83"/>
</a>
</g>
</g>
<!-- Node10 -->
<g id="Node000010" class="node">
<title>Node10</title>
<g id="a_Node000010"><a xlink:href="../../dd/dd5/class_a_e_file_reader.html#aa1f9d6a22bac28f3409558084eb03103" target="_top" xlink:title="Returns the relative path of the opened file.">
<polygon fill="white" stroke="#666666" points="709,-20 559.5,-20 559.5,0 709,0 709,-20"/>
<text text-anchor="middle" x="634.25" y="-6.5" font-family="Helvetica,sans-Serif" font-size="10.00">AEFileReader::getRelativePath</text>
</a>
</g>
</g>
<!-- Node4&#45;&gt;Node10 -->
<g id="edge9_Node000004_Node000010" class="edge">
<title>Node4&#45;&gt;Node10</title>
<g id="a_edge9_Node000004_Node000010"><a xlink:title=" ">
<path fill="none" stroke="#63b8ff" d="M807.71,-216.7C798.01,-174.23 770.29,-78.82 709,-29 704.79,-25.58 700.04,-22.77 695.03,-20.46"/>
<polygon fill="#63b8ff" stroke="#63b8ff" points="804.26,-217.34 809.79,-226.38 811.11,-215.86 804.26,-217.34"/>
</a>
</g>
</g>
<!-- Node12 -->
<g id="Node000012" class="node">
<title>Node12</title>
<g id="a_Node000012"><a xlink:href="../../dd/dd5/class_a_e_file_reader.html#a4e144d05ae74507bb7b04d68bb15289e" target="_top" xlink:title="Reads the byte from the file and dumps/reinterprets it as the value in the passed bool (null is false...">
<polygon fill="white" stroke="#666666" points="694.38,-362 574.12,-362 574.12,-342 694.38,-342 694.38,-362"/>
<text text-anchor="middle" x="634.25" y="-348.5" font-family="Helvetica,sans-Serif" font-size="10.00">AEFileReader::readBool</text>
</a>
</g>
</g>
<!-- Node4&#45;&gt;Node12 -->
<g id="edge11_Node000004_Node000012" class="edge">
<title>Node4&#45;&gt;Node12</title>
<g id="a_edge11_Node000004_Node000012"><a xlink:title=" ">
<path fill="none" stroke="#63b8ff" d="M796.62,-256.98C778.08,-278.6 744.92,-313.44 709,-333 702.73,-336.41 695.82,-339.23 688.83,-341.56"/>
<polygon fill="#63b8ff" stroke="#63b8ff" points="799.14,-259.42 802.88,-249.51 793.77,-254.93 799.14,-259.42"/>
</a>
</g>
</g>
<!-- Node13 -->
<g id="Node000013" class="node">
<title>Node13</title>
<g id="a_Node000013"><a xlink:href="../../dd/dd5/class_a_e_file_reader.html#a9bc4766a80101a9b3c2e3d9a66f807be" target="_top" xlink:title="Reads the byte from the file and writes you to a given unsigned.">
<polygon fill="white" stroke="#666666" points="694.75,-324 573.75,-324 573.75,-304 694.75,-304 694.75,-324"/>
<text text-anchor="middle" x="634.25" y="-310.5" font-family="Helvetica,sans-Serif" font-size="10.00">AEFileReader::readByte</text>
</a>
</g>
</g>
<!-- Node4&#45;&gt;Node13 -->
<g id="edge12_Node000004_Node000013" class="edge">
<title>Node4&#45;&gt;Node13</title>
<g id="a_edge12_Node000004_Node000013"><a xlink:title=" ">
<path fill="none" stroke="#63b8ff" d="M786.49,-254.51C766.17,-267.07 736.65,-283.99 709,-295 700.77,-298.28 691.8,-301.14 683.03,-303.58"/>
<polygon fill="#63b8ff" stroke="#63b8ff" points="788.33,-257.49 794.93,-249.21 784.6,-251.57 788.33,-257.49"/>
</a>
</g>
</g>
<!-- Node14 -->
<g id="Node000014" class="node">
<title>Node14</title>
<g id="a_Node000014"><a xlink:href="../../dd/dd5/class_a_e_file_reader.html#a65c9f2addc13e720716cb30ee60f813c" target="_top" xlink:title="Reads the character from the file and writes you to a given char.">
<polygon fill="white" stroke="#666666" points="694.75,-286 573.75,-286 573.75,-266 694.75,-266 694.75,-286"/>
<text text-anchor="middle" x="634.25" y="-272.5" font-family="Helvetica,sans-Serif" font-size="10.00">AEFileReader::readChar</text>
</a>
</g>
</g>
<!-- Node4&#45;&gt;Node14 -->
<g id="edge15_Node000004_Node000014" class="edge">
<title>Node4&#45;&gt;Node14</title>
<g id="a_edge15_Node000004_Node000014"><a xlink:title=" ">
<path fill="none" stroke="#63b8ff" d="M752.22,-250.85C729.96,-255.64 704.99,-261.01 683.86,-265.55"/>
<polygon fill="#63b8ff" stroke="#63b8ff" points="752.71,-254.33 761.75,-248.8 751.24,-247.48 752.71,-254.33"/>
</a>
</g>
</g>
<!-- Node15 -->
<g id="Node000015" class="node">
<title>Node15</title>
<g id="a_Node000015"><a xlink:href="../../dd/dd5/class_a_e_file_reader.html#a5da1419ac8805b32f3ffd7b8a92828d6" target="_top" xlink:title="Reads the bytes (size of T) from the file and dumps/reinterprets them as the value in the passed floa...">
<polygon fill="white" stroke="#666666" points="695.5,-248 573,-248 573,-228 695.5,-228 695.5,-248"/>
<text text-anchor="middle" x="634.25" y="-234.5" font-family="Helvetica,sans-Serif" font-size="10.00">AEFileReader::readFloat</text>
</a>
</g>
</g>
<!-- Node4&#45;&gt;Node15 -->
<g id="edge16_Node000004_Node000015" class="edge">
<title>Node4&#45;&gt;Node15</title>
<g id="a_edge16_Node000004_Node000015"><a xlink:title=" ">
<path fill="none" stroke="#63b8ff" d="M733.22,-238C720.64,-238 707.8,-238 695.72,-238"/>
<polygon fill="#63b8ff" stroke="#63b8ff" points="733.16,-241.5 743.16,-238 733.16,-234.5 733.16,-241.5"/>
</a>
</g>
</g>
<!-- Node16 -->
<g id="Node000016" class="node">
<title>Node16</title>
<g id="a_Node000016"><a xlink:href="../../dd/dd5/class_a_e_file_reader.html#a5900607899bc01d33f94a1e9138cd5a9" target="_top" xlink:title="Reads the bytes (size of T) from the file and dumps/reinterprets them as the value in the passed inte...">
<polygon fill="white" stroke="#666666" points="689.88,-210 578.62,-210 578.62,-190 689.88,-190 689.88,-210"/>
<text text-anchor="middle" x="634.25" y="-196.5" font-family="Helvetica,sans-Serif" font-size="10.00">AEFileReader::readInt</text>
</a>
</g>
</g>
<!-- Node4&#45;&gt;Node16 -->
<g id="edge17_Node000004_Node000016" class="edge">
<title>Node4&#45;&gt;Node16</title>
<g id="a_edge17_Node000004_Node000016"><a xlink:title=" ">
<path fill="none" stroke="#63b8ff" d="M752.22,-225.15C729.96,-220.36 704.99,-214.99 683.86,-210.45"/>
<polygon fill="#63b8ff" stroke="#63b8ff" points="751.24,-228.52 761.75,-227.2 752.71,-221.67 751.24,-228.52"/>
</a>
</g>
</g>
<!-- Node17 -->
<g id="Node000017" class="node">
<title>Node17</title>
<g id="a_Node000017"><a xlink:href="../../dd/dd5/class_a_e_file_reader.html#a477effa6d568ec7993c4d506d0d0420c" target="_top" xlink:title="Sets read cursor position to pos from origin.">
<polygon fill="white" stroke="#666666" points="704.88,-172 563.62,-172 563.62,-152 704.88,-152 704.88,-172"/>
<text text-anchor="middle" x="634.25" y="-158.5" font-family="Helvetica,sans-Serif" font-size="10.00">AEFileReader::setCursorPos</text>
</a>
</g>
</g>
<!-- Node4&#45;&gt;Node17 -->
<g id="edge18_Node000004_Node000017" class="edge">
<title>Node4&#45;&gt;Node17</title>
<g id="a_edge18_Node000004_Node000017"><a xlink:title=" ">
<path fill="none" stroke="#63b8ff" d="M786.49,-221.49C766.17,-208.93 736.65,-192.01 709,-181 700.77,-177.72 691.8,-174.86 683.03,-172.42"/>
<polygon fill="#63b8ff" stroke="#63b8ff" points="784.6,-224.43 794.93,-226.79 788.33,-218.51 784.6,-224.43"/>
</a>
</g>
</g>
<!-- Node6 -->
<g id="Node000006" class="node">
<title>Node6</title>
<g id="a_Node000006"><a xlink:href="../../d8/d52/class_a_e_log_parser.html#a8e90913ac25c938e2e84a9887c5bae66" target="_top" xlink:title="Opens the log file, reading and parsing every single entry, classifying it by type.">
<polygon fill="white" stroke="#666666" points="508.12,-134 391.62,-134 391.62,-114 508.12,-114 508.12,-134"/>
<text text-anchor="middle" x="449.88" y="-120.5" font-family="Helvetica,sans-Serif" font-size="10.00">AELogParser::openLog</text>
</a>
</g>
</g>
<!-- Node5&#45;&gt;Node6 -->
<g id="edge5_Node000005_Node000006" class="edge">
<title>Node5&#45;&gt;Node6</title>
<g id="a_edge5_Node000005_Node000006"><a xlink:title=" ">
<path fill="none" stroke="#63b8ff" d="M552.12,-124C537.43,-124 522.39,-124 508.55,-124"/>
<polygon fill="#63b8ff" stroke="#63b8ff" points="551.75,-127.5 561.75,-124 551.75,-120.5 551.75,-127.5"/>
</a>
</g>
</g>
<!-- Node8 -->
<g id="Node000008" class="node">
<title>Node8</title>
<g id="a_Node000008"><a xlink:href="../../d8/d52/class_a_e_log_parser.html#a63a04021dcd2c31540c50182f8912c9d" target="_top" xlink:title="Returns the name of the opened file, devoid of the path.">
<polygon fill="white" stroke="#666666" points="517.12,-96 382.62,-96 382.62,-76 517.12,-76 517.12,-96"/>
<text text-anchor="middle" x="449.88" y="-82.5" font-family="Helvetica,sans-Serif" font-size="10.00">AELogParser::getFileName</text>
</a>
</g>
</g>
<!-- Node7&#45;&gt;Node8 -->
<g id="edge7_Node000007_Node000008" class="edge">
<title>Node7&#45;&gt;Node8</title>
<g id="a_edge7_Node000007_Node000008"><a xlink:title=" ">
<path fill="none" stroke="#63b8ff" d="M554.41,-86C542.11,-86 529.5,-86 517.51,-86"/>
<polygon fill="#63b8ff" stroke="#63b8ff" points="554.09,-89.5 564.09,-86 554.09,-82.5 554.09,-89.5"/>
</a>
</g>
</g>
<!-- Node11 -->
<g id="Node000011" class="node">
<title>Node11</title>
<g id="a_Node000011"><a xlink:href="../../d8/d52/class_a_e_log_parser.html#a0a1f374dbcebcbe44497d593247ac8c6" target="_top" xlink:title="Returns the relative path of the opened file.">
<polygon fill="white" stroke="#666666" points="523.5,-20 376.25,-20 376.25,0 523.5,0 523.5,-20"/>
<text text-anchor="middle" x="449.88" y="-6.5" font-family="Helvetica,sans-Serif" font-size="10.00">AELogParser::getRelativePath</text>
</a>
</g>
</g>
<!-- Node10&#45;&gt;Node11 -->
<g id="edge10_Node000010_Node000011" class="edge">
<title>Node10&#45;&gt;Node11</title>
<g id="a_edge10_Node000010_Node000011"><a xlink:title=" ">
<path fill="none" stroke="#63b8ff" d="M547.8,-10C539.78,-10 531.7,-10 523.81,-10"/>
<polygon fill="#63b8ff" stroke="#63b8ff" points="547.56,-13.5 557.56,-10 547.56,-6.5 547.56,-13.5"/>
</a>
</g>
</g>
<!-- Node18 -->
<g id="Node000018" class="node">
<title>Node18</title>
<g id="a_Node000018"><a xlink:href="../../d8/d52/class_a_e_log_parser.html#af3c28f50c5f52840be97e631d67b244c" target="_top" xlink:title="Read the next valid entry in the log file of the given severity and module name filter,...">
<polygon fill="white" stroke="#666666" points="510.75,-172 389,-172 389,-152 510.75,-152 510.75,-172"/>
<text text-anchor="middle" x="449.88" y="-158.5" font-family="Helvetica,sans-Serif" font-size="10.00">AELogParser::nextEntry</text>
</a>
</g>
</g>
<!-- Node17&#45;&gt;Node18 -->
<g id="edge19_Node000017_Node000018" class="edge">
<title>Node17&#45;&gt;Node18</title>
<g id="a_edge19_Node000017_Node000018"><a xlink:title=" ">
<path fill="none" stroke="#63b8ff" d="M551.86,-162C538.18,-162 524.2,-162 511.17,-162"/>
<polygon fill="#63b8ff" stroke="#63b8ff" points="551.75,-165.5 561.75,-162 551.75,-158.5 551.75,-165.5"/>
</a>
</g>
</g>
<!-- Node19 -->
<g id="Node000019" class="node">
<title>Node19</title>
<g id="a_Node000019"><a xlink:href="../../d8/d52/class_a_e_log_parser.html#a182d51b4aa5771e2e6f6919300e571ca" target="_top" xlink:title="Same as the AELogParser::nextEntry() but on massive scale – scans the whole log file and parses it to...">
<polygon fill="white" stroke="#666666" points="332.38,-210 200.88,-210 200.88,-190 332.38,-190 332.38,-210"/>
<text text-anchor="middle" x="266.62" y="-196.5" font-family="Helvetica,sans-Serif" font-size="10.00">AELogParser::logToQueue</text>
</a>
</g>
</g>
<!-- Node18&#45;&gt;Node19 -->
<g id="edge20_Node000018_Node000019" class="edge">
<title>Node18&#45;&gt;Node19</title>
<g id="a_edge20_Node000018_Node000019"><a xlink:title=" ">
<path fill="none" stroke="#63b8ff" d="M387.88,-174.79C364.98,-179.59 339.24,-184.99 317.47,-189.55"/>
<polygon fill="#63b8ff" stroke="#63b8ff" points="388.32,-178.27 397.39,-172.79 386.88,-171.42 388.32,-178.27"/>
</a>
</g>
</g>
<!-- Node22 -->
<g id="Node000022" class="node">
<title>Node22</title>
<g id="a_Node000022"><a xlink:href="../../d8/d52/class_a_e_log_parser.html#a768d4b94cbf1504d72f93ec5d131e915" target="_top" xlink:title="Read the next valid entry in the log file of the given module name, and parse it into the given AELog...">
<polygon fill="white" stroke="#666666" points="340.25,-172 193,-172 193,-152 340.25,-152 340.25,-172"/>
<text text-anchor="middle" x="266.62" y="-158.5" font-family="Helvetica,sans-Serif" font-size="10.00">AELogParser::nextEntryName</text>
</a>
</g>
</g>
<!-- Node18&#45;&gt;Node22 -->
<g id="edge23_Node000018_Node000022" class="edge">
<title>Node18&#45;&gt;Node22</title>
<g id="a_edge23_Node000018_Node000022"><a xlink:title=" ">
<path fill="none" stroke="#63b8ff" d="M377.17,-162C365.16,-162 352.67,-162 340.63,-162"/>
<polygon fill="#63b8ff" stroke="#63b8ff" points="377.01,-165.5 387.01,-162 377.01,-158.5 377.01,-165.5"/>
</a>
</g>
</g>
<!-- Node23 -->
<g id="Node000023" class="node">
<title>Node23</title>
<g id="a_Node000023"><a xlink:href="../../d8/d52/class_a_e_log_parser.html#a0e03f67c2a0eaa0317904a2bd9f70cc0" target="_top" xlink:title="Read the next valid entry in the log file of the given severity, and parse it to the given AELogEntry...">
<polygon fill="white" stroke="#666666" points="338,-134 195.25,-134 195.25,-114 338,-114 338,-134"/>
<text text-anchor="middle" x="266.62" y="-120.5" font-family="Helvetica,sans-Serif" font-size="10.00">AELogParser::nextEntryType</text>
</a>
</g>
</g>
<!-- Node18&#45;&gt;Node23 -->
<g id="edge24_Node000018_Node000023" class="edge">
<title>Node18&#45;&gt;Node23</title>
<g id="a_edge24_Node000018_Node000023"><a xlink:title=" ">
<path fill="none" stroke="#63b8ff" d="M387.88,-149.21C364.98,-144.41 339.24,-139.01 317.47,-134.45"/>
<polygon fill="#63b8ff" stroke="#63b8ff" points="386.88,-152.58 397.39,-151.21 388.32,-145.73 386.88,-152.58"/>
</a>
</g>
</g>
<!-- Node20 -->
<g id="Node000020" class="node">
<title>Node20</title>
<g id="a_Node000020"><a xlink:href="../../d8/d52/class_a_e_log_parser.html#ae5044cf01623156d91ddc74492b0aeda" target="_top" xlink:title="A shortcut to AELogParser::logToQueue() to filter only by the module name of the log entries.">
<polygon fill="white" stroke="#666666" points="157,-229 0,-229 0,-209 157,-209 157,-229"/>
<text text-anchor="middle" x="78.5" y="-215.5" font-family="Helvetica,sans-Serif" font-size="10.00">AELogParser::logToQueueName</text>
</a>
</g>
</g>
<!-- Node19&#45;&gt;Node20 -->
<g id="edge21_Node000019_Node000020" class="edge">
<title>Node19&#45;&gt;Node20</title>
<g id="a_edge21_Node000019_Node000020"><a xlink:title=" ">
<path fill="none" stroke="#63b8ff" d="M189.25,-207.8C178.72,-208.87 167.9,-209.98 157.35,-211.05"/>
<polygon fill="#63b8ff" stroke="#63b8ff" points="189.43,-211.3 199.02,-206.8 188.72,-204.33 189.43,-211.3"/>
</a>
</g>
</g>
<!-- Node21 -->
<g id="Node000021" class="node">
<title>Node21</title>
<g id="a_Node000021"><a xlink:href="../../d8/d52/class_a_e_log_parser.html#ab84bb93f08ed48082f74b00290deb308" target="_top" xlink:title="A shortcut to AELogParser::logToQueue() to filter only by type/severity of the log entries.">
<polygon fill="white" stroke="#666666" points="154.75,-191 2.25,-191 2.25,-171 154.75,-171 154.75,-191"/>
<text text-anchor="middle" x="78.5" y="-177.5" font-family="Helvetica,sans-Serif" font-size="10.00">AELogParser::logToQueueType</text>
</a>
</g>
</g>
<!-- Node19&#45;&gt;Node21 -->
<g id="edge22_Node000019_Node000021" class="edge">
<title>Node19&#45;&gt;Node21</title>
<g id="a_edge22_Node000019_Node000021"><a xlink:title=" ">
<path fill="none" stroke="#63b8ff" d="M189.35,-192.21C178.04,-191.06 166.39,-189.87 155.09,-188.72"/>
<polygon fill="#63b8ff" stroke="#63b8ff" points="188.72,-195.67 199.02,-193.2 189.43,-188.7 188.72,-195.67"/>
</a>
</g>
</g>
</g>
</svg>

<g id="navigator" transform="translate(0 0)" fill="#404254">
  <rect fill="#f2f5e9" fill-opacity="0.5" stroke="#606060" stroke-width=".5" x="0" y="0" width="60" height="60"/>
  <use id="zoomplus" xlink:href="#zoomPlus" x="17" y="9" onmousedown="handleZoom(evt,'in')"/>
  <use id="zoomminus" xlink:href="#zoomMin" x="42" y="9" onmousedown="handleZoom(evt,'out')"/>
  <use id="reset" xlink:href="#resetDef" x="30" y="36" onmousedown="handleReset()"/>
   <use id="arrowup" xlink:href="#arrowUp" x="0" y="0" onmousedown="handlePan(0,-1)"/>
  <use id="arrowright" xlink:href="#arrowRight" x="0" y="0" onmousedown="handlePan(1,0)"/>
  <use id="arrowdown" xlink:href="#arrowDown" x="0" y="0" onmousedown="handlePan(0,1)"/>
  <use id="arrowleft" xlink:href="#arrowLeft" x="0" y="0" onmousedown="handlePan(-1,0)"/>
</g>
<svg viewBox="0 0 15 15" width="100%" height="30px" preserveAspectRatio="xMaxYMin meet">
 <g id="arrow_out" transform="scale(0.3 0.3)">
  <a xlink:href="class_a_e_file_reader_a67d3baebff92aaa0b41216cb67a91e4c_icgraph_org.svg" target="_base">
   <rect id="button" ry="5" rx="5" y="6" x="6" height="38" width="38"
        fill="#f2f5e9" fill-opacity="0.5" stroke="#606060" stroke-width="1.0"/>
   <path id="arrow"
     d="M 11.500037,31.436501 C 11.940474,20.09759 22.043105,11.32322 32.158766,21.979434 L 37.068811,17.246167 C 37.068811,17.246167 37.088388,32 37.088388,32 L 22.160133,31.978069 C 22.160133,31.978069 26.997745,27.140456 26.997745,27.140456 C 18.528582,18.264221 13.291696,25.230495 11.500037,31.436501 z"
     style="fill:#404040;"/>
  </a>
 </g>
</svg>

<style type='text/css'>
<![CDATA[
[data-mouse-over-selected='false'] { opacity: 0.7; }
[data-mouse-over-selected='true']  { opacity: 1.0; }
]]>
</style>
<script type="application/ecmascript"><![CDATA[
document.addEventListener('DOMContentLoaded', (event) => {
  highlightEdges();
  highlightAdjacentNodes();
});
]]></script>
</svg>
