<?xml version="1.0" encoding="UTF-8" standalone="no"?>
<!DOCTYPE svg PUBLIC "-//W3C//DTD SVG 1.1//EN"
 "http://www.w3.org/Graphics/SVG/1.1/DTD/svg11.dtd">
<!-- Generated by graphviz version 10.0.1 (20240210.2158)
 -->
<!-- Title: AEFileReader::readString Pages: 1 -->
<svg width="297pt" height="46pt"
 viewBox="0.00 0.00 296.50 46.00" xmlns="http://www.w3.org/2000/svg" xmlns:xlink="http://www.w3.org/1999/xlink">
<g id="graph0" class="graph" transform="scale(1 1) rotate(0) translate(4 42)">
<title>AEFileReader::readString</title>
<!-- Node1 -->
<g id="Node000001" class="node">
<title>Node1</title>
<g id="a_Node000001"><a xlink:title="Reads the given amount of bytes and interprets them as the string.">
<polygon fill="#999999" stroke="#666666" points="126.25,-20 0,-20 0,0 126.25,0 126.25,-20"/>
<text text-anchor="middle" x="63.12" y="-6.5" font-family="Helvetica,sans-Serif" font-size="10.00">AEFileReader::readString</text>
</a>
</g>
</g>
<!-- Node2 -->
<g id="Node000002" class="node">
<title>Node2</title>
<g id="a_Node000002"><a xlink:href="../../dd/dd5/class_a_e_file_reader.html#acd59ffc8ea1c5b6b836e144aaf4d3ead" target="_top" xlink:title="Reads the given amount of bytes and interprets them as the string.">
<polygon fill="white" stroke="#666666" points="288.5,-20 162.25,-20 162.25,0 288.5,0 288.5,-20"/>
<text text-anchor="middle" x="225.38" y="-6.5" font-family="Helvetica,sans-Serif" font-size="10.00">AEFileReader::readString</text>
</a>
</g>
</g>
<!-- Node1&#45;&gt;Node2 -->
<g id="edge1_Node000001_Node000002" class="edge">
<title>Node1&#45;&gt;Node2</title>
<g id="a_edge1_Node000001_Node000002"><a xlink:title=" ">
<path fill="none" stroke="#63b8ff" d="M126.54,-10C134.43,-10 142.55,-10 150.59,-10"/>
<polygon fill="#63b8ff" stroke="#63b8ff" points="150.35,-13.5 160.35,-10 150.35,-6.5 150.35,-13.5"/>
</a>
</g>
</g>
<!-- Node2&#45;&gt;Node2 -->
<g id="edge2_Node000002_Node000002" class="edge">
<title>Node2&#45;&gt;Node2</title>
<g id="a_edge2_Node000002_Node000002"><a xlink:title=" ">
<path fill="none" stroke="#63b8ff" d="M199.6,-20.34C188.58,-28.98 197.17,-38 225.38,-38 240.8,-38 250.36,-35.3 254.05,-31.44"/>
<polygon fill="#63b8ff" stroke="#63b8ff" points="257.45,-30.6 251.54,-21.8 250.67,-32.36 257.45,-30.6"/>
</a>
</g>
</g>
</g>
</svg>
