<?xml version="1.0" encoding="UTF-8" standalone="no"?>
<!DOCTYPE svg PUBLIC "-//W3C//DTD SVG 1.1//EN"
 "http://www.w3.org/Graphics/SVG/1.1/DTD/svg11.dtd">
<!-- Generated by graphviz version 10.0.1 (20240210.2158)
 -->
<!-- Title: AEFileReader::readStringNL Pages: 1 -->
<svg width="321pt" height="46pt"
 viewBox="0.00 0.00 320.50 46.00" xmlns="http://www.w3.org/2000/svg" xmlns:xlink="http://www.w3.org/1999/xlink">
<g id="graph0" class="graph" transform="scale(1 1) rotate(0) translate(4 42)">
<title>AEFileReader::readStringNL</title>
<!-- Node1 -->
<g id="Node000001" class="node">
<title>Node1</title>
<g id="a_Node000001"><a xlink:title="Reads the characters to a std::vector&lt;char&gt; untill a newline (included), or untill the maximum charac...">
<polygon fill="#999999" stroke="#666666" points="138.25,-20 0,-20 0,0 138.25,0 138.25,-20"/>
<text text-anchor="middle" x="69.12" y="-6.5" font-family="Helvetica,sans-Serif" font-size="10.00">AEFileReader::readStringNL</text>
</a>
</g>
</g>
<!-- Node2 -->
<g id="Node000002" class="node">
<title>Node2</title>
<g id="a_Node000002"><a xlink:href="../../dd/dd5/class_a_e_file_reader.html#a391b5815b099e3d347a4d758a92e3295" target="_top" xlink:title="Reads the characters to a std::string untill a newline (included), or untill the maximum character am...">
<polygon fill="white" stroke="#666666" points="312.5,-20 174.25,-20 174.25,0 312.5,0 312.5,-20"/>
<text text-anchor="middle" x="243.38" y="-6.5" font-family="Helvetica,sans-Serif" font-size="10.00">AEFileReader::readStringNL</text>
</a>
</g>
</g>
<!-- Node1&#45;&gt;Node2 -->
<g id="edge1_Node000001_Node000002" class="edge">
<title>Node1&#45;&gt;Node2</title>
<g id="a_edge1_Node000001_Node000002"><a xlink:title=" ">
<path fill="none" stroke="#63b8ff" d="M138.7,-10C146.45,-10 154.4,-10 162.29,-10"/>
<polygon fill="#63b8ff" stroke="#63b8ff" points="162.24,-13.5 172.24,-10 162.24,-6.5 162.24,-13.5"/>
</a>
</g>
</g>
<!-- Node2&#45;&gt;Node2 -->
<g id="edge2_Node000002_Node000002" class="edge">
<title>Node2&#45;&gt;Node2</title>
<g id="a_edge2_Node000002_Node000002"><a xlink:title=" ">
<path fill="none" stroke="#63b8ff" d="M215.69,-20.34C203.86,-28.98 213.09,-38 243.38,-38 260.41,-38 270.79,-35.14 274.5,-31.11"/>
<polygon fill="#63b8ff" stroke="#63b8ff" points="277.9,-30.24 271.52,-21.78 271.23,-32.37 277.9,-30.24"/>
</a>
</g>
</g>
</g>
</svg>
