<?xml version="1.0" encoding="UTF-8" standalone="no"?>
<!DOCTYPE svg PUBLIC "-//W3C//DTD SVG 1.1//EN"
 "http://www.w3.org/Graphics/SVG/1.1/DTD/svg11.dtd">
<!-- Generated by graphviz version 10.0.1 (20240210.2158)
 -->
<!-- Title: AEFileReader::readData_ptr Pages: 1 -->
<svg width="1063pt" height="484pt"
 viewBox="0.00 0.00 1062.50 484.00" xmlns="http://www.w3.org/2000/svg" xmlns:xlink="http://www.w3.org/1999/xlink">
<g id="graph0" class="graph" transform="scale(1 1) rotate(0) translate(4 480)">
<title>AEFileReader::readData_ptr</title>
<!-- Node1 -->
<g id="Node000001" class="node">
<title>Node1</title>
<g id="a_Node000001"><a xlink:title="Reads an array of dcount elements, each one with a size of dsize bytes, to memory block pointed by cd...">
<polygon fill="#999999" stroke="#666666" points="1054.5,-438 917,-438 917,-418 1054.5,-418 1054.5,-438"/>
<text text-anchor="middle" x="985.75" y="-424.5" font-family="Helvetica,sans-Serif" font-size="10.00">AEFileReader::readData_ptr</text>
</a>
</g>
</g>
<!-- Node2 -->
<g id="Node000002" class="node">
<title>Node2</title>
<g id="a_Node000002"><a xlink:href="../../dd/dd5/class_a_e_file_reader.html#ae7a5a1bbf170bb315c9f0b448a862882" target="_top" xlink:title="Reads the bytes from the file and dumps them into the std::vector&lt;unsigned char&gt;.">
<polygon fill="white" stroke="#666666" points="697.38,-476 571.12,-476 571.12,-456 697.38,-456 697.38,-476"/>
<text text-anchor="middle" x="634.25" y="-462.5" font-family="Helvetica,sans-Serif" font-size="10.00">AEFileReader::readBytes</text>
</a>
</g>
</g>
<!-- Node1&#45;&gt;Node2 -->
<g id="edge1_Node000001_Node000002" class="edge">
<title>Node1&#45;&gt;Node2</title>
<g id="a_edge1_Node000001_Node000002"><a xlink:title=" ">
<path fill="none" stroke="#63b8ff" d="M905.48,-439C897.22,-440.06 888.94,-441.08 881,-442 818.73,-449.24 747.4,-456.04 697.69,-460.54"/>
<polygon fill="#63b8ff" stroke="#63b8ff" points="905.74,-442.5 915.21,-437.74 904.84,-435.56 905.74,-442.5"/>
</a>
</g>
</g>
<!-- Node3 -->
<g id="Node000003" class="node">
<title>Node3</title>
<g id="a_Node000003"><a xlink:href="../../dd/dd5/class_a_e_file_reader.html#acc49d70dfb4385a28d70f06717a16426" target="_top" xlink:title="Reads the bytes from the file and dumps them into the given pointer.">
<polygon fill="white" stroke="#666666" points="697.38,-438 571.12,-438 571.12,-418 697.38,-418 697.38,-438"/>
<text text-anchor="middle" x="634.25" y="-424.5" font-family="Helvetica,sans-Serif" font-size="10.00">AEFileReader::readBytes</text>
</a>
</g>
</g>
<!-- Node1&#45;&gt;Node3 -->
<g id="edge2_Node000001_Node000003" class="edge">
<title>Node1&#45;&gt;Node3</title>
<g id="a_edge2_Node000001_Node000003"><a xlink:title=" ">
<path fill="none" stroke="#63b8ff" d="M905.08,-428C842.18,-428 755.67,-428 697.72,-428"/>
<polygon fill="#63b8ff" stroke="#63b8ff" points="905.02,-431.5 915.02,-428 905.02,-424.5 905.02,-431.5"/>
</a>
</g>
</g>
<!-- Node4 -->
<g id="Node000004" class="node">
<title>Node4</title>
<g id="a_Node000004"><a xlink:href="../../dd/dd5/class_a_e_file_reader.html#abbc85b7bb94f31f54df561d23a38e3dc" target="_top" xlink:title="Reads the bytes (size of T) from the file and dumps/reinterprets them as the value in the passed vari...">
<polygon fill="white" stroke="#666666" points="881,-267 745,-267 745,-247 881,-247 881,-267"/>
<text text-anchor="middle" x="813" y="-253.5" font-family="Helvetica,sans-Serif" font-size="10.00">AEFileReader::readVariable</text>
</a>
</g>
</g>
<!-- Node1&#45;&gt;Node4 -->
<g id="edge3_Node000001_Node000004" class="edge">
<title>Node1&#45;&gt;Node4</title>
<g id="a_edge3_Node000001_Node000004"><a xlink:title=" ">
<path fill="none" stroke="#63b8ff" d="M966.6,-409.83C930.87,-374.04 852.41,-295.47 824.29,-267.3"/>
<polygon fill="#63b8ff" stroke="#63b8ff" points="963.71,-411.89 973.26,-416.49 968.67,-406.94 963.71,-411.89"/>
</a>
</g>
</g>
<!-- Node4&#45;&gt;Node2 -->
<g id="edge16_Node000004_Node000002" class="edge">
<title>Node4&#45;&gt;Node2</title>
<g id="a_edge16_Node000004_Node000002"><a xlink:title=" ">
<path fill="none" stroke="#63b8ff" d="M806.66,-277.99C795.51,-317.41 765.96,-402.51 709,-447 704.62,-450.42 699.7,-453.23 694.52,-455.53"/>
<polygon fill="#63b8ff" stroke="#63b8ff" points="809.97,-279.14 809.2,-268.58 803.21,-277.32 809.97,-279.14"/>
</a>
</g>
</g>
<!-- Node4&#45;&gt;Node3 -->
<g id="edge17_Node000004_Node000003" class="edge">
<title>Node4&#45;&gt;Node3</title>
<g id="a_edge17_Node000004_Node000003"><a xlink:title=" ">
<path fill="none" stroke="#63b8ff" d="M803.79,-277.66C789.59,-310.67 757.26,-375.01 709,-409 704.14,-412.43 698.7,-415.24 693.05,-417.54"/>
<polygon fill="#63b8ff" stroke="#63b8ff" points="806.87,-279.37 807.47,-268.8 800.41,-276.69 806.87,-279.37"/>
</a>
</g>
</g>
<!-- Node5 -->
<g id="Node000005" class="node">
<title>Node5</title>
<g id="a_Node000005"><a xlink:href="../../dd/dd5/class_a_e_file_reader.html#a4f23e9b7f6465dc50432ee4f20f6f73e" target="_top" xlink:title="Returns current read cursor position.">
<polygon fill="white" stroke="#666666" points="704.88,-172 563.62,-172 563.62,-152 704.88,-152 704.88,-172"/>
<text text-anchor="middle" x="634.25" y="-158.5" font-family="Helvetica,sans-Serif" font-size="10.00">AEFileReader::getCursorPos</text>
</a>
</g>
</g>
<!-- Node4&#45;&gt;Node5 -->
<g id="edge4_Node000004_Node000005" class="edge">
<title>Node4&#45;&gt;Node5</title>
<g id="a_edge4_Node000004_Node000005"><a xlink:title=" ">
<path fill="none" stroke="#63b8ff" d="M792.53,-239.02C772.85,-221.77 740.88,-196.16 709,-181 701.96,-177.65 694.24,-174.83 686.54,-172.49"/>
<polygon fill="#63b8ff" stroke="#63b8ff" points="789.99,-241.44 799.78,-245.5 794.66,-236.23 789.99,-241.44"/>
</a>
</g>
</g>
<!-- Node7 -->
<g id="Node000007" class="node">
<title>Node7</title>
<g id="a_Node000007"><a xlink:href="../../dd/dd5/class_a_e_file_reader.html#a753c6f40c4a15739ed88aa0937f72969" target="_top" xlink:title="Returns the name of the opened file, devoid of the path.">
<polygon fill="white" stroke="#666666" points="702.62,-96 565.88,-96 565.88,-76 702.62,-76 702.62,-96"/>
<text text-anchor="middle" x="634.25" y="-82.5" font-family="Helvetica,sans-Serif" font-size="10.00">AEFileReader::getFileName</text>
</a>
</g>
</g>
<!-- Node4&#45;&gt;Node7 -->
<g id="edge6_Node000004_Node000007" class="edge">
<title>Node4&#45;&gt;Node7</title>
<g id="a_edge6_Node000004_Node000007"><a xlink:title=" ">
<path fill="none" stroke="#63b8ff" d="M803.79,-236.34C789.59,-203.33 757.26,-138.99 709,-105 704.14,-101.57 698.7,-98.76 693.05,-96.46"/>
<polygon fill="#63b8ff" stroke="#63b8ff" points="800.41,-237.31 807.47,-245.2 806.87,-234.63 800.41,-237.31"/>
</a>
</g>
</g>
<!-- Node9 -->
<g id="Node000009" class="node">
<title>Node9</title>
<g id="a_Node000009"><a xlink:href="../../dd/dd5/class_a_e_file_reader.html#ac66abca824fd32fb0c854d0391a64289" target="_top" xlink:title="Returns size of the file in bytes.">
<polygon fill="white" stroke="#666666" points="699.62,-58 568.88,-58 568.88,-38 699.62,-38 699.62,-58"/>
<text text-anchor="middle" x="634.25" y="-44.5" font-family="Helvetica,sans-Serif" font-size="10.00">AEFileReader::getFileSize</text>
</a>
</g>
</g>
<!-- Node4&#45;&gt;Node9 -->
<g id="edge8_Node000004_Node000009" class="edge">
<title>Node4&#45;&gt;Node9</title>
<g id="a_edge8_Node000004_Node000009"><a xlink:title=" ">
<path fill="none" stroke="#63b8ff" d="M806.66,-236.01C795.51,-196.59 765.96,-111.49 709,-67 704.62,-63.58 699.7,-60.77 694.52,-58.47"/>
<polygon fill="#63b8ff" stroke="#63b8ff" points="803.21,-236.68 809.2,-245.42 809.97,-234.86 803.21,-236.68"/>
</a>
</g>
</g>
<!-- Node10 -->
<g id="Node000010" class="node">
<title>Node10</title>
<g id="a_Node000010"><a xlink:href="../../dd/dd5/class_a_e_file_reader.html#aa1f9d6a22bac28f3409558084eb03103" target="_top" xlink:title="Returns the relative path of the opened file.">
<polygon fill="white" stroke="#666666" points="709,-20 559.5,-20 559.5,0 709,0 709,-20"/>
<text text-anchor="middle" x="634.25" y="-6.5" font-family="Helvetica,sans-Serif" font-size="10.00">AEFileReader::getRelativePath</text>
</a>
</g>
</g>
<!-- Node4&#45;&gt;Node10 -->
<g id="edge9_Node000004_Node000010" class="edge">
<title>Node4&#45;&gt;Node10</title>
<g id="a_edge9_Node000004_Node000010"><a xlink:title=" ">
<path fill="none" stroke="#63b8ff" d="M808.66,-235.67C800.42,-190.4 774.79,-84.34 709,-29 704.95,-25.6 700.37,-22.79 695.52,-20.48"/>
<polygon fill="#63b8ff" stroke="#63b8ff" points="805.2,-236.2 810.33,-245.47 812.1,-235.02 805.2,-236.2"/>
</a>
</g>
</g>
<!-- Node12 -->
<g id="Node000012" class="node">
<title>Node12</title>
<g id="a_Node000012"><a xlink:href="../../dd/dd5/class_a_e_file_reader.html#a3afc3610a9a39a170c7f405dc97557ee" target="_top" xlink:title="Opens the file for reading.">
<polygon fill="white" stroke="#666666" points="693.62,-134 574.88,-134 574.88,-114 693.62,-114 693.62,-134"/>
<text text-anchor="middle" x="634.25" y="-120.5" font-family="Helvetica,sans-Serif" font-size="10.00">AEFileReader::openFile</text>
</a>
</g>
</g>
<!-- Node4&#45;&gt;Node12 -->
<g id="edge11_Node000004_Node000012" class="edge">
<title>Node4&#45;&gt;Node12</title>
<g id="a_edge11_Node000004_Node000012"><a xlink:title=" ">
<path fill="none" stroke="#63b8ff" d="M799.56,-237.2C782.37,-211.51 748.92,-167.15 709,-143 703.34,-139.58 697.08,-136.77 690.67,-134.46"/>
<polygon fill="#63b8ff" stroke="#63b8ff" points="796.49,-238.91 804.88,-245.38 802.36,-235.09 796.49,-238.91"/>
</a>
</g>
</g>
<!-- Node14 -->
<g id="Node000014" class="node">
<title>Node14</title>
<g id="a_Node000014"><a xlink:href="../../dd/dd5/class_a_e_file_reader.html#a4e144d05ae74507bb7b04d68bb15289e" target="_top" xlink:title="Reads the byte from the file and dumps/reinterprets it as the value in the passed bool (null is false...">
<polygon fill="white" stroke="#666666" points="694.38,-400 574.12,-400 574.12,-380 694.38,-380 694.38,-400"/>
<text text-anchor="middle" x="634.25" y="-386.5" font-family="Helvetica,sans-Serif" font-size="10.00">AEFileReader::readBool</text>
</a>
</g>
</g>
<!-- Node4&#45;&gt;Node14 -->
<g id="edge14_Node000004_Node000014" class="edge">
<title>Node4&#45;&gt;Node14</title>
<g id="a_edge14_Node000004_Node000014"><a xlink:title=" ">
<path fill="none" stroke="#63b8ff" d="M799.56,-276.8C782.37,-302.49 748.92,-346.85 709,-371 703.34,-374.42 697.08,-377.23 690.67,-379.54"/>
<polygon fill="#63b8ff" stroke="#63b8ff" points="802.36,-278.91 804.88,-268.62 796.49,-275.09 802.36,-278.91"/>
</a>
</g>
</g>
<!-- Node15 -->
<g id="Node000015" class="node">
<title>Node15</title>
<g id="a_Node000015"><a xlink:href="../../dd/dd5/class_a_e_file_reader.html#a9bc4766a80101a9b3c2e3d9a66f807be" target="_top" xlink:title="Reads the byte from the file and writes you to a given unsigned.">
<polygon fill="white" stroke="#666666" points="694.75,-362 573.75,-362 573.75,-342 694.75,-342 694.75,-362"/>
<text text-anchor="middle" x="634.25" y="-348.5" font-family="Helvetica,sans-Serif" font-size="10.00">AEFileReader::readByte</text>
</a>
</g>
</g>
<!-- Node4&#45;&gt;Node15 -->
<g id="edge15_Node000004_Node000015" class="edge">
<title>Node4&#45;&gt;Node15</title>
<g id="a_edge15_Node000004_Node000015"><a xlink:title=" ">
<path fill="none" stroke="#63b8ff" d="M792.53,-274.98C772.85,-292.23 740.88,-317.84 709,-333 701.96,-336.35 694.24,-339.17 686.54,-341.51"/>
<polygon fill="#63b8ff" stroke="#63b8ff" points="794.66,-277.77 799.78,-268.5 789.99,-272.56 794.66,-277.77"/>
</a>
</g>
</g>
<!-- Node16 -->
<g id="Node000016" class="node">
<title>Node16</title>
<g id="a_Node000016"><a xlink:href="../../dd/dd5/class_a_e_file_reader.html#a65c9f2addc13e720716cb30ee60f813c" target="_top" xlink:title="Reads the character from the file and writes you to a given char.">
<polygon fill="white" stroke="#666666" points="694.75,-324 573.75,-324 573.75,-304 694.75,-304 694.75,-324"/>
<text text-anchor="middle" x="634.25" y="-310.5" font-family="Helvetica,sans-Serif" font-size="10.00">AEFileReader::readChar</text>
</a>
</g>
</g>
<!-- Node4&#45;&gt;Node16 -->
<g id="edge18_Node000004_Node000016" class="edge">
<title>Node4&#45;&gt;Node16</title>
<g id="a_edge18_Node000004_Node000016"><a xlink:title=" ">
<path fill="none" stroke="#63b8ff" d="M775.42,-271.52C755.88,-279.02 731.31,-288.03 709,-295 699.28,-298.04 688.74,-300.96 678.74,-303.58"/>
<polygon fill="#63b8ff" stroke="#63b8ff" points="776.53,-274.85 784.59,-267.97 774,-268.32 776.53,-274.85"/>
</a>
</g>
</g>
<!-- Node17 -->
<g id="Node000017" class="node">
<title>Node17</title>
<g id="a_Node000017"><a xlink:href="../../dd/dd5/class_a_e_file_reader.html#a5da1419ac8805b32f3ffd7b8a92828d6" target="_top" xlink:title="Reads the bytes (size of T) from the file and dumps/reinterprets them as the value in the passed floa...">
<polygon fill="white" stroke="#666666" points="695.5,-286 573,-286 573,-266 695.5,-266 695.5,-286"/>
<text text-anchor="middle" x="634.25" y="-272.5" font-family="Helvetica,sans-Serif" font-size="10.00">AEFileReader::readFloat</text>
</a>
</g>
</g>
<!-- Node4&#45;&gt;Node17 -->
<g id="edge19_Node000004_Node000017" class="edge">
<title>Node4&#45;&gt;Node17</title>
<g id="a_edge19_Node000004_Node000017"><a xlink:title=" ">
<path fill="none" stroke="#63b8ff" d="M733.61,-265.43C720.9,-266.79 707.92,-268.19 695.72,-269.5"/>
<polygon fill="#63b8ff" stroke="#63b8ff" points="733.6,-268.95 743.17,-264.4 732.85,-261.99 733.6,-268.95"/>
</a>
</g>
</g>
<!-- Node18 -->
<g id="Node000018" class="node">
<title>Node18</title>
<g id="a_Node000018"><a xlink:href="../../dd/dd5/class_a_e_file_reader.html#a5900607899bc01d33f94a1e9138cd5a9" target="_top" xlink:title="Reads the bytes (size of T) from the file and dumps/reinterprets them as the value in the passed inte...">
<polygon fill="white" stroke="#666666" points="689.88,-248 578.62,-248 578.62,-228 689.88,-228 689.88,-248"/>
<text text-anchor="middle" x="634.25" y="-234.5" font-family="Helvetica,sans-Serif" font-size="10.00">AEFileReader::readInt</text>
</a>
</g>
</g>
<!-- Node4&#45;&gt;Node18 -->
<g id="edge20_Node000004_Node000018" class="edge">
<title>Node4&#45;&gt;Node18</title>
<g id="a_edge20_Node000004_Node000018"><a xlink:title=" ">
<path fill="none" stroke="#63b8ff" d="M733.61,-248.57C719.01,-247 704.05,-245.4 690.33,-243.92"/>
<polygon fill="#63b8ff" stroke="#63b8ff" points="732.85,-252.01 743.17,-249.6 733.6,-245.05 732.85,-252.01"/>
</a>
</g>
</g>
<!-- Node19 -->
<g id="Node000019" class="node">
<title>Node19</title>
<g id="a_Node000019"><a xlink:href="../../dd/dd5/class_a_e_file_reader.html#a477effa6d568ec7993c4d506d0d0420c" target="_top" xlink:title="Sets read cursor position to pos from origin.">
<polygon fill="white" stroke="#666666" points="704.88,-210 563.62,-210 563.62,-190 704.88,-190 704.88,-210"/>
<text text-anchor="middle" x="634.25" y="-196.5" font-family="Helvetica,sans-Serif" font-size="10.00">AEFileReader::setCursorPos</text>
</a>
</g>
</g>
<!-- Node4&#45;&gt;Node19 -->
<g id="edge21_Node000004_Node000019" class="edge">
<title>Node4&#45;&gt;Node19</title>
<g id="a_edge21_Node000004_Node000019"><a xlink:title=" ">
<path fill="none" stroke="#63b8ff" d="M775.42,-242.48C755.88,-234.98 731.31,-225.97 709,-219 699.28,-215.96 688.74,-213.04 678.74,-210.42"/>
<polygon fill="#63b8ff" stroke="#63b8ff" points="774,-245.68 784.59,-246.03 776.53,-239.15 774,-245.68"/>
</a>
</g>
</g>
<!-- Node6 -->
<g id="Node000006" class="node">
<title>Node6</title>
<g id="a_Node000006"><a xlink:href="../../d8/d52/class_a_e_log_parser.html#a8e90913ac25c938e2e84a9887c5bae66" target="_top" xlink:title="Opens the log file, reading and parsing every single entry, classifying it by type.">
<polygon fill="white" stroke="#666666" points="508.12,-172 391.62,-172 391.62,-152 508.12,-152 508.12,-172"/>
<text text-anchor="middle" x="449.88" y="-158.5" font-family="Helvetica,sans-Serif" font-size="10.00">AELogParser::openLog</text>
</a>
</g>
</g>
<!-- Node5&#45;&gt;Node6 -->
<g id="edge5_Node000005_Node000006" class="edge">
<title>Node5&#45;&gt;Node6</title>
<g id="a_edge5_Node000005_Node000006"><a xlink:title=" ">
<path fill="none" stroke="#63b8ff" d="M552.12,-162C537.43,-162 522.39,-162 508.55,-162"/>
<polygon fill="#63b8ff" stroke="#63b8ff" points="551.75,-165.5 561.75,-162 551.75,-158.5 551.75,-165.5"/>
</a>
</g>
</g>
<!-- Node8 -->
<g id="Node000008" class="node">
<title>Node8</title>
<g id="a_Node000008"><a xlink:href="../../d8/d52/class_a_e_log_parser.html#a63a04021dcd2c31540c50182f8912c9d" target="_top" xlink:title="Returns the name of the opened file, devoid of the path.">
<polygon fill="white" stroke="#666666" points="517.12,-96 382.62,-96 382.62,-76 517.12,-76 517.12,-96"/>
<text text-anchor="middle" x="449.88" y="-82.5" font-family="Helvetica,sans-Serif" font-size="10.00">AELogParser::getFileName</text>
</a>
</g>
</g>
<!-- Node7&#45;&gt;Node8 -->
<g id="edge7_Node000007_Node000008" class="edge">
<title>Node7&#45;&gt;Node8</title>
<g id="a_edge7_Node000007_Node000008"><a xlink:title=" ">
<path fill="none" stroke="#63b8ff" d="M554.41,-86C542.11,-86 529.5,-86 517.51,-86"/>
<polygon fill="#63b8ff" stroke="#63b8ff" points="554.09,-89.5 564.09,-86 554.09,-82.5 554.09,-89.5"/>
</a>
</g>
</g>
<!-- Node11 -->
<g id="Node000011" class="node">
<title>Node11</title>
<g id="a_Node000011"><a xlink:href="../../d8/d52/class_a_e_log_parser.html#a0a1f374dbcebcbe44497d593247ac8c6" target="_top" xlink:title="Returns the relative path of the opened file.">
<polygon fill="white" stroke="#666666" points="523.5,-20 376.25,-20 376.25,0 523.5,0 523.5,-20"/>
<text text-anchor="middle" x="449.88" y="-6.5" font-family="Helvetica,sans-Serif" font-size="10.00">AELogParser::getRelativePath</text>
</a>
</g>
</g>
<!-- Node10&#45;&gt;Node11 -->
<g id="edge10_Node000010_Node000011" class="edge">
<title>Node10&#45;&gt;Node11</title>
<g id="a_edge10_Node000010_Node000011"><a xlink:title=" ">
<path fill="none" stroke="#63b8ff" d="M547.8,-10C539.78,-10 531.7,-10 523.81,-10"/>
<polygon fill="#63b8ff" stroke="#63b8ff" points="547.56,-13.5 557.56,-10 547.56,-6.5 547.56,-13.5"/>
</a>
</g>
</g>
<!-- Node12&#45;&gt;Node6 -->
<g id="edge13_Node000012_Node000006" class="edge">
<title>Node12&#45;&gt;Node6</title>
<g id="a_edge13_Node000012_Node000006"><a xlink:title=" ">
<path fill="none" stroke="#63b8ff" d="M571.88,-136.79C548.83,-141.59 522.94,-146.99 501.03,-151.55"/>
<polygon fill="#63b8ff" stroke="#63b8ff" points="572.37,-140.26 581.45,-134.79 570.95,-133.41 572.37,-140.26"/>
</a>
</g>
</g>
<!-- Node13 -->
<g id="Node000013" class="node">
<title>Node13</title>
<g id="a_Node000013"><a xlink:href="../../dd/dd5/class_a_e_file_reader.html#a7d0c498896f1c10c36330ef4efaee81e" target="_top" xlink:title="Class constructor – constructs the instance and opens the file of given name.">
<polygon fill="white" stroke="#666666" points="520.88,-134 378.88,-134 378.88,-114 520.88,-114 520.88,-134"/>
<text text-anchor="middle" x="449.88" y="-120.5" font-family="Helvetica,sans-Serif" font-size="10.00">AEFileReader::AEFileReader</text>
</a>
</g>
</g>
<!-- Node12&#45;&gt;Node13 -->
<g id="edge12_Node000012_Node000013" class="edge">
<title>Node12&#45;&gt;Node13</title>
<g id="a_edge12_Node000012_Node000013"><a xlink:title=" ">
<path fill="none" stroke="#63b8ff" d="M563.18,-124C549.44,-124 535.02,-124 521.26,-124"/>
<polygon fill="#63b8ff" stroke="#63b8ff" points="563.03,-127.5 573.03,-124 563.03,-120.5 563.03,-127.5"/>
</a>
</g>
</g>
<!-- Node20 -->
<g id="Node000020" class="node">
<title>Node20</title>
<g id="a_Node000020"><a xlink:href="../../d8/d52/class_a_e_log_parser.html#af3c28f50c5f52840be97e631d67b244c" target="_top" xlink:title="Read the next valid entry in the log file of the given severity and module name filter,...">
<polygon fill="white" stroke="#666666" points="510.75,-210 389,-210 389,-190 510.75,-190 510.75,-210"/>
<text text-anchor="middle" x="449.88" y="-196.5" font-family="Helvetica,sans-Serif" font-size="10.00">AELogParser::nextEntry</text>
</a>
</g>
</g>
<!-- Node19&#45;&gt;Node20 -->
<g id="edge22_Node000019_Node000020" class="edge">
<title>Node19&#45;&gt;Node20</title>
<g id="a_edge22_Node000019_Node000020"><a xlink:title=" ">
<path fill="none" stroke="#63b8ff" d="M551.86,-200C538.18,-200 524.2,-200 511.17,-200"/>
<polygon fill="#63b8ff" stroke="#63b8ff" points="551.75,-203.5 561.75,-200 551.75,-196.5 551.75,-203.5"/>
</a>
</g>
</g>
<!-- Node21 -->
<g id="Node000021" class="node">
<title>Node21</title>
<g id="a_Node000021"><a xlink:href="../../d8/d52/class_a_e_log_parser.html#a182d51b4aa5771e2e6f6919300e571ca" target="_top" xlink:title="Same as the AELogParser::nextEntry() but on massive scale – scans the whole log file and parses it to...">
<polygon fill="white" stroke="#666666" points="332.38,-248 200.88,-248 200.88,-228 332.38,-228 332.38,-248"/>
<text text-anchor="middle" x="266.62" y="-234.5" font-family="Helvetica,sans-Serif" font-size="10.00">AELogParser::logToQueue</text>
</a>
</g>
</g>
<!-- Node20&#45;&gt;Node21 -->
<g id="edge23_Node000020_Node000021" class="edge">
<title>Node20&#45;&gt;Node21</title>
<g id="a_edge23_Node000020_Node000021"><a xlink:title=" ">
<path fill="none" stroke="#63b8ff" d="M387.88,-212.79C364.98,-217.59 339.24,-222.99 317.47,-227.55"/>
<polygon fill="#63b8ff" stroke="#63b8ff" points="388.32,-216.27 397.39,-210.79 386.88,-209.42 388.32,-216.27"/>
</a>
</g>
</g>
<!-- Node24 -->
<g id="Node000024" class="node">
<title>Node24</title>
<g id="a_Node000024"><a xlink:href="../../d8/d52/class_a_e_log_parser.html#a768d4b94cbf1504d72f93ec5d131e915" target="_top" xlink:title="Read the next valid entry in the log file of the given module name, and parse it into the given AELog...">
<polygon fill="white" stroke="#666666" points="340.25,-210 193,-210 193,-190 340.25,-190 340.25,-210"/>
<text text-anchor="middle" x="266.62" y="-196.5" font-family="Helvetica,sans-Serif" font-size="10.00">AELogParser::nextEntryName</text>
</a>
</g>
</g>
<!-- Node20&#45;&gt;Node24 -->
<g id="edge26_Node000020_Node000024" class="edge">
<title>Node20&#45;&gt;Node24</title>
<g id="a_edge26_Node000020_Node000024"><a xlink:title=" ">
<path fill="none" stroke="#63b8ff" d="M377.17,-200C365.16,-200 352.67,-200 340.63,-200"/>
<polygon fill="#63b8ff" stroke="#63b8ff" points="377.01,-203.5 387.01,-200 377.01,-196.5 377.01,-203.5"/>
</a>
</g>
</g>
<!-- Node25 -->
<g id="Node000025" class="node">
<title>Node25</title>
<g id="a_Node000025"><a xlink:href="../../d8/d52/class_a_e_log_parser.html#a0e03f67c2a0eaa0317904a2bd9f70cc0" target="_top" xlink:title="Read the next valid entry in the log file of the given severity, and parse it to the given AELogEntry...">
<polygon fill="white" stroke="#666666" points="338,-172 195.25,-172 195.25,-152 338,-152 338,-172"/>
<text text-anchor="middle" x="266.62" y="-158.5" font-family="Helvetica,sans-Serif" font-size="10.00">AELogParser::nextEntryType</text>
</a>
</g>
</g>
<!-- Node20&#45;&gt;Node25 -->
<g id="edge27_Node000020_Node000025" class="edge">
<title>Node20&#45;&gt;Node25</title>
<g id="a_edge27_Node000020_Node000025"><a xlink:title=" ">
<path fill="none" stroke="#63b8ff" d="M387.88,-187.21C364.98,-182.41 339.24,-177.01 317.47,-172.45"/>
<polygon fill="#63b8ff" stroke="#63b8ff" points="386.88,-190.58 397.39,-189.21 388.32,-183.73 386.88,-190.58"/>
</a>
</g>
</g>
<!-- Node22 -->
<g id="Node000022" class="node">
<title>Node22</title>
<g id="a_Node000022"><a xlink:href="../../d8/d52/class_a_e_log_parser.html#ae5044cf01623156d91ddc74492b0aeda" target="_top" xlink:title="A shortcut to AELogParser::logToQueue() to filter only by the module name of the log entries.">
<polygon fill="white" stroke="#666666" points="157,-267 0,-267 0,-247 157,-247 157,-267"/>
<text text-anchor="middle" x="78.5" y="-253.5" font-family="Helvetica,sans-Serif" font-size="10.00">AELogParser::logToQueueName</text>
</a>
</g>
</g>
<!-- Node21&#45;&gt;Node22 -->
<g id="edge24_Node000021_Node000022" class="edge">
<title>Node21&#45;&gt;Node22</title>
<g id="a_edge24_Node000021_Node000022"><a xlink:title=" ">
<path fill="none" stroke="#63b8ff" d="M189.25,-245.8C178.72,-246.87 167.9,-247.98 157.35,-249.05"/>
<polygon fill="#63b8ff" stroke="#63b8ff" points="189.43,-249.3 199.02,-244.8 188.72,-242.33 189.43,-249.3"/>
</a>
</g>
</g>
<!-- Node23 -->
<g id="Node000023" class="node">
<title>Node23</title>
<g id="a_Node000023"><a xlink:href="../../d8/d52/class_a_e_log_parser.html#ab84bb93f08ed48082f74b00290deb308" target="_top" xlink:title="A shortcut to AELogParser::logToQueue() to filter only by type/severity of the log entries.">
<polygon fill="white" stroke="#666666" points="154.75,-229 2.25,-229 2.25,-209 154.75,-209 154.75,-229"/>
<text text-anchor="middle" x="78.5" y="-215.5" font-family="Helvetica,sans-Serif" font-size="10.00">AELogParser::logToQueueType</text>
</a>
</g>
</g>
<!-- Node21&#45;&gt;Node23 -->
<g id="edge25_Node000021_Node000023" class="edge">
<title>Node21&#45;&gt;Node23</title>
<g id="a_edge25_Node000021_Node000023"><a xlink:title=" ">
<path fill="none" stroke="#63b8ff" d="M189.35,-230.21C178.04,-229.06 166.39,-227.87 155.09,-226.72"/>
<polygon fill="#63b8ff" stroke="#63b8ff" points="188.72,-233.67 199.02,-231.2 189.43,-226.7 188.72,-233.67"/>
</a>
</g>
</g>
</g>
</svg>
