<?xml version="1.0" encoding="UTF-8" standalone="no"?>
<!DOCTYPE svg PUBLIC "-//W3C//DTD SVG 1.1//EN"
 "http://www.w3.org/Graphics/SVG/1.1/DTD/svg11.dtd">
<!-- Generated by graphviz version 10.0.1 (20240210.2158)
 -->
<!-- Title: AEFileReader::readStringNL Pages: 1 -->
<svg width="697pt" height="161pt"
 viewBox="0.00 0.00 696.75 161.00" xmlns="http://www.w3.org/2000/svg" xmlns:xlink="http://www.w3.org/1999/xlink">
<g id="graph0" class="graph" transform="scale(1 1) rotate(0) translate(4 157)">
<title>AEFileReader::readStringNL</title>
<!-- Node1 -->
<g id="Node000001" class="node">
<title>Node1</title>
<g id="a_Node000001"><a xlink:title="Reads the characters to a std::string untill a newline (included), or untill the maximum character am...">
<polygon fill="#999999" stroke="#666666" points="688.75,-58 550.5,-58 550.5,-38 688.75,-38 688.75,-58"/>
<text text-anchor="middle" x="619.62" y="-44.5" font-family="Helvetica,sans-Serif" font-size="10.00">AEFileReader::readStringNL</text>
</a>
</g>
</g>
<!-- Node1&#45;&gt;Node1 -->
<g id="edge8_Node000001_Node000001" class="edge">
<title>Node1&#45;&gt;Node1</title>
<g id="a_edge8_Node000001_Node000001"><a xlink:title=" ">
<path fill="none" stroke="#63b8ff" d="M650.75,-69.11C647.04,-73.14 636.66,-76 619.62,-76 589.34,-76 580.11,-66.98 591.94,-58.34"/>
<polygon fill="#63b8ff" stroke="#63b8ff" points="654.15,-68.24 647.77,-59.78 647.48,-70.37 654.15,-68.24"/>
</a>
</g>
</g>
<!-- Node2 -->
<g id="Node000002" class="node">
<title>Node2</title>
<g id="a_Node000002"><a xlink:href="../../d8/d52/class_a_e_log_parser.html#af3c28f50c5f52840be97e631d67b244c" target="_top" xlink:title="Read the next valid entry in the log file of the given severity and module name filter,...">
<polygon fill="white" stroke="#666666" points="506.25,-96 384.5,-96 384.5,-76 506.25,-76 506.25,-96"/>
<text text-anchor="middle" x="445.38" y="-82.5" font-family="Helvetica,sans-Serif" font-size="10.00">AELogParser::nextEntry</text>
</a>
</g>
</g>
<!-- Node1&#45;&gt;Node2 -->
<g id="edge1_Node000001_Node000002" class="edge">
<title>Node1&#45;&gt;Node2</title>
<g id="a_edge1_Node000001_Node000002"><a xlink:title=" ">
<path fill="none" stroke="#63b8ff" d="M560.07,-60.92C538.45,-65.69 514.25,-71.03 493.74,-75.55"/>
<polygon fill="#63b8ff" stroke="#63b8ff" points="560.61,-64.38 569.62,-58.81 559.1,-57.55 560.61,-64.38"/>
</a>
</g>
</g>
<!-- Node8 -->
<g id="Node000008" class="node">
<title>Node8</title>
<g id="a_Node000008"><a xlink:href="../../d8/d52/class_a_e_log_parser.html#a8e90913ac25c938e2e84a9887c5bae66" target="_top" xlink:title="Opens the log file, reading and parsing every single entry, classifying it by type.">
<polygon fill="white" stroke="#666666" points="503.62,-58 387.12,-58 387.12,-38 503.62,-38 503.62,-58"/>
<text text-anchor="middle" x="445.38" y="-44.5" font-family="Helvetica,sans-Serif" font-size="10.00">AELogParser::openLog</text>
</a>
</g>
</g>
<!-- Node1&#45;&gt;Node8 -->
<g id="edge7_Node000001_Node000008" class="edge">
<title>Node1&#45;&gt;Node8</title>
<g id="a_edge7_Node000001_Node000008"><a xlink:title=" ">
<path fill="none" stroke="#63b8ff" d="M538.83,-48C527.05,-48 515.11,-48 503.9,-48"/>
<polygon fill="#63b8ff" stroke="#63b8ff" points="538.54,-51.5 548.54,-48 538.54,-44.5 538.54,-51.5"/>
</a>
</g>
</g>
<!-- Node9 -->
<g id="Node000009" class="node">
<title>Node9</title>
<g id="a_Node000009"><a xlink:href="../../dd/dd5/class_a_e_file_reader.html#af362a8d8c6f458535026fefa0cd08ae4" target="_top" xlink:title="Reads the characters to a std::vector&lt;char&gt; untill a newline (included), or untill the maximum charac...">
<polygon fill="white" stroke="#666666" points="514.5,-20 376.25,-20 376.25,0 514.5,0 514.5,-20"/>
<text text-anchor="middle" x="445.38" y="-6.5" font-family="Helvetica,sans-Serif" font-size="10.00">AEFileReader::readStringNL</text>
</a>
</g>
</g>
<!-- Node1&#45;&gt;Node9 -->
<g id="edge9_Node000001_Node000009" class="edge">
<title>Node1&#45;&gt;Node9</title>
<g id="a_edge9_Node000001_Node000009"><a xlink:title=" ">
<path fill="none" stroke="#63b8ff" d="M560.07,-35.08C538.45,-30.31 514.25,-24.97 493.74,-20.45"/>
<polygon fill="#63b8ff" stroke="#63b8ff" points="559.1,-38.45 569.62,-37.19 560.61,-31.62 559.1,-38.45"/>
</a>
</g>
</g>
<!-- Node3 -->
<g id="Node000003" class="node">
<title>Node3</title>
<g id="a_Node000003"><a xlink:href="../../d8/d52/class_a_e_log_parser.html#a182d51b4aa5771e2e6f6919300e571ca" target="_top" xlink:title="Same as the AELogParser::nextEntry() but on massive scale – scans the whole log file and parses it to...">
<polygon fill="white" stroke="#666666" points="332.38,-134 200.88,-134 200.88,-114 332.38,-114 332.38,-134"/>
<text text-anchor="middle" x="266.62" y="-120.5" font-family="Helvetica,sans-Serif" font-size="10.00">AELogParser::logToQueue</text>
</a>
</g>
</g>
<!-- Node2&#45;&gt;Node3 -->
<g id="edge2_Node000002_Node000003" class="edge">
<title>Node2&#45;&gt;Node3</title>
<g id="a_edge2_Node000002_Node000003"><a xlink:title=" ">
<path fill="none" stroke="#63b8ff" d="M384.59,-98.85C362.34,-103.64 337.37,-109.01 316.23,-113.55"/>
<polygon fill="#63b8ff" stroke="#63b8ff" points="385.09,-102.33 394.13,-96.8 383.62,-95.48 385.09,-102.33"/>
</a>
</g>
</g>
<!-- Node6 -->
<g id="Node000006" class="node">
<title>Node6</title>
<g id="a_Node000006"><a xlink:href="../../d8/d52/class_a_e_log_parser.html#a768d4b94cbf1504d72f93ec5d131e915" target="_top" xlink:title="Read the next valid entry in the log file of the given module name, and parse it into the given AELog...">
<polygon fill="white" stroke="#666666" points="340.25,-96 193,-96 193,-76 340.25,-76 340.25,-96"/>
<text text-anchor="middle" x="266.62" y="-82.5" font-family="Helvetica,sans-Serif" font-size="10.00">AELogParser::nextEntryName</text>
</a>
</g>
</g>
<!-- Node2&#45;&gt;Node6 -->
<g id="edge5_Node000002_Node000006" class="edge">
<title>Node2&#45;&gt;Node6</title>
<g id="a_edge5_Node000002_Node000006"><a xlink:title=" ">
<path fill="none" stroke="#63b8ff" d="M372.69,-86C362.09,-86 351.15,-86 340.52,-86"/>
<polygon fill="#63b8ff" stroke="#63b8ff" points="372.53,-89.5 382.53,-86 372.53,-82.5 372.53,-89.5"/>
</a>
</g>
</g>
<!-- Node7 -->
<g id="Node000007" class="node">
<title>Node7</title>
<g id="a_Node000007"><a xlink:href="../../d8/d52/class_a_e_log_parser.html#a0e03f67c2a0eaa0317904a2bd9f70cc0" target="_top" xlink:title="Read the next valid entry in the log file of the given severity, and parse it to the given AELogEntry...">
<polygon fill="white" stroke="#666666" points="338,-58 195.25,-58 195.25,-38 338,-38 338,-58"/>
<text text-anchor="middle" x="266.62" y="-44.5" font-family="Helvetica,sans-Serif" font-size="10.00">AELogParser::nextEntryType</text>
</a>
</g>
</g>
<!-- Node2&#45;&gt;Node7 -->
<g id="edge6_Node000002_Node000007" class="edge">
<title>Node2&#45;&gt;Node7</title>
<g id="a_edge6_Node000002_Node000007"><a xlink:title=" ">
<path fill="none" stroke="#63b8ff" d="M384.59,-73.15C362.34,-68.36 337.37,-62.99 316.23,-58.45"/>
<polygon fill="#63b8ff" stroke="#63b8ff" points="383.62,-76.52 394.13,-75.2 385.09,-69.67 383.62,-76.52"/>
</a>
</g>
</g>
<!-- Node4 -->
<g id="Node000004" class="node">
<title>Node4</title>
<g id="a_Node000004"><a xlink:href="../../d8/d52/class_a_e_log_parser.html#ae5044cf01623156d91ddc74492b0aeda" target="_top" xlink:title="A shortcut to AELogParser::logToQueue() to filter only by the module name of the log entries.">
<polygon fill="white" stroke="#666666" points="157,-153 0,-153 0,-133 157,-133 157,-153"/>
<text text-anchor="middle" x="78.5" y="-139.5" font-family="Helvetica,sans-Serif" font-size="10.00">AELogParser::logToQueueName</text>
</a>
</g>
</g>
<!-- Node3&#45;&gt;Node4 -->
<g id="edge3_Node000003_Node000004" class="edge">
<title>Node3&#45;&gt;Node4</title>
<g id="a_edge3_Node000003_Node000004"><a xlink:title=" ">
<path fill="none" stroke="#63b8ff" d="M189.25,-131.8C178.72,-132.87 167.9,-133.98 157.35,-135.05"/>
<polygon fill="#63b8ff" stroke="#63b8ff" points="189.43,-135.3 199.02,-130.8 188.72,-128.33 189.43,-135.3"/>
</a>
</g>
</g>
<!-- Node5 -->
<g id="Node000005" class="node">
<title>Node5</title>
<g id="a_Node000005"><a xlink:href="../../d8/d52/class_a_e_log_parser.html#ab84bb93f08ed48082f74b00290deb308" target="_top" xlink:title="A shortcut to AELogParser::logToQueue() to filter only by type/severity of the log entries.">
<polygon fill="white" stroke="#666666" points="154.75,-115 2.25,-115 2.25,-95 154.75,-95 154.75,-115"/>
<text text-anchor="middle" x="78.5" y="-101.5" font-family="Helvetica,sans-Serif" font-size="10.00">AELogParser::logToQueueType</text>
</a>
</g>
</g>
<!-- Node3&#45;&gt;Node5 -->
<g id="edge4_Node000003_Node000005" class="edge">
<title>Node3&#45;&gt;Node5</title>
<g id="a_edge4_Node000003_Node000005"><a xlink:title=" ">
<path fill="none" stroke="#63b8ff" d="M189.35,-116.21C178.04,-115.06 166.39,-113.87 155.09,-112.72"/>
<polygon fill="#63b8ff" stroke="#63b8ff" points="188.72,-119.67 199.02,-117.2 189.43,-112.7 188.72,-119.67"/>
</a>
</g>
</g>
</g>
</svg>
