<?xml version="1.0" encoding="UTF-8" standalone="no"?>
<!DOCTYPE svg PUBLIC "-//W3C//DTD SVG 1.1//EN"
 "http://www.w3.org/Graphics/SVG/1.1/DTD/svg11.dtd">
<!-- Generated by graphviz version 10.0.1 (20240210.2158)
 -->
<!-- Title: AEFileReader::openFile Pages: 1 -->
<svg width="431pt" height="85pt"
 viewBox="0.00 0.00 431.00 85.00" xmlns="http://www.w3.org/2000/svg" xmlns:xlink="http://www.w3.org/1999/xlink">
<g id="graph0" class="graph" transform="scale(1 1) rotate(0) translate(4 81)">
<title>AEFileReader::openFile</title>
<!-- Node1 -->
<g id="Node000001" class="node">
<title>Node1</title>
<g id="a_Node000001"><a xlink:title="Opens the file for reading.">
<polygon fill="#999999" stroke="#666666" points="118.75,-39 0,-39 0,-19 118.75,-19 118.75,-39"/>
<text text-anchor="middle" x="59.38" y="-25.5" font-family="Helvetica,sans-Serif" font-size="10.00">AEFileReader::openFile</text>
</a>
</g>
</g>
<!-- Node2 -->
<g id="Node000002" class="node">
<title>Node2</title>
<g id="a_Node000002"><a xlink:href="../../de/dde/namespaceace_1_1utils.html#a6eb2322353edc04f78dbc3589e60d98c" target="_top" xlink:title="A wrapper to make the proper cross&#45;compiler version of fopen() Opens the file with given name and fla...">
<polygon fill="white" stroke="#666666" points="263.75,-77 165.25,-77 165.25,-57 263.75,-57 263.75,-77"/>
<text text-anchor="middle" x="214.5" y="-63.5" font-family="Helvetica,sans-Serif" font-size="10.00">ace::utils::fopenCC</text>
</a>
</g>
</g>
<!-- Node1&#45;&gt;Node2 -->
<g id="edge1_Node000001_Node000002" class="edge">
<title>Node1&#45;&gt;Node2</title>
<g id="a_edge1_Node000001_Node000002"><a xlink:title=" ">
<path fill="none" stroke="#63b8ff" d="M102.62,-39.48C120.45,-43.91 141.4,-49.11 160.26,-53.79"/>
<polygon fill="#63b8ff" stroke="#63b8ff" points="159.37,-57.17 169.92,-56.19 161.06,-50.38 159.37,-57.17"/>
</a>
</g>
</g>
<!-- Node3 -->
<g id="Node000003" class="node">
<title>Node3</title>
<g id="a_Node000003"><a xlink:href="../../dd/dd5/class_a_e_file_reader.html#a81bb672d7d1a142c7473d880a3842073" target="_top" xlink:title="Checks if a file isn&#39;t open by this file&#45;reader.">
<polygon fill="white" stroke="#666666" points="274.25,-39 154.75,-39 154.75,-19 274.25,-19 274.25,-39"/>
<text text-anchor="middle" x="214.5" y="-25.5" font-family="Helvetica,sans-Serif" font-size="10.00">AEFileReader::isClosed</text>
</a>
</g>
</g>
<!-- Node1&#45;&gt;Node3 -->
<g id="edge2_Node000001_Node000003" class="edge">
<title>Node1&#45;&gt;Node3</title>
<g id="a_edge2_Node000001_Node000003"><a xlink:title=" ">
<path fill="none" stroke="#63b8ff" d="M119.14,-29C126.99,-29 135.11,-29 143.14,-29"/>
<polygon fill="#63b8ff" stroke="#63b8ff" points="142.87,-32.5 152.87,-29 142.87,-25.5 142.87,-32.5"/>
</a>
</g>
</g>
<!-- Node4 -->
<g id="Node000004" class="node">
<title>Node4</title>
<g id="a_Node000004"><a xlink:href="../../dd/dd5/class_a_e_file_reader.html#a07f32763fbb1df143c8aab2be7b856c1" target="_top" xlink:title="Checks if a file is open by this file&#45;reader.">
<polygon fill="white" stroke="#666666" points="423,-20 310.25,-20 310.25,0 423,0 423,-20"/>
<text text-anchor="middle" x="366.62" y="-6.5" font-family="Helvetica,sans-Serif" font-size="10.00">AEFileReader::isOpen</text>
</a>
</g>
</g>
<!-- Node1&#45;&gt;Node4 -->
<g id="edge4_Node000001_Node000004" class="edge">
<title>Node1&#45;&gt;Node4</title>
<g id="a_edge4_Node000001_Node000004"><a xlink:title=" ">
<path fill="none" stroke="#63b8ff" d="M102.86,-18.58C119,-15.12 137.62,-11.71 154.75,-10 202.7,-5.22 257.09,-5.36 298.62,-6.62"/>
<polygon fill="#63b8ff" stroke="#63b8ff" points="298.35,-10.11 308.46,-6.95 298.59,-3.11 298.35,-10.11"/>
</a>
</g>
</g>
<!-- Node3&#45;&gt;Node4 -->
<g id="edge3_Node000003_Node000004" class="edge">
<title>Node3&#45;&gt;Node4</title>
<g id="a_edge3_Node000003_Node000004"><a xlink:title=" ">
<path fill="none" stroke="#63b8ff" d="M274.4,-21.55C282.33,-20.54 290.51,-19.51 298.57,-18.49"/>
<polygon fill="#63b8ff" stroke="#63b8ff" points="298.85,-21.98 308.33,-17.25 297.97,-15.03 298.85,-21.98"/>
</a>
</g>
</g>
</g>
</svg>
