<?xml version="1.0" encoding="UTF-8" standalone="no"?>
<!DOCTYPE svg PUBLIC "-//W3C//DTD SVG 1.1//EN"
 "http://www.w3.org/Graphics/SVG/1.1/DTD/svg11.dtd">
<!-- Generated by graphviz version 10.0.1 (20240210.2158)
 -->
<!-- Title: AEFileReader::readVariable Pages: 1 -->
<!--zoomable 522 -->

<svg id="main" version="1.1" xmlns="http://www.w3.org/2000/svg" xmlns:xlink="http://www.w3.org/1999/xlink" xml:space="preserve" onload="init(evt)">
<style type="text/css"><![CDATA[
.node, .edge {opacity: 0.7;}
.node.selected, .edge.selected {opacity: 1;}
.edge:hover path { stroke: red; }
.edge:hover polygon { stroke: red; fill: red; }
]]></style>

<defs>
  <circle id="rim" cx="0" cy="0" r="7"/>
  <circle id="rim2" cx="0" cy="0" r="3.5"/>
  <g id="zoomPlus">
    <use xlink:href="#rim" fill="#404040"><set attributeName="fill" to="#808080" begin="zoomplus.mouseover" end="zoomplus.mouseout"/></use>
    <path d="M-4,0h8M0,-4v8" fill="none" stroke="white" stroke-width="1.5" pointer-events="none"/>
  </g>
  <g id="zoomMin">
    <use xlink:href="#rim" fill="#404040"><set attributeName="fill" to="#808080" begin="zoomminus.mouseover" end="zoomminus.mouseout"/></use>
    <path d="M-4,0h8" fill="none" stroke="white" stroke-width="1.5" pointer-events="none"/>
  </g>
  <g id="arrowUp" transform="translate(30 24)">
    <use xlink:href="#rim"/>
    <path pointer-events="none" fill="none" stroke="white" stroke-width="1.5" d="M0,-3.0v7 M-2.5,-0.5L0,-3.0L2.5,-0.5"/>
  </g>
  <g id="arrowRight" transform="rotate(90) translate(36 -43)">
    <use xlink:href="#rim"/>
    <path pointer-events="none" fill="none" stroke="white" stroke-width="1.5" d="M0,-3.0v7 M-2.5,-0.5L0,-3.0L2.5,-0.5"/>
  </g>
  <g id="arrowDown" transform="rotate(180) translate(-30 -48)">
    <use xlink:href="#rim"/>
    <path pointer-events="none" fill="none" stroke="white" stroke-width="1.5" d="M0,-3.0v7 M-2.5,-0.5L0,-3.0L2.5,-0.5"/>
  </g>
  <g id="arrowLeft" transform="rotate(270) translate(-36 17)">
    <use xlink:href="#rim"/>
    <path pointer-events="none" fill="none" stroke="white" stroke-width="1.5" d="M0,-3.0v7 M-2.5,-0.5L0,-3.0L2.5,-0.5"/>
  </g>
  <g id="resetDef">
    <use xlink:href="#rim2" fill="#404040"><set attributeName="fill" to="#808080" begin="reset.mouseover" end="reset.mouseout"/></use>
  </g>
</defs>
<script type="application/ecmascript">
var viewWidth = 889;
var viewHeight = 522;
var sectionId = 'dynsection-8';
</script>
<script type="application/ecmascript" xlink:href="../../svg.min.js"/>
<svg id="graph" class="graph">
<g id="viewport">
<title>AEFileReader::readVariable</title>
<!-- Node1 -->
<g id="Node000001" class="node">
<title>Node1</title>
<g id="a_Node000001"><a xlink:title="Reads the bytes (size of T) from the file and dumps/reinterprets them as the value in the passed vari...">
<polygon fill="#999999" stroke="#666666" points="881,-286 745,-286 745,-266 881,-266 881,-286"/>
<text text-anchor="middle" x="813" y="-272.5" font-family="Helvetica,sans-Serif" font-size="10.00">AEFileReader::readVariable</text>
</a>
</g>
</g>
<!-- Node2 -->
<g id="Node000002" class="node">
<title>Node2</title>
<g id="a_Node000002"><a xlink:href="../../dd/dd5/class_a_e_file_reader.html#a4f23e9b7f6465dc50432ee4f20f6f73e" target="_top" xlink:title="Returns current read cursor position.">
<polygon fill="white" stroke="#666666" points="704.88,-476 563.62,-476 563.62,-456 704.88,-456 704.88,-476"/>
<text text-anchor="middle" x="634.25" y="-462.5" font-family="Helvetica,sans-Serif" font-size="10.00">AEFileReader::getCursorPos</text>
</a>
</g>
</g>
<!-- Node1&#45;&gt;Node2 -->
<g id="edge1_Node000001_Node000002" class="edge">
<title>Node1&#45;&gt;Node2</title>
<g id="a_edge1_Node000001_Node000002"><a xlink:title=" ">
<path fill="none" stroke="#63b8ff" d="M805.25,-297.15C792.53,-333.57 761.43,-407.93 709,-447 704.34,-450.48 699.1,-453.32 693.62,-455.64"/>
<polygon fill="#63b8ff" stroke="#63b8ff" points="808.53,-298.4 808.39,-287.8 801.89,-296.17 808.53,-298.4"/>
</a>
</g>
</g>
<!-- Node4 -->
<g id="Node000004" class="node">
<title>Node4</title>
<g id="a_Node000004"><a xlink:href="../../dd/dd5/class_a_e_file_reader.html#a753c6f40c4a15739ed88aa0937f72969" target="_top" xlink:title="Returns the name of the opened file, devoid of the path.">
<polygon fill="white" stroke="#666666" points="702.62,-514 565.88,-514 565.88,-494 702.62,-494 702.62,-514"/>
<text text-anchor="middle" x="634.25" y="-500.5" font-family="Helvetica,sans-Serif" font-size="10.00">AEFileReader::getFileName</text>
</a>
</g>
</g>
<!-- Node1&#45;&gt;Node4 -->
<g id="edge3_Node000001_Node000004" class="edge">
<title>Node1&#45;&gt;Node4</title>
<g id="a_edge3_Node000001_Node000004"><a xlink:title=" ">
<path fill="none" stroke="#63b8ff" d="M807.71,-297.3C798.01,-339.77 770.29,-435.18 709,-485 704.79,-488.42 700.04,-491.23 695.03,-493.54"/>
<polygon fill="#63b8ff" stroke="#63b8ff" points="811.11,-298.14 809.79,-287.62 804.26,-296.66 811.11,-298.14"/>
</a>
</g>
</g>
<!-- Node6 -->
<g id="Node000006" class="node">
<title>Node6</title>
<g id="a_Node000006"><a xlink:href="../../dd/dd5/class_a_e_file_reader.html#ac66abca824fd32fb0c854d0391a64289" target="_top" xlink:title="Returns size of the file in bytes.">
<polygon fill="white" stroke="#666666" points="699.62,-438 568.88,-438 568.88,-418 699.62,-418 699.62,-438"/>
<text text-anchor="middle" x="634.25" y="-424.5" font-family="Helvetica,sans-Serif" font-size="10.00">AEFileReader::getFileSize</text>
</a>
</g>
</g>
<!-- Node1&#45;&gt;Node6 -->
<g id="edge5_Node000001_Node000006" class="edge">
<title>Node1&#45;&gt;Node6</title>
<g id="a_edge5_Node000001_Node000006"><a xlink:title=" ">
<path fill="none" stroke="#63b8ff" d="M802,-296.13C786.32,-325.55 753.13,-379.96 709,-409 703.81,-412.42 698.04,-415.22 692.08,-417.52"/>
<polygon fill="#63b8ff" stroke="#63b8ff" points="804.97,-298.02 806.44,-287.52 798.75,-294.8 804.97,-298.02"/>
</a>
</g>
</g>
<!-- Node7 -->
<g id="Node000007" class="node">
<title>Node7</title>
<g id="a_Node000007"><a xlink:href="../../dd/dd5/class_a_e_file_reader.html#aa1f9d6a22bac28f3409558084eb03103" target="_top" xlink:title="Returns the relative path of the opened file.">
<polygon fill="white" stroke="#666666" points="709,-362 559.5,-362 559.5,-342 709,-342 709,-362"/>
<text text-anchor="middle" x="634.25" y="-348.5" font-family="Helvetica,sans-Serif" font-size="10.00">AEFileReader::getRelativePath</text>
</a>
</g>
</g>
<!-- Node1&#45;&gt;Node7 -->
<g id="edge6_Node000001_Node000007" class="edge">
<title>Node1&#45;&gt;Node7</title>
<g id="a_edge6_Node000001_Node000007"><a xlink:title=" ">
<path fill="none" stroke="#63b8ff" d="M786.49,-292.51C766.17,-305.07 736.65,-321.99 709,-333 700.77,-336.28 691.8,-339.14 683.03,-341.58"/>
<polygon fill="#63b8ff" stroke="#63b8ff" points="788.33,-295.49 794.93,-287.21 784.6,-289.57 788.33,-295.49"/>
</a>
</g>
</g>
<!-- Node9 -->
<g id="Node000009" class="node">
<title>Node9</title>
<g id="a_Node000009"><a xlink:href="../../dd/dd5/class_a_e_file_reader.html#a3afc3610a9a39a170c7f405dc97557ee" target="_top" xlink:title="Opens the file for reading.">
<polygon fill="white" stroke="#666666" points="693.62,-400 574.88,-400 574.88,-380 693.62,-380 693.62,-400"/>
<text text-anchor="middle" x="634.25" y="-386.5" font-family="Helvetica,sans-Serif" font-size="10.00">AEFileReader::openFile</text>
</a>
</g>
</g>
<!-- Node1&#45;&gt;Node9 -->
<g id="edge8_Node000001_Node000009" class="edge">
<title>Node1&#45;&gt;Node9</title>
<g id="a_edge8_Node000001_Node000009"><a xlink:title=" ">
<path fill="none" stroke="#63b8ff" d="M796.62,-294.98C778.08,-316.6 744.92,-351.44 709,-371 702.73,-374.41 695.82,-377.23 688.83,-379.56"/>
<polygon fill="#63b8ff" stroke="#63b8ff" points="799.14,-297.42 802.88,-287.51 793.77,-292.93 799.14,-297.42"/>
</a>
</g>
</g>
<!-- Node11 -->
<g id="Node000011" class="node">
<title>Node11</title>
<g id="a_Node000011"><a xlink:href="../../dd/dd5/class_a_e_file_reader.html#a4e144d05ae74507bb7b04d68bb15289e" target="_top" xlink:title="Reads the byte from the file and dumps/reinterprets it as the value in the passed bool (null is false...">
<polygon fill="white" stroke="#666666" points="694.38,-324 574.12,-324 574.12,-304 694.38,-304 694.38,-324"/>
<text text-anchor="middle" x="634.25" y="-310.5" font-family="Helvetica,sans-Serif" font-size="10.00">AEFileReader::readBool</text>
</a>
</g>
</g>
<!-- Node1&#45;&gt;Node11 -->
<g id="edge11_Node000001_Node000011" class="edge">
<title>Node1&#45;&gt;Node11</title>
<g id="a_edge11_Node000001_Node000011"><a xlink:title=" ">
<path fill="none" stroke="#63b8ff" d="M752.22,-288.85C729.96,-293.64 704.99,-299.01 683.86,-303.55"/>
<polygon fill="#63b8ff" stroke="#63b8ff" points="752.71,-292.33 761.75,-286.8 751.24,-285.48 752.71,-292.33"/>
</a>
</g>
</g>
<!-- Node12 -->
<g id="Node000012" class="node">
<title>Node12</title>
<g id="a_Node000012"><a xlink:href="../../dd/dd5/class_a_e_file_reader.html#a9bc4766a80101a9b3c2e3d9a66f807be" target="_top" xlink:title="Reads the byte from the file and writes you to a given unsigned.">
<polygon fill="white" stroke="#666666" points="694.75,-286 573.75,-286 573.75,-266 694.75,-266 694.75,-286"/>
<text text-anchor="middle" x="634.25" y="-272.5" font-family="Helvetica,sans-Serif" font-size="10.00">AEFileReader::readByte</text>
</a>
</g>
</g>
<!-- Node1&#45;&gt;Node12 -->
<g id="edge12_Node000001_Node000012" class="edge">
<title>Node1&#45;&gt;Node12</title>
<g id="a_edge12_Node000001_Node000012"><a xlink:title=" ">
<path fill="none" stroke="#63b8ff" d="M733.47,-276C720.61,-276 707.47,-276 695.15,-276"/>
<polygon fill="#63b8ff" stroke="#63b8ff" points="733.16,-279.5 743.16,-276 733.16,-272.5 733.16,-279.5"/>
</a>
</g>
</g>
<!-- Node13 -->
<g id="Node000013" class="node">
<title>Node13</title>
<g id="a_Node000013"><a xlink:href="../../dd/dd5/class_a_e_file_reader.html#ae7a5a1bbf170bb315c9f0b448a862882" target="_top" xlink:title="Reads the bytes from the file and dumps them into the std::vector&lt;unsigned char&gt;.">
<polygon fill="white" stroke="#666666" points="697.38,-248 571.12,-248 571.12,-228 697.38,-228 697.38,-248"/>
<text text-anchor="middle" x="634.25" y="-234.5" font-family="Helvetica,sans-Serif" font-size="10.00">AEFileReader::readBytes</text>
</a>
</g>
</g>
<!-- Node1&#45;&gt;Node13 -->
<g id="edge13_Node000001_Node000013" class="edge">
<title>Node1&#45;&gt;Node13</title>
<g id="a_edge13_Node000001_Node000013"><a xlink:title=" ">
<path fill="none" stroke="#63b8ff" d="M752.22,-263.15C729.96,-258.36 704.99,-252.99 683.86,-248.45"/>
<polygon fill="#63b8ff" stroke="#63b8ff" points="751.24,-266.52 761.75,-265.2 752.71,-259.67 751.24,-266.52"/>
</a>
</g>
</g>
<!-- Node14 -->
<g id="Node000014" class="node">
<title>Node14</title>
<g id="a_Node000014"><a xlink:href="../../dd/dd5/class_a_e_file_reader.html#acc49d70dfb4385a28d70f06717a16426" target="_top" xlink:title="Reads the bytes from the file and dumps them into the given pointer.">
<polygon fill="white" stroke="#666666" points="697.38,-210 571.12,-210 571.12,-190 697.38,-190 697.38,-210"/>
<text text-anchor="middle" x="634.25" y="-196.5" font-family="Helvetica,sans-Serif" font-size="10.00">AEFileReader::readBytes</text>
</a>
</g>
</g>
<!-- Node1&#45;&gt;Node14 -->
<g id="edge14_Node000001_Node000014" class="edge">
<title>Node1&#45;&gt;Node14</title>
<g id="a_edge14_Node000001_Node000014"><a xlink:title=" ">
<path fill="none" stroke="#63b8ff" d="M786.49,-259.49C766.17,-246.93 736.65,-230.01 709,-219 700.77,-215.72 691.8,-212.86 683.03,-210.42"/>
<polygon fill="#63b8ff" stroke="#63b8ff" points="784.6,-262.43 794.93,-264.79 788.33,-256.51 784.6,-262.43"/>
</a>
</g>
</g>
<!-- Node15 -->
<g id="Node000015" class="node">
<title>Node15</title>
<g id="a_Node000015"><a xlink:href="../../dd/dd5/class_a_e_file_reader.html#a65c9f2addc13e720716cb30ee60f813c" target="_top" xlink:title="Reads the character from the file and writes you to a given char.">
<polygon fill="white" stroke="#666666" points="694.75,-172 573.75,-172 573.75,-152 694.75,-152 694.75,-172"/>
<text text-anchor="middle" x="634.25" y="-158.5" font-family="Helvetica,sans-Serif" font-size="10.00">AEFileReader::readChar</text>
</a>
</g>
</g>
<!-- Node1&#45;&gt;Node15 -->
<g id="edge15_Node000001_Node000015" class="edge">
<title>Node1&#45;&gt;Node15</title>
<g id="a_edge15_Node000001_Node000015"><a xlink:title=" ">
<path fill="none" stroke="#63b8ff" d="M796.62,-257.02C778.08,-235.4 744.92,-200.56 709,-181 702.73,-177.59 695.82,-174.77 688.83,-172.44"/>
<polygon fill="#63b8ff" stroke="#63b8ff" points="793.77,-259.07 802.88,-264.49 799.14,-254.58 793.77,-259.07"/>
</a>
</g>
</g>
<!-- Node16 -->
<g id="Node000016" class="node">
<title>Node16</title>
<g id="a_Node000016"><a xlink:href="../../dd/dd5/class_a_e_file_reader.html#a5da1419ac8805b32f3ffd7b8a92828d6" target="_top" xlink:title="Reads the bytes (size of T) from the file and dumps/reinterprets them as the value in the passed floa...">
<polygon fill="white" stroke="#666666" points="695.5,-134 573,-134 573,-114 695.5,-114 695.5,-134"/>
<text text-anchor="middle" x="634.25" y="-120.5" font-family="Helvetica,sans-Serif" font-size="10.00">AEFileReader::readFloat</text>
</a>
</g>
</g>
<!-- Node1&#45;&gt;Node16 -->
<g id="edge16_Node000001_Node000016" class="edge">
<title>Node1&#45;&gt;Node16</title>
<g id="a_edge16_Node000001_Node000016"><a xlink:title=" ">
<path fill="none" stroke="#63b8ff" d="M802,-255.87C786.32,-226.45 753.13,-172.04 709,-143 703.81,-139.58 698.04,-136.78 692.08,-134.48"/>
<polygon fill="#63b8ff" stroke="#63b8ff" points="798.75,-257.2 806.44,-264.48 804.97,-253.98 798.75,-257.2"/>
</a>
</g>
</g>
<!-- Node17 -->
<g id="Node000017" class="node">
<title>Node17</title>
<g id="a_Node000017"><a xlink:href="../../dd/dd5/class_a_e_file_reader.html#a5900607899bc01d33f94a1e9138cd5a9" target="_top" xlink:title="Reads the bytes (size of T) from the file and dumps/reinterprets them as the value in the passed inte...">
<polygon fill="white" stroke="#666666" points="689.88,-96 578.62,-96 578.62,-76 689.88,-76 689.88,-96"/>
<text text-anchor="middle" x="634.25" y="-82.5" font-family="Helvetica,sans-Serif" font-size="10.00">AEFileReader::readInt</text>
</a>
</g>
</g>
<!-- Node1&#45;&gt;Node17 -->
<g id="edge17_Node000001_Node000017" class="edge">
<title>Node1&#45;&gt;Node17</title>
<g id="a_edge17_Node000001_Node000017"><a xlink:title=" ">
<path fill="none" stroke="#63b8ff" d="M805.25,-254.85C792.53,-218.43 761.43,-144.07 709,-105 703.38,-100.81 696.93,-97.55 690.23,-95"/>
<polygon fill="#63b8ff" stroke="#63b8ff" points="801.89,-255.83 808.39,-264.2 808.53,-253.6 801.89,-255.83"/>
</a>
</g>
</g>
<!-- Node18 -->
<g id="Node000018" class="node">
<title>Node18</title>
<g id="a_Node000018"><a xlink:href="../../dd/dd5/class_a_e_file_reader.html#a477effa6d568ec7993c4d506d0d0420c" target="_top" xlink:title="Sets read cursor position to pos from origin.">
<polygon fill="white" stroke="#666666" points="704.88,-58 563.62,-58 563.62,-38 704.88,-38 704.88,-58"/>
<text text-anchor="middle" x="634.25" y="-44.5" font-family="Helvetica,sans-Serif" font-size="10.00">AEFileReader::setCursorPos</text>
</a>
</g>
</g>
<!-- Node1&#45;&gt;Node18 -->
<g id="edge18_Node000001_Node000018" class="edge">
<title>Node1&#45;&gt;Node18</title>
<g id="a_edge18_Node000001_Node000018"><a xlink:title=" ">
<path fill="none" stroke="#63b8ff" d="M807.71,-254.7C798.01,-212.23 770.29,-116.82 709,-67 704.79,-63.58 700.04,-60.77 695.03,-58.46"/>
<polygon fill="#63b8ff" stroke="#63b8ff" points="804.26,-255.34 809.79,-264.38 811.11,-253.86 804.26,-255.34"/>
</a>
</g>
</g>
<!-- Node3 -->
<g id="Node000003" class="node">
<title>Node3</title>
<g id="a_Node000003"><a xlink:href="../../d8/d52/class_a_e_log_parser.html#a8e90913ac25c938e2e84a9887c5bae66" target="_top" xlink:title="Opens the log file, reading and parsing every single entry, classifying it by type.">
<polygon fill="white" stroke="#666666" points="508.12,-457 391.62,-457 391.62,-437 508.12,-437 508.12,-457"/>
<text text-anchor="middle" x="449.88" y="-443.5" font-family="Helvetica,sans-Serif" font-size="10.00">AELogParser::openLog</text>
</a>
</g>
</g>
<!-- Node2&#45;&gt;Node3 -->
<g id="edge2_Node000002_Node000003" class="edge">
<title>Node2&#45;&gt;Node3</title>
<g id="a_edge2_Node000002_Node000003"><a xlink:title=" ">
<path fill="none" stroke="#63b8ff" d="M552.12,-457.55C537.43,-456.02 522.39,-454.45 508.55,-453.01"/>
<polygon fill="#63b8ff" stroke="#63b8ff" points="551.45,-461 561.76,-458.55 552.17,-454.03 551.45,-461"/>
</a>
</g>
</g>
<!-- Node5 -->
<g id="Node000005" class="node">
<title>Node5</title>
<g id="a_Node000005"><a xlink:href="../../d8/d52/class_a_e_log_parser.html#a63a04021dcd2c31540c50182f8912c9d" target="_top" xlink:title="Returns the name of the opened file, devoid of the path.">
<polygon fill="white" stroke="#666666" points="517.12,-514 382.62,-514 382.62,-494 517.12,-494 517.12,-514"/>
<text text-anchor="middle" x="449.88" y="-500.5" font-family="Helvetica,sans-Serif" font-size="10.00">AELogParser::getFileName</text>
</a>
</g>
</g>
<!-- Node4&#45;&gt;Node5 -->
<g id="edge4_Node000004_Node000005" class="edge">
<title>Node4&#45;&gt;Node5</title>
<g id="a_edge4_Node000004_Node000005"><a xlink:title=" ">
<path fill="none" stroke="#63b8ff" d="M554.41,-504C542.11,-504 529.5,-504 517.51,-504"/>
<polygon fill="#63b8ff" stroke="#63b8ff" points="554.09,-507.5 564.09,-504 554.09,-500.5 554.09,-507.5"/>
</a>
</g>
</g>
<!-- Node8 -->
<g id="Node000008" class="node">
<title>Node8</title>
<g id="a_Node000008"><a xlink:href="../../d8/d52/class_a_e_log_parser.html#a0a1f374dbcebcbe44497d593247ac8c6" target="_top" xlink:title="Returns the relative path of the opened file.">
<polygon fill="white" stroke="#666666" points="523.5,-362 376.25,-362 376.25,-342 523.5,-342 523.5,-362"/>
<text text-anchor="middle" x="449.88" y="-348.5" font-family="Helvetica,sans-Serif" font-size="10.00">AELogParser::getRelativePath</text>
</a>
</g>
</g>
<!-- Node7&#45;&gt;Node8 -->
<g id="edge7_Node000007_Node000008" class="edge">
<title>Node7&#45;&gt;Node8</title>
<g id="a_edge7_Node000007_Node000008"><a xlink:title=" ">
<path fill="none" stroke="#63b8ff" d="M547.8,-352C539.78,-352 531.7,-352 523.81,-352"/>
<polygon fill="#63b8ff" stroke="#63b8ff" points="547.56,-355.5 557.56,-352 547.56,-348.5 547.56,-355.5"/>
</a>
</g>
</g>
<!-- Node9&#45;&gt;Node3 -->
<g id="edge10_Node000009_Node000003" class="edge">
<title>Node9&#45;&gt;Node3</title>
<g id="a_edge10_Node000009_Node000003"><a xlink:title=" ">
<path fill="none" stroke="#63b8ff" d="M579.12,-403.39C572.49,-405.19 565.82,-407.08 559.5,-409 531.78,-417.4 500.61,-428.48 478.79,-436.5"/>
<polygon fill="#63b8ff" stroke="#63b8ff" points="579.96,-406.79 588.72,-400.83 578.16,-400.02 579.96,-406.79"/>
</a>
</g>
</g>
<!-- Node10 -->
<g id="Node000010" class="node">
<title>Node10</title>
<g id="a_Node000010"><a xlink:href="../../dd/dd5/class_a_e_file_reader.html#a7d0c498896f1c10c36330ef4efaee81e" target="_top" xlink:title="Class constructor – constructs the instance and opens the file of given name.">
<polygon fill="white" stroke="#666666" points="520.88,-400 378.88,-400 378.88,-380 520.88,-380 520.88,-400"/>
<text text-anchor="middle" x="449.88" y="-386.5" font-family="Helvetica,sans-Serif" font-size="10.00">AEFileReader::AEFileReader</text>
</a>
</g>
</g>
<!-- Node9&#45;&gt;Node10 -->
<g id="edge9_Node000009_Node000010" class="edge">
<title>Node9&#45;&gt;Node10</title>
<g id="a_edge9_Node000009_Node000010"><a xlink:title=" ">
<path fill="none" stroke="#63b8ff" d="M563.18,-390C549.44,-390 535.02,-390 521.26,-390"/>
<polygon fill="#63b8ff" stroke="#63b8ff" points="563.03,-393.5 573.03,-390 563.03,-386.5 563.03,-393.5"/>
</a>
</g>
</g>
<!-- Node19 -->
<g id="Node000019" class="node">
<title>Node19</title>
<g id="a_Node000019"><a xlink:href="../../d8/d52/class_a_e_log_parser.html#af3c28f50c5f52840be97e631d67b244c" target="_top" xlink:title="Read the next valid entry in the log file of the given severity and module name filter,...">
<polygon fill="white" stroke="#666666" points="510.75,-58 389,-58 389,-38 510.75,-38 510.75,-58"/>
<text text-anchor="middle" x="449.88" y="-44.5" font-family="Helvetica,sans-Serif" font-size="10.00">AELogParser::nextEntry</text>
</a>
</g>
</g>
<!-- Node18&#45;&gt;Node19 -->
<g id="edge19_Node000018_Node000019" class="edge">
<title>Node18&#45;&gt;Node19</title>
<g id="a_edge19_Node000018_Node000019"><a xlink:title=" ">
<path fill="none" stroke="#63b8ff" d="M551.86,-48C538.18,-48 524.2,-48 511.17,-48"/>
<polygon fill="#63b8ff" stroke="#63b8ff" points="551.75,-51.5 561.75,-48 551.75,-44.5 551.75,-51.5"/>
</a>
</g>
</g>
<!-- Node20 -->
<g id="Node000020" class="node">
<title>Node20</title>
<g id="a_Node000020"><a xlink:href="../../d8/d52/class_a_e_log_parser.html#a182d51b4aa5771e2e6f6919300e571ca" target="_top" xlink:title="Same as the AELogParser::nextEntry() but on massive scale – scans the whole log file and parses it to...">
<polygon fill="white" stroke="#666666" points="332.38,-96 200.88,-96 200.88,-76 332.38,-76 332.38,-96"/>
<text text-anchor="middle" x="266.62" y="-82.5" font-family="Helvetica,sans-Serif" font-size="10.00">AELogParser::logToQueue</text>
</a>
</g>
</g>
<!-- Node19&#45;&gt;Node20 -->
<g id="edge20_Node000019_Node000020" class="edge">
<title>Node19&#45;&gt;Node20</title>
<g id="a_edge20_Node000019_Node000020"><a xlink:title=" ">
<path fill="none" stroke="#63b8ff" d="M387.88,-60.79C364.98,-65.59 339.24,-70.99 317.47,-75.55"/>
<polygon fill="#63b8ff" stroke="#63b8ff" points="388.32,-64.27 397.39,-58.79 386.88,-57.42 388.32,-64.27"/>
</a>
</g>
</g>
<!-- Node23 -->
<g id="Node000023" class="node">
<title>Node23</title>
<g id="a_Node000023"><a xlink:href="../../d8/d52/class_a_e_log_parser.html#a768d4b94cbf1504d72f93ec5d131e915" target="_top" xlink:title="Read the next valid entry in the log file of the given module name, and parse it into the given AELog...">
<polygon fill="white" stroke="#666666" points="340.25,-58 193,-58 193,-38 340.25,-38 340.25,-58"/>
<text text-anchor="middle" x="266.62" y="-44.5" font-family="Helvetica,sans-Serif" font-size="10.00">AELogParser::nextEntryName</text>
</a>
</g>
</g>
<!-- Node19&#45;&gt;Node23 -->
<g id="edge23_Node000019_Node000023" class="edge">
<title>Node19&#45;&gt;Node23</title>
<g id="a_edge23_Node000019_Node000023"><a xlink:title=" ">
<path fill="none" stroke="#63b8ff" d="M377.17,-48C365.16,-48 352.67,-48 340.63,-48"/>
<polygon fill="#63b8ff" stroke="#63b8ff" points="377.01,-51.5 387.01,-48 377.01,-44.5 377.01,-51.5"/>
</a>
</g>
</g>
<!-- Node24 -->
<g id="Node000024" class="node">
<title>Node24</title>
<g id="a_Node000024"><a xlink:href="../../d8/d52/class_a_e_log_parser.html#a0e03f67c2a0eaa0317904a2bd9f70cc0" target="_top" xlink:title="Read the next valid entry in the log file of the given severity, and parse it to the given AELogEntry...">
<polygon fill="white" stroke="#666666" points="338,-20 195.25,-20 195.25,0 338,0 338,-20"/>
<text text-anchor="middle" x="266.62" y="-6.5" font-family="Helvetica,sans-Serif" font-size="10.00">AELogParser::nextEntryType</text>
</a>
</g>
</g>
<!-- Node19&#45;&gt;Node24 -->
<g id="edge24_Node000019_Node000024" class="edge">
<title>Node19&#45;&gt;Node24</title>
<g id="a_edge24_Node000019_Node000024"><a xlink:title=" ">
<path fill="none" stroke="#63b8ff" d="M387.88,-35.21C364.98,-30.41 339.24,-25.01 317.47,-20.45"/>
<polygon fill="#63b8ff" stroke="#63b8ff" points="386.88,-38.58 397.39,-37.21 388.32,-31.73 386.88,-38.58"/>
</a>
</g>
</g>
<!-- Node21 -->
<g id="Node000021" class="node">
<title>Node21</title>
<g id="a_Node000021"><a xlink:href="../../d8/d52/class_a_e_log_parser.html#ae5044cf01623156d91ddc74492b0aeda" target="_top" xlink:title="A shortcut to AELogParser::logToQueue() to filter only by the module name of the log entries.">
<polygon fill="white" stroke="#666666" points="157,-115 0,-115 0,-95 157,-95 157,-115"/>
<text text-anchor="middle" x="78.5" y="-101.5" font-family="Helvetica,sans-Serif" font-size="10.00">AELogParser::logToQueueName</text>
</a>
</g>
</g>
<!-- Node20&#45;&gt;Node21 -->
<g id="edge21_Node000020_Node000021" class="edge">
<title>Node20&#45;&gt;Node21</title>
<g id="a_edge21_Node000020_Node000021"><a xlink:title=" ">
<path fill="none" stroke="#63b8ff" d="M189.25,-93.8C178.72,-94.87 167.9,-95.98 157.35,-97.05"/>
<polygon fill="#63b8ff" stroke="#63b8ff" points="189.43,-97.3 199.02,-92.8 188.72,-90.33 189.43,-97.3"/>
</a>
</g>
</g>
<!-- Node22 -->
<g id="Node000022" class="node">
<title>Node22</title>
<g id="a_Node000022"><a xlink:href="../../d8/d52/class_a_e_log_parser.html#ab84bb93f08ed48082f74b00290deb308" target="_top" xlink:title="A shortcut to AELogParser::logToQueue() to filter only by type/severity of the log entries.">
<polygon fill="white" stroke="#666666" points="154.75,-77 2.25,-77 2.25,-57 154.75,-57 154.75,-77"/>
<text text-anchor="middle" x="78.5" y="-63.5" font-family="Helvetica,sans-Serif" font-size="10.00">AELogParser::logToQueueType</text>
</a>
</g>
</g>
<!-- Node20&#45;&gt;Node22 -->
<g id="edge22_Node000020_Node000022" class="edge">
<title>Node20&#45;&gt;Node22</title>
<g id="a_edge22_Node000020_Node000022"><a xlink:title=" ">
<path fill="none" stroke="#63b8ff" d="M189.35,-78.21C178.04,-77.06 166.39,-75.87 155.09,-74.72"/>
<polygon fill="#63b8ff" stroke="#63b8ff" points="188.72,-81.67 199.02,-79.2 189.43,-74.7 188.72,-81.67"/>
</a>
</g>
</g>
</g>
</svg>

<g id="navigator" transform="translate(0 0)" fill="#404254">
  <rect fill="#f2f5e9" fill-opacity="0.5" stroke="#606060" stroke-width=".5" x="0" y="0" width="60" height="60"/>
  <use id="zoomplus" xlink:href="#zoomPlus" x="17" y="9" onmousedown="handleZoom(evt,'in')"/>
  <use id="zoomminus" xlink:href="#zoomMin" x="42" y="9" onmousedown="handleZoom(evt,'out')"/>
  <use id="reset" xlink:href="#resetDef" x="30" y="36" onmousedown="handleReset()"/>
   <use id="arrowup" xlink:href="#arrowUp" x="0" y="0" onmousedown="handlePan(0,-1)"/>
  <use id="arrowright" xlink:href="#arrowRight" x="0" y="0" onmousedown="handlePan(1,0)"/>
  <use id="arrowdown" xlink:href="#arrowDown" x="0" y="0" onmousedown="handlePan(0,1)"/>
  <use id="arrowleft" xlink:href="#arrowLeft" x="0" y="0" onmousedown="handlePan(-1,0)"/>
</g>
<svg viewBox="0 0 15 15" width="100%" height="30px" preserveAspectRatio="xMaxYMin meet">
 <g id="arrow_out" transform="scale(0.3 0.3)">
  <a xlink:href="class_a_e_file_reader_abbc85b7bb94f31f54df561d23a38e3dc_icgraph_org.svg" target="_base">
   <rect id="button" ry="5" rx="5" y="6" x="6" height="38" width="38"
        fill="#f2f5e9" fill-opacity="0.5" stroke="#606060" stroke-width="1.0"/>
   <path id="arrow"
     d="M 11.500037,31.436501 C 11.940474,20.09759 22.043105,11.32322 32.158766,21.979434 L 37.068811,17.246167 C 37.068811,17.246167 37.088388,32 37.088388,32 L 22.160133,31.978069 C 22.160133,31.978069 26.997745,27.140456 26.997745,27.140456 C 18.528582,18.264221 13.291696,25.230495 11.500037,31.436501 z"
     style="fill:#404040;"/>
  </a>
 </g>
</svg>

<style type='text/css'>
<![CDATA[
[data-mouse-over-selected='false'] { opacity: 0.7; }
[data-mouse-over-selected='true']  { opacity: 1.0; }
]]>
</style>
<script type="application/ecmascript"><![CDATA[
document.addEventListener('DOMContentLoaded', (event) => {
  highlightEdges();
  highlightAdjacentNodes();
});
]]></script>
</svg>
