<?xml version="1.0" encoding="UTF-8" standalone="no"?>
<!DOCTYPE svg PUBLIC "-//W3C//DTD SVG 1.1//EN"
 "http://www.w3.org/Graphics/SVG/1.1/DTD/svg11.dtd">
<!-- Generated by graphviz version 10.0.1 (20240210.2158)
 -->
<!-- Title: AEFileReader Pages: 1 -->
<svg width="1114pt" height="238pt"
 viewBox="0.00 0.00 1114.30 238.00" xmlns="http://www.w3.org/2000/svg" xmlns:xlink="http://www.w3.org/1999/xlink">
<g id="graph0" class="graph" transform="scale(1 1) rotate(0) translate(4 234)">
<title>AEFileReader</title>
<!-- Node1 -->
<g id="Node000001" class="node">
<title>Node1</title>
<g id="a_Node000001"><a xlink:title="ArtyK&#39;s Engine File Reader; umm, it reads data from the given file.">
<polygon fill="#999999" stroke="#666666" points="1106.3,-96 1030.3,-96 1030.3,-76 1106.3,-76 1106.3,-96"/>
<text text-anchor="middle" x="1068.3" y="-82.5" font-family="Helvetica,sans-Serif" font-size="10.00">AEFileReader</text>
</a>
</g>
</g>
<!-- Node2 -->
<g id="Node000002" class="node">
<title>Node2</title>
<g id="a_Node000002"><a xlink:href="../../d0/d8a/class_____a_e_module_base.html" target="_top" xlink:title=" ">
<polygon fill="white" stroke="#666666" points="932.8,-142 760.8,-142 760.8,-122 932.8,-122 932.8,-142"/>
<text text-anchor="middle" x="846.8" y="-128.5" font-family="Helvetica,sans-Serif" font-size="10.00">__AEModuleBase&lt; AEFileReader &gt;</text>
</a>
</g>
</g>
<!-- Node2&#45;&gt;Node1 -->
<g id="edge1_Node000001_Node000002" class="edge">
<title>Node2&#45;&gt;Node1</title>
<g id="a_edge1_Node000001_Node000002"><a xlink:title=" ">
<path fill="none" stroke="#63b8ff" d="M916.85,-119.48C946.34,-113.89 981.09,-107 1012.3,-100 1018.07,-98.71 1024.15,-97.25 1030.09,-95.78"/>
<polygon fill="#63b8ff" stroke="#63b8ff" points="916.5,-115.98 907.31,-121.27 917.79,-122.86 916.5,-115.98"/>
</a>
</g>
</g>
<!-- Node3 -->
<g id="Node000003" class="node">
<title>Node3</title>
<g id="a_Node000003"><a xlink:title=" ">
<polygon fill="white" stroke="#666666" points="398.3,-171 269.8,-171 269.8,-151 398.3,-151 398.3,-171"/>
<text text-anchor="middle" x="334.05" y="-157.5" font-family="Helvetica,sans-Serif" font-size="10.00">std::atomic&lt; std::size_t &gt;</text>
</a>
</g>
</g>
<!-- Node3&#45;&gt;Node2 -->
<g id="edge2_Node000002_Node000003" class="edge">
<title>Node3&#45;&gt;Node2</title>
<g id="a_edge2_Node000002_Node000003"><a xlink:title=" ">
<path fill="none" stroke="#9a32cd" stroke-dasharray="5,2" d="M410.07,-151.38C442.99,-147.52 482.14,-143.42 517.55,-141 599.88,-135.37 694.05,-133.23 760.35,-132.43"/>
<polygon fill="#9a32cd" stroke="#9a32cd" points="409.72,-147.9 400.21,-152.55 410.55,-154.85 409.72,-147.9"/>
</a>
</g>
<text text-anchor="middle" x="580.68" y="-143.5" font-family="Helvetica,sans-Serif" font-size="10.00" fill="grey"> m_ullModulesAlive</text>
</g>
<!-- Node7 -->
<g id="Node000007" class="node">
<title>Node7</title>
<g id="a_Node000007"><a xlink:href="../../d0/d8a/class_____a_e_module_base.html" target="_top" xlink:title="This is a base class for all the modules in the engine; all basic modules inherit from it.">
<polygon fill="white" stroke="#666666" points="639.3,-182 522.05,-182 522.05,-162 639.3,-162 639.3,-182"/>
<text text-anchor="middle" x="580.68" y="-168.5" font-family="Helvetica,sans-Serif" font-size="10.00">__AEModuleBase&lt; T &gt;</text>
</a>
</g>
</g>
<!-- Node3&#45;&gt;Node7 -->
<g id="edge7_Node000007_Node000003" class="edge">
<title>Node3&#45;&gt;Node7</title>
<g id="a_edge7_Node000007_Node000003"><a xlink:title=" ">
<path fill="none" stroke="#9a32cd" stroke-dasharray="5,2" d="M410.11,-164.37C446.04,-165.99 488.41,-167.9 521.8,-169.4"/>
<polygon fill="#9a32cd" stroke="#9a32cd" points="410.34,-160.88 400.2,-163.93 410.03,-167.88 410.34,-160.88"/>
</a>
</g>
<text text-anchor="middle" x="457.93" y="-170.5" font-family="Helvetica,sans-Serif" font-size="10.00" fill="grey"> m_ullModulesAlive</text>
</g>
<!-- Node4 -->
<g id="Node000004" class="node">
<title>Node4</title>
<g id="a_Node000004"><a xlink:title=" ">
<polygon fill="white" stroke="#666666" points="144.18,-209 101.93,-209 101.93,-189 144.18,-189 144.18,-209"/>
<text text-anchor="middle" x="123.05" y="-195.5" font-family="Helvetica,sans-Serif" font-size="10.00">size_t</text>
</a>
</g>
</g>
<!-- Node4&#45;&gt;Node1 -->
<g id="edge13_Node000001_Node000004" class="edge">
<title>Node4&#45;&gt;Node1</title>
<g id="a_edge13_Node000001_Node000004"><a xlink:title=" ">
<path fill="none" stroke="#9a32cd" stroke-dasharray="5,2" d="M155.83,-203.7C196.72,-209.32 270.01,-218 333.05,-218 333.05,-218 333.05,-218 847.8,-218 942.07,-218 1030.74,-127.48 1058.43,-96.36"/>
<polygon fill="#9a32cd" stroke="#9a32cd" points="156.35,-200.24 145.96,-202.31 155.38,-207.17 156.35,-200.24"/>
</a>
</g>
<text text-anchor="middle" x="580.68" y="-220.5" font-family="Helvetica,sans-Serif" font-size="10.00" fill="grey"> m_szLastReadAmount</text>
</g>
<!-- Node4&#45;&gt;Node3 -->
<g id="edge3_Node000003_Node000004" class="edge">
<title>Node4&#45;&gt;Node3</title>
<g id="a_edge3_Node000003_Node000004"><a xlink:title=" ">
<path fill="none" stroke="#9a32cd" stroke-dasharray="5,2" d="M155.69,-193.25C187.4,-187.48 236.91,-178.48 275.58,-171.45"/>
<polygon fill="#9a32cd" stroke="#9a32cd" points="155.17,-189.78 145.96,-195.02 156.42,-196.67 155.17,-189.78"/>
</a>
</g>
<text text-anchor="middle" x="218.43" y="-189.5" font-family="Helvetica,sans-Serif" font-size="10.00" fill="grey"> ptr</text>
</g>
<!-- Node5 -->
<g id="Node000005" class="node">
<title>Node5</title>
<g id="a_Node000005"><a xlink:title=" ">
<polygon fill="white" stroke="#666666" points="167.05,-157 79.05,-157 79.05,-137 167.05,-137 167.05,-157"/>
<text text-anchor="middle" x="123.05" y="-143.5" font-family="Helvetica,sans-Serif" font-size="10.00">std::atomic&lt; T &gt;</text>
</a>
</g>
</g>
<!-- Node5&#45;&gt;Node3 -->
<g id="edge4_Node000003_Node000005" class="edge">
<title>Node5&#45;&gt;Node3</title>
<g id="a_edge4_Node000003_Node000005"><a xlink:title=" ">
<path fill="none" stroke="orange" stroke-dasharray="5,2" d="M178.5,-150.65C206.38,-152.52 240.49,-154.8 269.57,-156.75"/>
<polygon fill="orange" stroke="orange" points="179.08,-147.18 168.87,-150 178.61,-154.16 179.08,-147.18"/>
</a>
</g>
<text text-anchor="middle" x="218.43" y="-157.5" font-family="Helvetica,sans-Serif" font-size="10.00" fill="grey"> &lt; std::size_t &gt;</text>
</g>
<!-- Node10 -->
<g id="Node000010" class="node">
<title>Node10</title>
<g id="a_Node000010"><a xlink:title=" ">
<polygon fill="white" stroke="#666666" points="385.55,-96 282.55,-96 282.55,-76 385.55,-76 385.55,-96"/>
<text text-anchor="middle" x="334.05" y="-82.5" font-family="Helvetica,sans-Serif" font-size="10.00">std::atomic&lt; ullint &gt;</text>
</a>
</g>
</g>
<!-- Node5&#45;&gt;Node10 -->
<g id="edge12_Node000010_Node000005" class="edge">
<title>Node5&#45;&gt;Node10</title>
<g id="a_edge12_Node000010_Node000005"><a xlink:title=" ">
<path fill="none" stroke="orange" stroke-dasharray="5,2" d="M170.83,-133.35C209.07,-122.19 262.34,-106.64 297.24,-96.45"/>
<polygon fill="orange" stroke="orange" points="170.05,-129.93 161.43,-136.09 172.01,-136.65 170.05,-129.93"/>
</a>
</g>
<text text-anchor="middle" x="218.43" y="-130.5" font-family="Helvetica,sans-Serif" font-size="10.00" fill="grey"> &lt; ullint &gt;</text>
</g>
<!-- Node6 -->
<g id="Node000006" class="node">
<title>Node6</title>
<g id="a_Node000006"><a xlink:title=" ">
<polygon fill="white" stroke="#666666" points="28.8,-157 0,-157 0,-137 28.8,-137 28.8,-157"/>
<text text-anchor="middle" x="14.4" y="-143.5" font-family="Helvetica,sans-Serif" font-size="10.00">T</text>
</a>
</g>
</g>
<!-- Node6&#45;&gt;Node5 -->
<g id="edge5_Node000005_Node000006" class="edge">
<title>Node6&#45;&gt;Node5</title>
<g id="a_edge5_Node000005_Node000006"><a xlink:title=" ">
<path fill="none" stroke="#9a32cd" stroke-dasharray="5,2" d="M40.2,-147C51.66,-147 65.6,-147 78.71,-147"/>
<polygon fill="#9a32cd" stroke="#9a32cd" points="40.42,-143.5 30.42,-147 40.42,-150.5 40.42,-143.5"/>
</a>
</g>
<text text-anchor="middle" x="53.93" y="-149.5" font-family="Helvetica,sans-Serif" font-size="10.00" fill="grey"> ptr</text>
</g>
<!-- Node7&#45;&gt;Node2 -->
<g id="edge6_Node000002_Node000007" class="edge">
<title>Node7&#45;&gt;Node2</title>
<g id="a_edge6_Node000002_Node000007"><a xlink:title=" ">
<path fill="none" stroke="orange" stroke-dasharray="5,2" d="M650.84,-161.53C689.65,-155.65 737.93,-148.34 776.73,-142.46"/>
<polygon fill="orange" stroke="orange" points="650.5,-158.04 641.13,-163 651.55,-164.96 650.5,-158.04"/>
</a>
</g>
<text text-anchor="middle" x="702.3" y="-161.5" font-family="Helvetica,sans-Serif" font-size="10.00" fill="grey"> &lt; AEFileReader &gt;</text>
</g>
<!-- Node8 -->
<g id="Node000008" class="node">
<title>Node8</title>
<g id="a_Node000008"><a xlink:title=" ">
<polygon fill="white" stroke="#666666" points="876.55,-58 817.05,-58 817.05,-38 876.55,-38 876.55,-58"/>
<text text-anchor="middle" x="846.8" y="-44.5" font-family="Helvetica,sans-Serif" font-size="10.00">std::string</text>
</a>
</g>
</g>
<!-- Node8&#45;&gt;Node1 -->
<g id="edge8_Node000001_Node000008" class="edge">
<title>Node8&#45;&gt;Node1</title>
<g id="a_edge8_Node000001_Node000008"><a xlink:title=" ">
<path fill="none" stroke="#9a32cd" stroke-dasharray="5,2" d="M888.1,-46.85C921.83,-46.85 970.93,-49.12 1012.3,-60 1025.37,-63.44 1039.12,-69.94 1049.61,-75.58"/>
<polygon fill="#9a32cd" stroke="#9a32cd" points="888.34,-43.35 878.37,-46.92 888.39,-50.35 888.34,-43.35"/>
</a>
</g>
<text text-anchor="middle" x="981.55" y="-62.5" font-family="Helvetica,sans-Serif" font-size="10.00" fill="grey"> m_sFilename</text>
</g>
<!-- Node9 -->
<g id="Node000009" class="node">
<title>Node9</title>
<g id="a_Node000009"><a xlink:title=" ">
<polygon fill="white" stroke="#666666" points="643.8,-58 517.55,-58 517.55,-38 643.8,-38 643.8,-58"/>
<text text-anchor="middle" x="580.68" y="-44.5" font-family="Helvetica,sans-Serif" font-size="10.00">std::basic_string&lt; Char &gt;</text>
</a>
</g>
</g>
<!-- Node9&#45;&gt;Node8 -->
<g id="edge9_Node000008_Node000009" class="edge">
<title>Node9&#45;&gt;Node8</title>
<g id="a_edge9_Node000008_Node000009"><a xlink:title=" ">
<path fill="none" stroke="#63b8ff" d="M655.76,-48C709.21,-48 778.47,-48 816.89,-48"/>
<polygon fill="#63b8ff" stroke="#63b8ff" points="655.78,-44.5 645.78,-48 655.78,-51.5 655.78,-44.5"/>
</a>
</g>
</g>
<!-- Node10&#45;&gt;Node1 -->
<g id="edge10_Node000001_Node000010" class="edge">
<title>Node10&#45;&gt;Node1</title>
<g id="a_edge10_Node000001_Node000010"><a xlink:title=" ">
<path fill="none" stroke="#9a32cd" stroke-dasharray="5,2" d="M397.45,-86C544.98,-86 911.72,-86 1029.93,-86"/>
<polygon fill="#9a32cd" stroke="#9a32cd" points="397.47,-82.5 387.47,-86 397.47,-89.5 397.47,-82.5"/>
</a>
</g>
<text text-anchor="middle" x="702.3" y="-88.5" font-family="Helvetica,sans-Serif" font-size="10.00" fill="grey"> m_ullTotalReads</text>
</g>
<!-- Node11 -->
<g id="Node000011" class="node">
<title>Node11</title>
<g id="a_Node000011"><a xlink:title=" ">
<polygon fill="white" stroke="#666666" points="141.18,-96 104.93,-96 104.93,-76 141.18,-76 141.18,-96"/>
<text text-anchor="middle" x="123.05" y="-82.5" font-family="Helvetica,sans-Serif" font-size="10.00">ullint</text>
</a>
</g>
</g>
<!-- Node11&#45;&gt;Node10 -->
<g id="edge11_Node000010_Node000011" class="edge">
<title>Node11&#45;&gt;Node10</title>
<g id="a_edge11_Node000010_Node000011"><a xlink:title=" ">
<path fill="none" stroke="#9a32cd" stroke-dasharray="5,2" d="M152.7,-86C185.99,-86 241.54,-86 282.22,-86"/>
<polygon fill="#9a32cd" stroke="#9a32cd" points="153.02,-82.5 143.02,-86 153.02,-89.5 153.02,-82.5"/>
</a>
</g>
<text text-anchor="middle" x="218.43" y="-88.5" font-family="Helvetica,sans-Serif" font-size="10.00" fill="grey"> ptr</text>
</g>
<!-- Node12 -->
<g id="Node000012" class="node">
<title>Node12</title>
<g id="a_Node000012"><a xlink:title=" ">
<polygon fill="white" stroke="#666666" points="868.3,-20 825.3,-20 825.3,0 868.3,0 868.3,-20"/>
<text text-anchor="middle" x="846.8" y="-6.5" font-family="Helvetica,sans-Serif" font-size="10.00">FILE *</text>
</a>
</g>
</g>
<!-- Node12&#45;&gt;Node1 -->
<g id="edge14_Node000001_Node000012" class="edge">
<title>Node12&#45;&gt;Node1</title>
<g id="a_edge14_Node000001_Node000012"><a xlink:title=" ">
<path fill="none" stroke="#9a32cd" stroke-dasharray="5,2" d="M879.95,-9.08C914.38,-9.33 969.78,-13.4 1012.3,-34 1032.4,-43.74 1050.06,-63.47 1059.66,-75.63"/>
<polygon fill="#9a32cd" stroke="#9a32cd" points="880.2,-5.58 870.22,-9.12 880.23,-12.58 880.2,-5.58"/>
</a>
</g>
<text text-anchor="middle" x="981.55" y="-36.5" font-family="Helvetica,sans-Serif" font-size="10.00" fill="grey"> m_fpFilestr</text>
</g>
</g>
</svg>
