<?xml version="1.0" encoding="UTF-8" standalone="no"?>
<!DOCTYPE svg PUBLIC "-//W3C//DTD SVG 1.1//EN"
 "http://www.w3.org/Graphics/SVG/1.1/DTD/svg11.dtd">
<!-- Generated by graphviz version 10.0.1 (20240210.2158)
 -->
<!-- Title: AEFileReader Pages: 1 -->
<svg width="1128pt" height="349pt"
 viewBox="0.00 0.00 1127.80 349.00" xmlns="http://www.w3.org/2000/svg" xmlns:xlink="http://www.w3.org/1999/xlink">
<g id="graph0" class="graph" transform="scale(1 1) rotate(0) translate(4 345)">
<title>AEFileReader</title>
<!-- Node1 -->
<g id="Node000001" class="node">
<title>Node1</title>
<g id="a_Node000001"><a xlink:title="ArtyK&#39;s Engine File Reader; umm, it reads data from the given file.">
<polygon fill="#999999" stroke="#666666" points="1119.8,-96 1043.8,-96 1043.8,-76 1119.8,-76 1119.8,-96"/>
<text text-anchor="middle" x="1081.8" y="-82.5" font-family="Helvetica,sans-Serif" font-size="10.00">AEFileReader</text>
</a>
</g>
</g>
<!-- Node2 -->
<g id="Node000002" class="node">
<title>Node2</title>
<g id="a_Node000002"><a xlink:href="../../d0/d8a/class_____a_e_module_base.html" target="_top" xlink:title=" ">
<polygon fill="white" stroke="#666666" points="946.3,-196 774.3,-196 774.3,-176 946.3,-176 946.3,-196"/>
<text text-anchor="middle" x="860.3" y="-182.5" font-family="Helvetica,sans-Serif" font-size="10.00">__AEModuleBase&lt; AEFileReader &gt;</text>
</a>
</g>
</g>
<!-- Node2&#45;&gt;Node1 -->
<g id="edge1_Node000001_Node000002" class="edge">
<title>Node2&#45;&gt;Node1</title>
<g id="a_edge1_Node000001_Node000002"><a xlink:title=" ">
<path fill="none" stroke="#63b8ff" d="M894.36,-170.94C939.41,-150.41 1018.93,-114.19 1057.93,-96.42"/>
<polygon fill="#63b8ff" stroke="#63b8ff" points="892.99,-167.72 885.34,-175.05 895.89,-174.09 892.99,-167.72"/>
</a>
</g>
</g>
<!-- Node3 -->
<g id="Node000003" class="node">
<title>Node3</title>
<g id="a_Node000003"><a xlink:title=" ">
<polygon fill="white" stroke="#666666" points="398.3,-228 269.8,-228 269.8,-208 398.3,-208 398.3,-228"/>
<text text-anchor="middle" x="334.05" y="-214.5" font-family="Helvetica,sans-Serif" font-size="10.00">std::atomic&lt; std::size_t &gt;</text>
</a>
</g>
</g>
<!-- Node3&#45;&gt;Node2 -->
<g id="edge2_Node000002_Node000003" class="edge">
<title>Node3&#45;&gt;Node2</title>
<g id="a_edge2_Node000002_Node000003"><a xlink:title=" ">
<path fill="none" stroke="#9a32cd" stroke-dasharray="5,2" d="M409.53,-207.67C446.08,-203.01 490.79,-197.91 531.05,-195 613.36,-189.05 707.53,-186.96 773.84,-186.25"/>
<polygon fill="#9a32cd" stroke="#9a32cd" points="409.44,-204.16 399.97,-208.91 410.34,-211.1 409.44,-204.16"/>
</a>
</g>
<text text-anchor="middle" x="594.18" y="-197.5" font-family="Helvetica,sans-Serif" font-size="10.00" fill="grey"> m_ullModulesAlive</text>
</g>
<!-- Node10 -->
<g id="Node000010" class="node">
<title>Node10</title>
<g id="a_Node000010"><a xlink:href="../../d0/d8a/class_____a_e_module_base.html" target="_top" xlink:title="This is a base class for all the modules in the engine; all basic modules inherit from it.">
<polygon fill="white" stroke="#666666" points="652.8,-236 535.55,-236 535.55,-216 652.8,-216 652.8,-236"/>
<text text-anchor="middle" x="594.18" y="-222.5" font-family="Helvetica,sans-Serif" font-size="10.00">__AEModuleBase&lt; T &gt;</text>
</a>
</g>
</g>
<!-- Node3&#45;&gt;Node10 -->
<g id="edge11_Node000010_Node000003" class="edge">
<title>Node3&#45;&gt;Node10</title>
<g id="a_edge11_Node000010_Node000003"><a xlink:title=" ">
<path fill="none" stroke="#9a32cd" stroke-dasharray="5,2" d="M409.95,-217.79C441.76,-217.97 479.23,-218.55 513.05,-220 520.3,-220.31 527.91,-220.74 535.43,-221.24"/>
<polygon fill="#9a32cd" stroke="#9a32cd" points="410.04,-214.29 400.02,-217.74 410.01,-221.29 410.04,-214.29"/>
</a>
</g>
<text text-anchor="middle" x="464.68" y="-222.5" font-family="Helvetica,sans-Serif" font-size="10.00" fill="grey"> m_ullModulesAlive</text>
</g>
<!-- Node4 -->
<g id="Node000004" class="node">
<title>Node4</title>
<g id="a_Node000004"><a xlink:title=" ">
<polygon fill="white" stroke="#666666" points="144.18,-272 101.93,-272 101.93,-252 144.18,-252 144.18,-272"/>
<text text-anchor="middle" x="123.05" y="-258.5" font-family="Helvetica,sans-Serif" font-size="10.00">size_t</text>
</a>
</g>
</g>
<!-- Node4&#45;&gt;Node1 -->
<g id="edge17_Node000001_Node000004" class="edge">
<title>Node4&#45;&gt;Node1</title>
<g id="a_edge17_Node000001_Node000004"><a xlink:title=" ">
<path fill="none" stroke="#9a32cd" stroke-dasharray="5,2" d="M153.21,-277.71C192.77,-297.51 266.18,-329 333.05,-329 333.05,-329 333.05,-329 861.3,-329 988.65,-329 1061.19,-142.95 1077.34,-96.44"/>
<polygon fill="#9a32cd" stroke="#9a32cd" points="154.83,-274.6 144.34,-273.16 151.64,-280.83 154.83,-274.6"/>
</a>
</g>
<text text-anchor="middle" x="594.18" y="-331.5" font-family="Helvetica,sans-Serif" font-size="10.00" fill="grey"> m_szLastReadAmount</text>
</g>
<!-- Node4&#45;&gt;Node3 -->
<g id="edge3_Node000003_Node000004" class="edge">
<title>Node4&#45;&gt;Node3</title>
<g id="a_edge3_Node000003_Node000004"><a xlink:title=" ">
<path fill="none" stroke="#9a32cd" stroke-dasharray="5,2" d="M155.55,-255.37C189.44,-248.23 243.8,-236.79 283.45,-228.44"/>
<polygon fill="#9a32cd" stroke="#9a32cd" points="155.02,-251.9 145.95,-257.39 156.46,-258.75 155.02,-251.9"/>
</a>
</g>
<text text-anchor="middle" x="218.43" y="-250.5" font-family="Helvetica,sans-Serif" font-size="10.00" fill="grey"> ptr</text>
</g>
<!-- Node5 -->
<g id="Node000005" class="node">
<title>Node5</title>
<g id="a_Node000005"><a xlink:title=" ">
<polygon fill="white" stroke="#666666" points="167.05,-220 79.05,-220 79.05,-200 167.05,-200 167.05,-220"/>
<text text-anchor="middle" x="123.05" y="-206.5" font-family="Helvetica,sans-Serif" font-size="10.00">std::atomic&lt; T &gt;</text>
</a>
</g>
</g>
<!-- Node5&#45;&gt;Node3 -->
<g id="edge4_Node000003_Node000005" class="edge">
<title>Node5&#45;&gt;Node3</title>
<g id="a_edge4_Node000003_Node000005"><a xlink:title=" ">
<path fill="none" stroke="orange" stroke-dasharray="5,2" d="M178.5,-212.08C206.38,-213.15 240.49,-214.46 269.57,-215.57"/>
<polygon fill="orange" stroke="orange" points="178.99,-208.6 168.87,-211.72 178.73,-215.6 178.99,-208.6"/>
</a>
</g>
<text text-anchor="middle" x="218.43" y="-216.5" font-family="Helvetica,sans-Serif" font-size="10.00" fill="grey"> &lt; std::size_t &gt;</text>
</g>
<!-- Node7 -->
<g id="Node000007" class="node">
<title>Node7</title>
<g id="a_Node000007"><a xlink:title=" ">
<polygon fill="white" stroke="#666666" points="385.55,-138 282.55,-138 282.55,-118 385.55,-118 385.55,-138"/>
<text text-anchor="middle" x="334.05" y="-124.5" font-family="Helvetica,sans-Serif" font-size="10.00">std::atomic&lt; ullint &gt;</text>
</a>
</g>
</g>
<!-- Node5&#45;&gt;Node7 -->
<g id="edge8_Node000007_Node000005" class="edge">
<title>Node5&#45;&gt;Node7</title>
<g id="a_edge8_Node000007_Node000005"><a xlink:title=" ">
<path fill="none" stroke="orange" stroke-dasharray="5,2" d="M161.07,-195.48C202.79,-179.11 269.6,-152.89 306.47,-138.43"/>
<polygon fill="orange" stroke="orange" points="159.96,-192.15 151.93,-199.06 162.52,-198.67 159.96,-192.15"/>
</a>
</g>
<text text-anchor="middle" x="218.43" y="-187.5" font-family="Helvetica,sans-Serif" font-size="10.00" fill="grey"> &lt; ullint &gt;</text>
</g>
<!-- Node6 -->
<g id="Node000006" class="node">
<title>Node6</title>
<g id="a_Node000006"><a xlink:title=" ">
<polygon fill="white" stroke="#666666" points="28.8,-220 0,-220 0,-200 28.8,-200 28.8,-220"/>
<text text-anchor="middle" x="14.4" y="-206.5" font-family="Helvetica,sans-Serif" font-size="10.00">T</text>
</a>
</g>
</g>
<!-- Node6&#45;&gt;Node5 -->
<g id="edge5_Node000005_Node000006" class="edge">
<title>Node6&#45;&gt;Node5</title>
<g id="a_edge5_Node000005_Node000006"><a xlink:title=" ">
<path fill="none" stroke="#9a32cd" stroke-dasharray="5,2" d="M40.2,-210C51.66,-210 65.6,-210 78.71,-210"/>
<polygon fill="#9a32cd" stroke="#9a32cd" points="40.42,-206.5 30.42,-210 40.42,-213.5 40.42,-206.5"/>
</a>
</g>
<text text-anchor="middle" x="53.93" y="-212.5" font-family="Helvetica,sans-Serif" font-size="10.00" fill="grey"> ptr</text>
</g>
<!-- Node7&#45;&gt;Node1 -->
<g id="edge16_Node000001_Node000007" class="edge">
<title>Node7&#45;&gt;Node1</title>
<g id="a_edge16_Node000001_Node000007"><a xlink:title=" ">
<path fill="none" stroke="#9a32cd" stroke-dasharray="5,2" d="M397.24,-124.5C546.88,-116.07 923.52,-94.86 1043.48,-88.1"/>
<polygon fill="#9a32cd" stroke="#9a32cd" points="397.31,-120.99 387.53,-125.04 397.71,-127.98 397.31,-120.99"/>
</a>
</g>
<text text-anchor="middle" x="715.8" y="-110.5" font-family="Helvetica,sans-Serif" font-size="10.00" fill="grey"> m_ullTotalReads</text>
</g>
<!-- Node7&#45;&gt;Node2 -->
<g id="edge6_Node000002_Node000007" class="edge">
<title>Node7&#45;&gt;Node2</title>
<g id="a_edge6_Node000002_Node000007"><a xlink:title=" ">
<path fill="none" stroke="#9a32cd" stroke-dasharray="5,2" d="M397.06,-134.86C490.68,-145.22 668.39,-164.88 774.1,-176.57"/>
<polygon fill="#9a32cd" stroke="#9a32cd" points="397.62,-131.4 387.3,-133.78 396.85,-138.36 397.62,-131.4"/>
</a>
</g>
<text text-anchor="middle" x="594.18" y="-164.5" font-family="Helvetica,sans-Serif" font-size="10.00" fill="grey"> m_ullInstanceCounter</text>
</g>
<!-- Node7&#45;&gt;Node10 -->
<g id="edge12_Node000010_Node000007" class="edge">
<title>Node7&#45;&gt;Node10</title>
<g id="a_edge12_Node000010_Node000007"><a xlink:title=" ">
<path fill="none" stroke="#9a32cd" stroke-dasharray="5,2" d="M373.26,-142.51C425.91,-162.5 519.5,-198.03 565.75,-215.59"/>
<polygon fill="#9a32cd" stroke="#9a32cd" points="374.68,-139.3 364.09,-139.02 372.2,-145.85 374.68,-139.3"/>
</a>
</g>
<text text-anchor="middle" x="464.68" y="-196.5" font-family="Helvetica,sans-Serif" font-size="10.00" fill="grey"> m_ullInstanceCounter</text>
</g>
<!-- Node8 -->
<g id="Node000008" class="node">
<title>Node8</title>
<g id="a_Node000008"><a xlink:title=" ">
<polygon fill="white" stroke="#666666" points="141.18,-138 104.93,-138 104.93,-118 141.18,-118 141.18,-138"/>
<text text-anchor="middle" x="123.05" y="-124.5" font-family="Helvetica,sans-Serif" font-size="10.00">ullint</text>
</a>
</g>
</g>
<!-- Node8&#45;&gt;Node7 -->
<g id="edge7_Node000007_Node000008" class="edge">
<title>Node8&#45;&gt;Node7</title>
<g id="a_edge7_Node000007_Node000008"><a xlink:title=" ">
<path fill="none" stroke="#9a32cd" stroke-dasharray="5,2" d="M152.7,-128C185.99,-128 241.54,-128 282.22,-128"/>
<polygon fill="#9a32cd" stroke="#9a32cd" points="153.02,-124.5 143.02,-128 153.02,-131.5 153.02,-124.5"/>
</a>
</g>
<text text-anchor="middle" x="218.43" y="-130.5" font-family="Helvetica,sans-Serif" font-size="10.00" fill="grey"> ptr</text>
</g>
<!-- Node9 -->
<g id="Node000009" class="node">
<title>Node9</title>
<g id="a_Node000009"><a xlink:title=" ">
<polygon fill="white" stroke="#666666" points="365.68,-279 302.43,-279 302.43,-259 365.68,-259 365.68,-279"/>
<text text-anchor="middle" x="334.05" y="-265.5" font-family="Helvetica,sans-Serif" font-size="10.00">const ullint</text>
</a>
</g>
</g>
<!-- Node9&#45;&gt;Node2 -->
<g id="edge9_Node000002_Node000009" class="edge">
<title>Node9&#45;&gt;Node2</title>
<g id="a_edge9_Node000002_Node000009"><a xlink:title=" ">
<path fill="none" stroke="#9a32cd" stroke-dasharray="5,2" d="M377.07,-270.18C413.19,-270.8 466.63,-270.78 513.05,-267 622.11,-258.11 651.07,-259.01 756.3,-229 785.74,-220.6 818.08,-206.19 838.52,-196.39"/>
<polygon fill="#9a32cd" stroke="#9a32cd" points="377.56,-266.69 367.49,-269.99 377.42,-273.69 377.56,-266.69"/>
</a>
</g>
<text text-anchor="middle" x="594.18" y="-267.5" font-family="Helvetica,sans-Serif" font-size="10.00" fill="grey"> m_ullModuleId</text>
</g>
<!-- Node9&#45;&gt;Node10 -->
<g id="edge13_Node000010_Node000009" class="edge">
<title>Node9&#45;&gt;Node10</title>
<g id="a_edge13_Node000010_Node000009"><a xlink:title=" ">
<path fill="none" stroke="#9a32cd" stroke-dasharray="5,2" d="M377.07,-261.69C389.68,-259.52 403.55,-257.14 416.3,-255 456.04,-248.32 500.83,-240.98 535.4,-235.35"/>
<polygon fill="#9a32cd" stroke="#9a32cd" points="376.65,-258.21 367.4,-263.36 377.85,-265.11 376.65,-258.21"/>
</a>
</g>
<text text-anchor="middle" x="464.68" y="-257.5" font-family="Helvetica,sans-Serif" font-size="10.00" fill="grey"> m_ullModuleId</text>
</g>
<!-- Node10&#45;&gt;Node2 -->
<g id="edge10_Node000002_Node000010" class="edge">
<title>Node10&#45;&gt;Node2</title>
<g id="a_edge10_Node000002_Node000010"><a xlink:title=" ">
<path fill="none" stroke="orange" stroke-dasharray="5,2" d="M664.34,-215.53C703.15,-209.65 751.43,-202.34 790.23,-196.46"/>
<polygon fill="orange" stroke="orange" points="664,-212.04 654.63,-217 665.05,-218.96 664,-212.04"/>
</a>
</g>
<text text-anchor="middle" x="715.8" y="-215.5" font-family="Helvetica,sans-Serif" font-size="10.00" fill="grey"> &lt; AEFileReader &gt;</text>
</g>
<!-- Node11 -->
<g id="Node000011" class="node">
<title>Node11</title>
<g id="a_Node000011"><a xlink:title=" ">
<polygon fill="white" stroke="#666666" points="890.05,-58 830.55,-58 830.55,-38 890.05,-38 890.05,-58"/>
<text text-anchor="middle" x="860.3" y="-44.5" font-family="Helvetica,sans-Serif" font-size="10.00">std::string</text>
</a>
</g>
</g>
<!-- Node11&#45;&gt;Node1 -->
<g id="edge14_Node000001_Node000011" class="edge">
<title>Node11&#45;&gt;Node1</title>
<g id="a_edge14_Node000001_Node000011"><a xlink:title=" ">
<path fill="none" stroke="#9a32cd" stroke-dasharray="5,2" d="M901.6,-46.85C935.33,-46.85 984.43,-49.12 1025.8,-60 1038.87,-63.44 1052.62,-69.94 1063.11,-75.58"/>
<polygon fill="#9a32cd" stroke="#9a32cd" points="901.84,-43.35 891.87,-46.92 901.89,-50.35 901.84,-43.35"/>
</a>
</g>
<text text-anchor="middle" x="995.05" y="-62.5" font-family="Helvetica,sans-Serif" font-size="10.00" fill="grey"> m_sFilename</text>
</g>
<!-- Node12 -->
<g id="Node000012" class="node">
<title>Node12</title>
<g id="a_Node000012"><a xlink:title=" ">
<polygon fill="white" stroke="#666666" points="657.3,-58 531.05,-58 531.05,-38 657.3,-38 657.3,-58"/>
<text text-anchor="middle" x="594.18" y="-44.5" font-family="Helvetica,sans-Serif" font-size="10.00">std::basic_string&lt; Char &gt;</text>
</a>
</g>
</g>
<!-- Node12&#45;&gt;Node11 -->
<g id="edge15_Node000011_Node000012" class="edge">
<title>Node12&#45;&gt;Node11</title>
<g id="a_edge15_Node000011_Node000012"><a xlink:title=" ">
<path fill="none" stroke="#63b8ff" d="M669.26,-48C722.71,-48 791.97,-48 830.39,-48"/>
<polygon fill="#63b8ff" stroke="#63b8ff" points="669.28,-44.5 659.28,-48 669.28,-51.5 669.28,-44.5"/>
</a>
</g>
</g>
<!-- Node13 -->
<g id="Node000013" class="node">
<title>Node13</title>
<g id="a_Node000013"><a xlink:title=" ">
<polygon fill="white" stroke="#666666" points="881.8,-20 838.8,-20 838.8,0 881.8,0 881.8,-20"/>
<text text-anchor="middle" x="860.3" y="-6.5" font-family="Helvetica,sans-Serif" font-size="10.00">FILE *</text>
</a>
</g>
</g>
<!-- Node13&#45;&gt;Node1 -->
<g id="edge18_Node000001_Node000013" class="edge">
<title>Node13&#45;&gt;Node1</title>
<g id="a_edge18_Node000001_Node000013"><a xlink:title=" ">
<path fill="none" stroke="#9a32cd" stroke-dasharray="5,2" d="M893.45,-9.08C927.88,-9.33 983.28,-13.4 1025.8,-34 1045.9,-43.74 1063.56,-63.47 1073.16,-75.63"/>
<polygon fill="#9a32cd" stroke="#9a32cd" points="893.7,-5.58 883.72,-9.12 893.73,-12.58 893.7,-5.58"/>
</a>
</g>
<text text-anchor="middle" x="995.05" y="-36.5" font-family="Helvetica,sans-Serif" font-size="10.00" fill="grey"> m_fpFilestr</text>
</g>
</g>
</svg>
