<?xml version="1.0" encoding="UTF-8" standalone="no"?>
<!DOCTYPE svg PUBLIC "-//W3C//DTD SVG 1.1//EN"
 "http://www.w3.org/Graphics/SVG/1.1/DTD/svg11.dtd">
<!-- Generated by graphviz version 10.0.1 (20240210.2158)
 -->
<!-- Title: __AEModuleBase&lt; T &gt; Pages: 1 -->
<!--zoomable 218 -->

<svg id="main" version="1.1" xmlns="http://www.w3.org/2000/svg" xmlns:xlink="http://www.w3.org/1999/xlink" xml:space="preserve" onload="init(evt)">
<style type="text/css"><![CDATA[
.node, .edge {opacity: 0.7;}
.node.selected, .edge.selected {opacity: 1;}
.edge:hover path { stroke: red; }
.edge:hover polygon { stroke: red; fill: red; }
]]></style>

<defs>
  <circle id="rim" cx="0" cy="0" r="7"/>
  <circle id="rim2" cx="0" cy="0" r="3.5"/>
  <g id="zoomPlus">
    <use xlink:href="#rim" fill="#404040"><set attributeName="fill" to="#808080" begin="zoomplus.mouseover" end="zoomplus.mouseout"/></use>
    <path d="M-4,0h8M0,-4v8" fill="none" stroke="white" stroke-width="1.5" pointer-events="none"/>
  </g>
  <g id="zoomMin">
    <use xlink:href="#rim" fill="#404040"><set attributeName="fill" to="#808080" begin="zoomminus.mouseover" end="zoomminus.mouseout"/></use>
    <path d="M-4,0h8" fill="none" stroke="white" stroke-width="1.5" pointer-events="none"/>
  </g>
  <g id="arrowUp" transform="translate(30 24)">
    <use xlink:href="#rim"/>
    <path pointer-events="none" fill="none" stroke="white" stroke-width="1.5" d="M0,-3.0v7 M-2.5,-0.5L0,-3.0L2.5,-0.5"/>
  </g>
  <g id="arrowRight" transform="rotate(90) translate(36 -43)">
    <use xlink:href="#rim"/>
    <path pointer-events="none" fill="none" stroke="white" stroke-width="1.5" d="M0,-3.0v7 M-2.5,-0.5L0,-3.0L2.5,-0.5"/>
  </g>
  <g id="arrowDown" transform="rotate(180) translate(-30 -48)">
    <use xlink:href="#rim"/>
    <path pointer-events="none" fill="none" stroke="white" stroke-width="1.5" d="M0,-3.0v7 M-2.5,-0.5L0,-3.0L2.5,-0.5"/>
  </g>
  <g id="arrowLeft" transform="rotate(270) translate(-36 17)">
    <use xlink:href="#rim"/>
    <path pointer-events="none" fill="none" stroke="white" stroke-width="1.5" d="M0,-3.0v7 M-2.5,-0.5L0,-3.0L2.5,-0.5"/>
  </g>
  <g id="resetDef">
    <use xlink:href="#rim2" fill="#404040"><set attributeName="fill" to="#808080" begin="reset.mouseover" end="reset.mouseout"/></use>
  </g>
</defs>
<script type="application/ecmascript">
var viewWidth = 527;
var viewHeight = 218;
var sectionId = 'dynsection-0';
</script>
<script type="application/ecmascript" xlink:href="../../svg.min.js"/>
<svg id="graph" class="graph">
<g id="viewport">
<title>__AEModuleBase&lt; T &gt;</title>
<!-- Node1 -->
<g id="Node000001" class="node">
<title>Node1</title>
<g id="a_Node000001"><a xlink:title="This is a base class for all the modules in the engine; all basic modules inherit from it.">
<polygon fill="#999999" stroke="#666666" points="117.25,-114 0,-114 0,-94 117.25,-94 117.25,-114"/>
<text text-anchor="middle" x="58.62" y="-100.5" font-family="Helvetica,sans-Serif" font-size="10.00">__AEModuleBase&lt; T &gt;</text>
</a>
</g>
</g>
<!-- Node2 -->
<g id="Node000002" class="node">
<title>Node2</title>
<g id="a_Node000002"><a xlink:href="../../d0/d8a/class_____a_e_module_base.html" target="_top" xlink:title=" ">
<polygon fill="white" stroke="#666666" points="406.25,-210 234.25,-210 234.25,-190 406.25,-190 406.25,-210"/>
<text text-anchor="middle" x="320.25" y="-196.5" font-family="Helvetica,sans-Serif" font-size="10.00">__AEModuleBase&lt; AEFileReader &gt;</text>
</a>
</g>
</g>
<!-- Node1&#45;&gt;Node2 -->
<g id="edge1_Node000001_Node000002" class="edge">
<title>Node1&#45;&gt;Node2</title>
<g id="a_edge1_Node000001_Node000002"><a xlink:title=" ">
<path fill="none" stroke="orange" stroke-dasharray="5,2" d="M77.35,-121.77C91.74,-135.15 113.19,-152.87 135.25,-163 165.9,-177.07 201.84,-185.82 233.79,-191.24"/>
<polygon fill="orange" stroke="orange" points="80.09,-119.55 70.45,-115.15 75.25,-124.6 80.09,-119.55"/>
</a>
</g>
<text text-anchor="middle" x="175.75" y="-189.5" font-family="Helvetica,sans-Serif" font-size="10.00" fill="grey"> &lt; AEFileReader &gt;</text>
</g>
<!-- Node4 -->
<g id="Node000004" class="node">
<title>Node4</title>
<g id="a_Node000004"><a xlink:href="../../d0/d8a/class_____a_e_module_base.html" target="_top" xlink:title=" ">
<polygon fill="white" stroke="#666666" points="404,-172 236.5,-172 236.5,-152 404,-152 404,-172"/>
<text text-anchor="middle" x="320.25" y="-158.5" font-family="Helvetica,sans-Serif" font-size="10.00">__AEModuleBase&lt; AEFileWriter &gt;</text>
</a>
</g>
</g>
<!-- Node1&#45;&gt;Node4 -->
<g id="edge3_Node000001_Node000004" class="edge">
<title>Node1&#45;&gt;Node4</title>
<g id="a_edge3_Node000001_Node000004"><a xlink:title=" ">
<path fill="none" stroke="orange" stroke-dasharray="5,2" d="M95.59,-118.3C108.01,-122.84 122.1,-127.57 135.25,-131 168.64,-139.7 206.09,-146.53 238.45,-151.53"/>
<polygon fill="orange" stroke="orange" points="97.18,-115.16 86.59,-114.92 94.72,-121.71 97.18,-115.16"/>
</a>
</g>
<text text-anchor="middle" x="175.75" y="-149.5" font-family="Helvetica,sans-Serif" font-size="10.00" fill="grey"> &lt; AEFileWriter &gt;</text>
</g>
<!-- Node6 -->
<g id="Node000006" class="node">
<title>Node6</title>
<g id="a_Node000006"><a xlink:href="../../d0/d8a/class_____a_e_module_base.html" target="_top" xlink:title=" ">
<polygon fill="white" stroke="#666666" points="396.88,-134 243.62,-134 243.62,-114 396.88,-114 396.88,-134"/>
<text text-anchor="middle" x="320.25" y="-120.5" font-family="Helvetica,sans-Serif" font-size="10.00">__AEModuleBase&lt; AEFrame &gt;</text>
</a>
</g>
</g>
<!-- Node1&#45;&gt;Node6 -->
<g id="edge5_Node000001_Node000006" class="edge">
<title>Node1&#45;&gt;Node6</title>
<g id="a_edge5_Node000001_Node000006"><a xlink:title=" ">
<path fill="none" stroke="orange" stroke-dasharray="5,2" d="M128.73,-109.32C164.02,-112.04 207.03,-115.35 243.24,-118.15"/>
<polygon fill="orange" stroke="orange" points="129.32,-105.86 119.08,-108.58 128.78,-112.84 129.32,-105.86"/>
</a>
</g>
<text text-anchor="middle" x="175.75" y="-117.5" font-family="Helvetica,sans-Serif" font-size="10.00" fill="grey"> &lt; AEFrame &gt;</text>
</g>
<!-- Node8 -->
<g id="Node000008" class="node">
<title>Node8</title>
<g id="a_Node000008"><a xlink:href="../../d0/d8a/class_____a_e_module_base.html" target="_top" xlink:title=" ">
<polygon fill="white" stroke="#666666" points="405.12,-96 235.38,-96 235.38,-76 405.12,-76 405.12,-96"/>
<text text-anchor="middle" x="320.25" y="-82.5" font-family="Helvetica,sans-Serif" font-size="10.00">__AEModuleBase&lt; AELogParser &gt;</text>
</a>
</g>
</g>
<!-- Node1&#45;&gt;Node8 -->
<g id="edge7_Node000001_Node000008" class="edge">
<title>Node1&#45;&gt;Node8</title>
<g id="a_edge7_Node000001_Node000008"><a xlink:title=" ">
<path fill="none" stroke="orange" stroke-dasharray="5,2" d="M116.6,-91.57C122.87,-90.54 129.18,-89.65 135.25,-89 167.81,-85.53 203.8,-84.36 235.24,-84.2"/>
<polygon fill="orange" stroke="orange" points="116.14,-88.1 106.9,-93.29 117.36,-94.99 116.14,-88.1"/>
</a>
</g>
<text text-anchor="middle" x="175.75" y="-91.5" font-family="Helvetica,sans-Serif" font-size="10.00" fill="grey"> &lt; AELogParser &gt;</text>
</g>
<!-- Node10 -->
<g id="Node000010" class="node">
<title>Node10</title>
<g id="a_Node000010"><a xlink:href="../../d0/d8a/class_____a_e_module_base.html" target="_top" xlink:title=" ">
<polygon fill="white" stroke="#666666" points="397.62,-58 242.88,-58 242.88,-38 397.62,-38 397.62,-58"/>
<text text-anchor="middle" x="320.25" y="-44.5" font-family="Helvetica,sans-Serif" font-size="10.00">__AEModuleBase&lt; AELogger &gt;</text>
</a>
</g>
</g>
<!-- Node1&#45;&gt;Node10 -->
<g id="edge9_Node000001_Node000010" class="edge">
<title>Node1&#45;&gt;Node10</title>
<g id="a_edge9_Node000001_Node000010"><a xlink:title=" ">
<path fill="none" stroke="orange" stroke-dasharray="5,2" d="M86.93,-88.26C100.93,-80.9 118.53,-72.74 135.25,-68 169.72,-58.23 209.07,-53.17 242.51,-50.58"/>
<polygon fill="orange" stroke="orange" points="85.44,-85.08 78.32,-92.93 88.78,-91.24 85.44,-85.08"/>
</a>
</g>
<text text-anchor="middle" x="175.75" y="-70.5" font-family="Helvetica,sans-Serif" font-size="10.00" fill="grey"> &lt; AELogger &gt;</text>
</g>
<!-- Node12 -->
<g id="Node000012" class="node">
<title>Node12</title>
<g id="a_Node000012"><a xlink:href="../../d0/d8a/class_____a_e_module_base.html" target="_top" xlink:title=" ">
<polygon fill="white" stroke="#666666" points="395,-20 245.5,-20 245.5,0 395,0 395,-20"/>
<text text-anchor="middle" x="320.25" y="-6.5" font-family="Helvetica,sans-Serif" font-size="10.00">__AEModuleBase&lt; AETimer &gt;</text>
</a>
</g>
</g>
<!-- Node1&#45;&gt;Node12 -->
<g id="edge11_Node000001_Node000012" class="edge">
<title>Node1&#45;&gt;Node12</title>
<g id="a_edge11_Node000001_Node000012"><a xlink:title=" ">
<path fill="none" stroke="orange" stroke-dasharray="5,2" d="M75.15,-85.16C89.15,-69.56 111.19,-48.19 135.25,-37 169.36,-21.14 210.53,-14.12 245.27,-11.18"/>
<polygon fill="orange" stroke="orange" points="72.77,-82.57 68.87,-92.42 78.06,-87.15 72.77,-82.57"/>
</a>
</g>
<text text-anchor="middle" x="175.75" y="-39.5" font-family="Helvetica,sans-Serif" font-size="10.00" fill="grey"> &lt; AETimer &gt;</text>
</g>
<!-- Node3 -->
<g id="Node000003" class="node">
<title>Node3</title>
<g id="a_Node000003"><a xlink:href="../../dd/dd5/class_a_e_file_reader.html" target="_top" xlink:title="ArtyK&#39;s Engine File Reader; umm, it reads data from the given file.">
<polygon fill="white" stroke="#666666" points="519.25,-210 443.25,-210 443.25,-190 519.25,-190 519.25,-210"/>
<text text-anchor="middle" x="481.25" y="-196.5" font-family="Helvetica,sans-Serif" font-size="10.00">AEFileReader</text>
</a>
</g>
</g>
<!-- Node2&#45;&gt;Node3 -->
<g id="edge2_Node000002_Node000003" class="edge">
<title>Node2&#45;&gt;Node3</title>
<g id="a_edge2_Node000002_Node000003"><a xlink:title=" ">
<path fill="none" stroke="#63b8ff" d="M417.69,-200C426.56,-200 435.13,-200 442.94,-200"/>
<polygon fill="#63b8ff" stroke="#63b8ff" points="417.85,-196.5 407.85,-200 417.85,-203.5 417.85,-196.5"/>
</a>
</g>
</g>
<!-- Node5 -->
<g id="Node000005" class="node">
<title>Node5</title>
<g id="a_Node000005"><a xlink:href="../../db/d15/class_a_e_file_writer.html" target="_top" xlink:title="ArtyK&#39;s Engine File Writer; umm, it writes data to given file.">
<polygon fill="white" stroke="#666666" points="517,-172 445.5,-172 445.5,-152 517,-152 517,-172"/>
<text text-anchor="middle" x="481.25" y="-158.5" font-family="Helvetica,sans-Serif" font-size="10.00">AEFileWriter</text>
</a>
</g>
</g>
<!-- Node4&#45;&gt;Node5 -->
<g id="edge4_Node000004_Node000005" class="edge">
<title>Node4&#45;&gt;Node5</title>
<g id="a_edge4_Node000004_Node000005"><a xlink:title=" ">
<path fill="none" stroke="#63b8ff" d="M415.9,-162C426.33,-162 436.4,-162 445.36,-162"/>
<polygon fill="#63b8ff" stroke="#63b8ff" points="415.99,-158.5 405.99,-162 415.99,-165.5 415.99,-158.5"/>
</a>
</g>
</g>
<!-- Node7 -->
<g id="Node000007" class="node">
<title>Node7</title>
<g id="a_Node000007"><a xlink:href="../../df/dd7/class_a_e_frame.html" target="_top" xlink:title="This is the ArtyK&#39;s Engine&#39;s frame delay module – it allows to create precise delays for game loops.">
<polygon fill="white" stroke="#666666" points="509.88,-134 452.62,-134 452.62,-114 509.88,-114 509.88,-134"/>
<text text-anchor="middle" x="481.25" y="-120.5" font-family="Helvetica,sans-Serif" font-size="10.00">AEFrame</text>
</a>
</g>
</g>
<!-- Node6&#45;&gt;Node7 -->
<g id="edge6_Node000006_Node000007" class="edge">
<title>Node6&#45;&gt;Node7</title>
<g id="a_edge6_Node000006_Node000007"><a xlink:title=" ">
<path fill="none" stroke="#63b8ff" d="M408.09,-124C424.03,-124 439.58,-124 452.13,-124"/>
<polygon fill="#63b8ff" stroke="#63b8ff" points="408.54,-120.5 398.54,-124 408.54,-127.5 408.54,-120.5"/>
</a>
</g>
</g>
<!-- Node9 -->
<g id="Node000009" class="node">
<title>Node9</title>
<g id="a_Node000009"><a xlink:href="../../d8/d52/class_a_e_log_parser.html" target="_top" xlink:title="ArtyK&#39;s Engine&#39;s Log Parser; it parses the log files that AELogger writes.">
<polygon fill="white" stroke="#666666" points="518.12,-96 444.38,-96 444.38,-76 518.12,-76 518.12,-96"/>
<text text-anchor="middle" x="481.25" y="-82.5" font-family="Helvetica,sans-Serif" font-size="10.00">AELogParser</text>
</a>
</g>
</g>
<!-- Node8&#45;&gt;Node9 -->
<g id="edge8_Node000008_Node000009" class="edge">
<title>Node8&#45;&gt;Node9</title>
<g id="a_edge8_Node000008_Node000009"><a xlink:title=" ">
<path fill="none" stroke="#63b8ff" d="M416.77,-86C426.35,-86 435.6,-86 443.95,-86"/>
<polygon fill="#63b8ff" stroke="#63b8ff" points="416.92,-82.5 406.92,-86 416.92,-89.5 416.92,-82.5"/>
</a>
</g>
</g>
<!-- Node11 -->
<g id="Node000011" class="node">
<title>Node11</title>
<g id="a_Node000011"><a xlink:href="../../d8/dfc/class_a_e_logger.html" target="_top" xlink:title="The ArtyK&#39;s Engine&#39;s Logger module – it manages the writing to the log files.">
<polygon fill="white" stroke="#666666" points="510.62,-58 451.88,-58 451.88,-38 510.62,-38 510.62,-58"/>
<text text-anchor="middle" x="481.25" y="-44.5" font-family="Helvetica,sans-Serif" font-size="10.00">AELogger</text>
</a>
</g>
</g>
<!-- Node10&#45;&gt;Node11 -->
<g id="edge10_Node000010_Node000011" class="edge">
<title>Node10&#45;&gt;Node11</title>
<g id="a_edge10_Node000010_Node000011"><a xlink:title=" ">
<path fill="none" stroke="#63b8ff" d="M409.11,-48C424.38,-48 439.24,-48 451.39,-48"/>
<polygon fill="#63b8ff" stroke="#63b8ff" points="409.47,-44.5 399.47,-48 409.47,-51.5 409.47,-44.5"/>
</a>
</g>
</g>
<!-- Node13 -->
<g id="Node000013" class="node">
<title>Node13</title>
<g id="a_Node000013"><a xlink:href="../../da/d62/class_a_e_timer.html" target="_top" xlink:title="ArtyK&#39;s Engine Timer – the engine&#39;s internal timer for, um, timing events or anything,...">
<polygon fill="white" stroke="#666666" points="508,-20 454.5,-20 454.5,0 508,0 508,-20"/>
<text text-anchor="middle" x="481.25" y="-6.5" font-family="Helvetica,sans-Serif" font-size="10.00">AETimer</text>
</a>
</g>
</g>
<!-- Node12&#45;&gt;Node13 -->
<g id="edge12_Node000012_Node000013" class="edge">
<title>Node12&#45;&gt;Node13</title>
<g id="a_edge12_Node000012_Node000013"><a xlink:title=" ">
<path fill="none" stroke="#63b8ff" d="M406.55,-10C423.84,-10 440.77,-10 454.03,-10"/>
<polygon fill="#63b8ff" stroke="#63b8ff" points="406.68,-6.5 396.68,-10 406.68,-13.5 406.68,-6.5"/>
</a>
</g>
</g>
</g>
</svg>

<g id="navigator" transform="translate(0 0)" fill="#404254">
  <rect fill="#f2f5e9" fill-opacity="0.5" stroke="#606060" stroke-width=".5" x="0" y="0" width="60" height="60"/>
  <use id="zoomplus" xlink:href="#zoomPlus" x="17" y="9" onmousedown="handleZoom(evt,'in')"/>
  <use id="zoomminus" xlink:href="#zoomMin" x="42" y="9" onmousedown="handleZoom(evt,'out')"/>
  <use id="reset" xlink:href="#resetDef" x="30" y="36" onmousedown="handleReset()"/>
   <use id="arrowup" xlink:href="#arrowUp" x="0" y="0" onmousedown="handlePan(0,-1)"/>
  <use id="arrowright" xlink:href="#arrowRight" x="0" y="0" onmousedown="handlePan(1,0)"/>
  <use id="arrowdown" xlink:href="#arrowDown" x="0" y="0" onmousedown="handlePan(0,1)"/>
  <use id="arrowleft" xlink:href="#arrowLeft" x="0" y="0" onmousedown="handlePan(-1,0)"/>
</g>
<svg viewBox="0 0 15 15" width="100%" height="30px" preserveAspectRatio="xMaxYMin meet">
 <g id="arrow_out" transform="scale(0.3 0.3)">
  <a xlink:href="class_____a_e_module_base__inherit__graph_org.svg" target="_base">
   <rect id="button" ry="5" rx="5" y="6" x="6" height="38" width="38"
        fill="#f2f5e9" fill-opacity="0.5" stroke="#606060" stroke-width="1.0"/>
   <path id="arrow"
     d="M 11.500037,31.436501 C 11.940474,20.09759 22.043105,11.32322 32.158766,21.979434 L 37.068811,17.246167 C 37.068811,17.246167 37.088388,32 37.088388,32 L 22.160133,31.978069 C 22.160133,31.978069 26.997745,27.140456 26.997745,27.140456 C 18.528582,18.264221 13.291696,25.230495 11.500037,31.436501 z"
     style="fill:#404040;"/>
  </a>
 </g>
</svg>

<style type='text/css'>
<![CDATA[
[data-mouse-over-selected='false'] { opacity: 0.7; }
[data-mouse-over-selected='true']  { opacity: 1.0; }
]]>
</style>
<script type="application/ecmascript"><![CDATA[
document.addEventListener('DOMContentLoaded', (event) => {
  highlightEdges();
  highlightAdjacentNodes();
});
]]></script>
</svg>
