<?xml version="1.0" encoding="UTF-8" standalone="no"?>
<!DOCTYPE svg PUBLIC "-//W3C//DTD SVG 1.1//EN"
 "http://www.w3.org/Graphics/SVG/1.1/DTD/svg11.dtd">
<!-- Generated by graphviz version 10.0.1 (20240210.2158)
 -->
<!-- Title: AEFileReader/include/AEFileReader.hpp Pages: 1 -->
<svg width="388pt" height="140pt"
 viewBox="0.00 0.00 387.62 140.00" xmlns="http://www.w3.org/2000/svg" xmlns:xlink="http://www.w3.org/1999/xlink">
<g id="graph0" class="graph" transform="scale(1 1) rotate(0) translate(4 136)">
<title>AEFileReader/include/AEFileReader.hpp</title>
<!-- Node1 -->
<g id="Node000001" class="node">
<title>Node1</title>
<g id="a_Node000001"><a xlink:title=" ">
<polygon fill="#999999" stroke="#666666" points="281.88,-132 90.38,-132 90.38,-112 281.88,-112 281.88,-132"/>
<text text-anchor="middle" x="186.12" y="-118.5" font-family="Helvetica,sans-Serif" font-size="10.00">AEFileReader/include/AEFileReader.hpp</text>
</a>
</g>
</g>
<!-- Node2 -->
<g id="Node000002" class="node">
<title>Node2</title>
<g id="a_Node000002"><a xlink:href="../../d9/d6e/_a_e_file_reader_8cpp.html" target="_top" xlink:title=" ">
<polygon fill="white" stroke="#666666" points="174.25,-76 0,-76 0,-56 174.25,-56 174.25,-76"/>
<text text-anchor="middle" x="87.12" y="-62.5" font-family="Helvetica,sans-Serif" font-size="10.00">AEFileReader/src/AEFileReader.cpp</text>
</a>
</g>
</g>
<!-- Node1&#45;&gt;Node2 -->
<g id="edge1_Node000001_Node000002" class="edge">
<title>Node1&#45;&gt;Node2</title>
<g id="a_edge1_Node000001_Node000002"><a xlink:title=" ">
<path fill="none" stroke="#63b8ff" d="M159.26,-106.35C141.84,-96.84 119.64,-84.74 104.5,-76.48"/>
<polygon fill="#63b8ff" stroke="#63b8ff" points="157.1,-109.15 167.55,-110.87 160.45,-103.01 157.1,-109.15"/>
</a>
</g>
</g>
<!-- Node3 -->
<g id="Node000003" class="node">
<title>Node3</title>
<g id="a_Node000003"><a xlink:href="../../d0/dab/_a_e_log_parser_8hpp.html" target="_top" xlink:title=" ">
<polygon fill="white" stroke="#666666" points="379.62,-76 192.62,-76 192.62,-56 379.62,-56 379.62,-76"/>
<text text-anchor="middle" x="286.12" y="-62.5" font-family="Helvetica,sans-Serif" font-size="10.00">AELogParser/include/AELogParser.hpp</text>
</a>
</g>
</g>
<!-- Node1&#45;&gt;Node3 -->
<g id="edge2_Node000001_Node000003" class="edge">
<title>Node1&#45;&gt;Node3</title>
<g id="a_edge2_Node000001_Node000003"><a xlink:title=" ">
<path fill="none" stroke="#63b8ff" d="M213.26,-106.35C230.86,-96.84 253.28,-84.74 268.57,-76.48"/>
<polygon fill="#63b8ff" stroke="#63b8ff" points="212.01,-103.04 204.88,-110.87 215.34,-109.2 212.01,-103.04"/>
</a>
</g>
</g>
<!-- Node4 -->
<g id="Node000004" class="node">
<title>Node4</title>
<g id="a_Node000004"><a xlink:href="../../d2/d77/_a_e_log_parser_8cpp.html" target="_top" xlink:title=" ">
<polygon fill="white" stroke="#666666" points="371,-20 201.25,-20 201.25,0 371,0 371,-20"/>
<text text-anchor="middle" x="286.12" y="-6.5" font-family="Helvetica,sans-Serif" font-size="10.00">AELogParser/src/AELogParser.cpp</text>
</a>
</g>
</g>
<!-- Node3&#45;&gt;Node4 -->
<g id="edge3_Node000003_Node000004" class="edge">
<title>Node3&#45;&gt;Node4</title>
<g id="a_edge3_Node000003_Node000004"><a xlink:title=" ">
<path fill="none" stroke="#63b8ff" d="M286.12,-44.13C286.12,-35.9 286.12,-26.85 286.12,-20.3"/>
<polygon fill="#63b8ff" stroke="#63b8ff" points="282.63,-44.08 286.13,-54.08 289.63,-44.08 282.63,-44.08"/>
</a>
</g>
</g>
</g>
</svg>
