<?xml version="1.0" encoding="UTF-8" standalone="no"?>
<!DOCTYPE svg PUBLIC "-//W3C//DTD SVG 1.1//EN"
 "http://www.w3.org/Graphics/SVG/1.1/DTD/svg11.dtd">
<!-- Generated by graphviz version 10.0.1 (20240210.2158)
 -->
<!-- Title: AEMisc/include/AEUtilsMacros.hpp Pages: 1 -->
<svg width="920pt" height="252pt"
 viewBox="0.00 0.00 919.62 252.00" xmlns="http://www.w3.org/2000/svg" xmlns:xlink="http://www.w3.org/1999/xlink">
<g id="graph0" class="graph" transform="scale(1 1) rotate(0) translate(4 248)">
<title>AEMisc/include/AEUtilsMacros.hpp</title>
<!-- Node1 -->
<g id="Node000001" class="node">
<title>Node1</title>
<g id="a_Node000001"><a xlink:title="This file contains the engine&#39;s macros for trivial tasks.">
<polygon fill="#999999" stroke="#666666" points="611.25,-244 440,-244 440,-224 611.25,-224 611.25,-244"/>
<text text-anchor="middle" x="525.62" y="-230.5" font-family="Helvetica,sans-Serif" font-size="10.00">AEMisc/include/AEUtilsMacros.hpp</text>
</a>
</g>
</g>
<!-- Node2 -->
<g id="Node000002" class="node">
<title>Node2</title>
<g id="a_Node000002"><a xlink:href="../../de/de8/_a_e_utils_8hpp.html" target="_top" xlink:title="This file contains the engine&#39;s usefull utilities for trivial tasks.">
<polygon fill="white" stroke="#666666" points="500.12,-188 361.12,-188 361.12,-168 500.12,-168 500.12,-188"/>
<text text-anchor="middle" x="430.62" y="-174.5" font-family="Helvetica,sans-Serif" font-size="10.00">AEMisc/include/AEUtils.hpp</text>
</a>
</g>
</g>
<!-- Node1&#45;&gt;Node2 -->
<g id="edge1_Node000001_Node000002" class="edge">
<title>Node1&#45;&gt;Node2</title>
<g id="a_edge1_Node000001_Node000002"><a xlink:title=" ">
<path fill="none" stroke="#63b8ff" d="M499.38,-218.08C482.73,-208.62 461.69,-196.66 447.3,-188.48"/>
<polygon fill="#63b8ff" stroke="#63b8ff" points="497.34,-220.95 507.76,-222.85 500.8,-214.86 497.34,-220.95"/>
</a>
</g>
</g>
<!-- Node12 -->
<g id="Node000012" class="node">
<title>Node12</title>
<g id="a_Node000012"><a xlink:href="../../d7/d7f/_a_e_module_base_8hpp.html" target="_top" xlink:title="This file contains the engine&#39;s basic module template.">
<polygon fill="white" stroke="#666666" points="724.88,-188 518.38,-188 518.38,-168 724.88,-168 724.88,-188"/>
<text text-anchor="middle" x="621.62" y="-174.5" font-family="Helvetica,sans-Serif" font-size="10.00">AEModuleBase/include/AEModuleBase.hpp</text>
</a>
</g>
</g>
<!-- Node1&#45;&gt;Node12 -->
<g id="edge13_Node000001_Node000012" class="edge">
<title>Node1&#45;&gt;Node12</title>
<g id="a_edge13_Node000001_Node000012"><a xlink:title=" ">
<path fill="none" stroke="#63b8ff" d="M552.15,-218.08C568.97,-208.62 590.23,-196.66 604.77,-188.48"/>
<polygon fill="#63b8ff" stroke="#63b8ff" points="550.67,-214.9 543.67,-222.85 554.1,-221 550.67,-214.9"/>
</a>
</g>
</g>
<!-- Node3 -->
<g id="Node000003" class="node">
<title>Node3</title>
<g id="a_Node000003"><a xlink:href="../../dc/dc6/_a_e_log_entry_8hpp.html" target="_top" xlink:title=" ">
<polygon fill="white" stroke="#666666" points="529.38,-132 331.88,-132 331.88,-112 529.38,-112 529.38,-132"/>
<text text-anchor="middle" x="430.62" y="-118.5" font-family="Helvetica,sans-Serif" font-size="10.00">AECustomTypes/include/AELogEntry.hpp</text>
</a>
</g>
</g>
<!-- Node2&#45;&gt;Node3 -->
<g id="edge2_Node000002_Node000003" class="edge">
<title>Node2&#45;&gt;Node3</title>
<g id="a_edge2_Node000002_Node000003"><a xlink:title=" ">
<path fill="none" stroke="#63b8ff" d="M430.62,-156.13C430.62,-147.9 430.62,-138.85 430.62,-132.3"/>
<polygon fill="#63b8ff" stroke="#63b8ff" points="427.13,-156.08 430.63,-166.08 434.13,-156.08 427.13,-156.08"/>
</a>
</g>
</g>
<!-- Node8 -->
<g id="Node000008" class="node">
<title>Node8</title>
<g id="a_Node000008"><a xlink:href="../../d3/dda/_a_e_file_reader_8hpp.html" target="_top" xlink:title=" ">
<polygon fill="white" stroke="#666666" points="739.38,-132 547.88,-132 547.88,-112 739.38,-112 739.38,-132"/>
<text text-anchor="middle" x="643.62" y="-118.5" font-family="Helvetica,sans-Serif" font-size="10.00">AEFileReader/include/AEFileReader.hpp</text>
</a>
</g>
</g>
<!-- Node2&#45;&gt;Node8 -->
<g id="edge7_Node000002_Node000008" class="edge">
<title>Node2&#45;&gt;Node8</title>
<g id="a_edge7_Node000002_Node000008"><a xlink:title=" ">
<path fill="none" stroke="#63b8ff" d="M478.7,-164.81C517.31,-155.02 570.77,-141.47 606.23,-132.48"/>
<polygon fill="#63b8ff" stroke="#63b8ff" points="478.03,-161.37 469.19,-167.22 479.75,-168.16 478.03,-161.37"/>
</a>
</g>
</g>
<!-- Node10 -->
<g id="Node000010" class="node">
<title>Node10</title>
<g id="a_Node000010"><a xlink:href="../../db/da4/_a_e_file_writer_8hpp.html" target="_top" xlink:title=" ">
<polygon fill="white" stroke="#666666" points="313.88,-132 131.38,-132 131.38,-112 313.88,-112 313.88,-132"/>
<text text-anchor="middle" x="222.62" y="-118.5" font-family="Helvetica,sans-Serif" font-size="10.00">AEFileWriter/include/AEFileWriter.hpp</text>
</a>
</g>
</g>
<!-- Node2&#45;&gt;Node10 -->
<g id="edge10_Node000002_Node000010" class="edge">
<title>Node2&#45;&gt;Node10</title>
<g id="a_edge10_Node000002_Node000010"><a xlink:title=" ">
<path fill="none" stroke="#63b8ff" d="M383.68,-164.81C345.97,-155.02 293.77,-141.47 259.14,-132.48"/>
<polygon fill="#63b8ff" stroke="#63b8ff" points="382.37,-168.09 392.93,-167.21 384.13,-161.31 382.37,-168.09"/>
</a>
</g>
</g>
<!-- Node4 -->
<g id="Node000004" class="node">
<title>Node4</title>
<g id="a_Node000004"><a xlink:href="../../d0/dab/_a_e_log_parser_8hpp.html" target="_top" xlink:title=" ">
<polygon fill="white" stroke="#666666" points="545.12,-76 358.12,-76 358.12,-56 545.12,-56 545.12,-76"/>
<text text-anchor="middle" x="451.62" y="-62.5" font-family="Helvetica,sans-Serif" font-size="10.00">AELogParser/include/AELogParser.hpp</text>
</a>
</g>
</g>
<!-- Node3&#45;&gt;Node4 -->
<g id="edge3_Node000003_Node000004" class="edge">
<title>Node3&#45;&gt;Node4</title>
<g id="a_edge3_Node000003_Node000004"><a xlink:title=" ">
<path fill="none" stroke="#63b8ff" d="M438.4,-101C441.69,-92.54 445.37,-83.08 448.01,-76.3"/>
<polygon fill="#63b8ff" stroke="#63b8ff" points="435.19,-99.59 434.83,-110.18 441.72,-102.13 435.19,-99.59"/>
</a>
</g>
</g>
<!-- Node6 -->
<g id="Node000006" class="node">
<title>Node6</title>
<g id="a_Node000006"><a xlink:href="../../d4/d9f/_a_e_logger_8hpp.html" target="_top" xlink:title=" ">
<polygon fill="white" stroke="#666666" points="340.12,-76 183.12,-76 183.12,-56 340.12,-56 340.12,-76"/>
<text text-anchor="middle" x="261.62" y="-62.5" font-family="Helvetica,sans-Serif" font-size="10.00">AELogger/include/AELogger.hpp</text>
</a>
</g>
</g>
<!-- Node3&#45;&gt;Node6 -->
<g id="edge5_Node000003_Node000006" class="edge">
<title>Node3&#45;&gt;Node6</title>
<g id="a_edge5_Node000003_Node000006"><a xlink:title=" ">
<path fill="none" stroke="#63b8ff" d="M390.5,-108.18C360.03,-98.44 318.83,-85.28 291.29,-76.48"/>
<polygon fill="#63b8ff" stroke="#63b8ff" points="389.15,-111.42 399.75,-111.13 391.29,-104.76 389.15,-111.42"/>
</a>
</g>
</g>
<!-- Node5 -->
<g id="Node000005" class="node">
<title>Node5</title>
<g id="a_Node000005"><a xlink:href="../../d2/d77/_a_e_log_parser_8cpp.html" target="_top" xlink:title=" ">
<polygon fill="white" stroke="#666666" points="536.5,-20 366.75,-20 366.75,0 536.5,0 536.5,-20"/>
<text text-anchor="middle" x="451.62" y="-6.5" font-family="Helvetica,sans-Serif" font-size="10.00">AELogParser/src/AELogParser.cpp</text>
</a>
</g>
</g>
<!-- Node4&#45;&gt;Node5 -->
<g id="edge4_Node000004_Node000005" class="edge">
<title>Node4&#45;&gt;Node5</title>
<g id="a_edge4_Node000004_Node000005"><a xlink:title=" ">
<path fill="none" stroke="#63b8ff" d="M451.62,-44.13C451.62,-35.9 451.62,-26.85 451.62,-20.3"/>
<polygon fill="#63b8ff" stroke="#63b8ff" points="448.13,-44.08 451.63,-54.08 455.13,-44.08 448.13,-44.08"/>
</a>
</g>
</g>
<!-- Node7 -->
<g id="Node000007" class="node">
<title>Node7</title>
<g id="a_Node000007"><a xlink:href="../../db/da0/_a_e_logger_8cpp.html" target="_top" xlink:title=" ">
<polygon fill="white" stroke="#666666" points="331.5,-20 191.75,-20 191.75,0 331.5,0 331.5,-20"/>
<text text-anchor="middle" x="261.62" y="-6.5" font-family="Helvetica,sans-Serif" font-size="10.00">AELogger/src/AELogger.cpp</text>
</a>
</g>
</g>
<!-- Node6&#45;&gt;Node7 -->
<g id="edge6_Node000006_Node000007" class="edge">
<title>Node6&#45;&gt;Node7</title>
<g id="a_edge6_Node000006_Node000007"><a xlink:title=" ">
<path fill="none" stroke="#63b8ff" d="M261.62,-44.13C261.62,-35.9 261.62,-26.85 261.62,-20.3"/>
<polygon fill="#63b8ff" stroke="#63b8ff" points="258.13,-44.08 261.63,-54.08 265.13,-44.08 258.13,-44.08"/>
</a>
</g>
</g>
<!-- Node8&#45;&gt;Node4 -->
<g id="edge9_Node000008_Node000004" class="edge">
<title>Node8&#45;&gt;Node4</title>
<g id="a_edge9_Node000008_Node000004"><a xlink:title=" ">
<path fill="none" stroke="#63b8ff" d="M599.39,-108.56C564.66,-98.79 517.02,-85.39 485.33,-76.48"/>
<polygon fill="#63b8ff" stroke="#63b8ff" points="598.15,-111.85 608.72,-111.18 600.05,-105.11 598.15,-111.85"/>
</a>
</g>
</g>
<!-- Node9 -->
<g id="Node000009" class="node">
<title>Node9</title>
<g id="a_Node000009"><a xlink:href="../../d9/d6e/_a_e_file_reader_8cpp.html" target="_top" xlink:title=" ">
<polygon fill="white" stroke="#666666" points="737.75,-76 563.5,-76 563.5,-56 737.75,-56 737.75,-76"/>
<text text-anchor="middle" x="650.62" y="-62.5" font-family="Helvetica,sans-Serif" font-size="10.00">AEFileReader/src/AEFileReader.cpp</text>
</a>
</g>
</g>
<!-- Node8&#45;&gt;Node9 -->
<g id="edge8_Node000008_Node000009" class="edge">
<title>Node8&#45;&gt;Node9</title>
<g id="a_edge8_Node000008_Node000009"><a xlink:title=" ">
<path fill="none" stroke="#63b8ff" d="M646.29,-100.43C647.37,-92.11 648.56,-82.93 649.42,-76.3"/>
<polygon fill="#63b8ff" stroke="#63b8ff" points="642.85,-99.73 645.04,-110.09 649.8,-100.63 642.85,-99.73"/>
</a>
</g>
</g>
<!-- Node10&#45;&gt;Node6 -->
<g id="edge12_Node000010_Node000006" class="edge">
<title>Node10&#45;&gt;Node6</title>
<g id="a_edge12_Node000010_Node000006"><a xlink:title=" ">
<path fill="none" stroke="#63b8ff" d="M236.03,-102.44C242.4,-93.62 249.73,-83.47 254.91,-76.3"/>
<polygon fill="#63b8ff" stroke="#63b8ff" points="233.32,-100.21 230.3,-110.37 239,-104.31 233.32,-100.21"/>
</a>
</g>
</g>
<!-- Node11 -->
<g id="Node000011" class="node">
<title>Node11</title>
<g id="a_Node000011"><a xlink:href="../../d0/d56/_a_e_file_writer_8cpp.html" target="_top" xlink:title=" ">
<polygon fill="white" stroke="#666666" points="165.25,-76 0,-76 0,-56 165.25,-56 165.25,-76"/>
<text text-anchor="middle" x="82.62" y="-62.5" font-family="Helvetica,sans-Serif" font-size="10.00">AEFileWriter/src/AEFileWriter.cpp</text>
</a>
</g>
</g>
<!-- Node10&#45;&gt;Node11 -->
<g id="edge11_Node000010_Node000011" class="edge">
<title>Node10&#45;&gt;Node11</title>
<g id="a_edge11_Node000010_Node000011"><a xlink:title=" ">
<path fill="none" stroke="#63b8ff" d="M187.71,-107.53C162.65,-97.87 129.51,-85.08 107.2,-76.48"/>
<polygon fill="#63b8ff" stroke="#63b8ff" points="186.24,-110.72 196.83,-111.05 188.76,-104.18 186.24,-110.72"/>
</a>
</g>
</g>
<!-- Node12&#45;&gt;Node3 -->
<g id="edge14_Node000012_Node000003" class="edge">
<title>Node12&#45;&gt;Node3</title>
<g id="a_edge14_Node000012_Node000003"><a xlink:title=" ">
<path fill="none" stroke="#63b8ff" d="M577.62,-164.56C543.07,-154.79 495.68,-141.39 464.15,-132.48"/>
<polygon fill="#63b8ff" stroke="#63b8ff" points="576.32,-167.83 586.9,-167.18 578.23,-161.09 576.32,-167.83"/>
</a>
</g>
</g>
<!-- Node12&#45;&gt;Node8 -->
<g id="edge15_Node000012_Node000008" class="edge">
<title>Node12&#45;&gt;Node8</title>
<g id="a_edge15_Node000012_Node000008"><a xlink:title=" ">
<path fill="none" stroke="#63b8ff" d="M629.77,-157C633.22,-148.54 637.07,-139.08 639.84,-132.3"/>
<polygon fill="#63b8ff" stroke="#63b8ff" points="626.56,-155.61 626.03,-166.19 633.04,-158.25 626.56,-155.61"/>
</a>
</g>
</g>
<!-- Node12&#45;&gt;Node10 -->
<g id="edge16_Node000012_Node000010" class="edge">
<title>Node12&#45;&gt;Node10</title>
<g id="a_edge16_Node000012_Node000010"><a xlink:title=" ">
<path fill="none" stroke="#63b8ff" d="M540.26,-165.99C467.39,-156.13 361.63,-141.81 292.5,-132.46"/>
<polygon fill="#63b8ff" stroke="#63b8ff" points="539.79,-169.46 550.17,-167.33 540.73,-162.52 539.79,-169.46"/>
</a>
</g>
</g>
<!-- Node13 -->
<g id="Node000013" class="node">
<title>Node13</title>
<g id="a_Node000013"><a xlink:href="../../de/d72/_a_e_frame_8hpp.html" target="_top" xlink:title=" ">
<polygon fill="white" stroke="#666666" points="911.62,-132 757.62,-132 757.62,-112 911.62,-112 911.62,-132"/>
<text text-anchor="middle" x="834.62" y="-118.5" font-family="Helvetica,sans-Serif" font-size="10.00">AEFrame/include/AEFrame.hpp</text>
</a>
</g>
</g>
<!-- Node12&#45;&gt;Node13 -->
<g id="edge17_Node000012_Node000013" class="edge">
<title>Node12&#45;&gt;Node13</title>
<g id="a_edge17_Node000012_Node000013"><a xlink:title=" ">
<path fill="none" stroke="#63b8ff" d="M669.7,-164.81C708.31,-155.02 761.77,-141.47 797.23,-132.48"/>
<polygon fill="#63b8ff" stroke="#63b8ff" points="669.03,-161.37 660.19,-167.22 670.75,-168.16 669.03,-161.37"/>
</a>
</g>
</g>
<!-- Node14 -->
<g id="Node000014" class="node">
<title>Node14</title>
<g id="a_Node000014"><a xlink:href="../../dc/dc6/_a_e_timer_8hpp.html" target="_top" xlink:title=" ">
<polygon fill="white" stroke="#666666" points="907.88,-76 761.38,-76 761.38,-56 907.88,-56 907.88,-76"/>
<text text-anchor="middle" x="834.62" y="-62.5" font-family="Helvetica,sans-Serif" font-size="10.00">AETimer/include/AETimer.hpp</text>
</a>
</g>
</g>
<!-- Node13&#45;&gt;Node14 -->
<g id="edge18_Node000013_Node000014" class="edge">
<title>Node13&#45;&gt;Node14</title>
<g id="a_edge18_Node000013_Node000014"><a xlink:title=" ">
<path fill="none" stroke="#63b8ff" d="M834.62,-100.13C834.62,-91.9 834.62,-82.85 834.62,-76.3"/>
<polygon fill="#63b8ff" stroke="#63b8ff" points="831.13,-100.08 834.63,-110.08 838.13,-100.08 831.13,-100.08"/>
</a>
</g>
</g>
</g>
</svg>
