<?xml version="1.0" encoding="UTF-8" standalone="no"?>
<!DOCTYPE svg PUBLIC "-//W3C//DTD SVG 1.1//EN"
 "http://www.w3.org/Graphics/SVG/1.1/DTD/svg11.dtd">
<!-- Generated by graphviz version 10.0.1 (20240210.2158)
 -->
<!-- Title: AEMisc/include/AEUtilsMacros.hpp Pages: 1 -->
<svg width="746pt" height="252pt"
 viewBox="0.00 0.00 745.75 252.00" xmlns="http://www.w3.org/2000/svg" xmlns:xlink="http://www.w3.org/1999/xlink">
<g id="graph0" class="graph" transform="scale(1 1) rotate(0) translate(4 248)">
<title>AEMisc/include/AEUtilsMacros.hpp</title>
<!-- Node1 -->
<g id="Node000001" class="node">
<title>Node1</title>
<g id="a_Node000001"><a xlink:title="This file contains the engine&#39;s usefull macros for trivial tasks.">
<polygon fill="#999999" stroke="#666666" points="458.75,-244 287.5,-244 287.5,-224 458.75,-224 458.75,-244"/>
<text text-anchor="middle" x="373.12" y="-230.5" font-family="Helvetica,sans-Serif" font-size="10.00">AEMisc/include/AEUtilsMacros.hpp</text>
</a>
</g>
</g>
<!-- Node2 -->
<g id="Node000002" class="node">
<title>Node2</title>
<g id="a_Node000002"><a xlink:href="../../de/de8/_a_e_utils_8hpp.html" target="_top" xlink:title="This file contains the engine&#39;s usefull utilities for trivial tasks.">
<polygon fill="white" stroke="#666666" points="442.62,-188 303.62,-188 303.62,-168 442.62,-168 442.62,-188"/>
<text text-anchor="middle" x="373.12" y="-174.5" font-family="Helvetica,sans-Serif" font-size="10.00">AEMisc/include/AEUtils.hpp</text>
</a>
</g>
</g>
<!-- Node1&#45;&gt;Node2 -->
<g id="edge1_Node000001_Node000002" class="edge">
<title>Node1&#45;&gt;Node2</title>
<g id="a_edge1_Node000001_Node000002"><a xlink:title=" ">
<path fill="none" stroke="#63b8ff" d="M373.12,-212.13C373.12,-203.9 373.12,-194.85 373.12,-188.3"/>
<polygon fill="#63b8ff" stroke="#63b8ff" points="369.63,-212.08 373.13,-222.08 376.63,-212.08 369.63,-212.08"/>
</a>
</g>
</g>
<!-- Node3 -->
<g id="Node000003" class="node">
<title>Node3</title>
<g id="a_Node000003"><a xlink:href="../../dc/dc6/_a_e_log_entry_8hpp.html" target="_top" xlink:title=" ">
<polygon fill="white" stroke="#666666" points="471.88,-132 274.38,-132 274.38,-112 471.88,-112 471.88,-132"/>
<text text-anchor="middle" x="373.12" y="-118.5" font-family="Helvetica,sans-Serif" font-size="10.00">AECustomTypes/include/AELogEntry.hpp</text>
</a>
</g>
</g>
<!-- Node2&#45;&gt;Node3 -->
<g id="edge2_Node000002_Node000003" class="edge">
<title>Node2&#45;&gt;Node3</title>
<g id="a_edge2_Node000002_Node000003"><a xlink:title=" ">
<path fill="none" stroke="#63b8ff" d="M373.12,-156.13C373.12,-147.9 373.12,-138.85 373.12,-132.3"/>
<polygon fill="#63b8ff" stroke="#63b8ff" points="369.63,-156.08 373.13,-166.08 376.63,-156.08 369.63,-156.08"/>
</a>
</g>
</g>
<!-- Node8 -->
<g id="Node000008" class="node">
<title>Node8</title>
<g id="a_Node000008"><a xlink:href="../../d3/dda/_a_e_file_reader_8hpp.html" target="_top" xlink:title=" ">
<polygon fill="white" stroke="#666666" points="255.88,-132 64.38,-132 64.38,-112 255.88,-112 255.88,-132"/>
<text text-anchor="middle" x="160.12" y="-118.5" font-family="Helvetica,sans-Serif" font-size="10.00">AEFileReader/include/AEFileReader.hpp</text>
</a>
</g>
</g>
<!-- Node2&#45;&gt;Node8 -->
<g id="edge7_Node000002_Node000008" class="edge">
<title>Node2&#45;&gt;Node8</title>
<g id="a_edge7_Node000002_Node000008"><a xlink:title=" ">
<path fill="none" stroke="#63b8ff" d="M325.05,-164.81C286.44,-155.02 232.98,-141.47 197.52,-132.48"/>
<polygon fill="#63b8ff" stroke="#63b8ff" points="324,-168.16 334.56,-167.22 325.72,-161.37 324,-168.16"/>
</a>
</g>
</g>
<!-- Node10 -->
<g id="Node000010" class="node">
<title>Node10</title>
<g id="a_Node000010"><a xlink:href="../../db/da4/_a_e_file_writer_8hpp.html" target="_top" xlink:title=" ">
<polygon fill="white" stroke="#666666" points="672.38,-132 489.88,-132 489.88,-112 672.38,-112 672.38,-132"/>
<text text-anchor="middle" x="581.12" y="-118.5" font-family="Helvetica,sans-Serif" font-size="10.00">AEFileWriter/include/AEFileWriter.hpp</text>
</a>
</g>
</g>
<!-- Node2&#45;&gt;Node10 -->
<g id="edge10_Node000002_Node000010" class="edge">
<title>Node2&#45;&gt;Node10</title>
<g id="a_edge10_Node000002_Node000010"><a xlink:title=" ">
<path fill="none" stroke="#63b8ff" d="M420.07,-164.81C457.78,-155.02 509.98,-141.47 544.61,-132.48"/>
<polygon fill="#63b8ff" stroke="#63b8ff" points="419.62,-161.31 410.82,-167.21 421.38,-168.09 419.62,-161.31"/>
</a>
</g>
</g>
<!-- Node4 -->
<g id="Node000004" class="node">
<title>Node4</title>
<g id="a_Node000004"><a xlink:href="../../d0/dab/_a_e_log_parser_8hpp.html" target="_top" xlink:title=" ">
<polygon fill="white" stroke="#666666" points="379.62,-76 192.62,-76 192.62,-56 379.62,-56 379.62,-76"/>
<text text-anchor="middle" x="286.12" y="-62.5" font-family="Helvetica,sans-Serif" font-size="10.00">AELogParser/include/AELogParser.hpp</text>
</a>
</g>
</g>
<!-- Node3&#45;&gt;Node4 -->
<g id="edge3_Node000003_Node000004" class="edge">
<title>Node3&#45;&gt;Node4</title>
<g id="a_edge3_Node000003_Node000004"><a xlink:title=" ">
<path fill="none" stroke="#63b8ff" d="M348.22,-105.54C333.12,-96.17 314.33,-84.51 301.4,-76.48"/>
<polygon fill="#63b8ff" stroke="#63b8ff" points="346.34,-108.5 356.68,-110.8 350.03,-102.55 346.34,-108.5"/>
</a>
</g>
</g>
<!-- Node6 -->
<g id="Node000006" class="node">
<title>Node6</title>
<g id="a_Node000006"><a xlink:href="../../d4/d9f/_a_e_logger_8hpp.html" target="_top" xlink:title=" ">
<polygon fill="white" stroke="#666666" points="554.62,-76 397.62,-76 397.62,-56 554.62,-56 554.62,-76"/>
<text text-anchor="middle" x="476.12" y="-62.5" font-family="Helvetica,sans-Serif" font-size="10.00">AELogger/include/AELogger.hpp</text>
</a>
</g>
</g>
<!-- Node3&#45;&gt;Node6 -->
<g id="edge5_Node000003_Node000006" class="edge">
<title>Node3&#45;&gt;Node6</title>
<g id="a_edge5_Node000003_Node000006"><a xlink:title=" ">
<path fill="none" stroke="#63b8ff" d="M401.07,-106.35C419.2,-96.84 442.29,-84.74 458.04,-76.48"/>
<polygon fill="#63b8ff" stroke="#63b8ff" points="399.64,-103.15 392.41,-110.89 402.89,-109.35 399.64,-103.15"/>
</a>
</g>
</g>
<!-- Node5 -->
<g id="Node000005" class="node">
<title>Node5</title>
<g id="a_Node000005"><a xlink:href="../../d2/d77/_a_e_log_parser_8cpp.html" target="_top" xlink:title=" ">
<polygon fill="white" stroke="#666666" points="371,-20 201.25,-20 201.25,0 371,0 371,-20"/>
<text text-anchor="middle" x="286.12" y="-6.5" font-family="Helvetica,sans-Serif" font-size="10.00">AELogParser/src/AELogParser.cpp</text>
</a>
</g>
</g>
<!-- Node4&#45;&gt;Node5 -->
<g id="edge4_Node000004_Node000005" class="edge">
<title>Node4&#45;&gt;Node5</title>
<g id="a_edge4_Node000004_Node000005"><a xlink:title=" ">
<path fill="none" stroke="#63b8ff" d="M286.12,-44.13C286.12,-35.9 286.12,-26.85 286.12,-20.3"/>
<polygon fill="#63b8ff" stroke="#63b8ff" points="282.63,-44.08 286.13,-54.08 289.63,-44.08 282.63,-44.08"/>
</a>
</g>
</g>
<!-- Node7 -->
<g id="Node000007" class="node">
<title>Node7</title>
<g id="a_Node000007"><a xlink:href="../../db/da0/_a_e_logger_8cpp.html" target="_top" xlink:title=" ">
<polygon fill="white" stroke="#666666" points="546,-20 406.25,-20 406.25,0 546,0 546,-20"/>
<text text-anchor="middle" x="476.12" y="-6.5" font-family="Helvetica,sans-Serif" font-size="10.00">AELogger/src/AELogger.cpp</text>
</a>
</g>
</g>
<!-- Node6&#45;&gt;Node7 -->
<g id="edge6_Node000006_Node000007" class="edge">
<title>Node6&#45;&gt;Node7</title>
<g id="a_edge6_Node000006_Node000007"><a xlink:title=" ">
<path fill="none" stroke="#63b8ff" d="M476.12,-44.13C476.12,-35.9 476.12,-26.85 476.12,-20.3"/>
<polygon fill="#63b8ff" stroke="#63b8ff" points="472.63,-44.08 476.13,-54.08 479.63,-44.08 472.63,-44.08"/>
</a>
</g>
</g>
<!-- Node8&#45;&gt;Node4 -->
<g id="edge9_Node000008_Node000004" class="edge">
<title>Node8&#45;&gt;Node4</title>
<g id="a_edge9_Node000008_Node000004"><a xlink:title=" ">
<path fill="none" stroke="#63b8ff" d="M192.46,-107.14C214.9,-97.52 244.2,-84.97 264.01,-76.48"/>
<polygon fill="#63b8ff" stroke="#63b8ff" points="191.28,-103.84 183.46,-111 194.03,-110.28 191.28,-103.84"/>
</a>
</g>
</g>
<!-- Node9 -->
<g id="Node000009" class="node">
<title>Node9</title>
<g id="a_Node000009"><a xlink:href="../../d9/d6e/_a_e_file_reader_8cpp.html" target="_top" xlink:title=" ">
<polygon fill="white" stroke="#666666" points="174.25,-76 0,-76 0,-56 174.25,-56 174.25,-76"/>
<text text-anchor="middle" x="87.12" y="-62.5" font-family="Helvetica,sans-Serif" font-size="10.00">AEFileReader/src/AEFileReader.cpp</text>
</a>
</g>
</g>
<!-- Node8&#45;&gt;Node9 -->
<g id="edge8_Node000008_Node000009" class="edge">
<title>Node8&#45;&gt;Node9</title>
<g id="a_edge8_Node000008_Node000009"><a xlink:title=" ">
<path fill="none" stroke="#63b8ff" d="M138.43,-104.95C125.81,-95.61 110.33,-84.16 99.69,-76.3"/>
<polygon fill="#63b8ff" stroke="#63b8ff" points="136.07,-107.56 146.19,-110.69 140.23,-101.93 136.07,-107.56"/>
</a>
</g>
</g>
<!-- Node10&#45;&gt;Node6 -->
<g id="edge12_Node000010_Node000006" class="edge">
<title>Node10&#45;&gt;Node6</title>
<g id="a_edge12_Node000010_Node000006"><a xlink:title=" ">
<path fill="none" stroke="#63b8ff" d="M552.63,-106.35C534.15,-96.84 510.61,-84.74 494.56,-76.48"/>
<polygon fill="#63b8ff" stroke="#63b8ff" points="551,-109.44 561.49,-110.9 554.2,-103.22 551,-109.44"/>
</a>
</g>
</g>
<!-- Node11 -->
<g id="Node000011" class="node">
<title>Node11</title>
<g id="a_Node000011"><a xlink:href="../../d0/d56/_a_e_file_writer_8cpp.html" target="_top" xlink:title=" ">
<polygon fill="white" stroke="#666666" points="737.75,-76 572.5,-76 572.5,-56 737.75,-56 737.75,-76"/>
<text text-anchor="middle" x="655.12" y="-62.5" font-family="Helvetica,sans-Serif" font-size="10.00">AEFileWriter/src/AEFileWriter.cpp</text>
</a>
</g>
</g>
<!-- Node10&#45;&gt;Node11 -->
<g id="edge11_Node000010_Node000011" class="edge">
<title>Node10&#45;&gt;Node11</title>
<g id="a_edge11_Node000010_Node000011"><a xlink:title=" ">
<path fill="none" stroke="#63b8ff" d="M603.11,-104.95C615.91,-95.61 631.6,-84.16 642.38,-76.3"/>
<polygon fill="#63b8ff" stroke="#63b8ff" points="601.25,-101.98 595.24,-110.7 605.38,-107.63 601.25,-101.98"/>
</a>
</g>
</g>
</g>
</svg>
