<?xml version="1.0" encoding="UTF-8" standalone="no"?>
<!DOCTYPE svg PUBLIC "-//W3C//DTD SVG 1.1//EN"
 "http://www.w3.org/Graphics/SVG/1.1/DTD/svg11.dtd">
<!-- Generated by graphviz version 10.0.1 (20240210.2158)
 -->
<!-- Title: AEMisc/include/AEUtils.hpp Pages: 1 -->
<svg width="650pt" height="140pt"
 viewBox="0.00 0.00 650.00 140.00" xmlns="http://www.w3.org/2000/svg" xmlns:xlink="http://www.w3.org/1999/xlink">
<g id="graph0" class="graph" transform="scale(1 1) rotate(0) translate(4 136)">
<title>AEMisc/include/AEUtils.hpp</title>
<!-- Node1 -->
<g id="Node000001" class="node">
<title>Node1</title>
<g id="a_Node000001"><a xlink:title="This file contains the engine&#39;s usefull utilities for trivial tasks.">
<polygon fill="#999999" stroke="#666666" points="431.62,-132 292.62,-132 292.62,-112 431.62,-112 431.62,-132"/>
<text text-anchor="middle" x="362.12" y="-118.5" font-family="Helvetica,sans-Serif" font-size="10.00">AEMisc/include/AEUtils.hpp</text>
</a>
</g>
</g>
<!-- Node2 -->
<g id="Node000002" class="node">
<title>Node2</title>
<g id="a_Node000002"><a xlink:href="../../dd/dd8/_a_e_flags_8hpp.html" target="_top" xlink:title="This file contains the flags to manipulate engine&#39;s funcitonality.">
<polygon fill="white" stroke="#666666" points="72.25,-76 0,-76 0,-56 72.25,-56 72.25,-76"/>
<text text-anchor="middle" x="36.12" y="-62.5" font-family="Helvetica,sans-Serif" font-size="10.00">AEFlags.hpp</text>
</a>
</g>
</g>
<!-- Node1&#45;&gt;Node2 -->
<g id="edge1_Node000001_Node000002" class="edge">
<title>Node1&#45;&gt;Node2</title>
<g id="a_edge1_Node000001_Node000002"><a xlink:title=" ">
<path fill="none" stroke="#63b8ff" d="M298.39,-111.51C243.92,-103.24 163.18,-90.59 83.66,-76.4"/>
<polygon fill="#63b8ff" stroke="#63b8ff" points="84.4,-72.98 73.94,-74.66 83.17,-79.87 84.4,-72.98"/>
</a>
</g>
</g>
<!-- Node3 -->
<g id="Node000003" class="node">
<title>Node3</title>
<g id="a_Node000003"><a xlink:href="../../dc/d89/_a_e_typedefs_8hpp.html" target="_top" xlink:title="This file contains the engine&#39;s typedefs and variable type aliases.">
<polygon fill="white" stroke="#666666" points="177.75,-76 90.5,-76 90.5,-56 177.75,-56 177.75,-76"/>
<text text-anchor="middle" x="134.12" y="-62.5" font-family="Helvetica,sans-Serif" font-size="10.00">AETypedefs.hpp</text>
</a>
</g>
</g>
<!-- Node1&#45;&gt;Node3 -->
<g id="edge2_Node000001_Node000003" class="edge">
<title>Node1&#45;&gt;Node3</title>
<g id="a_edge2_Node000001_Node000003"><a xlink:title=" ">
<path fill="none" stroke="#63b8ff" d="M322.15,-111.53C284.01,-102.5 226.4,-88.85 185,-79.05"/>
<polygon fill="#63b8ff" stroke="#63b8ff" points="186.06,-75.7 175.53,-76.81 184.45,-82.52 186.06,-75.7"/>
</a>
</g>
</g>
<!-- Node7 -->
<g id="Node000007" class="node">
<title>Node7</title>
<g id="a_Node000007"><a xlink:title=" ">
<polygon fill="#e0e0e0" stroke="#999999" points="252,-76 196.25,-76 196.25,-56 252,-56 252,-76"/>
<text text-anchor="middle" x="224.12" y="-62.5" font-family="Helvetica,sans-Serif" font-size="10.00">algorithm</text>
</a>
</g>
</g>
<!-- Node1&#45;&gt;Node7 -->
<g id="edge6_Node000001_Node000007" class="edge">
<title>Node1&#45;&gt;Node7</title>
<g id="a_edge6_Node000001_Node000007"><a xlink:title=" ">
<path fill="none" stroke="#63b8ff" d="M338.09,-111.59C316.16,-103.01 283.5,-90.23 258.75,-80.55"/>
<polygon fill="#63b8ff" stroke="#63b8ff" points="260.35,-77.42 249.76,-77.03 257.8,-83.93 260.35,-77.42"/>
</a>
</g>
</g>
<!-- Node8 -->
<g id="Node000008" class="node">
<title>Node8</title>
<g id="a_Node000008"><a xlink:title=" ">
<polygon fill="#e0e0e0" stroke="#999999" points="323.88,-76 270.38,-76 270.38,-56 323.88,-56 323.88,-76"/>
<text text-anchor="middle" x="297.12" y="-62.5" font-family="Helvetica,sans-Serif" font-size="10.00">iostream</text>
</a>
</g>
</g>
<!-- Node1&#45;&gt;Node8 -->
<g id="edge7_Node000001_Node000008" class="edge">
<title>Node1&#45;&gt;Node8</title>
<g id="a_edge7_Node000001_Node000008"><a xlink:title=" ">
<path fill="none" stroke="#63b8ff" d="M350.8,-111.59C341.48,-103.85 328.05,-92.69 316.95,-83.47"/>
<polygon fill="#63b8ff" stroke="#63b8ff" points="319.41,-80.96 309.48,-77.27 314.94,-86.35 319.41,-80.96"/>
</a>
</g>
</g>
<!-- Node9 -->
<g id="Node000009" class="node">
<title>Node9</title>
<g id="a_Node000009"><a xlink:title=" ">
<polygon fill="#e0e0e0" stroke="#999999" points="382.12,-76 342.12,-76 342.12,-56 382.12,-56 382.12,-76"/>
<text text-anchor="middle" x="362.12" y="-62.5" font-family="Helvetica,sans-Serif" font-size="10.00">string</text>
</a>
</g>
</g>
<!-- Node1&#45;&gt;Node9 -->
<g id="edge8_Node000001_Node000009" class="edge">
<title>Node1&#45;&gt;Node9</title>
<g id="a_edge8_Node000001_Node000009"><a xlink:title=" ">
<path fill="none" stroke="#63b8ff" d="M362.12,-111.59C362.12,-105.01 362.12,-95.96 362.12,-87.73"/>
<polygon fill="#63b8ff" stroke="#63b8ff" points="365.63,-87.81 362.13,-77.81 358.63,-87.81 365.63,-87.81"/>
</a>
</g>
</g>
<!-- Node10 -->
<g id="Node000010" class="node">
<title>Node10</title>
<g id="a_Node000010"><a xlink:title=" ">
<polygon fill="#e0e0e0" stroke="#999999" points="445.75,-76 400.5,-76 400.5,-56 445.75,-56 445.75,-76"/>
<text text-anchor="middle" x="423.12" y="-62.5" font-family="Helvetica,sans-Serif" font-size="10.00">cstring</text>
</a>
</g>
</g>
<!-- Node1&#45;&gt;Node10 -->
<g id="edge9_Node000001_Node000010" class="edge">
<title>Node1&#45;&gt;Node10</title>
<g id="a_edge9_Node000001_Node000010"><a xlink:title=" ">
<path fill="none" stroke="#63b8ff" d="M372.75,-111.59C381.41,-103.93 393.86,-92.91 404.21,-83.75"/>
<polygon fill="#63b8ff" stroke="#63b8ff" points="406.32,-86.55 411.49,-77.3 401.68,-81.31 406.32,-86.55"/>
</a>
</g>
</g>
<!-- Node11 -->
<g id="Node000011" class="node">
<title>Node11</title>
<g id="a_Node000011"><a xlink:title=" ">
<polygon fill="#e0e0e0" stroke="#999999" points="504.12,-76 464.12,-76 464.12,-56 504.12,-56 504.12,-76"/>
<text text-anchor="middle" x="484.12" y="-62.5" font-family="Helvetica,sans-Serif" font-size="10.00">ctime</text>
</a>
</g>
</g>
<!-- Node1&#45;&gt;Node11 -->
<g id="edge10_Node000001_Node000011" class="edge">
<title>Node1&#45;&gt;Node11</title>
<g id="a_edge10_Node000001_Node000011"><a xlink:title=" ">
<path fill="none" stroke="#63b8ff" d="M383.38,-111.59C402.77,-103.01 431.65,-90.23 453.52,-80.55"/>
<polygon fill="#63b8ff" stroke="#63b8ff" points="454.82,-83.8 462.54,-76.55 451.98,-77.4 454.82,-83.8"/>
</a>
</g>
</g>
<!-- Node12 -->
<g id="Node000012" class="node">
<title>Node12</title>
<g id="a_Node000012"><a xlink:title=" ">
<polygon fill="#e0e0e0" stroke="#999999" points="573.75,-76 522.5,-76 522.5,-56 573.75,-56 573.75,-76"/>
<text text-anchor="middle" x="548.12" y="-62.5" font-family="Helvetica,sans-Serif" font-size="10.00">sstream</text>
</a>
</g>
</g>
<!-- Node1&#45;&gt;Node12 -->
<g id="edge11_Node000001_Node000012" class="edge">
<title>Node1&#45;&gt;Node12</title>
<g id="a_edge11_Node000001_Node000012"><a xlink:title=" ">
<path fill="none" stroke="#63b8ff" d="M394.52,-111.59C427.07,-102.15 477.14,-87.61 511.2,-77.72"/>
<polygon fill="#63b8ff" stroke="#63b8ff" points="512.01,-81.13 520.64,-74.98 510.06,-74.41 512.01,-81.13"/>
</a>
</g>
</g>
<!-- Node13 -->
<g id="Node000013" class="node">
<title>Node13</title>
<g id="a_Node000013"><a xlink:title=" ">
<polygon fill="#e0e0e0" stroke="#999999" points="642,-76 592.25,-76 592.25,-56 642,-56 642,-76"/>
<text text-anchor="middle" x="617.12" y="-62.5" font-family="Helvetica,sans-Serif" font-size="10.00">iomanip</text>
</a>
</g>
</g>
<!-- Node1&#45;&gt;Node13 -->
<g id="edge12_Node000001_Node000013" class="edge">
<title>Node1&#45;&gt;Node13</title>
<g id="a_edge12_Node000001_Node000013"><a xlink:title=" ">
<path fill="none" stroke="#63b8ff" d="M412.78,-111.55C455.23,-103.44 517.69,-91.05 580.93,-76.41"/>
<polygon fill="#63b8ff" stroke="#63b8ff" points="581.5,-79.87 590.44,-74.19 579.91,-73.06 581.5,-79.87"/>
</a>
</g>
</g>
<!-- Node4 -->
<g id="Node000004" class="node">
<title>Node4</title>
<g id="a_Node000004"><a xlink:title=" ">
<polygon fill="#e0e0e0" stroke="#999999" points="93.38,-20 48.88,-20 48.88,0 93.38,0 93.38,-20"/>
<text text-anchor="middle" x="71.12" y="-6.5" font-family="Helvetica,sans-Serif" font-size="10.00">climits</text>
</a>
</g>
</g>
<!-- Node3&#45;&gt;Node4 -->
<g id="edge3_Node000003_Node000004" class="edge">
<title>Node3&#45;&gt;Node4</title>
<g id="a_edge3_Node000003_Node000004"><a xlink:title=" ">
<path fill="none" stroke="#63b8ff" d="M123.15,-55.59C114.21,-47.93 101.35,-36.91 90.66,-27.75"/>
<polygon fill="#63b8ff" stroke="#63b8ff" points="92.99,-25.13 83.12,-21.28 88.44,-30.45 92.99,-25.13"/>
</a>
</g>
</g>
<!-- Node5 -->
<g id="Node000005" class="node">
<title>Node5</title>
<g id="a_Node000005"><a xlink:title=" ">
<polygon fill="#e0e0e0" stroke="#999999" points="156.75,-20 111.5,-20 111.5,0 156.75,0 156.75,-20"/>
<text text-anchor="middle" x="134.12" y="-6.5" font-family="Helvetica,sans-Serif" font-size="10.00">chrono</text>
</a>
</g>
</g>
<!-- Node3&#45;&gt;Node5 -->
<g id="edge4_Node000003_Node000005" class="edge">
<title>Node3&#45;&gt;Node5</title>
<g id="a_edge4_Node000003_Node000005"><a xlink:title=" ">
<path fill="none" stroke="#63b8ff" d="M134.12,-55.59C134.12,-49.01 134.12,-39.96 134.12,-31.73"/>
<polygon fill="#63b8ff" stroke="#63b8ff" points="137.63,-31.81 134.13,-21.81 130.63,-31.81 137.63,-31.81"/>
</a>
</g>
</g>
<!-- Node6 -->
<g id="Node000006" class="node">
<title>Node6</title>
<g id="a_Node000006"><a xlink:title=" ">
<polygon fill="#e0e0e0" stroke="#999999" points="217.62,-20 174.62,-20 174.62,0 217.62,0 217.62,-20"/>
<text text-anchor="middle" x="196.12" y="-6.5" font-family="Helvetica,sans-Serif" font-size="10.00">thread</text>
</a>
</g>
</g>
<!-- Node3&#45;&gt;Node6 -->
<g id="edge5_Node000003_Node000006" class="edge">
<title>Node3&#45;&gt;Node6</title>
<g id="a_edge5_Node000003_Node000006"><a xlink:title=" ">
<path fill="none" stroke="#63b8ff" d="M144.92,-55.59C153.73,-47.93 166.38,-36.91 176.9,-27.75"/>
<polygon fill="#63b8ff" stroke="#63b8ff" points="179.07,-30.5 184.31,-21.29 174.47,-25.22 179.07,-30.5"/>
</a>
</g>
</g>
</g>
</svg>
