<?xml version="1.0" encoding="UTF-8" standalone="no"?>
<!DOCTYPE svg PUBLIC "-//W3C//DTD SVG 1.1//EN"
 "http://www.w3.org/Graphics/SVG/1.1/DTD/svg11.dtd">
<!-- Generated by graphviz version 10.0.1 (20240210.2158)
 -->
<!-- Title: AEVector::isOrthogonal Pages: 1 -->
<svg width="244pt" height="46pt"
 viewBox="0.00 0.00 244.00 46.00" xmlns="http://www.w3.org/2000/svg" xmlns:xlink="http://www.w3.org/1999/xlink">
<g id="graph0" class="graph" transform="scale(1 1) rotate(0) translate(4 42)">
<title>AEVector::isOrthogonal</title>
<!-- Node1 -->
<g id="Node000001" class="node">
<title>Node1</title>
<g id="a_Node000001"><a xlink:title="Checks if &quot;this&quot; and given vector are orthogonal (perpendicular), by comparing their dot product to 0...">
<polygon fill="#999999" stroke="#666666" points="118.75,-20 0,-20 0,0 118.75,0 118.75,-20"/>
<text text-anchor="middle" x="59.38" y="-6.5" font-family="Helvetica,sans-Serif" font-size="10.00">AEVector::isOrthogonal</text>
</a>
</g>
</g>
<!-- Node2 -->
<g id="Node000002" class="node">
<title>Node2</title>
<g id="a_Node000002"><a xlink:href="../../d5/d0f/namespaceace_1_1math.html#a3fe0b48ce2d8fd78f7758ae1b6cef83b" target="_top" xlink:title="Gets the smallest value between given two values.">
<polygon fill="white" stroke="#666666" points="236,-20 154.75,-20 154.75,0 236,0 236,-20"/>
<text text-anchor="middle" x="195.38" y="-6.5" font-family="Helvetica,sans-Serif" font-size="10.00">ace::math::min</text>
</a>
</g>
</g>
<!-- Node1&#45;&gt;Node2 -->
<g id="edge1_Node000001_Node000002" class="edge">
<title>Node1&#45;&gt;Node2</title>
<g id="a_edge1_Node000001_Node000002"><a xlink:title=" ">
<path fill="none" stroke="#63b8ff" d="M119.15,-10C127.18,-10 135.37,-10 143.25,-10"/>
<polygon fill="#63b8ff" stroke="#63b8ff" points="143.01,-13.5 153.01,-10 143.01,-6.5 143.01,-13.5"/>
</a>
</g>
</g>
<!-- Node2&#45;&gt;Node2 -->
<g id="edge2_Node000002_Node000002" class="edge">
<title>Node2&#45;&gt;Node2</title>
<g id="a_edge2_Node000002_Node000002"><a xlink:title=" ">
<path fill="none" stroke="#63b8ff" d="M173.77,-20.34C164.53,-28.98 171.73,-38 195.38,-38 208.3,-38 216.32,-35.3 219.41,-31.44"/>
<polygon fill="#63b8ff" stroke="#63b8ff" points="222.86,-30.84 217.31,-21.82 216.02,-32.33 222.86,-30.84"/>
</a>
</g>
</g>
</g>
</svg>
