<?xml version="1.0" encoding="UTF-8" standalone="no"?>
<!DOCTYPE svg PUBLIC "-//W3C//DTD SVG 1.1//EN"
 "http://www.w3.org/Graphics/SVG/1.1/DTD/svg11.dtd">
<!-- Generated by graphviz version 10.0.1 (20240210.2158)
 -->
<!-- Title: AEVector::magnitude Pages: 1 -->
<svg width="234pt" height="46pt"
 viewBox="0.00 0.00 234.25 46.00" xmlns="http://www.w3.org/2000/svg" xmlns:xlink="http://www.w3.org/1999/xlink">
<g id="graph0" class="graph" transform="scale(1 1) rotate(0) translate(4 42)">
<title>AEVector::magnitude</title>
<!-- Node1 -->
<g id="Node000001" class="node">
<title>Node1</title>
<g id="a_Node000001"><a xlink:title="Calculates the magnitude/length of the vector.">
<polygon fill="#999999" stroke="#666666" points="109,-20 0,-20 0,0 109,0 109,-20"/>
<text text-anchor="middle" x="54.5" y="-6.5" font-family="Helvetica,sans-Serif" font-size="10.00">AEVector::magnitude</text>
</a>
</g>
</g>
<!-- Node2 -->
<g id="Node000002" class="node">
<title>Node2</title>
<g id="a_Node000002"><a xlink:href="../../d5/d0f/namespaceace_1_1math.html#a3fe0b48ce2d8fd78f7758ae1b6cef83b" target="_top" xlink:title="Gets the smallest value between given two values.">
<polygon fill="white" stroke="#666666" points="226.25,-20 145,-20 145,0 226.25,0 226.25,-20"/>
<text text-anchor="middle" x="185.62" y="-6.5" font-family="Helvetica,sans-Serif" font-size="10.00">ace::math::min</text>
</a>
</g>
</g>
<!-- Node1&#45;&gt;Node2 -->
<g id="edge1_Node000001_Node000002" class="edge">
<title>Node1&#45;&gt;Node2</title>
<g id="a_edge1_Node000001_Node000002"><a xlink:title=" ">
<path fill="none" stroke="#63b8ff" d="M109.14,-10C117.15,-10 125.38,-10 133.34,-10"/>
<polygon fill="#63b8ff" stroke="#63b8ff" points="133.23,-13.5 143.23,-10 133.23,-6.5 133.23,-13.5"/>
</a>
</g>
</g>
<!-- Node2&#45;&gt;Node2 -->
<g id="edge2_Node000002_Node000002" class="edge">
<title>Node2&#45;&gt;Node2</title>
<g id="a_edge2_Node000002_Node000002"><a xlink:title=" ">
<path fill="none" stroke="#63b8ff" d="M164.79,-20.34C155.89,-28.98 162.83,-38 185.62,-38 198.09,-38 205.82,-35.3 208.8,-31.44"/>
<polygon fill="#63b8ff" stroke="#63b8ff" points="212.26,-30.88 206.77,-21.82 205.41,-32.33 212.26,-30.88"/>
</a>
</g>
</g>
</g>
</svg>
