<?xml version="1.0" encoding="UTF-8" standalone="no"?>
<!DOCTYPE svg PUBLIC "-//W3C//DTD SVG 1.1//EN"
 "http://www.w3.org/Graphics/SVG/1.1/DTD/svg11.dtd">
<!-- Generated by graphviz version 10.0.1 (20240210.2158)
 -->
<!-- Title: AELogger Pages: 1 -->
<svg width="163pt" height="153pt"
 viewBox="0.00 0.00 162.75 153.00" xmlns="http://www.w3.org/2000/svg" xmlns:xlink="http://www.w3.org/1999/xlink">
<g id="graph0" class="graph" transform="scale(1 1) rotate(0) translate(4 149)">
<title>AELogger</title>
<!-- Node1 -->
<g id="Node000001" class="node">
<title>Node1</title>
<g id="a_Node000001"><a xlink:title="The ArtyK&#39;s Engine&#39;s Logger module – it manages the writing to the log files.">
<polygon fill="#999999" stroke="#666666" points="106.75,-20 48,-20 48,0 106.75,0 106.75,-20"/>
<text text-anchor="middle" x="77.38" y="-6.5" font-family="Helvetica,sans-Serif" font-size="10.00">AELogger</text>
</a>
</g>
</g>
<!-- Node2 -->
<g id="Node000002" class="node">
<title>Node2</title>
<g id="a_Node000002"><a xlink:href="../../d0/d8a/class_____a_e_module_base.html" target="_top" xlink:title=" ">
<polygon fill="white" stroke="#666666" points="154.75,-77 0,-77 0,-57 154.75,-57 154.75,-77"/>
<text text-anchor="middle" x="77.38" y="-63.5" font-family="Helvetica,sans-Serif" font-size="10.00">__AEModuleBase&lt; AELogger &gt;</text>
</a>
</g>
</g>
<!-- Node2&#45;&gt;Node1 -->
<g id="edge1_Node000001_Node000002" class="edge">
<title>Node2&#45;&gt;Node1</title>
<g id="a_edge1_Node000001_Node000002"><a xlink:title=" ">
<path fill="none" stroke="#63b8ff" d="M77.38,-45.69C77.38,-36.97 77.38,-27.22 77.38,-20.28"/>
<polygon fill="#63b8ff" stroke="#63b8ff" points="73.88,-45.4 77.38,-55.4 80.88,-45.4 73.88,-45.4"/>
</a>
</g>
</g>
<!-- Node3 -->
<g id="Node000003" class="node">
<title>Node3</title>
<g id="a_Node000003"><a xlink:href="../../d0/d8a/class_____a_e_module_base.html" target="_top" xlink:title="This is a base class for all the modules in the engine; all basic modules inherit from it.">
<polygon fill="white" stroke="#666666" points="136,-145 18.75,-145 18.75,-125 136,-125 136,-145"/>
<text text-anchor="middle" x="77.38" y="-131.5" font-family="Helvetica,sans-Serif" font-size="10.00">__AEModuleBase&lt; T &gt;</text>
</a>
</g>
</g>
<!-- Node3&#45;&gt;Node2 -->
<g id="edge2_Node000002_Node000003" class="edge">
<title>Node3&#45;&gt;Node2</title>
<g id="a_edge2_Node000002_Node000003"><a xlink:title=" ">
<path fill="none" stroke="orange" stroke-dasharray="5,2" d="M77.38,-113.28C77.38,-101.27 77.38,-86.74 77.38,-77.44"/>
<polygon fill="orange" stroke="orange" points="73.88,-113.03 77.38,-123.03 80.88,-113.03 73.88,-113.03"/>
</a>
</g>
<text text-anchor="middle" x="109.25" y="-97.5" font-family="Helvetica,sans-Serif" font-size="10.00" fill="grey"> &lt; AELogger &gt;</text>
</g>
</g>
</svg>
