<?xml version="1.0" encoding="UTF-8" standalone="no"?>
<!DOCTYPE svg PUBLIC "-//W3C//DTD SVG 1.1//EN"
 "http://www.w3.org/Graphics/SVG/1.1/DTD/svg11.dtd">
<!-- Generated by graphviz version 10.0.1 (20240210.2158)
 -->
<!-- Title: AETimer::tickTimer Pages: 1 -->
<svg width="388pt" height="142pt"
 viewBox="0.00 0.00 388.25 142.00" xmlns="http://www.w3.org/2000/svg" xmlns:xlink="http://www.w3.org/1999/xlink">
<g id="graph0" class="graph" transform="scale(1 1) rotate(0) translate(4 138)">
<title>AETimer::tickTimer</title>
<!-- Node1 -->
<g id="Node000001" class="node">
<title>Node1</title>
<g id="a_Node000001"><a xlink:title="The function that does the tick counting for the timer.">
<polygon fill="#999999" stroke="#666666" points="380.25,-77 281,-77 281,-57 380.25,-57 380.25,-77"/>
<text text-anchor="middle" x="330.62" y="-63.5" font-family="Helvetica,sans-Serif" font-size="10.00">AETimer::tickTimer</text>
</a>
</g>
</g>
<!-- Node2 -->
<g id="Node000002" class="node">
<title>Node2</title>
<g id="a_Node000002"><a xlink:href="../../da/d62/class_a_e_timer.html#a022b44a8e9b9e2a314e0ac3ecc759062" target="_top" xlink:title="Starts the timer thread and starts tick counting.">
<polygon fill="white" stroke="#666666" points="245,-77 136.75,-77 136.75,-57 245,-57 245,-77"/>
<text text-anchor="middle" x="190.88" y="-63.5" font-family="Helvetica,sans-Serif" font-size="10.00">AETimer::startThread</text>
</a>
</g>
</g>
<!-- Node1&#45;&gt;Node2 -->
<g id="edge1_Node000001_Node000002" class="edge">
<title>Node1&#45;&gt;Node2</title>
<g id="a_edge1_Node000001_Node000002"><a xlink:title=" ">
<path fill="none" stroke="#63b8ff" d="M269.2,-67C261.26,-67 253.16,-67 245.35,-67"/>
<polygon fill="#63b8ff" stroke="#63b8ff" points="269.16,-70.5 279.16,-67 269.16,-63.5 269.16,-70.5"/>
</a>
</g>
</g>
<!-- Node3 -->
<g id="Node000003" class="node">
<title>Node3</title>
<g id="a_Node000003"><a xlink:href="../../da/d62/class_a_e_timer.html#ab6d5a811e0d1d8f3ab3427ae3c15756b" target="_top" xlink:title="Copy constructor – Just copies the data and then starts the timer if original timer was started.">
<polygon fill="white" stroke="#666666" points="98.88,-134 1.88,-134 1.88,-114 98.88,-114 98.88,-134"/>
<text text-anchor="middle" x="50.38" y="-120.5" font-family="Helvetica,sans-Serif" font-size="10.00">AETimer::AETimer</text>
</a>
</g>
</g>
<!-- Node2&#45;&gt;Node3 -->
<g id="edge2_Node000002_Node000003" class="edge">
<title>Node2&#45;&gt;Node3</title>
<g id="a_edge2_Node000002_Node000003"><a xlink:title=" ">
<path fill="none" stroke="#63b8ff" d="M155.84,-81.85C139.28,-88.99 119.04,-97.59 100.75,-105 93.77,-107.83 86.2,-110.8 79.12,-113.52"/>
<polygon fill="#63b8ff" stroke="#63b8ff" points="156.96,-85.18 164.75,-77.99 154.18,-78.75 156.96,-85.18"/>
</a>
</g>
</g>
<!-- Node4 -->
<g id="Node000004" class="node">
<title>Node4</title>
<g id="a_Node000004"><a xlink:href="../../da/d62/class_a_e_timer.html#a0ae04d9de43161195777f7ee26a55dd5" target="_top" xlink:title="Class constructor – starts the timer automatically.">
<polygon fill="white" stroke="#666666" points="98.88,-96 1.88,-96 1.88,-76 98.88,-76 98.88,-96"/>
<text text-anchor="middle" x="50.38" y="-82.5" font-family="Helvetica,sans-Serif" font-size="10.00">AETimer::AETimer</text>
</a>
</g>
</g>
<!-- Node2&#45;&gt;Node4 -->
<g id="edge3_Node000002_Node000004" class="edge">
<title>Node2&#45;&gt;Node4</title>
<g id="a_edge3_Node000002_Node000004"><a xlink:title=" ">
<path fill="none" stroke="#63b8ff" d="M125.05,-75.89C116.4,-77.08 107.65,-78.28 99.35,-79.42"/>
<polygon fill="#63b8ff" stroke="#63b8ff" points="125.4,-79.38 134.83,-74.55 124.44,-72.44 125.4,-79.38"/>
</a>
</g>
</g>
<!-- Node5 -->
<g id="Node000005" class="node">
<title>Node5</title>
<g id="a_Node000005"><a xlink:href="../../da/d62/class_a_e_timer.html#a7bdf64ddc743a1223164764b9cb15091" target="_top" xlink:title="The copy assignment operator.">
<polygon fill="white" stroke="#666666" points="100.75,-58 0,-58 0,-38 100.75,-38 100.75,-58"/>
<text text-anchor="middle" x="50.38" y="-44.5" font-family="Helvetica,sans-Serif" font-size="10.00">AETimer::operator=</text>
</a>
</g>
</g>
<!-- Node2&#45;&gt;Node5 -->
<g id="edge4_Node000002_Node000005" class="edge">
<title>Node2&#45;&gt;Node5</title>
<g id="a_edge4_Node000002_Node000005"><a xlink:title=" ">
<path fill="none" stroke="#63b8ff" d="M125.06,-58.11C117.03,-57.01 108.91,-55.89 101.15,-54.83"/>
<polygon fill="#63b8ff" stroke="#63b8ff" points="124.44,-61.56 134.83,-59.45 125.4,-54.62 124.44,-61.56"/>
</a>
</g>
</g>
<!-- Node6 -->
<g id="Node000006" class="node">
<title>Node6</title>
<g id="a_Node000006"><a xlink:href="../../da/d62/class_a_e_timer.html#ae290234a58bd703c0953edd2925d591c" target="_top" xlink:title="Sets the new delay instead of the current.">
<polygon fill="white" stroke="#666666" points="99.25,-20 1.5,-20 1.5,0 99.25,0 99.25,-20"/>
<text text-anchor="middle" x="50.38" y="-6.5" font-family="Helvetica,sans-Serif" font-size="10.00">AETimer::setDelay</text>
</a>
</g>
</g>
<!-- Node2&#45;&gt;Node6 -->
<g id="edge5_Node000002_Node000006" class="edge">
<title>Node2&#45;&gt;Node6</title>
<g id="a_edge5_Node000002_Node000006"><a xlink:title=" ">
<path fill="none" stroke="#63b8ff" d="M155.84,-52.15C139.28,-45.01 119.04,-36.41 100.75,-29 93.77,-26.17 86.2,-23.2 79.12,-20.48"/>
<polygon fill="#63b8ff" stroke="#63b8ff" points="154.18,-55.25 164.75,-56.01 156.96,-48.82 154.18,-55.25"/>
</a>
</g>
</g>
</g>
</svg>
