<?xml version="1.0" encoding="UTF-8" standalone="no"?>
<!DOCTYPE svg PUBLIC "-//W3C//DTD SVG 1.1//EN"
 "http://www.w3.org/Graphics/SVG/1.1/DTD/svg11.dtd">
<!-- Generated by graphviz version 10.0.1 (20240210.2158)
 -->
<!-- Title: AETimer::startThread Pages: 1 -->
<svg width="539pt" height="28pt"
 viewBox="0.00 0.00 538.50 28.00" xmlns="http://www.w3.org/2000/svg" xmlns:xlink="http://www.w3.org/1999/xlink">
<g id="graph0" class="graph" transform="scale(1 1) rotate(0) translate(4 24)">
<title>AETimer::startThread</title>
<!-- Node1 -->
<g id="Node000001" class="node">
<title>Node1</title>
<g id="a_Node000001"><a xlink:title="Starts the timer thread and starts tick counting.">
<polygon fill="#999999" stroke="#666666" points="108.25,-20 0,-20 0,0 108.25,0 108.25,-20"/>
<text text-anchor="middle" x="54.12" y="-6.5" font-family="Helvetica,sans-Serif" font-size="10.00">AETimer::startThread</text>
</a>
</g>
</g>
<!-- Node2 -->
<g id="Node000002" class="node">
<title>Node2</title>
<g id="a_Node000002"><a xlink:href="../../da/d62/class_a_e_timer.html#ad5fa76b6e9233eaa415a9c70ed6ecc8d" target="_top" xlink:title="The function that does the tick counting for the timer.">
<polygon fill="white" stroke="#666666" points="243.5,-20 144.25,-20 144.25,0 243.5,0 243.5,-20"/>
<text text-anchor="middle" x="193.88" y="-6.5" font-family="Helvetica,sans-Serif" font-size="10.00">AETimer::tickTimer</text>
</a>
</g>
</g>
<!-- Node1&#45;&gt;Node2 -->
<g id="edge1_Node000001_Node000002" class="edge">
<title>Node1&#45;&gt;Node2</title>
<g id="a_edge1_Node000001_Node000002"><a xlink:title=" ">
<path fill="none" stroke="#63b8ff" d="M108.38,-10C116.31,-10 124.52,-10 132.58,-10"/>
<polygon fill="#63b8ff" stroke="#63b8ff" points="132.3,-13.5 142.3,-10 132.3,-6.5 132.3,-13.5"/>
</a>
</g>
</g>
<!-- Node3 -->
<g id="Node000003" class="node">
<title>Node3</title>
<g id="a_Node000003"><a xlink:href="../../df/dd7/class_a_e_frame.html#ad9431d91b5784bf5d1f61464e8045b13" target="_top" xlink:title="Puts the current thread to sleep for the delay that was set earlier.">
<polygon fill="white" stroke="#666666" points="366,-20 279.5,-20 279.5,0 366,0 366,-20"/>
<text text-anchor="middle" x="322.75" y="-6.5" font-family="Helvetica,sans-Serif" font-size="10.00">AEFrame::sleep</text>
</a>
</g>
</g>
<!-- Node2&#45;&gt;Node3 -->
<g id="edge2_Node000002_Node000003" class="edge">
<title>Node2&#45;&gt;Node3</title>
<g id="a_edge2_Node000002_Node000003"><a xlink:title=" ">
<path fill="none" stroke="#63b8ff" d="M243.93,-10C251.71,-10 259.79,-10 267.67,-10"/>
<polygon fill="#63b8ff" stroke="#63b8ff" points="267.51,-13.5 277.51,-10 267.51,-6.5 267.51,-13.5"/>
</a>
</g>
</g>
<!-- Node4 -->
<g id="Node000004" class="node">
<title>Node4</title>
<g id="a_Node000004"><a xlink:href="../../df/dd7/class_a_e_frame.html#a425f5ba8edab14bdf3e34fc06658e451" target="_top" xlink:title="Resets the time point in the AEFrame to the real (current) time.">
<polygon fill="white" stroke="#666666" points="530.5,-20 402,-20 402,0 530.5,0 530.5,-20"/>
<text text-anchor="middle" x="466.25" y="-6.5" font-family="Helvetica,sans-Serif" font-size="10.00">AEFrame::resetTimePoint</text>
</a>
</g>
</g>
<!-- Node3&#45;&gt;Node4 -->
<g id="edge3_Node000003_Node000004" class="edge">
<title>Node3&#45;&gt;Node4</title>
<g id="a_edge3_Node000003_Node000004"><a xlink:title=" ">
<path fill="none" stroke="#63b8ff" d="M366.2,-10C373.87,-10 382.07,-10 390.34,-10"/>
<polygon fill="#63b8ff" stroke="#63b8ff" points="390.12,-13.5 400.12,-10 390.12,-6.5 390.12,-13.5"/>
</a>
</g>
</g>
</g>
</svg>
