<?xml version="1.0" encoding="UTF-8" standalone="no"?>
<!DOCTYPE svg PUBLIC "-//W3C//DTD SVG 1.1//EN"
 "http://www.w3.org/Graphics/SVG/1.1/DTD/svg11.dtd">
<!-- Generated by graphviz version 10.0.1 (20240210.2158)
 -->
<!-- Title: AETimer::stopThread Pages: 1 -->
<svg width="255pt" height="66pt"
 viewBox="0.00 0.00 254.50 66.00" xmlns="http://www.w3.org/2000/svg" xmlns:xlink="http://www.w3.org/1999/xlink">
<g id="graph0" class="graph" transform="scale(1 1) rotate(0) translate(4 62)">
<title>AETimer::stopThread</title>
<!-- Node1 -->
<g id="Node000001" class="node">
<title>Node1</title>
<g id="a_Node000001"><a xlink:title="Stops the timer thread and stops tick counting.">
<polygon fill="#999999" stroke="#666666" points="246.5,-39 139,-39 139,-19 246.5,-19 246.5,-39"/>
<text text-anchor="middle" x="192.75" y="-25.5" font-family="Helvetica,sans-Serif" font-size="10.00">AETimer::stopThread</text>
</a>
</g>
</g>
<!-- Node2 -->
<g id="Node000002" class="node">
<title>Node2</title>
<g id="a_Node000002"><a xlink:href="../../da/d62/class_a_e_timer.html#a57e2aab044b69dc3ca834709c46876b1" target="_top" xlink:title="Class destructor.">
<polygon fill="white" stroke="#666666" points="103,-58 0,-58 0,-38 103,-38 103,-58"/>
<text text-anchor="middle" x="51.5" y="-44.5" font-family="Helvetica,sans-Serif" font-size="10.00">AETimer::~AETimer</text>
</a>
</g>
</g>
<!-- Node1&#45;&gt;Node2 -->
<g id="edge1_Node000001_Node000002" class="edge">
<title>Node1&#45;&gt;Node2</title>
<g id="a_edge1_Node000001_Node000002"><a xlink:title=" ">
<path fill="none" stroke="#63b8ff" d="M127.33,-37.79C119.2,-38.9 110.97,-40.02 103.1,-41.1"/>
<polygon fill="#63b8ff" stroke="#63b8ff" points="127.77,-41.26 137.21,-36.44 126.83,-34.33 127.77,-41.26"/>
</a>
</g>
</g>
<!-- Node3 -->
<g id="Node000003" class="node">
<title>Node3</title>
<g id="a_Node000003"><a xlink:href="../../da/d62/class_a_e_timer.html#ae290234a58bd703c0953edd2925d591c" target="_top" xlink:title="Sets the new delay instead of the current.">
<polygon fill="white" stroke="#666666" points="100.38,-20 2.62,-20 2.62,0 100.38,0 100.38,-20"/>
<text text-anchor="middle" x="51.5" y="-6.5" font-family="Helvetica,sans-Serif" font-size="10.00">AETimer::setDelay</text>
</a>
</g>
</g>
<!-- Node1&#45;&gt;Node3 -->
<g id="edge2_Node000001_Node000003" class="edge">
<title>Node1&#45;&gt;Node3</title>
<g id="a_edge2_Node000001_Node000003"><a xlink:title=" ">
<path fill="none" stroke="#63b8ff" d="M127.47,-20.23C118.5,-19.01 109.42,-17.77 100.82,-16.59"/>
<polygon fill="#63b8ff" stroke="#63b8ff" points="126.83,-23.67 137.21,-21.56 127.77,-16.74 126.83,-23.67"/>
</a>
</g>
</g>
</g>
</svg>
