<?xml version="1.0" encoding="UTF-8" standalone="no"?>
<!DOCTYPE svg PUBLIC "-//W3C//DTD SVG 1.1//EN"
 "http://www.w3.org/Graphics/SVG/1.1/DTD/svg11.dtd">
<!-- Generated by graphviz version 10.0.1 (20240210.2158)
 -->
<!-- Title: AETimer::waitTicks Pages: 1 -->
<svg width="376pt" height="28pt"
 viewBox="0.00 0.00 375.50 28.00" xmlns="http://www.w3.org/2000/svg" xmlns:xlink="http://www.w3.org/1999/xlink">
<g id="graph0" class="graph" transform="scale(1 1) rotate(0) translate(4 24)">
<title>AETimer::waitTicks</title>
<!-- Node1 -->
<g id="Node000001" class="node">
<title>Node1</title>
<g id="a_Node000001"><a xlink:title="Stops and sleeps the thread untill the given timer goes through certain tick amount.">
<polygon fill="#999999" stroke="#666666" points="100,-20 0,-20 0,0 100,0 100,-20"/>
<text text-anchor="middle" x="50" y="-6.5" font-family="Helvetica,sans-Serif" font-size="10.00">AETimer::waitTicks</text>
</a>
</g>
</g>
<!-- Node2 -->
<g id="Node000002" class="node">
<title>Node2</title>
<g id="a_Node000002"><a xlink:href="../../da/d62/class_a_e_timer.html#ab5e98fa75b71f6280ae8ae16367dd97c" target="_top" xlink:title="Stops and sleeps the thread untill the given timer hits the certain tick number.">
<polygon fill="white" stroke="#666666" points="245,-20 136,-20 136,0 245,0 245,-20"/>
<text text-anchor="middle" x="190.5" y="-6.5" font-family="Helvetica,sans-Serif" font-size="10.00">AETimer::waitForTick</text>
</a>
</g>
</g>
<!-- Node1&#45;&gt;Node2 -->
<g id="edge1_Node000001_Node000002" class="edge">
<title>Node1&#45;&gt;Node2</title>
<g id="a_edge1_Node000001_Node000002"><a xlink:title=" ">
<path fill="none" stroke="#63b8ff" d="M100.22,-10C108.04,-10 116.24,-10 124.35,-10"/>
<polygon fill="#63b8ff" stroke="#63b8ff" points="124.22,-13.5 134.22,-10 124.22,-6.5 124.22,-13.5"/>
</a>
</g>
</g>
<!-- Node3 -->
<g id="Node000003" class="node">
<title>Node3</title>
<g id="a_Node000003"><a xlink:href="../../df/dd7/class_a_e_frame.html#ad9431d91b5784bf5d1f61464e8045b13" target="_top" xlink:title="Puts the current thread to sleep up to the set fps goal.">
<polygon fill="white" stroke="#666666" points="367.5,-20 281,-20 281,0 367.5,0 367.5,-20"/>
<text text-anchor="middle" x="324.25" y="-6.5" font-family="Helvetica,sans-Serif" font-size="10.00">AEFrame::sleep</text>
</a>
</g>
</g>
<!-- Node2&#45;&gt;Node3 -->
<g id="edge2_Node000002_Node000003" class="edge">
<title>Node2&#45;&gt;Node3</title>
<g id="a_edge2_Node000002_Node000003"><a xlink:title=" ">
<path fill="none" stroke="#63b8ff" d="M245.47,-10C253.39,-10 261.56,-10 269.48,-10"/>
<polygon fill="#63b8ff" stroke="#63b8ff" points="269.34,-13.5 279.34,-10 269.34,-6.5 269.34,-13.5"/>
</a>
</g>
</g>
</g>
</svg>
