<?xml version="1.0" encoding="UTF-8" standalone="no"?>
<!DOCTYPE svg PUBLIC "-//W3C//DTD SVG 1.1//EN"
 "http://www.w3.org/Graphics/SVG/1.1/DTD/svg11.dtd">
<!-- Generated by graphviz version 10.0.1 (20240210.2158)
 -->
<!-- Title: AETimer::waitForTick Pages: 1 -->
<svg width="404pt" height="28pt"
 viewBox="0.00 0.00 404.00 28.00" xmlns="http://www.w3.org/2000/svg" xmlns:xlink="http://www.w3.org/1999/xlink">
<g id="graph0" class="graph" transform="scale(1 1) rotate(0) translate(4 24)">
<title>AETimer::waitForTick</title>
<!-- Node1 -->
<g id="Node000001" class="node">
<title>Node1</title>
<g id="a_Node000001"><a xlink:title="Stops and sleeps the thread untill the given timer hits the certain tick number.">
<polygon fill="#999999" stroke="#666666" points="109,-20 0,-20 0,0 109,0 109,-20"/>
<text text-anchor="middle" x="54.5" y="-6.5" font-family="Helvetica,sans-Serif" font-size="10.00">AETimer::waitForTick</text>
</a>
</g>
</g>
<!-- Node2 -->
<g id="Node000002" class="node">
<title>Node2</title>
<g id="a_Node000002"><a xlink:href="../../df/dd7/class_a_e_frame.html#ad9431d91b5784bf5d1f61464e8045b13" target="_top" xlink:title="Puts the current thread to sleep for the delay that was set earlier.">
<polygon fill="white" stroke="#666666" points="231.5,-20 145,-20 145,0 231.5,0 231.5,-20"/>
<text text-anchor="middle" x="188.25" y="-6.5" font-family="Helvetica,sans-Serif" font-size="10.00">AEFrame::sleep</text>
</a>
</g>
</g>
<!-- Node1&#45;&gt;Node2 -->
<g id="edge1_Node000001_Node000002" class="edge">
<title>Node1&#45;&gt;Node2</title>
<g id="a_edge1_Node000001_Node000002"><a xlink:title=" ">
<path fill="none" stroke="#63b8ff" d="M109.47,-10C117.39,-10 125.56,-10 133.48,-10"/>
<polygon fill="#63b8ff" stroke="#63b8ff" points="133.34,-13.5 143.34,-10 133.34,-6.5 133.34,-13.5"/>
</a>
</g>
</g>
<!-- Node3 -->
<g id="Node000003" class="node">
<title>Node3</title>
<g id="a_Node000003"><a xlink:href="../../df/dd7/class_a_e_frame.html#a425f5ba8edab14bdf3e34fc06658e451" target="_top" xlink:title="Resets the time point in the AEFrame to the real (current) time.">
<polygon fill="white" stroke="#666666" points="396,-20 267.5,-20 267.5,0 396,0 396,-20"/>
<text text-anchor="middle" x="331.75" y="-6.5" font-family="Helvetica,sans-Serif" font-size="10.00">AEFrame::resetTimePoint</text>
</a>
</g>
</g>
<!-- Node2&#45;&gt;Node3 -->
<g id="edge2_Node000002_Node000003" class="edge">
<title>Node2&#45;&gt;Node3</title>
<g id="a_edge2_Node000002_Node000003"><a xlink:title=" ">
<path fill="none" stroke="#63b8ff" d="M231.7,-10C239.37,-10 247.57,-10 255.84,-10"/>
<polygon fill="#63b8ff" stroke="#63b8ff" points="255.62,-13.5 265.62,-10 255.62,-6.5 255.62,-13.5"/>
</a>
</g>
</g>
</g>
</svg>
