<?xml version="1.0" encoding="UTF-8" standalone="no"?>
<!DOCTYPE svg PUBLIC "-//W3C//DTD SVG 1.1//EN"
 "http://www.w3.org/Graphics/SVG/1.1/DTD/svg11.dtd">
<!-- Generated by graphviz version 10.0.1 (20240210.2158)
 -->
<!-- Title: AETimer::operator= Pages: 1 -->
<svg width="511pt" height="28pt"
 viewBox="0.00 0.00 510.75 28.00" xmlns="http://www.w3.org/2000/svg" xmlns:xlink="http://www.w3.org/1999/xlink">
<g id="graph0" class="graph" transform="scale(1 1) rotate(0) translate(4 24)">
<title>AETimer::operator=</title>
<!-- Node1 -->
<g id="Node000001" class="node">
<title>Node1</title>
<g id="a_Node000001"><a xlink:title="The copy assignment operator.">
<polygon fill="#999999" stroke="#666666" points="100.75,-20 0,-20 0,0 100.75,0 100.75,-20"/>
<text text-anchor="middle" x="50.38" y="-6.5" font-family="Helvetica,sans-Serif" font-size="10.00">AETimer::operator=</text>
</a>
</g>
</g>
<!-- Node2 -->
<g id="Node000002" class="node">
<title>Node2</title>
<g id="a_Node000002"><a xlink:href="../../da/d62/class_a_e_timer.html#a022b44a8e9b9e2a314e0ac3ecc759062" target="_top" xlink:title="Starts the timer thread and starts tick counting.">
<polygon fill="white" stroke="#666666" points="245,-20 136.75,-20 136.75,0 245,0 245,-20"/>
<text text-anchor="middle" x="190.88" y="-6.5" font-family="Helvetica,sans-Serif" font-size="10.00">AETimer::startThread</text>
</a>
</g>
</g>
<!-- Node1&#45;&gt;Node2 -->
<g id="edge1_Node000001_Node000002" class="edge">
<title>Node1&#45;&gt;Node2</title>
<g id="a_edge1_Node000001_Node000002"><a xlink:title=" ">
<path fill="none" stroke="#63b8ff" d="M100.99,-10C108.79,-10 116.96,-10 125.05,-10"/>
<polygon fill="#63b8ff" stroke="#63b8ff" points="124.88,-13.5 134.88,-10 124.88,-6.5 124.88,-13.5"/>
</a>
</g>
</g>
<!-- Node3 -->
<g id="Node000003" class="node">
<title>Node3</title>
<g id="a_Node000003"><a xlink:href="../../da/d62/class_a_e_timer.html#ad5fa76b6e9233eaa415a9c70ed6ecc8d" target="_top" xlink:title="The function that does the tick counting for the timer.">
<polygon fill="white" stroke="#666666" points="380.25,-20 281,-20 281,0 380.25,0 380.25,-20"/>
<text text-anchor="middle" x="330.62" y="-6.5" font-family="Helvetica,sans-Serif" font-size="10.00">AETimer::tickTimer</text>
</a>
</g>
</g>
<!-- Node2&#45;&gt;Node3 -->
<g id="edge2_Node000002_Node000003" class="edge">
<title>Node2&#45;&gt;Node3</title>
<g id="a_edge2_Node000002_Node000003"><a xlink:title=" ">
<path fill="none" stroke="#63b8ff" d="M245.13,-10C253.06,-10 261.27,-10 269.33,-10"/>
<polygon fill="#63b8ff" stroke="#63b8ff" points="269.05,-13.5 279.05,-10 269.05,-6.5 269.05,-13.5"/>
</a>
</g>
</g>
<!-- Node4 -->
<g id="Node000004" class="node">
<title>Node4</title>
<g id="a_Node000004"><a xlink:href="../../df/dd7/class_a_e_frame.html#ad9431d91b5784bf5d1f61464e8045b13" target="_top" xlink:title="Puts the current thread to sleep up to the set fps goal.">
<polygon fill="white" stroke="#666666" points="502.75,-20 416.25,-20 416.25,0 502.75,0 502.75,-20"/>
<text text-anchor="middle" x="459.5" y="-6.5" font-family="Helvetica,sans-Serif" font-size="10.00">AEFrame::sleep</text>
</a>
</g>
</g>
<!-- Node3&#45;&gt;Node4 -->
<g id="edge3_Node000003_Node000004" class="edge">
<title>Node3&#45;&gt;Node4</title>
<g id="a_edge3_Node000003_Node000004"><a xlink:title=" ">
<path fill="none" stroke="#63b8ff" d="M380.68,-10C388.46,-10 396.54,-10 404.42,-10"/>
<polygon fill="#63b8ff" stroke="#63b8ff" points="404.26,-13.5 414.26,-10 404.26,-6.5 404.26,-13.5"/>
</a>
</g>
</g>
</g>
</svg>
