<?xml version="1.0" encoding="UTF-8" standalone="no"?>
<!DOCTYPE svg PUBLIC "-//W3C//DTD SVG 1.1//EN"
 "http://www.w3.org/Graphics/SVG/1.1/DTD/svg11.dtd">
<!-- Generated by graphviz version 10.0.1 (20240210.2158)
 -->
<!-- Title: AEMisc/include/AETypedefs.hpp Pages: 1 -->
<svg width="1037pt" height="308pt"
 viewBox="0.00 0.00 1037.25 308.00" xmlns="http://www.w3.org/2000/svg" xmlns:xlink="http://www.w3.org/1999/xlink">
<g id="graph0" class="graph" transform="scale(1 1) rotate(0) translate(4 304)">
<title>AEMisc/include/AETypedefs.hpp</title>
<!-- Node1 -->
<g id="Node000001" class="node">
<title>Node1</title>
<g id="a_Node000001"><a xlink:title="This file contains the engine&#39;s typedefs and variable type aliases.">
<polygon fill="#999999" stroke="#666666" points="559.5,-300 401,-300 401,-280 559.5,-280 559.5,-300"/>
<text text-anchor="middle" x="480.25" y="-286.5" font-family="Helvetica,sans-Serif" font-size="10.00">AEMisc/include/AETypedefs.hpp</text>
</a>
</g>
</g>
<!-- Node2 -->
<g id="Node000002" class="node">
<title>Node2</title>
<g id="a_Node000002"><a xlink:href="../../db/dcb/_a_e_log_entry_info_8hpp.html" target="_top" xlink:title=" ">
<polygon fill="white" stroke="#666666" points="212.5,-244 0,-244 0,-224 212.5,-224 212.5,-244"/>
<text text-anchor="middle" x="106.25" y="-230.5" font-family="Helvetica,sans-Serif" font-size="10.00">AECustomTypes/include/AELogEntryInfo.hpp</text>
</a>
</g>
</g>
<!-- Node1&#45;&gt;Node2 -->
<g id="edge1_Node000001_Node000002" class="edge">
<title>Node1&#45;&gt;Node2</title>
<g id="a_edge1_Node000001_Node000002"><a xlink:title=" ">
<path fill="none" stroke="#63b8ff" d="M403.57,-277.93C335.27,-268.07 236.42,-253.79 171.75,-244.46"/>
<polygon fill="#63b8ff" stroke="#63b8ff" points="402.78,-281.35 413.18,-279.32 403.78,-274.42 402.78,-281.35"/>
</a>
</g>
</g>
<!-- Node5 -->
<g id="Node000005" class="node">
<title>Node5</title>
<g id="a_Node000005"><a xlink:href="../../d1/da4/_a_e_math_8hpp.html" target="_top" xlink:title="This file contains the engine&#39;s math and math&#45;related functions.">
<polygon fill="white" stroke="#666666" points="424.88,-244 283.62,-244 283.62,-224 424.88,-224 424.88,-244"/>
<text text-anchor="middle" x="354.25" y="-230.5" font-family="Helvetica,sans-Serif" font-size="10.00">AEMisc/include/AEMath.hpp</text>
</a>
</g>
</g>
<!-- Node1&#45;&gt;Node5 -->
<g id="edge4_Node000001_Node000005" class="edge">
<title>Node1&#45;&gt;Node5</title>
<g id="a_edge4_Node000001_Node000005"><a xlink:title=" ">
<path fill="none" stroke="#63b8ff" d="M447.91,-275.14C425.47,-265.52 396.18,-252.97 376.37,-244.48"/>
<polygon fill="#63b8ff" stroke="#63b8ff" points="446.34,-278.28 456.91,-279 449.1,-271.84 446.34,-278.28"/>
</a>
</g>
</g>
<!-- Node8 -->
<g id="Node000008" class="node">
<title>Node8</title>
<g id="a_Node000008"><a xlink:href="../../de/de8/_a_e_utils_8hpp.html" target="_top" xlink:title="This file contains the engine&#39;s usefull utilities for trivial tasks.">
<polygon fill="white" stroke="#666666" points="644.75,-188 505.75,-188 505.75,-168 644.75,-168 644.75,-188"/>
<text text-anchor="middle" x="575.25" y="-174.5" font-family="Helvetica,sans-Serif" font-size="10.00">AEMisc/include/AEUtils.hpp</text>
</a>
</g>
</g>
<!-- Node1&#45;&gt;Node8 -->
<g id="edge8_Node000001_Node000008" class="edge">
<title>Node1&#45;&gt;Node8</title>
<g id="a_edge8_Node000001_Node000008"><a xlink:title=" ">
<path fill="none" stroke="#63b8ff" d="M482.31,-268.41C484.57,-254.65 489.31,-236.8 499.25,-224 512.13,-207.41 532.99,-195.69 549.6,-188.38"/>
<polygon fill="#63b8ff" stroke="#63b8ff" points="478.86,-267.77 481.04,-278.13 485.8,-268.67 478.86,-267.77"/>
</a>
</g>
</g>
<!-- Node16 -->
<g id="Node000016" class="node">
<title>Node16</title>
<g id="a_Node000016"><a xlink:href="../../d9/d6a/_a_e_utils_macros_8hpp.html" target="_top" xlink:title="This file contains the engine&#39;s macros for trivial tasks.">
<polygon fill="white" stroke="#666666" points="679.88,-244 508.62,-244 508.62,-224 679.88,-224 679.88,-244"/>
<text text-anchor="middle" x="594.25" y="-230.5" font-family="Helvetica,sans-Serif" font-size="10.00">AEMisc/include/AEUtilsMacros.hpp</text>
</a>
</g>
</g>
<!-- Node1&#45;&gt;Node16 -->
<g id="edge19_Node000001_Node000016" class="edge">
<title>Node1&#45;&gt;Node16</title>
<g id="a_edge19_Node000001_Node000016"><a xlink:title=" ">
<path fill="none" stroke="#63b8ff" d="M510.34,-274.75C530.53,-265.18 556.56,-252.85 574.24,-244.48"/>
<polygon fill="#63b8ff" stroke="#63b8ff" points="509.01,-271.5 501.48,-278.95 512.01,-277.83 509.01,-271.5"/>
</a>
</g>
</g>
<!-- Node17 -->
<g id="Node000017" class="node">
<title>Node17</title>
<g id="a_Node000017"><a xlink:href="../../d7/d7f/_a_e_module_base_8hpp.html" target="_top" xlink:title="This file contains the engine&#39;s basic module template.">
<polygon fill="white" stroke="#666666" points="869.5,-188 663,-188 663,-168 869.5,-168 869.5,-188"/>
<text text-anchor="middle" x="766.25" y="-174.5" font-family="Helvetica,sans-Serif" font-size="10.00">AEModuleBase/include/AEModuleBase.hpp</text>
</a>
</g>
</g>
<!-- Node1&#45;&gt;Node17 -->
<g id="edge27_Node000001_Node000017" class="edge">
<title>Node1&#45;&gt;Node17</title>
<g id="a_edge27_Node000001_Node000017"><a xlink:title=" ">
<path fill="none" stroke="#63b8ff" d="M570.99,-279.33C608.94,-272.82 652.64,-261.98 689.25,-244 718.14,-229.81 745.28,-202.44 758.26,-188.16"/>
<polygon fill="#63b8ff" stroke="#63b8ff" points="570.73,-275.83 561.43,-280.89 571.86,-282.74 570.73,-275.83"/>
</a>
</g>
</g>
<!-- Node3 -->
<g id="Node000003" class="node">
<title>Node3</title>
<g id="a_Node000003"><a xlink:href="../../d0/dab/_a_e_log_parser_8hpp.html" target="_top" xlink:title=" ">
<polygon fill="white" stroke="#666666" points="215.75,-76 28.75,-76 28.75,-56 215.75,-56 215.75,-76"/>
<text text-anchor="middle" x="122.25" y="-62.5" font-family="Helvetica,sans-Serif" font-size="10.00">AELogParser/include/AELogParser.hpp</text>
</a>
</g>
</g>
<!-- Node2&#45;&gt;Node3 -->
<g id="edge2_Node000002_Node000003" class="edge">
<title>Node2&#45;&gt;Node3</title>
<g id="a_edge2_Node000002_Node000003"><a xlink:title=" ">
<path fill="none" stroke="#63b8ff" d="M94.59,-214.01C90.46,-206.24 86.33,-196.98 84.25,-188 76.64,-155.09 72.65,-143.72 84.25,-112 89.52,-97.6 101.66,-84.62 110.81,-76.35"/>
<polygon fill="#63b8ff" stroke="#63b8ff" points="91.44,-215.57 99.45,-222.5 97.51,-212.09 91.44,-215.57"/>
</a>
</g>
</g>
<!-- Node4 -->
<g id="Node000004" class="node">
<title>Node4</title>
<g id="a_Node000004"><a xlink:href="../../d2/d77/_a_e_log_parser_8cpp.html" target="_top" xlink:title=" ">
<polygon fill="white" stroke="#666666" points="207.12,-20 37.38,-20 37.38,0 207.12,0 207.12,-20"/>
<text text-anchor="middle" x="122.25" y="-6.5" font-family="Helvetica,sans-Serif" font-size="10.00">AELogParser/src/AELogParser.cpp</text>
</a>
</g>
</g>
<!-- Node3&#45;&gt;Node4 -->
<g id="edge3_Node000003_Node000004" class="edge">
<title>Node3&#45;&gt;Node4</title>
<g id="a_edge3_Node000003_Node000004"><a xlink:title=" ">
<path fill="none" stroke="#63b8ff" d="M122.25,-44.13C122.25,-35.9 122.25,-26.85 122.25,-20.3"/>
<polygon fill="#63b8ff" stroke="#63b8ff" points="118.75,-44.08 122.25,-54.08 125.75,-44.08 118.75,-44.08"/>
</a>
</g>
</g>
<!-- Node5&#45;&gt;Node3 -->
<g id="edge5_Node000005_Node000003" class="edge">
<title>Node5&#45;&gt;Node3</title>
<g id="a_edge5_Node000005_Node000003"><a xlink:title=" ">
<path fill="none" stroke="#63b8ff" d="M272.15,-228.33C211.73,-222.97 136.83,-211.65 117.25,-188 90.03,-155.13 109.12,-98.3 118.2,-76.18"/>
<polygon fill="#63b8ff" stroke="#63b8ff" points="271.48,-231.78 281.74,-229.13 272.07,-224.81 271.48,-231.78"/>
</a>
</g>
</g>
<!-- Node6 -->
<g id="Node000006" class="node">
<title>Node6</title>
<g id="a_Node000006"><a xlink:href="../../d2/d57/_a_e_math_trig_lookup_8hpp.html" target="_top" xlink:title="This file contains the engine&#39;s trigonometric function lookup tables.">
<polygon fill="white" stroke="#666666" points="314.5,-188 126,-188 126,-168 314.5,-168 314.5,-188"/>
<text text-anchor="middle" x="220.25" y="-174.5" font-family="Helvetica,sans-Serif" font-size="10.00">AEMisc/include/AEMathTrigLookup.hpp</text>
</a>
</g>
</g>
<!-- Node5&#45;&gt;Node6 -->
<g id="edge6_Node000005_Node000006" class="edge">
<title>Node5&#45;&gt;Node6</title>
<g id="a_edge6_Node000005_Node000006"><a xlink:title=" ">
<path fill="none" stroke="#63b8ff" d="M320.51,-219.4C296.56,-209.75 265.03,-197.05 243.77,-188.48"/>
<polygon fill="#63b8ff" stroke="#63b8ff" points="318.92,-222.54 329.51,-223.03 321.54,-216.04 318.92,-222.54"/>
</a>
</g>
</g>
<!-- Node7 -->
<g id="Node000007" class="node">
<title>Node7</title>
<g id="a_Node000007"><a xlink:href="../../d7/d09/_a_e_vector_8hpp.html" target="_top" xlink:title=" ">
<polygon fill="white" stroke="#666666" points="488,-188 332.5,-188 332.5,-168 488,-168 488,-188"/>
<text text-anchor="middle" x="410.25" y="-174.5" font-family="Helvetica,sans-Serif" font-size="10.00">AEVector/include/AEVector.hpp</text>
</a>
</g>
</g>
<!-- Node5&#45;&gt;Node7 -->
<g id="edge7_Node000005_Node000007" class="edge">
<title>Node5&#45;&gt;Node7</title>
<g id="a_edge7_Node000005_Node000007"><a xlink:title=" ">
<path fill="none" stroke="#63b8ff" d="M372.04,-215.85C381.5,-206.72 392.77,-195.86 400.61,-188.3"/>
<polygon fill="#63b8ff" stroke="#63b8ff" points="369.86,-213.08 365.09,-222.54 374.72,-218.12 369.86,-213.08"/>
</a>
</g>
</g>
<!-- Node9 -->
<g id="Node000009" class="node">
<title>Node9</title>
<g id="a_Node000009"><a xlink:href="../../dc/dc6/_a_e_log_entry_8hpp.html" target="_top" xlink:title=" ">
<polygon fill="white" stroke="#666666" points="657,-132 459.5,-132 459.5,-112 657,-112 657,-132"/>
<text text-anchor="middle" x="558.25" y="-118.5" font-family="Helvetica,sans-Serif" font-size="10.00">AECustomTypes/include/AELogEntry.hpp</text>
</a>
</g>
</g>
<!-- Node8&#45;&gt;Node9 -->
<g id="edge9_Node000008_Node000009" class="edge">
<title>Node8&#45;&gt;Node9</title>
<g id="a_edge9_Node000008_Node000009"><a xlink:title=" ">
<path fill="none" stroke="#63b8ff" d="M568.86,-156.71C566.22,-148.32 563.29,-139.01 561.18,-132.3"/>
<polygon fill="#63b8ff" stroke="#63b8ff" points="565.49,-157.66 571.83,-166.15 572.17,-155.56 565.49,-157.66"/>
</a>
</g>
</g>
<!-- Node12 -->
<g id="Node000012" class="node">
<title>Node12</title>
<g id="a_Node000012"><a xlink:href="../../d3/dda/_a_e_file_reader_8hpp.html" target="_top" xlink:title=" ">
<polygon fill="white" stroke="#666666" points="441,-132 249.5,-132 249.5,-112 441,-112 441,-132"/>
<text text-anchor="middle" x="345.25" y="-118.5" font-family="Helvetica,sans-Serif" font-size="10.00">AEFileReader/include/AEFileReader.hpp</text>
</a>
</g>
</g>
<!-- Node8&#45;&gt;Node12 -->
<g id="edge13_Node000008_Node000012" class="edge">
<title>Node8&#45;&gt;Node12</title>
<g id="a_edge13_Node000008_Node000012"><a xlink:title=" ">
<path fill="none" stroke="#63b8ff" d="M523.87,-164.94C482.1,-155.13 423.99,-141.49 385.53,-132.46"/>
<polygon fill="#63b8ff" stroke="#63b8ff" points="522.92,-168.31 533.45,-167.19 524.52,-161.49 522.92,-168.31"/>
</a>
</g>
</g>
<!-- Node14 -->
<g id="Node000014" class="node">
<title>Node14</title>
<g id="a_Node000014"><a xlink:href="../../db/da4/_a_e_file_writer_8hpp.html" target="_top" xlink:title=" ">
<polygon fill="white" stroke="#666666" points="857.5,-132 675,-132 675,-112 857.5,-112 857.5,-132"/>
<text text-anchor="middle" x="766.25" y="-118.5" font-family="Helvetica,sans-Serif" font-size="10.00">AEFileWriter/include/AEFileWriter.hpp</text>
</a>
</g>
</g>
<!-- Node8&#45;&gt;Node14 -->
<g id="edge16_Node000008_Node000014" class="edge">
<title>Node8&#45;&gt;Node14</title>
<g id="a_edge16_Node000008_Node000014"><a xlink:title=" ">
<path fill="none" stroke="#63b8ff" d="M619.25,-164.56C653.81,-154.79 701.19,-141.39 732.72,-132.48"/>
<polygon fill="#63b8ff" stroke="#63b8ff" points="618.65,-161.09 609.98,-167.18 620.55,-167.83 618.65,-161.09"/>
</a>
</g>
</g>
<!-- Node9&#45;&gt;Node3 -->
<g id="edge10_Node000009_Node000003" class="edge">
<title>Node9&#45;&gt;Node3</title>
<g id="a_edge10_Node000009_Node000003"><a xlink:title=" ">
<path fill="none" stroke="#63b8ff" d="M470.58,-110.14C391,-100.29 274.82,-85.9 198.88,-76.49"/>
<polygon fill="#63b8ff" stroke="#63b8ff" points="469.7,-113.56 480.05,-111.32 470.56,-106.61 469.7,-113.56"/>
</a>
</g>
</g>
<!-- Node10 -->
<g id="Node000010" class="node">
<title>Node10</title>
<g id="a_Node000010"><a xlink:href="../../d4/d9f/_a_e_logger_8hpp.html" target="_top" xlink:title=" ">
<polygon fill="white" stroke="#666666" points="650.75,-76 493.75,-76 493.75,-56 650.75,-56 650.75,-76"/>
<text text-anchor="middle" x="572.25" y="-62.5" font-family="Helvetica,sans-Serif" font-size="10.00">AELogger/include/AELogger.hpp</text>
</a>
</g>
</g>
<!-- Node9&#45;&gt;Node10 -->
<g id="edge11_Node000009_Node000010" class="edge">
<title>Node9&#45;&gt;Node10</title>
<g id="a_edge11_Node000009_Node000010"><a xlink:title=" ">
<path fill="none" stroke="#63b8ff" d="M563.51,-100.71C565.68,-92.32 568.1,-83.01 569.84,-76.3"/>
<polygon fill="#63b8ff" stroke="#63b8ff" points="560.19,-99.57 561.07,-110.13 566.97,-101.33 560.19,-99.57"/>
</a>
</g>
</g>
<!-- Node11 -->
<g id="Node000011" class="node">
<title>Node11</title>
<g id="a_Node000011"><a xlink:href="../../db/da0/_a_e_logger_8cpp.html" target="_top" xlink:title=" ">
<polygon fill="white" stroke="#666666" points="642.12,-20 502.38,-20 502.38,0 642.12,0 642.12,-20"/>
<text text-anchor="middle" x="572.25" y="-6.5" font-family="Helvetica,sans-Serif" font-size="10.00">AELogger/src/AELogger.cpp</text>
</a>
</g>
</g>
<!-- Node10&#45;&gt;Node11 -->
<g id="edge12_Node000010_Node000011" class="edge">
<title>Node10&#45;&gt;Node11</title>
<g id="a_edge12_Node000010_Node000011"><a xlink:title=" ">
<path fill="none" stroke="#63b8ff" d="M572.25,-44.13C572.25,-35.9 572.25,-26.85 572.25,-20.3"/>
<polygon fill="#63b8ff" stroke="#63b8ff" points="568.75,-44.08 572.25,-54.08 575.75,-44.08 568.75,-44.08"/>
</a>
</g>
</g>
<!-- Node12&#45;&gt;Node3 -->
<g id="edge15_Node000012_Node000003" class="edge">
<title>Node12&#45;&gt;Node3</title>
<g id="a_edge15_Node000012_Node000003"><a xlink:title=" ">
<path fill="none" stroke="#63b8ff" d="M295.18,-108.88C254.7,-99.07 198.51,-85.47 161.3,-76.46"/>
<polygon fill="#63b8ff" stroke="#63b8ff" points="294.14,-112.22 304.68,-111.18 295.78,-105.42 294.14,-112.22"/>
</a>
</g>
</g>
<!-- Node13 -->
<g id="Node000013" class="node">
<title>Node13</title>
<g id="a_Node000013"><a xlink:href="../../d9/d6e/_a_e_file_reader_8cpp.html" target="_top" xlink:title=" ">
<polygon fill="white" stroke="#666666" points="432.38,-76 258.12,-76 258.12,-56 432.38,-56 432.38,-76"/>
<text text-anchor="middle" x="345.25" y="-62.5" font-family="Helvetica,sans-Serif" font-size="10.00">AEFileReader/src/AEFileReader.cpp</text>
</a>
</g>
</g>
<!-- Node12&#45;&gt;Node13 -->
<g id="edge14_Node000012_Node000013" class="edge">
<title>Node12&#45;&gt;Node13</title>
<g id="a_edge14_Node000012_Node000013"><a xlink:title=" ">
<path fill="none" stroke="#63b8ff" d="M345.25,-100.13C345.25,-91.9 345.25,-82.85 345.25,-76.3"/>
<polygon fill="#63b8ff" stroke="#63b8ff" points="341.75,-100.08 345.25,-110.08 348.75,-100.08 341.75,-100.08"/>
</a>
</g>
</g>
<!-- Node14&#45;&gt;Node10 -->
<g id="edge18_Node000014_Node000010" class="edge">
<title>Node14&#45;&gt;Node10</title>
<g id="a_edge18_Node000014_Node000010"><a xlink:title=" ">
<path fill="none" stroke="#63b8ff" d="M721.56,-108.56C686.46,-98.79 638.33,-85.39 606.31,-76.48"/>
<polygon fill="#63b8ff" stroke="#63b8ff" points="720.43,-111.88 731,-111.19 722.3,-105.13 720.43,-111.88"/>
</a>
</g>
</g>
<!-- Node15 -->
<g id="Node000015" class="node">
<title>Node15</title>
<g id="a_Node000015"><a xlink:href="../../d0/d56/_a_e_file_writer_8cpp.html" target="_top" xlink:title=" ">
<polygon fill="white" stroke="#666666" points="848.88,-76 683.62,-76 683.62,-56 848.88,-56 848.88,-76"/>
<text text-anchor="middle" x="766.25" y="-62.5" font-family="Helvetica,sans-Serif" font-size="10.00">AEFileWriter/src/AEFileWriter.cpp</text>
</a>
</g>
</g>
<!-- Node14&#45;&gt;Node15 -->
<g id="edge17_Node000014_Node000015" class="edge">
<title>Node14&#45;&gt;Node15</title>
<g id="a_edge17_Node000014_Node000015"><a xlink:title=" ">
<path fill="none" stroke="#63b8ff" d="M766.25,-100.13C766.25,-91.9 766.25,-82.85 766.25,-76.3"/>
<polygon fill="#63b8ff" stroke="#63b8ff" points="762.75,-100.08 766.25,-110.08 769.75,-100.08 762.75,-100.08"/>
</a>
</g>
</g>
<!-- Node16&#45;&gt;Node8 -->
<g id="edge20_Node000016_Node000008" class="edge">
<title>Node16&#45;&gt;Node8</title>
<g id="a_edge20_Node000016_Node000008"><a xlink:title=" ">
<path fill="none" stroke="#63b8ff" d="M587.21,-213C584.24,-204.54 580.91,-195.08 578.52,-188.3"/>
<polygon fill="#63b8ff" stroke="#63b8ff" points="583.82,-213.89 590.44,-222.17 590.42,-211.57 583.82,-213.89"/>
</a>
</g>
</g>
<!-- Node16&#45;&gt;Node17 -->
<g id="edge21_Node000016_Node000017" class="edge">
<title>Node16&#45;&gt;Node17</title>
<g id="a_edge21_Node000016_Node000017"><a xlink:title=" ">
<path fill="none" stroke="#63b8ff" d="M635.09,-220.18C666.1,-210.44 708.03,-197.28 736.06,-188.48"/>
<polygon fill="#63b8ff" stroke="#63b8ff" points="634.15,-216.81 625.65,-223.14 636.24,-223.48 634.15,-216.81"/>
</a>
</g>
</g>
<!-- Node17&#45;&gt;Node9 -->
<g id="edge22_Node000017_Node000009" class="edge">
<title>Node17&#45;&gt;Node9</title>
<g id="a_edge22_Node000017_Node000009"><a xlink:title=" ">
<path fill="none" stroke="#63b8ff" d="M719.31,-164.81C681.6,-155.02 629.39,-141.47 594.76,-132.48"/>
<polygon fill="#63b8ff" stroke="#63b8ff" points="718,-168.09 728.55,-167.21 719.75,-161.31 718,-168.09"/>
</a>
</g>
</g>
<!-- Node17&#45;&gt;Node12 -->
<g id="edge23_Node000017_Node000012" class="edge">
<title>Node17&#45;&gt;Node12</title>
<g id="a_edge23_Node000017_Node000012"><a xlink:title=" ">
<path fill="none" stroke="#63b8ff" d="M681.35,-166.11C604.43,-156.24 492.22,-141.85 418.98,-132.46"/>
<polygon fill="#63b8ff" stroke="#63b8ff" points="680.57,-169.54 690.93,-167.34 681.46,-162.6 680.57,-169.54"/>
</a>
</g>
</g>
<!-- Node17&#45;&gt;Node14 -->
<g id="edge24_Node000017_Node000014" class="edge">
<title>Node17&#45;&gt;Node14</title>
<g id="a_edge24_Node000017_Node000014"><a xlink:title=" ">
<path fill="none" stroke="#63b8ff" d="M766.25,-156.13C766.25,-147.9 766.25,-138.85 766.25,-132.3"/>
<polygon fill="#63b8ff" stroke="#63b8ff" points="762.75,-156.08 766.25,-166.08 769.75,-156.08 762.75,-156.08"/>
</a>
</g>
</g>
<!-- Node18 -->
<g id="Node000018" class="node">
<title>Node18</title>
<g id="a_Node000018"><a xlink:href="../../de/d72/_a_e_frame_8hpp.html" target="_top" xlink:title=" ">
<polygon fill="white" stroke="#666666" points="1029.25,-132 875.25,-132 875.25,-112 1029.25,-112 1029.25,-132"/>
<text text-anchor="middle" x="952.25" y="-118.5" font-family="Helvetica,sans-Serif" font-size="10.00">AEFrame/include/AEFrame.hpp</text>
</a>
</g>
</g>
<!-- Node17&#45;&gt;Node18 -->
<g id="edge25_Node000017_Node000018" class="edge">
<title>Node17&#45;&gt;Node18</title>
<g id="a_edge25_Node000017_Node000018"><a xlink:title=" ">
<path fill="none" stroke="#63b8ff" d="M809.54,-164.43C843.15,-154.67 889.03,-141.35 919.6,-132.48"/>
<polygon fill="#63b8ff" stroke="#63b8ff" points="808.73,-161.02 800.1,-167.17 810.68,-167.74 808.73,-161.02"/>
</a>
</g>
</g>
<!-- Node19 -->
<g id="Node000019" class="node">
<title>Node19</title>
<g id="a_Node000019"><a xlink:href="../../dc/dc6/_a_e_timer_8hpp.html" target="_top" xlink:title=" ">
<polygon fill="white" stroke="#666666" points="1025.5,-76 879,-76 879,-56 1025.5,-56 1025.5,-76"/>
<text text-anchor="middle" x="952.25" y="-62.5" font-family="Helvetica,sans-Serif" font-size="10.00">AETimer/include/AETimer.hpp</text>
</a>
</g>
</g>
<!-- Node18&#45;&gt;Node19 -->
<g id="edge26_Node000018_Node000019" class="edge">
<title>Node18&#45;&gt;Node19</title>
<g id="a_edge26_Node000018_Node000019"><a xlink:title=" ">
<path fill="none" stroke="#63b8ff" d="M952.25,-100.13C952.25,-91.9 952.25,-82.85 952.25,-76.3"/>
<polygon fill="#63b8ff" stroke="#63b8ff" points="948.75,-100.08 952.25,-110.08 955.75,-100.08 948.75,-100.08"/>
</a>
</g>
</g>
</g>
</svg>
