<?xml version="1.0" encoding="UTF-8" standalone="no"?>
<!DOCTYPE svg PUBLIC "-//W3C//DTD SVG 1.1//EN"
 "http://www.w3.org/Graphics/SVG/1.1/DTD/svg11.dtd">
<!-- Generated by graphviz version 10.0.1 (20240210.2158)
 -->
<!-- Title: AEMisc/include/AETypedefs.hpp Pages: 1 -->
<svg width="1058pt" height="308pt"
 viewBox="0.00 0.00 1058.25 308.00" xmlns="http://www.w3.org/2000/svg" xmlns:xlink="http://www.w3.org/1999/xlink">
<g id="graph0" class="graph" transform="scale(1 1) rotate(0) translate(4 304)">
<title>AEMisc/include/AETypedefs.hpp</title>
<!-- Node1 -->
<g id="Node000001" class="node">
<title>Node1</title>
<g id="a_Node000001"><a xlink:title="This file contains the engine&#39;s typedefs and variable type aliases.">
<polygon fill="#999999" stroke="#666666" points="561.5,-300 403,-300 403,-280 561.5,-280 561.5,-300"/>
<text text-anchor="middle" x="482.25" y="-286.5" font-family="Helvetica,sans-Serif" font-size="10.00">AEMisc/include/AETypedefs.hpp</text>
</a>
</g>
</g>
<!-- Node2 -->
<g id="Node000002" class="node">
<title>Node2</title>
<g id="a_Node000002"><a xlink:href="../../db/dcb/_a_e_log_entry_info_8hpp.html" target="_top" xlink:title=" ">
<polygon fill="white" stroke="#666666" points="212.5,-244 0,-244 0,-224 212.5,-224 212.5,-244"/>
<text text-anchor="middle" x="106.25" y="-230.5" font-family="Helvetica,sans-Serif" font-size="10.00">AECustomTypes/include/AELogEntryInfo.hpp</text>
</a>
</g>
</g>
<!-- Node1&#45;&gt;Node2 -->
<g id="edge1_Node000001_Node000002" class="edge">
<title>Node1&#45;&gt;Node2</title>
<g id="a_edge1_Node000001_Node000002"><a xlink:title=" ">
<path fill="none" stroke="#63b8ff" d="M405.16,-277.93C336.49,-268.07 237.11,-253.79 172.1,-244.46"/>
<polygon fill="#63b8ff" stroke="#63b8ff" points="404.43,-281.36 414.83,-279.32 405.43,-274.43 404.43,-281.36"/>
</a>
</g>
</g>
<!-- Node5 -->
<g id="Node000005" class="node">
<title>Node5</title>
<g id="a_Node000005"><a xlink:href="../../d1/da4/_a_e_math_8hpp.html" target="_top" xlink:title="This file contains the engine&#39;s math and math&#45;related functions.">
<polygon fill="white" stroke="#666666" points="376.88,-244 235.62,-244 235.62,-224 376.88,-224 376.88,-244"/>
<text text-anchor="middle" x="306.25" y="-230.5" font-family="Helvetica,sans-Serif" font-size="10.00">AEMisc/include/AEMath.hpp</text>
</a>
</g>
</g>
<!-- Node1&#45;&gt;Node5 -->
<g id="edge4_Node000001_Node000005" class="edge">
<title>Node1&#45;&gt;Node5</title>
<g id="a_edge4_Node000001_Node000005"><a xlink:title=" ">
<path fill="none" stroke="#63b8ff" d="M440.87,-276.31C409.11,-266.56 365.95,-253.32 337.15,-244.48"/>
<polygon fill="#63b8ff" stroke="#63b8ff" points="439.56,-279.56 450.15,-279.15 441.61,-272.87 439.56,-279.56"/>
</a>
</g>
</g>
<!-- Node8 -->
<g id="Node000008" class="node">
<title>Node8</title>
<g id="a_Node000008"><a xlink:href="../../de/de8/_a_e_utils_8hpp.html" target="_top" xlink:title="This file contains the engine&#39;s usefull utilities for trivial tasks.">
<polygon fill="white" stroke="#666666" points="665.75,-188 526.75,-188 526.75,-168 665.75,-168 665.75,-188"/>
<text text-anchor="middle" x="596.25" y="-174.5" font-family="Helvetica,sans-Serif" font-size="10.00">AEMisc/include/AEUtils.hpp</text>
</a>
</g>
</g>
<!-- Node1&#45;&gt;Node8 -->
<g id="edge8_Node000001_Node000008" class="edge">
<title>Node1&#45;&gt;Node8</title>
<g id="a_edge8_Node000001_Node000008"><a xlink:title=" ">
<path fill="none" stroke="#63b8ff" d="M529.75,-275.58C546.82,-268.64 564.89,-258.49 577.25,-244 591.14,-227.72 594.88,-201.74 595.89,-188.07"/>
<polygon fill="#63b8ff" stroke="#63b8ff" points="528.86,-272.18 520.73,-278.97 531.33,-278.73 528.86,-272.18"/>
</a>
</g>
</g>
<!-- Node16 -->
<g id="Node000016" class="node">
<title>Node16</title>
<g id="a_Node000016"><a xlink:href="../../d9/d6a/_a_e_utils_macros_8hpp.html" target="_top" xlink:title="This file contains the engine&#39;s usefull macros for trivial tasks.">
<polygon fill="white" stroke="#666666" points="567.88,-244 396.62,-244 396.62,-224 567.88,-224 567.88,-244"/>
<text text-anchor="middle" x="482.25" y="-230.5" font-family="Helvetica,sans-Serif" font-size="10.00">AEMisc/include/AEUtilsMacros.hpp</text>
</a>
</g>
</g>
<!-- Node1&#45;&gt;Node16 -->
<g id="edge19_Node000001_Node000016" class="edge">
<title>Node1&#45;&gt;Node16</title>
<g id="a_edge19_Node000001_Node000016"><a xlink:title=" ">
<path fill="none" stroke="#63b8ff" d="M482.25,-268.13C482.25,-259.9 482.25,-250.85 482.25,-244.3"/>
<polygon fill="#63b8ff" stroke="#63b8ff" points="478.75,-268.08 482.25,-278.08 485.75,-268.08 478.75,-268.08"/>
</a>
</g>
</g>
<!-- Node17 -->
<g id="Node000017" class="node">
<title>Node17</title>
<g id="a_Node000017"><a xlink:href="../../d7/d7f/_a_e_module_base_8hpp.html" target="_top" xlink:title=" ">
<polygon fill="white" stroke="#666666" points="890.5,-188 684,-188 684,-168 890.5,-168 890.5,-188"/>
<text text-anchor="middle" x="787.25" y="-174.5" font-family="Helvetica,sans-Serif" font-size="10.00">AEModuleBase/include/AEModuleBase.hpp</text>
</a>
</g>
</g>
<!-- Node1&#45;&gt;Node17 -->
<g id="edge21_Node000001_Node000017" class="edge">
<title>Node1&#45;&gt;Node17</title>
<g id="a_edge21_Node000001_Node000017"><a xlink:title=" ">
<path fill="none" stroke="#63b8ff" d="M519.05,-275.73C581.44,-253.22 706.51,-208.12 760.94,-188.49"/>
<polygon fill="#63b8ff" stroke="#63b8ff" points="518.16,-272.33 509.94,-279.01 520.54,-278.91 518.16,-272.33"/>
</a>
</g>
</g>
<!-- Node3 -->
<g id="Node000003" class="node">
<title>Node3</title>
<g id="a_Node000003"><a xlink:href="../../d0/dab/_a_e_log_parser_8hpp.html" target="_top" xlink:title=" ">
<polygon fill="white" stroke="#666666" points="247.75,-76 60.75,-76 60.75,-56 247.75,-56 247.75,-76"/>
<text text-anchor="middle" x="154.25" y="-62.5" font-family="Helvetica,sans-Serif" font-size="10.00">AELogParser/include/AELogParser.hpp</text>
</a>
</g>
</g>
<!-- Node2&#45;&gt;Node3 -->
<g id="edge2_Node000002_Node000003" class="edge">
<title>Node2&#45;&gt;Node3</title>
<g id="a_edge2_Node000002_Node000003"><a xlink:title=" ">
<path fill="none" stroke="#63b8ff" d="M107.54,-212.14C109.58,-187.53 114.71,-145.71 127.25,-112 132.14,-98.85 140.92,-85.24 147.14,-76.48"/>
<polygon fill="#63b8ff" stroke="#63b8ff" points="104.05,-211.85 106.82,-222.08 111.03,-212.36 104.05,-211.85"/>
</a>
</g>
</g>
<!-- Node4 -->
<g id="Node000004" class="node">
<title>Node4</title>
<g id="a_Node000004"><a xlink:href="../../d2/d77/_a_e_log_parser_8cpp.html" target="_top" xlink:title=" ">
<polygon fill="white" stroke="#666666" points="239.12,-20 69.38,-20 69.38,0 239.12,0 239.12,-20"/>
<text text-anchor="middle" x="154.25" y="-6.5" font-family="Helvetica,sans-Serif" font-size="10.00">AELogParser/src/AELogParser.cpp</text>
</a>
</g>
</g>
<!-- Node3&#45;&gt;Node4 -->
<g id="edge3_Node000003_Node000004" class="edge">
<title>Node3&#45;&gt;Node4</title>
<g id="a_edge3_Node000003_Node000004"><a xlink:title=" ">
<path fill="none" stroke="#63b8ff" d="M154.25,-44.13C154.25,-35.9 154.25,-26.85 154.25,-20.3"/>
<polygon fill="#63b8ff" stroke="#63b8ff" points="150.75,-44.08 154.25,-54.08 157.75,-44.08 150.75,-44.08"/>
</a>
</g>
</g>
<!-- Node5&#45;&gt;Node3 -->
<g id="edge5_Node000005_Node000003" class="edge">
<title>Node5&#45;&gt;Node3</title>
<g id="a_edge5_Node000005_Node000003"><a xlink:title=" ">
<path fill="none" stroke="#63b8ff" d="M243.31,-221.07C208.8,-213.15 170.9,-201.7 160.25,-188 134.18,-154.45 145.52,-98.51 151.46,-76.4"/>
<polygon fill="#63b8ff" stroke="#63b8ff" points="242.37,-224.45 252.89,-223.19 243.88,-217.61 242.37,-224.45"/>
</a>
</g>
</g>
<!-- Node6 -->
<g id="Node000006" class="node">
<title>Node6</title>
<g id="a_Node000006"><a xlink:href="../../d7/d4a/_a_e_trig_lookup_8hpp.html" target="_top" xlink:title="This file contains the engine&#39;s trigonometric function lookup tables.">
<polygon fill="white" stroke="#666666" points="335.62,-188 168.88,-188 168.88,-168 335.62,-168 335.62,-188"/>
<text text-anchor="middle" x="252.25" y="-174.5" font-family="Helvetica,sans-Serif" font-size="10.00">AEMisc/include/AETrigLookup.hpp</text>
</a>
</g>
</g>
<!-- Node5&#45;&gt;Node6 -->
<g id="edge6_Node000005_Node000006" class="edge">
<title>Node5&#45;&gt;Node6</title>
<g id="a_edge6_Node000005_Node000006"><a xlink:title=" ">
<path fill="none" stroke="#63b8ff" d="M288.82,-215.57C279.75,-206.5 269.03,-195.78 261.55,-188.3"/>
<polygon fill="#63b8ff" stroke="#63b8ff" points="286.23,-217.93 295.77,-222.52 291.18,-212.98 286.23,-217.93"/>
</a>
</g>
</g>
<!-- Node7 -->
<g id="Node000007" class="node">
<title>Node7</title>
<g id="a_Node000007"><a xlink:href="../../d7/d09/_a_e_vector_8hpp.html" target="_top" xlink:title=" ">
<polygon fill="white" stroke="#666666" points="509,-188 353.5,-188 353.5,-168 509,-168 509,-188"/>
<text text-anchor="middle" x="431.25" y="-174.5" font-family="Helvetica,sans-Serif" font-size="10.00">AEVector/include/AEVector.hpp</text>
</a>
</g>
</g>
<!-- Node5&#45;&gt;Node7 -->
<g id="edge7_Node000005_Node000007" class="edge">
<title>Node5&#45;&gt;Node7</title>
<g id="a_edge7_Node000005_Node000007"><a xlink:title=" ">
<path fill="none" stroke="#63b8ff" d="M338.33,-219.14C360.59,-209.52 389.66,-196.97 409.31,-188.48"/>
<polygon fill="#63b8ff" stroke="#63b8ff" points="337.2,-215.81 329.41,-222.99 339.98,-222.24 337.2,-215.81"/>
</a>
</g>
</g>
<!-- Node9 -->
<g id="Node000009" class="node">
<title>Node9</title>
<g id="a_Node000009"><a xlink:href="../../dc/dc6/_a_e_log_entry_8hpp.html" target="_top" xlink:title=" ">
<polygon fill="white" stroke="#666666" points="678,-132 480.5,-132 480.5,-112 678,-112 678,-132"/>
<text text-anchor="middle" x="579.25" y="-118.5" font-family="Helvetica,sans-Serif" font-size="10.00">AECustomTypes/include/AELogEntry.hpp</text>
</a>
</g>
</g>
<!-- Node8&#45;&gt;Node9 -->
<g id="edge9_Node000008_Node000009" class="edge">
<title>Node8&#45;&gt;Node9</title>
<g id="a_edge9_Node000008_Node000009"><a xlink:title=" ">
<path fill="none" stroke="#63b8ff" d="M589.86,-156.71C587.22,-148.32 584.29,-139.01 582.18,-132.3"/>
<polygon fill="#63b8ff" stroke="#63b8ff" points="586.49,-157.66 592.83,-166.15 593.17,-155.56 586.49,-157.66"/>
</a>
</g>
</g>
<!-- Node12 -->
<g id="Node000012" class="node">
<title>Node12</title>
<g id="a_Node000012"><a xlink:href="../../d3/dda/_a_e_file_reader_8hpp.html" target="_top" xlink:title=" ">
<polygon fill="white" stroke="#666666" points="462,-132 270.5,-132 270.5,-112 462,-112 462,-132"/>
<text text-anchor="middle" x="366.25" y="-118.5" font-family="Helvetica,sans-Serif" font-size="10.00">AEFileReader/include/AEFileReader.hpp</text>
</a>
</g>
</g>
<!-- Node8&#45;&gt;Node12 -->
<g id="edge13_Node000008_Node000012" class="edge">
<title>Node8&#45;&gt;Node12</title>
<g id="a_edge13_Node000008_Node000012"><a xlink:title=" ">
<path fill="none" stroke="#63b8ff" d="M544.87,-164.94C503.1,-155.13 444.99,-141.49 406.53,-132.46"/>
<polygon fill="#63b8ff" stroke="#63b8ff" points="543.92,-168.31 554.45,-167.19 545.52,-161.49 543.92,-168.31"/>
</a>
</g>
</g>
<!-- Node14 -->
<g id="Node000014" class="node">
<title>Node14</title>
<g id="a_Node000014"><a xlink:href="../../db/da4/_a_e_file_writer_8hpp.html" target="_top" xlink:title=" ">
<polygon fill="white" stroke="#666666" points="878.5,-132 696,-132 696,-112 878.5,-112 878.5,-132"/>
<text text-anchor="middle" x="787.25" y="-118.5" font-family="Helvetica,sans-Serif" font-size="10.00">AEFileWriter/include/AEFileWriter.hpp</text>
</a>
</g>
</g>
<!-- Node8&#45;&gt;Node14 -->
<g id="edge16_Node000008_Node000014" class="edge">
<title>Node8&#45;&gt;Node14</title>
<g id="a_edge16_Node000008_Node000014"><a xlink:title=" ">
<path fill="none" stroke="#63b8ff" d="M640.25,-164.56C674.81,-154.79 722.19,-141.39 753.72,-132.48"/>
<polygon fill="#63b8ff" stroke="#63b8ff" points="639.65,-161.09 630.98,-167.18 641.55,-167.83 639.65,-161.09"/>
</a>
</g>
</g>
<!-- Node9&#45;&gt;Node3 -->
<g id="edge10_Node000009_Node000003" class="edge">
<title>Node9&#45;&gt;Node3</title>
<g id="a_edge10_Node000009_Node000003"><a xlink:title=" ">
<path fill="none" stroke="#63b8ff" d="M493.54,-110.11C415.89,-100.24 302.62,-85.85 228.68,-76.46"/>
<polygon fill="#63b8ff" stroke="#63b8ff" points="492.87,-113.55 503.23,-111.34 493.75,-106.61 492.87,-113.55"/>
</a>
</g>
</g>
<!-- Node10 -->
<g id="Node000010" class="node">
<title>Node10</title>
<g id="a_Node000010"><a xlink:href="../../d4/d9f/_a_e_logger_8hpp.html" target="_top" xlink:title=" ">
<polygon fill="white" stroke="#666666" points="671.75,-76 514.75,-76 514.75,-56 671.75,-56 671.75,-76"/>
<text text-anchor="middle" x="593.25" y="-62.5" font-family="Helvetica,sans-Serif" font-size="10.00">AELogger/include/AELogger.hpp</text>
</a>
</g>
</g>
<!-- Node9&#45;&gt;Node10 -->
<g id="edge11_Node000009_Node000010" class="edge">
<title>Node9&#45;&gt;Node10</title>
<g id="a_edge11_Node000009_Node000010"><a xlink:title=" ">
<path fill="none" stroke="#63b8ff" d="M584.51,-100.71C586.68,-92.32 589.1,-83.01 590.84,-76.3"/>
<polygon fill="#63b8ff" stroke="#63b8ff" points="581.19,-99.57 582.07,-110.13 587.97,-101.33 581.19,-99.57"/>
</a>
</g>
</g>
<!-- Node11 -->
<g id="Node000011" class="node">
<title>Node11</title>
<g id="a_Node000011"><a xlink:href="../../db/da0/_a_e_logger_8cpp.html" target="_top" xlink:title=" ">
<polygon fill="white" stroke="#666666" points="663.12,-20 523.38,-20 523.38,0 663.12,0 663.12,-20"/>
<text text-anchor="middle" x="593.25" y="-6.5" font-family="Helvetica,sans-Serif" font-size="10.00">AELogger/src/AELogger.cpp</text>
</a>
</g>
</g>
<!-- Node10&#45;&gt;Node11 -->
<g id="edge12_Node000010_Node000011" class="edge">
<title>Node10&#45;&gt;Node11</title>
<g id="a_edge12_Node000010_Node000011"><a xlink:title=" ">
<path fill="none" stroke="#63b8ff" d="M593.25,-44.13C593.25,-35.9 593.25,-26.85 593.25,-20.3"/>
<polygon fill="#63b8ff" stroke="#63b8ff" points="589.75,-44.08 593.25,-54.08 596.75,-44.08 589.75,-44.08"/>
</a>
</g>
</g>
<!-- Node12&#45;&gt;Node3 -->
<g id="edge15_Node000012_Node000003" class="edge">
<title>Node12&#45;&gt;Node3</title>
<g id="a_edge15_Node000012_Node000003"><a xlink:title=" ">
<path fill="none" stroke="#63b8ff" d="M318.4,-108.81C279.97,-99.02 226.76,-85.47 191.47,-76.48"/>
<polygon fill="#63b8ff" stroke="#63b8ff" points="317.3,-112.14 327.86,-111.22 319.03,-105.36 317.3,-112.14"/>
</a>
</g>
</g>
<!-- Node13 -->
<g id="Node000013" class="node">
<title>Node13</title>
<g id="a_Node000013"><a xlink:href="../../d9/d6e/_a_e_file_reader_8cpp.html" target="_top" xlink:title=" ">
<polygon fill="white" stroke="#666666" points="453.38,-76 279.12,-76 279.12,-56 453.38,-56 453.38,-76"/>
<text text-anchor="middle" x="366.25" y="-62.5" font-family="Helvetica,sans-Serif" font-size="10.00">AEFileReader/src/AEFileReader.cpp</text>
</a>
</g>
</g>
<!-- Node12&#45;&gt;Node13 -->
<g id="edge14_Node000012_Node000013" class="edge">
<title>Node12&#45;&gt;Node13</title>
<g id="a_edge14_Node000012_Node000013"><a xlink:title=" ">
<path fill="none" stroke="#63b8ff" d="M366.25,-100.13C366.25,-91.9 366.25,-82.85 366.25,-76.3"/>
<polygon fill="#63b8ff" stroke="#63b8ff" points="362.75,-100.08 366.25,-110.08 369.75,-100.08 362.75,-100.08"/>
</a>
</g>
</g>
<!-- Node14&#45;&gt;Node10 -->
<g id="edge18_Node000014_Node000010" class="edge">
<title>Node14&#45;&gt;Node10</title>
<g id="a_edge18_Node000014_Node000010"><a xlink:title=" ">
<path fill="none" stroke="#63b8ff" d="M742.56,-108.56C707.46,-98.79 659.33,-85.39 627.31,-76.48"/>
<polygon fill="#63b8ff" stroke="#63b8ff" points="741.43,-111.88 752,-111.19 743.3,-105.13 741.43,-111.88"/>
</a>
</g>
</g>
<!-- Node15 -->
<g id="Node000015" class="node">
<title>Node15</title>
<g id="a_Node000015"><a xlink:href="../../d0/d56/_a_e_file_writer_8cpp.html" target="_top" xlink:title=" ">
<polygon fill="white" stroke="#666666" points="869.88,-76 704.62,-76 704.62,-56 869.88,-56 869.88,-76"/>
<text text-anchor="middle" x="787.25" y="-62.5" font-family="Helvetica,sans-Serif" font-size="10.00">AEFileWriter/src/AEFileWriter.cpp</text>
</a>
</g>
</g>
<!-- Node14&#45;&gt;Node15 -->
<g id="edge17_Node000014_Node000015" class="edge">
<title>Node14&#45;&gt;Node15</title>
<g id="a_edge17_Node000014_Node000015"><a xlink:title=" ">
<path fill="none" stroke="#63b8ff" d="M787.25,-100.13C787.25,-91.9 787.25,-82.85 787.25,-76.3"/>
<polygon fill="#63b8ff" stroke="#63b8ff" points="783.75,-100.08 787.25,-110.08 790.75,-100.08 783.75,-100.08"/>
</a>
</g>
</g>
<!-- Node16&#45;&gt;Node8 -->
<g id="edge20_Node000016_Node000008" class="edge">
<title>Node16&#45;&gt;Node8</title>
<g id="a_edge20_Node000016_Node000008"><a xlink:title=" ">
<path fill="none" stroke="#63b8ff" d="M512.34,-218.75C532.53,-209.18 558.56,-196.85 576.24,-188.48"/>
<polygon fill="#63b8ff" stroke="#63b8ff" points="511.01,-215.5 503.48,-222.95 514.01,-221.83 511.01,-215.5"/>
</a>
</g>
</g>
<!-- Node17&#45;&gt;Node9 -->
<g id="edge22_Node000017_Node000009" class="edge">
<title>Node17&#45;&gt;Node9</title>
<g id="a_edge22_Node000017_Node000009"><a xlink:title=" ">
<path fill="none" stroke="#63b8ff" d="M740.31,-164.81C702.6,-155.02 650.39,-141.47 615.76,-132.48"/>
<polygon fill="#63b8ff" stroke="#63b8ff" points="739,-168.09 749.55,-167.21 740.75,-161.31 739,-168.09"/>
</a>
</g>
</g>
<!-- Node17&#45;&gt;Node12 -->
<g id="edge23_Node000017_Node000012" class="edge">
<title>Node17&#45;&gt;Node12</title>
<g id="a_edge23_Node000017_Node000012"><a xlink:title=" ">
<path fill="none" stroke="#63b8ff" d="M702.35,-166.11C625.43,-156.24 513.22,-141.85 439.98,-132.46"/>
<polygon fill="#63b8ff" stroke="#63b8ff" points="701.57,-169.54 711.93,-167.34 702.46,-162.6 701.57,-169.54"/>
</a>
</g>
</g>
<!-- Node17&#45;&gt;Node14 -->
<g id="edge24_Node000017_Node000014" class="edge">
<title>Node17&#45;&gt;Node14</title>
<g id="a_edge24_Node000017_Node000014"><a xlink:title=" ">
<path fill="none" stroke="#63b8ff" d="M787.25,-156.13C787.25,-147.9 787.25,-138.85 787.25,-132.3"/>
<polygon fill="#63b8ff" stroke="#63b8ff" points="783.75,-156.08 787.25,-166.08 790.75,-156.08 783.75,-156.08"/>
</a>
</g>
</g>
<!-- Node18 -->
<g id="Node000018" class="node">
<title>Node18</title>
<g id="a_Node000018"><a xlink:href="../../de/d72/_a_e_frame_8hpp.html" target="_top" xlink:title=" ">
<polygon fill="white" stroke="#666666" points="1050.25,-132 896.25,-132 896.25,-112 1050.25,-112 1050.25,-132"/>
<text text-anchor="middle" x="973.25" y="-118.5" font-family="Helvetica,sans-Serif" font-size="10.00">AEFrame/include/AEFrame.hpp</text>
</a>
</g>
</g>
<!-- Node17&#45;&gt;Node18 -->
<g id="edge25_Node000017_Node000018" class="edge">
<title>Node17&#45;&gt;Node18</title>
<g id="a_edge25_Node000017_Node000018"><a xlink:title=" ">
<path fill="none" stroke="#63b8ff" d="M830.54,-164.43C864.15,-154.67 910.03,-141.35 940.6,-132.48"/>
<polygon fill="#63b8ff" stroke="#63b8ff" points="829.73,-161.02 821.1,-167.17 831.68,-167.74 829.73,-161.02"/>
</a>
</g>
</g>
<!-- Node19 -->
<g id="Node000019" class="node">
<title>Node19</title>
<g id="a_Node000019"><a xlink:href="../../dc/dc6/_a_e_timer_8hpp.html" target="_top" xlink:title=" ">
<polygon fill="white" stroke="#666666" points="1046.5,-76 900,-76 900,-56 1046.5,-56 1046.5,-76"/>
<text text-anchor="middle" x="973.25" y="-62.5" font-family="Helvetica,sans-Serif" font-size="10.00">AETimer/include/AETimer.hpp</text>
</a>
</g>
</g>
<!-- Node18&#45;&gt;Node19 -->
<g id="edge26_Node000018_Node000019" class="edge">
<title>Node18&#45;&gt;Node19</title>
<g id="a_edge26_Node000018_Node000019"><a xlink:title=" ">
<path fill="none" stroke="#63b8ff" d="M973.25,-100.13C973.25,-91.9 973.25,-82.85 973.25,-76.3"/>
<polygon fill="#63b8ff" stroke="#63b8ff" points="969.75,-100.08 973.25,-110.08 976.75,-100.08 969.75,-100.08"/>
</a>
</g>
</g>
</g>
</svg>
