<?xml version="1.0" encoding="UTF-8" standalone="no"?>
<!DOCTYPE svg PUBLIC "-//W3C//DTD SVG 1.1//EN"
 "http://www.w3.org/Graphics/SVG/1.1/DTD/svg11.dtd">
<!-- Generated by graphviz version 10.0.1 (20240210.2158)
 -->
<!-- Title: AEMisc/include/AETypedefs.hpp Pages: 1 -->
<svg width="1284pt" height="252pt"
 viewBox="0.00 0.00 1284.25 252.00" xmlns="http://www.w3.org/2000/svg" xmlns:xlink="http://www.w3.org/1999/xlink">
<g id="graph0" class="graph" transform="scale(1 1) rotate(0) translate(4 248)">
<title>AEMisc/include/AETypedefs.hpp</title>
<!-- Node1 -->
<g id="Node000001" class="node">
<title>Node1</title>
<g id="a_Node000001"><a xlink:title="This file contains the engine&#39;s typedefs and variable type aliases.">
<polygon fill="#999999" stroke="#666666" points="542.5,-244 384,-244 384,-224 542.5,-224 542.5,-244"/>
<text text-anchor="middle" x="463.25" y="-230.5" font-family="Helvetica,sans-Serif" font-size="10.00">AEMisc/include/AETypedefs.hpp</text>
</a>
</g>
</g>
<!-- Node2 -->
<g id="Node000002" class="node">
<title>Node2</title>
<g id="a_Node000002"><a xlink:href="../../db/dcb/_a_e_log_entry_info_8hpp.html" target="_top" xlink:title=" ">
<polygon fill="white" stroke="#666666" points="212.5,-188 0,-188 0,-168 212.5,-168 212.5,-188"/>
<text text-anchor="middle" x="106.25" y="-174.5" font-family="Helvetica,sans-Serif" font-size="10.00">AECustomTypes/include/AELogEntryInfo.hpp</text>
</a>
</g>
</g>
<!-- Node1&#45;&gt;Node2 -->
<g id="edge1_Node000001_Node000002" class="edge">
<title>Node1&#45;&gt;Node2</title>
<g id="a_edge1_Node000001_Node000002"><a xlink:title=" ">
<path fill="none" stroke="#63b8ff" d="M389.65,-221.87C324.47,-212.01 230.37,-197.77 168.77,-188.46"/>
<polygon fill="#63b8ff" stroke="#63b8ff" points="388.75,-225.27 399.16,-223.31 389.8,-218.35 388.75,-225.27"/>
</a>
</g>
</g>
<!-- Node5 -->
<g id="Node000005" class="node">
<title>Node5</title>
<g id="a_Node000005"><a xlink:href="../../d1/da4/_a_e_math_8hpp.html" target="_top" xlink:title="This file contains the engine&#39;s math and math&#45;related functions.">
<polygon fill="white" stroke="#666666" points="404.88,-188 263.62,-188 263.62,-168 404.88,-168 404.88,-188"/>
<text text-anchor="middle" x="334.25" y="-174.5" font-family="Helvetica,sans-Serif" font-size="10.00">AEMisc/include/AEMath.hpp</text>
</a>
</g>
</g>
<!-- Node1&#45;&gt;Node5 -->
<g id="edge4_Node000001_Node000005" class="edge">
<title>Node1&#45;&gt;Node5</title>
<g id="a_edge4_Node000001_Node000005"><a xlink:title=" ">
<path fill="none" stroke="#63b8ff" d="M430.45,-219.27C407.44,-209.64 377.27,-197.01 356.9,-188.48"/>
<polygon fill="#63b8ff" stroke="#63b8ff" points="428.81,-222.38 439.38,-223.01 431.51,-215.92 428.81,-222.38"/>
</a>
</g>
</g>
<!-- Node8 -->
<g id="Node000008" class="node">
<title>Node8</title>
<g id="a_Node000008"><a xlink:href="../../de/de8/_a_e_utils_8hpp.html" target="_top" xlink:title="This file contains the engine&#39;s usefull utilities for trivial tasks.">
<polygon fill="white" stroke="#666666" points="672.75,-188 533.75,-188 533.75,-168 672.75,-168 672.75,-188"/>
<text text-anchor="middle" x="603.25" y="-174.5" font-family="Helvetica,sans-Serif" font-size="10.00">AEMisc/include/AEUtils.hpp</text>
</a>
</g>
</g>
<!-- Node1&#45;&gt;Node8 -->
<g id="edge8_Node000001_Node000008" class="edge">
<title>Node1&#45;&gt;Node8</title>
<g id="a_edge8_Node000001_Node000008"><a xlink:title=" ">
<path fill="none" stroke="#63b8ff" d="M498.17,-219.53C523.22,-209.87 556.36,-197.08 578.67,-188.48"/>
<polygon fill="#63b8ff" stroke="#63b8ff" points="497.12,-216.18 489.05,-223.05 499.64,-222.72 497.12,-216.18"/>
</a>
</g>
</g>
<!-- Node16 -->
<g id="Node000016" class="node">
<title>Node16</title>
<g id="a_Node000016"><a xlink:href="../../d7/d7f/_a_e_module_base_8hpp.html" target="_top" xlink:title=" ">
<polygon fill="white" stroke="#666666" points="908.5,-188 702,-188 702,-168 908.5,-168 908.5,-188"/>
<text text-anchor="middle" x="805.25" y="-174.5" font-family="Helvetica,sans-Serif" font-size="10.00">AEModuleBase/include/AEModuleBase.hpp</text>
</a>
</g>
</g>
<!-- Node1&#45;&gt;Node16 -->
<g id="edge19_Node000001_Node000016" class="edge">
<title>Node1&#45;&gt;Node16</title>
<g id="a_edge19_Node000001_Node000016"><a xlink:title=" ">
<path fill="none" stroke="#63b8ff" d="M534.54,-221.74C596.94,-211.89 686.59,-197.74 745.36,-188.46"/>
<polygon fill="#63b8ff" stroke="#63b8ff" points="534.04,-218.28 524.71,-223.3 535.13,-225.19 534.04,-218.28"/>
</a>
</g>
</g>
<!-- Node3 -->
<g id="Node000003" class="node">
<title>Node3</title>
<g id="a_Node000003"><a xlink:href="../../d0/dab/_a_e_log_parser_8hpp.html" target="_top" xlink:title=" ">
<polygon fill="white" stroke="#666666" points="345.75,-76 158.75,-76 158.75,-56 345.75,-56 345.75,-76"/>
<text text-anchor="middle" x="252.25" y="-62.5" font-family="Helvetica,sans-Serif" font-size="10.00">AELogParser/include/AELogParser.hpp</text>
</a>
</g>
</g>
<!-- Node2&#45;&gt;Node3 -->
<g id="edge2_Node000002_Node000003" class="edge">
<title>Node2&#45;&gt;Node3</title>
<g id="a_edge2_Node000002_Node000003"><a xlink:title=" ">
<path fill="none" stroke="#63b8ff" d="M105.66,-156.29C106.36,-142.21 109.56,-124.02 120.25,-112 136.51,-93.73 160.48,-82.87 183.56,-76.42"/>
<polygon fill="#63b8ff" stroke="#63b8ff" points="102.16,-156.24 105.59,-166.27 109.16,-156.29 102.16,-156.24"/>
</a>
</g>
</g>
<!-- Node4 -->
<g id="Node000004" class="node">
<title>Node4</title>
<g id="a_Node000004"><a xlink:href="../../d2/d77/_a_e_log_parser_8cpp.html" target="_top" xlink:title=" ">
<polygon fill="white" stroke="#666666" points="337.12,-20 167.38,-20 167.38,0 337.12,0 337.12,-20"/>
<text text-anchor="middle" x="252.25" y="-6.5" font-family="Helvetica,sans-Serif" font-size="10.00">AELogParser/src/AELogParser.cpp</text>
</a>
</g>
</g>
<!-- Node3&#45;&gt;Node4 -->
<g id="edge3_Node000003_Node000004" class="edge">
<title>Node3&#45;&gt;Node4</title>
<g id="a_edge3_Node000003_Node000004"><a xlink:title=" ">
<path fill="none" stroke="#63b8ff" d="M252.25,-44.13C252.25,-35.9 252.25,-26.85 252.25,-20.3"/>
<polygon fill="#63b8ff" stroke="#63b8ff" points="248.75,-44.08 252.25,-54.08 255.75,-44.08 248.75,-44.08"/>
</a>
</g>
</g>
<!-- Node5&#45;&gt;Node3 -->
<g id="edge5_Node000005_Node000003" class="edge">
<title>Node5&#45;&gt;Node3</title>
<g id="a_edge5_Node000005_Node000003"><a xlink:title=" ">
<path fill="none" stroke="#63b8ff" d="M252.06,-169.4C202.03,-162.87 144.83,-151.37 129.25,-132 106.39,-103.58 153.29,-86.07 195.61,-76.49"/>
<polygon fill="#63b8ff" stroke="#63b8ff" points="251.41,-172.84 261.76,-170.6 252.27,-165.9 251.41,-172.84"/>
</a>
</g>
</g>
<!-- Node6 -->
<g id="Node000006" class="node">
<title>Node6</title>
<g id="a_Node000006"><a xlink:href="../../d7/d4a/_a_e_trig_lookup_8hpp.html" target="_top" xlink:title="This file contains the engine&#39;s trigonometric function lookup tables.">
<polygon fill="white" stroke="#666666" points="304.62,-132 137.88,-132 137.88,-112 304.62,-112 304.62,-132"/>
<text text-anchor="middle" x="221.25" y="-118.5" font-family="Helvetica,sans-Serif" font-size="10.00">AEMisc/include/AETrigLookup.hpp</text>
</a>
</g>
</g>
<!-- Node5&#45;&gt;Node6 -->
<g id="edge6_Node000005_Node000006" class="edge">
<title>Node5&#45;&gt;Node6</title>
<g id="a_edge6_Node000005_Node000006"><a xlink:title=" ">
<path fill="none" stroke="#63b8ff" d="M304.42,-162.75C284.41,-153.18 258.61,-140.85 241.09,-132.48"/>
<polygon fill="#63b8ff" stroke="#63b8ff" points="302.67,-165.79 313.2,-166.94 305.69,-159.47 302.67,-165.79"/>
</a>
</g>
</g>
<!-- Node7 -->
<g id="Node000007" class="node">
<title>Node7</title>
<g id="a_Node000007"><a xlink:href="../../d7/d09/_a_e_vector_8hpp.html" target="_top" xlink:title=" ">
<polygon fill="white" stroke="#666666" points="478,-132 322.5,-132 322.5,-112 478,-112 478,-132"/>
<text text-anchor="middle" x="400.25" y="-118.5" font-family="Helvetica,sans-Serif" font-size="10.00">AEVector/include/AEVector.hpp</text>
</a>
</g>
</g>
<!-- Node5&#45;&gt;Node7 -->
<g id="edge7_Node000005_Node000007" class="edge">
<title>Node5&#45;&gt;Node7</title>
<g id="a_edge7_Node000005_Node000007"><a xlink:title=" ">
<path fill="none" stroke="#63b8ff" d="M354.54,-160.4C365.83,-151.17 379.46,-140.01 388.89,-132.3"/>
<polygon fill="#63b8ff" stroke="#63b8ff" points="352.44,-157.59 346.92,-166.64 356.87,-163.01 352.44,-157.59"/>
</a>
</g>
</g>
<!-- Node9 -->
<g id="Node000009" class="node">
<title>Node9</title>
<g id="a_Node000009"><a xlink:href="../../dc/dc6/_a_e_log_entry_8hpp.html" target="_top" xlink:title=" ">
<polygon fill="white" stroke="#666666" points="904,-132 706.5,-132 706.5,-112 904,-112 904,-132"/>
<text text-anchor="middle" x="805.25" y="-118.5" font-family="Helvetica,sans-Serif" font-size="10.00">AECustomTypes/include/AELogEntry.hpp</text>
</a>
</g>
</g>
<!-- Node8&#45;&gt;Node9 -->
<g id="edge9_Node000008_Node000009" class="edge">
<title>Node8&#45;&gt;Node9</title>
<g id="a_edge9_Node000008_Node000009"><a xlink:title=" ">
<path fill="none" stroke="#63b8ff" d="M649.31,-164.69C685.9,-154.91 736.3,-141.43 769.79,-132.48"/>
<polygon fill="#63b8ff" stroke="#63b8ff" points="648.65,-161.24 639.9,-167.2 650.46,-168 648.65,-161.24"/>
</a>
</g>
</g>
<!-- Node12 -->
<g id="Node000012" class="node">
<title>Node12</title>
<g id="a_Node000012"><a xlink:href="../../d3/dda/_a_e_file_reader_8hpp.html" target="_top" xlink:title=" ">
<polygon fill="white" stroke="#666666" points="688,-132 496.5,-132 496.5,-112 688,-112 688,-132"/>
<text text-anchor="middle" x="592.25" y="-118.5" font-family="Helvetica,sans-Serif" font-size="10.00">AEFileReader/include/AEFileReader.hpp</text>
</a>
</g>
</g>
<!-- Node8&#45;&gt;Node12 -->
<g id="edge13_Node000008_Node000012" class="edge">
<title>Node8&#45;&gt;Node12</title>
<g id="a_edge13_Node000008_Node000012"><a xlink:title=" ">
<path fill="none" stroke="#63b8ff" d="M599.06,-156.43C597.36,-148.11 595.5,-138.93 594.14,-132.3"/>
<polygon fill="#63b8ff" stroke="#63b8ff" points="595.61,-157.01 601.03,-166.11 602.47,-155.61 595.61,-157.01"/>
</a>
</g>
</g>
<!-- Node14 -->
<g id="Node000014" class="node">
<title>Node14</title>
<g id="a_Node000014"><a xlink:href="../../db/da4/_a_e_file_writer_8hpp.html" target="_top" xlink:title=" ">
<polygon fill="white" stroke="#666666" points="1104.5,-132 922,-132 922,-112 1104.5,-112 1104.5,-132"/>
<text text-anchor="middle" x="1013.25" y="-118.5" font-family="Helvetica,sans-Serif" font-size="10.00">AEFileWriter/include/AEFileWriter.hpp</text>
</a>
</g>
</g>
<!-- Node8&#45;&gt;Node14 -->
<g id="edge16_Node000008_Node000014" class="edge">
<title>Node8&#45;&gt;Node14</title>
<g id="a_edge16_Node000008_Node000014"><a xlink:title=" ">
<path fill="none" stroke="#63b8ff" d="M684.05,-166.36C758.95,-156.49 869.35,-141.95 941.29,-132.48"/>
<polygon fill="#63b8ff" stroke="#63b8ff" points="683.76,-162.87 674.3,-167.64 684.67,-169.81 683.76,-162.87"/>
</a>
</g>
</g>
<!-- Node9&#45;&gt;Node3 -->
<g id="edge10_Node000009_Node000003" class="edge">
<title>Node9&#45;&gt;Node3</title>
<g id="a_edge10_Node000009_Node000003"><a xlink:title=" ">
<path fill="none" stroke="#63b8ff" d="M696.7,-110.4C594.59,-100.43 443.28,-85.65 346.21,-76.18"/>
<polygon fill="#63b8ff" stroke="#63b8ff" points="696.18,-113.87 706.47,-111.35 696.86,-106.9 696.18,-113.87"/>
</a>
</g>
</g>
<!-- Node10 -->
<g id="Node000010" class="node">
<title>Node10</title>
<g id="a_Node000010"><a xlink:href="../../d4/d9f/_a_e_logger_8hpp.html" target="_top" xlink:title=" ">
<polygon fill="white" stroke="#666666" points="897.75,-76 740.75,-76 740.75,-56 897.75,-56 897.75,-76"/>
<text text-anchor="middle" x="819.25" y="-62.5" font-family="Helvetica,sans-Serif" font-size="10.00">AELogger/include/AELogger.hpp</text>
</a>
</g>
</g>
<!-- Node9&#45;&gt;Node10 -->
<g id="edge11_Node000009_Node000010" class="edge">
<title>Node9&#45;&gt;Node10</title>
<g id="a_edge11_Node000009_Node000010"><a xlink:title=" ">
<path fill="none" stroke="#63b8ff" d="M810.51,-100.71C812.68,-92.32 815.1,-83.01 816.84,-76.3"/>
<polygon fill="#63b8ff" stroke="#63b8ff" points="807.19,-99.57 808.07,-110.13 813.97,-101.33 807.19,-99.57"/>
</a>
</g>
</g>
<!-- Node11 -->
<g id="Node000011" class="node">
<title>Node11</title>
<g id="a_Node000011"><a xlink:href="../../db/da0/_a_e_logger_8cpp.html" target="_top" xlink:title=" ">
<polygon fill="white" stroke="#666666" points="889.12,-20 749.38,-20 749.38,0 889.12,0 889.12,-20"/>
<text text-anchor="middle" x="819.25" y="-6.5" font-family="Helvetica,sans-Serif" font-size="10.00">AELogger/src/AELogger.cpp</text>
</a>
</g>
</g>
<!-- Node10&#45;&gt;Node11 -->
<g id="edge12_Node000010_Node000011" class="edge">
<title>Node10&#45;&gt;Node11</title>
<g id="a_edge12_Node000010_Node000011"><a xlink:title=" ">
<path fill="none" stroke="#63b8ff" d="M819.25,-44.13C819.25,-35.9 819.25,-26.85 819.25,-20.3"/>
<polygon fill="#63b8ff" stroke="#63b8ff" points="815.75,-44.08 819.25,-54.08 822.75,-44.08 815.75,-44.08"/>
</a>
</g>
</g>
<!-- Node12&#45;&gt;Node3 -->
<g id="edge15_Node000012_Node000003" class="edge">
<title>Node12&#45;&gt;Node3</title>
<g id="a_edge15_Node000012_Node000003"><a xlink:title=" ">
<path fill="none" stroke="#63b8ff" d="M521.38,-109.74C459.34,-99.89 370.22,-85.74 311.79,-76.46"/>
<polygon fill="#63b8ff" stroke="#63b8ff" points="520.72,-113.18 531.14,-111.29 521.82,-106.27 520.72,-113.18"/>
</a>
</g>
</g>
<!-- Node13 -->
<g id="Node000013" class="node">
<title>Node13</title>
<g id="a_Node000013"><a xlink:href="../../d9/d6e/_a_e_file_reader_8cpp.html" target="_top" xlink:title=" ">
<polygon fill="white" stroke="#666666" points="679.38,-76 505.12,-76 505.12,-56 679.38,-56 679.38,-76"/>
<text text-anchor="middle" x="592.25" y="-62.5" font-family="Helvetica,sans-Serif" font-size="10.00">AEFileReader/src/AEFileReader.cpp</text>
</a>
</g>
</g>
<!-- Node12&#45;&gt;Node13 -->
<g id="edge14_Node000012_Node000013" class="edge">
<title>Node12&#45;&gt;Node13</title>
<g id="a_edge14_Node000012_Node000013"><a xlink:title=" ">
<path fill="none" stroke="#63b8ff" d="M592.25,-100.13C592.25,-91.9 592.25,-82.85 592.25,-76.3"/>
<polygon fill="#63b8ff" stroke="#63b8ff" points="588.75,-100.08 592.25,-110.08 595.75,-100.08 588.75,-100.08"/>
</a>
</g>
</g>
<!-- Node14&#45;&gt;Node10 -->
<g id="edge18_Node000014_Node000010" class="edge">
<title>Node14&#45;&gt;Node10</title>
<g id="a_edge18_Node000014_Node000010"><a xlink:title=" ">
<path fill="none" stroke="#63b8ff" d="M968.56,-108.56C933.46,-98.79 885.33,-85.39 853.31,-76.48"/>
<polygon fill="#63b8ff" stroke="#63b8ff" points="967.43,-111.88 978,-111.19 969.3,-105.13 967.43,-111.88"/>
</a>
</g>
</g>
<!-- Node15 -->
<g id="Node000015" class="node">
<title>Node15</title>
<g id="a_Node000015"><a xlink:href="../../d0/d56/_a_e_file_writer_8cpp.html" target="_top" xlink:title=" ">
<polygon fill="white" stroke="#666666" points="1095.88,-76 930.62,-76 930.62,-56 1095.88,-56 1095.88,-76"/>
<text text-anchor="middle" x="1013.25" y="-62.5" font-family="Helvetica,sans-Serif" font-size="10.00">AEFileWriter/src/AEFileWriter.cpp</text>
</a>
</g>
</g>
<!-- Node14&#45;&gt;Node15 -->
<g id="edge17_Node000014_Node000015" class="edge">
<title>Node14&#45;&gt;Node15</title>
<g id="a_edge17_Node000014_Node000015"><a xlink:title=" ">
<path fill="none" stroke="#63b8ff" d="M1013.25,-100.13C1013.25,-91.9 1013.25,-82.85 1013.25,-76.3"/>
<polygon fill="#63b8ff" stroke="#63b8ff" points="1009.75,-100.08 1013.25,-110.08 1016.75,-100.08 1009.75,-100.08"/>
</a>
</g>
</g>
<!-- Node16&#45;&gt;Node9 -->
<g id="edge20_Node000016_Node000009" class="edge">
<title>Node16&#45;&gt;Node9</title>
<g id="a_edge20_Node000016_Node000009"><a xlink:title=" ">
<path fill="none" stroke="#63b8ff" d="M805.25,-156.13C805.25,-147.9 805.25,-138.85 805.25,-132.3"/>
<polygon fill="#63b8ff" stroke="#63b8ff" points="801.75,-156.08 805.25,-166.08 808.75,-156.08 801.75,-156.08"/>
</a>
</g>
</g>
<!-- Node16&#45;&gt;Node12 -->
<g id="edge21_Node000016_Node000012" class="edge">
<title>Node16&#45;&gt;Node12</title>
<g id="a_edge21_Node000016_Node000012"><a xlink:title=" ">
<path fill="none" stroke="#63b8ff" d="M757.18,-164.81C718.56,-155.02 665.1,-141.47 629.64,-132.48"/>
<polygon fill="#63b8ff" stroke="#63b8ff" points="756.13,-168.16 766.68,-167.22 757.85,-161.37 756.13,-168.16"/>
</a>
</g>
</g>
<!-- Node16&#45;&gt;Node14 -->
<g id="edge22_Node000016_Node000014" class="edge">
<title>Node16&#45;&gt;Node14</title>
<g id="a_edge22_Node000016_Node000014"><a xlink:title=" ">
<path fill="none" stroke="#63b8ff" d="M852.19,-164.81C889.9,-155.02 942.11,-141.47 976.74,-132.48"/>
<polygon fill="#63b8ff" stroke="#63b8ff" points="851.75,-161.31 842.95,-167.21 853.5,-168.09 851.75,-161.31"/>
</a>
</g>
</g>
<!-- Node17 -->
<g id="Node000017" class="node">
<title>Node17</title>
<g id="a_Node000017"><a xlink:href="../../de/d72/_a_e_frame_8hpp.html" target="_top" xlink:title=" ">
<polygon fill="white" stroke="#666666" points="1276.25,-132 1122.25,-132 1122.25,-112 1276.25,-112 1276.25,-132"/>
<text text-anchor="middle" x="1199.25" y="-118.5" font-family="Helvetica,sans-Serif" font-size="10.00">AEFrame/include/AEFrame.hpp</text>
</a>
</g>
</g>
<!-- Node16&#45;&gt;Node17 -->
<g id="edge23_Node000016_Node000017" class="edge">
<title>Node16&#45;&gt;Node17</title>
<g id="a_edge23_Node000016_Node000017"><a xlink:title=" ">
<path fill="none" stroke="#63b8ff" d="M885.59,-165.99C957.55,-156.13 1061.98,-141.81 1130.25,-132.46"/>
<polygon fill="#63b8ff" stroke="#63b8ff" points="885.26,-162.5 875.83,-167.33 886.21,-169.44 885.26,-162.5"/>
</a>
</g>
</g>
<!-- Node18 -->
<g id="Node000018" class="node">
<title>Node18</title>
<g id="a_Node000018"><a xlink:href="../../dc/dc6/_a_e_timer_8hpp.html" target="_top" xlink:title=" ">
<polygon fill="white" stroke="#666666" points="1272.5,-76 1126,-76 1126,-56 1272.5,-56 1272.5,-76"/>
<text text-anchor="middle" x="1199.25" y="-62.5" font-family="Helvetica,sans-Serif" font-size="10.00">AETimer/include/AETimer.hpp</text>
</a>
</g>
</g>
<!-- Node17&#45;&gt;Node18 -->
<g id="edge24_Node000017_Node000018" class="edge">
<title>Node17&#45;&gt;Node18</title>
<g id="a_edge24_Node000017_Node000018"><a xlink:title=" ">
<path fill="none" stroke="#63b8ff" d="M1199.25,-100.13C1199.25,-91.9 1199.25,-82.85 1199.25,-76.3"/>
<polygon fill="#63b8ff" stroke="#63b8ff" points="1195.75,-100.08 1199.25,-110.08 1202.75,-100.08 1195.75,-100.08"/>
</a>
</g>
</g>
</g>
</svg>
