<?xml version="1.0" encoding="UTF-8" standalone="no"?>
<!DOCTYPE svg PUBLIC "-//W3C//DTD SVG 1.1//EN"
 "http://www.w3.org/Graphics/SVG/1.1/DTD/svg11.dtd">
<!-- Generated by graphviz version 10.0.1 (20240210.2158)
 -->
<!-- Title: ace::math::truncToInt Pages: 1 -->
<svg width="301pt" height="218pt"
 viewBox="0.00 0.00 301.00 218.00" xmlns="http://www.w3.org/2000/svg" xmlns:xlink="http://www.w3.org/1999/xlink">
<g id="graph0" class="graph" transform="scale(1 1) rotate(0) translate(4 214)">
<title>ace::math::truncToInt</title>
<!-- Node1 -->
<g id="Node000001" class="node">
<title>Node1</title>
<g id="a_Node000001"><a xlink:title="Truncates the given float of type Y and converts to integer of type T.">
<polygon fill="#999999" stroke="#666666" points="293,-115 184.75,-115 184.75,-95 293,-95 293,-115"/>
<text text-anchor="middle" x="238.88" y="-101.5" font-family="Helvetica,sans-Serif" font-size="10.00">ace::math::truncToInt</text>
</a>
</g>
</g>
<!-- Node2 -->
<g id="Node000002" class="node">
<title>Node2</title>
<g id="a_Node000002"><a xlink:href="../../d5/d0f/namespaceace_1_1math.html#a18ebf5127edf0556e8f1e25dffd8c1a1" target="_top" xlink:title="Calculates the interpolated cosine value from the cosine lookup table.">
<polygon fill="white" stroke="#666666" points="148.75,-210 0,-210 0,-190 148.75,-190 148.75,-210"/>
<text text-anchor="middle" x="74.38" y="-196.5" font-family="Helvetica,sans-Serif" font-size="10.00">ace::math::cosDeg_tableInterp</text>
</a>
</g>
</g>
<!-- Node1&#45;&gt;Node2 -->
<g id="edge1_Node000001_Node000002" class="edge">
<title>Node1&#45;&gt;Node2</title>
<g id="a_edge1_Node000001_Node000002"><a xlink:title=" ">
<path fill="none" stroke="#63b8ff" d="M221.08,-123.52C204.36,-140.85 177.17,-166.21 148.75,-181 142.21,-184.4 135.02,-187.22 127.78,-189.56"/>
<polygon fill="#63b8ff" stroke="#63b8ff" points="223.48,-126.07 227.78,-116.39 218.38,-121.28 223.48,-126.07"/>
</a>
</g>
</g>
<!-- Node3 -->
<g id="Node000003" class="node">
<title>Node3</title>
<g id="a_Node000003"><a xlink:href="../../d5/d0f/namespaceace_1_1math.html#a9251fed86320f2ebdb6ab999631d538c" target="_top" xlink:title="Calculates the interpolated cotangent value from the cotangent lookup table.">
<polygon fill="white" stroke="#666666" points="147.62,-172 1.12,-172 1.12,-152 147.62,-152 147.62,-172"/>
<text text-anchor="middle" x="74.38" y="-158.5" font-family="Helvetica,sans-Serif" font-size="10.00">ace::math::cotDeg_tableInterp</text>
</a>
</g>
</g>
<!-- Node1&#45;&gt;Node3 -->
<g id="edge2_Node000001_Node000003" class="edge">
<title>Node1&#45;&gt;Node3</title>
<g id="a_edge2_Node000001_Node000003"><a xlink:title=" ">
<path fill="none" stroke="#63b8ff" d="M205.56,-120.16C188.84,-127.65 167.95,-136.46 148.75,-143 139.66,-146.1 129.78,-148.97 120.31,-151.5"/>
<polygon fill="#63b8ff" stroke="#63b8ff" points="206.86,-123.42 214.51,-116.09 203.96,-117.04 206.86,-123.42"/>
</a>
</g>
</g>
<!-- Node4 -->
<g id="Node000004" class="node">
<title>Node4</title>
<g id="a_Node000004"><a xlink:href="../../d5/d0f/namespaceace_1_1math.html#a6707069eefabdb087b2fd2d38da37435" target="_top" xlink:title="Approximates the interpolated cosecant value from the cosecant lookup table.">
<polygon fill="white" stroke="#666666" points="148.75,-134 0,-134 0,-114 148.75,-114 148.75,-134"/>
<text text-anchor="middle" x="74.38" y="-120.5" font-family="Helvetica,sans-Serif" font-size="10.00">ace::math::cscDeg_tableInterp</text>
</a>
</g>
</g>
<!-- Node1&#45;&gt;Node4 -->
<g id="edge3_Node000001_Node000004" class="edge">
<title>Node1&#45;&gt;Node4</title>
<g id="a_edge3_Node000001_Node000004"><a xlink:title=" ">
<path fill="none" stroke="#63b8ff" d="M173.5,-112.53C165.47,-113.47 157.21,-114.43 149.06,-115.38"/>
<polygon fill="#63b8ff" stroke="#63b8ff" points="173.64,-116.03 183.16,-111.4 172.82,-109.08 173.64,-116.03"/>
</a>
</g>
</g>
<!-- Node5 -->
<g id="Node000005" class="node">
<title>Node5</title>
<g id="a_Node000005"><a xlink:href="../../d5/d0f/namespaceace_1_1math.html#ae64a12ecfbee0650dd5137ea7e592316" target="_top" xlink:title="Calculates the interpolated secant value from the secant lookup table.">
<polygon fill="white" stroke="#666666" points="148.75,-96 0,-96 0,-76 148.75,-76 148.75,-96"/>
<text text-anchor="middle" x="74.38" y="-82.5" font-family="Helvetica,sans-Serif" font-size="10.00">ace::math::secDeg_tableInterp</text>
</a>
</g>
</g>
<!-- Node1&#45;&gt;Node5 -->
<g id="edge4_Node000001_Node000005" class="edge">
<title>Node1&#45;&gt;Node5</title>
<g id="a_edge4_Node000001_Node000005"><a xlink:title=" ">
<path fill="none" stroke="#63b8ff" d="M173.5,-97.47C165.47,-96.53 157.21,-95.57 149.06,-94.62"/>
<polygon fill="#63b8ff" stroke="#63b8ff" points="172.82,-100.92 183.16,-98.6 173.64,-93.97 172.82,-100.92"/>
</a>
</g>
</g>
<!-- Node6 -->
<g id="Node000006" class="node">
<title>Node6</title>
<g id="a_Node000006"><a xlink:href="../../d5/d0f/namespaceace_1_1math.html#a8b735b9dcfe704b66ea207694f61a44a" target="_top" xlink:title="Calculates the interpolated sine value from the sine lookup table.">
<polygon fill="white" stroke="#666666" points="147.25,-58 1.5,-58 1.5,-38 147.25,-38 147.25,-58"/>
<text text-anchor="middle" x="74.38" y="-44.5" font-family="Helvetica,sans-Serif" font-size="10.00">ace::math::sinDeg_tableInterp</text>
</a>
</g>
</g>
<!-- Node1&#45;&gt;Node6 -->
<g id="edge5_Node000001_Node000006" class="edge">
<title>Node1&#45;&gt;Node6</title>
<g id="a_edge5_Node000001_Node000006"><a xlink:title=" ">
<path fill="none" stroke="#63b8ff" d="M205.56,-89.84C188.84,-82.35 167.95,-73.54 148.75,-67 139.66,-63.9 129.78,-61.03 120.31,-58.5"/>
<polygon fill="#63b8ff" stroke="#63b8ff" points="203.96,-92.96 214.51,-93.91 206.86,-86.58 203.96,-92.96"/>
</a>
</g>
</g>
<!-- Node7 -->
<g id="Node000007" class="node">
<title>Node7</title>
<g id="a_Node000007"><a xlink:href="../../d5/d0f/namespaceace_1_1math.html#a6e57c9ac7e4386cbbdd36c5f61498685" target="_top" xlink:title="Calculates the interpolated tangent value from the tangent lookup table.">
<polygon fill="white" stroke="#666666" points="147.62,-20 1.12,-20 1.12,0 147.62,0 147.62,-20"/>
<text text-anchor="middle" x="74.38" y="-6.5" font-family="Helvetica,sans-Serif" font-size="10.00">ace::math::tanDeg_tableInterp</text>
</a>
</g>
</g>
<!-- Node1&#45;&gt;Node7 -->
<g id="edge6_Node000001_Node000007" class="edge">
<title>Node1&#45;&gt;Node7</title>
<g id="a_edge6_Node000001_Node000007"><a xlink:title=" ">
<path fill="none" stroke="#63b8ff" d="M221.08,-86.48C204.36,-69.15 177.17,-43.79 148.75,-29 142.21,-25.6 135.02,-22.78 127.78,-20.44"/>
<polygon fill="#63b8ff" stroke="#63b8ff" points="218.38,-88.72 227.78,-93.61 223.48,-83.93 218.38,-88.72"/>
</a>
</g>
</g>
</g>
</svg>
