<?xml version="1.0" encoding="UTF-8" standalone="no"?>
<!DOCTYPE svg PUBLIC "-//W3C//DTD SVG 1.1//EN"
 "http://www.w3.org/Graphics/SVG/1.1/DTD/svg11.dtd">
<!-- Generated by graphviz version 10.0.1 (20240210.2158)
 -->
<!-- Title: ace::math::sqrt Pages: 1 -->
<svg width="287pt" height="66pt"
 viewBox="0.00 0.00 286.75 66.00" xmlns="http://www.w3.org/2000/svg" xmlns:xlink="http://www.w3.org/1999/xlink">
<g id="graph0" class="graph" transform="scale(1 1) rotate(0) translate(4 62)">
<title>ace::math::sqrt</title>
<!-- Node1 -->
<g id="Node000001" class="node">
<title>Node1</title>
<g id="a_Node000001"><a xlink:title="Newton&#39;s method sqrt implementation, compatible with constexpr evaluation.">
<polygon fill="#999999" stroke="#666666" points="278.75,-39 196.75,-39 196.75,-19 278.75,-19 278.75,-39"/>
<text text-anchor="middle" x="237.75" y="-25.5" font-family="Helvetica,sans-Serif" font-size="10.00">ace::math::sqrt</text>
</a>
</g>
</g>
<!-- Node2 -->
<g id="Node000002" class="node">
<title>Node2</title>
<g id="a_Node000002"><a xlink:href="../../dc/df6/struct_a_e_vector.html#a4fbe00c7ab3e00bc2cd62b9c3414679c" target="_top" xlink:title="Calculates the vector that is perpendicular to &quot;this&quot;, with the length of projection of the given vec...">
<polygon fill="white" stroke="#666666" points="160.75,-58 0,-58 0,-38 160.75,-38 160.75,-58"/>
<text text-anchor="middle" x="80.38" y="-44.5" font-family="Helvetica,sans-Serif" font-size="10.00">AEVector::perpendicularToVector</text>
</a>
</g>
</g>
<!-- Node1&#45;&gt;Node2 -->
<g id="edge1_Node000001_Node000002" class="edge">
<title>Node1&#45;&gt;Node2</title>
<g id="a_edge1_Node000001_Node000002"><a xlink:title=" ">
<path fill="none" stroke="#63b8ff" d="M184.98,-35.33C177.28,-36.27 169.19,-37.26 161.07,-38.25"/>
<polygon fill="#63b8ff" stroke="#63b8ff" points="185.33,-38.81 194.83,-34.13 184.48,-31.87 185.33,-38.81"/>
</a>
</g>
</g>
<!-- Node3 -->
<g id="Node000003" class="node">
<title>Node3</title>
<g id="a_Node000003"><a xlink:href="../../d5/d0f/namespaceace_1_1math.html#a43dfe745f66a0345771e8ba5d70e184e" target="_top" xlink:title="Calculate the n&#39;th root of a number.">
<polygon fill="white" stroke="#666666" points="121.38,-20 39.38,-20 39.38,0 121.38,0 121.38,-20"/>
<text text-anchor="middle" x="80.38" y="-6.5" font-family="Helvetica,sans-Serif" font-size="10.00">ace::math::root</text>
</a>
</g>
</g>
<!-- Node1&#45;&gt;Node3 -->
<g id="edge2_Node000001_Node000003" class="edge">
<title>Node1&#45;&gt;Node3</title>
<g id="a_edge2_Node000001_Node000003"><a xlink:title=" ">
<path fill="none" stroke="#63b8ff" d="M184.93,-22.66C164.39,-20.15 141.13,-17.31 121.86,-14.95"/>
<polygon fill="#63b8ff" stroke="#63b8ff" points="184.48,-26.13 194.83,-23.87 185.33,-19.19 184.48,-26.13"/>
</a>
</g>
</g>
</g>
</svg>
