<?xml version="1.0" encoding="UTF-8" standalone="no"?>
<!DOCTYPE svg PUBLIC "-//W3C//DTD SVG 1.1//EN"
 "http://www.w3.org/Graphics/SVG/1.1/DTD/svg11.dtd">
<!-- Generated by graphviz version 10.0.1 (20240210.2158)
 -->
<!-- Title: ace::math::_getTrigTableIndex Pages: 1 -->
<svg width="339pt" height="446pt"
 viewBox="0.00 0.00 339.25 446.00" xmlns="http://www.w3.org/2000/svg" xmlns:xlink="http://www.w3.org/1999/xlink">

<svg id="main" version="1.1" xmlns="http://www.w3.org/2000/svg" xmlns:xlink="http://www.w3.org/1999/xlink" xml:space="preserve" onload="init(evt)">
<style type="text/css"><![CDATA[
.node, .edge {opacity: 0.7;}
.node.selected, .edge.selected {opacity: 1;}
.edge:hover path { stroke: red; }
.edge:hover polygon { stroke: red; fill: red; }
]]></style>
<script type="application/ecmascript" xlink:href="../../svg.min.js"/>
<svg id="graph" class="graph">
<g id="graph0" class="graph" transform="scale(1 1) rotate(0) translate(4 442)">
<title>ace::math::_getTrigTableIndex</title>
<!-- Node1 -->
<g id="Node000001" class="node">
<title>Node1</title>
<g id="a_Node000001"><a xlink:title="Returns the index to the trig table from the given (int) degree number.">
<polygon fill="#999999" stroke="#666666" points="331.25,-229 184.75,-229 184.75,-209 331.25,-209 331.25,-229"/>
<text text-anchor="middle" x="258" y="-215.5" font-family="Helvetica,sans-Serif" font-size="10.00">ace::math::_getTrigTableIndex</text>
</a>
</g>
</g>
<!-- Node2 -->
<g id="Node000002" class="node">
<title>Node2</title>
<g id="a_Node000002"><a xlink:href="../../d5/d0f/namespaceace_1_1math.html#a87335418d422478a1c6ed62a58d0cd0c" target="_top" xlink:title="Rounds the degrees value, and looks up the value of cosine in the table.">
<polygon fill="white" stroke="#666666" points="136.75,-438 12,-438 12,-418 136.75,-418 136.75,-438"/>
<text text-anchor="middle" x="74.38" y="-424.5" font-family="Helvetica,sans-Serif" font-size="10.00">ace::math::cosDeg_table</text>
</a>
</g>
</g>
<!-- Node1&#45;&gt;Node2 -->
<g id="edge1_Node000001_Node000002" class="edge">
<title>Node1&#45;&gt;Node2</title>
<g id="a_edge1_Node000001_Node000002"><a xlink:title=" ">
<path fill="none" stroke="#63b8ff" d="M251.06,-240C238.79,-279.43 206.82,-364.56 148.75,-409 144.26,-412.44 139.2,-415.26 133.9,-417.57"/>
<polygon fill="#63b8ff" stroke="#63b8ff" points="254.37,-241.16 253.87,-230.57 247.66,-239.16 254.37,-241.16"/>
</a>
</g>
</g>
<!-- Node3 -->
<g id="Node000003" class="node">
<title>Node3</title>
<g id="a_Node000003"><a xlink:href="../../d5/d0f/namespaceace_1_1math.html#a18ebf5127edf0556e8f1e25dffd8c1a1" target="_top" xlink:title="Calculates the interpolated cosine value from the cosine lookup table.">
<polygon fill="white" stroke="#666666" points="148.75,-400 0,-400 0,-380 148.75,-380 148.75,-400"/>
<text text-anchor="middle" x="74.38" y="-386.5" font-family="Helvetica,sans-Serif" font-size="10.00">ace::math::cosDeg_tableInterp</text>
</a>
</g>
</g>
<!-- Node1&#45;&gt;Node3 -->
<g id="edge2_Node000001_Node000003" class="edge">
<title>Node1&#45;&gt;Node3</title>
<g id="a_edge2_Node000001_Node000003"><a xlink:title=" ">
<path fill="none" stroke="#63b8ff" d="M248.07,-239.66C232.73,-272.66 198.17,-337 148.75,-371 143.76,-374.43 138.2,-377.24 132.43,-379.55"/>
<polygon fill="#63b8ff" stroke="#63b8ff" points="251.16,-241.33 252.07,-230.78 244.78,-238.46 251.16,-241.33"/>
</a>
</g>
</g>
<!-- Node4 -->
<g id="Node000004" class="node">
<title>Node4</title>
<g id="a_Node000004"><a xlink:href="../../d5/d0f/namespaceace_1_1math.html#add8d8d764538a610f0e7502f6fb772fb" target="_top" xlink:title="Rounds the degrees value, and looks up the value of cotangent in the table.">
<polygon fill="white" stroke="#666666" points="135.62,-362 13.12,-362 13.12,-342 135.62,-342 135.62,-362"/>
<text text-anchor="middle" x="74.38" y="-348.5" font-family="Helvetica,sans-Serif" font-size="10.00">ace::math::cotDeg_table</text>
</a>
</g>
</g>
<!-- Node1&#45;&gt;Node4 -->
<g id="edge3_Node000001_Node000004" class="edge">
<title>Node1&#45;&gt;Node4</title>
<g id="a_edge3_Node000001_Node000004"><a xlink:title=" ">
<path fill="none" stroke="#63b8ff" d="M243.68,-238.78C225.34,-264.44 189.88,-308.77 148.75,-333 142.97,-336.41 136.58,-339.21 130.05,-341.51"/>
<polygon fill="#63b8ff" stroke="#63b8ff" points="246.54,-240.79 249.39,-230.58 240.8,-236.79 246.54,-240.79"/>
</a>
</g>
</g>
<!-- Node5 -->
<g id="Node000005" class="node">
<title>Node5</title>
<g id="a_Node000005"><a xlink:href="../../d5/d0f/namespaceace_1_1math.html#a9251fed86320f2ebdb6ab999631d538c" target="_top" xlink:title="Calculates the interpolated cotangent value from the cotangent lookup table.">
<polygon fill="white" stroke="#666666" points="147.62,-324 1.12,-324 1.12,-304 147.62,-304 147.62,-324"/>
<text text-anchor="middle" x="74.38" y="-310.5" font-family="Helvetica,sans-Serif" font-size="10.00">ace::math::cotDeg_tableInterp</text>
</a>
</g>
</g>
<!-- Node1&#45;&gt;Node5 -->
<g id="edge4_Node000001_Node000005" class="edge">
<title>Node1&#45;&gt;Node5</title>
<g id="a_edge4_Node000001_Node000005"><a xlink:title=" ">
<path fill="none" stroke="#63b8ff" d="M236.65,-236.69C215.86,-253.9 182.01,-279.63 148.75,-295 141.46,-298.37 133.48,-301.21 125.55,-303.58"/>
<polygon fill="#63b8ff" stroke="#63b8ff" points="238.69,-239.55 244.07,-230.42 234.17,-234.2 238.69,-239.55"/>
</a>
</g>
</g>
<!-- Node6 -->
<g id="Node000006" class="node">
<title>Node6</title>
<g id="a_Node000006"><a xlink:href="../../d5/d0f/namespaceace_1_1math.html#a99c321c1ec7c050aa5cb7fdba6feda7d" target="_top" xlink:title="Rounds the degrees value, and looks up the value of cosecant in the table.">
<polygon fill="white" stroke="#666666" points="136.75,-286 12,-286 12,-266 136.75,-266 136.75,-286"/>
<text text-anchor="middle" x="74.38" y="-272.5" font-family="Helvetica,sans-Serif" font-size="10.00">ace::math::cscDeg_table</text>
</a>
</g>
</g>
<!-- Node1&#45;&gt;Node6 -->
<g id="edge5_Node000001_Node000006" class="edge">
<title>Node1&#45;&gt;Node6</title>
<g id="a_edge5_Node000001_Node000006"><a xlink:title=" ">
<path fill="none" stroke="#63b8ff" d="M218.64,-233.35C198.05,-240.83 172.17,-249.87 148.75,-257 138.93,-259.99 128.28,-262.92 118.22,-265.55"/>
<polygon fill="#63b8ff" stroke="#63b8ff" points="219.57,-236.74 227.76,-230.01 217.16,-230.17 219.57,-236.74"/>
</a>
</g>
</g>
<!-- Node7 -->
<g id="Node000007" class="node">
<title>Node7</title>
<g id="a_Node000007"><a xlink:href="../../d5/d0f/namespaceace_1_1math.html#a6707069eefabdb087b2fd2d38da37435" target="_top" xlink:title="Approximates the interpolated cosecant value from the cosecant lookup table.">
<polygon fill="white" stroke="#666666" points="148.75,-248 0,-248 0,-228 148.75,-228 148.75,-248"/>
<text text-anchor="middle" x="74.38" y="-234.5" font-family="Helvetica,sans-Serif" font-size="10.00">ace::math::cscDeg_tableInterp</text>
</a>
</g>
</g>
<!-- Node1&#45;&gt;Node7 -->
<g id="edge6_Node000001_Node000007" class="edge">
<title>Node1&#45;&gt;Node7</title>
<g id="a_edge6_Node000001_Node000007"><a xlink:title=" ">
<path fill="none" stroke="#63b8ff" d="M173.13,-227.77C165.08,-228.62 156.95,-229.47 149.01,-230.3"/>
<polygon fill="#63b8ff" stroke="#63b8ff" points="173.35,-231.27 182.93,-226.75 172.62,-224.31 173.35,-231.27"/>
</a>
</g>
</g>
<!-- Node8 -->
<g id="Node000008" class="node">
<title>Node8</title>
<g id="a_Node000008"><a xlink:href="../../d5/d0f/namespaceace_1_1math.html#a3b2d519345e0c179128b55b5c71e388c" target="_top" xlink:title="Rounds the degrees value, and looks up the value of secant in the table.">
<polygon fill="white" stroke="#666666" points="136.75,-210 12,-210 12,-190 136.75,-190 136.75,-210"/>
<text text-anchor="middle" x="74.38" y="-196.5" font-family="Helvetica,sans-Serif" font-size="10.00">ace::math::secDeg_table</text>
</a>
</g>
</g>
<!-- Node1&#45;&gt;Node8 -->
<g id="edge7_Node000001_Node000008" class="edge">
<title>Node1&#45;&gt;Node8</title>
<g id="a_edge7_Node000001_Node000008"><a xlink:title=" ">
<path fill="none" stroke="#63b8ff" d="M173.29,-210.24C161.07,-208.96 148.68,-207.67 137.01,-206.45"/>
<polygon fill="#63b8ff" stroke="#63b8ff" points="172.62,-213.69 182.93,-211.25 173.35,-206.73 172.62,-213.69"/>
</a>
</g>
</g>
<!-- Node9 -->
<g id="Node000009" class="node">
<title>Node9</title>
<g id="a_Node000009"><a xlink:href="../../d5/d0f/namespaceace_1_1math.html#ae64a12ecfbee0650dd5137ea7e592316" target="_top" xlink:title="Calculates the interpolated secant value from the secant lookup table.">
<polygon fill="white" stroke="#666666" points="148.75,-172 0,-172 0,-152 148.75,-152 148.75,-172"/>
<text text-anchor="middle" x="74.38" y="-158.5" font-family="Helvetica,sans-Serif" font-size="10.00">ace::math::secDeg_tableInterp</text>
</a>
</g>
</g>
<!-- Node1&#45;&gt;Node9 -->
<g id="edge8_Node000001_Node000009" class="edge">
<title>Node1&#45;&gt;Node9</title>
<g id="a_edge8_Node000001_Node000009"><a xlink:title=" ">
<path fill="none" stroke="#63b8ff" d="M218.64,-204.65C198.05,-197.17 172.17,-188.13 148.75,-181 138.93,-178.01 128.28,-175.08 118.22,-172.45"/>
<polygon fill="#63b8ff" stroke="#63b8ff" points="217.16,-207.83 227.76,-207.99 219.57,-201.26 217.16,-207.83"/>
</a>
</g>
</g>
<!-- Node10 -->
<g id="Node000010" class="node">
<title>Node10</title>
<g id="a_Node000010"><a xlink:href="../../d5/d0f/namespaceace_1_1math.html#a42d54b758ac8f4209a9e73cd654a9df9" target="_top" xlink:title="Rounds the degrees value, and looks up the value of sine in the table.">
<polygon fill="white" stroke="#666666" points="135.25,-134 13.5,-134 13.5,-114 135.25,-114 135.25,-134"/>
<text text-anchor="middle" x="74.38" y="-120.5" font-family="Helvetica,sans-Serif" font-size="10.00">ace::math::sinDeg_table</text>
</a>
</g>
</g>
<!-- Node1&#45;&gt;Node10 -->
<g id="edge9_Node000001_Node000010" class="edge">
<title>Node1&#45;&gt;Node10</title>
<g id="a_edge9_Node000001_Node000010"><a xlink:title=" ">
<path fill="none" stroke="#63b8ff" d="M236.65,-201.31C215.86,-184.1 182.01,-158.37 148.75,-143 141.46,-139.63 133.48,-136.79 125.55,-134.42"/>
<polygon fill="#63b8ff" stroke="#63b8ff" points="234.17,-203.8 244.07,-207.58 238.69,-198.45 234.17,-203.8"/>
</a>
</g>
</g>
<!-- Node11 -->
<g id="Node000011" class="node">
<title>Node11</title>
<g id="a_Node000011"><a xlink:href="../../d5/d0f/namespaceace_1_1math.html#a8b735b9dcfe704b66ea207694f61a44a" target="_top" xlink:title="Calculates the interpolated sine value from the sine lookup table.">
<polygon fill="white" stroke="#666666" points="147.25,-96 1.5,-96 1.5,-76 147.25,-76 147.25,-96"/>
<text text-anchor="middle" x="74.38" y="-82.5" font-family="Helvetica,sans-Serif" font-size="10.00">ace::math::sinDeg_tableInterp</text>
</a>
</g>
</g>
<!-- Node1&#45;&gt;Node11 -->
<g id="edge10_Node000001_Node000011" class="edge">
<title>Node1&#45;&gt;Node11</title>
<g id="a_edge10_Node000001_Node000011"><a xlink:title=" ">
<path fill="none" stroke="#63b8ff" d="M243.68,-199.22C225.34,-173.56 189.88,-129.23 148.75,-105 142.97,-101.59 136.58,-98.79 130.05,-96.49"/>
<polygon fill="#63b8ff" stroke="#63b8ff" points="240.8,-201.21 249.39,-207.42 246.54,-197.21 240.8,-201.21"/>
</a>
</g>
</g>
<!-- Node12 -->
<g id="Node000012" class="node">
<title>Node12</title>
<g id="a_Node000012"><a xlink:href="../../d5/d0f/namespaceace_1_1math.html#a786f18fe82d4392ed2d3ac2a9672b769" target="_top" xlink:title="Rounds the degrees value, and looks up the value of tangent in the table.">
<polygon fill="white" stroke="#666666" points="135.62,-58 13.12,-58 13.12,-38 135.62,-38 135.62,-58"/>
<text text-anchor="middle" x="74.38" y="-44.5" font-family="Helvetica,sans-Serif" font-size="10.00">ace::math::tanDeg_table</text>
</a>
</g>
</g>
<!-- Node1&#45;&gt;Node12 -->
<g id="edge11_Node000001_Node000012" class="edge">
<title>Node1&#45;&gt;Node12</title>
<g id="a_edge11_Node000001_Node000012"><a xlink:title=" ">
<path fill="none" stroke="#63b8ff" d="M248.07,-198.34C232.73,-165.34 198.17,-101 148.75,-67 143.76,-63.57 138.2,-60.76 132.43,-58.45"/>
<polygon fill="#63b8ff" stroke="#63b8ff" points="244.78,-199.54 252.07,-207.22 251.16,-196.67 244.78,-199.54"/>
</a>
</g>
</g>
<!-- Node13 -->
<g id="Node000013" class="node">
<title>Node13</title>
<g id="a_Node000013"><a xlink:href="../../d5/d0f/namespaceace_1_1math.html#a6e57c9ac7e4386cbbdd36c5f61498685" target="_top" xlink:title="Calculates the interpolated tangent value from the tangent lookup table.">
<polygon fill="white" stroke="#666666" points="147.62,-20 1.12,-20 1.12,0 147.62,0 147.62,-20"/>
<text text-anchor="middle" x="74.38" y="-6.5" font-family="Helvetica,sans-Serif" font-size="10.00">ace::math::tanDeg_tableInterp</text>
</a>
</g>
</g>
<!-- Node1&#45;&gt;Node13 -->
<g id="edge12_Node000001_Node000013" class="edge">
<title>Node1&#45;&gt;Node13</title>
<g id="a_edge12_Node000001_Node000013"><a xlink:title=" ">
<path fill="none" stroke="#63b8ff" d="M251.06,-198C238.79,-158.57 206.82,-73.44 148.75,-29 144.26,-25.56 139.2,-22.74 133.9,-20.43"/>
<polygon fill="#63b8ff" stroke="#63b8ff" points="247.66,-198.84 253.87,-207.43 254.37,-196.84 247.66,-198.84"/>
</a>
</g>
</g>
</g>
</svg>
</svg>

<style type='text/css'>
<![CDATA[
[data-mouse-over-selected='false'] { opacity: 0.7; }
[data-mouse-over-selected='true']  { opacity: 1.0; }
]]>
</style>
<script type="application/ecmascript"><![CDATA[
document.addEventListener('DOMContentLoaded', (event) => {
  highlightEdges();
  highlightAdjacentNodes();
});
]]></script>
</svg>
