<?xml version="1.0" encoding="UTF-8" standalone="no"?>
<!DOCTYPE svg PUBLIC "-//W3C//DTD SVG 1.1//EN"
 "http://www.w3.org/Graphics/SVG/1.1/DTD/svg11.dtd">
<!-- Generated by graphviz version 10.0.1 (20240210.2158)
 -->
<!-- Title: ace::math::truncToInt Pages: 1 -->
<svg width="234pt" height="46pt"
 viewBox="0.00 0.00 233.50 46.00" xmlns="http://www.w3.org/2000/svg" xmlns:xlink="http://www.w3.org/1999/xlink">
<g id="graph0" class="graph" transform="scale(1 1) rotate(0) translate(4 42)">
<title>ace::math::truncToInt</title>
<!-- Node1 -->
<g id="Node000001" class="node">
<title>Node1</title>
<g id="a_Node000001"><a xlink:title="Truncates the given float of type Y and converts to integer of type T.">
<polygon fill="#999999" stroke="#666666" points="108.25,-20 0,-20 0,0 108.25,0 108.25,-20"/>
<text text-anchor="middle" x="54.12" y="-6.5" font-family="Helvetica,sans-Serif" font-size="10.00">ace::math::truncToInt</text>
</a>
</g>
</g>
<!-- Node2 -->
<g id="Node000002" class="node">
<title>Node2</title>
<g id="a_Node000002"><a xlink:href="../../d5/d0f/namespaceace_1_1math.html#a3fe0b48ce2d8fd78f7758ae1b6cef83b" target="_top" xlink:title="Gets the smallest value between given two values.">
<polygon fill="white" stroke="#666666" points="225.5,-20 144.25,-20 144.25,0 225.5,0 225.5,-20"/>
<text text-anchor="middle" x="184.88" y="-6.5" font-family="Helvetica,sans-Serif" font-size="10.00">ace::math::min</text>
</a>
</g>
</g>
<!-- Node1&#45;&gt;Node2 -->
<g id="edge1_Node000001_Node000002" class="edge">
<title>Node1&#45;&gt;Node2</title>
<g id="a_edge1_Node000001_Node000002"><a xlink:title=" ">
<path fill="none" stroke="#63b8ff" d="M108.61,-10C116.59,-10 124.81,-10 132.74,-10"/>
<polygon fill="#63b8ff" stroke="#63b8ff" points="132.59,-13.5 142.59,-10 132.59,-6.5 132.59,-13.5"/>
</a>
</g>
</g>
<!-- Node2&#45;&gt;Node2 -->
<g id="edge2_Node000002_Node000002" class="edge">
<title>Node2&#45;&gt;Node2</title>
<g id="a_edge2_Node000002_Node000002"><a xlink:title=" ">
<path fill="none" stroke="#63b8ff" d="M164.1,-20.34C155.22,-28.98 162.15,-38 184.88,-38 197.3,-38 205.01,-35.3 207.98,-31.44"/>
<polygon fill="#63b8ff" stroke="#63b8ff" points="211.44,-30.89 205.96,-21.82 204.59,-32.33 211.44,-30.89"/>
</a>
</g>
</g>
</g>
</svg>
