<?xml version="1.0" encoding="UTF-8" standalone="no"?>
<!DOCTYPE svg PUBLIC "-//W3C//DTD SVG 1.1//EN"
 "http://www.w3.org/Graphics/SVG/1.1/DTD/svg11.dtd">
<!-- Generated by graphviz version 10.0.1 (20240210.2158)
 -->
<!-- Title: ace::math::toRad Pages: 1 -->
<svg width="368pt" height="104pt"
 viewBox="0.00 0.00 368.00 104.00" xmlns="http://www.w3.org/2000/svg" xmlns:xlink="http://www.w3.org/1999/xlink">

<svg id="main" version="1.1" xmlns="http://www.w3.org/2000/svg" xmlns:xlink="http://www.w3.org/1999/xlink" xml:space="preserve" onload="init(evt)">
<style type="text/css"><![CDATA[
.node, .edge {opacity: 0.7;}
.node.selected, .edge.selected {opacity: 1;}
.edge:hover path { stroke: red; }
.edge:hover polygon { stroke: red; fill: red; }
]]></style>
<script type="application/ecmascript" xlink:href="../../svg.min.js"/>
<svg id="graph" class="graph">
<g id="graph0" class="graph" transform="scale(1 1) rotate(0) translate(4 100)">
<title>ace::math::toRad</title>
<!-- Node1 -->
<g id="Node000001" class="node">
<title>Node1</title>
<g id="a_Node000001"><a xlink:title="Convert given degrees to radians">
<polygon fill="#999999" stroke="#666666" points="360,-58 269,-58 269,-38 360,-38 360,-58"/>
<text text-anchor="middle" x="314.5" y="-44.5" font-family="Helvetica,sans-Serif" font-size="10.00">ace::math::toRad</text>
</a>
</g>
</g>
<!-- Node2 -->
<g id="Node000002" class="node">
<title>Node2</title>
<g id="a_Node000002"><a xlink:href="../../d5/d0f/namespaceace_1_1math.html#a6d6fc7afd09d4c910a45218da9ae2bc6" target="_top" xlink:title="Calculates the cosine of degrees">
<polygon fill="white" stroke="#666666" points="233,-96 134.5,-96 134.5,-76 233,-76 233,-96"/>
<text text-anchor="middle" x="183.75" y="-82.5" font-family="Helvetica,sans-Serif" font-size="10.00">ace::math::cosDeg</text>
</a>
</g>
</g>
<!-- Node1&#45;&gt;Node2 -->
<g id="edge1_Node000001_Node000002" class="edge">
<title>Node1&#45;&gt;Node2</title>
<g id="a_edge1_Node000001_Node000002"><a xlink:title=" ">
<path fill="none" stroke="#63b8ff" d="M267.05,-61.71C251.59,-66.27 234.64,-71.28 220.16,-75.55"/>
<polygon fill="#63b8ff" stroke="#63b8ff" points="267.93,-65.1 276.53,-58.91 265.94,-58.39 267.93,-65.1"/>
</a>
</g>
</g>
<!-- Node4 -->
<g id="Node000004" class="node">
<title>Node4</title>
<g id="a_Node000004"><a xlink:href="../../d5/d0f/namespaceace_1_1math.html#a2d1b0ee0e065a1fb3350dad86d582d17" target="_top" xlink:title="Calculates the sine of degrees">
<polygon fill="white" stroke="#666666" points="231.5,-58 136,-58 136,-38 231.5,-38 231.5,-58"/>
<text text-anchor="middle" x="183.75" y="-44.5" font-family="Helvetica,sans-Serif" font-size="10.00">ace::math::sinDeg</text>
</a>
</g>
</g>
<!-- Node1&#45;&gt;Node4 -->
<g id="edge3_Node000001_Node000004" class="edge">
<title>Node1&#45;&gt;Node4</title>
<g id="a_edge3_Node000001_Node000004"><a xlink:title=" ">
<path fill="none" stroke="#63b8ff" d="M257.43,-48C248.94,-48 240.25,-48 231.97,-48"/>
<polygon fill="#63b8ff" stroke="#63b8ff" points="257.32,-51.5 267.32,-48 257.32,-44.5 257.32,-51.5"/>
</a>
</g>
</g>
<!-- Node6 -->
<g id="Node000006" class="node">
<title>Node6</title>
<g id="a_Node000006"><a xlink:href="../../d5/d0f/namespaceace_1_1math.html#a15512ebb416126f59cdb7669b5c39b48" target="_top" xlink:title="Calculates the tangent of degrees">
<polygon fill="white" stroke="#666666" points="231.88,-20 135.62,-20 135.62,0 231.88,0 231.88,-20"/>
<text text-anchor="middle" x="183.75" y="-6.5" font-family="Helvetica,sans-Serif" font-size="10.00">ace::math::tanDeg</text>
</a>
</g>
</g>
<!-- Node1&#45;&gt;Node6 -->
<g id="edge5_Node000001_Node000006" class="edge">
<title>Node1&#45;&gt;Node6</title>
<g id="a_edge5_Node000001_Node000006"><a xlink:title=" ">
<path fill="none" stroke="#63b8ff" d="M267.05,-34.29C251.59,-29.73 234.64,-24.72 220.16,-20.45"/>
<polygon fill="#63b8ff" stroke="#63b8ff" points="265.94,-37.61 276.53,-37.09 267.93,-30.9 265.94,-37.61"/>
</a>
</g>
</g>
<!-- Node3 -->
<g id="Node000003" class="node">
<title>Node3</title>
<g id="a_Node000003"><a xlink:href="../../d5/d0f/namespaceace_1_1math.html#a5cbfa3de675e6e68387a936162bfe77b" target="_top" xlink:title="Calculates the secant of degrees">
<polygon fill="white" stroke="#666666" points="98.5,-96 0,-96 0,-76 98.5,-76 98.5,-96"/>
<text text-anchor="middle" x="49.25" y="-82.5" font-family="Helvetica,sans-Serif" font-size="10.00">ace::math::secDeg</text>
</a>
</g>
</g>
<!-- Node2&#45;&gt;Node3 -->
<g id="edge2_Node000002_Node000003" class="edge">
<title>Node2&#45;&gt;Node3</title>
<g id="a_edge2_Node000002_Node000003"><a xlink:title=" ">
<path fill="none" stroke="#63b8ff" d="M122.91,-86C114.85,-86 106.66,-86 98.83,-86"/>
<polygon fill="#63b8ff" stroke="#63b8ff" points="122.65,-89.5 132.65,-86 122.65,-82.5 122.65,-89.5"/>
</a>
</g>
</g>
<!-- Node5 -->
<g id="Node000005" class="node">
<title>Node5</title>
<g id="a_Node000005"><a xlink:href="../../d5/d0f/namespaceace_1_1math.html#aeb83e68b525d9da76ba43522371e1faf" target="_top" xlink:title="Calculates the cosecant of degrees">
<polygon fill="white" stroke="#666666" points="98.5,-58 0,-58 0,-38 98.5,-38 98.5,-58"/>
<text text-anchor="middle" x="49.25" y="-44.5" font-family="Helvetica,sans-Serif" font-size="10.00">ace::math::cscDeg</text>
</a>
</g>
</g>
<!-- Node4&#45;&gt;Node5 -->
<g id="edge4_Node000004_Node000005" class="edge">
<title>Node4&#45;&gt;Node5</title>
<g id="a_edge4_Node000004_Node000005"><a xlink:title=" ">
<path fill="none" stroke="#63b8ff" d="M124.29,-48C115.84,-48 107.21,-48 98.98,-48"/>
<polygon fill="#63b8ff" stroke="#63b8ff" points="124.15,-51.5 134.15,-48 124.15,-44.5 124.15,-51.5"/>
</a>
</g>
</g>
<!-- Node7 -->
<g id="Node000007" class="node">
<title>Node7</title>
<g id="a_Node000007"><a xlink:href="../../d5/d0f/namespaceace_1_1math.html#a6ae1260251ad68d4b5d97276dfe067f1" target="_top" xlink:title="Calculates the cotangent of degrees">
<polygon fill="white" stroke="#666666" points="97.38,-20 1.13,-20 1.13,0 97.38,0 97.38,-20"/>
<text text-anchor="middle" x="49.25" y="-6.5" font-family="Helvetica,sans-Serif" font-size="10.00">ace::math::cotDeg</text>
</a>
</g>
</g>
<!-- Node6&#45;&gt;Node7 -->
<g id="edge6_Node000006_Node000007" class="edge">
<title>Node6&#45;&gt;Node7</title>
<g id="a_edge6_Node000006_Node000007"><a xlink:title=" ">
<path fill="none" stroke="#63b8ff" d="M123.95,-10C115.21,-10 106.3,-10 97.83,-10"/>
<polygon fill="#63b8ff" stroke="#63b8ff" points="123.78,-13.5 133.78,-10 123.78,-6.5 123.78,-13.5"/>
</a>
</g>
</g>
</g>
</svg>
</svg>

<style type='text/css'>
<![CDATA[
[data-mouse-over-selected='false'] { opacity: 0.7; }
[data-mouse-over-selected='true']  { opacity: 1.0; }
]]>
</style>
<script type="application/ecmascript"><![CDATA[
document.addEventListener('DOMContentLoaded', (event) => {
  highlightEdges();
  highlightAdjacentNodes();
});
]]></script>
</svg>
