<?xml version="1.0" encoding="UTF-8" standalone="no"?>
<!DOCTYPE svg PUBLIC "-//W3C//DTD SVG 1.1//EN"
 "http://www.w3.org/Graphics/SVG/1.1/DTD/svg11.dtd">
<!-- Generated by graphviz version 10.0.1 (20240210.2158)
 -->
<!-- Title: ace::math::ceilToInt Pages: 1 -->
<svg width="227pt" height="46pt"
 viewBox="0.00 0.00 226.75 46.00" xmlns="http://www.w3.org/2000/svg" xmlns:xlink="http://www.w3.org/1999/xlink">
<g id="graph0" class="graph" transform="scale(1 1) rotate(0) translate(4 42)">
<title>ace::math::ceilToInt</title>
<!-- Node1 -->
<g id="Node000001" class="node">
<title>Node1</title>
<g id="a_Node000001"><a xlink:title="Ceil&#39;s the given float of type Y and converts to integer of type T.">
<polygon fill="#999999" stroke="#666666" points="101.5,-20 0,-20 0,0 101.5,0 101.5,-20"/>
<text text-anchor="middle" x="50.75" y="-6.5" font-family="Helvetica,sans-Serif" font-size="10.00">ace::math::ceilToInt</text>
</a>
</g>
</g>
<!-- Node2 -->
<g id="Node000002" class="node">
<title>Node2</title>
<g id="a_Node000002"><a xlink:href="../../d5/d0f/namespaceace_1_1math.html#a3fe0b48ce2d8fd78f7758ae1b6cef83b" target="_top" xlink:title="Gets the smallest value between given two values.">
<polygon fill="white" stroke="#666666" points="218.75,-20 137.5,-20 137.5,0 218.75,0 218.75,-20"/>
<text text-anchor="middle" x="178.12" y="-6.5" font-family="Helvetica,sans-Serif" font-size="10.00">ace::math::min</text>
</a>
</g>
</g>
<!-- Node1&#45;&gt;Node2 -->
<g id="edge1_Node000001_Node000002" class="edge">
<title>Node1&#45;&gt;Node2</title>
<g id="a_edge1_Node000001_Node000002"><a xlink:title=" ">
<path fill="none" stroke="#63b8ff" d="M101.66,-10C109.55,-10 117.73,-10 125.65,-10"/>
<polygon fill="#63b8ff" stroke="#63b8ff" points="125.51,-13.5 135.51,-10 125.51,-6.5 125.51,-13.5"/>
</a>
</g>
</g>
<!-- Node2&#45;&gt;Node2 -->
<g id="edge2_Node000002_Node000002" class="edge">
<title>Node2&#45;&gt;Node2</title>
<g id="a_edge2_Node000002_Node000002"><a xlink:title=" ">
<path fill="none" stroke="#63b8ff" d="M157.89,-20.34C149.24,-28.98 155.98,-38 178.12,-38 190.23,-38 197.74,-35.3 200.64,-31.44"/>
<polygon fill="#63b8ff" stroke="#63b8ff" points="204.1,-30.92 198.67,-21.82 197.25,-32.32 204.1,-30.92"/>
</a>
</g>
</g>
</g>
</svg>
