<?xml version="1.0" encoding="UTF-8" standalone="no"?>
<!DOCTYPE svg PUBLIC "-//W3C//DTD SVG 1.1//EN"
 "http://www.w3.org/Graphics/SVG/1.1/DTD/svg11.dtd">
<!-- Generated by graphviz version 10.0.1 (20240210.2158)
 -->
<!-- Title: ace::math::equals Pages: 1 -->
<svg width="430pt" height="104pt"
 viewBox="0.00 0.00 429.50 104.00" xmlns="http://www.w3.org/2000/svg" xmlns:xlink="http://www.w3.org/1999/xlink">
<g id="graph0" class="graph" transform="scale(1 1) rotate(0) translate(4 100)">
<title>ace::math::equals</title>
<!-- Node1 -->
<g id="Node000001" class="node">
<title>Node1</title>
<g id="a_Node000001"><a xlink:title="Checks if given 2 numbers are equal, a generic function for all types.">
<polygon fill="#999999" stroke="#666666" points="421.5,-58 327.5,-58 327.5,-38 421.5,-38 421.5,-58"/>
<text text-anchor="middle" x="374.5" y="-44.5" font-family="Helvetica,sans-Serif" font-size="10.00">ace::math::equals</text>
</a>
</g>
</g>
<!-- Node2 -->
<g id="Node000002" class="node">
<title>Node2</title>
<g id="a_Node000002"><a xlink:href="../../d5/d0f/namespaceace_1_1math.html#a0447feb296aec26be391db73b3b66292" target="_top" xlink:title="Calculate the integer exponent of a given number.">
<polygon fill="white" stroke="#666666" points="291.5,-96 196.75,-96 196.75,-76 291.5,-76 291.5,-96"/>
<text text-anchor="middle" x="244.12" y="-82.5" font-family="Helvetica,sans-Serif" font-size="10.00">ace::math::intPow</text>
</a>
</g>
</g>
<!-- Node1&#45;&gt;Node2 -->
<g id="edge1_Node000001_Node000002" class="edge">
<title>Node1&#45;&gt;Node2</title>
<g id="a_edge1_Node000001_Node000002"><a xlink:title=" ">
<path fill="none" stroke="#63b8ff" d="M327.18,-61.71C311.77,-66.27 294.87,-71.28 280.43,-75.55"/>
<polygon fill="#63b8ff" stroke="#63b8ff" points="328.03,-65.11 336.63,-58.91 326.05,-58.4 328.03,-65.11"/>
</a>
</g>
</g>
<!-- Node3 -->
<g id="Node000003" class="node">
<title>Node3</title>
<g id="a_Node000003"><a xlink:href="../../d5/d0f/namespaceace_1_1math.html#a43dfe745f66a0345771e8ba5d70e184e" target="_top" xlink:title="Calculate the n&#39;th root of a number.">
<polygon fill="white" stroke="#666666" points="121.38,-58 39.38,-58 39.38,-38 121.38,-38 121.38,-58"/>
<text text-anchor="middle" x="80.38" y="-44.5" font-family="Helvetica,sans-Serif" font-size="10.00">ace::math::root</text>
</a>
</g>
</g>
<!-- Node1&#45;&gt;Node3 -->
<g id="edge2_Node000001_Node000003" class="edge">
<title>Node1&#45;&gt;Node3</title>
<g id="a_edge2_Node000001_Node000003"><a xlink:title=" ">
<path fill="none" stroke="#63b8ff" d="M315.81,-48C258.51,-48 172.15,-48 121.8,-48"/>
<polygon fill="#63b8ff" stroke="#63b8ff" points="315.7,-51.5 325.7,-48 315.7,-44.5 315.7,-51.5"/>
</a>
</g>
</g>
<!-- Node4 -->
<g id="Node000004" class="node">
<title>Node4</title>
<g id="a_Node000004"><a xlink:href="../../d5/d0f/namespaceace_1_1math.html#a934ea1d09debbfd89edc14bd99c2f665" target="_top" xlink:title="Newton&#39;s method sqrt implementation, compatible with constexpr evaluation.">
<polygon fill="white" stroke="#666666" points="285.12,-20 203.12,-20 203.12,0 285.12,0 285.12,-20"/>
<text text-anchor="middle" x="244.12" y="-6.5" font-family="Helvetica,sans-Serif" font-size="10.00">ace::math::sqrt</text>
</a>
</g>
</g>
<!-- Node1&#45;&gt;Node4 -->
<g id="edge3_Node000001_Node000004" class="edge">
<title>Node1&#45;&gt;Node4</title>
<g id="a_edge3_Node000001_Node000004"><a xlink:title=" ">
<path fill="none" stroke="#63b8ff" d="M327.18,-34.29C311.77,-29.73 294.87,-24.72 280.43,-20.45"/>
<polygon fill="#63b8ff" stroke="#63b8ff" points="326.05,-37.6 336.63,-37.09 328.03,-30.89 326.05,-37.6"/>
</a>
</g>
</g>
<!-- Node4&#45;&gt;Node3 -->
<g id="edge5_Node000004_Node000003" class="edge">
<title>Node4&#45;&gt;Node3</title>
<g id="a_edge5_Node000004_Node000003"><a xlink:title=" ">
<path fill="none" stroke="#63b8ff" d="M191.63,-22.1C169.06,-27.4 142.96,-33.53 121.82,-38.5"/>
<polygon fill="#63b8ff" stroke="#63b8ff" points="192.32,-25.53 201.25,-19.84 190.72,-18.72 192.32,-25.53"/>
</a>
</g>
</g>
<!-- Node5 -->
<g id="Node000005" class="node">
<title>Node5</title>
<g id="a_Node000005"><a xlink:href="../../dc/df6/struct_a_e_vector.html#a4fbe00c7ab3e00bc2cd62b9c3414679c" target="_top" xlink:title="Calculates the vector that is perpendicular to &quot;this&quot;, with the length of projection of the given vec...">
<polygon fill="white" stroke="#666666" points="160.75,-20 0,-20 0,0 160.75,0 160.75,-20"/>
<text text-anchor="middle" x="80.38" y="-6.5" font-family="Helvetica,sans-Serif" font-size="10.00">AEVector::perpendicularToVector</text>
</a>
</g>
</g>
<!-- Node4&#45;&gt;Node5 -->
<g id="edge4_Node000004_Node000005" class="edge">
<title>Node4&#45;&gt;Node5</title>
<g id="a_edge4_Node000004_Node000005"><a xlink:title=" ">
<path fill="none" stroke="#63b8ff" d="M191.28,-10C181.61,-10 171.29,-10 161,-10"/>
<polygon fill="#63b8ff" stroke="#63b8ff" points="191.21,-13.5 201.21,-10 191.21,-6.5 191.21,-13.5"/>
</a>
</g>
</g>
</g>
</svg>
