<?xml version="1.0" encoding="UTF-8" standalone="no"?>
<!DOCTYPE svg PUBLIC "-//W3C//DTD SVG 1.1//EN"
 "http://www.w3.org/Graphics/SVG/1.1/DTD/svg11.dtd">
<!-- Generated by graphviz version 10.0.1 (20240210.2158)
 -->
<!-- Title: ace::math::lerp Pages: 1 -->
<svg width="207pt" height="46pt"
 viewBox="0.00 0.00 206.50 46.00" xmlns="http://www.w3.org/2000/svg" xmlns:xlink="http://www.w3.org/1999/xlink">
<g id="graph0" class="graph" transform="scale(1 1) rotate(0) translate(4 42)">
<title>ace::math::lerp</title>
<!-- Node1 -->
<g id="Node000001" class="node">
<title>Node1</title>
<g id="a_Node000001"><a xlink:title="Computes the linear inter/extrapolation with the given interval boundaries a and b,...">
<polygon fill="#999999" stroke="#666666" points="81.25,-20 0,-20 0,0 81.25,0 81.25,-20"/>
<text text-anchor="middle" x="40.62" y="-6.5" font-family="Helvetica,sans-Serif" font-size="10.00">ace::math::lerp</text>
</a>
</g>
</g>
<!-- Node2 -->
<g id="Node000002" class="node">
<title>Node2</title>
<g id="a_Node000002"><a xlink:href="../../d5/d0f/namespaceace_1_1math.html#a3fe0b48ce2d8fd78f7758ae1b6cef83b" target="_top" xlink:title="Gets the smallest value between given two values.">
<polygon fill="white" stroke="#666666" points="198.5,-20 117.25,-20 117.25,0 198.5,0 198.5,-20"/>
<text text-anchor="middle" x="157.88" y="-6.5" font-family="Helvetica,sans-Serif" font-size="10.00">ace::math::min</text>
</a>
</g>
</g>
<!-- Node1&#45;&gt;Node2 -->
<g id="edge1_Node000001_Node000002" class="edge">
<title>Node1&#45;&gt;Node2</title>
<g id="a_edge1_Node000001_Node000002"><a xlink:title=" ">
<path fill="none" stroke="#63b8ff" d="M81.61,-10C89.39,-10 97.64,-10 105.72,-10"/>
<polygon fill="#63b8ff" stroke="#63b8ff" points="105.45,-13.5 115.45,-10 105.45,-6.5 105.45,-13.5"/>
</a>
</g>
</g>
<!-- Node2&#45;&gt;Node2 -->
<g id="edge2_Node000002_Node000002" class="edge">
<title>Node2&#45;&gt;Node2</title>
<g id="a_edge2_Node000002_Node000002"><a xlink:title=" ">
<path fill="none" stroke="#63b8ff" d="M139.25,-20.34C131.28,-28.98 137.49,-38 157.88,-38 169.02,-38 175.93,-35.3 178.6,-31.44"/>
<polygon fill="#63b8ff" stroke="#63b8ff" points="182.08,-31 176.79,-21.83 175.2,-32.3 182.08,-31"/>
</a>
</g>
</g>
</g>
</svg>
