<?xml version="1.0" encoding="UTF-8" standalone="no"?>
<!DOCTYPE svg PUBLIC "-//W3C//DTD SVG 1.1//EN"
 "http://www.w3.org/Graphics/SVG/1.1/DTD/svg11.dtd">
<!-- Generated by graphviz version 10.0.1 (20240210.2158)
 -->
<!-- Title: ace::math::secDeg_tableInterp Pages: 1 -->
<svg width="339pt" height="66pt"
 viewBox="0.00 0.00 339.25 66.00" xmlns="http://www.w3.org/2000/svg" xmlns:xlink="http://www.w3.org/1999/xlink">
<g id="graph0" class="graph" transform="scale(1 1) rotate(0) translate(4 62)">
<title>ace::math::secDeg_tableInterp</title>
<!-- Node1 -->
<g id="Node000001" class="node">
<title>Node1</title>
<g id="a_Node000001"><a xlink:title="Calculates the interpolated secant value from the secant lookup table.">
<polygon fill="#999999" stroke="#666666" points="148.75,-39 0,-39 0,-19 148.75,-19 148.75,-39"/>
<text text-anchor="middle" x="74.38" y="-25.5" font-family="Helvetica,sans-Serif" font-size="10.00">ace::math::secDeg_tableInterp</text>
</a>
</g>
</g>
<!-- Node2 -->
<g id="Node000002" class="node">
<title>Node2</title>
<g id="a_Node000002"><a xlink:href="../../d5/d0f/namespaceace_1_1math.html#a979611f412d7ed1d25ff28bf50e5463a" target="_top" xlink:title="Returns the index to the trig table from the given (int) degree number.">
<polygon fill="white" stroke="#666666" points="331.25,-58 184.75,-58 184.75,-38 331.25,-38 331.25,-58"/>
<text text-anchor="middle" x="258" y="-44.5" font-family="Helvetica,sans-Serif" font-size="10.00">ace::math::_getTrigTableIndex</text>
</a>
</g>
</g>
<!-- Node1&#45;&gt;Node2 -->
<g id="edge1_Node000001_Node000002" class="edge">
<title>Node1&#45;&gt;Node2</title>
<g id="a_edge1_Node000001_Node000002"><a xlink:title=" ">
<path fill="none" stroke="#63b8ff" d="M149.25,-36.73C157.13,-37.55 165.18,-38.39 173.16,-39.23"/>
<polygon fill="#63b8ff" stroke="#63b8ff" points="172.55,-42.68 182.86,-40.24 173.28,-35.72 172.55,-42.68"/>
</a>
</g>
</g>
<!-- Node3 -->
<g id="Node000003" class="node">
<title>Node3</title>
<g id="a_Node000003"><a xlink:href="../../d5/d0f/namespaceace_1_1math.html#aa76b58464f6cbc1a0adfb9f1f7add2c3" target="_top" xlink:title="Truncates the given float of type Y and converts to integer of type T.">
<polygon fill="white" stroke="#666666" points="312.12,-20 203.88,-20 203.88,0 312.12,0 312.12,-20"/>
<text text-anchor="middle" x="258" y="-6.5" font-family="Helvetica,sans-Serif" font-size="10.00">ace::math::truncToInt</text>
</a>
</g>
</g>
<!-- Node1&#45;&gt;Node3 -->
<g id="edge2_Node000001_Node000003" class="edge">
<title>Node1&#45;&gt;Node3</title>
<g id="a_edge2_Node000001_Node000003"><a xlink:title=" ">
<path fill="none" stroke="#63b8ff" d="M149.25,-21.27C163.44,-19.79 178.21,-18.24 192.1,-16.79"/>
<polygon fill="#63b8ff" stroke="#63b8ff" points="192.43,-20.27 202.01,-15.75 191.7,-13.31 192.43,-20.27"/>
</a>
</g>
</g>
</g>
</svg>
