<?xml version="1.0" encoding="UTF-8" standalone="no"?>
<!DOCTYPE svg PUBLIC "-//W3C//DTD SVG 1.1//EN"
 "http://www.w3.org/Graphics/SVG/1.1/DTD/svg11.dtd">
<!-- Generated by graphviz version 10.0.1 (20240210.2158)
 -->
<!-- Title: ace::math::truncToInt Pages: 1 -->
<svg width="336pt" height="180pt"
 viewBox="0.00 0.00 335.50 180.00" xmlns="http://www.w3.org/2000/svg" xmlns:xlink="http://www.w3.org/1999/xlink">
<g id="graph0" class="graph" transform="scale(1 1) rotate(0) translate(4 176)">
<title>ace::math::truncToInt</title>
<!-- Node1 -->
<g id="Node000001" class="node">
<title>Node1</title>
<g id="a_Node000001"><a xlink:title="Truncates the given float of type Y and converts to integer of type T.">
<polygon fill="#999999" stroke="#666666" points="327.5,-96 219.25,-96 219.25,-76 327.5,-76 327.5,-96"/>
<text text-anchor="middle" x="273.38" y="-82.5" font-family="Helvetica,sans-Serif" font-size="10.00">ace::math::truncToInt</text>
</a>
</g>
</g>
<!-- Node2 -->
<g id="Node000002" class="node">
<title>Node2</title>
<g id="a_Node000002"><a xlink:href="../../d7/d2c/namespaceace_1_1math_1_1lookup.html#abbfe8148837eadb3a83a33ba9a02d19f" target="_top" xlink:title="Calculates the interpolated cosine value from the cosine lookup table.">
<polygon fill="white" stroke="#666666" points="183.25,-172 0,-172 0,-152 183.25,-152 183.25,-172"/>
<text text-anchor="middle" x="91.62" y="-158.5" font-family="Helvetica,sans-Serif" font-size="10.00">ace::math::lookup::cosDeg_tableInterp</text>
</a>
</g>
</g>
<!-- Node1&#45;&gt;Node2 -->
<g id="edge1_Node000001_Node000002" class="edge">
<title>Node1&#45;&gt;Node2</title>
<g id="a_edge1_Node000001_Node000002"><a xlink:title=" ">
<path fill="none" stroke="#63b8ff" d="M250.89,-102.92C233.56,-115.75 208.07,-132.86 183.25,-143 174.92,-146.4 165.89,-149.23 156.88,-151.56"/>
<polygon fill="#63b8ff" stroke="#63b8ff" points="252.56,-106.05 258.41,-97.21 248.33,-100.47 252.56,-106.05"/>
</a>
</g>
</g>
<!-- Node3 -->
<g id="Node000003" class="node">
<title>Node3</title>
<g id="a_Node000003"><a xlink:href="../../d7/d2c/namespaceace_1_1math_1_1lookup.html#abf04874acf4316d96c1a0b532453dc3a" target="_top" xlink:title="Calculates the interpolated cotangent value from the cotangent lookup table.">
<polygon fill="white" stroke="#666666" points="182.12,-134 1.12,-134 1.12,-114 182.12,-114 182.12,-134"/>
<text text-anchor="middle" x="91.62" y="-120.5" font-family="Helvetica,sans-Serif" font-size="10.00">ace::math::lookup::cotDeg_tableInterp</text>
</a>
</g>
</g>
<!-- Node1&#45;&gt;Node3 -->
<g id="edge2_Node000001_Node000003" class="edge">
<title>Node1&#45;&gt;Node3</title>
<g id="a_edge2_Node000001_Node000003"><a xlink:title=" ">
<path fill="none" stroke="#63b8ff" d="M212.15,-98.87C202.49,-100.92 192.6,-103.02 183.25,-105 170.04,-107.79 155.74,-110.8 142.49,-113.58"/>
<polygon fill="#63b8ff" stroke="#63b8ff" points="212.82,-102.3 221.87,-96.8 211.36,-95.46 212.82,-102.3"/>
</a>
</g>
</g>
<!-- Node4 -->
<g id="Node000004" class="node">
<title>Node4</title>
<g id="a_Node000004"><a xlink:href="../../d7/d2c/namespaceace_1_1math_1_1lookup.html#a3ee63cea375c99c44db7d659427de5cc" target="_top" xlink:title="Approximates the interpolated cosecant value from the cosecant lookup table.">
<polygon fill="white" stroke="#666666" points="183.25,-96 0,-96 0,-76 183.25,-76 183.25,-96"/>
<text text-anchor="middle" x="91.62" y="-82.5" font-family="Helvetica,sans-Serif" font-size="10.00">ace::math::lookup::cscDeg_tableInterp</text>
</a>
</g>
</g>
<!-- Node1&#45;&gt;Node4 -->
<g id="edge3_Node000001_Node000004" class="edge">
<title>Node1&#45;&gt;Node4</title>
<g id="a_edge3_Node000001_Node000004"><a xlink:title=" ">
<path fill="none" stroke="#63b8ff" d="M207.67,-86C199.82,-86 191.7,-86 183.57,-86"/>
<polygon fill="#63b8ff" stroke="#63b8ff" points="207.42,-89.5 217.42,-86 207.42,-82.5 207.42,-89.5"/>
</a>
</g>
</g>
<!-- Node5 -->
<g id="Node000005" class="node">
<title>Node5</title>
<g id="a_Node000005"><a xlink:href="../../d7/d2c/namespaceace_1_1math_1_1lookup.html#af24f87d23914edec32fa064024aeade4" target="_top" xlink:title="Calculates the interpolated secant value from the secant lookup table.">
<polygon fill="white" stroke="#666666" points="183.25,-58 0,-58 0,-38 183.25,-38 183.25,-58"/>
<text text-anchor="middle" x="91.62" y="-44.5" font-family="Helvetica,sans-Serif" font-size="10.00">ace::math::lookup::secDeg_tableInterp</text>
</a>
</g>
</g>
<!-- Node1&#45;&gt;Node5 -->
<g id="edge4_Node000001_Node000005" class="edge">
<title>Node1&#45;&gt;Node5</title>
<g id="a_edge4_Node000001_Node000005"><a xlink:title=" ">
<path fill="none" stroke="#63b8ff" d="M212.15,-73.13C202.49,-71.08 192.6,-68.98 183.25,-67 170.04,-64.21 155.74,-61.2 142.49,-58.42"/>
<polygon fill="#63b8ff" stroke="#63b8ff" points="211.36,-76.54 221.87,-75.2 212.82,-69.7 211.36,-76.54"/>
</a>
</g>
</g>
<!-- Node6 -->
<g id="Node000006" class="node">
<title>Node6</title>
<g id="a_Node000006"><a xlink:href="../../d7/d2c/namespaceace_1_1math_1_1lookup.html#a815acb61180fa295b7eb03314fe13ca3" target="_top" xlink:title="Calculates the interpolated tangent value from the tangent lookup table.">
<polygon fill="white" stroke="#666666" points="182.12,-20 1.12,-20 1.12,0 182.12,0 182.12,-20"/>
<text text-anchor="middle" x="91.62" y="-6.5" font-family="Helvetica,sans-Serif" font-size="10.00">ace::math::lookup::tanDeg_tableInterp</text>
</a>
</g>
</g>
<!-- Node1&#45;&gt;Node6 -->
<g id="edge5_Node000001_Node000006" class="edge">
<title>Node1&#45;&gt;Node6</title>
<g id="a_edge5_Node000001_Node000006"><a xlink:title=" ">
<path fill="none" stroke="#63b8ff" d="M250.89,-69.08C233.56,-56.25 208.07,-39.14 183.25,-29 174.92,-25.6 165.89,-22.77 156.88,-20.44"/>
<polygon fill="#63b8ff" stroke="#63b8ff" points="248.33,-71.53 258.41,-74.79 252.56,-65.95 248.33,-71.53"/>
</a>
</g>
</g>
</g>
</svg>
