<?xml version="1.0" encoding="UTF-8" standalone="no"?>
<!DOCTYPE svg PUBLIC "-//W3C//DTD SVG 1.1//EN"
 "http://www.w3.org/Graphics/SVG/1.1/DTD/svg11.dtd">
<!-- Generated by graphviz version 10.0.1 (20240210.2158)
 -->
<!-- Title: ace::math::truncToInt Pages: 1 -->
<svg width="336pt" height="218pt"
 viewBox="0.00 0.00 335.50 218.00" xmlns="http://www.w3.org/2000/svg" xmlns:xlink="http://www.w3.org/1999/xlink">

<svg id="main" version="1.1" xmlns="http://www.w3.org/2000/svg" xmlns:xlink="http://www.w3.org/1999/xlink" xml:space="preserve" onload="init(evt)">
<style type="text/css"><![CDATA[
.node, .edge {opacity: 0.7;}
.node.selected, .edge.selected {opacity: 1;}
.edge:hover path { stroke: red; }
.edge:hover polygon { stroke: red; fill: red; }
]]></style>
<script type="application/ecmascript" xlink:href="../../svg.min.js"/>
<svg id="graph" class="graph">
<g id="graph0" class="graph" transform="scale(1 1) rotate(0) translate(4 214)">
<title>ace::math::truncToInt</title>
<!-- Node1 -->
<g id="Node000001" class="node">
<title>Node1</title>
<g id="a_Node000001"><a xlink:title="Truncates the given float of type Y and converts to integer of type T.">
<polygon fill="#999999" stroke="#666666" points="327.5,-115 219.25,-115 219.25,-95 327.5,-95 327.5,-115"/>
<text text-anchor="middle" x="273.38" y="-101.5" font-family="Helvetica,sans-Serif" font-size="10.00">ace::math::truncToInt</text>
</a>
</g>
</g>
<!-- Node2 -->
<g id="Node000002" class="node">
<title>Node2</title>
<g id="a_Node000002"><a xlink:href="../../d7/d2c/namespaceace_1_1math_1_1lookup.html#abbfe8148837eadb3a83a33ba9a02d19f" target="_top" xlink:title="Calculates the interpolated cosine value from the cosine lookup table.">
<polygon fill="white" stroke="#666666" points="183.25,-210 0,-210 0,-190 183.25,-190 183.25,-210"/>
<text text-anchor="middle" x="91.62" y="-196.5" font-family="Helvetica,sans-Serif" font-size="10.00">ace::math::lookup::cosDeg_tableInterp</text>
</a>
</g>
</g>
<!-- Node1&#45;&gt;Node2 -->
<g id="edge1_Node000001_Node000002" class="edge">
<title>Node1&#45;&gt;Node2</title>
<g id="a_edge1_Node000001_Node000002"><a xlink:title=" ">
<path fill="none" stroke="#63b8ff" d="M255.73,-123.81C239.12,-141.36 212.01,-166.88 183.25,-181 176.18,-184.47 168.49,-187.31 160.69,-189.63"/>
<polygon fill="#63b8ff" stroke="#63b8ff" points="258.18,-126.31 262.38,-116.58 253.03,-121.57 258.18,-126.31"/>
</a>
</g>
</g>
<!-- Node3 -->
<g id="Node000003" class="node">
<title>Node3</title>
<g id="a_Node000003"><a xlink:href="../../d7/d2c/namespaceace_1_1math_1_1lookup.html#abf04874acf4316d96c1a0b532453dc3a" target="_top" xlink:title="Calculates the interpolated cotangent value from the cotangent lookup table.">
<polygon fill="white" stroke="#666666" points="182.12,-172 1.12,-172 1.12,-152 182.12,-152 182.12,-172"/>
<text text-anchor="middle" x="91.62" y="-158.5" font-family="Helvetica,sans-Serif" font-size="10.00">ace::math::lookup::cotDeg_tableInterp</text>
</a>
</g>
</g>
<!-- Node1&#45;&gt;Node3 -->
<g id="edge2_Node000001_Node000003" class="edge">
<title>Node1&#45;&gt;Node3</title>
<g id="a_edge2_Node000001_Node000003"><a xlink:title=" ">
<path fill="none" stroke="#63b8ff" d="M240.87,-120.23C224.06,-127.89 202.86,-136.83 183.25,-143 172.98,-146.23 161.87,-149.07 151.08,-151.51"/>
<polygon fill="#63b8ff" stroke="#63b8ff" points="242.24,-123.45 249.84,-116.06 239.29,-117.1 242.24,-123.45"/>
</a>
</g>
</g>
<!-- Node4 -->
<g id="Node000004" class="node">
<title>Node4</title>
<g id="a_Node000004"><a xlink:href="../../d7/d2c/namespaceace_1_1math_1_1lookup.html#a3ee63cea375c99c44db7d659427de5cc" target="_top" xlink:title="Approximates the interpolated cosecant value from the cosecant lookup table.">
<polygon fill="white" stroke="#666666" points="183.25,-134 0,-134 0,-114 183.25,-114 183.25,-134"/>
<text text-anchor="middle" x="91.62" y="-120.5" font-family="Helvetica,sans-Serif" font-size="10.00">ace::math::lookup::cscDeg_tableInterp</text>
</a>
</g>
</g>
<!-- Node1&#45;&gt;Node4 -->
<g id="edge3_Node000001_Node000004" class="edge">
<title>Node1&#45;&gt;Node4</title>
<g id="a_edge3_Node000001_Node000004"><a xlink:title=" ">
<path fill="none" stroke="#63b8ff" d="M207.67,-111.84C199.82,-112.67 191.7,-113.53 183.57,-114.39"/>
<polygon fill="#63b8ff" stroke="#63b8ff" points="207.85,-115.34 217.43,-110.81 207.11,-108.38 207.85,-115.34"/>
</a>
</g>
</g>
<!-- Node5 -->
<g id="Node000005" class="node">
<title>Node5</title>
<g id="a_Node000005"><a xlink:href="../../d7/d2c/namespaceace_1_1math_1_1lookup.html#af24f87d23914edec32fa064024aeade4" target="_top" xlink:title="Calculates the interpolated secant value from the secant lookup table.">
<polygon fill="white" stroke="#666666" points="183.25,-96 0,-96 0,-76 183.25,-76 183.25,-96"/>
<text text-anchor="middle" x="91.62" y="-82.5" font-family="Helvetica,sans-Serif" font-size="10.00">ace::math::lookup::secDeg_tableInterp</text>
</a>
</g>
</g>
<!-- Node1&#45;&gt;Node5 -->
<g id="edge4_Node000001_Node000005" class="edge">
<title>Node1&#45;&gt;Node5</title>
<g id="a_edge4_Node000001_Node000005"><a xlink:title=" ">
<path fill="none" stroke="#63b8ff" d="M207.67,-98.16C199.82,-97.33 191.7,-96.47 183.57,-95.61"/>
<polygon fill="#63b8ff" stroke="#63b8ff" points="207.11,-101.62 217.43,-99.19 207.85,-94.66 207.11,-101.62"/>
</a>
</g>
</g>
<!-- Node6 -->
<g id="Node000006" class="node">
<title>Node6</title>
<g id="a_Node000006"><a xlink:href="../../d7/d2c/namespaceace_1_1math_1_1lookup.html#a815acb61180fa295b7eb03314fe13ca3" target="_top" xlink:title="Calculates the interpolated tangent value from the tangent lookup table.">
<polygon fill="white" stroke="#666666" points="182.12,-58 1.12,-58 1.12,-38 182.12,-38 182.12,-58"/>
<text text-anchor="middle" x="91.62" y="-44.5" font-family="Helvetica,sans-Serif" font-size="10.00">ace::math::lookup::tanDeg_tableInterp</text>
</a>
</g>
</g>
<!-- Node1&#45;&gt;Node6 -->
<g id="edge5_Node000001_Node000006" class="edge">
<title>Node1&#45;&gt;Node6</title>
<g id="a_edge5_Node000001_Node000006"><a xlink:title=" ">
<path fill="none" stroke="#63b8ff" d="M240.87,-89.77C224.06,-82.11 202.86,-73.17 183.25,-67 172.98,-63.77 161.87,-60.93 151.08,-58.49"/>
<polygon fill="#63b8ff" stroke="#63b8ff" points="239.29,-92.9 249.84,-93.94 242.24,-86.55 239.29,-92.9"/>
</a>
</g>
</g>
<!-- Node7 -->
<g id="Node000007" class="node">
<title>Node7</title>
<g id="a_Node000007"><a xlink:href="../../d5/d0f/namespaceace_1_1math.html#ac1f96b72c81b7af8c6fad92cc7aa5d38" target="_top" xlink:title="Truncates the passed number of type Y and converts it to the type T.">
<polygon fill="white" stroke="#666666" points="135.25,-20 48,-20 48,0 135.25,0 135.25,-20"/>
<text text-anchor="middle" x="91.62" y="-6.5" font-family="Helvetica,sans-Serif" font-size="10.00">ace::math::trunc</text>
</a>
</g>
</g>
<!-- Node1&#45;&gt;Node7 -->
<g id="edge6_Node000001_Node000007" class="edge">
<title>Node1&#45;&gt;Node7</title>
<g id="a_edge6_Node000001_Node000007"><a xlink:title=" ">
<path fill="none" stroke="#63b8ff" d="M255.73,-86.19C239.12,-68.64 212.01,-43.12 183.25,-29 168.53,-21.77 151.15,-17.29 135.57,-14.51"/>
<polygon fill="#63b8ff" stroke="#63b8ff" points="253.03,-88.43 262.38,-93.42 258.18,-83.69 253.03,-88.43"/>
</a>
</g>
</g>
</g>
</svg>
</svg>

<style type='text/css'>
<![CDATA[
[data-mouse-over-selected='false'] { opacity: 0.7; }
[data-mouse-over-selected='true']  { opacity: 1.0; }
]]>
</style>
<script type="application/ecmascript"><![CDATA[
document.addEventListener('DOMContentLoaded', (event) => {
  highlightEdges();
  highlightAdjacentNodes();
});
]]></script>
</svg>
