<?xml version="1.0" encoding="UTF-8" standalone="no"?>
<!DOCTYPE svg PUBLIC "-//W3C//DTD SVG 1.1//EN"
 "http://www.w3.org/Graphics/SVG/1.1/DTD/svg11.dtd">
<!-- Generated by graphviz version 10.0.1 (20240210.2158)
 -->
<!-- Title: ace::math::cotDeg Pages: 1 -->
<svg width="364pt" height="28pt"
 viewBox="0.00 0.00 363.50 28.00" xmlns="http://www.w3.org/2000/svg" xmlns:xlink="http://www.w3.org/1999/xlink">
<g id="graph0" class="graph" transform="scale(1 1) rotate(0) translate(4 24)">
<title>ace::math::cotDeg</title>
<!-- Node1 -->
<g id="Node000001" class="node">
<title>Node1</title>
<g id="a_Node000001"><a xlink:title="Calculates the cotangent of degrees">
<polygon fill="#999999" stroke="#666666" points="96.25,-20 0,-20 0,0 96.25,0 96.25,-20"/>
<text text-anchor="middle" x="48.12" y="-6.5" font-family="Helvetica,sans-Serif" font-size="10.00">ace::math::cotDeg</text>
</a>
</g>
</g>
<!-- Node2 -->
<g id="Node000002" class="node">
<title>Node2</title>
<g id="a_Node000002"><a xlink:href="../../d5/d0f/namespaceace_1_1math.html#a15512ebb416126f59cdb7669b5c39b48" target="_top" xlink:title="Calculates the tangent of degrees">
<polygon fill="white" stroke="#666666" points="228.5,-20 132.25,-20 132.25,0 228.5,0 228.5,-20"/>
<text text-anchor="middle" x="180.38" y="-6.5" font-family="Helvetica,sans-Serif" font-size="10.00">ace::math::tanDeg</text>
</a>
</g>
</g>
<!-- Node1&#45;&gt;Node2 -->
<g id="edge1_Node000001_Node000002" class="edge">
<title>Node1&#45;&gt;Node2</title>
<g id="a_edge1_Node000001_Node000002"><a xlink:title=" ">
<path fill="none" stroke="#63b8ff" d="M96.52,-10C104.33,-10 112.51,-10 120.56,-10"/>
<polygon fill="#63b8ff" stroke="#63b8ff" points="120.29,-13.5 130.29,-10 120.29,-6.5 120.29,-13.5"/>
</a>
</g>
</g>
<!-- Node3 -->
<g id="Node000003" class="node">
<title>Node3</title>
<g id="a_Node000003"><a xlink:href="../../d5/d0f/namespaceace_1_1math.html#a34df987782d57f3ccb8d1cf75deb2fd2" target="_top" xlink:title="Convert given degrees to radians">
<polygon fill="white" stroke="#666666" points="355.5,-20 264.5,-20 264.5,0 355.5,0 355.5,-20"/>
<text text-anchor="middle" x="310" y="-6.5" font-family="Helvetica,sans-Serif" font-size="10.00">ace::math::toRad</text>
</a>
</g>
</g>
<!-- Node2&#45;&gt;Node3 -->
<g id="edge2_Node000002_Node000003" class="edge">
<title>Node2&#45;&gt;Node3</title>
<g id="a_edge2_Node000002_Node000003"><a xlink:title=" ">
<path fill="none" stroke="#63b8ff" d="M228.9,-10C236.8,-10 245.05,-10 253.14,-10"/>
<polygon fill="#63b8ff" stroke="#63b8ff" points="252.88,-13.5 262.88,-10 252.88,-6.5 252.88,-13.5"/>
</a>
</g>
</g>
</g>
</svg>
