<?xml version="1.0" encoding="UTF-8" standalone="no"?>
<!DOCTYPE svg PUBLIC "-//W3C//DTD SVG 1.1//EN"
 "http://www.w3.org/Graphics/SVG/1.1/DTD/svg11.dtd">
<!-- Generated by graphviz version 10.0.1 (20240210.2158)
 -->
<!-- Title: __AEModuleBase&lt; T &gt; Pages: 1 -->
<svg width="370pt" height="232pt"
 viewBox="0.00 0.00 369.50 232.00" xmlns="http://www.w3.org/2000/svg" xmlns:xlink="http://www.w3.org/1999/xlink">
<g id="graph0" class="graph" transform="scale(1 1) rotate(0) translate(4 228)">
<title>__AEModuleBase&lt; T &gt;</title>
<!-- Node1 -->
<g id="Node000001" class="node">
<title>Node1</title>
<g id="a_Node000001"><a xlink:title="This is a base class for all the modules in the engine; all basic modules inherit from it.">
<polygon fill="#999999" stroke="#666666" points="246.88,-20 129.62,-20 129.62,0 246.88,0 246.88,-20"/>
<text text-anchor="middle" x="188.25" y="-6.5" font-family="Helvetica,sans-Serif" font-size="10.00">__AEModuleBase&lt; T &gt;</text>
</a>
</g>
</g>
<!-- Node2 -->
<g id="Node000002" class="node">
<title>Node2</title>
<g id="a_Node000002"><a xlink:title=" ">
<polygon fill="white" stroke="#666666" points="128.5,-88 0,-88 0,-68 128.5,-68 128.5,-88"/>
<text text-anchor="middle" x="64.25" y="-74.5" font-family="Helvetica,sans-Serif" font-size="10.00">std::atomic&lt; std::size_t &gt;</text>
</a>
</g>
</g>
<!-- Node2&#45;&gt;Node1 -->
<g id="edge1_Node000001_Node000002" class="edge">
<title>Node2&#45;&gt;Node1</title>
<g id="a_edge1_Node000001_Node000002"><a xlink:title=" ">
<path fill="none" stroke="#9a32cd" stroke-dasharray="5,2" d="M77.35,-58.89C83.5,-51.51 91.37,-43.45 100,-38 112.33,-30.22 127.05,-24.56 140.89,-20.49"/>
<polygon fill="#9a32cd" stroke="#9a32cd" points="74.86,-56.39 71.49,-66.44 80.39,-60.69 74.86,-56.39"/>
</a>
</g>
<text text-anchor="middle" x="140.88" y="-40.5" font-family="Helvetica,sans-Serif" font-size="10.00" fill="grey"> m_ullModulesAlive</text>
</g>
<!-- Node3 -->
<g id="Node000003" class="node">
<title>Node3</title>
<g id="a_Node000003"><a xlink:title=" ">
<polygon fill="white" stroke="#666666" points="67.38,-156 25.12,-156 25.12,-136 67.38,-136 67.38,-156"/>
<text text-anchor="middle" x="46.25" y="-142.5" font-family="Helvetica,sans-Serif" font-size="10.00">size_t</text>
</a>
</g>
</g>
<!-- Node3&#45;&gt;Node2 -->
<g id="edge2_Node000002_Node000003" class="edge">
<title>Node3&#45;&gt;Node2</title>
<g id="a_edge2_Node000002_Node000003"><a xlink:title=" ">
<path fill="none" stroke="#9a32cd" stroke-dasharray="5,2" d="M44.56,-124.48C44.61,-118.42 45.23,-111.85 47,-106 48.93,-99.61 52.84,-93.28 56.45,-88.35"/>
<polygon fill="#9a32cd" stroke="#9a32cd" points="41.05,-124.44 44.98,-134.29 48.05,-124.15 41.05,-124.44"/>
</a>
</g>
<text text-anchor="middle" x="54.38" y="-108.5" font-family="Helvetica,sans-Serif" font-size="10.00" fill="grey"> ptr</text>
</g>
<!-- Node4 -->
<g id="Node000004" class="node">
<title>Node4</title>
<g id="a_Node000004"><a xlink:title=" ">
<polygon fill="white" stroke="#666666" points="187.25,-156 99.25,-156 99.25,-136 187.25,-136 187.25,-156"/>
<text text-anchor="middle" x="143.25" y="-142.5" font-family="Helvetica,sans-Serif" font-size="10.00">std::atomic&lt; T &gt;</text>
</a>
</g>
</g>
<!-- Node4&#45;&gt;Node2 -->
<g id="edge3_Node000002_Node000004" class="edge">
<title>Node4&#45;&gt;Node2</title>
<g id="a_edge3_Node000002_Node000004"><a xlink:title=" ">
<path fill="none" stroke="orange" stroke-dasharray="5,2" d="M107.67,-130.51C101.23,-126.98 94.86,-122.8 89.5,-118 80.13,-109.6 72.8,-96.96 68.51,-88.36"/>
<polygon fill="orange" stroke="orange" points="105.87,-133.52 116.38,-134.86 109,-127.26 105.87,-133.52"/>
</a>
</g>
<text text-anchor="middle" x="122.62" y="-108.5" font-family="Helvetica,sans-Serif" font-size="10.00" fill="grey"> &lt; std::size_t &gt;</text>
</g>
<!-- Node6 -->
<g id="Node000006" class="node">
<title>Node6</title>
<g id="a_Node000006"><a xlink:title=" ">
<polygon fill="white" stroke="#666666" points="249.75,-88 146.75,-88 146.75,-68 249.75,-68 249.75,-88"/>
<text text-anchor="middle" x="198.25" y="-74.5" font-family="Helvetica,sans-Serif" font-size="10.00">std::atomic&lt; ullint &gt;</text>
</a>
</g>
</g>
<!-- Node4&#45;&gt;Node6 -->
<g id="edge7_Node000006_Node000004" class="edge">
<title>Node4&#45;&gt;Node6</title>
<g id="a_edge7_Node000006_Node000004"><a xlink:title=" ">
<path fill="none" stroke="orange" stroke-dasharray="5,2" d="M155.05,-126.12C159.46,-119.54 164.7,-112.24 170,-106 175.36,-99.69 182.03,-93.27 187.54,-88.27"/>
<polygon fill="orange" stroke="orange" points="152.22,-124.06 149.73,-134.36 158.1,-127.86 152.22,-124.06"/>
</a>
</g>
<text text-anchor="middle" x="189.88" y="-108.5" font-family="Helvetica,sans-Serif" font-size="10.00" fill="grey"> &lt; ullint &gt;</text>
</g>
<!-- Node5 -->
<g id="Node000005" class="node">
<title>Node5</title>
<g id="a_Node000005"><a xlink:title=" ">
<polygon fill="white" stroke="#666666" points="157.65,-224 128.85,-224 128.85,-204 157.65,-204 157.65,-224"/>
<text text-anchor="middle" x="143.25" y="-210.5" font-family="Helvetica,sans-Serif" font-size="10.00">T</text>
</a>
</g>
</g>
<!-- Node5&#45;&gt;Node4 -->
<g id="edge4_Node000004_Node000005" class="edge">
<title>Node5&#45;&gt;Node4</title>
<g id="a_edge4_Node000004_Node000005"><a xlink:title=" ">
<path fill="none" stroke="#9a32cd" stroke-dasharray="5,2" d="M143.25,-192.28C143.25,-180.27 143.25,-165.74 143.25,-156.44"/>
<polygon fill="#9a32cd" stroke="#9a32cd" points="139.75,-192.03 143.25,-202.03 146.75,-192.03 139.75,-192.03"/>
</a>
</g>
<text text-anchor="middle" x="150.38" y="-176.5" font-family="Helvetica,sans-Serif" font-size="10.00" fill="grey"> ptr</text>
</g>
<!-- Node6&#45;&gt;Node1 -->
<g id="edge5_Node000001_Node000006" class="edge">
<title>Node6&#45;&gt;Node1</title>
<g id="a_edge5_Node000001_Node000006"><a xlink:title=" ">
<path fill="none" stroke="#9a32cd" stroke-dasharray="5,2" d="M191.05,-56.88C190.43,-54.59 189.89,-52.26 189.5,-50 187.75,-39.99 187.62,-28.32 187.82,-20.37"/>
<polygon fill="#9a32cd" stroke="#9a32cd" points="187.66,-57.77 194.05,-66.23 194.33,-55.64 187.66,-57.77"/>
</a>
</g>
<text text-anchor="middle" x="237.62" y="-40.5" font-family="Helvetica,sans-Serif" font-size="10.00" fill="grey"> m_ullInstanceCounter</text>
</g>
<!-- Node7 -->
<g id="Node000007" class="node">
<title>Node7</title>
<g id="a_Node000007"><a xlink:title=" ">
<polygon fill="white" stroke="#666666" points="255.38,-156 219.12,-156 219.12,-136 255.38,-136 255.38,-156"/>
<text text-anchor="middle" x="237.25" y="-142.5" font-family="Helvetica,sans-Serif" font-size="10.00">ullint</text>
</a>
</g>
</g>
<!-- Node7&#45;&gt;Node6 -->
<g id="edge6_Node000006_Node000007" class="edge">
<title>Node7&#45;&gt;Node6</title>
<g id="a_edge6_Node000006_Node000007"><a xlink:title=" ">
<path fill="none" stroke="#9a32cd" stroke-dasharray="5,2" d="M226.7,-125.87C223.13,-119.51 219.08,-112.42 215.25,-106 211.73,-100.1 207.63,-93.58 204.34,-88.43"/>
<polygon fill="#9a32cd" stroke="#9a32cd" points="223.47,-127.27 231.39,-134.31 229.59,-123.87 223.47,-127.27"/>
</a>
</g>
<text text-anchor="middle" x="228.38" y="-108.5" font-family="Helvetica,sans-Serif" font-size="10.00" fill="grey"> ptr</text>
</g>
<!-- Node8 -->
<g id="Node000008" class="node">
<title>Node8</title>
<g id="a_Node000008"><a xlink:title=" ">
<polygon fill="white" stroke="#666666" points="339.88,-88 276.62,-88 276.62,-68 339.88,-68 339.88,-88"/>
<text text-anchor="middle" x="308.25" y="-74.5" font-family="Helvetica,sans-Serif" font-size="10.00">const ullint</text>
</a>
</g>
</g>
<!-- Node8&#45;&gt;Node1 -->
<g id="edge8_Node000001_Node000008" class="edge">
<title>Node8&#45;&gt;Node1</title>
<g id="a_edge8_Node000001_Node000008"><a xlink:title=" ">
<path fill="none" stroke="#9a32cd" stroke-dasharray="5,2" d="M300.9,-57.28C297.42,-50.3 292.6,-42.96 286.25,-38 274.98,-29.2 261.04,-23.27 247.23,-19.27"/>
<polygon fill="#9a32cd" stroke="#9a32cd" points="297.55,-58.35 304.71,-66.16 303.98,-55.59 297.55,-58.35"/>
</a>
</g>
<text text-anchor="middle" x="328.88" y="-40.5" font-family="Helvetica,sans-Serif" font-size="10.00" fill="grey"> m_ullModuleId</text>
</g>
</g>
</svg>
