<?xml version="1.0" encoding="UTF-8" standalone="no"?>
<!DOCTYPE svg PUBLIC "-//W3C//DTD SVG 1.1//EN"
 "http://www.w3.org/Graphics/SVG/1.1/DTD/svg11.dtd">
<!-- Generated by graphviz version 10.0.1 (20240210.2158)
 -->
<!-- Title: __AEModuleBase&lt; T &gt; Pages: 1 -->
<svg width="170pt" height="232pt"
 viewBox="0.00 0.00 170.00 232.00" xmlns="http://www.w3.org/2000/svg" xmlns:xlink="http://www.w3.org/1999/xlink">
<g id="graph0" class="graph" transform="scale(1 1) rotate(0) translate(4 228)">
<title>__AEModuleBase&lt; T &gt;</title>
<!-- Node1 -->
<g id="Node000001" class="node">
<title>Node1</title>
<g id="a_Node000001"><a xlink:title="This is a base class for all basic modules, meaning that the module is not using other modules to wor...">
<polygon fill="#999999" stroke="#666666" points="122.88,-20 5.62,-20 5.62,0 122.88,0 122.88,-20"/>
<text text-anchor="middle" x="64.25" y="-6.5" font-family="Helvetica,sans-Serif" font-size="10.00">__AEModuleBase&lt; T &gt;</text>
</a>
</g>
</g>
<!-- Node2 -->
<g id="Node000002" class="node">
<title>Node2</title>
<g id="a_Node000002"><a xlink:title=" ">
<polygon fill="white" stroke="#666666" points="128.5,-88 0,-88 0,-68 128.5,-68 128.5,-88"/>
<text text-anchor="middle" x="64.25" y="-74.5" font-family="Helvetica,sans-Serif" font-size="10.00">std::atomic&lt; std::size_t &gt;</text>
</a>
</g>
</g>
<!-- Node2&#45;&gt;Node1 -->
<g id="edge1_Node000001_Node000002" class="edge">
<title>Node2&#45;&gt;Node1</title>
<g id="a_edge1_Node000001_Node000002"><a xlink:title=" ">
<path fill="none" stroke="#9a32cd" stroke-dasharray="5,2" d="M64.25,-56.28C64.25,-44.27 64.25,-29.74 64.25,-20.44"/>
<polygon fill="#9a32cd" stroke="#9a32cd" points="60.75,-56.03 64.25,-66.03 67.75,-56.03 60.75,-56.03"/>
</a>
</g>
<text text-anchor="middle" x="105.88" y="-40.5" font-family="Helvetica,sans-Serif" font-size="10.00" fill="grey"> m_ullModulesAlive</text>
</g>
<!-- Node3 -->
<g id="Node000003" class="node">
<title>Node3</title>
<g id="a_Node000003"><a xlink:title=" ">
<polygon fill="white" stroke="#666666" points="55.38,-156 13.12,-156 13.12,-136 55.38,-136 55.38,-156"/>
<text text-anchor="middle" x="34.25" y="-142.5" font-family="Helvetica,sans-Serif" font-size="10.00">size_t</text>
</a>
</g>
</g>
<!-- Node3&#45;&gt;Node2 -->
<g id="edge2_Node000002_Node000003" class="edge">
<title>Node3&#45;&gt;Node2</title>
<g id="a_edge2_Node000002_Node000003"><a xlink:title=" ">
<path fill="none" stroke="#9a32cd" stroke-dasharray="5,2" d="M43.16,-125.4C48.71,-113.2 55.6,-98.04 59.96,-88.44"/>
<polygon fill="#9a32cd" stroke="#9a32cd" points="40.13,-123.61 39.17,-134.17 46.5,-126.51 40.13,-123.61"/>
</a>
</g>
<text text-anchor="middle" x="58.38" y="-108.5" font-family="Helvetica,sans-Serif" font-size="10.00" fill="grey"> ptr</text>
</g>
<!-- Node4 -->
<g id="Node000004" class="node">
<title>Node4</title>
<g id="a_Node000004"><a xlink:title=" ">
<polygon fill="white" stroke="#666666" points="161.25,-156 73.25,-156 73.25,-136 161.25,-136 161.25,-156"/>
<text text-anchor="middle" x="117.25" y="-142.5" font-family="Helvetica,sans-Serif" font-size="10.00">std::atomic&lt; T &gt;</text>
</a>
</g>
</g>
<!-- Node4&#45;&gt;Node2 -->
<g id="edge3_Node000002_Node000004" class="edge">
<title>Node4&#45;&gt;Node2</title>
<g id="a_edge3_Node000002_Node000004"><a xlink:title=" ">
<path fill="none" stroke="orange" stroke-dasharray="5,2" d="M102.7,-126.88C92.71,-114.44 79.85,-98.43 71.83,-88.44"/>
<polygon fill="orange" stroke="orange" points="99.72,-128.76 108.71,-134.36 105.18,-124.38 99.72,-128.76"/>
</a>
</g>
<text text-anchor="middle" x="128.62" y="-108.5" font-family="Helvetica,sans-Serif" font-size="10.00" fill="grey"> &lt; std::size_t &gt;</text>
</g>
<!-- Node5 -->
<g id="Node000005" class="node">
<title>Node5</title>
<g id="a_Node000005"><a xlink:title=" ">
<polygon fill="white" stroke="#666666" points="131.65,-224 102.85,-224 102.85,-204 131.65,-204 131.65,-224"/>
<text text-anchor="middle" x="117.25" y="-210.5" font-family="Helvetica,sans-Serif" font-size="10.00">T</text>
</a>
</g>
</g>
<!-- Node5&#45;&gt;Node4 -->
<g id="edge4_Node000004_Node000005" class="edge">
<title>Node5&#45;&gt;Node4</title>
<g id="a_edge4_Node000004_Node000005"><a xlink:title=" ">
<path fill="none" stroke="#9a32cd" stroke-dasharray="5,2" d="M117.25,-192.28C117.25,-180.27 117.25,-165.74 117.25,-156.44"/>
<polygon fill="#9a32cd" stroke="#9a32cd" points="113.75,-192.03 117.25,-202.03 120.75,-192.03 113.75,-192.03"/>
</a>
</g>
<text text-anchor="middle" x="124.38" y="-176.5" font-family="Helvetica,sans-Serif" font-size="10.00" fill="grey"> ptr</text>
</g>
</g>
</svg>
