<?xml version="1.0" encoding="UTF-8" standalone="no"?>
<!DOCTYPE svg PUBLIC "-//W3C//DTD SVG 1.1//EN"
 "http://www.w3.org/Graphics/SVG/1.1/DTD/svg11.dtd">
<!-- Generated by graphviz version 10.0.1 (20240210.2158)
 -->
<!-- Title: AETimer Pages: 1 -->
<!--zoomable 335 -->

<svg id="main" version="1.1" xmlns="http://www.w3.org/2000/svg" xmlns:xlink="http://www.w3.org/1999/xlink" xml:space="preserve" onload="init(evt)">
<style type="text/css"><![CDATA[
.node, .edge {opacity: 0.7;}
.node.selected, .edge.selected {opacity: 1;}
.edge:hover path { stroke: red; }
.edge:hover polygon { stroke: red; fill: red; }
]]></style>

<defs>
  <circle id="rim" cx="0" cy="0" r="7"/>
  <circle id="rim2" cx="0" cy="0" r="3.5"/>
  <g id="zoomPlus">
    <use xlink:href="#rim" fill="#404040"><set attributeName="fill" to="#808080" begin="zoomplus.mouseover" end="zoomplus.mouseout"/></use>
    <path d="M-4,0h8M0,-4v8" fill="none" stroke="white" stroke-width="1.5" pointer-events="none"/>
  </g>
  <g id="zoomMin">
    <use xlink:href="#rim" fill="#404040"><set attributeName="fill" to="#808080" begin="zoomminus.mouseover" end="zoomminus.mouseout"/></use>
    <path d="M-4,0h8" fill="none" stroke="white" stroke-width="1.5" pointer-events="none"/>
  </g>
  <g id="arrowUp" transform="translate(30 24)">
    <use xlink:href="#rim"/>
    <path pointer-events="none" fill="none" stroke="white" stroke-width="1.5" d="M0,-3.0v7 M-2.5,-0.5L0,-3.0L2.5,-0.5"/>
  </g>
  <g id="arrowRight" transform="rotate(90) translate(36 -43)">
    <use xlink:href="#rim"/>
    <path pointer-events="none" fill="none" stroke="white" stroke-width="1.5" d="M0,-3.0v7 M-2.5,-0.5L0,-3.0L2.5,-0.5"/>
  </g>
  <g id="arrowDown" transform="rotate(180) translate(-30 -48)">
    <use xlink:href="#rim"/>
    <path pointer-events="none" fill="none" stroke="white" stroke-width="1.5" d="M0,-3.0v7 M-2.5,-0.5L0,-3.0L2.5,-0.5"/>
  </g>
  <g id="arrowLeft" transform="rotate(270) translate(-36 17)">
    <use xlink:href="#rim"/>
    <path pointer-events="none" fill="none" stroke="white" stroke-width="1.5" d="M0,-3.0v7 M-2.5,-0.5L0,-3.0L2.5,-0.5"/>
  </g>
  <g id="resetDef">
    <use xlink:href="#rim2" fill="#404040"><set attributeName="fill" to="#808080" begin="reset.mouseover" end="reset.mouseout"/></use>
  </g>
</defs>
<script type="application/ecmascript">
var viewWidth = 1278;
var viewHeight = 335;
var sectionId = 'dynsection-1';
</script>
<script type="application/ecmascript" xlink:href="../../svg.min.js"/>
<svg id="graph" class="graph">
<g id="viewport">
<title>AETimer</title>
<!-- Node1 -->
<g id="Node000001" class="node">
<title>Node1</title>
<g id="a_Node000001"><a xlink:title="ArtyK&#39;s Engine Timer – the engine&#39;s internal timer for, um, timing events or anything,...">
<polygon fill="#999999" stroke="#666666" points="1270.05,-162 1216.55,-162 1216.55,-142 1270.05,-142 1270.05,-162"/>
<text text-anchor="middle" x="1243.3" y="-148.5" font-family="Helvetica,sans-Serif" font-size="10.00">AETimer</text>
</a>
</g>
</g>
<!-- Node2 -->
<g id="Node000002" class="node">
<title>Node2</title>
<g id="a_Node000002"><a xlink:href="../../d0/d8a/class_____a_e_module_base.html" target="_top" xlink:title=" ">
<polygon fill="white" stroke="#666666" points="890.05,-327 740.55,-327 740.55,-307 890.05,-307 890.05,-327"/>
<text text-anchor="middle" x="815.3" y="-313.5" font-family="Helvetica,sans-Serif" font-size="10.00">__AEModuleBase&lt; AETimer &gt;</text>
</a>
</g>
</g>
<!-- Node2&#45;&gt;Node1 -->
<g id="edge1_Node000001_Node000002" class="edge">
<title>Node2&#45;&gt;Node1</title>
<g id="a_edge1_Node000001_Node000002"><a xlink:title=" ">
<path fill="none" stroke="#63b8ff" d="M901.76,-305.33C983.6,-290.92 1107.72,-260.37 1198.55,-199 1213.51,-188.89 1227.06,-172.75 1234.99,-162.27"/>
<polygon fill="#63b8ff" stroke="#63b8ff" points="901.26,-301.86 891.99,-307 902.44,-308.76 901.26,-301.86"/>
</a>
</g>
</g>
<!-- Node3 -->
<g id="Node000003" class="node">
<title>Node3</title>
<g id="a_Node000003"><a xlink:title=" ">
<polygon fill="white" stroke="#666666" points="398.3,-183 269.8,-183 269.8,-163 398.3,-163 398.3,-183"/>
<text text-anchor="middle" x="334.05" y="-169.5" font-family="Helvetica,sans-Serif" font-size="10.00">std::atomic&lt; std::size_t &gt;</text>
</a>
</g>
</g>
<!-- Node3&#45;&gt;Node2 -->
<g id="edge2_Node000002_Node000003" class="edge">
<title>Node3&#45;&gt;Node2</title>
<g id="a_edge2_Node000002_Node000003"><a xlink:title=" ">
<path fill="none" stroke="#9a32cd" stroke-dasharray="5,2" d="M375,-187.27C388.15,-191.97 402.85,-197.21 416.3,-202 521.38,-239.41 545.16,-256.74 652.8,-286 683.52,-294.35 718.11,-301.31 747.38,-306.5"/>
<polygon fill="#9a32cd" stroke="#9a32cd" points="376.4,-184.06 365.81,-183.99 374.05,-190.65 376.4,-184.06"/>
</a>
</g>
<text text-anchor="middle" x="576.18" y="-282.5" font-family="Helvetica,sans-Serif" font-size="10.00" fill="grey"> m_ullModulesAlive</text>
</g>
<!-- Node7 -->
<g id="Node000007" class="node">
<title>Node7</title>
<g id="a_Node000007"><a xlink:href="../../d0/d8a/class_____a_e_module_base.html" target="_top" xlink:title="This is a base class for all the modules in the engine; all basic modules inherit from it.">
<polygon fill="white" stroke="#666666" points="634.8,-203 517.55,-203 517.55,-183 634.8,-183 634.8,-203"/>
<text text-anchor="middle" x="576.18" y="-189.5" font-family="Helvetica,sans-Serif" font-size="10.00">__AEModuleBase&lt; T &gt;</text>
</a>
</g>
</g>
<!-- Node3&#45;&gt;Node7 -->
<g id="edge7_Node000007_Node000003" class="edge">
<title>Node3&#45;&gt;Node7</title>
<g id="a_edge7_Node000007_Node000003"><a xlink:title=" ">
<path fill="none" stroke="#9a32cd" stroke-dasharray="5,2" d="M409.8,-179.23C444.47,-182.11 485.04,-185.49 517.33,-188.18"/>
<polygon fill="#9a32cd" stroke="#9a32cd" points="410.53,-175.77 400.28,-178.43 409.95,-182.75 410.53,-175.77"/>
</a>
</g>
<text text-anchor="middle" x="457.93" y="-188.5" font-family="Helvetica,sans-Serif" font-size="10.00" fill="grey"> m_ullModulesAlive</text>
</g>
<!-- Node9 -->
<g id="Node000009" class="node">
<title>Node9</title>
<g id="a_Node000009"><a xlink:href="../../d0/d8a/class_____a_e_module_base.html" target="_top" xlink:title=" ">
<polygon fill="white" stroke="#666666" points="891.93,-163 738.68,-163 738.68,-143 891.93,-143 891.93,-163"/>
<text text-anchor="middle" x="815.3" y="-149.5" font-family="Helvetica,sans-Serif" font-size="10.00">__AEModuleBase&lt; AEFrame &gt;</text>
</a>
</g>
</g>
<!-- Node3&#45;&gt;Node9 -->
<g id="edge10_Node000009_Node000003" class="edge">
<title>Node3&#45;&gt;Node9</title>
<g id="a_edge10_Node000009_Node000003"><a xlink:title=" ">
<path fill="none" stroke="#9a32cd" stroke-dasharray="5,2" d="M410.17,-167.97C443.11,-165.89 482.24,-163.6 517.55,-162 592.6,-158.6 678.38,-156.16 738.35,-154.68"/>
<polygon fill="#9a32cd" stroke="#9a32cd" points="410.06,-164.47 400.3,-168.59 410.5,-171.45 410.06,-164.47"/>
</a>
</g>
<text text-anchor="middle" x="576.18" y="-164.5" font-family="Helvetica,sans-Serif" font-size="10.00" fill="grey"> m_ullModulesAlive</text>
</g>
<!-- Node4 -->
<g id="Node000004" class="node">
<title>Node4</title>
<g id="a_Node000004"><a xlink:title=" ">
<polygon fill="white" stroke="#666666" points="144.18,-183 101.93,-183 101.93,-163 144.18,-163 144.18,-183"/>
<text text-anchor="middle" x="123.05" y="-169.5" font-family="Helvetica,sans-Serif" font-size="10.00">size_t</text>
</a>
</g>
</g>
<!-- Node4&#45;&gt;Node3 -->
<g id="edge3_Node000003_Node000004" class="edge">
<title>Node4&#45;&gt;Node3</title>
<g id="a_edge3_Node000003_Node000004"><a xlink:title=" ">
<path fill="none" stroke="#9a32cd" stroke-dasharray="5,2" d="M155.95,-173C186.08,-173 232.11,-173 269.7,-173"/>
<polygon fill="#9a32cd" stroke="#9a32cd" points="155.98,-169.5 145.98,-173 155.98,-176.5 155.98,-169.5"/>
</a>
</g>
<text text-anchor="middle" x="218.43" y="-175.5" font-family="Helvetica,sans-Serif" font-size="10.00" fill="grey"> ptr</text>
</g>
<!-- Node5 -->
<g id="Node000005" class="node">
<title>Node5</title>
<g id="a_Node000005"><a xlink:title=" ">
<polygon fill="white" stroke="#666666" points="167.05,-82 79.05,-82 79.05,-62 167.05,-62 167.05,-82"/>
<text text-anchor="middle" x="123.05" y="-68.5" font-family="Helvetica,sans-Serif" font-size="10.00">std::atomic&lt; T &gt;</text>
</a>
</g>
</g>
<!-- Node5&#45;&gt;Node3 -->
<g id="edge4_Node000003_Node000005" class="edge">
<title>Node5&#45;&gt;Node3</title>
<g id="a_edge4_Node000003_Node000005"><a xlink:title=" ">
<path fill="none" stroke="orange" stroke-dasharray="5,2" d="M155.83,-87.36C198.9,-108.17 274.65,-144.78 311.59,-162.63"/>
<polygon fill="orange" stroke="orange" points="157.52,-84.29 146.99,-83.09 154.47,-90.59 157.52,-84.29"/>
</a>
</g>
<text text-anchor="middle" x="218.43" y="-133.5" font-family="Helvetica,sans-Serif" font-size="10.00" fill="grey"> &lt; std::size_t &gt;</text>
</g>
<!-- Node15 -->
<g id="Node000015" class="node">
<title>Node15</title>
<g id="a_Node000015"><a xlink:title=" ">
<polygon fill="white" stroke="#666666" points="385.55,-36 282.55,-36 282.55,-16 385.55,-16 385.55,-36"/>
<text text-anchor="middle" x="334.05" y="-22.5" font-family="Helvetica,sans-Serif" font-size="10.00">std::atomic&lt; ullint &gt;</text>
</a>
</g>
</g>
<!-- Node5&#45;&gt;Node15 -->
<g id="edge19_Node000015_Node000005" class="edge">
<title>Node5&#45;&gt;Node15</title>
<g id="a_edge19_Node000015_Node000005"><a xlink:title=" ">
<path fill="none" stroke="orange" stroke-dasharray="5,2" d="M155.18,-56.83C164.59,-52.77 175.08,-48.74 185.05,-46 216.8,-37.26 253.47,-32.27 282.37,-29.46"/>
<polygon fill="orange" stroke="orange" points="153.78,-53.62 146.1,-60.92 156.66,-60 153.78,-53.62"/>
</a>
</g>
<text text-anchor="middle" x="218.43" y="-48.5" font-family="Helvetica,sans-Serif" font-size="10.00" fill="grey"> &lt; ullint &gt;</text>
</g>
<!-- Node17 -->
<g id="Node000017" class="node">
<title>Node17</title>
<g id="a_Node000017"><a xlink:title=" ">
<polygon fill="white" stroke="#666666" points="1114.55,-115 1013.8,-115 1013.8,-95 1114.55,-95 1114.55,-115"/>
<text text-anchor="middle" x="1064.18" y="-101.5" font-family="Helvetica,sans-Serif" font-size="10.00">std::atomic&lt; bool &gt;</text>
</a>
</g>
</g>
<!-- Node5&#45;&gt;Node17 -->
<g id="edge22_Node000017_Node000005" class="edge">
<title>Node5&#45;&gt;Node17</title>
<g id="a_edge22_Node000017_Node000005"><a xlink:title=" ">
<path fill="none" stroke="orange" stroke-dasharray="5,2" d="M178.69,-72C220.85,-72 280.65,-72 333.05,-72 333.05,-72 333.05,-72 816.3,-72 885.49,-72 964.63,-84.89 1014.25,-94.56"/>
<polygon fill="orange" stroke="orange" points="178.79,-68.5 168.79,-72 178.79,-75.5 178.79,-68.5"/>
</a>
</g>
<text text-anchor="middle" x="576.18" y="-74.5" font-family="Helvetica,sans-Serif" font-size="10.00" fill="grey"> &lt; bool &gt;</text>
</g>
<!-- Node6 -->
<g id="Node000006" class="node">
<title>Node6</title>
<g id="a_Node000006"><a xlink:title=" ">
<polygon fill="white" stroke="#666666" points="28.8,-82 0,-82 0,-62 28.8,-62 28.8,-82"/>
<text text-anchor="middle" x="14.4" y="-68.5" font-family="Helvetica,sans-Serif" font-size="10.00">T</text>
</a>
</g>
</g>
<!-- Node6&#45;&gt;Node5 -->
<g id="edge5_Node000005_Node000006" class="edge">
<title>Node6&#45;&gt;Node5</title>
<g id="a_edge5_Node000005_Node000006"><a xlink:title=" ">
<path fill="none" stroke="#9a32cd" stroke-dasharray="5,2" d="M40.2,-72C51.66,-72 65.6,-72 78.71,-72"/>
<polygon fill="#9a32cd" stroke="#9a32cd" points="40.42,-68.5 30.42,-72 40.42,-75.5 40.42,-68.5"/>
</a>
</g>
<text text-anchor="middle" x="53.93" y="-74.5" font-family="Helvetica,sans-Serif" font-size="10.00" fill="grey"> ptr</text>
</g>
<!-- Node7&#45;&gt;Node2 -->
<g id="edge6_Node000002_Node000007" class="edge">
<title>Node7&#45;&gt;Node2</title>
<g id="a_edge6_Node000002_Node000007"><a xlink:title=" ">
<path fill="none" stroke="orange" stroke-dasharray="5,2" d="M611.2,-208.24C640.71,-222.51 683.52,-245.83 715.05,-274 724.99,-282.88 721.89,-290.71 733.05,-298 738.27,-301.41 744.02,-304.2 749.99,-306.5"/>
<polygon fill="orange" stroke="orange" points="612.88,-205.16 602.34,-204.05 609.88,-211.49 612.88,-205.16"/>
</a>
</g>
<text text-anchor="middle" x="683.93" y="-276.5" font-family="Helvetica,sans-Serif" font-size="10.00" fill="grey"> &lt; AETimer &gt;</text>
</g>
<!-- Node7&#45;&gt;Node9 -->
<g id="edge11_Node000009_Node000007" class="edge">
<title>Node7&#45;&gt;Node9</title>
<g id="a_edge11_Node000009_Node000007"><a xlink:title=" ">
<path fill="none" stroke="orange" stroke-dasharray="5,2" d="M646.29,-181.34C679.82,-175.68 719.79,-168.94 752.33,-163.45"/>
<polygon fill="orange" stroke="orange" points="645.95,-177.85 636.67,-182.96 647.12,-184.75 645.95,-177.85"/>
</a>
</g>
<text text-anchor="middle" x="683.93" y="-182.5" font-family="Helvetica,sans-Serif" font-size="10.00" fill="grey"> &lt; AEFrame &gt;</text>
</g>
<!-- Node8 -->
<g id="Node000008" class="node">
<title>Node8</title>
<g id="a_Node000008"><a xlink:href="../../df/dd7/class_a_e_frame.html" target="_top" xlink:title="This is the ArtyK&#39;s Engine&#39;s frame delay module – it allows to create precise delays for game loops.">
<polygon fill="white" stroke="#666666" points="1092.8,-205 1035.55,-205 1035.55,-185 1092.8,-185 1092.8,-205"/>
<text text-anchor="middle" x="1064.18" y="-191.5" font-family="Helvetica,sans-Serif" font-size="10.00">AEFrame</text>
</a>
</g>
</g>
<!-- Node8&#45;&gt;Node1 -->
<g id="edge8_Node000001_Node000008" class="edge">
<title>Node8&#45;&gt;Node1</title>
<g id="a_edge8_Node000001_Node000008"><a xlink:title=" ">
<path fill="none" stroke="#9a32cd" stroke-dasharray="5,2" d="M1104.28,-188.69C1131.06,-183.97 1167.26,-176.83 1198.55,-168 1204.31,-166.37 1210.4,-164.35 1216.14,-162.3"/>
<polygon fill="#9a32cd" stroke="#9a32cd" points="1103.81,-185.22 1094.55,-190.36 1104.99,-192.12 1103.81,-185.22"/>
</a>
</g>
<text text-anchor="middle" x="1165.55" y="-185.5" font-family="Helvetica,sans-Serif" font-size="10.00" fill="grey"> m_rDelay</text>
</g>
<!-- Node9&#45;&gt;Node8 -->
<g id="edge9_Node000008_Node000009" class="edge">
<title>Node9&#45;&gt;Node8</title>
<g id="a_edge9_Node000008_Node000009"><a xlink:title=" ">
<path fill="none" stroke="#63b8ff" d="M889.16,-165.4C938.18,-173.73 1000.06,-184.26 1035.27,-190.25"/>
<polygon fill="#63b8ff" stroke="#63b8ff" points="889.9,-161.97 879.45,-163.74 888.72,-168.87 889.9,-161.97"/>
</a>
</g>
</g>
<!-- Node10 -->
<g id="Node000010" class="node">
<title>Node10</title>
<g id="a_Node000010"><a xlink:title=" ">
<polygon fill="white" stroke="#666666" points="863.43,-289 767.18,-289 767.18,-269 863.43,-269 863.43,-289"/>
<text text-anchor="middle" x="815.3" y="-275.5" font-family="Helvetica,sans-Serif" font-size="10.00">timeDur&lt; double &gt;</text>
</a>
</g>
</g>
<!-- Node10&#45;&gt;Node8 -->
<g id="edge12_Node000008_Node000010" class="edge">
<title>Node10&#45;&gt;Node8</title>
<g id="a_edge12_Node000008_Node000010"><a xlink:title=" ">
<path fill="none" stroke="#9a32cd" stroke-dasharray="5,2" d="M874.96,-270.29C910.78,-263.75 957,-253.12 995.8,-237 1015.66,-228.75 1036.33,-214.96 1049.45,-205.44"/>
<polygon fill="#9a32cd" stroke="#9a32cd" points="874.45,-266.82 865.21,-272 875.67,-273.71 874.45,-266.82"/>
</a>
</g>
<text text-anchor="middle" x="955.68" y="-263.5" font-family="Helvetica,sans-Serif" font-size="10.00" fill="grey"> m_tdChronoDelay</text>
</g>
<!-- Node11 -->
<g id="Node000011" class="node">
<title>Node11</title>
<g id="a_Node000011"><a xlink:title=" ">
<polygon fill="white" stroke="#666666" points="897.55,-251 733.05,-251 733.05,-219 897.55,-219 897.55,-251"/>
<text text-anchor="start" x="741.05" y="-237.5" font-family="Helvetica,sans-Serif" font-size="10.00">timePoint&lt; SteadyClock, decltype</text>
<text text-anchor="middle" x="815.3" y="-225.5" font-family="Helvetica,sans-Serif" font-size="10.00">(m_tdChronoDelay)&gt;</text>
</a>
</g>
</g>
<!-- Node11&#45;&gt;Node8 -->
<g id="edge13_Node000008_Node000011" class="edge">
<title>Node11&#45;&gt;Node8</title>
<g id="a_edge13_Node000008_Node000011"><a xlink:title=" ">
<path fill="none" stroke="#9a32cd" stroke-dasharray="5,2" d="M909.15,-222.65C937.06,-218.64 967.73,-213.95 995.8,-209 1008.74,-206.72 1023,-203.81 1035.06,-201.24"/>
<polygon fill="#9a32cd" stroke="#9a32cd" points="908.69,-219.18 899.28,-224.06 909.67,-226.11 908.69,-219.18"/>
</a>
</g>
<text text-anchor="middle" x="955.68" y="-223.5" font-family="Helvetica,sans-Serif" font-size="10.00" fill="grey"> m_tpTimepoint</text>
</g>
<!-- Node12 -->
<g id="Node000012" class="node">
<title>Node12</title>
<g id="a_Node000012"><a xlink:title=" ">
<polygon fill="white" stroke="#666666" points="837.55,-201 793.05,-201 793.05,-181 837.55,-181 837.55,-201"/>
<text text-anchor="middle" x="815.3" y="-187.5" font-family="Helvetica,sans-Serif" font-size="10.00">double</text>
</a>
</g>
</g>
<!-- Node12&#45;&gt;Node8 -->
<g id="edge14_Node000008_Node000012" class="edge">
<title>Node12&#45;&gt;Node8</title>
<g id="a_edge14_Node000008_Node000012"><a xlink:title=" ">
<path fill="none" stroke="#9a32cd" stroke-dasharray="5,2" d="M849.27,-191.53C898.24,-192.33 989.35,-193.8 1035.24,-194.55"/>
<polygon fill="#9a32cd" stroke="#9a32cd" points="849.35,-188.04 839.29,-191.37 849.23,-195.03 849.35,-188.04"/>
</a>
</g>
<text text-anchor="middle" x="955.68" y="-195.5" font-family="Helvetica,sans-Serif" font-size="10.00" fill="grey"> m_fFPS</text>
</g>
<!-- Node13 -->
<g id="Node000013" class="node">
<title>Node13</title>
<g id="a_Node000013"><a xlink:title=" ">
<polygon fill="white" stroke="#666666" points="832.3,-122 798.3,-122 798.3,-102 832.3,-102 832.3,-122"/>
<text text-anchor="middle" x="815.3" y="-108.5" font-family="Helvetica,sans-Serif" font-size="10.00">bool</text>
</a>
</g>
</g>
<!-- Node13&#45;&gt;Node8 -->
<g id="edge15_Node000008_Node000013" class="edge">
<title>Node13&#45;&gt;Node8</title>
<g id="a_edge15_Node000008_Node000013"><a xlink:title=" ">
<path fill="none" stroke="#9a32cd" stroke-dasharray="5,2" d="M843.9,-113.98C880.56,-117.57 946.42,-127.45 995.8,-154 1005.49,-159.21 1004.75,-164.74 1013.8,-171 1021.25,-176.15 1029.97,-180.78 1037.99,-184.57"/>
<polygon fill="#9a32cd" stroke="#9a32cd" points="844.43,-110.51 834.16,-113.12 843.82,-117.48 844.43,-110.51"/>
</a>
</g>
<text text-anchor="middle" x="955.68" y="-156.5" font-family="Helvetica,sans-Serif" font-size="10.00" fill="grey"> m_bNoDelay</text>
</g>
<!-- Node13&#45;&gt;Node17 -->
<g id="edge21_Node000017_Node000013" class="edge">
<title>Node13&#45;&gt;Node17</title>
<g id="a_edge21_Node000017_Node000013"><a xlink:title=" ">
<path fill="none" stroke="#9a32cd" stroke-dasharray="5,2" d="M844.11,-109.92C864,-108.53 891.4,-106.81 915.55,-106 948.21,-104.9 984.96,-104.65 1013.62,-104.67"/>
<polygon fill="#9a32cd" stroke="#9a32cd" points="844.03,-106.42 834.3,-110.62 844.53,-113.4 844.03,-106.42"/>
</a>
</g>
<text text-anchor="middle" x="955.68" y="-108.5" font-family="Helvetica,sans-Serif" font-size="10.00" fill="grey"> ptr</text>
</g>
<!-- Node14 -->
<g id="Node000014" class="node">
<title>Node14</title>
<g id="a_Node000014"><a xlink:title=" ">
<polygon fill="white" stroke="#666666" points="1095.43,-162 1032.93,-162 1032.93,-142 1095.43,-142 1095.43,-162"/>
<text text-anchor="middle" x="1064.18" y="-148.5" font-family="Helvetica,sans-Serif" font-size="10.00">std::thread</text>
</a>
</g>
</g>
<!-- Node14&#45;&gt;Node1 -->
<g id="edge16_Node000001_Node000014" class="edge">
<title>Node14&#45;&gt;Node1</title>
<g id="a_edge16_Node000001_Node000014"><a xlink:title=" ">
<path fill="none" stroke="#9a32cd" stroke-dasharray="5,2" d="M1107.02,-152C1140.9,-152 1187.55,-152 1216.28,-152"/>
<polygon fill="#9a32cd" stroke="#9a32cd" points="1107.14,-148.5 1097.14,-152 1107.14,-155.5 1107.14,-148.5"/>
</a>
</g>
<text text-anchor="middle" x="1165.55" y="-154.5" font-family="Helvetica,sans-Serif" font-size="10.00" fill="grey"> m_trdCounting</text>
</g>
<!-- Node15&#45;&gt;Node1 -->
<g id="edge17_Node000001_Node000015" class="edge">
<title>Node15&#45;&gt;Node1</title>
<g id="a_edge17_Node000001_Node000015"><a xlink:title=" ">
<path fill="none" stroke="#9a32cd" stroke-dasharray="5,2" d="M396.89,-26C445.39,-26 514.58,-26 575.18,-26 575.18,-26 575.18,-26 1065.18,-26 1144.8,-26 1213.5,-111.6 1235.19,-141.69"/>
<polygon fill="#9a32cd" stroke="#9a32cd" points="397.16,-22.5 387.16,-26 397.16,-29.5 397.16,-22.5"/>
</a>
</g>
<text text-anchor="middle" x="815.3" y="-28.5" font-family="Helvetica,sans-Serif" font-size="10.00" fill="grey"> m_ullTicks</text>
</g>
<!-- Node16 -->
<g id="Node000016" class="node">
<title>Node16</title>
<g id="a_Node000016"><a xlink:title=" ">
<polygon fill="white" stroke="#666666" points="141.18,-20 104.93,-20 104.93,0 141.18,0 141.18,-20"/>
<text text-anchor="middle" x="123.05" y="-6.5" font-family="Helvetica,sans-Serif" font-size="10.00">ullint</text>
</a>
</g>
</g>
<!-- Node16&#45;&gt;Node15 -->
<g id="edge18_Node000015_Node000016" class="edge">
<title>Node16&#45;&gt;Node15</title>
<g id="a_edge18_Node000015_Node000016"><a xlink:title=" ">
<path fill="none" stroke="#9a32cd" stroke-dasharray="5,2" d="M152.71,-8.8C178.65,-8.05 217.87,-7.76 251.8,-11 262.37,-12.01 273.61,-13.69 284.26,-15.57"/>
<polygon fill="#9a32cd" stroke="#9a32cd" points="152.85,-5.29 142.97,-9.13 153.08,-12.29 152.85,-5.29"/>
</a>
</g>
<text text-anchor="middle" x="218.43" y="-13.5" font-family="Helvetica,sans-Serif" font-size="10.00" fill="grey"> ptr</text>
</g>
<!-- Node17&#45;&gt;Node1 -->
<g id="edge20_Node000001_Node000017" class="edge">
<title>Node17&#45;&gt;Node1</title>
<g id="a_edge20_Node000001_Node000017"><a xlink:title=" ">
<path fill="none" stroke="#9a32cd" stroke-dasharray="5,2" d="M1125.92,-117.47C1148.85,-122.61 1175.05,-129 1198.55,-136 1204.29,-137.71 1210.36,-139.77 1216.1,-141.83"/>
<polygon fill="#9a32cd" stroke="#9a32cd" points="1126.96,-114.12 1116.44,-115.38 1125.45,-120.95 1126.96,-114.12"/>
</a>
</g>
<text text-anchor="middle" x="1165.55" y="-138.5" font-family="Helvetica,sans-Serif" font-size="10.00" fill="grey"> m_bRunTrd</text>
</g>
</g>
</svg>

<g id="navigator" transform="translate(0 0)" fill="#404254">
  <rect fill="#f2f5e9" fill-opacity="0.5" stroke="#606060" stroke-width=".5" x="0" y="0" width="60" height="60"/>
  <use id="zoomplus" xlink:href="#zoomPlus" x="17" y="9" onmousedown="handleZoom(evt,'in')"/>
  <use id="zoomminus" xlink:href="#zoomMin" x="42" y="9" onmousedown="handleZoom(evt,'out')"/>
  <use id="reset" xlink:href="#resetDef" x="30" y="36" onmousedown="handleReset()"/>
   <use id="arrowup" xlink:href="#arrowUp" x="0" y="0" onmousedown="handlePan(0,-1)"/>
  <use id="arrowright" xlink:href="#arrowRight" x="0" y="0" onmousedown="handlePan(1,0)"/>
  <use id="arrowdown" xlink:href="#arrowDown" x="0" y="0" onmousedown="handlePan(0,1)"/>
  <use id="arrowleft" xlink:href="#arrowLeft" x="0" y="0" onmousedown="handlePan(-1,0)"/>
</g>
<svg viewBox="0 0 15 15" width="100%" height="30px" preserveAspectRatio="xMaxYMin meet">
 <g id="arrow_out" transform="scale(0.3 0.3)">
  <a xlink:href="class_a_e_timer__coll__graph_org.svg" target="_base">
   <rect id="button" ry="5" rx="5" y="6" x="6" height="38" width="38"
        fill="#f2f5e9" fill-opacity="0.5" stroke="#606060" stroke-width="1.0"/>
   <path id="arrow"
     d="M 11.500037,31.436501 C 11.940474,20.09759 22.043105,11.32322 32.158766,21.979434 L 37.068811,17.246167 C 37.068811,17.246167 37.088388,32 37.088388,32 L 22.160133,31.978069 C 22.160133,31.978069 26.997745,27.140456 26.997745,27.140456 C 18.528582,18.264221 13.291696,25.230495 11.500037,31.436501 z"
     style="fill:#404040;"/>
  </a>
 </g>
</svg>

<style type='text/css'>
<![CDATA[
[data-mouse-over-selected='false'] { opacity: 0.7; }
[data-mouse-over-selected='true']  { opacity: 1.0; }
]]>
</style>
<script type="application/ecmascript"><![CDATA[
document.addEventListener('DOMContentLoaded', (event) => {
  highlightEdges();
  highlightAdjacentNodes();
});
]]></script>
</svg>
