<?xml version="1.0" encoding="UTF-8" standalone="no"?>
<!DOCTYPE svg PUBLIC "-//W3C//DTD SVG 1.1//EN"
 "http://www.w3.org/Graphics/SVG/1.1/DTD/svg11.dtd">
<!-- Generated by graphviz version 10.0.1 (20240210.2158)
 -->
<!-- Title: AETimer Pages: 1 -->
<!--zoomable 401 -->

<svg id="main" version="1.1" xmlns="http://www.w3.org/2000/svg" xmlns:xlink="http://www.w3.org/1999/xlink" xml:space="preserve" onload="init(evt)">
<style type="text/css"><![CDATA[
.node, .edge {opacity: 0.7;}
.node.selected, .edge.selected {opacity: 1;}
.edge:hover path { stroke: red; }
.edge:hover polygon { stroke: red; fill: red; }
]]></style>

<defs>
  <circle id="rim" cx="0" cy="0" r="7"/>
  <circle id="rim2" cx="0" cy="0" r="3.5"/>
  <g id="zoomPlus">
    <use xlink:href="#rim" fill="#404040"><set attributeName="fill" to="#808080" begin="zoomplus.mouseover" end="zoomplus.mouseout"/></use>
    <path d="M-4,0h8M0,-4v8" fill="none" stroke="white" stroke-width="1.5" pointer-events="none"/>
  </g>
  <g id="zoomMin">
    <use xlink:href="#rim" fill="#404040"><set attributeName="fill" to="#808080" begin="zoomminus.mouseover" end="zoomminus.mouseout"/></use>
    <path d="M-4,0h8" fill="none" stroke="white" stroke-width="1.5" pointer-events="none"/>
  </g>
  <g id="arrowUp" transform="translate(30 24)">
    <use xlink:href="#rim"/>
    <path pointer-events="none" fill="none" stroke="white" stroke-width="1.5" d="M0,-3.0v7 M-2.5,-0.5L0,-3.0L2.5,-0.5"/>
  </g>
  <g id="arrowRight" transform="rotate(90) translate(36 -43)">
    <use xlink:href="#rim"/>
    <path pointer-events="none" fill="none" stroke="white" stroke-width="1.5" d="M0,-3.0v7 M-2.5,-0.5L0,-3.0L2.5,-0.5"/>
  </g>
  <g id="arrowDown" transform="rotate(180) translate(-30 -48)">
    <use xlink:href="#rim"/>
    <path pointer-events="none" fill="none" stroke="white" stroke-width="1.5" d="M0,-3.0v7 M-2.5,-0.5L0,-3.0L2.5,-0.5"/>
  </g>
  <g id="arrowLeft" transform="rotate(270) translate(-36 17)">
    <use xlink:href="#rim"/>
    <path pointer-events="none" fill="none" stroke="white" stroke-width="1.5" d="M0,-3.0v7 M-2.5,-0.5L0,-3.0L2.5,-0.5"/>
  </g>
  <g id="resetDef">
    <use xlink:href="#rim2" fill="#404040"><set attributeName="fill" to="#808080" begin="reset.mouseover" end="reset.mouseout"/></use>
  </g>
</defs>
<script type="application/ecmascript">
var viewWidth = 1302;
var viewHeight = 401;
var sectionId = 'dynsection-1';
</script>
<script type="application/ecmascript" xlink:href="../../svg.min.js"/>
<svg id="graph" class="graph">
<g id="viewport">
<title>AETimer</title>
<!-- Node1 -->
<g id="Node000001" class="node">
<title>Node1</title>
<g id="a_Node000001"><a xlink:title="ArtyK&#39;s Engine Timer – the engine&#39;s internal timer for, um, timing events or anything,...">
<polygon fill="#999999" stroke="#666666" points="1294.05,-175 1240.55,-175 1240.55,-155 1294.05,-155 1294.05,-175"/>
<text text-anchor="middle" x="1267.3" y="-161.5" font-family="Helvetica,sans-Serif" font-size="10.00">AETimer</text>
</a>
</g>
</g>
<!-- Node2 -->
<g id="Node000002" class="node">
<title>Node2</title>
<g id="a_Node000002"><a xlink:href="../../d0/d8a/class_____a_e_module_base.html" target="_top" xlink:title=" ">
<polygon fill="white" stroke="#666666" points="908.8,-301 759.3,-301 759.3,-281 908.8,-281 908.8,-301"/>
<text text-anchor="middle" x="834.05" y="-287.5" font-family="Helvetica,sans-Serif" font-size="10.00">__AEModuleBase&lt; AETimer &gt;</text>
</a>
</g>
</g>
<!-- Node2&#45;&gt;Node1 -->
<g id="edge1_Node000001_Node000002" class="edge">
<title>Node2&#45;&gt;Node1</title>
<g id="a_edge1_Node000001_Node000002"><a xlink:title=" ">
<path fill="none" stroke="#63b8ff" d="M920.48,-302.4C982.05,-307.95 1066.62,-310.05 1138.55,-292 1179.63,-281.69 1192.63,-276.97 1222.55,-247 1243.75,-225.76 1257.24,-192.1 1263.03,-175.28"/>
<polygon fill="#63b8ff" stroke="#63b8ff" points="921.05,-298.94 910.76,-301.48 920.38,-305.91 921.05,-298.94"/>
</a>
</g>
</g>
<!-- Node3 -->
<g id="Node000003" class="node">
<title>Node3</title>
<g id="a_Node000003"><a xlink:title=" ">
<polygon fill="white" stroke="#666666" points="398.3,-220 269.8,-220 269.8,-200 398.3,-200 398.3,-220"/>
<text text-anchor="middle" x="334.05" y="-206.5" font-family="Helvetica,sans-Serif" font-size="10.00">std::atomic&lt; std::size_t &gt;</text>
</a>
</g>
</g>
<!-- Node3&#45;&gt;Node2 -->
<g id="edge2_Node000002_Node000003" class="edge">
<title>Node3&#45;&gt;Node2</title>
<g id="a_edge2_Node000002_Node000003"><a xlink:title=" ">
<path fill="none" stroke="#9a32cd" stroke-dasharray="5,2" d="M409.92,-219.07C487.64,-228.62 603.94,-243.31 648.3,-251 655.11,-252.18 733,-269.14 785.44,-280.59"/>
<polygon fill="#9a32cd" stroke="#9a32cd" points="410.6,-215.63 400.25,-217.89 409.75,-222.58 410.6,-215.63"/>
</a>
</g>
<text text-anchor="middle" x="589.68" y="-253.5" font-family="Helvetica,sans-Serif" font-size="10.00" fill="grey"> m_ullModulesAlive</text>
</g>
<!-- Node10 -->
<g id="Node000010" class="node">
<title>Node10</title>
<g id="a_Node000010"><a xlink:href="../../d0/d8a/class_____a_e_module_base.html" target="_top" xlink:title="This is a base class for all the modules in the engine; all basic modules inherit from it.">
<polygon fill="white" stroke="#666666" points="648.3,-201 531.05,-201 531.05,-181 648.3,-181 648.3,-201"/>
<text text-anchor="middle" x="589.68" y="-187.5" font-family="Helvetica,sans-Serif" font-size="10.00">__AEModuleBase&lt; T &gt;</text>
</a>
</g>
</g>
<!-- Node3&#45;&gt;Node10 -->
<g id="edge11_Node000010_Node000003" class="edge">
<title>Node3&#45;&gt;Node10</title>
<g id="a_edge11_Node000010_Node000003"><a xlink:title=" ">
<path fill="none" stroke="#9a32cd" stroke-dasharray="5,2" d="M409.9,-204.39C448.47,-201.5 494.79,-198.03 530.62,-195.35"/>
<polygon fill="#9a32cd" stroke="#9a32cd" points="409.94,-200.88 400.23,-205.12 410.47,-207.86 409.94,-200.88"/>
</a>
</g>
<text text-anchor="middle" x="464.68" y="-205.5" font-family="Helvetica,sans-Serif" font-size="10.00" fill="grey"> m_ullModulesAlive</text>
</g>
<!-- Node12 -->
<g id="Node000012" class="node">
<title>Node12</title>
<g id="a_Node000012"><a xlink:href="../../d0/d8a/class_____a_e_module_base.html" target="_top" xlink:title=" ">
<polygon fill="white" stroke="#666666" points="910.68,-175 757.43,-175 757.43,-155 910.68,-155 910.68,-175"/>
<text text-anchor="middle" x="834.05" y="-161.5" font-family="Helvetica,sans-Serif" font-size="10.00">__AEModuleBase&lt; AEFrame &gt;</text>
</a>
</g>
</g>
<!-- Node3&#45;&gt;Node12 -->
<g id="edge16_Node000012_Node000003" class="edge">
<title>Node3&#45;&gt;Node12</title>
<g id="a_edge16_Node000012_Node000003"><a xlink:title=" ">
<path fill="none" stroke="#9a32cd" stroke-dasharray="5,2" d="M354.66,-192.11C370.13,-179.28 392.94,-163.06 416.3,-156 544.99,-117.14 706.33,-139.41 785.2,-154.56"/>
<polygon fill="#9a32cd" stroke="#9a32cd" points="352.47,-189.38 347.18,-198.56 357.04,-194.68 352.47,-189.38"/>
</a>
</g>
<text text-anchor="middle" x="589.68" y="-138.5" font-family="Helvetica,sans-Serif" font-size="10.00" fill="grey"> m_ullModulesAlive</text>
</g>
<!-- Node4 -->
<g id="Node000004" class="node">
<title>Node4</title>
<g id="a_Node000004"><a xlink:title=" ">
<polygon fill="white" stroke="#666666" points="144.18,-238 101.93,-238 101.93,-218 144.18,-218 144.18,-238"/>
<text text-anchor="middle" x="123.05" y="-224.5" font-family="Helvetica,sans-Serif" font-size="10.00">size_t</text>
</a>
</g>
</g>
<!-- Node4&#45;&gt;Node3 -->
<g id="edge3_Node000003_Node000004" class="edge">
<title>Node4&#45;&gt;Node3</title>
<g id="a_edge3_Node000003_Node000004"><a xlink:title=" ">
<path fill="none" stroke="#9a32cd" stroke-dasharray="5,2" d="M155.55,-225.29C185.67,-222.69 231.94,-218.71 269.7,-215.46"/>
<polygon fill="#9a32cd" stroke="#9a32cd" points="155.64,-221.77 145.98,-226.11 156.24,-228.74 155.64,-221.77"/>
</a>
</g>
<text text-anchor="middle" x="218.43" y="-224.5" font-family="Helvetica,sans-Serif" font-size="10.00" fill="grey"> ptr</text>
</g>
<!-- Node5 -->
<g id="Node000005" class="node">
<title>Node5</title>
<g id="a_Node000005"><a xlink:title=" ">
<polygon fill="white" stroke="#666666" points="167.05,-200 79.05,-200 79.05,-180 167.05,-180 167.05,-200"/>
<text text-anchor="middle" x="123.05" y="-186.5" font-family="Helvetica,sans-Serif" font-size="10.00">std::atomic&lt; T &gt;</text>
</a>
</g>
</g>
<!-- Node5&#45;&gt;Node3 -->
<g id="edge4_Node000003_Node000005" class="edge">
<title>Node5&#45;&gt;Node3</title>
<g id="a_edge4_Node000003_Node000005"><a xlink:title=" ">
<path fill="none" stroke="orange" stroke-dasharray="5,2" d="M178.96,-194.43C201.53,-196.33 227.94,-198.65 251.8,-201 257.59,-201.57 263.61,-202.19 269.64,-202.82"/>
<polygon fill="orange" stroke="orange" points="179.3,-190.95 169.04,-193.61 178.72,-197.92 179.3,-190.95"/>
</a>
</g>
<text text-anchor="middle" x="218.43" y="-203.5" font-family="Helvetica,sans-Serif" font-size="10.00" fill="grey"> &lt; std::size_t &gt;</text>
</g>
<!-- Node7 -->
<g id="Node000007" class="node">
<title>Node7</title>
<g id="a_Node000007"><a xlink:title=" ">
<polygon fill="white" stroke="#666666" points="385.55,-104 282.55,-104 282.55,-84 385.55,-84 385.55,-104"/>
<text text-anchor="middle" x="334.05" y="-90.5" font-family="Helvetica,sans-Serif" font-size="10.00">std::atomic&lt; ullint &gt;</text>
</a>
</g>
</g>
<!-- Node5&#45;&gt;Node7 -->
<g id="edge8_Node000007_Node000005" class="edge">
<title>Node5&#45;&gt;Node7</title>
<g id="a_edge8_Node000007_Node000005"><a xlink:title=" ">
<path fill="none" stroke="orange" stroke-dasharray="5,2" d="M157.25,-174.75C200.05,-155.09 273.35,-121.42 310.31,-104.44"/>
<polygon fill="orange" stroke="orange" points="155.82,-171.56 148.19,-178.91 158.74,-177.92 155.82,-171.56"/>
</a>
</g>
<text text-anchor="middle" x="218.43" y="-163.5" font-family="Helvetica,sans-Serif" font-size="10.00" fill="grey"> &lt; ullint &gt;</text>
</g>
<!-- Node19 -->
<g id="Node000019" class="node">
<title>Node19</title>
<g id="a_Node000019"><a xlink:title=" ">
<polygon fill="white" stroke="#666666" points="1138.55,-283 1037.8,-283 1037.8,-263 1138.55,-263 1138.55,-283"/>
<text text-anchor="middle" x="1088.18" y="-269.5" font-family="Helvetica,sans-Serif" font-size="10.00">std::atomic&lt; bool &gt;</text>
</a>
</g>
</g>
<!-- Node5&#45;&gt;Node19 -->
<g id="edge29_Node000019_Node000005" class="edge">
<title>Node5&#45;&gt;Node19</title>
<g id="a_edge29_Node000019_Node000005"><a xlink:title=" ">
<path fill="none" stroke="orange" stroke-dasharray="5,2" d="M163.68,-206.31C164.85,-207.17 165.98,-208.07 167.05,-209 178.5,-218.95 175.52,-226.2 185.05,-238 242.49,-309.18 241.58,-381 333.05,-381 333.05,-381 333.05,-381 835.05,-381 933.62,-381 1037.63,-310.39 1073.83,-283.36"/>
<polygon fill="orange" stroke="orange" points="165.78,-203.49 155.42,-201.27 162.13,-209.47 165.78,-203.49"/>
</a>
</g>
<text text-anchor="middle" x="589.68" y="-383.5" font-family="Helvetica,sans-Serif" font-size="10.00" fill="grey"> &lt; bool &gt;</text>
</g>
<!-- Node6 -->
<g id="Node000006" class="node">
<title>Node6</title>
<g id="a_Node000006"><a xlink:title=" ">
<polygon fill="white" stroke="#666666" points="28.8,-200 0,-200 0,-180 28.8,-180 28.8,-200"/>
<text text-anchor="middle" x="14.4" y="-186.5" font-family="Helvetica,sans-Serif" font-size="10.00">T</text>
</a>
</g>
</g>
<!-- Node6&#45;&gt;Node5 -->
<g id="edge5_Node000005_Node000006" class="edge">
<title>Node6&#45;&gt;Node5</title>
<g id="a_edge5_Node000005_Node000006"><a xlink:title=" ">
<path fill="none" stroke="#9a32cd" stroke-dasharray="5,2" d="M40.2,-190C51.66,-190 65.6,-190 78.71,-190"/>
<polygon fill="#9a32cd" stroke="#9a32cd" points="40.42,-186.5 30.42,-190 40.42,-193.5 40.42,-186.5"/>
</a>
</g>
<text text-anchor="middle" x="53.93" y="-192.5" font-family="Helvetica,sans-Serif" font-size="10.00" fill="grey"> ptr</text>
</g>
<!-- Node7&#45;&gt;Node1 -->
<g id="edge26_Node000001_Node000007" class="edge">
<title>Node7&#45;&gt;Node1</title>
<g id="a_edge26_Node000001_Node000007"><a xlink:title=" ">
<path fill="none" stroke="#9a32cd" stroke-dasharray="5,2" d="M360.59,-77.6C405.06,-50.66 500.42,0 588.68,0 588.68,0 588.68,0 1089.18,0 1180.37,0 1244.23,-118.56 1261.57,-154.68"/>
<polygon fill="#9a32cd" stroke="#9a32cd" points="358.86,-74.55 352.19,-82.79 362.54,-80.51 358.86,-74.55"/>
</a>
</g>
<text text-anchor="middle" x="834.05" y="-2.5" font-family="Helvetica,sans-Serif" font-size="10.00" fill="grey"> m_ullTicks</text>
</g>
<!-- Node7&#45;&gt;Node2 -->
<g id="edge6_Node000002_Node000007" class="edge">
<title>Node7&#45;&gt;Node2</title>
<g id="a_edge6_Node000002_Node000007"><a xlink:title=" ">
<path fill="none" stroke="#9a32cd" stroke-dasharray="5,2" d="M397.21,-90.49C461.59,-88.75 564.33,-91.31 648.3,-118 687.91,-130.59 705.08,-131.7 728.55,-166 755.53,-205.44 713.58,-237.41 746.55,-272 750.16,-275.78 754.33,-278.9 758.86,-281.45"/>
<polygon fill="#9a32cd" stroke="#9a32cd" points="397.44,-86.98 387.56,-90.8 397.66,-93.98 397.44,-86.98"/>
</a>
</g>
<text text-anchor="middle" x="589.68" y="-120.5" font-family="Helvetica,sans-Serif" font-size="10.00" fill="grey"> m_ullInstanceCounter</text>
</g>
<!-- Node7&#45;&gt;Node10 -->
<g id="edge12_Node000010_Node000007" class="edge">
<title>Node7&#45;&gt;Node10</title>
<g id="a_edge12_Node000010_Node000007"><a xlink:title=" ">
<path fill="none" stroke="#9a32cd" stroke-dasharray="5,2" d="M372.89,-108.47C424.53,-128.22 515.86,-163.15 561.34,-180.55"/>
<polygon fill="#9a32cd" stroke="#9a32cd" points="374.2,-105.22 363.61,-104.92 371.7,-111.76 374.2,-105.22"/>
</a>
</g>
<text text-anchor="middle" x="464.68" y="-161.5" font-family="Helvetica,sans-Serif" font-size="10.00" fill="grey"> m_ullInstanceCounter</text>
</g>
<!-- Node7&#45;&gt;Node12 -->
<g id="edge17_Node000012_Node000007" class="edge">
<title>Node7&#45;&gt;Node12</title>
<g id="a_edge17_Node000012_Node000007"><a xlink:title=" ">
<path fill="none" stroke="#9a32cd" stroke-dasharray="5,2" d="M387.22,-80.98C449.44,-67.16 556.55,-48.74 648.3,-60 684.78,-64.48 702.27,-54.3 728.55,-80 750.28,-101.26 724.52,-125.05 746.55,-146 750.11,-149.39 754.14,-152.23 758.46,-154.6"/>
<polygon fill="#9a32cd" stroke="#9a32cd" points="386.59,-77.54 377.62,-83.17 388.14,-84.36 386.59,-77.54"/>
</a>
</g>
<text text-anchor="middle" x="589.68" y="-62.5" font-family="Helvetica,sans-Serif" font-size="10.00" fill="grey"> m_ullInstanceCounter</text>
</g>
<!-- Node8 -->
<g id="Node000008" class="node">
<title>Node8</title>
<g id="a_Node000008"><a xlink:title=" ">
<polygon fill="white" stroke="#666666" points="141.18,-104 104.93,-104 104.93,-84 141.18,-84 141.18,-104"/>
<text text-anchor="middle" x="123.05" y="-90.5" font-family="Helvetica,sans-Serif" font-size="10.00">ullint</text>
</a>
</g>
</g>
<!-- Node8&#45;&gt;Node7 -->
<g id="edge7_Node000007_Node000008" class="edge">
<title>Node8&#45;&gt;Node7</title>
<g id="a_edge7_Node000007_Node000008"><a xlink:title=" ">
<path fill="none" stroke="#9a32cd" stroke-dasharray="5,2" d="M152.7,-94C185.99,-94 241.54,-94 282.22,-94"/>
<polygon fill="#9a32cd" stroke="#9a32cd" points="153.02,-90.5 143.02,-94 153.02,-97.5 153.02,-90.5"/>
</a>
</g>
<text text-anchor="middle" x="218.43" y="-96.5" font-family="Helvetica,sans-Serif" font-size="10.00" fill="grey"> ptr</text>
</g>
<!-- Node9 -->
<g id="Node000009" class="node">
<title>Node9</title>
<g id="a_Node000009"><a xlink:title=" ">
<polygon fill="white" stroke="#666666" points="365.68,-307 302.43,-307 302.43,-287 365.68,-287 365.68,-307"/>
<text text-anchor="middle" x="334.05" y="-293.5" font-family="Helvetica,sans-Serif" font-size="10.00">const ullint</text>
</a>
</g>
</g>
<!-- Node9&#45;&gt;Node2 -->
<g id="edge9_Node000002_Node000009" class="edge">
<title>Node9&#45;&gt;Node2</title>
<g id="a_edge9_Node000002_Node000009"><a xlink:title=" ">
<path fill="none" stroke="#9a32cd" stroke-dasharray="5,2" d="M377.22,-305.67C389.74,-307.87 403.52,-309.91 416.3,-311 554.68,-322.83 589.97,-308.16 728.55,-299 738.35,-298.35 748.67,-297.62 758.85,-296.87"/>
<polygon fill="#9a32cd" stroke="#9a32cd" points="378.1,-302.27 367.63,-303.91 376.83,-309.16 378.1,-302.27"/>
</a>
</g>
<text text-anchor="middle" x="589.68" y="-317.5" font-family="Helvetica,sans-Serif" font-size="10.00" fill="grey"> m_ullModuleId</text>
</g>
<!-- Node9&#45;&gt;Node10 -->
<g id="edge13_Node000010_Node000009" class="edge">
<title>Node9&#45;&gt;Node10</title>
<g id="a_edge13_Node000010_Node000009"><a xlink:title=" ">
<path fill="none" stroke="#9a32cd" stroke-dasharray="5,2" d="M370.71,-282.06C409.99,-265.61 475.01,-238.39 531.05,-215 541.75,-210.53 553.57,-205.61 563.71,-201.39"/>
<polygon fill="#9a32cd" stroke="#9a32cd" points="369.37,-278.83 361.5,-285.92 372.08,-285.28 369.37,-278.83"/>
</a>
</g>
<text text-anchor="middle" x="464.68" y="-263.5" font-family="Helvetica,sans-Serif" font-size="10.00" fill="grey"> m_ullModuleId</text>
</g>
<!-- Node9&#45;&gt;Node12 -->
<g id="edge18_Node000012_Node000009" class="edge">
<title>Node9&#45;&gt;Node12</title>
<g id="a_edge18_Node000012_Node000009"><a xlink:title=" ">
<path fill="none" stroke="#9a32cd" stroke-dasharray="5,2" d="M377.31,-296.58C438.22,-295.05 553.76,-288.65 648.3,-263 686.03,-252.77 701.26,-254.99 728.55,-227 743.01,-212.17 730.64,-197.27 746.55,-184 750.68,-180.55 755.3,-177.69 760.2,-175.32"/>
<polygon fill="#9a32cd" stroke="#9a32cd" points="377.31,-293.08 367.39,-296.8 377.46,-300.08 377.31,-293.08"/>
</a>
</g>
<text text-anchor="middle" x="589.68" y="-286.5" font-family="Helvetica,sans-Serif" font-size="10.00" fill="grey"> m_ullModuleId</text>
</g>
<!-- Node10&#45;&gt;Node2 -->
<g id="edge10_Node000002_Node000010" class="edge">
<title>Node10&#45;&gt;Node2</title>
<g id="a_edge10_Node000002_Node000010"><a xlink:title=" ">
<path fill="none" stroke="orange" stroke-dasharray="5,2" d="M660.03,-194.18C688.82,-196.88 717.98,-201.84 728.55,-211 749.91,-229.51 725.87,-252.73 746.55,-272 750.26,-275.46 754.45,-278.34 758.94,-280.74"/>
<polygon fill="orange" stroke="orange" points="660.39,-190.7 650.13,-193.35 659.81,-197.68 660.39,-190.7"/>
</a>
</g>
<text text-anchor="middle" x="697.43" y="-213.5" font-family="Helvetica,sans-Serif" font-size="10.00" fill="grey"> &lt; AETimer &gt;</text>
</g>
<!-- Node10&#45;&gt;Node12 -->
<g id="edge19_Node000012_Node000010" class="edge">
<title>Node10&#45;&gt;Node12</title>
<g id="a_edge19_Node000012_Node000010"><a xlink:title=" ">
<path fill="none" stroke="orange" stroke-dasharray="5,2" d="M649.85,-178.5C655.39,-177.56 660.94,-176.71 666.3,-176 695.93,-172.1 728.71,-169.56 757.31,-167.91"/>
<polygon fill="orange" stroke="orange" points="649.24,-175.05 640.02,-180.27 650.48,-181.94 649.24,-175.05"/>
</a>
</g>
<text text-anchor="middle" x="697.43" y="-178.5" font-family="Helvetica,sans-Serif" font-size="10.00" fill="grey"> &lt; AEFrame &gt;</text>
</g>
<!-- Node11 -->
<g id="Node000011" class="node">
<title>Node11</title>
<g id="a_Node000011"><a xlink:href="../../df/dd7/class_a_e_frame.html" target="_top" xlink:title="This module is the engine&#39;s precise frame/loop&#45;cycle limiter.">
<polygon fill="white" stroke="#666666" points="1116.8,-175 1059.55,-175 1059.55,-155 1116.8,-155 1116.8,-175"/>
<text text-anchor="middle" x="1088.18" y="-161.5" font-family="Helvetica,sans-Serif" font-size="10.00">AEFrame</text>
</a>
</g>
</g>
<!-- Node11&#45;&gt;Node1 -->
<g id="edge14_Node000001_Node000011" class="edge">
<title>Node11&#45;&gt;Node1</title>
<g id="a_edge14_Node000001_Node000011"><a xlink:title=" ">
<path fill="none" stroke="#9a32cd" stroke-dasharray="5,2" d="M1128.62,-165C1162.59,-165 1210.67,-165 1240.1,-165"/>
<polygon fill="#9a32cd" stroke="#9a32cd" points="1128.75,-161.5 1118.75,-165 1128.75,-168.5 1128.75,-161.5"/>
</a>
</g>
<text text-anchor="middle" x="1189.55" y="-167.5" font-family="Helvetica,sans-Serif" font-size="10.00" fill="grey"> m_rDelay</text>
</g>
<!-- Node12&#45;&gt;Node11 -->
<g id="edge15_Node000011_Node000012" class="edge">
<title>Node12&#45;&gt;Node11</title>
<g id="a_edge15_Node000011_Node000012"><a xlink:title=" ">
<path fill="none" stroke="#63b8ff" d="M922.37,-165C970.2,-165 1026.28,-165 1059.15,-165"/>
<polygon fill="#63b8ff" stroke="#63b8ff" points="922.55,-161.5 912.55,-165 922.55,-168.5 922.55,-161.5"/>
</a>
</g>
</g>
<!-- Node13 -->
<g id="Node000013" class="node">
<title>Node13</title>
<g id="a_Node000013"><a xlink:title=" ">
<polygon fill="white" stroke="#666666" points="918.55,-99 749.55,-99 749.55,-79 918.55,-79 918.55,-99"/>
<text text-anchor="middle" x="834.05" y="-85.5" font-family="Helvetica,sans-Serif" font-size="10.00">static constexpr timeDur&lt; double &gt;</text>
</a>
</g>
</g>
<!-- Node13&#45;&gt;Node11 -->
<g id="edge20_Node000011_Node000013" class="edge">
<title>Node13&#45;&gt;Node11</title>
<g id="a_edge20_Node000011_Node000013"><a xlink:title=" ">
<path fill="none" stroke="#9a32cd" stroke-dasharray="5,2" d="M930.12,-91.42C960.58,-95.75 993.26,-104.39 1019.8,-121 1031.41,-128.26 1026.96,-137.64 1037.8,-146 1044.13,-150.88 1051.86,-154.64 1059.3,-157.47"/>
<polygon fill="#9a32cd" stroke="#9a32cd" points="930.88,-87.99 920.52,-90.21 930,-94.94 930.88,-87.99"/>
</a>
</g>
<text text-anchor="middle" x="979.68" y="-123.5" font-family="Helvetica,sans-Serif" font-size="10.00" fill="grey"> m_tdResetTime</text>
</g>
<!-- Node14 -->
<g id="Node000014" class="node">
<title>Node14</title>
<g id="a_Node000014"><a xlink:title=" ">
<polygon fill="white" stroke="#666666" points="882.18,-137 785.93,-137 785.93,-117 882.18,-117 882.18,-137"/>
<text text-anchor="middle" x="834.05" y="-123.5" font-family="Helvetica,sans-Serif" font-size="10.00">timeDur&lt; double &gt;</text>
</a>
</g>
</g>
<!-- Node14&#45;&gt;Node11 -->
<g id="edge21_Node000011_Node000014" class="edge">
<title>Node14&#45;&gt;Node11</title>
<g id="a_edge21_Node000011_Node000014"><a xlink:title=" ">
<path fill="none" stroke="#9a32cd" stroke-dasharray="5,2" d="M893.76,-132.26C930.2,-135.95 977.9,-141.56 1019.8,-149 1032.82,-151.31 1047.09,-154.59 1059.13,-157.58"/>
<polygon fill="#9a32cd" stroke="#9a32cd" points="894.15,-128.78 883.86,-131.27 893.46,-135.74 894.15,-128.78"/>
</a>
</g>
<text text-anchor="middle" x="979.68" y="-151.5" font-family="Helvetica,sans-Serif" font-size="10.00" fill="grey"> m_tdChronoDelay</text>
</g>
<!-- Node15 -->
<g id="Node000015" class="node">
<title>Node15</title>
<g id="a_Node000015"><a xlink:title=" ">
<polygon fill="white" stroke="#666666" points="921.55,-225 746.55,-225 746.55,-193 921.55,-193 921.55,-225"/>
<text text-anchor="start" x="754.55" y="-211.5" font-family="Helvetica,sans-Serif" font-size="10.00">timePoint&lt; AEFrameClock, decltype</text>
<text text-anchor="middle" x="834.05" y="-199.5" font-family="Helvetica,sans-Serif" font-size="10.00">(m_tdChronoDelay)&gt;</text>
</a>
</g>
</g>
<!-- Node15&#45;&gt;Node11 -->
<g id="edge22_Node000011_Node000015" class="edge">
<title>Node15&#45;&gt;Node11</title>
<g id="a_edge22_Node000011_Node000015"><a xlink:title=" ">
<path fill="none" stroke="#9a32cd" stroke-dasharray="5,2" d="M932.72,-193.96C960.87,-189.41 991.59,-184.22 1019.8,-179 1032.84,-176.59 1047.24,-173.64 1059.37,-171.06"/>
<polygon fill="#9a32cd" stroke="#9a32cd" points="932.47,-190.46 923.15,-195.5 933.58,-197.37 932.47,-190.46"/>
</a>
</g>
<text text-anchor="middle" x="979.68" y="-194.5" font-family="Helvetica,sans-Serif" font-size="10.00" fill="grey"> m_tpTimepoint</text>
</g>
<!-- Node16 -->
<g id="Node000016" class="node">
<title>Node16</title>
<g id="a_Node000016"><a xlink:title=" ">
<polygon fill="white" stroke="#666666" points="856.3,-61 811.8,-61 811.8,-41 856.3,-41 856.3,-61"/>
<text text-anchor="middle" x="834.05" y="-47.5" font-family="Helvetica,sans-Serif" font-size="10.00">double</text>
</a>
</g>
</g>
<!-- Node16&#45;&gt;Node11 -->
<g id="edge23_Node000011_Node000016" class="edge">
<title>Node16&#45;&gt;Node11</title>
<g id="a_edge23_Node000011_Node000016"><a xlink:title=" ">
<path fill="none" stroke="#9a32cd" stroke-dasharray="5,2" d="M867.9,-45.86C908.72,-41.45 978.09,-40.78 1019.8,-78 1043.13,-98.82 1016.93,-122.73 1037.8,-146 1043.44,-152.29 1051.41,-156.51 1059.29,-159.34"/>
<polygon fill="#9a32cd" stroke="#9a32cd" points="867.69,-42.36 858.2,-47.05 868.55,-49.31 867.69,-42.36"/>
</a>
</g>
<text text-anchor="middle" x="979.68" y="-80.5" font-family="Helvetica,sans-Serif" font-size="10.00" fill="grey"> m_fFPS</text>
</g>
<!-- Node17 -->
<g id="Node000017" class="node">
<title>Node17</title>
<g id="a_Node000017"><a xlink:title=" ">
<polygon fill="white" stroke="#666666" points="851.05,-263 817.05,-263 817.05,-243 851.05,-243 851.05,-263"/>
<text text-anchor="middle" x="834.05" y="-249.5" font-family="Helvetica,sans-Serif" font-size="10.00">bool</text>
</a>
</g>
</g>
<!-- Node17&#45;&gt;Node11 -->
<g id="edge24_Node000011_Node000017" class="edge">
<title>Node17&#45;&gt;Node11</title>
<g id="a_edge24_Node000011_Node000017"><a xlink:title=" ">
<path fill="none" stroke="#9a32cd" stroke-dasharray="5,2" d="M862.82,-249.32C899.84,-243.74 966.84,-231.23 1019.8,-208 1039.75,-199.25 1060.57,-185.06 1073.69,-175.39"/>
<polygon fill="#9a32cd" stroke="#9a32cd" points="862.38,-245.85 852.98,-250.74 863.37,-252.78 862.38,-245.85"/>
</a>
</g>
<text text-anchor="middle" x="979.68" y="-235.5" font-family="Helvetica,sans-Serif" font-size="10.00" fill="grey"> m_bNoDelay</text>
</g>
<!-- Node17&#45;&gt;Node19 -->
<g id="edge28_Node000019_Node000017" class="edge">
<title>Node17&#45;&gt;Node19</title>
<g id="a_edge28_Node000019_Node000017"><a xlink:title=" ">
<path fill="none" stroke="#9a32cd" stroke-dasharray="5,2" d="M862.41,-255.17C904.31,-258.49 985,-264.89 1037.43,-269.05"/>
<polygon fill="#9a32cd" stroke="#9a32cd" points="862.96,-251.7 852.71,-254.4 862.41,-258.68 862.96,-251.7"/>
</a>
</g>
<text text-anchor="middle" x="979.68" y="-269.5" font-family="Helvetica,sans-Serif" font-size="10.00" fill="grey"> ptr</text>
</g>
<!-- Node18 -->
<g id="Node000018" class="node">
<title>Node18</title>
<g id="a_Node000018"><a xlink:title=" ">
<polygon fill="white" stroke="#666666" points="1119.43,-137 1056.93,-137 1056.93,-117 1119.43,-117 1119.43,-137"/>
<text text-anchor="middle" x="1088.18" y="-123.5" font-family="Helvetica,sans-Serif" font-size="10.00">std::thread</text>
</a>
</g>
</g>
<!-- Node18&#45;&gt;Node1 -->
<g id="edge25_Node000001_Node000018" class="edge">
<title>Node18&#45;&gt;Node1</title>
<g id="a_edge25_Node000001_Node000018"><a xlink:title=" ">
<path fill="none" stroke="#9a32cd" stroke-dasharray="5,2" d="M1130.89,-131.84C1157.4,-135.41 1192.3,-141.05 1222.55,-149 1228.34,-150.52 1234.44,-152.5 1240.18,-154.54"/>
<polygon fill="#9a32cd" stroke="#9a32cd" points="1131.58,-128.4 1121.21,-130.58 1130.68,-135.34 1131.58,-128.4"/>
</a>
</g>
<text text-anchor="middle" x="1189.55" y="-151.5" font-family="Helvetica,sans-Serif" font-size="10.00" fill="grey"> m_trdCounting</text>
</g>
<!-- Node19&#45;&gt;Node1 -->
<g id="edge27_Node000001_Node000019" class="edge">
<title>Node19&#45;&gt;Node1</title>
<g id="a_edge27_Node000001_Node000019"><a xlink:title=" ">
<path fill="none" stroke="#9a32cd" stroke-dasharray="5,2" d="M1115.73,-256.81C1152.55,-234.35 1218.08,-194.4 1249.11,-175.48"/>
<polygon fill="#9a32cd" stroke="#9a32cd" points="1114.17,-253.66 1107.45,-261.86 1117.81,-259.64 1114.17,-253.66"/>
</a>
</g>
<text text-anchor="middle" x="1189.55" y="-233.5" font-family="Helvetica,sans-Serif" font-size="10.00" fill="grey"> m_bRunTrd</text>
</g>
</g>
</svg>

<g id="navigator" transform="translate(0 0)" fill="#404254">
  <rect fill="#f2f5e9" fill-opacity="0.5" stroke="#606060" stroke-width=".5" x="0" y="0" width="60" height="60"/>
  <use id="zoomplus" xlink:href="#zoomPlus" x="17" y="9" onmousedown="handleZoom(evt,'in')"/>
  <use id="zoomminus" xlink:href="#zoomMin" x="42" y="9" onmousedown="handleZoom(evt,'out')"/>
  <use id="reset" xlink:href="#resetDef" x="30" y="36" onmousedown="handleReset()"/>
   <use id="arrowup" xlink:href="#arrowUp" x="0" y="0" onmousedown="handlePan(0,-1)"/>
  <use id="arrowright" xlink:href="#arrowRight" x="0" y="0" onmousedown="handlePan(1,0)"/>
  <use id="arrowdown" xlink:href="#arrowDown" x="0" y="0" onmousedown="handlePan(0,1)"/>
  <use id="arrowleft" xlink:href="#arrowLeft" x="0" y="0" onmousedown="handlePan(-1,0)"/>
</g>
<svg viewBox="0 0 15 15" width="100%" height="30px" preserveAspectRatio="xMaxYMin meet">
 <g id="arrow_out" transform="scale(0.3 0.3)">
  <a xlink:href="class_a_e_timer__coll__graph_org.svg" target="_base">
   <rect id="button" ry="5" rx="5" y="6" x="6" height="38" width="38"
        fill="#f2f5e9" fill-opacity="0.5" stroke="#606060" stroke-width="1.0"/>
   <path id="arrow"
     d="M 11.500037,31.436501 C 11.940474,20.09759 22.043105,11.32322 32.158766,21.979434 L 37.068811,17.246167 C 37.068811,17.246167 37.088388,32 37.088388,32 L 22.160133,31.978069 C 22.160133,31.978069 26.997745,27.140456 26.997745,27.140456 C 18.528582,18.264221 13.291696,25.230495 11.500037,31.436501 z"
     style="fill:#404040;"/>
  </a>
 </g>
</svg>

<style type='text/css'>
<![CDATA[
[data-mouse-over-selected='false'] { opacity: 0.7; }
[data-mouse-over-selected='true']  { opacity: 1.0; }
]]>
</style>
<script type="application/ecmascript"><![CDATA[
document.addEventListener('DOMContentLoaded', (event) => {
  highlightEdges();
  highlightAdjacentNodes();
});
]]></script>
</svg>
