<?xml version="1.0" encoding="UTF-8" standalone="no"?>
<!DOCTYPE svg PUBLIC "-//W3C//DTD SVG 1.1//EN"
 "http://www.w3.org/Graphics/SVG/1.1/DTD/svg11.dtd">
<!-- Generated by graphviz version 10.0.1 (20240210.2158)
 -->
<!-- Title: AEMisc/include/AEMathConst.hpp Pages: 1 -->
<svg width="553pt" height="196pt"
 viewBox="0.00 0.00 553.25 196.00" xmlns="http://www.w3.org/2000/svg" xmlns:xlink="http://www.w3.org/1999/xlink">
<g id="graph0" class="graph" transform="scale(1 1) rotate(0) translate(4 192)">
<title>AEMisc/include/AEMathConst.hpp</title>
<!-- Node1 -->
<g id="Node000001" class="node">
<title>Node1</title>
<g id="a_Node000001"><a xlink:title=" ">
<polygon fill="#999999" stroke="#666666" points="371.88,-188 205.12,-188 205.12,-168 371.88,-168 371.88,-188"/>
<text text-anchor="middle" x="288.5" y="-174.5" font-family="Helvetica,sans-Serif" font-size="10.00">AEMisc/include/AEMathConst.hpp</text>
</a>
</g>
</g>
<!-- Node2 -->
<g id="Node000002" class="node">
<title>Node2</title>
<g id="a_Node000002"><a xlink:href="../../d1/da4/_a_e_math_8hpp.html" target="_top" xlink:title="This file contains the engine&#39;s math and math&#45;related functions.">
<polygon fill="white" stroke="#666666" points="359.12,-132 217.88,-132 217.88,-112 359.12,-112 359.12,-132"/>
<text text-anchor="middle" x="288.5" y="-118.5" font-family="Helvetica,sans-Serif" font-size="10.00">AEMisc/include/AEMath.hpp</text>
</a>
</g>
</g>
<!-- Node1&#45;&gt;Node2 -->
<g id="edge1_Node000001_Node000002" class="edge">
<title>Node1&#45;&gt;Node2</title>
<g id="a_edge1_Node000001_Node000002"><a xlink:title=" ">
<path fill="none" stroke="#63b8ff" d="M288.5,-156.13C288.5,-147.9 288.5,-138.85 288.5,-132.3"/>
<polygon fill="#63b8ff" stroke="#63b8ff" points="285,-156.08 288.5,-166.08 292,-156.08 285,-156.08"/>
</a>
</g>
</g>
<!-- Node3 -->
<g id="Node000003" class="node">
<title>Node3</title>
<g id="a_Node000003"><a xlink:href="../../d0/dab/_a_e_log_parser_8hpp.html" target="_top" xlink:title=" ">
<polygon fill="white" stroke="#666666" points="187,-76 0,-76 0,-56 187,-56 187,-76"/>
<text text-anchor="middle" x="93.5" y="-62.5" font-family="Helvetica,sans-Serif" font-size="10.00">AELogParser/include/AELogParser.hpp</text>
</a>
</g>
</g>
<!-- Node2&#45;&gt;Node3 -->
<g id="edge2_Node000002_Node000003" class="edge">
<title>Node2&#45;&gt;Node3</title>
<g id="a_edge2_Node000002_Node000003"><a xlink:title=" ">
<path fill="none" stroke="#63b8ff" d="M243.58,-108.56C208.3,-98.79 159.92,-85.39 127.73,-76.48"/>
<polygon fill="#63b8ff" stroke="#63b8ff" points="242.5,-111.89 253.07,-111.19 244.37,-105.15 242.5,-111.89"/>
</a>
</g>
</g>
<!-- Node5 -->
<g id="Node000005" class="node">
<title>Node5</title>
<g id="a_Node000005"><a xlink:href="../../d7/d4a/_a_e_trig_lookup_8hpp.html" target="_top" xlink:title="This file contains the engine&#39;s trigonometric function lookup tables.">
<polygon fill="white" stroke="#666666" points="371.88,-76 205.12,-76 205.12,-56 371.88,-56 371.88,-76"/>
<text text-anchor="middle" x="288.5" y="-62.5" font-family="Helvetica,sans-Serif" font-size="10.00">AEMisc/include/AETrigLookup.hpp</text>
</a>
</g>
</g>
<!-- Node2&#45;&gt;Node5 -->
<g id="edge4_Node000002_Node000005" class="edge">
<title>Node2&#45;&gt;Node5</title>
<g id="a_edge4_Node000002_Node000005"><a xlink:title=" ">
<path fill="none" stroke="#63b8ff" d="M288.5,-100.13C288.5,-91.9 288.5,-82.85 288.5,-76.3"/>
<polygon fill="#63b8ff" stroke="#63b8ff" points="285,-100.08 288.5,-110.08 292,-100.08 285,-100.08"/>
</a>
</g>
</g>
<!-- Node6 -->
<g id="Node000006" class="node">
<title>Node6</title>
<g id="a_Node000006"><a xlink:href="../../d7/d09/_a_e_vector_8hpp.html" target="_top" xlink:title=" ">
<polygon fill="white" stroke="#666666" points="545.25,-76 389.75,-76 389.75,-56 545.25,-56 545.25,-76"/>
<text text-anchor="middle" x="467.5" y="-62.5" font-family="Helvetica,sans-Serif" font-size="10.00">AEVector/include/AEVector.hpp</text>
</a>
</g>
</g>
<!-- Node2&#45;&gt;Node6 -->
<g id="edge5_Node000002_Node000006" class="edge">
<title>Node2&#45;&gt;Node6</title>
<g id="a_edge5_Node000002_Node000006"><a xlink:title=" ">
<path fill="none" stroke="#63b8ff" d="M330.58,-108.31C362.89,-98.56 406.79,-85.32 436.08,-76.48"/>
<polygon fill="#63b8ff" stroke="#63b8ff" points="329.69,-104.92 321.13,-111.16 331.71,-111.62 329.69,-104.92"/>
</a>
</g>
</g>
<!-- Node4 -->
<g id="Node000004" class="node">
<title>Node4</title>
<g id="a_Node000004"><a xlink:href="../../d2/d77/_a_e_log_parser_8cpp.html" target="_top" xlink:title=" ">
<polygon fill="white" stroke="#666666" points="178.38,-20 8.62,-20 8.62,0 178.38,0 178.38,-20"/>
<text text-anchor="middle" x="93.5" y="-6.5" font-family="Helvetica,sans-Serif" font-size="10.00">AELogParser/src/AELogParser.cpp</text>
</a>
</g>
</g>
<!-- Node3&#45;&gt;Node4 -->
<g id="edge3_Node000003_Node000004" class="edge">
<title>Node3&#45;&gt;Node4</title>
<g id="a_edge3_Node000003_Node000004"><a xlink:title=" ">
<path fill="none" stroke="#63b8ff" d="M93.5,-44.13C93.5,-35.9 93.5,-26.85 93.5,-20.3"/>
<polygon fill="#63b8ff" stroke="#63b8ff" points="90,-44.08 93.5,-54.08 97,-44.08 90,-44.08"/>
</a>
</g>
</g>
</g>
</svg>
