<?xml version="1.0" encoding="UTF-8" standalone="no"?>
<!DOCTYPE svg PUBLIC "-//W3C//DTD SVG 1.1//EN"
 "http://www.w3.org/Graphics/SVG/1.1/DTD/svg11.dtd">
<!-- Generated by graphviz version 10.0.1 (20240210.2158)
 -->
<!-- Title: AELogEntryInfo::isInvalidMName Pages: 1 -->
<svg width="329pt" height="66pt"
 viewBox="0.00 0.00 328.75 66.00" xmlns="http://www.w3.org/2000/svg" xmlns:xlink="http://www.w3.org/1999/xlink">
<g id="graph0" class="graph" transform="scale(1 1) rotate(0) translate(4 62)">
<title>AELogEntryInfo::isInvalidMName</title>
<!-- Node1 -->
<g id="Node000001" class="node">
<title>Node1</title>
<g id="a_Node000001"><a xlink:title="Checks if the cursor index of the current instance is invalid.">
<polygon fill="#999999" stroke="#666666" points="320.75,-39 163.75,-39 163.75,-19 320.75,-19 320.75,-39"/>
<text text-anchor="middle" x="242.25" y="-25.5" font-family="Helvetica,sans-Serif" font-size="10.00">AELogEntryInfo::isInvalidMName</text>
</a>
</g>
</g>
<!-- Node2 -->
<g id="Node000002" class="node">
<title>Node2</title>
<g id="a_Node000002"><a xlink:href="../../db/d7b/struct_a_e_log_entry_info.html#a9bd978e840beb7d707370b062f278239" target="_top" xlink:title="Checks if the current instance is broken (partially invalid)">
<polygon fill="white" stroke="#666666" points="127.75,-58 0,-58 0,-38 127.75,-38 127.75,-58"/>
<text text-anchor="middle" x="63.88" y="-44.5" font-family="Helvetica,sans-Serif" font-size="10.00">AELogEntryInfo::isBroken</text>
</a>
</g>
</g>
<!-- Node1&#45;&gt;Node2 -->
<g id="edge1_Node000001_Node000002" class="edge">
<title>Node1&#45;&gt;Node2</title>
<g id="a_edge1_Node000001_Node000002"><a xlink:title=" ">
<path fill="none" stroke="#63b8ff" d="M151.98,-38.62C143.9,-39.49 135.83,-40.36 128.05,-41.19"/>
<polygon fill="#63b8ff" stroke="#63b8ff" points="152.3,-42.1 161.87,-37.55 151.55,-35.14 152.3,-42.1"/>
</a>
</g>
</g>
<!-- Node3 -->
<g id="Node000003" class="node">
<title>Node3</title>
<g id="a_Node000003"><a xlink:href="../../db/d7b/struct_a_e_log_entry_info.html#a1b0a5882ba721a9ebdb638199fafa92d" target="_top" xlink:title="Checks if the current instance is invalid.">
<polygon fill="white" stroke="#666666" points="125.5,-20 2.25,-20 2.25,0 125.5,0 125.5,-20"/>
<text text-anchor="middle" x="63.88" y="-6.5" font-family="Helvetica,sans-Serif" font-size="10.00">AELogEntryInfo::isInvalid</text>
</a>
</g>
</g>
<!-- Node1&#45;&gt;Node3 -->
<g id="edge2_Node000001_Node000003" class="edge">
<title>Node1&#45;&gt;Node3</title>
<g id="a_edge2_Node000001_Node000003"><a xlink:title=" ">
<path fill="none" stroke="#63b8ff" d="M152.15,-19.4C143.27,-18.45 134.41,-17.49 125.91,-16.58"/>
<polygon fill="#63b8ff" stroke="#63b8ff" points="151.55,-22.86 161.87,-20.45 152.3,-15.9 151.55,-22.86"/>
</a>
</g>
</g>
</g>
</svg>
