<?xml version="1.0" encoding="UTF-8" standalone="no"?>
<!DOCTYPE svg PUBLIC "-//W3C//DTD SVG 1.1//EN"
 "http://www.w3.org/Graphics/SVG/1.1/DTD/svg11.dtd">
<!-- Generated by graphviz version 10.0.1 (20240210.2158)
 -->
<!-- Title: AELogParser::nextEntryType Pages: 1 -->
<!--zoomable 313 -->

<svg id="main" version="1.1" xmlns="http://www.w3.org/2000/svg" xmlns:xlink="http://www.w3.org/1999/xlink" xml:space="preserve" onload="init(evt)">
<style type="text/css"><![CDATA[
.node, .edge {opacity: 0.7;}
.node.selected, .edge.selected {opacity: 1;}
.edge:hover path { stroke: red; }
.edge:hover polygon { stroke: red; fill: red; }
]]></style>

<defs>
  <circle id="rim" cx="0" cy="0" r="7"/>
  <circle id="rim2" cx="0" cy="0" r="3.5"/>
  <g id="zoomPlus">
    <use xlink:href="#rim" fill="#404040"><set attributeName="fill" to="#808080" begin="zoomplus.mouseover" end="zoomplus.mouseout"/></use>
    <path d="M-4,0h8M0,-4v8" fill="none" stroke="white" stroke-width="1.5" pointer-events="none"/>
  </g>
  <g id="zoomMin">
    <use xlink:href="#rim" fill="#404040"><set attributeName="fill" to="#808080" begin="zoomminus.mouseover" end="zoomminus.mouseout"/></use>
    <path d="M-4,0h8" fill="none" stroke="white" stroke-width="1.5" pointer-events="none"/>
  </g>
  <g id="arrowUp" transform="translate(30 24)">
    <use xlink:href="#rim"/>
    <path pointer-events="none" fill="none" stroke="white" stroke-width="1.5" d="M0,-3.0v7 M-2.5,-0.5L0,-3.0L2.5,-0.5"/>
  </g>
  <g id="arrowRight" transform="rotate(90) translate(36 -43)">
    <use xlink:href="#rim"/>
    <path pointer-events="none" fill="none" stroke="white" stroke-width="1.5" d="M0,-3.0v7 M-2.5,-0.5L0,-3.0L2.5,-0.5"/>
  </g>
  <g id="arrowDown" transform="rotate(180) translate(-30 -48)">
    <use xlink:href="#rim"/>
    <path pointer-events="none" fill="none" stroke="white" stroke-width="1.5" d="M0,-3.0v7 M-2.5,-0.5L0,-3.0L2.5,-0.5"/>
  </g>
  <g id="arrowLeft" transform="rotate(270) translate(-36 17)">
    <use xlink:href="#rim"/>
    <path pointer-events="none" fill="none" stroke="white" stroke-width="1.5" d="M0,-3.0v7 M-2.5,-0.5L0,-3.0L2.5,-0.5"/>
  </g>
  <g id="resetDef">
    <use xlink:href="#rim2" fill="#404040"><set attributeName="fill" to="#808080" begin="reset.mouseover" end="reset.mouseout"/></use>
  </g>
</defs>
<script type="application/ecmascript">
var viewWidth = 1325;
var viewHeight = 313;
var sectionId = 'dynsection-9';
</script>
<script type="application/ecmascript" xlink:href="../../svg.min.js"/>
<svg id="graph" class="graph">
<g id="viewport">
<title>AELogParser::nextEntryType</title>
<!-- Node1 -->
<g id="Node000001" class="node">
<title>Node1</title>
<g id="a_Node000001"><a xlink:title="Read the next valid entry in the log file of the given severity, and parse it to the given AELogEntry...">
<polygon fill="#999999" stroke="#666666" points="142.75,-96 0,-96 0,-76 142.75,-76 142.75,-96"/>
<text text-anchor="middle" x="71.38" y="-82.5" font-family="Helvetica,sans-Serif" font-size="10.00">AELogParser::nextEntryType</text>
</a>
</g>
</g>
<!-- Node2 -->
<g id="Node000002" class="node">
<title>Node2</title>
<g id="a_Node000002"><a xlink:href="../../d8/d52/class_a_e_log_parser.html#af3c28f50c5f52840be97e631d67b244c" target="_top" xlink:title="Read the next valid entry in the log file of the given severity and module name filter,...">
<polygon fill="white" stroke="#666666" points="300.5,-96 178.75,-96 178.75,-76 300.5,-76 300.5,-96"/>
<text text-anchor="middle" x="239.62" y="-82.5" font-family="Helvetica,sans-Serif" font-size="10.00">AELogParser::nextEntry</text>
</a>
</g>
</g>
<!-- Node1&#45;&gt;Node2 -->
<g id="edge1_Node000001_Node000002" class="edge">
<title>Node1&#45;&gt;Node2</title>
<g id="a_edge1_Node000001_Node000002"><a xlink:title=" ">
<path fill="none" stroke="#63b8ff" d="M142.88,-86C150.79,-86 158.85,-86 166.78,-86"/>
<polygon fill="#63b8ff" stroke="#63b8ff" points="166.74,-89.5 176.74,-86 166.74,-82.5 166.74,-89.5"/>
</a>
</g>
</g>
<!-- Node3 -->
<g id="Node000003" class="node">
<title>Node3</title>
<g id="a_Node000003"><a xlink:href="../../d8/d52/class_a_e_log_parser.html#ae89b754ad98409469e9b7405f63edee2" target="_top" xlink:title="Read the next indexed valid log entry in the file of the given severity and module name filter,...">
<polygon fill="white" stroke="#666666" points="486.75,-210 336.5,-210 336.5,-190 486.75,-190 486.75,-210"/>
<text text-anchor="middle" x="411.62" y="-196.5" font-family="Helvetica,sans-Serif" font-size="10.00">AELogParser::nextEntryCursor</text>
</a>
</g>
</g>
<!-- Node2&#45;&gt;Node3 -->
<g id="edge2_Node000002_Node000003" class="edge">
<title>Node2&#45;&gt;Node3</title>
<g id="a_edge2_Node000002_Node000003"><a xlink:title=" ">
<path fill="none" stroke="#63b8ff" d="M256.01,-96.32C285.6,-116.16 350.63,-159.77 386.2,-183.62"/>
<polygon fill="#63b8ff" stroke="#63b8ff" points="383.88,-186.28 394.14,-188.94 387.78,-180.47 383.88,-186.28"/>
</a>
</g>
</g>
<!-- Node14 -->
<g id="Node000014" class="node">
<title>Node14</title>
<g id="a_Node000014"><a xlink:href="../../da/dea/struct_a_e_log_entry.html#a7e8aa04faf251d62a79baab9e2cc531a" target="_top" xlink:title="Parses a given string as a log entry, and write it into passed entry object.">
<polygon fill="white" stroke="#666666" points="485.25,-124 338,-124 338,-104 485.25,-104 485.25,-124"/>
<text text-anchor="middle" x="411.62" y="-110.5" font-family="Helvetica,sans-Serif" font-size="10.00">AELogEntry::parseStringEntry</text>
</a>
</g>
</g>
<!-- Node2&#45;&gt;Node14 -->
<g id="edge15_Node000002_Node000014" class="edge">
<title>Node2&#45;&gt;Node14</title>
<g id="a_edge15_Node000002_Node000014"><a xlink:title=" ">
<path fill="none" stroke="#63b8ff" d="M300.56,-95.87C311.93,-97.75 323.96,-99.73 335.73,-101.66"/>
<polygon fill="#63b8ff" stroke="#63b8ff" points="334.98,-105.09 345.41,-103.26 336.12,-98.18 334.98,-105.09"/>
</a>
</g>
</g>
<!-- Node19 -->
<g id="Node000019" class="node">
<title>Node19</title>
<g id="a_Node000019"><a xlink:href="../../dd/dd5/class_a_e_file_reader.html#a391b5815b099e3d347a4d758a92e3295" target="_top" xlink:title="Reads the characters to a std::string untill a newline (included), or untill the maximum character am...">
<polygon fill="white" stroke="#666666" points="480.75,-68 342.5,-68 342.5,-48 480.75,-48 480.75,-68"/>
<text text-anchor="middle" x="411.62" y="-54.5" font-family="Helvetica,sans-Serif" font-size="10.00">AEFileReader::readStringNL</text>
</a>
</g>
</g>
<!-- Node2&#45;&gt;Node19 -->
<g id="edge20_Node000002_Node000019" class="edge">
<title>Node2&#45;&gt;Node19</title>
<g id="a_edge20_Node000002_Node000019"><a xlink:title=" ">
<path fill="none" stroke="#63b8ff" d="M300.56,-76.13C311.93,-74.25 323.96,-72.27 335.73,-70.34"/>
<polygon fill="#63b8ff" stroke="#63b8ff" points="336.12,-73.82 345.41,-68.74 334.98,-66.91 336.12,-73.82"/>
</a>
</g>
</g>
<!-- Node20 -->
<g id="Node000020" class="node">
<title>Node20</title>
<g id="a_Node000020"><a xlink:href="../../dd/dd5/class_a_e_file_reader.html#a477effa6d568ec7993c4d506d0d0420c" target="_top" xlink:title="Sets read cursor position to pos from origin.">
<polygon fill="white" stroke="#666666" points="482.25,-25 341,-25 341,-5 482.25,-5 482.25,-25"/>
<text text-anchor="middle" x="411.62" y="-11.5" font-family="Helvetica,sans-Serif" font-size="10.00">AEFileReader::setCursorPos</text>
</a>
</g>
</g>
<!-- Node2&#45;&gt;Node20 -->
<g id="edge22_Node000002_Node000020" class="edge">
<title>Node2&#45;&gt;Node20</title>
<g id="a_edge22_Node000002_Node000020"><a xlink:title=" ">
<path fill="none" stroke="#63b8ff" d="M259.72,-75.63C278.81,-65.51 309.18,-50.05 336.5,-39 345.24,-35.47 354.71,-32.08 363.87,-29.02"/>
<polygon fill="#63b8ff" stroke="#63b8ff" points="364.95,-32.35 373.37,-25.93 362.78,-25.69 364.95,-32.35"/>
</a>
</g>
</g>
<!-- Node4 -->
<g id="Node000004" class="node">
<title>Node4</title>
<g id="a_Node000004"><a xlink:href="../../d8/d52/class_a_e_log_parser.html#a77b12a5ddd2933a8319e523986788292" target="_top" xlink:title="Determines the error codes from the invalid values in the passed AELogEntryInfo instance.">
<polygon fill="white" stroke="#666666" points="672.25,-248 522.75,-248 522.75,-228 672.25,-228 672.25,-248"/>
<text text-anchor="middle" x="597.5" y="-234.5" font-family="Helvetica,sans-Serif" font-size="10.00">AELogParser::errorFromAELEI</text>
</a>
</g>
</g>
<!-- Node3&#45;&gt;Node4 -->
<g id="edge3_Node000003_Node000004" class="edge">
<title>Node3&#45;&gt;Node4</title>
<g id="a_edge3_Node000003_Node000004"><a xlink:title=" ">
<path fill="none" stroke="#63b8ff" d="M463.36,-210.48C485.46,-215.05 511.58,-220.45 534.8,-225.25"/>
<polygon fill="#63b8ff" stroke="#63b8ff" points="533.95,-228.65 544.45,-227.24 535.37,-221.79 533.95,-228.65"/>
</a>
</g>
</g>
<!-- Node5 -->
<g id="Node000005" class="node">
<title>Node5</title>
<g id="a_Node000005"><a xlink:href="../../d8/d52/class_a_e_log_parser.html#afcff7caee18bdcafa1dc0edb75a75590" target="_top" xlink:title="Finds the AELogEntryInfo corresponding to the next log entry with the specified severity and module n...">
<polygon fill="white" stroke="#666666" points="666.62,-210 528.38,-210 528.38,-190 666.62,-190 666.62,-210"/>
<text text-anchor="middle" x="597.5" y="-196.5" font-family="Helvetica,sans-Serif" font-size="10.00">AELogParser::findNextEntry</text>
</a>
</g>
</g>
<!-- Node3&#45;&gt;Node5 -->
<g id="edge4_Node000003_Node000005" class="edge">
<title>Node3&#45;&gt;Node5</title>
<g id="a_edge4_Node000003_Node000005"><a xlink:title=" ">
<path fill="none" stroke="#63b8ff" d="M487.15,-200C496.88,-200 506.88,-200 516.69,-200"/>
<polygon fill="#63b8ff" stroke="#63b8ff" points="516.59,-203.5 526.59,-200 516.59,-196.5 516.59,-203.5"/>
</a>
</g>
</g>
<!-- Node6 -->
<g id="Node000006" class="node">
<title>Node6</title>
<g id="a_Node000006"><a xlink:href="../../d8/d52/class_a_e_log_parser.html#a8e16a086fe0cb5cc6828b53b0a97a1bf" target="_top" xlink:title="Checks if the passed entry&#39;s and filter&#39;s module name indices match Moved from a lambda,...">
<polygon fill="white" stroke="#666666" points="853.62,-305 713.88,-305 713.88,-285 853.62,-285 853.62,-305"/>
<text text-anchor="middle" x="783.75" y="-291.5" font-family="Helvetica,sans-Serif" font-size="10.00">AELogParser::checkMName</text>
</a>
</g>
</g>
<!-- Node5&#45;&gt;Node6 -->
<g id="edge5_Node000005_Node000006" class="edge">
<title>Node5&#45;&gt;Node6</title>
<g id="a_edge5_Node000005_Node000006"><a xlink:title=" ">
<path fill="none" stroke="#63b8ff" d="M656.79,-210.46C662.28,-212.76 667.55,-215.57 672.25,-219 696.46,-236.65 684.01,-258.38 708.25,-276 710.03,-277.3 711.89,-278.5 713.82,-279.63"/>
<polygon fill="#63b8ff" stroke="#63b8ff" points="712,-282.63 722.51,-283.93 715.1,-276.36 712,-282.63"/>
</a>
</g>
</g>
<!-- Node7 -->
<g id="Node000007" class="node">
<title>Node7</title>
<g id="a_Node000007"><a xlink:href="../../d8/d52/class_a_e_log_parser.html#a21f7748ae4be67f2221a114cbe9bca7c" target="_top" xlink:title="Checks if the passed severity is valid compared to the filtering severity.">
<polygon fill="white" stroke="#666666" points="854,-267 713.5,-267 713.5,-247 854,-247 854,-267"/>
<text text-anchor="middle" x="783.75" y="-253.5" font-family="Helvetica,sans-Serif" font-size="10.00">AELogParser::checkSeverity</text>
</a>
</g>
</g>
<!-- Node5&#45;&gt;Node7 -->
<g id="edge6_Node000005_Node000007" class="edge">
<title>Node5&#45;&gt;Node7</title>
<g id="a_edge6_Node000005_Node000007"><a xlink:title=" ">
<path fill="none" stroke="#63b8ff" d="M642.42,-210.4C652.3,-212.99 662.69,-215.92 672.25,-219 688.59,-224.26 692.07,-227.25 708.25,-233 717.83,-236.4 728.18,-239.87 738.02,-243.07"/>
<polygon fill="#63b8ff" stroke="#63b8ff" points="736.83,-246.36 747.42,-246.09 738.97,-239.69 736.83,-246.36"/>
</a>
</g>
</g>
<!-- Node8 -->
<g id="Node000008" class="node">
<title>Node8</title>
<g id="a_Node000008"><a xlink:href="../../d8/d52/class_a_e_log_parser.html#a04627d27deedd7981a5e106dd8ade5ed" target="_top" xlink:title="Checks if the current log file contains the given severity (or higher, depending on the &quot;strict&#45;sever...">
<polygon fill="white" stroke="#666666" points="859.25,-191 708.25,-191 708.25,-171 859.25,-171 859.25,-191"/>
<text text-anchor="middle" x="783.75" y="-177.5" font-family="Helvetica,sans-Serif" font-size="10.00">AELogParser::containsSeverity</text>
</a>
</g>
</g>
<!-- Node5&#45;&gt;Node8 -->
<g id="edge7_Node000005_Node000008" class="edge">
<title>Node5&#45;&gt;Node8</title>
<g id="a_edge7_Node000005_Node000008"><a xlink:title=" ">
<path fill="none" stroke="#63b8ff" d="M667.11,-192.93C676.77,-191.93 686.81,-190.89 696.74,-189.87"/>
<polygon fill="#63b8ff" stroke="#63b8ff" points="696.81,-193.38 706.39,-188.87 696.09,-186.42 696.81,-193.38"/>
</a>
</g>
</g>
<!-- Node9 -->
<g id="Node000009" class="node">
<title>Node9</title>
<g id="a_Node000009"><a xlink:href="../../d8/d52/class_a_e_log_parser.html#af349b880be4cdd8c6d27960a038680ab" target="_top" xlink:title="Checks if the file is closed by the AELogParser.">
<polygon fill="white" stroke="#666666" points="1012.5,-210 895.25,-210 895.25,-190 1012.5,-190 1012.5,-210"/>
<text text-anchor="middle" x="953.88" y="-196.5" font-family="Helvetica,sans-Serif" font-size="10.00">AELogParser::isClosed</text>
</a>
</g>
</g>
<!-- Node5&#45;&gt;Node9 -->
<g id="edge13_Node000005_Node000009" class="edge">
<title>Node5&#45;&gt;Node9</title>
<g id="a_edge13_Node000005_Node000009"><a xlink:title=" ">
<path fill="none" stroke="#63b8ff" d="M666.83,-200C729.22,-200 821,-200 883.67,-200"/>
<polygon fill="#63b8ff" stroke="#63b8ff" points="883.5,-203.5 893.5,-200 883.5,-196.5 883.5,-203.5"/>
</a>
</g>
</g>
<!-- Node12 -->
<g id="Node000012" class="node">
<title>Node12</title>
<g id="a_Node000012"><a xlink:href="../../de/dde/namespaceace_1_1utils.html#a878c53ede8589dbc6a50734c9c4ad4d7" target="_top" xlink:title="Checks if the value is within some range.">
<polygon fill="white" stroke="#666666" points="1006.12,-172 901.62,-172 901.62,-152 1006.12,-152 1006.12,-172"/>
<text text-anchor="middle" x="953.88" y="-158.5" font-family="Helvetica,sans-Serif" font-size="10.00">ace::utils::isInRange</text>
</a>
</g>
</g>
<!-- Node5&#45;&gt;Node12 -->
<g id="edge14_Node000005_Node000012" class="edge">
<title>Node5&#45;&gt;Node12</title>
<g id="a_edge14_Node000005_Node000012"><a xlink:title=" ">
<path fill="none" stroke="#63b8ff" d="M645.84,-189.55C654.73,-187.1 663.86,-184.24 672.25,-181 689.12,-174.48 690.69,-166.35 708.25,-162 768.68,-147.03 840.11,-149.21 890.13,-153.8"/>
<polygon fill="#63b8ff" stroke="#63b8ff" points="889.61,-157.26 899.9,-154.76 890.3,-150.3 889.61,-157.26"/>
</a>
</g>
</g>
<!-- Node13 -->
<g id="Node000013" class="node">
<title>Node13</title>
<g id="a_Node000013"><a xlink:href="../../db/d7b/struct_a_e_log_entry_info.html#af5f2718c2846e38977e660dd8fb59333" target="_top" xlink:title="Returns the invalid instance of the AELogEntryInfo.">
<polygon fill="white" stroke="#666666" points="853.25,-115 714.25,-115 714.25,-95 853.25,-95 853.25,-115"/>
<text text-anchor="middle" x="783.75" y="-101.5" font-family="Helvetica,sans-Serif" font-size="10.00">AELogEntryInfo::invalidEntry</text>
</a>
</g>
</g>
<!-- Node5&#45;&gt;Node13 -->
<g id="edge12_Node000005_Node000013" class="edge">
<title>Node5&#45;&gt;Node13</title>
<g id="a_edge12_Node000005_Node000013"><a xlink:title=" ">
<path fill="none" stroke="#63b8ff" d="M655.89,-189.64C661.68,-187.32 667.26,-184.48 672.25,-181 695.31,-164.93 685.68,-145.75 708.25,-129 713.09,-125.41 718.49,-122.34 724.12,-119.72"/>
<polygon fill="#63b8ff" stroke="#63b8ff" points="725.09,-123.1 733,-116.05 722.42,-116.63 725.09,-123.1"/>
</a>
</g>
</g>
<!-- Node8&#45;&gt;Node9 -->
<g id="edge8_Node000008_Node000009" class="edge">
<title>Node8&#45;&gt;Node9</title>
<g id="a_edge8_Node000008_Node000009"><a xlink:title=" ">
<path fill="none" stroke="#63b8ff" d="M859.47,-189.44C867.43,-190.34 875.49,-191.26 883.38,-192.15"/>
<polygon fill="#63b8ff" stroke="#63b8ff" points="882.95,-195.62 893.28,-193.27 883.74,-188.66 882.95,-195.62"/>
</a>
</g>
</g>
<!-- Node8&#45;&gt;Node12 -->
<g id="edge11_Node000008_Node000012" class="edge">
<title>Node8&#45;&gt;Node12</title>
<g id="a_edge11_Node000008_Node000012"><a xlink:title=" ">
<path fill="none" stroke="#63b8ff" d="M859.47,-172.56C869.79,-171.39 880.31,-170.2 890.38,-169.06"/>
<polygon fill="#63b8ff" stroke="#63b8ff" points="890.48,-172.57 900.02,-167.97 889.69,-165.62 890.48,-172.57"/>
</a>
</g>
</g>
<!-- Node10 -->
<g id="Node000010" class="node">
<title>Node10</title>
<g id="a_Node000010"><a xlink:href="../../dd/dd5/class_a_e_file_reader.html#a81bb672d7d1a142c7473d880a3842073" target="_top" xlink:title="Checks if a file isn&#39;t open by this file&#45;reader.">
<polygon fill="white" stroke="#666666" points="1168,-210 1048.5,-210 1048.5,-190 1168,-190 1168,-210"/>
<text text-anchor="middle" x="1108.25" y="-196.5" font-family="Helvetica,sans-Serif" font-size="10.00">AEFileReader::isClosed</text>
</a>
</g>
</g>
<!-- Node9&#45;&gt;Node10 -->
<g id="edge9_Node000009_Node000010" class="edge">
<title>Node9&#45;&gt;Node10</title>
<g id="a_edge9_Node000009_Node000010"><a xlink:title=" ">
<path fill="none" stroke="#63b8ff" d="M1012.92,-200C1020.75,-200 1028.85,-200 1036.87,-200"/>
<polygon fill="#63b8ff" stroke="#63b8ff" points="1036.59,-203.5 1046.59,-200 1036.59,-196.5 1036.59,-203.5"/>
</a>
</g>
</g>
<!-- Node11 -->
<g id="Node000011" class="node">
<title>Node11</title>
<g id="a_Node000011"><a xlink:href="../../dd/dd5/class_a_e_file_reader.html#a07f32763fbb1df143c8aab2be7b856c1" target="_top" xlink:title="Checks if a file is open by this file&#45;reader.">
<polygon fill="white" stroke="#666666" points="1316.75,-210 1204,-210 1204,-190 1316.75,-190 1316.75,-210"/>
<text text-anchor="middle" x="1260.38" y="-196.5" font-family="Helvetica,sans-Serif" font-size="10.00">AEFileReader::isOpen</text>
</a>
</g>
</g>
<!-- Node10&#45;&gt;Node11 -->
<g id="edge10_Node000010_Node000011" class="edge">
<title>Node10&#45;&gt;Node11</title>
<g id="a_edge10_Node000010_Node000011"><a xlink:title=" ">
<path fill="none" stroke="#63b8ff" d="M1168.15,-200C1176.08,-200 1184.26,-200 1192.32,-200"/>
<polygon fill="#63b8ff" stroke="#63b8ff" points="1192.07,-203.5 1202.07,-200 1192.07,-196.5 1192.07,-203.5"/>
</a>
</g>
</g>
<!-- Node15 -->
<g id="Node000015" class="node">
<title>Node15</title>
<g id="a_Node000015"><a xlink:href="../../da/dea/struct_a_e_log_entry.html#a58aeadbca0c2c0863b534a52d40d22a8" target="_top" xlink:title="Clears the current entry and sets its values to zero/invalid.">
<polygon fill="white" stroke="#666666" points="656.88,-172 538.12,-172 538.12,-152 656.88,-152 656.88,-172"/>
<text text-anchor="middle" x="597.5" y="-158.5" font-family="Helvetica,sans-Serif" font-size="10.00">AELogEntry::clearEntry</text>
</a>
</g>
</g>
<!-- Node14&#45;&gt;Node15 -->
<g id="edge16_Node000014_Node000015" class="edge">
<title>Node14&#45;&gt;Node15</title>
<g id="a_edge16_Node000014_Node000015"><a xlink:title=" ">
<path fill="none" stroke="#63b8ff" d="M452.11,-124.45C473.09,-129.99 499.31,-136.9 522.75,-143 529.89,-144.86 537.42,-146.81 544.83,-148.72"/>
<polygon fill="#63b8ff" stroke="#63b8ff" points="543.89,-152.1 554.45,-151.21 545.64,-145.32 543.89,-152.1"/>
</a>
</g>
</g>
<!-- Node16 -->
<g id="Node000016" class="node">
<title>Node16</title>
<g id="a_Node000016"><a xlink:href="../../de/dde/namespaceace_1_1utils.html#ac3eadc5f289b54059322023f3c5eed96" target="_top" xlink:title="Checks if the passed string is alpha&#45;numeric with underscores (contains only numbers,...">
<polygon fill="white" stroke="#666666" points="652.75,-134 542.25,-134 542.25,-114 652.75,-114 652.75,-134"/>
<text text-anchor="middle" x="597.5" y="-120.5" font-family="Helvetica,sans-Serif" font-size="10.00">ace::utils::isAlNumUs</text>
</a>
</g>
</g>
<!-- Node14&#45;&gt;Node16 -->
<g id="edge17_Node000014_Node000016" class="edge">
<title>Node14&#45;&gt;Node16</title>
<g id="a_edge17_Node000014_Node000016"><a xlink:title=" ">
<path fill="none" stroke="#63b8ff" d="M485.56,-117.97C500.36,-118.77 515.84,-119.61 530.38,-120.4"/>
<polygon fill="#63b8ff" stroke="#63b8ff" points="530.13,-123.9 540.3,-120.94 530.51,-116.91 530.13,-123.9"/>
</a>
</g>
</g>
<!-- Node17 -->
<g id="Node000017" class="node">
<title>Node17</title>
<g id="a_Node000017"><a xlink:href="../../de/dde/namespaceace_1_1utils.html#a2c0379815bc24cc369071e0b48787e9b" target="_top" xlink:title="Converts the given c&#45;string to a (c)time point (std::time_t), using a set format.">
<polygon fill="white" stroke="#666666" points="655.75,-96 539.25,-96 539.25,-76 655.75,-76 655.75,-96"/>
<text text-anchor="middle" x="597.5" y="-82.5" font-family="Helvetica,sans-Serif" font-size="10.00">ace::utils::stringToDate</text>
</a>
</g>
</g>
<!-- Node14&#45;&gt;Node17 -->
<g id="edge18_Node000014_Node000017" class="edge">
<title>Node14&#45;&gt;Node17</title>
<g id="a_edge18_Node000014_Node000017"><a xlink:title=" ">
<path fill="none" stroke="#63b8ff" d="M481.35,-103.53C496.47,-101.23 512.49,-98.79 527.61,-96.49"/>
<polygon fill="#63b8ff" stroke="#63b8ff" points="528.12,-99.95 537.48,-94.99 527.07,-93.03 528.12,-99.95"/>
</a>
</g>
</g>
<!-- Node18 -->
<g id="Node000018" class="node">
<title>Node18</title>
<g id="a_Node000018"><a xlink:href="../../da/dea/struct_a_e_log_entry.html#acacb2f1cbf3218922db05169ef55d8cb" target="_top" xlink:title="Deduces the string representation of a type (as appears in the log file) to a corresponding type numb...">
<polygon fill="white" stroke="#666666" points="662.5,-58 532.5,-58 532.5,-38 662.5,-38 662.5,-58"/>
<text text-anchor="middle" x="597.5" y="-44.5" font-family="Helvetica,sans-Serif" font-size="10.00">AELogEntry::stringToType</text>
</a>
</g>
</g>
<!-- Node14&#45;&gt;Node18 -->
<g id="edge19_Node000014_Node000018" class="edge">
<title>Node14&#45;&gt;Node18</title>
<g id="a_edge19_Node000014_Node000018"><a xlink:title=" ">
<path fill="none" stroke="#63b8ff" d="M464.64,-103.57C472.24,-101.22 479.83,-98.39 486.75,-95 504.95,-86.07 504.56,-75.94 522.75,-67 526.41,-65.2 530.25,-63.56 534.19,-62.07"/>
<polygon fill="#63b8ff" stroke="#63b8ff" points="534.99,-65.5 543.31,-58.94 532.72,-58.87 534.99,-65.5"/>
</a>
</g>
</g>
<!-- Node19&#45;&gt;Node19 -->
<g id="edge21_Node000019_Node000019" class="edge">
<title>Node19&#45;&gt;Node19</title>
<g id="a_edge21_Node000019_Node000019"><a xlink:title=" ">
<path fill="none" stroke="#63b8ff" d="M384.3,-68.34C372.62,-76.98 381.73,-86 411.62,-86 428.44,-86 438.68,-83.14 442.35,-79.11"/>
<polygon fill="#63b8ff" stroke="#63b8ff" points="445.75,-78.27 439.41,-69.78 439.07,-80.37 445.75,-78.27"/>
</a>
</g>
</g>
<!-- Node21 -->
<g id="Node000021" class="node">
<title>Node21</title>
<g id="a_Node000021"><a xlink:href="../../dd/dd5/class_a_e_file_reader.html#abbc85b7bb94f31f54df561d23a38e3dc" target="_top" xlink:title="Reads the bytes (size of T) from the file and dumps/reinterprets them as the value in the passed vari...">
<polygon fill="white" stroke="#666666" points="665.5,-20 529.5,-20 529.5,0 665.5,0 665.5,-20"/>
<text text-anchor="middle" x="597.5" y="-6.5" font-family="Helvetica,sans-Serif" font-size="10.00">AEFileReader::readVariable</text>
</a>
</g>
</g>
<!-- Node20&#45;&gt;Node21 -->
<g id="edge23_Node000020_Node000021" class="edge">
<title>Node20&#45;&gt;Node21</title>
<g id="a_edge23_Node000020_Node000021"><a xlink:title=" ">
<path fill="none" stroke="#63b8ff" d="M482.66,-13.1C494.08,-12.78 505.98,-12.46 517.59,-12.15"/>
<polygon fill="#63b8ff" stroke="#63b8ff" points="517.67,-15.65 527.57,-11.87 517.48,-8.65 517.67,-15.65"/>
</a>
</g>
</g>
<!-- Node22 -->
<g id="Node000022" class="node">
<title>Node22</title>
<g id="a_Node000022"><a xlink:href="../../dd/dd5/class_a_e_file_reader.html#a67d3baebff92aaa0b41216cb67a91e4c" target="_top" xlink:title="Reads an array of dcount elements, each one with a size of dsize bytes, to memory block pointed by cd...">
<polygon fill="white" stroke="#666666" points="852.5,-20 715,-20 715,0 852.5,0 852.5,-20"/>
<text text-anchor="middle" x="783.75" y="-6.5" font-family="Helvetica,sans-Serif" font-size="10.00">AEFileReader::readData_ptr</text>
</a>
</g>
</g>
<!-- Node21&#45;&gt;Node22 -->
<g id="edge24_Node000021_Node000022" class="edge">
<title>Node21&#45;&gt;Node22</title>
<g id="a_edge24_Node000021_Node000022"><a xlink:title=" ">
<path fill="none" stroke="#63b8ff" d="M665.8,-10C678,-10 690.83,-10 703.34,-10"/>
<polygon fill="#63b8ff" stroke="#63b8ff" points="703.19,-13.5 713.19,-10 703.19,-6.5 703.19,-13.5"/>
</a>
</g>
</g>
</g>
</svg>

<g id="navigator" transform="translate(0 0)" fill="#404254">
  <rect fill="#f2f5e9" fill-opacity="0.5" stroke="#606060" stroke-width=".5" x="0" y="0" width="60" height="60"/>
  <use id="zoomplus" xlink:href="#zoomPlus" x="17" y="9" onmousedown="handleZoom(evt,'in')"/>
  <use id="zoomminus" xlink:href="#zoomMin" x="42" y="9" onmousedown="handleZoom(evt,'out')"/>
  <use id="reset" xlink:href="#resetDef" x="30" y="36" onmousedown="handleReset()"/>
   <use id="arrowup" xlink:href="#arrowUp" x="0" y="0" onmousedown="handlePan(0,-1)"/>
  <use id="arrowright" xlink:href="#arrowRight" x="0" y="0" onmousedown="handlePan(1,0)"/>
  <use id="arrowdown" xlink:href="#arrowDown" x="0" y="0" onmousedown="handlePan(0,1)"/>
  <use id="arrowleft" xlink:href="#arrowLeft" x="0" y="0" onmousedown="handlePan(-1,0)"/>
</g>
<svg viewBox="0 0 15 15" width="100%" height="30px" preserveAspectRatio="xMaxYMin meet">
 <g id="arrow_out" transform="scale(0.3 0.3)">
  <a xlink:href="class_a_e_log_parser_a0e03f67c2a0eaa0317904a2bd9f70cc0_cgraph_org.svg" target="_base">
   <rect id="button" ry="5" rx="5" y="6" x="6" height="38" width="38"
        fill="#f2f5e9" fill-opacity="0.5" stroke="#606060" stroke-width="1.0"/>
   <path id="arrow"
     d="M 11.500037,31.436501 C 11.940474,20.09759 22.043105,11.32322 32.158766,21.979434 L 37.068811,17.246167 C 37.068811,17.246167 37.088388,32 37.088388,32 L 22.160133,31.978069 C 22.160133,31.978069 26.997745,27.140456 26.997745,27.140456 C 18.528582,18.264221 13.291696,25.230495 11.500037,31.436501 z"
     style="fill:#404040;"/>
  </a>
 </g>
</svg>

<style type='text/css'>
<![CDATA[
[data-mouse-over-selected='false'] { opacity: 0.7; }
[data-mouse-over-selected='true']  { opacity: 1.0; }
]]>
</style>
<script type="application/ecmascript"><![CDATA[
document.addEventListener('DOMContentLoaded', (event) => {
  highlightEdges();
  highlightAdjacentNodes();
});
]]></script>
</svg>
