<?xml version="1.0" encoding="UTF-8" standalone="no"?>
<!DOCTYPE svg PUBLIC "-//W3C//DTD SVG 1.1//EN"
 "http://www.w3.org/Graphics/SVG/1.1/DTD/svg11.dtd">
<!-- Generated by graphviz version 10.0.1 (20240210.2158)
 -->
<!-- Title: AELogParser::nextEntryCursor Pages: 1 -->
<svg width="988pt" height="218pt"
 viewBox="0.00 0.00 988.25 218.00" xmlns="http://www.w3.org/2000/svg" xmlns:xlink="http://www.w3.org/1999/xlink">
<g id="graph0" class="graph" transform="scale(1 1) rotate(0) translate(4 214)">
<title>AELogParser::nextEntryCursor</title>
<!-- Node1 -->
<g id="Node000001" class="node">
<title>Node1</title>
<g id="a_Node000001"><a xlink:title="Read the next indexed valid log entry in the file of the given severity and module name filter,...">
<polygon fill="#999999" stroke="#666666" points="150.25,-134 0,-134 0,-114 150.25,-114 150.25,-134"/>
<text text-anchor="middle" x="75.12" y="-120.5" font-family="Helvetica,sans-Serif" font-size="10.00">AELogParser::nextEntryCursor</text>
</a>
</g>
</g>
<!-- Node2 -->
<g id="Node000002" class="node">
<title>Node2</title>
<g id="a_Node000002"><a xlink:href="../../d8/d52/class_a_e_log_parser.html#a77b12a5ddd2933a8319e523986788292" target="_top" xlink:title="Determines the error codes from the invalid values in the passed AELogEntryInfo instance.">
<polygon fill="white" stroke="#666666" points="335.75,-153 186.25,-153 186.25,-133 335.75,-133 335.75,-153"/>
<text text-anchor="middle" x="261" y="-139.5" font-family="Helvetica,sans-Serif" font-size="10.00">AELogParser::errorFromAELEI</text>
</a>
</g>
</g>
<!-- Node1&#45;&gt;Node2 -->
<g id="edge1_Node000001_Node000002" class="edge">
<title>Node1&#45;&gt;Node2</title>
<g id="a_edge1_Node000001_Node000002"><a xlink:title=" ">
<path fill="none" stroke="#63b8ff" d="M150.65,-131.7C158.57,-132.52 166.66,-133.36 174.69,-134.18"/>
<polygon fill="#63b8ff" stroke="#63b8ff" points="174.15,-137.65 184.46,-135.19 174.87,-130.69 174.15,-137.65"/>
</a>
</g>
</g>
<!-- Node3 -->
<g id="Node000003" class="node">
<title>Node3</title>
<g id="a_Node000003"><a xlink:href="../../d8/d52/class_a_e_log_parser.html#afcff7caee18bdcafa1dc0edb75a75590" target="_top" xlink:title="Finds the AELogEntryInfo corresponding to the next log entry with the specified severity and module n...">
<polygon fill="white" stroke="#666666" points="330.12,-115 191.88,-115 191.88,-95 330.12,-95 330.12,-115"/>
<text text-anchor="middle" x="261" y="-101.5" font-family="Helvetica,sans-Serif" font-size="10.00">AELogParser::findNextEntry</text>
</a>
</g>
</g>
<!-- Node1&#45;&gt;Node3 -->
<g id="edge2_Node000001_Node000003" class="edge">
<title>Node1&#45;&gt;Node3</title>
<g id="a_edge2_Node000001_Node000003"><a xlink:title=" ">
<path fill="none" stroke="#63b8ff" d="M150.65,-116.3C160.38,-115.29 170.38,-114.26 180.19,-113.25"/>
<polygon fill="#63b8ff" stroke="#63b8ff" points="180.51,-116.73 190.1,-112.22 179.79,-109.77 180.51,-116.73"/>
</a>
</g>
</g>
<!-- Node4 -->
<g id="Node000004" class="node">
<title>Node4</title>
<g id="a_Node000004"><a xlink:href="../../d8/d52/class_a_e_log_parser.html#a8e16a086fe0cb5cc6828b53b0a97a1bf" target="_top" xlink:title="Checks if the passed entry&#39;s and filter&#39;s module name indices match Moved from a lambda,...">
<polygon fill="white" stroke="#666666" points="517.12,-210 377.38,-210 377.38,-190 517.12,-190 517.12,-210"/>
<text text-anchor="middle" x="447.25" y="-196.5" font-family="Helvetica,sans-Serif" font-size="10.00">AELogParser::checkMName</text>
</a>
</g>
</g>
<!-- Node3&#45;&gt;Node4 -->
<g id="edge3_Node000003_Node000004" class="edge">
<title>Node3&#45;&gt;Node4</title>
<g id="a_edge3_Node000003_Node000004"><a xlink:title=" ">
<path fill="none" stroke="#63b8ff" d="M320.29,-115.46C325.78,-117.76 331.05,-120.57 335.75,-124 359.96,-141.65 347.51,-163.38 371.75,-181 373.53,-182.3 375.39,-183.5 377.32,-184.63"/>
<polygon fill="#63b8ff" stroke="#63b8ff" points="375.5,-187.63 386.01,-188.93 378.6,-181.36 375.5,-187.63"/>
</a>
</g>
</g>
<!-- Node5 -->
<g id="Node000005" class="node">
<title>Node5</title>
<g id="a_Node000005"><a xlink:href="../../d8/d52/class_a_e_log_parser.html#a21f7748ae4be67f2221a114cbe9bca7c" target="_top" xlink:title="Checks if the passed severity is valid compared to the filtering severity.">
<polygon fill="white" stroke="#666666" points="517.5,-172 377,-172 377,-152 517.5,-152 517.5,-172"/>
<text text-anchor="middle" x="447.25" y="-158.5" font-family="Helvetica,sans-Serif" font-size="10.00">AELogParser::checkSeverity</text>
</a>
</g>
</g>
<!-- Node3&#45;&gt;Node5 -->
<g id="edge4_Node000003_Node000005" class="edge">
<title>Node3&#45;&gt;Node5</title>
<g id="a_edge4_Node000003_Node000005"><a xlink:title=" ">
<path fill="none" stroke="#63b8ff" d="M305.92,-115.4C315.8,-117.99 326.19,-120.92 335.75,-124 352.09,-129.26 355.57,-132.25 371.75,-138 381.33,-141.4 391.68,-144.87 401.52,-148.07"/>
<polygon fill="#63b8ff" stroke="#63b8ff" points="400.33,-151.36 410.92,-151.09 402.47,-144.69 400.33,-151.36"/>
</a>
</g>
</g>
<!-- Node6 -->
<g id="Node000006" class="node">
<title>Node6</title>
<g id="a_Node000006"><a xlink:href="../../d8/d52/class_a_e_log_parser.html#a04627d27deedd7981a5e106dd8ade5ed" target="_top" xlink:title="Checks if the current log file contains the given severity (or higher, depending on the &quot;strict&#45;sever...">
<polygon fill="white" stroke="#666666" points="522.75,-96 371.75,-96 371.75,-76 522.75,-76 522.75,-96"/>
<text text-anchor="middle" x="447.25" y="-82.5" font-family="Helvetica,sans-Serif" font-size="10.00">AELogParser::containsSeverity</text>
</a>
</g>
</g>
<!-- Node3&#45;&gt;Node6 -->
<g id="edge5_Node000003_Node000006" class="edge">
<title>Node3&#45;&gt;Node6</title>
<g id="a_edge5_Node000003_Node000006"><a xlink:title=" ">
<path fill="none" stroke="#63b8ff" d="M330.61,-97.93C340.27,-96.93 350.31,-95.89 360.24,-94.87"/>
<polygon fill="#63b8ff" stroke="#63b8ff" points="360.31,-98.38 369.89,-93.87 359.59,-91.42 360.31,-98.38"/>
</a>
</g>
</g>
<!-- Node7 -->
<g id="Node000007" class="node">
<title>Node7</title>
<g id="a_Node000007"><a xlink:href="../../d8/d52/class_a_e_log_parser.html#af349b880be4cdd8c6d27960a038680ab" target="_top" xlink:title="Checks if the file is closed by the AELogParser.">
<polygon fill="white" stroke="#666666" points="676,-115 558.75,-115 558.75,-95 676,-95 676,-115"/>
<text text-anchor="middle" x="617.38" y="-101.5" font-family="Helvetica,sans-Serif" font-size="10.00">AELogParser::isClosed</text>
</a>
</g>
</g>
<!-- Node3&#45;&gt;Node7 -->
<g id="edge11_Node000003_Node000007" class="edge">
<title>Node3&#45;&gt;Node7</title>
<g id="a_edge11_Node000003_Node000007"><a xlink:title=" ">
<path fill="none" stroke="#63b8ff" d="M330.33,-105C392.72,-105 484.5,-105 547.17,-105"/>
<polygon fill="#63b8ff" stroke="#63b8ff" points="547,-108.5 557,-105 547,-101.5 547,-108.5"/>
</a>
</g>
</g>
<!-- Node10 -->
<g id="Node000010" class="node">
<title>Node10</title>
<g id="a_Node000010"><a xlink:href="../../de/dde/namespaceace_1_1utils.html#a878c53ede8589dbc6a50734c9c4ad4d7" target="_top" xlink:title="Checks if the value is within some range.">
<polygon fill="white" stroke="#666666" points="669.62,-77 565.12,-77 565.12,-57 669.62,-57 669.62,-77"/>
<text text-anchor="middle" x="617.38" y="-63.5" font-family="Helvetica,sans-Serif" font-size="10.00">ace::utils::isInRange</text>
</a>
</g>
</g>
<!-- Node3&#45;&gt;Node10 -->
<g id="edge12_Node000003_Node000010" class="edge">
<title>Node3&#45;&gt;Node10</title>
<g id="a_edge12_Node000003_Node000010"><a xlink:title=" ">
<path fill="none" stroke="#63b8ff" d="M284.96,-94.52C306.76,-85.19 340.73,-72.22 371.75,-67 432.95,-56.71 503.98,-58.16 553.68,-61.31"/>
<polygon fill="#63b8ff" stroke="#63b8ff" points="553.17,-64.78 563.38,-61.97 553.64,-57.8 553.17,-64.78"/>
</a>
</g>
</g>
<!-- Node11 -->
<g id="Node000011" class="node">
<title>Node11</title>
<g id="a_Node000011"><a xlink:href="../../db/d7b/struct_a_e_log_entry_info.html#af5f2718c2846e38977e660dd8fb59333" target="_top" xlink:title="Returns the invalid instance of the AELogEntryInfo.">
<polygon fill="white" stroke="#666666" points="516.75,-20 377.75,-20 377.75,0 516.75,0 516.75,-20"/>
<text text-anchor="middle" x="447.25" y="-6.5" font-family="Helvetica,sans-Serif" font-size="10.00">AELogEntryInfo::invalidEntry</text>
</a>
</g>
</g>
<!-- Node3&#45;&gt;Node11 -->
<g id="edge10_Node000003_Node000011" class="edge">
<title>Node3&#45;&gt;Node11</title>
<g id="a_edge10_Node000003_Node000011"><a xlink:title=" ">
<path fill="none" stroke="#63b8ff" d="M275.52,-94.57C295.58,-79.5 334.84,-51.51 371.75,-34 379.52,-30.32 388,-26.99 396.36,-24.06"/>
<polygon fill="#63b8ff" stroke="#63b8ff" points="397.4,-27.4 405.79,-20.93 395.19,-20.76 397.4,-27.4"/>
</a>
</g>
</g>
<!-- Node6&#45;&gt;Node7 -->
<g id="edge6_Node000006_Node000007" class="edge">
<title>Node6&#45;&gt;Node7</title>
<g id="a_edge6_Node000006_Node000007"><a xlink:title=" ">
<path fill="none" stroke="#63b8ff" d="M522.97,-94.44C530.93,-95.34 538.99,-96.26 546.88,-97.15"/>
<polygon fill="#63b8ff" stroke="#63b8ff" points="546.45,-100.62 556.78,-98.27 547.24,-93.66 546.45,-100.62"/>
</a>
</g>
</g>
<!-- Node6&#45;&gt;Node10 -->
<g id="edge9_Node000006_Node000010" class="edge">
<title>Node6&#45;&gt;Node10</title>
<g id="a_edge9_Node000006_Node000010"><a xlink:title=" ">
<path fill="none" stroke="#63b8ff" d="M522.97,-77.56C533.29,-76.39 543.81,-75.2 553.88,-74.06"/>
<polygon fill="#63b8ff" stroke="#63b8ff" points="553.98,-77.57 563.52,-72.97 553.19,-70.62 553.98,-77.57"/>
</a>
</g>
</g>
<!-- Node8 -->
<g id="Node000008" class="node">
<title>Node8</title>
<g id="a_Node000008"><a xlink:href="../../dd/dd5/class_a_e_file_reader.html#a81bb672d7d1a142c7473d880a3842073" target="_top" xlink:title="Checks if a file isn&#39;t open by this file&#45;reader.">
<polygon fill="white" stroke="#666666" points="831.5,-115 712,-115 712,-95 831.5,-95 831.5,-115"/>
<text text-anchor="middle" x="771.75" y="-101.5" font-family="Helvetica,sans-Serif" font-size="10.00">AEFileReader::isClosed</text>
</a>
</g>
</g>
<!-- Node7&#45;&gt;Node8 -->
<g id="edge7_Node000007_Node000008" class="edge">
<title>Node7&#45;&gt;Node8</title>
<g id="a_edge7_Node000007_Node000008"><a xlink:title=" ">
<path fill="none" stroke="#63b8ff" d="M676.42,-105C684.25,-105 692.35,-105 700.37,-105"/>
<polygon fill="#63b8ff" stroke="#63b8ff" points="700.09,-108.5 710.09,-105 700.09,-101.5 700.09,-108.5"/>
</a>
</g>
</g>
<!-- Node9 -->
<g id="Node000009" class="node">
<title>Node9</title>
<g id="a_Node000009"><a xlink:href="../../dd/dd5/class_a_e_file_reader.html#a07f32763fbb1df143c8aab2be7b856c1" target="_top" xlink:title="Checks if a file is open by this file&#45;reader.">
<polygon fill="white" stroke="#666666" points="980.25,-115 867.5,-115 867.5,-95 980.25,-95 980.25,-115"/>
<text text-anchor="middle" x="923.88" y="-101.5" font-family="Helvetica,sans-Serif" font-size="10.00">AEFileReader::isOpen</text>
</a>
</g>
</g>
<!-- Node8&#45;&gt;Node9 -->
<g id="edge8_Node000008_Node000009" class="edge">
<title>Node8&#45;&gt;Node9</title>
<g id="a_edge8_Node000008_Node000009"><a xlink:title=" ">
<path fill="none" stroke="#63b8ff" d="M831.65,-105C839.58,-105 847.76,-105 855.82,-105"/>
<polygon fill="#63b8ff" stroke="#63b8ff" points="855.57,-108.5 865.57,-105 855.57,-101.5 855.57,-108.5"/>
</a>
</g>
</g>
</g>
</svg>
