<?xml version="1.0" encoding="UTF-8" standalone="no"?>
<!DOCTYPE svg PUBLIC "-//W3C//DTD SVG 1.1//EN"
 "http://www.w3.org/Graphics/SVG/1.1/DTD/svg11.dtd">
<!-- Generated by graphviz version 10.0.1 (20240210.2158)
 -->
<!-- Title: AELogParser::nextEntry Pages: 1 -->
<!--zoomable 313 -->

<svg id="main" version="1.1" xmlns="http://www.w3.org/2000/svg" xmlns:xlink="http://www.w3.org/1999/xlink" xml:space="preserve" onload="init(evt)">
<style type="text/css"><![CDATA[
.node, .edge {opacity: 0.7;}
.node.selected, .edge.selected {opacity: 1;}
.edge:hover path { stroke: red; }
.edge:hover polygon { stroke: red; fill: red; }
]]></style>

<defs>
  <circle id="rim" cx="0" cy="0" r="7"/>
  <circle id="rim2" cx="0" cy="0" r="3.5"/>
  <g id="zoomPlus">
    <use xlink:href="#rim" fill="#404040"><set attributeName="fill" to="#808080" begin="zoomplus.mouseover" end="zoomplus.mouseout"/></use>
    <path d="M-4,0h8M0,-4v8" fill="none" stroke="white" stroke-width="1.5" pointer-events="none"/>
  </g>
  <g id="zoomMin">
    <use xlink:href="#rim" fill="#404040"><set attributeName="fill" to="#808080" begin="zoomminus.mouseover" end="zoomminus.mouseout"/></use>
    <path d="M-4,0h8" fill="none" stroke="white" stroke-width="1.5" pointer-events="none"/>
  </g>
  <g id="arrowUp" transform="translate(30 24)">
    <use xlink:href="#rim"/>
    <path pointer-events="none" fill="none" stroke="white" stroke-width="1.5" d="M0,-3.0v7 M-2.5,-0.5L0,-3.0L2.5,-0.5"/>
  </g>
  <g id="arrowRight" transform="rotate(90) translate(36 -43)">
    <use xlink:href="#rim"/>
    <path pointer-events="none" fill="none" stroke="white" stroke-width="1.5" d="M0,-3.0v7 M-2.5,-0.5L0,-3.0L2.5,-0.5"/>
  </g>
  <g id="arrowDown" transform="rotate(180) translate(-30 -48)">
    <use xlink:href="#rim"/>
    <path pointer-events="none" fill="none" stroke="white" stroke-width="1.5" d="M0,-3.0v7 M-2.5,-0.5L0,-3.0L2.5,-0.5"/>
  </g>
  <g id="arrowLeft" transform="rotate(270) translate(-36 17)">
    <use xlink:href="#rim"/>
    <path pointer-events="none" fill="none" stroke="white" stroke-width="1.5" d="M0,-3.0v7 M-2.5,-0.5L0,-3.0L2.5,-0.5"/>
  </g>
  <g id="resetDef">
    <use xlink:href="#rim2" fill="#404040"><set attributeName="fill" to="#808080" begin="reset.mouseover" end="reset.mouseout"/></use>
  </g>
</defs>
<script type="application/ecmascript">
var viewWidth = 1146;
var viewHeight = 313;
var sectionId = 'dynsection-6';
</script>
<script type="application/ecmascript" xlink:href="../../svg.min.js"/>
<svg id="graph" class="graph">
<g id="viewport">
<title>AELogParser::nextEntry</title>
<!-- Node1 -->
<g id="Node000001" class="node">
<title>Node1</title>
<g id="a_Node000001"><a xlink:title="Read the next valid entry in the log file of the given severity and module name filter,...">
<polygon fill="#999999" stroke="#666666" points="121.75,-96 0,-96 0,-76 121.75,-76 121.75,-96"/>
<text text-anchor="middle" x="60.88" y="-82.5" font-family="Helvetica,sans-Serif" font-size="10.00">AELogParser::nextEntry</text>
</a>
</g>
</g>
<!-- Node2 -->
<g id="Node000002" class="node">
<title>Node2</title>
<g id="a_Node000002"><a xlink:href="../../d8/d52/class_a_e_log_parser.html#ae89b754ad98409469e9b7405f63edee2" target="_top" xlink:title="Read the next indexed valid log entry in the file of the given severity and module name filter,...">
<polygon fill="white" stroke="#666666" points="308,-210 157.75,-210 157.75,-190 308,-190 308,-210"/>
<text text-anchor="middle" x="232.88" y="-196.5" font-family="Helvetica,sans-Serif" font-size="10.00">AELogParser::nextEntryCursor</text>
</a>
</g>
</g>
<!-- Node1&#45;&gt;Node2 -->
<g id="edge1_Node000001_Node000002" class="edge">
<title>Node1&#45;&gt;Node2</title>
<g id="a_edge1_Node000001_Node000002"><a xlink:title=" ">
<path fill="none" stroke="#63b8ff" d="M77.26,-96.32C106.85,-116.16 171.88,-159.77 207.45,-183.62"/>
<polygon fill="#63b8ff" stroke="#63b8ff" points="205.13,-186.28 215.39,-188.94 209.03,-180.47 205.13,-186.28"/>
</a>
</g>
</g>
<!-- Node13 -->
<g id="Node000013" class="node">
<title>Node13</title>
<g id="a_Node000013"><a xlink:href="../../da/dea/struct_a_e_log_entry.html#a7e8aa04faf251d62a79baab9e2cc531a" target="_top" xlink:title="Parses a given string as a log entry, and write it into passed entry object.">
<polygon fill="white" stroke="#666666" points="306.5,-124 159.25,-124 159.25,-104 306.5,-104 306.5,-124"/>
<text text-anchor="middle" x="232.88" y="-110.5" font-family="Helvetica,sans-Serif" font-size="10.00">AELogEntry::parseStringEntry</text>
</a>
</g>
</g>
<!-- Node1&#45;&gt;Node13 -->
<g id="edge14_Node000001_Node000013" class="edge">
<title>Node1&#45;&gt;Node13</title>
<g id="a_edge14_Node000001_Node000013"><a xlink:title=" ">
<path fill="none" stroke="#63b8ff" d="M121.81,-95.87C133.18,-97.75 145.21,-99.73 156.98,-101.66"/>
<polygon fill="#63b8ff" stroke="#63b8ff" points="156.23,-105.09 166.66,-103.26 157.37,-98.18 156.23,-105.09"/>
</a>
</g>
</g>
<!-- Node18 -->
<g id="Node000018" class="node">
<title>Node18</title>
<g id="a_Node000018"><a xlink:href="../../dd/dd5/class_a_e_file_reader.html#a391b5815b099e3d347a4d758a92e3295" target="_top" xlink:title="Reads the characters to a std::string untill a newline (included), or untill the maximum character am...">
<polygon fill="white" stroke="#666666" points="302,-68 163.75,-68 163.75,-48 302,-48 302,-68"/>
<text text-anchor="middle" x="232.88" y="-54.5" font-family="Helvetica,sans-Serif" font-size="10.00">AEFileReader::readStringNL</text>
</a>
</g>
</g>
<!-- Node1&#45;&gt;Node18 -->
<g id="edge19_Node000001_Node000018" class="edge">
<title>Node1&#45;&gt;Node18</title>
<g id="a_edge19_Node000001_Node000018"><a xlink:title=" ">
<path fill="none" stroke="#63b8ff" d="M121.81,-76.13C133.18,-74.25 145.21,-72.27 156.98,-70.34"/>
<polygon fill="#63b8ff" stroke="#63b8ff" points="157.37,-73.82 166.66,-68.74 156.23,-66.91 157.37,-73.82"/>
</a>
</g>
</g>
<!-- Node19 -->
<g id="Node000019" class="node">
<title>Node19</title>
<g id="a_Node000019"><a xlink:href="../../dd/dd5/class_a_e_file_reader.html#a477effa6d568ec7993c4d506d0d0420c" target="_top" xlink:title="Sets read cursor position to pos from origin.">
<polygon fill="white" stroke="#666666" points="303.5,-25 162.25,-25 162.25,-5 303.5,-5 303.5,-25"/>
<text text-anchor="middle" x="232.88" y="-11.5" font-family="Helvetica,sans-Serif" font-size="10.00">AEFileReader::setCursorPos</text>
</a>
</g>
</g>
<!-- Node1&#45;&gt;Node19 -->
<g id="edge21_Node000001_Node000019" class="edge">
<title>Node1&#45;&gt;Node19</title>
<g id="a_edge21_Node000001_Node000019"><a xlink:title=" ">
<path fill="none" stroke="#63b8ff" d="M80.97,-75.63C100.06,-65.51 130.43,-50.05 157.75,-39 166.49,-35.47 175.96,-32.08 185.12,-29.02"/>
<polygon fill="#63b8ff" stroke="#63b8ff" points="186.2,-32.35 194.62,-25.93 184.03,-25.69 186.2,-32.35"/>
</a>
</g>
</g>
<!-- Node3 -->
<g id="Node000003" class="node">
<title>Node3</title>
<g id="a_Node000003"><a xlink:href="../../d8/d52/class_a_e_log_parser.html#a77b12a5ddd2933a8319e523986788292" target="_top" xlink:title="Determines the error codes from the invalid values in the passed AELogEntryInfo instance.">
<polygon fill="white" stroke="#666666" points="493.5,-248 344,-248 344,-228 493.5,-228 493.5,-248"/>
<text text-anchor="middle" x="418.75" y="-234.5" font-family="Helvetica,sans-Serif" font-size="10.00">AELogParser::errorFromAELEI</text>
</a>
</g>
</g>
<!-- Node2&#45;&gt;Node3 -->
<g id="edge2_Node000002_Node000003" class="edge">
<title>Node2&#45;&gt;Node3</title>
<g id="a_edge2_Node000002_Node000003"><a xlink:title=" ">
<path fill="none" stroke="#63b8ff" d="M284.61,-210.48C306.71,-215.05 332.83,-220.45 356.05,-225.25"/>
<polygon fill="#63b8ff" stroke="#63b8ff" points="355.2,-228.65 365.7,-227.24 356.62,-221.79 355.2,-228.65"/>
</a>
</g>
</g>
<!-- Node4 -->
<g id="Node000004" class="node">
<title>Node4</title>
<g id="a_Node000004"><a xlink:href="../../d8/d52/class_a_e_log_parser.html#afcff7caee18bdcafa1dc0edb75a75590" target="_top" xlink:title="Finds the AELogEntryInfo corresponding to the next log entry with the specified severity and module n...">
<polygon fill="white" stroke="#666666" points="487.88,-210 349.62,-210 349.62,-190 487.88,-190 487.88,-210"/>
<text text-anchor="middle" x="418.75" y="-196.5" font-family="Helvetica,sans-Serif" font-size="10.00">AELogParser::findNextEntry</text>
</a>
</g>
</g>
<!-- Node2&#45;&gt;Node4 -->
<g id="edge3_Node000002_Node000004" class="edge">
<title>Node2&#45;&gt;Node4</title>
<g id="a_edge3_Node000002_Node000004"><a xlink:title=" ">
<path fill="none" stroke="#63b8ff" d="M308.4,-200C318.13,-200 328.13,-200 337.94,-200"/>
<polygon fill="#63b8ff" stroke="#63b8ff" points="337.84,-203.5 347.84,-200 337.84,-196.5 337.84,-203.5"/>
</a>
</g>
</g>
<!-- Node5 -->
<g id="Node000005" class="node">
<title>Node5</title>
<g id="a_Node000005"><a xlink:href="../../d8/d52/class_a_e_log_parser.html#a8e16a086fe0cb5cc6828b53b0a97a1bf" target="_top" xlink:title="Checks if the passed entry&#39;s and filter&#39;s module name indices match Moved from a lambda,...">
<polygon fill="white" stroke="#666666" points="674.88,-305 535.12,-305 535.12,-285 674.88,-285 674.88,-305"/>
<text text-anchor="middle" x="605" y="-291.5" font-family="Helvetica,sans-Serif" font-size="10.00">AELogParser::checkMName</text>
</a>
</g>
</g>
<!-- Node4&#45;&gt;Node5 -->
<g id="edge4_Node000004_Node000005" class="edge">
<title>Node4&#45;&gt;Node5</title>
<g id="a_edge4_Node000004_Node000005"><a xlink:title=" ">
<path fill="none" stroke="#63b8ff" d="M478.04,-210.46C483.53,-212.76 488.8,-215.57 493.5,-219 517.71,-236.65 505.26,-258.38 529.5,-276 531.28,-277.3 533.14,-278.5 535.07,-279.63"/>
<polygon fill="#63b8ff" stroke="#63b8ff" points="533.25,-282.63 543.76,-283.93 536.35,-276.36 533.25,-282.63"/>
</a>
</g>
</g>
<!-- Node6 -->
<g id="Node000006" class="node">
<title>Node6</title>
<g id="a_Node000006"><a xlink:href="../../d8/d52/class_a_e_log_parser.html#a21f7748ae4be67f2221a114cbe9bca7c" target="_top" xlink:title="Checks if the passed severity is valid compared to the filtering severity.">
<polygon fill="white" stroke="#666666" points="675.25,-267 534.75,-267 534.75,-247 675.25,-247 675.25,-267"/>
<text text-anchor="middle" x="605" y="-253.5" font-family="Helvetica,sans-Serif" font-size="10.00">AELogParser::checkSeverity</text>
</a>
</g>
</g>
<!-- Node4&#45;&gt;Node6 -->
<g id="edge5_Node000004_Node000006" class="edge">
<title>Node4&#45;&gt;Node6</title>
<g id="a_edge5_Node000004_Node000006"><a xlink:title=" ">
<path fill="none" stroke="#63b8ff" d="M463.67,-210.4C473.55,-212.99 483.94,-215.92 493.5,-219 509.84,-224.26 513.32,-227.25 529.5,-233 539.08,-236.4 549.43,-239.87 559.27,-243.07"/>
<polygon fill="#63b8ff" stroke="#63b8ff" points="558.08,-246.36 568.67,-246.09 560.22,-239.69 558.08,-246.36"/>
</a>
</g>
</g>
<!-- Node7 -->
<g id="Node000007" class="node">
<title>Node7</title>
<g id="a_Node000007"><a xlink:href="../../d8/d52/class_a_e_log_parser.html#a04627d27deedd7981a5e106dd8ade5ed" target="_top" xlink:title="Checks if the current log file contains the given severity (or higher, depending on the &quot;strict&#45;sever...">
<polygon fill="white" stroke="#666666" points="680.5,-191 529.5,-191 529.5,-171 680.5,-171 680.5,-191"/>
<text text-anchor="middle" x="605" y="-177.5" font-family="Helvetica,sans-Serif" font-size="10.00">AELogParser::containsSeverity</text>
</a>
</g>
</g>
<!-- Node4&#45;&gt;Node7 -->
<g id="edge6_Node000004_Node000007" class="edge">
<title>Node4&#45;&gt;Node7</title>
<g id="a_edge6_Node000004_Node000007"><a xlink:title=" ">
<path fill="none" stroke="#63b8ff" d="M488.36,-192.93C498.02,-191.93 508.06,-190.89 517.99,-189.87"/>
<polygon fill="#63b8ff" stroke="#63b8ff" points="518.06,-193.38 527.64,-188.87 517.34,-186.42 518.06,-193.38"/>
</a>
</g>
</g>
<!-- Node8 -->
<g id="Node000008" class="node">
<title>Node8</title>
<g id="a_Node000008"><a xlink:href="../../d8/d52/class_a_e_log_parser.html#af349b880be4cdd8c6d27960a038680ab" target="_top" xlink:title="Checks if the file is closed by the AELogParser.">
<polygon fill="white" stroke="#666666" points="833.75,-210 716.5,-210 716.5,-190 833.75,-190 833.75,-210"/>
<text text-anchor="middle" x="775.12" y="-196.5" font-family="Helvetica,sans-Serif" font-size="10.00">AELogParser::isClosed</text>
</a>
</g>
</g>
<!-- Node4&#45;&gt;Node8 -->
<g id="edge12_Node000004_Node000008" class="edge">
<title>Node4&#45;&gt;Node8</title>
<g id="a_edge12_Node000004_Node000008"><a xlink:title=" ">
<path fill="none" stroke="#63b8ff" d="M488.08,-200C550.47,-200 642.25,-200 704.92,-200"/>
<polygon fill="#63b8ff" stroke="#63b8ff" points="704.75,-203.5 714.75,-200 704.75,-196.5 704.75,-203.5"/>
</a>
</g>
</g>
<!-- Node11 -->
<g id="Node000011" class="node">
<title>Node11</title>
<g id="a_Node000011"><a xlink:href="../../de/dde/namespaceace_1_1utils.html#a878c53ede8589dbc6a50734c9c4ad4d7" target="_top" xlink:title="Checks if the value is within some range.">
<polygon fill="white" stroke="#666666" points="827.38,-172 722.88,-172 722.88,-152 827.38,-152 827.38,-172"/>
<text text-anchor="middle" x="775.12" y="-158.5" font-family="Helvetica,sans-Serif" font-size="10.00">ace::utils::isInRange</text>
</a>
</g>
</g>
<!-- Node4&#45;&gt;Node11 -->
<g id="edge13_Node000004_Node000011" class="edge">
<title>Node4&#45;&gt;Node11</title>
<g id="a_edge13_Node000004_Node000011"><a xlink:title=" ">
<path fill="none" stroke="#63b8ff" d="M467.09,-189.55C475.98,-187.1 485.11,-184.24 493.5,-181 510.37,-174.48 511.94,-166.35 529.5,-162 589.93,-147.03 661.36,-149.21 711.38,-153.8"/>
<polygon fill="#63b8ff" stroke="#63b8ff" points="710.86,-157.26 721.15,-154.76 711.55,-150.3 710.86,-157.26"/>
</a>
</g>
</g>
<!-- Node12 -->
<g id="Node000012" class="node">
<title>Node12</title>
<g id="a_Node000012"><a xlink:href="../../db/d7b/struct_a_e_log_entry_info.html#af5f2718c2846e38977e660dd8fb59333" target="_top" xlink:title="Returns the invalid instance of the AELogEntryInfo.">
<polygon fill="white" stroke="#666666" points="674.5,-115 535.5,-115 535.5,-95 674.5,-95 674.5,-115"/>
<text text-anchor="middle" x="605" y="-101.5" font-family="Helvetica,sans-Serif" font-size="10.00">AELogEntryInfo::invalidEntry</text>
</a>
</g>
</g>
<!-- Node4&#45;&gt;Node12 -->
<g id="edge11_Node000004_Node000012" class="edge">
<title>Node4&#45;&gt;Node12</title>
<g id="a_edge11_Node000004_Node000012"><a xlink:title=" ">
<path fill="none" stroke="#63b8ff" d="M477.14,-189.64C482.93,-187.32 488.51,-184.48 493.5,-181 516.56,-164.93 506.93,-145.75 529.5,-129 534.34,-125.41 539.74,-122.34 545.37,-119.72"/>
<polygon fill="#63b8ff" stroke="#63b8ff" points="546.34,-123.1 554.25,-116.05 543.67,-116.63 546.34,-123.1"/>
</a>
</g>
</g>
<!-- Node7&#45;&gt;Node8 -->
<g id="edge7_Node000007_Node000008" class="edge">
<title>Node7&#45;&gt;Node8</title>
<g id="a_edge7_Node000007_Node000008"><a xlink:title=" ">
<path fill="none" stroke="#63b8ff" d="M680.72,-189.44C688.68,-190.34 696.74,-191.26 704.63,-192.15"/>
<polygon fill="#63b8ff" stroke="#63b8ff" points="704.2,-195.62 714.53,-193.27 704.99,-188.66 704.2,-195.62"/>
</a>
</g>
</g>
<!-- Node7&#45;&gt;Node11 -->
<g id="edge10_Node000007_Node000011" class="edge">
<title>Node7&#45;&gt;Node11</title>
<g id="a_edge10_Node000007_Node000011"><a xlink:title=" ">
<path fill="none" stroke="#63b8ff" d="M680.72,-172.56C691.04,-171.39 701.56,-170.2 711.63,-169.06"/>
<polygon fill="#63b8ff" stroke="#63b8ff" points="711.73,-172.57 721.27,-167.97 710.94,-165.62 711.73,-172.57"/>
</a>
</g>
</g>
<!-- Node9 -->
<g id="Node000009" class="node">
<title>Node9</title>
<g id="a_Node000009"><a xlink:href="../../dd/dd5/class_a_e_file_reader.html#a81bb672d7d1a142c7473d880a3842073" target="_top" xlink:title="Checks if a file isn&#39;t open by this file&#45;reader.">
<polygon fill="white" stroke="#666666" points="989.25,-210 869.75,-210 869.75,-190 989.25,-190 989.25,-210"/>
<text text-anchor="middle" x="929.5" y="-196.5" font-family="Helvetica,sans-Serif" font-size="10.00">AEFileReader::isClosed</text>
</a>
</g>
</g>
<!-- Node8&#45;&gt;Node9 -->
<g id="edge8_Node000008_Node000009" class="edge">
<title>Node8&#45;&gt;Node9</title>
<g id="a_edge8_Node000008_Node000009"><a xlink:title=" ">
<path fill="none" stroke="#63b8ff" d="M834.17,-200C842,-200 850.1,-200 858.12,-200"/>
<polygon fill="#63b8ff" stroke="#63b8ff" points="857.84,-203.5 867.84,-200 857.84,-196.5 857.84,-203.5"/>
</a>
</g>
</g>
<!-- Node10 -->
<g id="Node000010" class="node">
<title>Node10</title>
<g id="a_Node000010"><a xlink:href="../../dd/dd5/class_a_e_file_reader.html#a07f32763fbb1df143c8aab2be7b856c1" target="_top" xlink:title="Checks if a file is open by this file&#45;reader.">
<polygon fill="white" stroke="#666666" points="1138,-210 1025.25,-210 1025.25,-190 1138,-190 1138,-210"/>
<text text-anchor="middle" x="1081.62" y="-196.5" font-family="Helvetica,sans-Serif" font-size="10.00">AEFileReader::isOpen</text>
</a>
</g>
</g>
<!-- Node9&#45;&gt;Node10 -->
<g id="edge9_Node000009_Node000010" class="edge">
<title>Node9&#45;&gt;Node10</title>
<g id="a_edge9_Node000009_Node000010"><a xlink:title=" ">
<path fill="none" stroke="#63b8ff" d="M989.4,-200C997.33,-200 1005.51,-200 1013.57,-200"/>
<polygon fill="#63b8ff" stroke="#63b8ff" points="1013.32,-203.5 1023.32,-200 1013.32,-196.5 1013.32,-203.5"/>
</a>
</g>
</g>
<!-- Node14 -->
<g id="Node000014" class="node">
<title>Node14</title>
<g id="a_Node000014"><a xlink:href="../../da/dea/struct_a_e_log_entry.html#a58aeadbca0c2c0863b534a52d40d22a8" target="_top" xlink:title="Clears the current entry and sets its values to zero/invalid.">
<polygon fill="white" stroke="#666666" points="478.12,-172 359.38,-172 359.38,-152 478.12,-152 478.12,-172"/>
<text text-anchor="middle" x="418.75" y="-158.5" font-family="Helvetica,sans-Serif" font-size="10.00">AELogEntry::clearEntry</text>
</a>
</g>
</g>
<!-- Node13&#45;&gt;Node14 -->
<g id="edge15_Node000013_Node000014" class="edge">
<title>Node13&#45;&gt;Node14</title>
<g id="a_edge15_Node000013_Node000014"><a xlink:title=" ">
<path fill="none" stroke="#63b8ff" d="M273.36,-124.45C294.34,-129.99 320.56,-136.9 344,-143 351.14,-144.86 358.67,-146.81 366.08,-148.72"/>
<polygon fill="#63b8ff" stroke="#63b8ff" points="365.14,-152.1 375.7,-151.21 366.89,-145.32 365.14,-152.1"/>
</a>
</g>
</g>
<!-- Node15 -->
<g id="Node000015" class="node">
<title>Node15</title>
<g id="a_Node000015"><a xlink:href="../../de/dde/namespaceace_1_1utils.html#ac3eadc5f289b54059322023f3c5eed96" target="_top" xlink:title="Checks if the passed string is alpha&#45;numeric with underscores (contains only numbers,...">
<polygon fill="white" stroke="#666666" points="474,-134 363.5,-134 363.5,-114 474,-114 474,-134"/>
<text text-anchor="middle" x="418.75" y="-120.5" font-family="Helvetica,sans-Serif" font-size="10.00">ace::utils::isAlNumUs</text>
</a>
</g>
</g>
<!-- Node13&#45;&gt;Node15 -->
<g id="edge16_Node000013_Node000015" class="edge">
<title>Node13&#45;&gt;Node15</title>
<g id="a_edge16_Node000013_Node000015"><a xlink:title=" ">
<path fill="none" stroke="#63b8ff" d="M306.81,-117.97C321.61,-118.77 337.09,-119.61 351.63,-120.4"/>
<polygon fill="#63b8ff" stroke="#63b8ff" points="351.38,-123.9 361.55,-120.94 351.76,-116.91 351.38,-123.9"/>
</a>
</g>
</g>
<!-- Node16 -->
<g id="Node000016" class="node">
<title>Node16</title>
<g id="a_Node000016"><a xlink:href="../../de/dde/namespaceace_1_1utils.html#a2c0379815bc24cc369071e0b48787e9b" target="_top" xlink:title="Converts the given c&#45;string to a (c)time point (std::time_t), using a set format.">
<polygon fill="white" stroke="#666666" points="477,-96 360.5,-96 360.5,-76 477,-76 477,-96"/>
<text text-anchor="middle" x="418.75" y="-82.5" font-family="Helvetica,sans-Serif" font-size="10.00">ace::utils::stringToDate</text>
</a>
</g>
</g>
<!-- Node13&#45;&gt;Node16 -->
<g id="edge17_Node000013_Node000016" class="edge">
<title>Node13&#45;&gt;Node16</title>
<g id="a_edge17_Node000013_Node000016"><a xlink:title=" ">
<path fill="none" stroke="#63b8ff" d="M302.6,-103.53C317.72,-101.23 333.74,-98.79 348.86,-96.49"/>
<polygon fill="#63b8ff" stroke="#63b8ff" points="349.37,-99.95 358.73,-94.99 348.32,-93.03 349.37,-99.95"/>
</a>
</g>
</g>
<!-- Node17 -->
<g id="Node000017" class="node">
<title>Node17</title>
<g id="a_Node000017"><a xlink:href="../../da/dea/struct_a_e_log_entry.html#acacb2f1cbf3218922db05169ef55d8cb" target="_top" xlink:title="Deduces the string representation of a type (as appears in the log file) to a corresponding type numb...">
<polygon fill="white" stroke="#666666" points="483.75,-58 353.75,-58 353.75,-38 483.75,-38 483.75,-58"/>
<text text-anchor="middle" x="418.75" y="-44.5" font-family="Helvetica,sans-Serif" font-size="10.00">AELogEntry::stringToType</text>
</a>
</g>
</g>
<!-- Node13&#45;&gt;Node17 -->
<g id="edge18_Node000013_Node000017" class="edge">
<title>Node13&#45;&gt;Node17</title>
<g id="a_edge18_Node000013_Node000017"><a xlink:title=" ">
<path fill="none" stroke="#63b8ff" d="M285.89,-103.57C293.49,-101.22 301.08,-98.39 308,-95 326.2,-86.07 325.81,-75.94 344,-67 347.66,-65.2 351.5,-63.56 355.44,-62.07"/>
<polygon fill="#63b8ff" stroke="#63b8ff" points="356.24,-65.5 364.56,-58.94 353.97,-58.87 356.24,-65.5"/>
</a>
</g>
</g>
<!-- Node18&#45;&gt;Node18 -->
<g id="edge20_Node000018_Node000018" class="edge">
<title>Node18&#45;&gt;Node18</title>
<g id="a_edge20_Node000018_Node000018"><a xlink:title=" ">
<path fill="none" stroke="#63b8ff" d="M205.55,-68.34C193.87,-76.98 202.98,-86 232.88,-86 249.69,-86 259.93,-83.14 263.6,-79.11"/>
<polygon fill="#63b8ff" stroke="#63b8ff" points="267,-78.27 260.66,-69.78 260.32,-80.37 267,-78.27"/>
</a>
</g>
</g>
<!-- Node20 -->
<g id="Node000020" class="node">
<title>Node20</title>
<g id="a_Node000020"><a xlink:href="../../dd/dd5/class_a_e_file_reader.html#abbc85b7bb94f31f54df561d23a38e3dc" target="_top" xlink:title="Reads the bytes (size of T) from the file and dumps/reinterprets them as the value in the passed vari...">
<polygon fill="white" stroke="#666666" points="486.75,-20 350.75,-20 350.75,0 486.75,0 486.75,-20"/>
<text text-anchor="middle" x="418.75" y="-6.5" font-family="Helvetica,sans-Serif" font-size="10.00">AEFileReader::readVariable</text>
</a>
</g>
</g>
<!-- Node19&#45;&gt;Node20 -->
<g id="edge22_Node000019_Node000020" class="edge">
<title>Node19&#45;&gt;Node20</title>
<g id="a_edge22_Node000019_Node000020"><a xlink:title=" ">
<path fill="none" stroke="#63b8ff" d="M303.91,-13.1C315.33,-12.78 327.23,-12.46 338.84,-12.15"/>
<polygon fill="#63b8ff" stroke="#63b8ff" points="338.92,-15.65 348.82,-11.87 338.73,-8.65 338.92,-15.65"/>
</a>
</g>
</g>
<!-- Node21 -->
<g id="Node000021" class="node">
<title>Node21</title>
<g id="a_Node000021"><a xlink:href="../../dd/dd5/class_a_e_file_reader.html#a67d3baebff92aaa0b41216cb67a91e4c" target="_top" xlink:title="Reads an array of dcount elements, each one with a size of dsize bytes, to memory block pointed by cd...">
<polygon fill="white" stroke="#666666" points="673.75,-20 536.25,-20 536.25,0 673.75,0 673.75,-20"/>
<text text-anchor="middle" x="605" y="-6.5" font-family="Helvetica,sans-Serif" font-size="10.00">AEFileReader::readData_ptr</text>
</a>
</g>
</g>
<!-- Node20&#45;&gt;Node21 -->
<g id="edge23_Node000020_Node000021" class="edge">
<title>Node20&#45;&gt;Node21</title>
<g id="a_edge23_Node000020_Node000021"><a xlink:title=" ">
<path fill="none" stroke="#63b8ff" d="M487.05,-10C499.25,-10 512.08,-10 524.59,-10"/>
<polygon fill="#63b8ff" stroke="#63b8ff" points="524.44,-13.5 534.44,-10 524.44,-6.5 524.44,-13.5"/>
</a>
</g>
</g>
</g>
</svg>

<g id="navigator" transform="translate(0 0)" fill="#404254">
  <rect fill="#f2f5e9" fill-opacity="0.5" stroke="#606060" stroke-width=".5" x="0" y="0" width="60" height="60"/>
  <use id="zoomplus" xlink:href="#zoomPlus" x="17" y="9" onmousedown="handleZoom(evt,'in')"/>
  <use id="zoomminus" xlink:href="#zoomMin" x="42" y="9" onmousedown="handleZoom(evt,'out')"/>
  <use id="reset" xlink:href="#resetDef" x="30" y="36" onmousedown="handleReset()"/>
   <use id="arrowup" xlink:href="#arrowUp" x="0" y="0" onmousedown="handlePan(0,-1)"/>
  <use id="arrowright" xlink:href="#arrowRight" x="0" y="0" onmousedown="handlePan(1,0)"/>
  <use id="arrowdown" xlink:href="#arrowDown" x="0" y="0" onmousedown="handlePan(0,1)"/>
  <use id="arrowleft" xlink:href="#arrowLeft" x="0" y="0" onmousedown="handlePan(-1,0)"/>
</g>
<svg viewBox="0 0 15 15" width="100%" height="30px" preserveAspectRatio="xMaxYMin meet">
 <g id="arrow_out" transform="scale(0.3 0.3)">
  <a xlink:href="class_a_e_log_parser_af3c28f50c5f52840be97e631d67b244c_cgraph_org.svg" target="_base">
   <rect id="button" ry="5" rx="5" y="6" x="6" height="38" width="38"
        fill="#f2f5e9" fill-opacity="0.5" stroke="#606060" stroke-width="1.0"/>
   <path id="arrow"
     d="M 11.500037,31.436501 C 11.940474,20.09759 22.043105,11.32322 32.158766,21.979434 L 37.068811,17.246167 C 37.068811,17.246167 37.088388,32 37.088388,32 L 22.160133,31.978069 C 22.160133,31.978069 26.997745,27.140456 26.997745,27.140456 C 18.528582,18.264221 13.291696,25.230495 11.500037,31.436501 z"
     style="fill:#404040;"/>
  </a>
 </g>
</svg>

<style type='text/css'>
<![CDATA[
[data-mouse-over-selected='false'] { opacity: 0.7; }
[data-mouse-over-selected='true']  { opacity: 1.0; }
]]>
</style>
<script type="application/ecmascript"><![CDATA[
document.addEventListener('DOMContentLoaded', (event) => {
  highlightEdges();
  highlightAdjacentNodes();
});
]]></script>
</svg>
