<?xml version="1.0" encoding="UTF-8" standalone="no"?>
<!DOCTYPE svg PUBLIC "-//W3C//DTD SVG 1.1//EN"
 "http://www.w3.org/Graphics/SVG/1.1/DTD/svg11.dtd">
<!-- Generated by graphviz version 10.0.1 (20240210.2158)
 -->
<!-- Title: AELogParser::filterQueue Pages: 1 -->
<!--zoomable 85 -->

<svg id="main" version="1.1" xmlns="http://www.w3.org/2000/svg" xmlns:xlink="http://www.w3.org/1999/xlink" xml:space="preserve" onload="init(evt)">
<style type="text/css"><![CDATA[
.node, .edge {opacity: 0.7;}
.node.selected, .edge.selected {opacity: 1;}
.edge:hover path { stroke: red; }
.edge:hover polygon { stroke: red; fill: red; }
]]></style>

<defs>
  <circle id="rim" cx="0" cy="0" r="7"/>
  <circle id="rim2" cx="0" cy="0" r="3.5"/>
  <g id="zoomPlus">
    <use xlink:href="#rim" fill="#404040"><set attributeName="fill" to="#808080" begin="zoomplus.mouseover" end="zoomplus.mouseout"/></use>
    <path d="M-4,0h8M0,-4v8" fill="none" stroke="white" stroke-width="1.5" pointer-events="none"/>
  </g>
  <g id="zoomMin">
    <use xlink:href="#rim" fill="#404040"><set attributeName="fill" to="#808080" begin="zoomminus.mouseover" end="zoomminus.mouseout"/></use>
    <path d="M-4,0h8" fill="none" stroke="white" stroke-width="1.5" pointer-events="none"/>
  </g>
  <g id="arrowUp" transform="translate(30 24)">
    <use xlink:href="#rim"/>
    <path pointer-events="none" fill="none" stroke="white" stroke-width="1.5" d="M0,-3.0v7 M-2.5,-0.5L0,-3.0L2.5,-0.5"/>
  </g>
  <g id="arrowRight" transform="rotate(90) translate(36 -43)">
    <use xlink:href="#rim"/>
    <path pointer-events="none" fill="none" stroke="white" stroke-width="1.5" d="M0,-3.0v7 M-2.5,-0.5L0,-3.0L2.5,-0.5"/>
  </g>
  <g id="arrowDown" transform="rotate(180) translate(-30 -48)">
    <use xlink:href="#rim"/>
    <path pointer-events="none" fill="none" stroke="white" stroke-width="1.5" d="M0,-3.0v7 M-2.5,-0.5L0,-3.0L2.5,-0.5"/>
  </g>
  <g id="arrowLeft" transform="rotate(270) translate(-36 17)">
    <use xlink:href="#rim"/>
    <path pointer-events="none" fill="none" stroke="white" stroke-width="1.5" d="M0,-3.0v7 M-2.5,-0.5L0,-3.0L2.5,-0.5"/>
  </g>
  <g id="resetDef">
    <use xlink:href="#rim2" fill="#404040"><set attributeName="fill" to="#808080" begin="reset.mouseover" end="reset.mouseout"/></use>
  </g>
</defs>
<script type="application/ecmascript">
var viewWidth = 683;
var viewHeight = 85;
var sectionId = 'dynsection-19';
</script>
<script type="application/ecmascript" xlink:href="../../svg.min.js"/>
<svg id="graph" class="graph">
<g id="viewport">
<title>AELogParser::filterQueue</title>
<!-- Node1 -->
<g id="Node000001" class="node">
<title>Node1</title>
<g id="a_Node000001"><a xlink:title="Filters the passed queue according to the given severity and modulename filters.">
<polygon fill="#999999" stroke="#666666" points="674.5,-39 548.25,-39 548.25,-19 674.5,-19 674.5,-39"/>
<text text-anchor="middle" x="611.38" y="-25.5" font-family="Helvetica,sans-Serif" font-size="10.00">AELogParser::filterQueue</text>
</a>
</g>
</g>
<!-- Node2 -->
<g id="Node000002" class="node">
<title>Node2</title>
<g id="a_Node000002"><a xlink:href="../../d8/d52/class_a_e_log_parser.html#a89fbdf373de904d275768e4eb15432c7" target="_top" xlink:title="Filters the passed queue according to the given modulename.">
<polygon fill="white" stroke="#666666" points="512.25,-58 360.5,-58 360.5,-38 512.25,-38 512.25,-58"/>
<text text-anchor="middle" x="436.38" y="-44.5" font-family="Helvetica,sans-Serif" font-size="10.00">AELogParser::filterQueueName</text>
</a>
</g>
</g>
<!-- Node1&#45;&gt;Node2 -->
<g id="edge1_Node000001_Node000002" class="edge">
<title>Node1&#45;&gt;Node2</title>
<g id="a_edge1_Node000001_Node000002"><a xlink:title=" ">
<path fill="none" stroke="#63b8ff" d="M536.51,-37.11C528.63,-37.98 520.61,-38.86 512.72,-39.73"/>
<polygon fill="#63b8ff" stroke="#63b8ff" points="536.86,-40.6 546.41,-36.02 536.09,-33.64 536.86,-40.6"/>
</a>
</g>
</g>
<!-- Node6 -->
<g id="Node000006" class="node">
<title>Node6</title>
<g id="a_Node000006"><a xlink:href="../../d8/d52/class_a_e_log_parser.html#ae8545d9e179171cd0ea6cf462c755715" target="_top" xlink:title="Filters the passed queue according to the given severity.">
<polygon fill="white" stroke="#666666" points="510,-20 362.75,-20 362.75,0 510,0 510,-20"/>
<text text-anchor="middle" x="436.38" y="-6.5" font-family="Helvetica,sans-Serif" font-size="10.00">AELogParser::filterQueueType</text>
</a>
</g>
</g>
<!-- Node1&#45;&gt;Node6 -->
<g id="edge5_Node000001_Node000006" class="edge">
<title>Node1&#45;&gt;Node6</title>
<g id="a_edge5_Node000001_Node000006"><a xlink:title=" ">
<path fill="none" stroke="#63b8ff" d="M536.61,-20.9C527.91,-19.94 519.03,-18.97 510.34,-18.01"/>
<polygon fill="#63b8ff" stroke="#63b8ff" points="536.09,-24.36 546.41,-21.98 536.86,-17.4 536.09,-24.36"/>
</a>
</g>
</g>
<!-- Node3 -->
<g id="Node000003" class="node">
<title>Node3</title>
<g id="a_Node000003"><a xlink:href="../../d8/d52/class_a_e_log_parser.html#a182d51b4aa5771e2e6f6919300e571ca" target="_top" xlink:title="Same as the AELogParser::nextEntry() but on massive scale – scans the whole log file and parses it to...">
<polygon fill="white" stroke="#666666" points="324.5,-58 193,-58 193,-38 324.5,-38 324.5,-58"/>
<text text-anchor="middle" x="258.75" y="-44.5" font-family="Helvetica,sans-Serif" font-size="10.00">AELogParser::logToQueue</text>
</a>
</g>
</g>
<!-- Node2&#45;&gt;Node3 -->
<g id="edge2_Node000002_Node000003" class="edge">
<title>Node2&#45;&gt;Node3</title>
<g id="a_edge2_Node000002_Node000003"><a xlink:title=" ">
<path fill="none" stroke="#63b8ff" d="M348.79,-48C340.75,-48 332.69,-48 324.88,-48"/>
<polygon fill="#63b8ff" stroke="#63b8ff" points="348.62,-51.5 358.62,-48 348.62,-44.5 348.62,-51.5"/>
</a>
</g>
</g>
<!-- Node4 -->
<g id="Node000004" class="node">
<title>Node4</title>
<g id="a_Node000004"><a xlink:href="../../d8/d52/class_a_e_log_parser.html#ae5044cf01623156d91ddc74492b0aeda" target="_top" xlink:title="A shortcut to AELogParser::logToQueue() to filter only by the module name of the log entries.">
<polygon fill="white" stroke="#666666" points="157,-77 0,-77 0,-57 157,-57 157,-77"/>
<text text-anchor="middle" x="78.5" y="-63.5" font-family="Helvetica,sans-Serif" font-size="10.00">AELogParser::logToQueueName</text>
</a>
</g>
</g>
<!-- Node3&#45;&gt;Node4 -->
<g id="edge3_Node000003_Node000004" class="edge">
<title>Node3&#45;&gt;Node4</title>
<g id="a_edge3_Node000003_Node000004"><a xlink:title=" ">
<path fill="none" stroke="#63b8ff" d="M181.23,-56.16C173.35,-57 165.34,-57.85 157.45,-58.69"/>
<polygon fill="#63b8ff" stroke="#63b8ff" points="181.56,-59.64 191.14,-55.1 180.82,-52.68 181.56,-59.64"/>
</a>
</g>
</g>
<!-- Node5 -->
<g id="Node000005" class="node">
<title>Node5</title>
<g id="a_Node000005"><a xlink:href="../../d8/d52/class_a_e_log_parser.html#ab84bb93f08ed48082f74b00290deb308" target="_top" xlink:title="A shortcut to AELogParser::logToQueue() to filter only by type/severity of the log entries.">
<polygon fill="white" stroke="#666666" points="154.75,-39 2.25,-39 2.25,-19 154.75,-19 154.75,-39"/>
<text text-anchor="middle" x="78.5" y="-25.5" font-family="Helvetica,sans-Serif" font-size="10.00">AELogParser::logToQueueType</text>
</a>
</g>
</g>
<!-- Node3&#45;&gt;Node5 -->
<g id="edge4_Node000003_Node000005" class="edge">
<title>Node3&#45;&gt;Node5</title>
<g id="a_edge4_Node000003_Node000005"><a xlink:title=" ">
<path fill="none" stroke="#63b8ff" d="M181.31,-39.85C172.59,-38.92 163.71,-37.98 155.01,-37.05"/>
<polygon fill="#63b8ff" stroke="#63b8ff" points="180.82,-43.32 191.14,-40.9 181.56,-36.36 180.82,-43.32"/>
</a>
</g>
</g>
</g>
</svg>

<g id="navigator" transform="translate(0 0)" fill="#404254">
  <rect fill="#f2f5e9" fill-opacity="0.5" stroke="#606060" stroke-width=".5" x="0" y="0" width="60" height="60"/>
  <use id="zoomplus" xlink:href="#zoomPlus" x="17" y="9" onmousedown="handleZoom(evt,'in')"/>
  <use id="zoomminus" xlink:href="#zoomMin" x="42" y="9" onmousedown="handleZoom(evt,'out')"/>
  <use id="reset" xlink:href="#resetDef" x="30" y="36" onmousedown="handleReset()"/>
   <use id="arrowup" xlink:href="#arrowUp" x="0" y="0" onmousedown="handlePan(0,-1)"/>
  <use id="arrowright" xlink:href="#arrowRight" x="0" y="0" onmousedown="handlePan(1,0)"/>
  <use id="arrowdown" xlink:href="#arrowDown" x="0" y="0" onmousedown="handlePan(0,1)"/>
  <use id="arrowleft" xlink:href="#arrowLeft" x="0" y="0" onmousedown="handlePan(-1,0)"/>
</g>
<svg viewBox="0 0 15 15" width="100%" height="30px" preserveAspectRatio="xMaxYMin meet">
 <g id="arrow_out" transform="scale(0.3 0.3)">
  <a xlink:href="class_a_e_log_parser_a7c3e2c0736eb6a3ccd84a528d72835ad_icgraph_org.svg" target="_base">
   <rect id="button" ry="5" rx="5" y="6" x="6" height="38" width="38"
        fill="#f2f5e9" fill-opacity="0.5" stroke="#606060" stroke-width="1.0"/>
   <path id="arrow"
     d="M 11.500037,31.436501 C 11.940474,20.09759 22.043105,11.32322 32.158766,21.979434 L 37.068811,17.246167 C 37.068811,17.246167 37.088388,32 37.088388,32 L 22.160133,31.978069 C 22.160133,31.978069 26.997745,27.140456 26.997745,27.140456 C 18.528582,18.264221 13.291696,25.230495 11.500037,31.436501 z"
     style="fill:#404040;"/>
  </a>
 </g>
</svg>

<style type='text/css'>
<![CDATA[
[data-mouse-over-selected='false'] { opacity: 0.7; }
[data-mouse-over-selected='true']  { opacity: 1.0; }
]]>
</style>
<script type="application/ecmascript"><![CDATA[
document.addEventListener('DOMContentLoaded', (event) => {
  highlightEdges();
  highlightAdjacentNodes();
});
]]></script>
</svg>
