<?xml version="1.0" encoding="UTF-8" standalone="no"?>
<!DOCTYPE svg PUBLIC "-//W3C//DTD SVG 1.1//EN"
 "http://www.w3.org/Graphics/SVG/1.1/DTD/svg11.dtd">
<!-- Generated by graphviz version 10.0.1 (20240210.2158)
 -->
<!-- Title: AELogParser::getFileName Pages: 1 -->
<svg width="661pt" height="28pt"
 viewBox="0.00 0.00 660.75 28.00" xmlns="http://www.w3.org/2000/svg" xmlns:xlink="http://www.w3.org/1999/xlink">
<g id="graph0" class="graph" transform="scale(1 1) rotate(0) translate(4 24)">
<title>AELogParser::getFileName</title>
<!-- Node1 -->
<g id="Node000001" class="node">
<title>Node1</title>
<g id="a_Node000001"><a xlink:title="Returns the name of the opened file, devoid of the path.">
<polygon fill="#999999" stroke="#666666" points="134.5,-20 0,-20 0,0 134.5,0 134.5,-20"/>
<text text-anchor="middle" x="67.25" y="-6.5" font-family="Helvetica,sans-Serif" font-size="10.00">AELogParser::getFileName</text>
</a>
</g>
</g>
<!-- Node2 -->
<g id="Node000002" class="node">
<title>Node2</title>
<g id="a_Node000002"><a xlink:href="../../dd/dd5/class_a_e_file_reader.html#a753c6f40c4a15739ed88aa0937f72969" target="_top" xlink:title="Returns the name of the opened file, devoid of the path.">
<polygon fill="white" stroke="#666666" points="307.25,-20 170.5,-20 170.5,0 307.25,0 307.25,-20"/>
<text text-anchor="middle" x="238.88" y="-6.5" font-family="Helvetica,sans-Serif" font-size="10.00">AEFileReader::getFileName</text>
</a>
</g>
</g>
<!-- Node1&#45;&gt;Node2 -->
<g id="edge1_Node000001_Node000002" class="edge">
<title>Node1&#45;&gt;Node2</title>
<g id="a_edge1_Node000001_Node000002"><a xlink:title=" ">
<path fill="none" stroke="#63b8ff" d="M134.8,-10C142.69,-10 150.8,-10 158.83,-10"/>
<polygon fill="#63b8ff" stroke="#63b8ff" points="158.61,-13.5 168.61,-10 158.61,-6.5 158.61,-13.5"/>
</a>
</g>
</g>
<!-- Node3 -->
<g id="Node000003" class="node">
<title>Node3</title>
<g id="a_Node000003"><a xlink:href="../../dd/dd5/class_a_e_file_reader.html#abbc85b7bb94f31f54df561d23a38e3dc" target="_top" xlink:title="Reads the bytes (size of T) from the file and dumps/reinterprets them as the value in the passed vari...">
<polygon fill="white" stroke="#666666" points="479.25,-20 343.25,-20 343.25,0 479.25,0 479.25,-20"/>
<text text-anchor="middle" x="411.25" y="-6.5" font-family="Helvetica,sans-Serif" font-size="10.00">AEFileReader::readVariable</text>
</a>
</g>
</g>
<!-- Node2&#45;&gt;Node3 -->
<g id="edge2_Node000002_Node000003" class="edge">
<title>Node2&#45;&gt;Node3</title>
<g id="a_edge2_Node000002_Node000003"><a xlink:title=" ">
<path fill="none" stroke="#63b8ff" d="M307.7,-10C315.59,-10 323.68,-10 331.69,-10"/>
<polygon fill="#63b8ff" stroke="#63b8ff" points="331.42,-13.5 341.42,-10 331.42,-6.5 331.42,-13.5"/>
</a>
</g>
</g>
<!-- Node4 -->
<g id="Node000004" class="node">
<title>Node4</title>
<g id="a_Node000004"><a xlink:href="../../dd/dd5/class_a_e_file_reader.html#a67d3baebff92aaa0b41216cb67a91e4c" target="_top" xlink:title="Reads an array of dcount elements, each one with a size of dsize bytes, to memory block pointed by cd...">
<polygon fill="white" stroke="#666666" points="652.75,-20 515.25,-20 515.25,0 652.75,0 652.75,-20"/>
<text text-anchor="middle" x="584" y="-6.5" font-family="Helvetica,sans-Serif" font-size="10.00">AEFileReader::readData_ptr</text>
</a>
</g>
</g>
<!-- Node3&#45;&gt;Node4 -->
<g id="edge3_Node000003_Node000004" class="edge">
<title>Node3&#45;&gt;Node4</title>
<g id="a_edge3_Node000003_Node000004"><a xlink:title=" ">
<path fill="none" stroke="#63b8ff" d="M479.73,-10C487.5,-10 495.47,-10 503.38,-10"/>
<polygon fill="#63b8ff" stroke="#63b8ff" points="503.37,-13.5 513.37,-10 503.37,-6.5 503.37,-13.5"/>
</a>
</g>
</g>
</g>
</svg>
