<?xml version="1.0" encoding="UTF-8" standalone="no"?>
<!DOCTYPE svg PUBLIC "-//W3C//DTD SVG 1.1//EN"
 "http://www.w3.org/Graphics/SVG/1.1/DTD/svg11.dtd">
<!-- Generated by graphviz version 10.0.1 (20240210.2158)
 -->
<!-- Title: AELogParser::logToQueueType Pages: 1 -->
<svg width="1545pt" height="436pt"
 viewBox="0.00 0.00 1544.75 436.00" xmlns="http://www.w3.org/2000/svg" xmlns:xlink="http://www.w3.org/1999/xlink">
<g id="graph0" class="graph" transform="scale(1 1) rotate(0) translate(4 432)">
<title>AELogParser::logToQueueType</title>
<!-- Node1 -->
<g id="Node000001" class="node">
<title>Node1</title>
<g id="a_Node000001"><a xlink:title="A shortcut to AELogParser::logToQueue() to filter only by type/severity of the log entries.">
<polygon fill="#999999" stroke="#666666" points="152.5,-324 0,-324 0,-304 152.5,-304 152.5,-324"/>
<text text-anchor="middle" x="76.25" y="-310.5" font-family="Helvetica,sans-Serif" font-size="10.00">AELogParser::logToQueueType</text>
</a>
</g>
</g>
<!-- Node2 -->
<g id="Node000002" class="node">
<title>Node2</title>
<g id="a_Node000002"><a xlink:href="../../d8/d52/class_a_e_log_parser.html#a182d51b4aa5771e2e6f6919300e571ca" target="_top" xlink:title="Same as the AELogParser::nextEntry() but on massive scale – scans the whole log file and parses it to...">
<polygon fill="white" stroke="#666666" points="320,-324 188.5,-324 188.5,-304 320,-304 320,-324"/>
<text text-anchor="middle" x="254.25" y="-310.5" font-family="Helvetica,sans-Serif" font-size="10.00">AELogParser::logToQueue</text>
</a>
</g>
</g>
<!-- Node1&#45;&gt;Node2 -->
<g id="edge1_Node000001_Node000002" class="edge">
<title>Node1&#45;&gt;Node2</title>
<g id="a_edge1_Node000001_Node000002"><a xlink:title=" ">
<path fill="none" stroke="#63b8ff" d="M152.91,-314C160.8,-314 168.82,-314 176.72,-314"/>
<polygon fill="#63b8ff" stroke="#63b8ff" points="176.65,-317.5 186.65,-314 176.65,-310.5 176.65,-317.5"/>
</a>
</g>
</g>
<!-- Node3 -->
<g id="Node000003" class="node">
<title>Node3</title>
<g id="a_Node000003"><a xlink:href="../../d8/d52/class_a_e_log_parser.html#a69ba96647922d2b2996c8b46832a8f3d" target="_top" xlink:title="Get the amount of entries of a certain type/severity.">
<polygon fill="white" stroke="#666666" points="520.12,-428 356.38,-428 356.38,-408 520.12,-408 520.12,-428"/>
<text text-anchor="middle" x="438.25" y="-414.5" font-family="Helvetica,sans-Serif" font-size="10.00">AELogParser::amountEntriesType</text>
</a>
</g>
</g>
<!-- Node2&#45;&gt;Node3 -->
<g id="edge2_Node000002_Node000003" class="edge">
<title>Node2&#45;&gt;Node3</title>
<g id="a_edge2_Node000002_Node000003"><a xlink:title=" ">
<path fill="none" stroke="#63b8ff" d="M266.52,-324.42C284.33,-340.42 320.61,-371.16 356,-390 366.08,-395.36 377.39,-400.02 388.29,-403.92"/>
<polygon fill="#63b8ff" stroke="#63b8ff" points="386.97,-407.16 397.57,-407.07 389.23,-400.54 386.97,-407.16"/>
</a>
</g>
</g>
<!-- Node5 -->
<g id="Node000005" class="node">
<title>Node5</title>
<g id="a_Node000005"><a xlink:href="../../d8/d52/class_a_e_log_parser.html#a3a490ef241fb6f24144e544e7c2e661d" target="_top" xlink:title="Get the amount of valid entries in the log (with optional lowest severity setting).">
<polygon fill="white" stroke="#666666" points="520.5,-381 356,-381 356,-361 520.5,-361 520.5,-381"/>
<text text-anchor="middle" x="438.25" y="-367.5" font-family="Helvetica,sans-Serif" font-size="10.00">AELogParser::amountEntriesValid</text>
</a>
</g>
</g>
<!-- Node2&#45;&gt;Node5 -->
<g id="edge4_Node000002_Node000005" class="edge">
<title>Node2&#45;&gt;Node5</title>
<g id="a_edge4_Node000002_Node000005"><a xlink:title=" ">
<path fill="none" stroke="#63b8ff" d="M288.63,-324.45C317.92,-333.63 360.72,-347.03 392.88,-357.1"/>
<polygon fill="#63b8ff" stroke="#63b8ff" points="391.74,-360.41 402.33,-360.06 393.83,-353.73 391.74,-360.41"/>
</a>
</g>
</g>
<!-- Node6 -->
<g id="Node000006" class="node">
<title>Node6</title>
<g id="a_Node000006"><a xlink:href="../../d8/d52/class_a_e_log_parser.html#a89fbdf373de904d275768e4eb15432c7" target="_top" xlink:title="Filters the passed queue according to the given modulename.">
<polygon fill="white" stroke="#666666" points="514.12,-324 362.38,-324 362.38,-304 514.12,-304 514.12,-324"/>
<text text-anchor="middle" x="438.25" y="-310.5" font-family="Helvetica,sans-Serif" font-size="10.00">AELogParser::filterQueueName</text>
</a>
</g>
</g>
<!-- Node2&#45;&gt;Node6 -->
<g id="edge6_Node000002_Node000006" class="edge">
<title>Node2&#45;&gt;Node6</title>
<g id="a_edge6_Node000002_Node000006"><a xlink:title=" ">
<path fill="none" stroke="#63b8ff" d="M320.44,-314C330.22,-314 340.44,-314 350.58,-314"/>
<polygon fill="#63b8ff" stroke="#63b8ff" points="350.47,-317.5 360.47,-314 350.47,-310.5 350.47,-317.5"/>
</a>
</g>
</g>
<!-- Node10 -->
<g id="Node000010" class="node">
<title>Node10</title>
<g id="a_Node000010"><a xlink:href="../../da/dea/struct_a_e_log_entry.html#a42447b345f72f22ec655556af2db7c28" target="_top" xlink:title="Allocates the queue of the given size on the heap and returns the pointer to it&#39;s first node.">
<polygon fill="white" stroke="#666666" points="881,-286 754,-286 754,-266 881,-266 881,-286"/>
<text text-anchor="middle" x="817.5" y="-272.5" font-family="Helvetica,sans-Serif" font-size="10.00">AELogEntry::makeQueue</text>
</a>
</g>
</g>
<!-- Node2&#45;&gt;Node10 -->
<g id="edge11_Node000002_Node000010" class="edge">
<title>Node2&#45;&gt;Node10</title>
<g id="a_edge11_Node000002_Node000010"><a xlink:title=" ">
<path fill="none" stroke="#63b8ff" d="M302.95,-303.54C319.65,-300.26 338.58,-296.99 356,-295 491.7,-279.49 651.18,-276.21 742.39,-275.76"/>
<polygon fill="#63b8ff" stroke="#63b8ff" points="742.21,-279.26 752.2,-275.72 742.18,-272.26 742.21,-279.26"/>
</a>
</g>
</g>
<!-- Node11 -->
<g id="Node000011" class="node">
<title>Node11</title>
<g id="a_Node000011"><a xlink:href="../../d8/d52/class_a_e_log_parser.html#af3c28f50c5f52840be97e631d67b244c" target="_top" xlink:title="Read the next valid entry in the log file of the given severity and module name filter,...">
<polygon fill="white" stroke="#666666" points="499.12,-134 377.38,-134 377.38,-114 499.12,-114 499.12,-134"/>
<text text-anchor="middle" x="438.25" y="-120.5" font-family="Helvetica,sans-Serif" font-size="10.00">AELogParser::nextEntry</text>
</a>
</g>
</g>
<!-- Node2&#45;&gt;Node11 -->
<g id="edge12_Node000002_Node000011" class="edge">
<title>Node2&#45;&gt;Node11</title>
<g id="a_edge12_Node000002_Node000011"><a xlink:title=" ">
<path fill="none" stroke="#63b8ff" d="M265.29,-303.51C294.95,-272.56 382.37,-181.3 419.86,-142.16"/>
<polygon fill="#63b8ff" stroke="#63b8ff" points="422.02,-144.96 426.41,-135.31 416.97,-140.11 422.02,-144.96"/>
</a>
</g>
</g>
<!-- Node4 -->
<g id="Node000004" class="node">
<title>Node4</title>
<g id="a_Node000004"><a xlink:href="../../de/dde/namespaceace_1_1utils.html#a878c53ede8589dbc6a50734c9c4ad4d7" target="_top" xlink:title="Checks if the value is within some range.">
<polygon fill="white" stroke="#666666" points="1226.12,-362 1121.62,-362 1121.62,-342 1226.12,-342 1226.12,-362"/>
<text text-anchor="middle" x="1173.88" y="-348.5" font-family="Helvetica,sans-Serif" font-size="10.00">ace::utils::isInRange</text>
</a>
</g>
</g>
<!-- Node3&#45;&gt;Node4 -->
<g id="edge3_Node000003_Node000004" class="edge">
<title>Node3&#45;&gt;Node4</title>
<g id="a_edge3_Node000003_Node000004"><a xlink:title=" ">
<path fill="none" stroke="#63b8ff" d="M520.41,-422.81C642.98,-428.17 881.98,-431.22 1079.25,-389 1100.9,-384.37 1124.06,-375.26 1141.92,-367.23"/>
<polygon fill="#63b8ff" stroke="#63b8ff" points="1143.32,-370.44 1150.93,-363.07 1140.38,-364.09 1143.32,-370.44"/>
</a>
</g>
</g>
<!-- Node5&#45;&gt;Node4 -->
<g id="edge5_Node000005_Node000004" class="edge">
<title>Node5&#45;&gt;Node4</title>
<g id="a_edge5_Node000005_Node000004"><a xlink:title=" ">
<path fill="none" stroke="#63b8ff" d="M520.84,-376.2C642.72,-382.8 879.42,-391.07 1079.25,-371 1092.4,-369.68 1106.43,-367.34 1119.52,-364.75"/>
<polygon fill="#63b8ff" stroke="#63b8ff" points="1120.17,-368.18 1129.25,-362.73 1118.75,-361.33 1120.17,-368.18"/>
</a>
</g>
</g>
<!-- Node7 -->
<g id="Node000007" class="node">
<title>Node7</title>
<g id="a_Node000007"><a xlink:href="../../d8/d52/class_a_e_log_parser.html#a7c3e2c0736eb6a3ccd84a528d72835ad" target="_top" xlink:title="Filters the passed queue according to the given severity and modulename filters.">
<polygon fill="white" stroke="#666666" points="694.75,-324 568.5,-324 568.5,-304 694.75,-304 694.75,-324"/>
<text text-anchor="middle" x="631.62" y="-310.5" font-family="Helvetica,sans-Serif" font-size="10.00">AELogParser::filterQueue</text>
</a>
</g>
</g>
<!-- Node6&#45;&gt;Node7 -->
<g id="edge7_Node000006_Node000007" class="edge">
<title>Node6&#45;&gt;Node7</title>
<g id="a_edge7_Node000006_Node000007"><a xlink:title=" ">
<path fill="none" stroke="#63b8ff" d="M514.61,-314C528.5,-314 542.99,-314 556.84,-314"/>
<polygon fill="#63b8ff" stroke="#63b8ff" points="556.78,-317.5 566.78,-314 556.78,-310.5 556.78,-317.5"/>
</a>
</g>
</g>
<!-- Node8 -->
<g id="Node000008" class="node">
<title>Node8</title>
<g id="a_Node000008"><a xlink:href="../../d8/d52/class_a_e_log_parser.html#a21f7748ae4be67f2221a114cbe9bca7c" target="_top" xlink:title="Checks if the passed severity is valid compared to the filtering severity.">
<polygon fill="white" stroke="#666666" points="1074,-362 933.5,-362 933.5,-342 1074,-342 1074,-362"/>
<text text-anchor="middle" x="1003.75" y="-348.5" font-family="Helvetica,sans-Serif" font-size="10.00">AELogParser::checkSeverity</text>
</a>
</g>
</g>
<!-- Node7&#45;&gt;Node8 -->
<g id="edge8_Node000007_Node000008" class="edge">
<title>Node7&#45;&gt;Node8</title>
<g id="a_edge8_Node000007_Node000008"><a xlink:title=" ">
<path fill="none" stroke="#63b8ff" d="M687.08,-324.48C704.78,-327.6 724.55,-330.77 742.75,-333 802.47,-340.32 870.29,-345.16 921.68,-348.12"/>
<polygon fill="#63b8ff" stroke="#63b8ff" points="921.35,-351.61 931.54,-348.68 921.75,-344.62 921.35,-351.61"/>
</a>
</g>
</g>
<!-- Node9 -->
<g id="Node000009" class="node">
<title>Node9</title>
<g id="a_Node000009"><a xlink:href="../../da/dea/struct_a_e_log_entry.html#a0fc1a114dbbaf785643b6558509f8e0c" target="_top" xlink:title="Makes a normal copy of the log entry, copying everything but the pointer to the next node.">
<polygon fill="white" stroke="#666666" points="876.88,-324 758.12,-324 758.12,-304 876.88,-304 876.88,-324"/>
<text text-anchor="middle" x="817.5" y="-310.5" font-family="Helvetica,sans-Serif" font-size="10.00">AELogEntry::copyEntry</text>
</a>
</g>
</g>
<!-- Node7&#45;&gt;Node9 -->
<g id="edge9_Node000007_Node000009" class="edge">
<title>Node7&#45;&gt;Node9</title>
<g id="a_edge9_Node000007_Node000009"><a xlink:title=" ">
<path fill="none" stroke="#63b8ff" d="M695.13,-314C711.63,-314 729.54,-314 746.4,-314"/>
<polygon fill="#63b8ff" stroke="#63b8ff" points="746.37,-317.5 756.37,-314 746.37,-310.5 746.37,-317.5"/>
</a>
</g>
</g>
<!-- Node7&#45;&gt;Node10 -->
<g id="edge10_Node000007_Node000010" class="edge">
<title>Node7&#45;&gt;Node10</title>
<g id="a_edge10_Node000007_Node000010"><a xlink:title=" ">
<path fill="none" stroke="#63b8ff" d="M683.36,-303.52C705.46,-298.95 731.58,-293.55 754.8,-288.75"/>
<polygon fill="#63b8ff" stroke="#63b8ff" points="755.37,-292.21 764.45,-286.76 753.95,-285.35 755.37,-292.21"/>
</a>
</g>
</g>
<!-- Node12 -->
<g id="Node000012" class="node">
<title>Node12</title>
<g id="a_Node000012"><a xlink:href="../../d8/d52/class_a_e_log_parser.html#ae89b754ad98409469e9b7405f63edee2" target="_top" xlink:title="Read the next indexed valid log entry in the file of the given severity and module name filter,...">
<polygon fill="white" stroke="#666666" points="706.75,-210 556.5,-210 556.5,-190 706.75,-190 706.75,-210"/>
<text text-anchor="middle" x="631.62" y="-196.5" font-family="Helvetica,sans-Serif" font-size="10.00">AELogParser::nextEntryCursor</text>
</a>
</g>
</g>
<!-- Node11&#45;&gt;Node12 -->
<g id="edge13_Node000011_Node000012" class="edge">
<title>Node11&#45;&gt;Node12</title>
<g id="a_edge13_Node000011_Node000012"><a xlink:title=" ">
<path fill="none" stroke="#63b8ff" d="M465.46,-134.41C498.72,-147.62 556.28,-170.48 593.91,-185.42"/>
<polygon fill="#63b8ff" stroke="#63b8ff" points="592.43,-188.6 603.02,-189.04 595.02,-182.09 592.43,-188.6"/>
</a>
</g>
</g>
<!-- Node21 -->
<g id="Node000021" class="node">
<title>Node21</title>
<g id="a_Node000021"><a xlink:href="../../da/dea/struct_a_e_log_entry.html#a7e8aa04faf251d62a79baab9e2cc531a" target="_top" xlink:title="Parses a given string as a log entry, and write it into passed entry object.">
<polygon fill="white" stroke="#666666" points="705.25,-134 558,-134 558,-114 705.25,-114 705.25,-134"/>
<text text-anchor="middle" x="631.62" y="-120.5" font-family="Helvetica,sans-Serif" font-size="10.00">AELogEntry::parseStringEntry</text>
</a>
</g>
</g>
<!-- Node11&#45;&gt;Node21 -->
<g id="edge26_Node000011_Node000021" class="edge">
<title>Node11&#45;&gt;Node21</title>
<g id="a_edge26_Node000011_Node000021"><a xlink:title=" ">
<path fill="none" stroke="#63b8ff" d="M499.54,-124C514.35,-124 530.48,-124 546.2,-124"/>
<polygon fill="#63b8ff" stroke="#63b8ff" points="546.03,-127.5 556.03,-124 546.03,-120.5 546.03,-127.5"/>
</a>
</g>
</g>
<!-- Node26 -->
<g id="Node000026" class="node">
<title>Node26</title>
<g id="a_Node000026"><a xlink:href="../../dd/dd5/class_a_e_file_reader.html#a391b5815b099e3d347a4d758a92e3295" target="_top" xlink:title="Reads the characters to a std::string untill a newline (included), or untill the maximum character am...">
<polygon fill="white" stroke="#666666" points="700.75,-78 562.5,-78 562.5,-58 700.75,-58 700.75,-78"/>
<text text-anchor="middle" x="631.62" y="-64.5" font-family="Helvetica,sans-Serif" font-size="10.00">AEFileReader::readStringNL</text>
</a>
</g>
</g>
<!-- Node11&#45;&gt;Node26 -->
<g id="edge31_Node000011_Node000026" class="edge">
<title>Node11&#45;&gt;Node26</title>
<g id="a_edge31_Node000011_Node000026"><a xlink:title=" ">
<path fill="none" stroke="#63b8ff" d="M474.8,-113.6C505.58,-104.59 550.34,-91.49 583.99,-81.65"/>
<polygon fill="#63b8ff" stroke="#63b8ff" points="584.88,-85.03 593.49,-78.87 582.91,-78.32 584.88,-85.03"/>
</a>
</g>
</g>
<!-- Node27 -->
<g id="Node000027" class="node">
<title>Node27</title>
<g id="a_Node000027"><a xlink:href="../../dd/dd5/class_a_e_file_reader.html#a477effa6d568ec7993c4d506d0d0420c" target="_top" xlink:title="Sets read cursor position to pos from origin.">
<polygon fill="white" stroke="#666666" points="702.25,-30 561,-30 561,-10 702.25,-10 702.25,-30"/>
<text text-anchor="middle" x="631.62" y="-16.5" font-family="Helvetica,sans-Serif" font-size="10.00">AEFileReader::setCursorPos</text>
</a>
</g>
</g>
<!-- Node11&#45;&gt;Node27 -->
<g id="edge33_Node000011_Node000027" class="edge">
<title>Node11&#45;&gt;Node27</title>
<g id="a_edge33_Node000011_Node000027"><a xlink:title=" ">
<path fill="none" stroke="#63b8ff" d="M453.51,-113.57C475.05,-98.12 517.53,-68.85 556.5,-49 566.94,-43.69 578.59,-38.71 589.5,-34.44"/>
<polygon fill="#63b8ff" stroke="#63b8ff" points="590.59,-37.77 598.69,-30.94 588.1,-31.23 590.59,-37.77"/>
</a>
</g>
</g>
<!-- Node13 -->
<g id="Node000013" class="node">
<title>Node13</title>
<g id="a_Node000013"><a xlink:href="../../d8/d52/class_a_e_log_parser.html#a77b12a5ddd2933a8319e523986788292" target="_top" xlink:title="Determines the error codes from the invalid values in the passed AELogEntryInfo instance.">
<polygon fill="white" stroke="#666666" points="892.25,-248 742.75,-248 742.75,-228 892.25,-228 892.25,-248"/>
<text text-anchor="middle" x="817.5" y="-234.5" font-family="Helvetica,sans-Serif" font-size="10.00">AELogParser::errorFromAELEI</text>
</a>
</g>
</g>
<!-- Node12&#45;&gt;Node13 -->
<g id="edge14_Node000012_Node000013" class="edge">
<title>Node12&#45;&gt;Node13</title>
<g id="a_edge14_Node000012_Node000013"><a xlink:title=" ">
<path fill="none" stroke="#63b8ff" d="M683.36,-210.48C705.46,-215.05 731.58,-220.45 754.8,-225.25"/>
<polygon fill="#63b8ff" stroke="#63b8ff" points="753.95,-228.65 764.45,-227.24 755.37,-221.79 753.95,-228.65"/>
</a>
</g>
</g>
<!-- Node14 -->
<g id="Node000014" class="node">
<title>Node14</title>
<g id="a_Node000014"><a xlink:href="../../d8/d52/class_a_e_log_parser.html#afcff7caee18bdcafa1dc0edb75a75590" target="_top" xlink:title="Finds the AELogEntryInfo corresponding to the next log entry with the specified severity and module n...">
<polygon fill="white" stroke="#666666" points="886.62,-210 748.38,-210 748.38,-190 886.62,-190 886.62,-210"/>
<text text-anchor="middle" x="817.5" y="-196.5" font-family="Helvetica,sans-Serif" font-size="10.00">AELogParser::findNextEntry</text>
</a>
</g>
</g>
<!-- Node12&#45;&gt;Node14 -->
<g id="edge15_Node000012_Node000014" class="edge">
<title>Node12&#45;&gt;Node14</title>
<g id="a_edge15_Node000012_Node000014"><a xlink:title=" ">
<path fill="none" stroke="#63b8ff" d="M707.15,-200C716.88,-200 726.88,-200 736.69,-200"/>
<polygon fill="#63b8ff" stroke="#63b8ff" points="736.59,-203.5 746.59,-200 736.59,-196.5 736.59,-203.5"/>
</a>
</g>
</g>
<!-- Node14&#45;&gt;Node4 -->
<g id="edge25_Node000014_Node000004" class="edge">
<title>Node14&#45;&gt;Node4</title>
<g id="a_edge25_Node000014_Node000004"><a xlink:title=" ">
<path fill="none" stroke="#63b8ff" d="M878.34,-210.39C883.34,-212.71 888.07,-215.55 892.25,-219 921.07,-242.8 899.16,-271.54 928.25,-295 935.5,-300.85 1042.04,-324.28 1112.1,-339.22"/>
<polygon fill="#63b8ff" stroke="#63b8ff" points="1111.03,-342.57 1121.54,-341.23 1112.48,-335.72 1111.03,-342.57"/>
</a>
</g>
</g>
<!-- Node14&#45;&gt;Node8 -->
<g id="edge17_Node000014_Node000008" class="edge">
<title>Node14&#45;&gt;Node8</title>
<g id="a_edge17_Node000014_Node000008"><a xlink:title=" ">
<path fill="none" stroke="#63b8ff" d="M879.87,-210.4C884.38,-212.74 888.58,-215.57 892.25,-219 929.51,-253.85 892.04,-292.06 928.25,-328 931.47,-331.19 935.11,-333.96 939.02,-336.36"/>
<polygon fill="#63b8ff" stroke="#63b8ff" points="937.33,-339.43 947.82,-340.91 940.54,-333.21 937.33,-339.43"/>
</a>
</g>
</g>
<!-- Node15 -->
<g id="Node000015" class="node">
<title>Node15</title>
<g id="a_Node000015"><a xlink:href="../../d8/d52/class_a_e_log_parser.html#a8e16a086fe0cb5cc6828b53b0a97a1bf" target="_top" xlink:title="Checks if the passed entry&#39;s and filter&#39;s module name indices match Moved from a lambda,...">
<polygon fill="white" stroke="#666666" points="1073.62,-286 933.88,-286 933.88,-266 1073.62,-266 1073.62,-286"/>
<text text-anchor="middle" x="1003.75" y="-272.5" font-family="Helvetica,sans-Serif" font-size="10.00">AELogParser::checkMName</text>
</a>
</g>
</g>
<!-- Node14&#45;&gt;Node15 -->
<g id="edge16_Node000014_Node000015" class="edge">
<title>Node14&#45;&gt;Node15</title>
<g id="a_edge16_Node000014_Node000015"><a xlink:title=" ">
<path fill="none" stroke="#63b8ff" d="M873.46,-210.45C880.02,-212.77 886.44,-215.58 892.25,-219 912.3,-230.81 908.19,-245.22 928.25,-257 930.91,-258.56 933.7,-260 936.57,-261.32"/>
<polygon fill="#63b8ff" stroke="#63b8ff" points="935.25,-264.56 945.83,-265.03 937.85,-258.06 935.25,-264.56"/>
</a>
</g>
</g>
<!-- Node16 -->
<g id="Node000016" class="node">
<title>Node16</title>
<g id="a_Node000016"><a xlink:href="../../d8/d52/class_a_e_log_parser.html#a04627d27deedd7981a5e106dd8ade5ed" target="_top" xlink:title="Checks if the current log file contains the given severity (or higher, depending on the &quot;strict&#45;sever...">
<polygon fill="white" stroke="#666666" points="1079.25,-248 928.25,-248 928.25,-228 1079.25,-228 1079.25,-248"/>
<text text-anchor="middle" x="1003.75" y="-234.5" font-family="Helvetica,sans-Serif" font-size="10.00">AELogParser::containsSeverity</text>
</a>
</g>
</g>
<!-- Node14&#45;&gt;Node16 -->
<g id="edge18_Node000014_Node000016" class="edge">
<title>Node14&#45;&gt;Node16</title>
<g id="a_edge18_Node000014_Node000016"><a xlink:title=" ">
<path fill="none" stroke="#63b8ff" d="M869.33,-210.48C891.49,-215.05 917.66,-220.45 940.92,-225.25"/>
<polygon fill="#63b8ff" stroke="#63b8ff" points="940.1,-228.65 950.6,-227.24 941.51,-221.8 940.1,-228.65"/>
</a>
</g>
</g>
<!-- Node17 -->
<g id="Node000017" class="node">
<title>Node17</title>
<g id="a_Node000017"><a xlink:href="../../d8/d52/class_a_e_log_parser.html#af349b880be4cdd8c6d27960a038680ab" target="_top" xlink:title="Checks if the file is closed by the AELogParser.">
<polygon fill="white" stroke="#666666" points="1232.5,-229 1115.25,-229 1115.25,-209 1232.5,-209 1232.5,-229"/>
<text text-anchor="middle" x="1173.88" y="-215.5" font-family="Helvetica,sans-Serif" font-size="10.00">AELogParser::isClosed</text>
</a>
</g>
</g>
<!-- Node14&#45;&gt;Node17 -->
<g id="edge24_Node000014_Node000017" class="edge">
<title>Node14&#45;&gt;Node17</title>
<g id="a_edge24_Node000014_Node000017"><a xlink:title=" ">
<path fill="none" stroke="#63b8ff" d="M886.83,-203.66C949.22,-207.01 1041,-211.93 1103.67,-215.29"/>
<polygon fill="#63b8ff" stroke="#63b8ff" points="1103.33,-218.78 1113.5,-215.82 1103.7,-211.79 1103.33,-218.78"/>
</a>
</g>
</g>
<!-- Node20 -->
<g id="Node000020" class="node">
<title>Node20</title>
<g id="a_Node000020"><a xlink:href="../../db/d7b/struct_a_e_log_entry_info.html#af5f2718c2846e38977e660dd8fb59333" target="_top" xlink:title="Returns the invalid instance of the AELogEntryInfo.">
<polygon fill="white" stroke="#666666" points="1073.25,-172 934.25,-172 934.25,-152 1073.25,-152 1073.25,-172"/>
<text text-anchor="middle" x="1003.75" y="-158.5" font-family="Helvetica,sans-Serif" font-size="10.00">AELogEntryInfo::invalidEntry</text>
</a>
</g>
</g>
<!-- Node14&#45;&gt;Node20 -->
<g id="edge23_Node000014_Node000020" class="edge">
<title>Node14&#45;&gt;Node20</title>
<g id="a_edge23_Node000014_Node000020"><a xlink:title=" ">
<path fill="none" stroke="#63b8ff" d="M869.33,-189.52C891.49,-184.95 917.66,-179.55 940.92,-174.75"/>
<polygon fill="#63b8ff" stroke="#63b8ff" points="941.51,-178.2 950.6,-172.76 940.1,-171.35 941.51,-178.2"/>
</a>
</g>
</g>
<!-- Node16&#45;&gt;Node4 -->
<g id="edge22_Node000016_Node000004" class="edge">
<title>Node16&#45;&gt;Node4</title>
<g id="a_edge22_Node000016_Node000004"><a xlink:title=" ">
<path fill="none" stroke="#63b8ff" d="M1059.81,-248.38C1066.58,-250.71 1073.23,-253.54 1079.25,-257 1112.71,-276.21 1142.27,-310.66 1158.84,-332.37"/>
<polygon fill="#63b8ff" stroke="#63b8ff" points="1156.03,-334.45 1164.8,-340.4 1161.65,-330.28 1156.03,-334.45"/>
</a>
</g>
</g>
<!-- Node16&#45;&gt;Node17 -->
<g id="edge19_Node000016_Node000017" class="edge">
<title>Node16&#45;&gt;Node17</title>
<g id="a_edge19_Node000016_Node000017"><a xlink:title=" ">
<path fill="none" stroke="#63b8ff" d="M1079.47,-229.56C1087.43,-228.66 1095.49,-227.74 1103.38,-226.85"/>
<polygon fill="#63b8ff" stroke="#63b8ff" points="1103.74,-230.34 1113.28,-225.73 1102.95,-223.38 1103.74,-230.34"/>
</a>
</g>
</g>
<!-- Node18 -->
<g id="Node000018" class="node">
<title>Node18</title>
<g id="a_Node000018"><a xlink:href="../../dd/dd5/class_a_e_file_reader.html#a81bb672d7d1a142c7473d880a3842073" target="_top" xlink:title="Checks if a file isn&#39;t open by this file&#45;reader.">
<polygon fill="white" stroke="#666666" points="1388,-229 1268.5,-229 1268.5,-209 1388,-209 1388,-229"/>
<text text-anchor="middle" x="1328.25" y="-215.5" font-family="Helvetica,sans-Serif" font-size="10.00">AEFileReader::isClosed</text>
</a>
</g>
</g>
<!-- Node17&#45;&gt;Node18 -->
<g id="edge20_Node000017_Node000018" class="edge">
<title>Node17&#45;&gt;Node18</title>
<g id="a_edge20_Node000017_Node000018"><a xlink:title=" ">
<path fill="none" stroke="#63b8ff" d="M1232.92,-219C1240.75,-219 1248.85,-219 1256.87,-219"/>
<polygon fill="#63b8ff" stroke="#63b8ff" points="1256.59,-222.5 1266.59,-219 1256.59,-215.5 1256.59,-222.5"/>
</a>
</g>
</g>
<!-- Node19 -->
<g id="Node000019" class="node">
<title>Node19</title>
<g id="a_Node000019"><a xlink:href="../../dd/dd5/class_a_e_file_reader.html#a07f32763fbb1df143c8aab2be7b856c1" target="_top" xlink:title="Checks if a file is open by this file&#45;reader.">
<polygon fill="white" stroke="#666666" points="1536.75,-229 1424,-229 1424,-209 1536.75,-209 1536.75,-229"/>
<text text-anchor="middle" x="1480.38" y="-215.5" font-family="Helvetica,sans-Serif" font-size="10.00">AEFileReader::isOpen</text>
</a>
</g>
</g>
<!-- Node18&#45;&gt;Node19 -->
<g id="edge21_Node000018_Node000019" class="edge">
<title>Node18&#45;&gt;Node19</title>
<g id="a_edge21_Node000018_Node000019"><a xlink:title=" ">
<path fill="none" stroke="#63b8ff" d="M1388.15,-219C1396.08,-219 1404.26,-219 1412.32,-219"/>
<polygon fill="#63b8ff" stroke="#63b8ff" points="1412.07,-222.5 1422.07,-219 1412.07,-215.5 1412.07,-222.5"/>
</a>
</g>
</g>
<!-- Node22 -->
<g id="Node000022" class="node">
<title>Node22</title>
<g id="a_Node000022"><a xlink:href="../../da/dea/struct_a_e_log_entry.html#a58aeadbca0c2c0863b534a52d40d22a8" target="_top" xlink:title="Clears the current entry and sets its values to zero/invalid.">
<polygon fill="white" stroke="#666666" points="876.88,-172 758.12,-172 758.12,-152 876.88,-152 876.88,-172"/>
<text text-anchor="middle" x="817.5" y="-158.5" font-family="Helvetica,sans-Serif" font-size="10.00">AELogEntry::clearEntry</text>
</a>
</g>
</g>
<!-- Node21&#45;&gt;Node22 -->
<g id="edge27_Node000021_Node000022" class="edge">
<title>Node21&#45;&gt;Node22</title>
<g id="a_edge27_Node000021_Node000022"><a xlink:title=" ">
<path fill="none" stroke="#63b8ff" d="M683.36,-134.48C705.46,-139.05 731.58,-144.45 754.8,-149.25"/>
<polygon fill="#63b8ff" stroke="#63b8ff" points="753.95,-152.65 764.45,-151.24 755.37,-145.79 753.95,-152.65"/>
</a>
</g>
</g>
<!-- Node23 -->
<g id="Node000023" class="node">
<title>Node23</title>
<g id="a_Node000023"><a xlink:href="../../de/dde/namespaceace_1_1utils.html#ac3eadc5f289b54059322023f3c5eed96" target="_top" xlink:title="Checks if the passed string is alpha&#45;numeric with underscores (contains only numbers,...">
<polygon fill="white" stroke="#666666" points="872.75,-134 762.25,-134 762.25,-114 872.75,-114 872.75,-134"/>
<text text-anchor="middle" x="817.5" y="-120.5" font-family="Helvetica,sans-Serif" font-size="10.00">ace::utils::isAlNumUs</text>
</a>
</g>
</g>
<!-- Node21&#45;&gt;Node23 -->
<g id="edge28_Node000021_Node000023" class="edge">
<title>Node21&#45;&gt;Node23</title>
<g id="a_edge28_Node000021_Node000023"><a xlink:title=" ">
<path fill="none" stroke="#63b8ff" d="M705.56,-124C720.36,-124 735.84,-124 750.38,-124"/>
<polygon fill="#63b8ff" stroke="#63b8ff" points="750.3,-127.5 760.3,-124 750.3,-120.5 750.3,-127.5"/>
</a>
</g>
</g>
<!-- Node24 -->
<g id="Node000024" class="node">
<title>Node24</title>
<g id="a_Node000024"><a xlink:href="../../de/dde/namespaceace_1_1utils.html#a2c0379815bc24cc369071e0b48787e9b" target="_top" xlink:title="Converts the given c&#45;string to a (c)time point (std::time_t), using a set format.">
<polygon fill="white" stroke="#666666" points="875.75,-96 759.25,-96 759.25,-76 875.75,-76 875.75,-96"/>
<text text-anchor="middle" x="817.5" y="-82.5" font-family="Helvetica,sans-Serif" font-size="10.00">ace::utils::stringToDate</text>
</a>
</g>
</g>
<!-- Node21&#45;&gt;Node24 -->
<g id="edge29_Node000021_Node000024" class="edge">
<title>Node21&#45;&gt;Node24</title>
<g id="a_edge29_Node000021_Node000024"><a xlink:title=" ">
<path fill="none" stroke="#63b8ff" d="M683.36,-113.52C705.46,-108.95 731.58,-103.55 754.8,-98.75"/>
<polygon fill="#63b8ff" stroke="#63b8ff" points="755.37,-102.21 764.45,-96.76 753.95,-95.35 755.37,-102.21"/>
</a>
</g>
</g>
<!-- Node25 -->
<g id="Node000025" class="node">
<title>Node25</title>
<g id="a_Node000025"><a xlink:href="../../da/dea/struct_a_e_log_entry.html#acacb2f1cbf3218922db05169ef55d8cb" target="_top" xlink:title="Deduces the string representation of a type (as appears in the log file) to a corresponding type numb...">
<polygon fill="white" stroke="#666666" points="882.5,-58 752.5,-58 752.5,-38 882.5,-38 882.5,-58"/>
<text text-anchor="middle" x="817.5" y="-44.5" font-family="Helvetica,sans-Serif" font-size="10.00">AELogEntry::stringToType</text>
</a>
</g>
</g>
<!-- Node21&#45;&gt;Node25 -->
<g id="edge30_Node000021_Node000025" class="edge">
<title>Node21&#45;&gt;Node25</title>
<g id="a_edge30_Node000021_Node000025"><a xlink:title=" ">
<path fill="none" stroke="#63b8ff" d="M687.86,-113.57C694.45,-111.26 700.91,-108.43 706.75,-105 726.8,-93.21 722.7,-78.81 742.75,-67 745.38,-65.45 748.14,-64.02 750.98,-62.71"/>
<polygon fill="#63b8ff" stroke="#63b8ff" points="752.17,-66.01 760.14,-59.02 749.56,-59.51 752.17,-66.01"/>
</a>
</g>
</g>
<!-- Node26&#45;&gt;Node26 -->
<g id="edge32_Node000026_Node000026" class="edge">
<title>Node26&#45;&gt;Node26</title>
<g id="a_edge32_Node000026_Node000026"><a xlink:title=" ">
<path fill="none" stroke="#63b8ff" d="M602.09,-78.34C589.47,-86.98 599.31,-96 631.62,-96 649.8,-96 660.87,-93.14 664.82,-89.11"/>
<polygon fill="#63b8ff" stroke="#63b8ff" points="668.18,-88.11 661.65,-79.77 661.55,-90.37 668.18,-88.11"/>
</a>
</g>
</g>
<!-- Node28 -->
<g id="Node000028" class="node">
<title>Node28</title>
<g id="a_Node000028"><a xlink:href="../../dd/dd5/class_a_e_file_reader.html#abbc85b7bb94f31f54df561d23a38e3dc" target="_top" xlink:title="Reads the bytes (size of T) from the file and dumps/reinterprets them as the value in the passed vari...">
<polygon fill="white" stroke="#666666" points="885.5,-20 749.5,-20 749.5,0 885.5,0 885.5,-20"/>
<text text-anchor="middle" x="817.5" y="-6.5" font-family="Helvetica,sans-Serif" font-size="10.00">AEFileReader::readVariable</text>
</a>
</g>
</g>
<!-- Node27&#45;&gt;Node28 -->
<g id="edge34_Node000027_Node000028" class="edge">
<title>Node27&#45;&gt;Node28</title>
<g id="a_edge34_Node000027_Node000028"><a xlink:title=" ">
<path fill="none" stroke="#63b8ff" d="M702.66,-16.19C714.08,-15.57 725.98,-14.92 737.59,-14.29"/>
<polygon fill="#63b8ff" stroke="#63b8ff" points="737.78,-17.79 747.57,-13.75 737.4,-10.8 737.78,-17.79"/>
</a>
</g>
</g>
<!-- Node29 -->
<g id="Node000029" class="node">
<title>Node29</title>
<g id="a_Node000029"><a xlink:href="../../dd/dd5/class_a_e_file_reader.html#a67d3baebff92aaa0b41216cb67a91e4c" target="_top" xlink:title="Reads an array of dcount elements, each one with a size of dsize bytes, to memory block pointed by cd...">
<polygon fill="white" stroke="#666666" points="1072.5,-20 935,-20 935,0 1072.5,0 1072.5,-20"/>
<text text-anchor="middle" x="1003.75" y="-6.5" font-family="Helvetica,sans-Serif" font-size="10.00">AEFileReader::readData_ptr</text>
</a>
</g>
</g>
<!-- Node28&#45;&gt;Node29 -->
<g id="edge35_Node000028_Node000029" class="edge">
<title>Node28&#45;&gt;Node29</title>
<g id="a_edge35_Node000028_Node000029"><a xlink:title=" ">
<path fill="none" stroke="#63b8ff" d="M885.8,-10C898,-10 910.83,-10 923.34,-10"/>
<polygon fill="#63b8ff" stroke="#63b8ff" points="923.19,-13.5 933.19,-10 923.19,-6.5 923.19,-13.5"/>
</a>
</g>
</g>
</g>
</svg>
