<?xml version="1.0" encoding="UTF-8" standalone="no"?>
<!DOCTYPE svg PUBLIC "-//W3C//DTD SVG 1.1//EN"
 "http://www.w3.org/Graphics/SVG/1.1/DTD/svg11.dtd">
<!-- Generated by graphviz version 10.0.1 (20240210.2158)
 -->
<!-- Title: AELogParser::filterQueueType Pages: 1 -->
<svg width="494pt" height="104pt"
 viewBox="0.00 0.00 494.00 104.00" xmlns="http://www.w3.org/2000/svg" xmlns:xlink="http://www.w3.org/1999/xlink">
<g id="graph0" class="graph" transform="scale(1 1) rotate(0) translate(4 100)">
<title>AELogParser::filterQueueType</title>
<!-- Node1 -->
<g id="Node000001" class="node">
<title>Node1</title>
<g id="a_Node000001"><a xlink:title="Filters the passed queue according to the given severity.">
<polygon fill="#999999" stroke="#666666" points="147.25,-58 0,-58 0,-38 147.25,-38 147.25,-58"/>
<text text-anchor="middle" x="73.62" y="-44.5" font-family="Helvetica,sans-Serif" font-size="10.00">AELogParser::filterQueueType</text>
</a>
</g>
</g>
<!-- Node2 -->
<g id="Node000002" class="node">
<title>Node2</title>
<g id="a_Node000002"><a xlink:href="../../d8/d52/class_a_e_log_parser.html#a7c3e2c0736eb6a3ccd84a528d72835ad" target="_top" xlink:title="Filters the passed queue according to the given severity and modulename filters.">
<polygon fill="white" stroke="#666666" points="309.5,-58 183.25,-58 183.25,-38 309.5,-38 309.5,-58"/>
<text text-anchor="middle" x="246.38" y="-44.5" font-family="Helvetica,sans-Serif" font-size="10.00">AELogParser::filterQueue</text>
</a>
</g>
</g>
<!-- Node1&#45;&gt;Node2 -->
<g id="edge1_Node000001_Node000002" class="edge">
<title>Node1&#45;&gt;Node2</title>
<g id="a_edge1_Node000001_Node000002"><a xlink:title=" ">
<path fill="none" stroke="#63b8ff" d="M147.53,-48C155.45,-48 163.51,-48 171.44,-48"/>
<polygon fill="#63b8ff" stroke="#63b8ff" points="171.42,-51.5 181.42,-48 171.42,-44.5 171.42,-51.5"/>
</a>
</g>
</g>
<!-- Node3 -->
<g id="Node000003" class="node">
<title>Node3</title>
<g id="a_Node000003"><a xlink:href="../../d8/d52/class_a_e_log_parser.html#a21f7748ae4be67f2221a114cbe9bca7c" target="_top" xlink:title="Checks if the passed severity is valid compared to the filtering severity.">
<polygon fill="white" stroke="#666666" points="486,-96 345.5,-96 345.5,-76 486,-76 486,-96"/>
<text text-anchor="middle" x="415.75" y="-82.5" font-family="Helvetica,sans-Serif" font-size="10.00">AELogParser::checkSeverity</text>
</a>
</g>
</g>
<!-- Node2&#45;&gt;Node3 -->
<g id="edge2_Node000002_Node000003" class="edge">
<title>Node2&#45;&gt;Node3</title>
<g id="a_edge2_Node000002_Node000003"><a xlink:title=" ">
<path fill="none" stroke="#63b8ff" d="M293.55,-58.48C313.4,-62.99 336.8,-68.3 357.72,-73.05"/>
<polygon fill="#63b8ff" stroke="#63b8ff" points="356.72,-76.41 367.25,-75.21 358.27,-69.59 356.72,-76.41"/>
</a>
</g>
</g>
<!-- Node4 -->
<g id="Node000004" class="node">
<title>Node4</title>
<g id="a_Node000004"><a xlink:href="../../da/dea/struct_a_e_log_entry.html#a0fc1a114dbbaf785643b6558509f8e0c" target="_top" xlink:title="Makes a normal copy of the log entry, copying everything but the pointer to the next node.">
<polygon fill="white" stroke="#666666" points="475.12,-58 356.38,-58 356.38,-38 475.12,-38 475.12,-58"/>
<text text-anchor="middle" x="415.75" y="-44.5" font-family="Helvetica,sans-Serif" font-size="10.00">AELogEntry::copyEntry</text>
</a>
</g>
</g>
<!-- Node2&#45;&gt;Node4 -->
<g id="edge3_Node000002_Node000004" class="edge">
<title>Node2&#45;&gt;Node4</title>
<g id="a_edge3_Node000002_Node000004"><a xlink:title=" ">
<path fill="none" stroke="#63b8ff" d="M309.7,-48C321.06,-48 332.99,-48 344.56,-48"/>
<polygon fill="#63b8ff" stroke="#63b8ff" points="344.47,-51.5 354.47,-48 344.47,-44.5 344.47,-51.5"/>
</a>
</g>
</g>
<!-- Node5 -->
<g id="Node000005" class="node">
<title>Node5</title>
<g id="a_Node000005"><a xlink:href="../../da/dea/struct_a_e_log_entry.html#a42447b345f72f22ec655556af2db7c28" target="_top" xlink:title="Allocates the queue of the given size on the heap and returns the pointer to it&#39;s first node.">
<polygon fill="white" stroke="#666666" points="479.25,-20 352.25,-20 352.25,0 479.25,0 479.25,-20"/>
<text text-anchor="middle" x="415.75" y="-6.5" font-family="Helvetica,sans-Serif" font-size="10.00">AELogEntry::makeQueue</text>
</a>
</g>
</g>
<!-- Node2&#45;&gt;Node5 -->
<g id="edge4_Node000002_Node000005" class="edge">
<title>Node2&#45;&gt;Node5</title>
<g id="a_edge4_Node000002_Node000005"><a xlink:title=" ">
<path fill="none" stroke="#63b8ff" d="M293.55,-37.52C313.4,-33.01 336.8,-27.7 357.72,-22.95"/>
<polygon fill="#63b8ff" stroke="#63b8ff" points="358.27,-26.41 367.25,-20.79 356.72,-19.59 358.27,-26.41"/>
</a>
</g>
</g>
</g>
</svg>
