<?xml version="1.0" encoding="UTF-8" standalone="no"?>
<!DOCTYPE svg PUBLIC "-//W3C//DTD SVG 1.1//EN"
 "http://www.w3.org/Graphics/SVG/1.1/DTD/svg11.dtd">
<!-- Generated by graphviz version 10.0.1 (20240210.2158)
 -->
<!-- Title: AELogParser::errorFromAELEI Pages: 1 -->
<svg width="932pt" height="161pt"
 viewBox="0.00 0.00 931.75 161.00" xmlns="http://www.w3.org/2000/svg" xmlns:xlink="http://www.w3.org/1999/xlink">
<g id="graph0" class="graph" transform="scale(1 1) rotate(0) translate(4 157)">
<title>AELogParser::errorFromAELEI</title>
<!-- Node1 -->
<g id="Node000001" class="node">
<title>Node1</title>
<g id="a_Node000001"><a xlink:title="Determines the error codes from the invalid values in the passed AELogEntryInfo instance.">
<polygon fill="#999999" stroke="#666666" points="923.75,-58 774.25,-58 774.25,-38 923.75,-38 923.75,-58"/>
<text text-anchor="middle" x="849" y="-44.5" font-family="Helvetica,sans-Serif" font-size="10.00">AELogParser::errorFromAELEI</text>
</a>
</g>
</g>
<!-- Node2 -->
<g id="Node000002" class="node">
<title>Node2</title>
<g id="a_Node000002"><a xlink:href="../../d8/d52/class_a_e_log_parser.html#ae89b754ad98409469e9b7405f63edee2" target="_top" xlink:title="Read the next indexed valid log entry in the file of the given severity and module name filter,...">
<polygon fill="white" stroke="#666666" points="738.25,-58 588,-58 588,-38 738.25,-38 738.25,-58"/>
<text text-anchor="middle" x="663.12" y="-44.5" font-family="Helvetica,sans-Serif" font-size="10.00">AELogParser::nextEntryCursor</text>
</a>
</g>
</g>
<!-- Node1&#45;&gt;Node2 -->
<g id="edge1_Node000001_Node000002" class="edge">
<title>Node1&#45;&gt;Node2</title>
<g id="a_edge1_Node000001_Node000002"><a xlink:title=" ">
<path fill="none" stroke="#63b8ff" d="M762.69,-48C754.63,-48 746.51,-48 738.57,-48"/>
<polygon fill="#63b8ff" stroke="#63b8ff" points="762.49,-51.5 772.49,-48 762.49,-44.5 762.49,-51.5"/>
</a>
</g>
</g>
<!-- Node3 -->
<g id="Node000003" class="node">
<title>Node3</title>
<g id="a_Node000003"><a xlink:href="../../d8/d52/class_a_e_log_parser.html#af3c28f50c5f52840be97e631d67b244c" target="_top" xlink:title="Read the next valid entry in the log file of the given severity and module name filter,...">
<polygon fill="white" stroke="#666666" points="525,-96 403.25,-96 403.25,-76 525,-76 525,-96"/>
<text text-anchor="middle" x="464.12" y="-82.5" font-family="Helvetica,sans-Serif" font-size="10.00">AELogParser::nextEntry</text>
</a>
</g>
</g>
<!-- Node2&#45;&gt;Node3 -->
<g id="edge2_Node000002_Node000003" class="edge">
<title>Node2&#45;&gt;Node3</title>
<g id="a_edge2_Node000002_Node000003"><a xlink:title=" ">
<path fill="none" stroke="#63b8ff" d="M596.51,-60.66C571.45,-65.49 543.18,-70.94 519.3,-75.55"/>
<polygon fill="#63b8ff" stroke="#63b8ff" points="597.13,-64.1 606.29,-58.77 595.8,-57.23 597.13,-64.1"/>
</a>
</g>
</g>
<!-- Node9 -->
<g id="Node000009" class="node">
<title>Node9</title>
<g id="a_Node000009"><a xlink:href="../../d8/d52/class_a_e_log_parser.html#a6e74863a220efa6ca9c3b3067d953469" target="_top" xlink:title="Read the next indexed valid log entry in the file of the given module name filter,...">
<polygon fill="white" stroke="#666666" points="552,-58 376.25,-58 376.25,-38 552,-38 552,-58"/>
<text text-anchor="middle" x="464.12" y="-44.5" font-family="Helvetica,sans-Serif" font-size="10.00">AELogParser::nextEntryCursorName</text>
</a>
</g>
</g>
<!-- Node2&#45;&gt;Node9 -->
<g id="edge8_Node000002_Node000009" class="edge">
<title>Node2&#45;&gt;Node9</title>
<g id="a_edge8_Node000002_Node000009"><a xlink:title=" ">
<path fill="none" stroke="#63b8ff" d="M576.15,-48C568.23,-48 560.21,-48 552.28,-48"/>
<polygon fill="#63b8ff" stroke="#63b8ff" points="576.13,-51.5 586.13,-48 576.13,-44.5 576.13,-51.5"/>
</a>
</g>
</g>
<!-- Node10 -->
<g id="Node000010" class="node">
<title>Node10</title>
<g id="a_Node000010"><a xlink:href="../../d8/d52/class_a_e_log_parser.html#aff3bcd025e52cd530cbb576d47915c53" target="_top" xlink:title="Read the next indexed valid log entry in the file of the given severity filter and return it&#39;s file c...">
<polygon fill="white" stroke="#666666" points="549.75,-20 378.5,-20 378.5,0 549.75,0 549.75,-20"/>
<text text-anchor="middle" x="464.12" y="-6.5" font-family="Helvetica,sans-Serif" font-size="10.00">AELogParser::nextEntryCursorType</text>
</a>
</g>
</g>
<!-- Node2&#45;&gt;Node10 -->
<g id="edge9_Node000002_Node000010" class="edge">
<title>Node2&#45;&gt;Node10</title>
<g id="a_edge9_Node000002_Node000010"><a xlink:title=" ">
<path fill="none" stroke="#63b8ff" d="M596.51,-35.34C571.45,-30.51 543.18,-25.06 519.3,-20.45"/>
<polygon fill="#63b8ff" stroke="#63b8ff" points="595.8,-38.77 606.29,-37.23 597.13,-31.9 595.8,-38.77"/>
</a>
</g>
</g>
<!-- Node4 -->
<g id="Node000004" class="node">
<title>Node4</title>
<g id="a_Node000004"><a xlink:href="../../d8/d52/class_a_e_log_parser.html#a182d51b4aa5771e2e6f6919300e571ca" target="_top" xlink:title="Same as the AELogParser::nextEntry() but on massive scale – scans the whole log file and parses it to...">
<polygon fill="white" stroke="#666666" points="332.38,-134 200.88,-134 200.88,-114 332.38,-114 332.38,-134"/>
<text text-anchor="middle" x="266.62" y="-120.5" font-family="Helvetica,sans-Serif" font-size="10.00">AELogParser::logToQueue</text>
</a>
</g>
</g>
<!-- Node3&#45;&gt;Node4 -->
<g id="edge3_Node000003_Node000004" class="edge">
<title>Node3&#45;&gt;Node4</title>
<g id="a_edge3_Node000003_Node000004"><a xlink:title=" ">
<path fill="none" stroke="#63b8ff" d="M398.01,-98.66C373.14,-103.49 345.08,-108.94 321.39,-113.55"/>
<polygon fill="#63b8ff" stroke="#63b8ff" points="398.55,-102.12 407.7,-96.77 397.22,-95.25 398.55,-102.12"/>
</a>
</g>
</g>
<!-- Node7 -->
<g id="Node000007" class="node">
<title>Node7</title>
<g id="a_Node000007"><a xlink:href="../../d8/d52/class_a_e_log_parser.html#a768d4b94cbf1504d72f93ec5d131e915" target="_top" xlink:title="Read the next valid entry in the log file of the given module name, and parse it into the given AELog...">
<polygon fill="white" stroke="#666666" points="340.25,-96 193,-96 193,-76 340.25,-76 340.25,-96"/>
<text text-anchor="middle" x="266.62" y="-82.5" font-family="Helvetica,sans-Serif" font-size="10.00">AELogParser::nextEntryName</text>
</a>
</g>
</g>
<!-- Node3&#45;&gt;Node7 -->
<g id="edge6_Node000003_Node000007" class="edge">
<title>Node3&#45;&gt;Node7</title>
<g id="a_edge6_Node000003_Node000007"><a xlink:title=" ">
<path fill="none" stroke="#63b8ff" d="M391.54,-86C374.88,-86 357.12,-86 340.4,-86"/>
<polygon fill="#63b8ff" stroke="#63b8ff" points="391.36,-89.5 401.36,-86 391.36,-82.5 391.36,-89.5"/>
</a>
</g>
</g>
<!-- Node8 -->
<g id="Node000008" class="node">
<title>Node8</title>
<g id="a_Node000008"><a xlink:href="../../d8/d52/class_a_e_log_parser.html#a0e03f67c2a0eaa0317904a2bd9f70cc0" target="_top" xlink:title="Read the next valid entry in the log file of the given severity, and parse it to the given AELogEntry...">
<polygon fill="white" stroke="#666666" points="338,-58 195.25,-58 195.25,-38 338,-38 338,-58"/>
<text text-anchor="middle" x="266.62" y="-44.5" font-family="Helvetica,sans-Serif" font-size="10.00">AELogParser::nextEntryType</text>
</a>
</g>
</g>
<!-- Node3&#45;&gt;Node8 -->
<g id="edge7_Node000003_Node000008" class="edge">
<title>Node3&#45;&gt;Node8</title>
<g id="a_edge7_Node000003_Node000008"><a xlink:title=" ">
<path fill="none" stroke="#63b8ff" d="M398.01,-73.34C373.14,-68.51 345.08,-63.06 321.39,-58.45"/>
<polygon fill="#63b8ff" stroke="#63b8ff" points="397.22,-76.75 407.7,-75.23 398.55,-69.88 397.22,-76.75"/>
</a>
</g>
</g>
<!-- Node5 -->
<g id="Node000005" class="node">
<title>Node5</title>
<g id="a_Node000005"><a xlink:href="../../d8/d52/class_a_e_log_parser.html#ae5044cf01623156d91ddc74492b0aeda" target="_top" xlink:title="A shortcut to AELogParser::logToQueue() to filter only by the module name of the log entries.">
<polygon fill="white" stroke="#666666" points="157,-153 0,-153 0,-133 157,-133 157,-153"/>
<text text-anchor="middle" x="78.5" y="-139.5" font-family="Helvetica,sans-Serif" font-size="10.00">AELogParser::logToQueueName</text>
</a>
</g>
</g>
<!-- Node4&#45;&gt;Node5 -->
<g id="edge4_Node000004_Node000005" class="edge">
<title>Node4&#45;&gt;Node5</title>
<g id="a_edge4_Node000004_Node000005"><a xlink:title=" ">
<path fill="none" stroke="#63b8ff" d="M189.25,-131.8C178.72,-132.87 167.9,-133.98 157.35,-135.05"/>
<polygon fill="#63b8ff" stroke="#63b8ff" points="189.43,-135.3 199.02,-130.8 188.72,-128.33 189.43,-135.3"/>
</a>
</g>
</g>
<!-- Node6 -->
<g id="Node000006" class="node">
<title>Node6</title>
<g id="a_Node000006"><a xlink:href="../../d8/d52/class_a_e_log_parser.html#ab84bb93f08ed48082f74b00290deb308" target="_top" xlink:title="A shortcut to AELogParser::logToQueue() to filter only by type/severity of the log entries.">
<polygon fill="white" stroke="#666666" points="154.75,-115 2.25,-115 2.25,-95 154.75,-95 154.75,-115"/>
<text text-anchor="middle" x="78.5" y="-101.5" font-family="Helvetica,sans-Serif" font-size="10.00">AELogParser::logToQueueType</text>
</a>
</g>
</g>
<!-- Node4&#45;&gt;Node6 -->
<g id="edge5_Node000004_Node000006" class="edge">
<title>Node4&#45;&gt;Node6</title>
<g id="a_edge5_Node000004_Node000006"><a xlink:title=" ">
<path fill="none" stroke="#63b8ff" d="M189.35,-116.21C178.04,-115.06 166.39,-113.87 155.09,-112.72"/>
<polygon fill="#63b8ff" stroke="#63b8ff" points="188.72,-119.67 199.02,-117.2 189.43,-112.7 188.72,-119.67"/>
</a>
</g>
</g>
</g>
</svg>
