<?xml version="1.0" encoding="UTF-8" standalone="no"?>
<!DOCTYPE svg PUBLIC "-//W3C//DTD SVG 1.1//EN"
 "http://www.w3.org/Graphics/SVG/1.1/DTD/svg11.dtd">
<!-- Generated by graphviz version 10.0.1 (20240210.2158)
 -->
<!-- Title: AELogParser::logToQueue Pages: 1 -->
<!--zoomable 436 -->

<svg id="main" version="1.1" xmlns="http://www.w3.org/2000/svg" xmlns:xlink="http://www.w3.org/1999/xlink" xml:space="preserve" onload="init(evt)">
<style type="text/css"><![CDATA[
.node, .edge {opacity: 0.7;}
.node.selected, .edge.selected {opacity: 1;}
.edge:hover path { stroke: red; }
.edge:hover polygon { stroke: red; fill: red; }
]]></style>

<defs>
  <circle id="rim" cx="0" cy="0" r="7"/>
  <circle id="rim2" cx="0" cy="0" r="3.5"/>
  <g id="zoomPlus">
    <use xlink:href="#rim" fill="#404040"><set attributeName="fill" to="#808080" begin="zoomplus.mouseover" end="zoomplus.mouseout"/></use>
    <path d="M-4,0h8M0,-4v8" fill="none" stroke="white" stroke-width="1.5" pointer-events="none"/>
  </g>
  <g id="zoomMin">
    <use xlink:href="#rim" fill="#404040"><set attributeName="fill" to="#808080" begin="zoomminus.mouseover" end="zoomminus.mouseout"/></use>
    <path d="M-4,0h8" fill="none" stroke="white" stroke-width="1.5" pointer-events="none"/>
  </g>
  <g id="arrowUp" transform="translate(30 24)">
    <use xlink:href="#rim"/>
    <path pointer-events="none" fill="none" stroke="white" stroke-width="1.5" d="M0,-3.0v7 M-2.5,-0.5L0,-3.0L2.5,-0.5"/>
  </g>
  <g id="arrowRight" transform="rotate(90) translate(36 -43)">
    <use xlink:href="#rim"/>
    <path pointer-events="none" fill="none" stroke="white" stroke-width="1.5" d="M0,-3.0v7 M-2.5,-0.5L0,-3.0L2.5,-0.5"/>
  </g>
  <g id="arrowDown" transform="rotate(180) translate(-30 -48)">
    <use xlink:href="#rim"/>
    <path pointer-events="none" fill="none" stroke="white" stroke-width="1.5" d="M0,-3.0v7 M-2.5,-0.5L0,-3.0L2.5,-0.5"/>
  </g>
  <g id="arrowLeft" transform="rotate(270) translate(-36 17)">
    <use xlink:href="#rim"/>
    <path pointer-events="none" fill="none" stroke="white" stroke-width="1.5" d="M0,-3.0v7 M-2.5,-0.5L0,-3.0L2.5,-0.5"/>
  </g>
  <g id="resetDef">
    <use xlink:href="#rim2" fill="#404040"><set attributeName="fill" to="#808080" begin="reset.mouseover" end="reset.mouseout"/></use>
  </g>
</defs>
<script type="application/ecmascript">
var viewWidth = 1356;
var viewHeight = 436;
var sectionId = 'dynsection-14';
</script>
<script type="application/ecmascript" xlink:href="../../svg.min.js"/>
<svg id="graph" class="graph">
<g id="viewport">
<title>AELogParser::logToQueue</title>
<!-- Node1 -->
<g id="Node000001" class="node">
<title>Node1</title>
<g id="a_Node000001"><a xlink:title="Same as the AELogParser::nextEntry() but on massive scale – scans the whole log file and parses it to...">
<polygon fill="#999999" stroke="#666666" points="131.5,-324 0,-324 0,-304 131.5,-304 131.5,-324"/>
<text text-anchor="middle" x="65.75" y="-310.5" font-family="Helvetica,sans-Serif" font-size="10.00">AELogParser::logToQueue</text>
</a>
</g>
</g>
<!-- Node2 -->
<g id="Node000002" class="node">
<title>Node2</title>
<g id="a_Node000002"><a xlink:href="../../d8/d52/class_a_e_log_parser.html#a69ba96647922d2b2996c8b46832a8f3d" target="_top" xlink:title="Get the amount of entries of a certain type/severity.">
<polygon fill="white" stroke="#666666" points="331.62,-428 167.88,-428 167.88,-408 331.62,-408 331.62,-428"/>
<text text-anchor="middle" x="249.75" y="-414.5" font-family="Helvetica,sans-Serif" font-size="10.00">AELogParser::amountEntriesType</text>
</a>
</g>
</g>
<!-- Node1&#45;&gt;Node2 -->
<g id="edge1_Node000001_Node000002" class="edge">
<title>Node1&#45;&gt;Node2</title>
<g id="a_edge1_Node000001_Node000002"><a xlink:title=" ">
<path fill="none" stroke="#63b8ff" d="M78.02,-324.42C95.83,-340.42 132.11,-371.16 167.5,-390 177.58,-395.36 188.89,-400.02 199.79,-403.92"/>
<polygon fill="#63b8ff" stroke="#63b8ff" points="198.47,-407.16 209.07,-407.07 200.73,-400.54 198.47,-407.16"/>
</a>
</g>
</g>
<!-- Node4 -->
<g id="Node000004" class="node">
<title>Node4</title>
<g id="a_Node000004"><a xlink:href="../../d8/d52/class_a_e_log_parser.html#a3a490ef241fb6f24144e544e7c2e661d" target="_top" xlink:title="Get the amount of valid entries in the log (with optional lowest severity setting).">
<polygon fill="white" stroke="#666666" points="332,-381 167.5,-381 167.5,-361 332,-361 332,-381"/>
<text text-anchor="middle" x="249.75" y="-367.5" font-family="Helvetica,sans-Serif" font-size="10.00">AELogParser::amountEntriesValid</text>
</a>
</g>
</g>
<!-- Node1&#45;&gt;Node4 -->
<g id="edge3_Node000001_Node000004" class="edge">
<title>Node1&#45;&gt;Node4</title>
<g id="a_edge3_Node000001_Node000004"><a xlink:title=" ">
<path fill="none" stroke="#63b8ff" d="M100.13,-324.45C129.42,-333.63 172.22,-347.03 204.38,-357.1"/>
<polygon fill="#63b8ff" stroke="#63b8ff" points="203.24,-360.41 213.83,-360.06 205.33,-353.73 203.24,-360.41"/>
</a>
</g>
</g>
<!-- Node5 -->
<g id="Node000005" class="node">
<title>Node5</title>
<g id="a_Node000005"><a xlink:href="../../d8/d52/class_a_e_log_parser.html#a89fbdf373de904d275768e4eb15432c7" target="_top" xlink:title="Filters the passed queue according to the given modulename.">
<polygon fill="white" stroke="#666666" points="325.62,-324 173.88,-324 173.88,-304 325.62,-304 325.62,-324"/>
<text text-anchor="middle" x="249.75" y="-310.5" font-family="Helvetica,sans-Serif" font-size="10.00">AELogParser::filterQueueName</text>
</a>
</g>
</g>
<!-- Node1&#45;&gt;Node5 -->
<g id="edge5_Node000001_Node000005" class="edge">
<title>Node1&#45;&gt;Node5</title>
<g id="a_edge5_Node000001_Node000005"><a xlink:title=" ">
<path fill="none" stroke="#63b8ff" d="M131.94,-314C141.72,-314 151.94,-314 162.08,-314"/>
<polygon fill="#63b8ff" stroke="#63b8ff" points="161.97,-317.5 171.97,-314 161.97,-310.5 161.97,-317.5"/>
</a>
</g>
</g>
<!-- Node9 -->
<g id="Node000009" class="node">
<title>Node9</title>
<g id="a_Node000009"><a xlink:href="../../da/dea/struct_a_e_log_entry.html#a42447b345f72f22ec655556af2db7c28" target="_top" xlink:title="Allocates the queue of the given size on the heap and returns the pointer to it&#39;s first node.">
<polygon fill="white" stroke="#666666" points="692.5,-286 565.5,-286 565.5,-266 692.5,-266 692.5,-286"/>
<text text-anchor="middle" x="629" y="-272.5" font-family="Helvetica,sans-Serif" font-size="10.00">AELogEntry::makeQueue</text>
</a>
</g>
</g>
<!-- Node1&#45;&gt;Node9 -->
<g id="edge10_Node000001_Node000009" class="edge">
<title>Node1&#45;&gt;Node9</title>
<g id="a_edge10_Node000001_Node000009"><a xlink:title=" ">
<path fill="none" stroke="#63b8ff" d="M114.45,-303.54C131.15,-300.26 150.08,-296.99 167.5,-295 303.2,-279.49 462.68,-276.21 553.89,-275.76"/>
<polygon fill="#63b8ff" stroke="#63b8ff" points="553.71,-279.26 563.7,-275.72 553.68,-272.26 553.71,-279.26"/>
</a>
</g>
</g>
<!-- Node10 -->
<g id="Node000010" class="node">
<title>Node10</title>
<g id="a_Node000010"><a xlink:href="../../d8/d52/class_a_e_log_parser.html#af3c28f50c5f52840be97e631d67b244c" target="_top" xlink:title="Read the next valid entry in the log file of the given severity and module name filter,...">
<polygon fill="white" stroke="#666666" points="310.62,-134 188.88,-134 188.88,-114 310.62,-114 310.62,-134"/>
<text text-anchor="middle" x="249.75" y="-120.5" font-family="Helvetica,sans-Serif" font-size="10.00">AELogParser::nextEntry</text>
</a>
</g>
</g>
<!-- Node1&#45;&gt;Node10 -->
<g id="edge11_Node000001_Node000010" class="edge">
<title>Node1&#45;&gt;Node10</title>
<g id="a_edge11_Node000001_Node000010"><a xlink:title=" ">
<path fill="none" stroke="#63b8ff" d="M76.79,-303.51C106.45,-272.56 193.87,-181.3 231.36,-142.16"/>
<polygon fill="#63b8ff" stroke="#63b8ff" points="233.52,-144.96 237.91,-135.31 228.47,-140.11 233.52,-144.96"/>
</a>
</g>
</g>
<!-- Node3 -->
<g id="Node000003" class="node">
<title>Node3</title>
<g id="a_Node000003"><a xlink:href="../../de/dde/namespaceace_1_1utils.html#a878c53ede8589dbc6a50734c9c4ad4d7" target="_top" xlink:title="Checks if the value is within some range.">
<polygon fill="white" stroke="#666666" points="1037.62,-362 933.12,-362 933.12,-342 1037.62,-342 1037.62,-362"/>
<text text-anchor="middle" x="985.38" y="-348.5" font-family="Helvetica,sans-Serif" font-size="10.00">ace::utils::isInRange</text>
</a>
</g>
</g>
<!-- Node2&#45;&gt;Node3 -->
<g id="edge2_Node000002_Node000003" class="edge">
<title>Node2&#45;&gt;Node3</title>
<g id="a_edge2_Node000002_Node000003"><a xlink:title=" ">
<path fill="none" stroke="#63b8ff" d="M331.91,-422.81C454.48,-428.17 693.48,-431.22 890.75,-389 912.4,-384.37 935.56,-375.26 953.42,-367.23"/>
<polygon fill="#63b8ff" stroke="#63b8ff" points="954.82,-370.44 962.43,-363.07 951.88,-364.09 954.82,-370.44"/>
</a>
</g>
</g>
<!-- Node4&#45;&gt;Node3 -->
<g id="edge4_Node000004_Node000003" class="edge">
<title>Node4&#45;&gt;Node3</title>
<g id="a_edge4_Node000004_Node000003"><a xlink:title=" ">
<path fill="none" stroke="#63b8ff" d="M332.34,-376.2C454.22,-382.8 690.92,-391.07 890.75,-371 903.9,-369.68 917.93,-367.34 931.02,-364.75"/>
<polygon fill="#63b8ff" stroke="#63b8ff" points="931.67,-368.18 940.75,-362.73 930.25,-361.33 931.67,-368.18"/>
</a>
</g>
</g>
<!-- Node6 -->
<g id="Node000006" class="node">
<title>Node6</title>
<g id="a_Node000006"><a xlink:href="../../d8/d52/class_a_e_log_parser.html#a7c3e2c0736eb6a3ccd84a528d72835ad" target="_top" xlink:title="Filters the passed queue according to the given severity and modulename filters.">
<polygon fill="white" stroke="#666666" points="506.25,-324 380,-324 380,-304 506.25,-304 506.25,-324"/>
<text text-anchor="middle" x="443.12" y="-310.5" font-family="Helvetica,sans-Serif" font-size="10.00">AELogParser::filterQueue</text>
</a>
</g>
</g>
<!-- Node5&#45;&gt;Node6 -->
<g id="edge6_Node000005_Node000006" class="edge">
<title>Node5&#45;&gt;Node6</title>
<g id="a_edge6_Node000005_Node000006"><a xlink:title=" ">
<path fill="none" stroke="#63b8ff" d="M326.11,-314C340,-314 354.49,-314 368.34,-314"/>
<polygon fill="#63b8ff" stroke="#63b8ff" points="368.28,-317.5 378.28,-314 368.28,-310.5 368.28,-317.5"/>
</a>
</g>
</g>
<!-- Node7 -->
<g id="Node000007" class="node">
<title>Node7</title>
<g id="a_Node000007"><a xlink:href="../../d8/d52/class_a_e_log_parser.html#a21f7748ae4be67f2221a114cbe9bca7c" target="_top" xlink:title="Checks if the passed severity is valid compared to the filtering severity.">
<polygon fill="white" stroke="#666666" points="885.5,-362 745,-362 745,-342 885.5,-342 885.5,-362"/>
<text text-anchor="middle" x="815.25" y="-348.5" font-family="Helvetica,sans-Serif" font-size="10.00">AELogParser::checkSeverity</text>
</a>
</g>
</g>
<!-- Node6&#45;&gt;Node7 -->
<g id="edge7_Node000006_Node000007" class="edge">
<title>Node6&#45;&gt;Node7</title>
<g id="a_edge7_Node000006_Node000007"><a xlink:title=" ">
<path fill="none" stroke="#63b8ff" d="M498.58,-324.48C516.28,-327.6 536.05,-330.77 554.25,-333 613.97,-340.32 681.79,-345.16 733.18,-348.12"/>
<polygon fill="#63b8ff" stroke="#63b8ff" points="732.85,-351.61 743.04,-348.68 733.25,-344.62 732.85,-351.61"/>
</a>
</g>
</g>
<!-- Node8 -->
<g id="Node000008" class="node">
<title>Node8</title>
<g id="a_Node000008"><a xlink:href="../../da/dea/struct_a_e_log_entry.html#a0fc1a114dbbaf785643b6558509f8e0c" target="_top" xlink:title="Makes a normal copy of the log entry, copying everything but the pointer to the next node.">
<polygon fill="white" stroke="#666666" points="688.38,-324 569.62,-324 569.62,-304 688.38,-304 688.38,-324"/>
<text text-anchor="middle" x="629" y="-310.5" font-family="Helvetica,sans-Serif" font-size="10.00">AELogEntry::copyEntry</text>
</a>
</g>
</g>
<!-- Node6&#45;&gt;Node8 -->
<g id="edge8_Node000006_Node000008" class="edge">
<title>Node6&#45;&gt;Node8</title>
<g id="a_edge8_Node000006_Node000008"><a xlink:title=" ">
<path fill="none" stroke="#63b8ff" d="M506.63,-314C523.13,-314 541.04,-314 557.9,-314"/>
<polygon fill="#63b8ff" stroke="#63b8ff" points="557.87,-317.5 567.87,-314 557.87,-310.5 557.87,-317.5"/>
</a>
</g>
</g>
<!-- Node6&#45;&gt;Node9 -->
<g id="edge9_Node000006_Node000009" class="edge">
<title>Node6&#45;&gt;Node9</title>
<g id="a_edge9_Node000006_Node000009"><a xlink:title=" ">
<path fill="none" stroke="#63b8ff" d="M494.86,-303.52C516.96,-298.95 543.08,-293.55 566.3,-288.75"/>
<polygon fill="#63b8ff" stroke="#63b8ff" points="566.87,-292.21 575.95,-286.76 565.45,-285.35 566.87,-292.21"/>
</a>
</g>
</g>
<!-- Node11 -->
<g id="Node000011" class="node">
<title>Node11</title>
<g id="a_Node000011"><a xlink:href="../../d8/d52/class_a_e_log_parser.html#ae89b754ad98409469e9b7405f63edee2" target="_top" xlink:title="Read the next indexed valid log entry in the file of the given severity and module name filter,...">
<polygon fill="white" stroke="#666666" points="518.25,-210 368,-210 368,-190 518.25,-190 518.25,-210"/>
<text text-anchor="middle" x="443.12" y="-196.5" font-family="Helvetica,sans-Serif" font-size="10.00">AELogParser::nextEntryCursor</text>
</a>
</g>
</g>
<!-- Node10&#45;&gt;Node11 -->
<g id="edge12_Node000010_Node000011" class="edge">
<title>Node10&#45;&gt;Node11</title>
<g id="a_edge12_Node000010_Node000011"><a xlink:title=" ">
<path fill="none" stroke="#63b8ff" d="M276.96,-134.41C310.22,-147.62 367.78,-170.48 405.41,-185.42"/>
<polygon fill="#63b8ff" stroke="#63b8ff" points="403.93,-188.6 414.52,-189.04 406.52,-182.09 403.93,-188.6"/>
</a>
</g>
</g>
<!-- Node20 -->
<g id="Node000020" class="node">
<title>Node20</title>
<g id="a_Node000020"><a xlink:href="../../da/dea/struct_a_e_log_entry.html#a7e8aa04faf251d62a79baab9e2cc531a" target="_top" xlink:title="Parses a given string as a log entry, and write it into passed entry object.">
<polygon fill="white" stroke="#666666" points="516.75,-134 369.5,-134 369.5,-114 516.75,-114 516.75,-134"/>
<text text-anchor="middle" x="443.12" y="-120.5" font-family="Helvetica,sans-Serif" font-size="10.00">AELogEntry::parseStringEntry</text>
</a>
</g>
</g>
<!-- Node10&#45;&gt;Node20 -->
<g id="edge25_Node000010_Node000020" class="edge">
<title>Node10&#45;&gt;Node20</title>
<g id="a_edge25_Node000010_Node000020"><a xlink:title=" ">
<path fill="none" stroke="#63b8ff" d="M311.04,-124C325.85,-124 341.98,-124 357.7,-124"/>
<polygon fill="#63b8ff" stroke="#63b8ff" points="357.53,-127.5 367.53,-124 357.53,-120.5 357.53,-127.5"/>
</a>
</g>
</g>
<!-- Node25 -->
<g id="Node000025" class="node">
<title>Node25</title>
<g id="a_Node000025"><a xlink:href="../../dd/dd5/class_a_e_file_reader.html#a391b5815b099e3d347a4d758a92e3295" target="_top" xlink:title="Reads the characters to a std::string untill a newline (included), or untill the maximum character am...">
<polygon fill="white" stroke="#666666" points="512.25,-78 374,-78 374,-58 512.25,-58 512.25,-78"/>
<text text-anchor="middle" x="443.12" y="-64.5" font-family="Helvetica,sans-Serif" font-size="10.00">AEFileReader::readStringNL</text>
</a>
</g>
</g>
<!-- Node10&#45;&gt;Node25 -->
<g id="edge30_Node000010_Node000025" class="edge">
<title>Node10&#45;&gt;Node25</title>
<g id="a_edge30_Node000010_Node000025"><a xlink:title=" ">
<path fill="none" stroke="#63b8ff" d="M286.3,-113.6C317.08,-104.59 361.84,-91.49 395.49,-81.65"/>
<polygon fill="#63b8ff" stroke="#63b8ff" points="396.38,-85.03 404.99,-78.87 394.41,-78.32 396.38,-85.03"/>
</a>
</g>
</g>
<!-- Node26 -->
<g id="Node000026" class="node">
<title>Node26</title>
<g id="a_Node000026"><a xlink:href="../../dd/dd5/class_a_e_file_reader.html#a477effa6d568ec7993c4d506d0d0420c" target="_top" xlink:title="Sets read cursor position to pos from origin.">
<polygon fill="white" stroke="#666666" points="513.75,-30 372.5,-30 372.5,-10 513.75,-10 513.75,-30"/>
<text text-anchor="middle" x="443.12" y="-16.5" font-family="Helvetica,sans-Serif" font-size="10.00">AEFileReader::setCursorPos</text>
</a>
</g>
</g>
<!-- Node10&#45;&gt;Node26 -->
<g id="edge32_Node000010_Node000026" class="edge">
<title>Node10&#45;&gt;Node26</title>
<g id="a_edge32_Node000010_Node000026"><a xlink:title=" ">
<path fill="none" stroke="#63b8ff" d="M265.01,-113.57C286.55,-98.12 329.03,-68.85 368,-49 378.44,-43.69 390.09,-38.71 401,-34.44"/>
<polygon fill="#63b8ff" stroke="#63b8ff" points="402.09,-37.77 410.19,-30.94 399.6,-31.23 402.09,-37.77"/>
</a>
</g>
</g>
<!-- Node12 -->
<g id="Node000012" class="node">
<title>Node12</title>
<g id="a_Node000012"><a xlink:href="../../d8/d52/class_a_e_log_parser.html#a77b12a5ddd2933a8319e523986788292" target="_top" xlink:title="Determines the error codes from the invalid values in the passed AELogEntryInfo instance.">
<polygon fill="white" stroke="#666666" points="703.75,-248 554.25,-248 554.25,-228 703.75,-228 703.75,-248"/>
<text text-anchor="middle" x="629" y="-234.5" font-family="Helvetica,sans-Serif" font-size="10.00">AELogParser::errorFromAELEI</text>
</a>
</g>
</g>
<!-- Node11&#45;&gt;Node12 -->
<g id="edge13_Node000011_Node000012" class="edge">
<title>Node11&#45;&gt;Node12</title>
<g id="a_edge13_Node000011_Node000012"><a xlink:title=" ">
<path fill="none" stroke="#63b8ff" d="M494.86,-210.48C516.96,-215.05 543.08,-220.45 566.3,-225.25"/>
<polygon fill="#63b8ff" stroke="#63b8ff" points="565.45,-228.65 575.95,-227.24 566.87,-221.79 565.45,-228.65"/>
</a>
</g>
</g>
<!-- Node13 -->
<g id="Node000013" class="node">
<title>Node13</title>
<g id="a_Node000013"><a xlink:href="../../d8/d52/class_a_e_log_parser.html#afcff7caee18bdcafa1dc0edb75a75590" target="_top" xlink:title="Finds the AELogEntryInfo corresponding to the next log entry with the specified severity and module n...">
<polygon fill="white" stroke="#666666" points="698.12,-210 559.88,-210 559.88,-190 698.12,-190 698.12,-210"/>
<text text-anchor="middle" x="629" y="-196.5" font-family="Helvetica,sans-Serif" font-size="10.00">AELogParser::findNextEntry</text>
</a>
</g>
</g>
<!-- Node11&#45;&gt;Node13 -->
<g id="edge14_Node000011_Node000013" class="edge">
<title>Node11&#45;&gt;Node13</title>
<g id="a_edge14_Node000011_Node000013"><a xlink:title=" ">
<path fill="none" stroke="#63b8ff" d="M518.65,-200C528.38,-200 538.38,-200 548.19,-200"/>
<polygon fill="#63b8ff" stroke="#63b8ff" points="548.09,-203.5 558.09,-200 548.09,-196.5 548.09,-203.5"/>
</a>
</g>
</g>
<!-- Node13&#45;&gt;Node3 -->
<g id="edge24_Node000013_Node000003" class="edge">
<title>Node13&#45;&gt;Node3</title>
<g id="a_edge24_Node000013_Node000003"><a xlink:title=" ">
<path fill="none" stroke="#63b8ff" d="M689.84,-210.39C694.84,-212.71 699.57,-215.55 703.75,-219 732.57,-242.8 710.66,-271.54 739.75,-295 747,-300.85 853.54,-324.28 923.6,-339.22"/>
<polygon fill="#63b8ff" stroke="#63b8ff" points="922.53,-342.57 933.04,-341.23 923.98,-335.72 922.53,-342.57"/>
</a>
</g>
</g>
<!-- Node13&#45;&gt;Node7 -->
<g id="edge16_Node000013_Node000007" class="edge">
<title>Node13&#45;&gt;Node7</title>
<g id="a_edge16_Node000013_Node000007"><a xlink:title=" ">
<path fill="none" stroke="#63b8ff" d="M691.37,-210.4C695.88,-212.74 700.08,-215.57 703.75,-219 741.01,-253.85 703.54,-292.06 739.75,-328 742.97,-331.19 746.61,-333.96 750.52,-336.36"/>
<polygon fill="#63b8ff" stroke="#63b8ff" points="748.83,-339.43 759.32,-340.91 752.04,-333.21 748.83,-339.43"/>
</a>
</g>
</g>
<!-- Node14 -->
<g id="Node000014" class="node">
<title>Node14</title>
<g id="a_Node000014"><a xlink:href="../../d8/d52/class_a_e_log_parser.html#a8e16a086fe0cb5cc6828b53b0a97a1bf" target="_top" xlink:title="Checks if the passed entry&#39;s and filter&#39;s module name indices match Moved from a lambda,...">
<polygon fill="white" stroke="#666666" points="885.12,-286 745.38,-286 745.38,-266 885.12,-266 885.12,-286"/>
<text text-anchor="middle" x="815.25" y="-272.5" font-family="Helvetica,sans-Serif" font-size="10.00">AELogParser::checkMName</text>
</a>
</g>
</g>
<!-- Node13&#45;&gt;Node14 -->
<g id="edge15_Node000013_Node000014" class="edge">
<title>Node13&#45;&gt;Node14</title>
<g id="a_edge15_Node000013_Node000014"><a xlink:title=" ">
<path fill="none" stroke="#63b8ff" d="M684.96,-210.45C691.52,-212.77 697.94,-215.58 703.75,-219 723.8,-230.81 719.69,-245.22 739.75,-257 742.41,-258.56 745.2,-260 748.07,-261.32"/>
<polygon fill="#63b8ff" stroke="#63b8ff" points="746.75,-264.56 757.33,-265.03 749.35,-258.06 746.75,-264.56"/>
</a>
</g>
</g>
<!-- Node15 -->
<g id="Node000015" class="node">
<title>Node15</title>
<g id="a_Node000015"><a xlink:href="../../d8/d52/class_a_e_log_parser.html#a04627d27deedd7981a5e106dd8ade5ed" target="_top" xlink:title="Checks if the current log file contains the given severity (or higher, depending on the &quot;strict&#45;sever...">
<polygon fill="white" stroke="#666666" points="890.75,-248 739.75,-248 739.75,-228 890.75,-228 890.75,-248"/>
<text text-anchor="middle" x="815.25" y="-234.5" font-family="Helvetica,sans-Serif" font-size="10.00">AELogParser::containsSeverity</text>
</a>
</g>
</g>
<!-- Node13&#45;&gt;Node15 -->
<g id="edge17_Node000013_Node000015" class="edge">
<title>Node13&#45;&gt;Node15</title>
<g id="a_edge17_Node000013_Node000015"><a xlink:title=" ">
<path fill="none" stroke="#63b8ff" d="M680.83,-210.48C702.99,-215.05 729.16,-220.45 752.42,-225.25"/>
<polygon fill="#63b8ff" stroke="#63b8ff" points="751.6,-228.65 762.1,-227.24 753.01,-221.8 751.6,-228.65"/>
</a>
</g>
</g>
<!-- Node16 -->
<g id="Node000016" class="node">
<title>Node16</title>
<g id="a_Node000016"><a xlink:href="../../d8/d52/class_a_e_log_parser.html#af349b880be4cdd8c6d27960a038680ab" target="_top" xlink:title="Checks if the file is closed by the AELogParser.">
<polygon fill="white" stroke="#666666" points="1044,-229 926.75,-229 926.75,-209 1044,-209 1044,-229"/>
<text text-anchor="middle" x="985.38" y="-215.5" font-family="Helvetica,sans-Serif" font-size="10.00">AELogParser::isClosed</text>
</a>
</g>
</g>
<!-- Node13&#45;&gt;Node16 -->
<g id="edge23_Node000013_Node000016" class="edge">
<title>Node13&#45;&gt;Node16</title>
<g id="a_edge23_Node000013_Node000016"><a xlink:title=" ">
<path fill="none" stroke="#63b8ff" d="M698.33,-203.66C760.72,-207.01 852.5,-211.93 915.17,-215.29"/>
<polygon fill="#63b8ff" stroke="#63b8ff" points="914.83,-218.78 925,-215.82 915.2,-211.79 914.83,-218.78"/>
</a>
</g>
</g>
<!-- Node19 -->
<g id="Node000019" class="node">
<title>Node19</title>
<g id="a_Node000019"><a xlink:href="../../db/d7b/struct_a_e_log_entry_info.html#af5f2718c2846e38977e660dd8fb59333" target="_top" xlink:title="Returns the invalid instance of the AELogEntryInfo.">
<polygon fill="white" stroke="#666666" points="884.75,-172 745.75,-172 745.75,-152 884.75,-152 884.75,-172"/>
<text text-anchor="middle" x="815.25" y="-158.5" font-family="Helvetica,sans-Serif" font-size="10.00">AELogEntryInfo::invalidEntry</text>
</a>
</g>
</g>
<!-- Node13&#45;&gt;Node19 -->
<g id="edge22_Node000013_Node000019" class="edge">
<title>Node13&#45;&gt;Node19</title>
<g id="a_edge22_Node000013_Node000019"><a xlink:title=" ">
<path fill="none" stroke="#63b8ff" d="M680.83,-189.52C702.99,-184.95 729.16,-179.55 752.42,-174.75"/>
<polygon fill="#63b8ff" stroke="#63b8ff" points="753.01,-178.2 762.1,-172.76 751.6,-171.35 753.01,-178.2"/>
</a>
</g>
</g>
<!-- Node15&#45;&gt;Node3 -->
<g id="edge21_Node000015_Node000003" class="edge">
<title>Node15&#45;&gt;Node3</title>
<g id="a_edge21_Node000015_Node000003"><a xlink:title=" ">
<path fill="none" stroke="#63b8ff" d="M871.31,-248.38C878.08,-250.71 884.73,-253.54 890.75,-257 924.21,-276.21 953.77,-310.66 970.34,-332.37"/>
<polygon fill="#63b8ff" stroke="#63b8ff" points="967.53,-334.45 976.3,-340.4 973.15,-330.28 967.53,-334.45"/>
</a>
</g>
</g>
<!-- Node15&#45;&gt;Node16 -->
<g id="edge18_Node000015_Node000016" class="edge">
<title>Node15&#45;&gt;Node16</title>
<g id="a_edge18_Node000015_Node000016"><a xlink:title=" ">
<path fill="none" stroke="#63b8ff" d="M890.97,-229.56C898.93,-228.66 906.99,-227.74 914.88,-226.85"/>
<polygon fill="#63b8ff" stroke="#63b8ff" points="915.24,-230.34 924.78,-225.73 914.45,-223.38 915.24,-230.34"/>
</a>
</g>
</g>
<!-- Node17 -->
<g id="Node000017" class="node">
<title>Node17</title>
<g id="a_Node000017"><a xlink:href="../../dd/dd5/class_a_e_file_reader.html#a81bb672d7d1a142c7473d880a3842073" target="_top" xlink:title="Checks if a file isn&#39;t open by this file&#45;reader.">
<polygon fill="white" stroke="#666666" points="1199.5,-229 1080,-229 1080,-209 1199.5,-209 1199.5,-229"/>
<text text-anchor="middle" x="1139.75" y="-215.5" font-family="Helvetica,sans-Serif" font-size="10.00">AEFileReader::isClosed</text>
</a>
</g>
</g>
<!-- Node16&#45;&gt;Node17 -->
<g id="edge19_Node000016_Node000017" class="edge">
<title>Node16&#45;&gt;Node17</title>
<g id="a_edge19_Node000016_Node000017"><a xlink:title=" ">
<path fill="none" stroke="#63b8ff" d="M1044.42,-219C1052.25,-219 1060.35,-219 1068.37,-219"/>
<polygon fill="#63b8ff" stroke="#63b8ff" points="1068.09,-222.5 1078.09,-219 1068.09,-215.5 1068.09,-222.5"/>
</a>
</g>
</g>
<!-- Node18 -->
<g id="Node000018" class="node">
<title>Node18</title>
<g id="a_Node000018"><a xlink:href="../../dd/dd5/class_a_e_file_reader.html#a07f32763fbb1df143c8aab2be7b856c1" target="_top" xlink:title="Checks if a file is open by this file&#45;reader.">
<polygon fill="white" stroke="#666666" points="1348.25,-229 1235.5,-229 1235.5,-209 1348.25,-209 1348.25,-229"/>
<text text-anchor="middle" x="1291.88" y="-215.5" font-family="Helvetica,sans-Serif" font-size="10.00">AEFileReader::isOpen</text>
</a>
</g>
</g>
<!-- Node17&#45;&gt;Node18 -->
<g id="edge20_Node000017_Node000018" class="edge">
<title>Node17&#45;&gt;Node18</title>
<g id="a_edge20_Node000017_Node000018"><a xlink:title=" ">
<path fill="none" stroke="#63b8ff" d="M1199.65,-219C1207.58,-219 1215.76,-219 1223.82,-219"/>
<polygon fill="#63b8ff" stroke="#63b8ff" points="1223.57,-222.5 1233.57,-219 1223.57,-215.5 1223.57,-222.5"/>
</a>
</g>
</g>
<!-- Node21 -->
<g id="Node000021" class="node">
<title>Node21</title>
<g id="a_Node000021"><a xlink:href="../../da/dea/struct_a_e_log_entry.html#a58aeadbca0c2c0863b534a52d40d22a8" target="_top" xlink:title="Clears the current entry and sets its values to zero/invalid.">
<polygon fill="white" stroke="#666666" points="688.38,-172 569.62,-172 569.62,-152 688.38,-152 688.38,-172"/>
<text text-anchor="middle" x="629" y="-158.5" font-family="Helvetica,sans-Serif" font-size="10.00">AELogEntry::clearEntry</text>
</a>
</g>
</g>
<!-- Node20&#45;&gt;Node21 -->
<g id="edge26_Node000020_Node000021" class="edge">
<title>Node20&#45;&gt;Node21</title>
<g id="a_edge26_Node000020_Node000021"><a xlink:title=" ">
<path fill="none" stroke="#63b8ff" d="M494.86,-134.48C516.96,-139.05 543.08,-144.45 566.3,-149.25"/>
<polygon fill="#63b8ff" stroke="#63b8ff" points="565.45,-152.65 575.95,-151.24 566.87,-145.79 565.45,-152.65"/>
</a>
</g>
</g>
<!-- Node22 -->
<g id="Node000022" class="node">
<title>Node22</title>
<g id="a_Node000022"><a xlink:href="../../de/dde/namespaceace_1_1utils.html#ac3eadc5f289b54059322023f3c5eed96" target="_top" xlink:title="Checks if the passed string is alpha&#45;numeric with underscores (contains only numbers,...">
<polygon fill="white" stroke="#666666" points="684.25,-134 573.75,-134 573.75,-114 684.25,-114 684.25,-134"/>
<text text-anchor="middle" x="629" y="-120.5" font-family="Helvetica,sans-Serif" font-size="10.00">ace::utils::isAlNumUs</text>
</a>
</g>
</g>
<!-- Node20&#45;&gt;Node22 -->
<g id="edge27_Node000020_Node000022" class="edge">
<title>Node20&#45;&gt;Node22</title>
<g id="a_edge27_Node000020_Node000022"><a xlink:title=" ">
<path fill="none" stroke="#63b8ff" d="M517.06,-124C531.86,-124 547.34,-124 561.88,-124"/>
<polygon fill="#63b8ff" stroke="#63b8ff" points="561.8,-127.5 571.8,-124 561.8,-120.5 561.8,-127.5"/>
</a>
</g>
</g>
<!-- Node23 -->
<g id="Node000023" class="node">
<title>Node23</title>
<g id="a_Node000023"><a xlink:href="../../de/dde/namespaceace_1_1utils.html#a2c0379815bc24cc369071e0b48787e9b" target="_top" xlink:title="Converts the given c&#45;string to a (c)time point (std::time_t), using a set format.">
<polygon fill="white" stroke="#666666" points="687.25,-96 570.75,-96 570.75,-76 687.25,-76 687.25,-96"/>
<text text-anchor="middle" x="629" y="-82.5" font-family="Helvetica,sans-Serif" font-size="10.00">ace::utils::stringToDate</text>
</a>
</g>
</g>
<!-- Node20&#45;&gt;Node23 -->
<g id="edge28_Node000020_Node000023" class="edge">
<title>Node20&#45;&gt;Node23</title>
<g id="a_edge28_Node000020_Node000023"><a xlink:title=" ">
<path fill="none" stroke="#63b8ff" d="M494.86,-113.52C516.96,-108.95 543.08,-103.55 566.3,-98.75"/>
<polygon fill="#63b8ff" stroke="#63b8ff" points="566.87,-102.21 575.95,-96.76 565.45,-95.35 566.87,-102.21"/>
</a>
</g>
</g>
<!-- Node24 -->
<g id="Node000024" class="node">
<title>Node24</title>
<g id="a_Node000024"><a xlink:href="../../da/dea/struct_a_e_log_entry.html#acacb2f1cbf3218922db05169ef55d8cb" target="_top" xlink:title="Deduces the string representation of a type (as appears in the log file) to a corresponding type numb...">
<polygon fill="white" stroke="#666666" points="694,-58 564,-58 564,-38 694,-38 694,-58"/>
<text text-anchor="middle" x="629" y="-44.5" font-family="Helvetica,sans-Serif" font-size="10.00">AELogEntry::stringToType</text>
</a>
</g>
</g>
<!-- Node20&#45;&gt;Node24 -->
<g id="edge29_Node000020_Node000024" class="edge">
<title>Node20&#45;&gt;Node24</title>
<g id="a_edge29_Node000020_Node000024"><a xlink:title=" ">
<path fill="none" stroke="#63b8ff" d="M499.36,-113.57C505.95,-111.26 512.41,-108.43 518.25,-105 538.3,-93.21 534.2,-78.81 554.25,-67 556.88,-65.45 559.64,-64.02 562.48,-62.71"/>
<polygon fill="#63b8ff" stroke="#63b8ff" points="563.67,-66.01 571.64,-59.02 561.06,-59.51 563.67,-66.01"/>
</a>
</g>
</g>
<!-- Node25&#45;&gt;Node25 -->
<g id="edge31_Node000025_Node000025" class="edge">
<title>Node25&#45;&gt;Node25</title>
<g id="a_edge31_Node000025_Node000025"><a xlink:title=" ">
<path fill="none" stroke="#63b8ff" d="M413.59,-78.34C400.97,-86.98 410.81,-96 443.12,-96 461.3,-96 472.37,-93.14 476.32,-89.11"/>
<polygon fill="#63b8ff" stroke="#63b8ff" points="479.68,-88.11 473.15,-79.77 473.05,-90.37 479.68,-88.11"/>
</a>
</g>
</g>
<!-- Node27 -->
<g id="Node000027" class="node">
<title>Node27</title>
<g id="a_Node000027"><a xlink:href="../../dd/dd5/class_a_e_file_reader.html#abbc85b7bb94f31f54df561d23a38e3dc" target="_top" xlink:title="Reads the bytes (size of T) from the file and dumps/reinterprets them as the value in the passed vari...">
<polygon fill="white" stroke="#666666" points="697,-20 561,-20 561,0 697,0 697,-20"/>
<text text-anchor="middle" x="629" y="-6.5" font-family="Helvetica,sans-Serif" font-size="10.00">AEFileReader::readVariable</text>
</a>
</g>
</g>
<!-- Node26&#45;&gt;Node27 -->
<g id="edge33_Node000026_Node000027" class="edge">
<title>Node26&#45;&gt;Node27</title>
<g id="a_edge33_Node000026_Node000027"><a xlink:title=" ">
<path fill="none" stroke="#63b8ff" d="M514.16,-16.19C525.58,-15.57 537.48,-14.92 549.09,-14.29"/>
<polygon fill="#63b8ff" stroke="#63b8ff" points="549.28,-17.79 559.07,-13.75 548.9,-10.8 549.28,-17.79"/>
</a>
</g>
</g>
<!-- Node28 -->
<g id="Node000028" class="node">
<title>Node28</title>
<g id="a_Node000028"><a xlink:href="../../dd/dd5/class_a_e_file_reader.html#a67d3baebff92aaa0b41216cb67a91e4c" target="_top" xlink:title="Reads an array of dcount elements, each one with a size of dsize bytes, to memory block pointed by cd...">
<polygon fill="white" stroke="#666666" points="884,-20 746.5,-20 746.5,0 884,0 884,-20"/>
<text text-anchor="middle" x="815.25" y="-6.5" font-family="Helvetica,sans-Serif" font-size="10.00">AEFileReader::readData_ptr</text>
</a>
</g>
</g>
<!-- Node27&#45;&gt;Node28 -->
<g id="edge34_Node000027_Node000028" class="edge">
<title>Node27&#45;&gt;Node28</title>
<g id="a_edge34_Node000027_Node000028"><a xlink:title=" ">
<path fill="none" stroke="#63b8ff" d="M697.3,-10C709.5,-10 722.33,-10 734.84,-10"/>
<polygon fill="#63b8ff" stroke="#63b8ff" points="734.69,-13.5 744.69,-10 734.69,-6.5 734.69,-13.5"/>
</a>
</g>
</g>
</g>
</svg>

<g id="navigator" transform="translate(0 0)" fill="#404254">
  <rect fill="#f2f5e9" fill-opacity="0.5" stroke="#606060" stroke-width=".5" x="0" y="0" width="60" height="60"/>
  <use id="zoomplus" xlink:href="#zoomPlus" x="17" y="9" onmousedown="handleZoom(evt,'in')"/>
  <use id="zoomminus" xlink:href="#zoomMin" x="42" y="9" onmousedown="handleZoom(evt,'out')"/>
  <use id="reset" xlink:href="#resetDef" x="30" y="36" onmousedown="handleReset()"/>
   <use id="arrowup" xlink:href="#arrowUp" x="0" y="0" onmousedown="handlePan(0,-1)"/>
  <use id="arrowright" xlink:href="#arrowRight" x="0" y="0" onmousedown="handlePan(1,0)"/>
  <use id="arrowdown" xlink:href="#arrowDown" x="0" y="0" onmousedown="handlePan(0,1)"/>
  <use id="arrowleft" xlink:href="#arrowLeft" x="0" y="0" onmousedown="handlePan(-1,0)"/>
</g>
<svg viewBox="0 0 15 15" width="100%" height="30px" preserveAspectRatio="xMaxYMin meet">
 <g id="arrow_out" transform="scale(0.3 0.3)">
  <a xlink:href="class_a_e_log_parser_a182d51b4aa5771e2e6f6919300e571ca_cgraph_org.svg" target="_base">
   <rect id="button" ry="5" rx="5" y="6" x="6" height="38" width="38"
        fill="#f2f5e9" fill-opacity="0.5" stroke="#606060" stroke-width="1.0"/>
   <path id="arrow"
     d="M 11.500037,31.436501 C 11.940474,20.09759 22.043105,11.32322 32.158766,21.979434 L 37.068811,17.246167 C 37.068811,17.246167 37.088388,32 37.088388,32 L 22.160133,31.978069 C 22.160133,31.978069 26.997745,27.140456 26.997745,27.140456 C 18.528582,18.264221 13.291696,25.230495 11.500037,31.436501 z"
     style="fill:#404040;"/>
  </a>
 </g>
</svg>

<style type='text/css'>
<![CDATA[
[data-mouse-over-selected='false'] { opacity: 0.7; }
[data-mouse-over-selected='true']  { opacity: 1.0; }
]]>
</style>
<script type="application/ecmascript"><![CDATA[
document.addEventListener('DOMContentLoaded', (event) => {
  highlightEdges();
  highlightAdjacentNodes();
});
]]></script>
</svg>
