<?xml version="1.0" encoding="UTF-8" standalone="no"?>
<!DOCTYPE svg PUBLIC "-//W3C//DTD SVG 1.1//EN"
 "http://www.w3.org/Graphics/SVG/1.1/DTD/svg11.dtd">
<!-- Generated by graphviz version 10.0.1 (20240210.2158)
 -->
<!-- Title: AELogParser::findNextEntry Pages: 1 -->
<svg width="791pt" height="218pt"
 viewBox="0.00 0.00 790.75 218.00" xmlns="http://www.w3.org/2000/svg" xmlns:xlink="http://www.w3.org/1999/xlink">
<g id="graph0" class="graph" transform="scale(1 1) rotate(0) translate(4 214)">
<title>AELogParser::findNextEntry</title>
<!-- Node1 -->
<g id="Node000001" class="node">
<title>Node1</title>
<g id="a_Node000001"><a xlink:title="Finds the AELogEntryInfo corresponding to the next log entry with the specified severity and module n...">
<polygon fill="#999999" stroke="#666666" points="138.25,-115 0,-115 0,-95 138.25,-95 138.25,-115"/>
<text text-anchor="middle" x="69.12" y="-101.5" font-family="Helvetica,sans-Serif" font-size="10.00">AELogParser::findNextEntry</text>
</a>
</g>
</g>
<!-- Node2 -->
<g id="Node000002" class="node">
<title>Node2</title>
<g id="a_Node000002"><a xlink:href="../../d8/d52/class_a_e_log_parser.html#a8e16a086fe0cb5cc6828b53b0a97a1bf" target="_top" xlink:title="Checks if the passed entry&#39;s and filter&#39;s module name indices match Moved from a lambda,...">
<polygon fill="white" stroke="#666666" points="319.62,-210 179.88,-210 179.88,-190 319.62,-190 319.62,-210"/>
<text text-anchor="middle" x="249.75" y="-196.5" font-family="Helvetica,sans-Serif" font-size="10.00">AELogParser::checkMName</text>
</a>
</g>
</g>
<!-- Node1&#45;&gt;Node2 -->
<g id="edge1_Node000001_Node000002" class="edge">
<title>Node1&#45;&gt;Node2</title>
<g id="a_edge1_Node000001_Node000002"><a xlink:title=" ">
<path fill="none" stroke="#63b8ff" d="M81.36,-115.49C99.5,-131.87 136.99,-163.46 174.25,-181 178.04,-182.78 182.01,-184.41 186.07,-185.9"/>
<polygon fill="#63b8ff" stroke="#63b8ff" points="184.93,-189.21 195.52,-189.05 187.13,-182.57 184.93,-189.21"/>
</a>
</g>
</g>
<!-- Node3 -->
<g id="Node000003" class="node">
<title>Node3</title>
<g id="a_Node000003"><a xlink:href="../../d8/d52/class_a_e_log_parser.html#a21f7748ae4be67f2221a114cbe9bca7c" target="_top" xlink:title="Checks if the passed severity is valid compared to the filtering severity.">
<polygon fill="white" stroke="#666666" points="320,-172 179.5,-172 179.5,-152 320,-152 320,-172"/>
<text text-anchor="middle" x="249.75" y="-158.5" font-family="Helvetica,sans-Serif" font-size="10.00">AELogParser::checkSeverity</text>
</a>
</g>
</g>
<!-- Node1&#45;&gt;Node3 -->
<g id="edge2_Node000001_Node000003" class="edge">
<title>Node1&#45;&gt;Node3</title>
<g id="a_edge2_Node000001_Node000003"><a xlink:title=" ">
<path fill="none" stroke="#63b8ff" d="M102.89,-115.45C131.63,-124.63 173.64,-138.03 205.2,-148.1"/>
<polygon fill="#63b8ff" stroke="#63b8ff" points="203.86,-151.35 214.45,-151.06 205.99,-144.68 203.86,-151.35"/>
</a>
</g>
</g>
<!-- Node4 -->
<g id="Node000004" class="node">
<title>Node4</title>
<g id="a_Node000004"><a xlink:href="../../d8/d52/class_a_e_log_parser.html#a04627d27deedd7981a5e106dd8ade5ed" target="_top" xlink:title="Checks if the current log file contains the given severity (or higher, depending on the &quot;strict&#45;sever...">
<polygon fill="white" stroke="#666666" points="325.25,-96 174.25,-96 174.25,-76 325.25,-76 325.25,-96"/>
<text text-anchor="middle" x="249.75" y="-82.5" font-family="Helvetica,sans-Serif" font-size="10.00">AELogParser::containsSeverity</text>
</a>
</g>
</g>
<!-- Node1&#45;&gt;Node4 -->
<g id="edge3_Node000001_Node000004" class="edge">
<title>Node1&#45;&gt;Node4</title>
<g id="a_edge3_Node000001_Node000004"><a xlink:title=" ">
<path fill="none" stroke="#63b8ff" d="M138.68,-97.71C146.5,-96.88 154.55,-96.02 162.56,-95.17"/>
<polygon fill="#63b8ff" stroke="#63b8ff" points="162.77,-98.67 172.34,-94.13 162.03,-91.7 162.77,-98.67"/>
</a>
</g>
</g>
<!-- Node5 -->
<g id="Node000005" class="node">
<title>Node5</title>
<g id="a_Node000005"><a xlink:href="../../d8/d52/class_a_e_log_parser.html#af349b880be4cdd8c6d27960a038680ab" target="_top" xlink:title="Checks if the file is closed by the AELogParser.">
<polygon fill="white" stroke="#666666" points="478.5,-115 361.25,-115 361.25,-95 478.5,-95 478.5,-115"/>
<text text-anchor="middle" x="419.88" y="-101.5" font-family="Helvetica,sans-Serif" font-size="10.00">AELogParser::isClosed</text>
</a>
</g>
</g>
<!-- Node1&#45;&gt;Node5 -->
<g id="edge9_Node000001_Node000005" class="edge">
<title>Node1&#45;&gt;Node5</title>
<g id="a_edge9_Node000001_Node000005"><a xlink:title=" ">
<path fill="none" stroke="#63b8ff" d="M138.61,-105C199.55,-105 288.26,-105 349.47,-105"/>
<polygon fill="#63b8ff" stroke="#63b8ff" points="349.44,-108.5 359.44,-105 349.44,-101.5 349.44,-108.5"/>
</a>
</g>
</g>
<!-- Node8 -->
<g id="Node000008" class="node">
<title>Node8</title>
<g id="a_Node000008"><a xlink:href="../../de/dde/namespaceace_1_1utils.html#a878c53ede8589dbc6a50734c9c4ad4d7" target="_top" xlink:title="Checks if the value is within some range.">
<polygon fill="white" stroke="#666666" points="472.12,-77 367.62,-77 367.62,-57 472.12,-57 472.12,-77"/>
<text text-anchor="middle" x="419.88" y="-63.5" font-family="Helvetica,sans-Serif" font-size="10.00">ace::utils::isInRange</text>
</a>
</g>
</g>
<!-- Node1&#45;&gt;Node8 -->
<g id="edge10_Node000001_Node000008" class="edge">
<title>Node1&#45;&gt;Node8</title>
<g id="a_edge10_Node000001_Node000008"><a xlink:title=" ">
<path fill="none" stroke="#63b8ff" d="M91.84,-94.53C112.49,-85.19 144.69,-72.23 174.25,-67 235.36,-56.2 306.4,-57.73 356.13,-61.03"/>
<polygon fill="#63b8ff" stroke="#63b8ff" points="355.62,-64.5 365.84,-61.72 356.12,-57.52 355.62,-64.5"/>
</a>
</g>
</g>
<!-- Node9 -->
<g id="Node000009" class="node">
<title>Node9</title>
<g id="a_Node000009"><a xlink:href="../../db/d7b/struct_a_e_log_entry_info.html#af5f2718c2846e38977e660dd8fb59333" target="_top" xlink:title="Returns the invalid instance of the AELogEntryInfo.">
<polygon fill="white" stroke="#666666" points="319.25,-20 180.25,-20 180.25,0 319.25,0 319.25,-20"/>
<text text-anchor="middle" x="249.75" y="-6.5" font-family="Helvetica,sans-Serif" font-size="10.00">AELogEntryInfo::invalidEntry</text>
</a>
</g>
</g>
<!-- Node1&#45;&gt;Node9 -->
<g id="edge8_Node000001_Node000009" class="edge">
<title>Node1&#45;&gt;Node9</title>
<g id="a_edge8_Node000001_Node000009"><a xlink:title=" ">
<path fill="none" stroke="#63b8ff" d="M82.85,-94.52C101.77,-79.38 138.87,-51.31 174.25,-34 181.89,-30.26 190.24,-26.92 198.51,-24"/>
<polygon fill="#63b8ff" stroke="#63b8ff" points="199.45,-27.38 207.82,-20.89 197.23,-20.74 199.45,-27.38"/>
</a>
</g>
</g>
<!-- Node4&#45;&gt;Node5 -->
<g id="edge4_Node000004_Node000005" class="edge">
<title>Node4&#45;&gt;Node5</title>
<g id="a_edge4_Node000004_Node000005"><a xlink:title=" ">
<path fill="none" stroke="#63b8ff" d="M325.47,-94.44C333.43,-95.34 341.49,-96.26 349.38,-97.15"/>
<polygon fill="#63b8ff" stroke="#63b8ff" points="348.95,-100.62 359.28,-98.27 349.74,-93.66 348.95,-100.62"/>
</a>
</g>
</g>
<!-- Node4&#45;&gt;Node8 -->
<g id="edge7_Node000004_Node000008" class="edge">
<title>Node4&#45;&gt;Node8</title>
<g id="a_edge7_Node000004_Node000008"><a xlink:title=" ">
<path fill="none" stroke="#63b8ff" d="M325.47,-77.56C335.79,-76.39 346.31,-75.2 356.38,-74.06"/>
<polygon fill="#63b8ff" stroke="#63b8ff" points="356.48,-77.57 366.02,-72.97 355.69,-70.62 356.48,-77.57"/>
</a>
</g>
</g>
<!-- Node6 -->
<g id="Node000006" class="node">
<title>Node6</title>
<g id="a_Node000006"><a xlink:href="../../dd/dd5/class_a_e_file_reader.html#a81bb672d7d1a142c7473d880a3842073" target="_top" xlink:title="Checks if a file isn&#39;t open by this file&#45;reader.">
<polygon fill="white" stroke="#666666" points="634,-115 514.5,-115 514.5,-95 634,-95 634,-115"/>
<text text-anchor="middle" x="574.25" y="-101.5" font-family="Helvetica,sans-Serif" font-size="10.00">AEFileReader::isClosed</text>
</a>
</g>
</g>
<!-- Node5&#45;&gt;Node6 -->
<g id="edge5_Node000005_Node000006" class="edge">
<title>Node5&#45;&gt;Node6</title>
<g id="a_edge5_Node000005_Node000006"><a xlink:title=" ">
<path fill="none" stroke="#63b8ff" d="M478.92,-105C486.75,-105 494.85,-105 502.87,-105"/>
<polygon fill="#63b8ff" stroke="#63b8ff" points="502.59,-108.5 512.59,-105 502.59,-101.5 502.59,-108.5"/>
</a>
</g>
</g>
<!-- Node7 -->
<g id="Node000007" class="node">
<title>Node7</title>
<g id="a_Node000007"><a xlink:href="../../dd/dd5/class_a_e_file_reader.html#a07f32763fbb1df143c8aab2be7b856c1" target="_top" xlink:title="Checks if a file is open by this file&#45;reader.">
<polygon fill="white" stroke="#666666" points="782.75,-115 670,-115 670,-95 782.75,-95 782.75,-115"/>
<text text-anchor="middle" x="726.38" y="-101.5" font-family="Helvetica,sans-Serif" font-size="10.00">AEFileReader::isOpen</text>
</a>
</g>
</g>
<!-- Node6&#45;&gt;Node7 -->
<g id="edge6_Node000006_Node000007" class="edge">
<title>Node6&#45;&gt;Node7</title>
<g id="a_edge6_Node000006_Node000007"><a xlink:title=" ">
<path fill="none" stroke="#63b8ff" d="M634.15,-105C642.08,-105 650.26,-105 658.32,-105"/>
<polygon fill="#63b8ff" stroke="#63b8ff" points="658.07,-108.5 668.07,-105 658.07,-101.5 658.07,-108.5"/>
</a>
</g>
</g>
</g>
</svg>
