<?xml version="1.0" encoding="UTF-8" standalone="no"?>
<!DOCTYPE svg PUBLIC "-//W3C//DTD SVG 1.1//EN"
 "http://www.w3.org/Graphics/SVG/1.1/DTD/svg11.dtd">
<!-- Generated by graphviz version 10.0.1 (20240210.2158)
 -->
<!-- Title: AELogParser::openLog Pages: 1 -->
<svg width="653pt" height="332pt"
 viewBox="0.00 0.00 653.25 332.00" xmlns="http://www.w3.org/2000/svg" xmlns:xlink="http://www.w3.org/1999/xlink">
<g id="graph0" class="graph" transform="scale(1 1) rotate(0) translate(4 328)">
<title>AELogParser::openLog</title>
<!-- Node1 -->
<g id="Node000001" class="node">
<title>Node1</title>
<g id="a_Node000001"><a xlink:title="Opens the log file, reading and parsing every single entry, classifying it by type.">
<polygon fill="#999999" stroke="#666666" points="116.5,-210 0,-210 0,-190 116.5,-190 116.5,-210"/>
<text text-anchor="middle" x="58.25" y="-196.5" font-family="Helvetica,sans-Serif" font-size="10.00">AELogParser::openLog</text>
</a>
</g>
</g>
<!-- Node2 -->
<g id="Node000002" class="node">
<title>Node2</title>
<g id="a_Node000002"><a xlink:href="../../dd/dd5/class_a_e_file_reader.html#a4f23e9b7f6465dc50432ee4f20f6f73e" target="_top" xlink:title="Returns current read cursor position.">
<polygon fill="white" stroke="#666666" points="296.75,-314 155.5,-314 155.5,-294 296.75,-294 296.75,-314"/>
<text text-anchor="middle" x="226.12" y="-300.5" font-family="Helvetica,sans-Serif" font-size="10.00">AEFileReader::getCursorPos</text>
</a>
</g>
</g>
<!-- Node1&#45;&gt;Node2 -->
<g id="edge1_Node000001_Node000002" class="edge">
<title>Node1&#45;&gt;Node2</title>
<g id="a_edge1_Node000001_Node000002"><a xlink:title=" ">
<path fill="none" stroke="#63b8ff" d="M69.61,-210.33C86,-226.22 119.44,-256.81 152.5,-276 161.33,-281.13 171.28,-285.67 180.91,-289.52"/>
<polygon fill="#63b8ff" stroke="#63b8ff" points="179.57,-292.75 190.16,-293.03 182.05,-286.21 179.57,-292.75"/>
</a>
</g>
</g>
<!-- Node5 -->
<g id="Node000005" class="node">
<title>Node5</title>
<g id="a_Node000005"><a xlink:href="../../d8/d52/class_a_e_log_parser.html#a318c93562f4b8d14aff66a63998bf157" target="_top" xlink:title="Checks if the file is opened by the AELogParser.">
<polygon fill="white" stroke="#666666" points="281.38,-267 170.88,-267 170.88,-247 281.38,-247 281.38,-267"/>
<text text-anchor="middle" x="226.12" y="-253.5" font-family="Helvetica,sans-Serif" font-size="10.00">AELogParser::isOpen</text>
</a>
</g>
</g>
<!-- Node1&#45;&gt;Node5 -->
<g id="edge4_Node000001_Node000005" class="edge">
<title>Node1&#45;&gt;Node5</title>
<g id="a_edge4_Node000001_Node000005"><a xlink:title=" ">
<path fill="none" stroke="#63b8ff" d="M89.67,-210.45C116.13,-219.55 154.7,-232.8 183.92,-242.84"/>
<polygon fill="#63b8ff" stroke="#63b8ff" points="182.59,-246.08 193.18,-246.02 184.86,-239.46 182.59,-246.08"/>
</a>
</g>
</g>
<!-- Node7 -->
<g id="Node000007" class="node">
<title>Node7</title>
<g id="a_Node000007"><a xlink:href="../../dd/dd5/class_a_e_file_reader.html#a3afc3610a9a39a170c7f405dc97557ee" target="_top" xlink:title="Opens the file for reading.">
<polygon fill="white" stroke="#666666" points="285.5,-210 166.75,-210 166.75,-190 285.5,-190 285.5,-210"/>
<text text-anchor="middle" x="226.12" y="-196.5" font-family="Helvetica,sans-Serif" font-size="10.00">AEFileReader::openFile</text>
</a>
</g>
</g>
<!-- Node1&#45;&gt;Node7 -->
<g id="edge6_Node000001_Node000007" class="edge">
<title>Node1&#45;&gt;Node7</title>
<g id="a_edge6_Node000001_Node000007"><a xlink:title=" ">
<path fill="none" stroke="#63b8ff" d="M116.8,-200C129.05,-200 142.12,-200 154.79,-200"/>
<polygon fill="#63b8ff" stroke="#63b8ff" points="154.76,-203.5 164.76,-200 154.76,-196.5 154.76,-203.5"/>
</a>
</g>
</g>
<!-- Node10 -->
<g id="Node000010" class="node">
<title>Node10</title>
<g id="a_Node000010"><a xlink:href="../../da/dea/struct_a_e_log_entry.html#a7e8aa04faf251d62a79baab9e2cc531a" target="_top" xlink:title="Parses a given string as a log entry, and write it into passed entry object.">
<polygon fill="white" stroke="#666666" points="299.75,-115 152.5,-115 152.5,-95 299.75,-95 299.75,-115"/>
<text text-anchor="middle" x="226.12" y="-101.5" font-family="Helvetica,sans-Serif" font-size="10.00">AELogEntry::parseStringEntry</text>
</a>
</g>
</g>
<!-- Node1&#45;&gt;Node10 -->
<g id="edge11_Node000001_Node000010" class="edge">
<title>Node1&#45;&gt;Node10</title>
<g id="a_edge11_Node000001_Node000010"><a xlink:title=" ">
<path fill="none" stroke="#63b8ff" d="M77.32,-189.65C106.16,-173.14 162.82,-140.68 197,-121.11"/>
<polygon fill="#63b8ff" stroke="#63b8ff" points="198.58,-124.24 205.51,-116.23 195.1,-118.16 198.58,-124.24"/>
</a>
</g>
</g>
<!-- Node15 -->
<g id="Node000015" class="node">
<title>Node15</title>
<g id="a_Node000015"><a xlink:href="../../dd/dd5/class_a_e_file_reader.html#a391b5815b099e3d347a4d758a92e3295" target="_top" xlink:title="Reads the characters to a std::string untill a newline (included), or untill the maximum character am...">
<polygon fill="white" stroke="#666666" points="295.25,-59 157,-59 157,-39 295.25,-39 295.25,-59"/>
<text text-anchor="middle" x="226.12" y="-45.5" font-family="Helvetica,sans-Serif" font-size="10.00">AEFileReader::readStringNL</text>
</a>
</g>
</g>
<!-- Node1&#45;&gt;Node15 -->
<g id="edge16_Node000001_Node000015" class="edge">
<title>Node1&#45;&gt;Node15</title>
<g id="a_edge16_Node000001_Node000015"><a xlink:title=" ">
<path fill="none" stroke="#63b8ff" d="M65.58,-189.66C79.2,-168.08 113.27,-117.6 152.5,-86 163.15,-77.42 176.12,-70.04 188.13,-64.18"/>
<polygon fill="#63b8ff" stroke="#63b8ff" points="189.39,-67.46 196.98,-60.07 186.44,-61.11 189.39,-67.46"/>
</a>
</g>
</g>
<!-- Node3 -->
<g id="Node000003" class="node">
<title>Node3</title>
<g id="a_Node000003"><a xlink:href="../../dd/dd5/class_a_e_file_reader.html#abbc85b7bb94f31f54df561d23a38e3dc" target="_top" xlink:title="Reads the bytes (size of T) from the file and dumps/reinterprets them as the value in the passed vari...">
<polygon fill="white" stroke="#666666" points="471.75,-324 335.75,-324 335.75,-304 471.75,-304 471.75,-324"/>
<text text-anchor="middle" x="403.75" y="-310.5" font-family="Helvetica,sans-Serif" font-size="10.00">AEFileReader::readVariable</text>
</a>
</g>
</g>
<!-- Node2&#45;&gt;Node3 -->
<g id="edge2_Node000002_Node000003" class="edge">
<title>Node2&#45;&gt;Node3</title>
<g id="a_edge2_Node000002_Node000003"><a xlink:title=" ">
<path fill="none" stroke="#63b8ff" d="M297.04,-307.98C305.92,-308.49 315.05,-309.01 324.06,-309.52"/>
<polygon fill="#63b8ff" stroke="#63b8ff" points="323.67,-313 333.85,-310.08 324.07,-306.01 323.67,-313"/>
</a>
</g>
</g>
<!-- Node4 -->
<g id="Node000004" class="node">
<title>Node4</title>
<g id="a_Node000004"><a xlink:href="../../dd/dd5/class_a_e_file_reader.html#a67d3baebff92aaa0b41216cb67a91e4c" target="_top" xlink:title="Reads an array of dcount elements, each one with a size of dsize bytes, to memory block pointed by cd...">
<polygon fill="white" stroke="#666666" points="645.25,-324 507.75,-324 507.75,-304 645.25,-304 645.25,-324"/>
<text text-anchor="middle" x="576.5" y="-310.5" font-family="Helvetica,sans-Serif" font-size="10.00">AEFileReader::readData_ptr</text>
</a>
</g>
</g>
<!-- Node3&#45;&gt;Node4 -->
<g id="edge3_Node000003_Node000004" class="edge">
<title>Node3&#45;&gt;Node4</title>
<g id="a_edge3_Node000003_Node000004"><a xlink:title=" ">
<path fill="none" stroke="#63b8ff" d="M472.23,-314C480,-314 487.97,-314 495.88,-314"/>
<polygon fill="#63b8ff" stroke="#63b8ff" points="495.87,-317.5 505.87,-314 495.87,-310.5 495.87,-317.5"/>
</a>
</g>
</g>
<!-- Node6 -->
<g id="Node000006" class="node">
<title>Node6</title>
<g id="a_Node000006"><a xlink:href="../../dd/dd5/class_a_e_file_reader.html#a07f32763fbb1df143c8aab2be7b856c1" target="_top" xlink:title="Checks if a file is open by this file&#45;reader.">
<polygon fill="white" stroke="#666666" points="632.88,-248 520.12,-248 520.12,-228 632.88,-228 632.88,-248"/>
<text text-anchor="middle" x="576.5" y="-234.5" font-family="Helvetica,sans-Serif" font-size="10.00">AEFileReader::isOpen</text>
</a>
</g>
</g>
<!-- Node5&#45;&gt;Node6 -->
<g id="edge5_Node000005_Node000006" class="edge">
<title>Node5&#45;&gt;Node6</title>
<g id="a_edge5_Node000005_Node000006"><a xlink:title=" ">
<path fill="none" stroke="#63b8ff" d="M281.62,-257.66C331.25,-257.83 406.53,-257.05 471.75,-252 483.68,-251.08 496.34,-249.7 508.56,-248.17"/>
<polygon fill="#63b8ff" stroke="#63b8ff" points="508.66,-251.68 518.13,-246.92 507.76,-244.74 508.66,-251.68"/>
</a>
</g>
</g>
<!-- Node7&#45;&gt;Node6 -->
<g id="edge10_Node000007_Node000006" class="edge">
<title>Node7&#45;&gt;Node6</title>
<g id="a_edge10_Node000007_Node000006"><a xlink:title=" ">
<path fill="none" stroke="#63b8ff" d="M281.12,-210.48C298.51,-213.57 317.9,-216.74 335.75,-219 393.85,-226.37 460.25,-231.36 508.42,-234.38"/>
<polygon fill="#63b8ff" stroke="#63b8ff" points="507.93,-237.85 518.13,-234.97 508.36,-230.87 507.93,-237.85"/>
</a>
</g>
</g>
<!-- Node8 -->
<g id="Node000008" class="node">
<title>Node8</title>
<g id="a_Node000008"><a xlink:href="../../de/dde/namespaceace_1_1utils.html#a6eb2322353edc04f78dbc3589e60d98c" target="_top" xlink:title="A wrapper to make the proper cross&#45;compiler version of fopen() Opens the file with given name and fla...">
<polygon fill="white" stroke="#666666" points="453,-210 354.5,-210 354.5,-190 453,-190 453,-210"/>
<text text-anchor="middle" x="403.75" y="-196.5" font-family="Helvetica,sans-Serif" font-size="10.00">ace::utils::fopenCC</text>
</a>
</g>
</g>
<!-- Node7&#45;&gt;Node8 -->
<g id="edge7_Node000007_Node000008" class="edge">
<title>Node7&#45;&gt;Node8</title>
<g id="a_edge7_Node000007_Node000008"><a xlink:title=" ">
<path fill="none" stroke="#63b8ff" d="M285.61,-200C304.03,-200 324.41,-200 342.93,-200"/>
<polygon fill="#63b8ff" stroke="#63b8ff" points="342.67,-203.5 352.67,-200 342.67,-196.5 342.67,-203.5"/>
</a>
</g>
</g>
<!-- Node9 -->
<g id="Node000009" class="node">
<title>Node9</title>
<g id="a_Node000009"><a xlink:href="../../dd/dd5/class_a_e_file_reader.html#a81bb672d7d1a142c7473d880a3842073" target="_top" xlink:title="Checks if a file isn&#39;t open by this file&#45;reader.">
<polygon fill="white" stroke="#666666" points="463.5,-172 344,-172 344,-152 463.5,-152 463.5,-172"/>
<text text-anchor="middle" x="403.75" y="-158.5" font-family="Helvetica,sans-Serif" font-size="10.00">AEFileReader::isClosed</text>
</a>
</g>
</g>
<!-- Node7&#45;&gt;Node9 -->
<g id="edge8_Node000007_Node000009" class="edge">
<title>Node7&#45;&gt;Node9</title>
<g id="a_edge8_Node000007_Node000009"><a xlink:title=" ">
<path fill="none" stroke="#63b8ff" d="M275.58,-189.52C296.5,-184.99 321.19,-179.65 343.21,-174.88"/>
<polygon fill="#63b8ff" stroke="#63b8ff" points="343.94,-178.31 352.97,-172.77 342.46,-171.46 343.94,-178.31"/>
</a>
</g>
</g>
<!-- Node9&#45;&gt;Node6 -->
<g id="edge9_Node000009_Node000006" class="edge">
<title>Node9&#45;&gt;Node6</title>
<g id="a_edge9_Node000009_Node000006"><a xlink:title=" ">
<path fill="none" stroke="#63b8ff" d="M447.06,-172.43C455.36,-174.91 463.92,-177.79 471.75,-181 499.4,-192.35 529.12,-209.2 549.63,-221.63"/>
<polygon fill="#63b8ff" stroke="#63b8ff" points="547.54,-224.46 557.9,-226.72 551.21,-218.5 547.54,-224.46"/>
</a>
</g>
</g>
<!-- Node11 -->
<g id="Node000011" class="node">
<title>Node11</title>
<g id="a_Node000011"><a xlink:href="../../da/dea/struct_a_e_log_entry.html#a58aeadbca0c2c0863b534a52d40d22a8" target="_top" xlink:title="Clears the current entry and sets its values to zero/invalid.">
<polygon fill="white" stroke="#666666" points="463.12,-134 344.38,-134 344.38,-114 463.12,-114 463.12,-134"/>
<text text-anchor="middle" x="403.75" y="-120.5" font-family="Helvetica,sans-Serif" font-size="10.00">AELogEntry::clearEntry</text>
</a>
</g>
</g>
<!-- Node10&#45;&gt;Node11 -->
<g id="edge12_Node000010_Node000011" class="edge">
<title>Node10&#45;&gt;Node11</title>
<g id="a_edge12_Node000010_Node000011"><a xlink:title=" ">
<path fill="none" stroke="#63b8ff" d="M300.08,-112.89C310.81,-114.05 321.84,-115.25 332.51,-116.4"/>
<polygon fill="#63b8ff" stroke="#63b8ff" points="332.09,-119.88 342.41,-117.47 332.85,-112.92 332.09,-119.88"/>
</a>
</g>
</g>
<!-- Node12 -->
<g id="Node000012" class="node">
<title>Node12</title>
<g id="a_Node000012"><a xlink:href="../../de/dde/namespaceace_1_1utils.html#ac3eadc5f289b54059322023f3c5eed96" target="_top" xlink:title="Checks if the passed string is alpha&#45;numeric with underscores (contains only numbers,...">
<polygon fill="white" stroke="#666666" points="459,-96 348.5,-96 348.5,-76 459,-76 459,-96"/>
<text text-anchor="middle" x="403.75" y="-82.5" font-family="Helvetica,sans-Serif" font-size="10.00">ace::utils::isAlNumUs</text>
</a>
</g>
</g>
<!-- Node10&#45;&gt;Node12 -->
<g id="edge13_Node000010_Node000012" class="edge">
<title>Node10&#45;&gt;Node12</title>
<g id="a_edge13_Node000010_Node000012"><a xlink:title=" ">
<path fill="none" stroke="#63b8ff" d="M300.08,-97.11C312.29,-95.79 324.9,-94.42 336.92,-93.12"/>
<polygon fill="#63b8ff" stroke="#63b8ff" points="337.16,-96.62 346.73,-92.06 336.41,-89.66 337.16,-96.62"/>
</a>
</g>
</g>
<!-- Node13 -->
<g id="Node000013" class="node">
<title>Node13</title>
<g id="a_Node000013"><a xlink:href="../../de/dde/namespaceace_1_1utils.html#a2c0379815bc24cc369071e0b48787e9b" target="_top" xlink:title="Converts the given c&#45;string to a (c)time point (std::time_t), using a set format.">
<polygon fill="white" stroke="#666666" points="462,-58 345.5,-58 345.5,-38 462,-38 462,-58"/>
<text text-anchor="middle" x="403.75" y="-44.5" font-family="Helvetica,sans-Serif" font-size="10.00">ace::utils::stringToDate</text>
</a>
</g>
</g>
<!-- Node10&#45;&gt;Node13 -->
<g id="edge14_Node000010_Node000013" class="edge">
<title>Node10&#45;&gt;Node13</title>
<g id="a_edge14_Node000010_Node000013"><a xlink:title=" ">
<path fill="none" stroke="#63b8ff" d="M273.74,-94.5C282.49,-92.06 291.49,-89.21 299.75,-86 316.61,-79.45 318.96,-73.73 335.75,-67 340.36,-65.15 345.21,-63.41 350.11,-61.79"/>
<polygon fill="#63b8ff" stroke="#63b8ff" points="350.9,-65.21 359.39,-58.88 348.8,-58.53 350.9,-65.21"/>
</a>
</g>
</g>
<!-- Node14 -->
<g id="Node000014" class="node">
<title>Node14</title>
<g id="a_Node000014"><a xlink:href="../../da/dea/struct_a_e_log_entry.html#acacb2f1cbf3218922db05169ef55d8cb" target="_top" xlink:title="Deduces the string representation of a type (as appears in the log file) to a corresponding type numb...">
<polygon fill="white" stroke="#666666" points="468.75,-20 338.75,-20 338.75,0 468.75,0 468.75,-20"/>
<text text-anchor="middle" x="403.75" y="-6.5" font-family="Helvetica,sans-Serif" font-size="10.00">AELogEntry::stringToType</text>
</a>
</g>
</g>
<!-- Node10&#45;&gt;Node14 -->
<g id="edge15_Node000010_Node000014" class="edge">
<title>Node10&#45;&gt;Node14</title>
<g id="a_edge15_Node000010_Node000014"><a xlink:title=" ">
<path fill="none" stroke="#63b8ff" d="M284.16,-94.61C289.7,-92.3 295.02,-89.46 299.75,-86 323.93,-68.31 311.75,-46.94 335.75,-29 337.49,-27.7 339.32,-26.48 341.22,-25.35"/>
<polygon fill="#63b8ff" stroke="#63b8ff" points="342.42,-28.66 349.79,-21.04 339.28,-22.41 342.42,-28.66"/>
</a>
</g>
</g>
<!-- Node15&#45;&gt;Node15 -->
<g id="edge17_Node000015_Node000015" class="edge">
<title>Node15&#45;&gt;Node15</title>
<g id="a_edge17_Node000015_Node000015"><a xlink:title=" ">
<path fill="none" stroke="#63b8ff" d="M199.45,-59.34C188.05,-67.98 196.94,-77 226.12,-77 242.08,-77 251.97,-74.3 255.8,-70.44"/>
<polygon fill="#63b8ff" stroke="#63b8ff" points="259.18,-69.54 253.19,-60.8 252.42,-71.37 259.18,-69.54"/>
</a>
</g>
</g>
</g>
</svg>
