<?xml version="1.0" encoding="UTF-8" standalone="no"?>
<!DOCTYPE svg PUBLIC "-//W3C//DTD SVG 1.1//EN"
 "http://www.w3.org/Graphics/SVG/1.1/DTD/svg11.dtd">
<!-- Generated by graphviz version 10.0.1 (20240210.2158)
 -->
<!-- Title: AELogParser::logToQueueName Pages: 1 -->
<svg width="1549pt" height="436pt"
 viewBox="0.00 0.00 1549.25 436.00" xmlns="http://www.w3.org/2000/svg" xmlns:xlink="http://www.w3.org/1999/xlink">
<g id="graph0" class="graph" transform="scale(1 1) rotate(0) translate(4 432)">
<title>AELogParser::logToQueueName</title>
<!-- Node1 -->
<g id="Node000001" class="node">
<title>Node1</title>
<g id="a_Node000001"><a xlink:title="A shortcut to AELogParser::logToQueue() to filter only by the module name of the log entries.">
<polygon fill="#999999" stroke="#666666" points="157,-324 0,-324 0,-304 157,-304 157,-324"/>
<text text-anchor="middle" x="78.5" y="-310.5" font-family="Helvetica,sans-Serif" font-size="10.00">AELogParser::logToQueueName</text>
</a>
</g>
</g>
<!-- Node2 -->
<g id="Node000002" class="node">
<title>Node2</title>
<g id="a_Node000002"><a xlink:href="../../d8/d52/class_a_e_log_parser.html#a182d51b4aa5771e2e6f6919300e571ca" target="_top" xlink:title="Same as the AELogParser::nextEntry() but on massive scale – scans the whole log file and parses it to...">
<polygon fill="white" stroke="#666666" points="324.5,-324 193,-324 193,-304 324.5,-304 324.5,-324"/>
<text text-anchor="middle" x="258.75" y="-310.5" font-family="Helvetica,sans-Serif" font-size="10.00">AELogParser::logToQueue</text>
</a>
</g>
</g>
<!-- Node1&#45;&gt;Node2 -->
<g id="edge1_Node000001_Node000002" class="edge">
<title>Node1&#45;&gt;Node2</title>
<g id="a_edge1_Node000001_Node000002"><a xlink:title=" ">
<path fill="none" stroke="#63b8ff" d="M157.42,-314C165.29,-314 173.28,-314 181.13,-314"/>
<polygon fill="#63b8ff" stroke="#63b8ff" points="181,-317.5 191,-314 181,-310.5 181,-317.5"/>
</a>
</g>
</g>
<!-- Node3 -->
<g id="Node000003" class="node">
<title>Node3</title>
<g id="a_Node000003"><a xlink:href="../../d8/d52/class_a_e_log_parser.html#a69ba96647922d2b2996c8b46832a8f3d" target="_top" xlink:title="Get the amount of entries of a certain type/severity.">
<polygon fill="white" stroke="#666666" points="524.62,-428 360.88,-428 360.88,-408 524.62,-408 524.62,-428"/>
<text text-anchor="middle" x="442.75" y="-414.5" font-family="Helvetica,sans-Serif" font-size="10.00">AELogParser::amountEntriesType</text>
</a>
</g>
</g>
<!-- Node2&#45;&gt;Node3 -->
<g id="edge2_Node000002_Node000003" class="edge">
<title>Node2&#45;&gt;Node3</title>
<g id="a_edge2_Node000002_Node000003"><a xlink:title=" ">
<path fill="none" stroke="#63b8ff" d="M271.02,-324.42C288.83,-340.42 325.11,-371.16 360.5,-390 370.58,-395.36 381.89,-400.02 392.79,-403.92"/>
<polygon fill="#63b8ff" stroke="#63b8ff" points="391.47,-407.16 402.07,-407.07 393.73,-400.54 391.47,-407.16"/>
</a>
</g>
</g>
<!-- Node5 -->
<g id="Node000005" class="node">
<title>Node5</title>
<g id="a_Node000005"><a xlink:href="../../d8/d52/class_a_e_log_parser.html#a3a490ef241fb6f24144e544e7c2e661d" target="_top" xlink:title="Get the amount of valid entries in the log (with optional lowest severity setting).">
<polygon fill="white" stroke="#666666" points="525,-381 360.5,-381 360.5,-361 525,-361 525,-381"/>
<text text-anchor="middle" x="442.75" y="-367.5" font-family="Helvetica,sans-Serif" font-size="10.00">AELogParser::amountEntriesValid</text>
</a>
</g>
</g>
<!-- Node2&#45;&gt;Node5 -->
<g id="edge4_Node000002_Node000005" class="edge">
<title>Node2&#45;&gt;Node5</title>
<g id="a_edge4_Node000002_Node000005"><a xlink:title=" ">
<path fill="none" stroke="#63b8ff" d="M293.13,-324.45C322.42,-333.63 365.22,-347.03 397.38,-357.1"/>
<polygon fill="#63b8ff" stroke="#63b8ff" points="396.24,-360.41 406.83,-360.06 398.33,-353.73 396.24,-360.41"/>
</a>
</g>
</g>
<!-- Node6 -->
<g id="Node000006" class="node">
<title>Node6</title>
<g id="a_Node000006"><a xlink:href="../../d8/d52/class_a_e_log_parser.html#a89fbdf373de904d275768e4eb15432c7" target="_top" xlink:title="Filters the passed queue according to the given modulename.">
<polygon fill="white" stroke="#666666" points="518.62,-324 366.88,-324 366.88,-304 518.62,-304 518.62,-324"/>
<text text-anchor="middle" x="442.75" y="-310.5" font-family="Helvetica,sans-Serif" font-size="10.00">AELogParser::filterQueueName</text>
</a>
</g>
</g>
<!-- Node2&#45;&gt;Node6 -->
<g id="edge6_Node000002_Node000006" class="edge">
<title>Node2&#45;&gt;Node6</title>
<g id="a_edge6_Node000002_Node000006"><a xlink:title=" ">
<path fill="none" stroke="#63b8ff" d="M324.94,-314C334.72,-314 344.94,-314 355.08,-314"/>
<polygon fill="#63b8ff" stroke="#63b8ff" points="354.97,-317.5 364.97,-314 354.97,-310.5 354.97,-317.5"/>
</a>
</g>
</g>
<!-- Node10 -->
<g id="Node000010" class="node">
<title>Node10</title>
<g id="a_Node000010"><a xlink:href="../../da/dea/struct_a_e_log_entry.html#a42447b345f72f22ec655556af2db7c28" target="_top" xlink:title="Allocates the queue of the given size on the heap and returns the pointer to it&#39;s first node.">
<polygon fill="white" stroke="#666666" points="885.5,-286 758.5,-286 758.5,-266 885.5,-266 885.5,-286"/>
<text text-anchor="middle" x="822" y="-272.5" font-family="Helvetica,sans-Serif" font-size="10.00">AELogEntry::makeQueue</text>
</a>
</g>
</g>
<!-- Node2&#45;&gt;Node10 -->
<g id="edge11_Node000002_Node000010" class="edge">
<title>Node2&#45;&gt;Node10</title>
<g id="a_edge11_Node000002_Node000010"><a xlink:title=" ">
<path fill="none" stroke="#63b8ff" d="M307.45,-303.54C324.15,-300.26 343.08,-296.99 360.5,-295 496.2,-279.49 655.68,-276.21 746.89,-275.76"/>
<polygon fill="#63b8ff" stroke="#63b8ff" points="746.71,-279.26 756.7,-275.72 746.68,-272.26 746.71,-279.26"/>
</a>
</g>
</g>
<!-- Node11 -->
<g id="Node000011" class="node">
<title>Node11</title>
<g id="a_Node000011"><a xlink:href="../../d8/d52/class_a_e_log_parser.html#af3c28f50c5f52840be97e631d67b244c" target="_top" xlink:title="Read the next valid entry in the log file of the given severity and module name filter,...">
<polygon fill="white" stroke="#666666" points="503.62,-134 381.88,-134 381.88,-114 503.62,-114 503.62,-134"/>
<text text-anchor="middle" x="442.75" y="-120.5" font-family="Helvetica,sans-Serif" font-size="10.00">AELogParser::nextEntry</text>
</a>
</g>
</g>
<!-- Node2&#45;&gt;Node11 -->
<g id="edge12_Node000002_Node000011" class="edge">
<title>Node2&#45;&gt;Node11</title>
<g id="a_edge12_Node000002_Node000011"><a xlink:title=" ">
<path fill="none" stroke="#63b8ff" d="M269.79,-303.51C299.45,-272.56 386.87,-181.3 424.36,-142.16"/>
<polygon fill="#63b8ff" stroke="#63b8ff" points="426.52,-144.96 430.91,-135.31 421.47,-140.11 426.52,-144.96"/>
</a>
</g>
</g>
<!-- Node4 -->
<g id="Node000004" class="node">
<title>Node4</title>
<g id="a_Node000004"><a xlink:href="../../de/dde/namespaceace_1_1utils.html#a878c53ede8589dbc6a50734c9c4ad4d7" target="_top" xlink:title="Checks if the value is within some range.">
<polygon fill="white" stroke="#666666" points="1230.62,-362 1126.12,-362 1126.12,-342 1230.62,-342 1230.62,-362"/>
<text text-anchor="middle" x="1178.38" y="-348.5" font-family="Helvetica,sans-Serif" font-size="10.00">ace::utils::isInRange</text>
</a>
</g>
</g>
<!-- Node3&#45;&gt;Node4 -->
<g id="edge3_Node000003_Node000004" class="edge">
<title>Node3&#45;&gt;Node4</title>
<g id="a_edge3_Node000003_Node000004"><a xlink:title=" ">
<path fill="none" stroke="#63b8ff" d="M524.91,-422.81C647.48,-428.17 886.48,-431.22 1083.75,-389 1105.4,-384.37 1128.56,-375.26 1146.42,-367.23"/>
<polygon fill="#63b8ff" stroke="#63b8ff" points="1147.82,-370.44 1155.43,-363.07 1144.88,-364.09 1147.82,-370.44"/>
</a>
</g>
</g>
<!-- Node5&#45;&gt;Node4 -->
<g id="edge5_Node000005_Node000004" class="edge">
<title>Node5&#45;&gt;Node4</title>
<g id="a_edge5_Node000005_Node000004"><a xlink:title=" ">
<path fill="none" stroke="#63b8ff" d="M525.34,-376.2C647.22,-382.8 883.92,-391.07 1083.75,-371 1096.9,-369.68 1110.93,-367.34 1124.02,-364.75"/>
<polygon fill="#63b8ff" stroke="#63b8ff" points="1124.67,-368.18 1133.75,-362.73 1123.25,-361.33 1124.67,-368.18"/>
</a>
</g>
</g>
<!-- Node7 -->
<g id="Node000007" class="node">
<title>Node7</title>
<g id="a_Node000007"><a xlink:href="../../d8/d52/class_a_e_log_parser.html#a7c3e2c0736eb6a3ccd84a528d72835ad" target="_top" xlink:title="Filters the passed queue according to the given severity and modulename filters.">
<polygon fill="white" stroke="#666666" points="699.25,-324 573,-324 573,-304 699.25,-304 699.25,-324"/>
<text text-anchor="middle" x="636.12" y="-310.5" font-family="Helvetica,sans-Serif" font-size="10.00">AELogParser::filterQueue</text>
</a>
</g>
</g>
<!-- Node6&#45;&gt;Node7 -->
<g id="edge7_Node000006_Node000007" class="edge">
<title>Node6&#45;&gt;Node7</title>
<g id="a_edge7_Node000006_Node000007"><a xlink:title=" ">
<path fill="none" stroke="#63b8ff" d="M519.11,-314C533,-314 547.49,-314 561.34,-314"/>
<polygon fill="#63b8ff" stroke="#63b8ff" points="561.28,-317.5 571.28,-314 561.28,-310.5 561.28,-317.5"/>
</a>
</g>
</g>
<!-- Node8 -->
<g id="Node000008" class="node">
<title>Node8</title>
<g id="a_Node000008"><a xlink:href="../../d8/d52/class_a_e_log_parser.html#a21f7748ae4be67f2221a114cbe9bca7c" target="_top" xlink:title="Checks if the passed severity is valid compared to the filtering severity.">
<polygon fill="white" stroke="#666666" points="1078.5,-362 938,-362 938,-342 1078.5,-342 1078.5,-362"/>
<text text-anchor="middle" x="1008.25" y="-348.5" font-family="Helvetica,sans-Serif" font-size="10.00">AELogParser::checkSeverity</text>
</a>
</g>
</g>
<!-- Node7&#45;&gt;Node8 -->
<g id="edge8_Node000007_Node000008" class="edge">
<title>Node7&#45;&gt;Node8</title>
<g id="a_edge8_Node000007_Node000008"><a xlink:title=" ">
<path fill="none" stroke="#63b8ff" d="M691.58,-324.48C709.28,-327.6 729.05,-330.77 747.25,-333 806.97,-340.32 874.79,-345.16 926.18,-348.12"/>
<polygon fill="#63b8ff" stroke="#63b8ff" points="925.85,-351.61 936.04,-348.68 926.25,-344.62 925.85,-351.61"/>
</a>
</g>
</g>
<!-- Node9 -->
<g id="Node000009" class="node">
<title>Node9</title>
<g id="a_Node000009"><a xlink:href="../../da/dea/struct_a_e_log_entry.html#a0fc1a114dbbaf785643b6558509f8e0c" target="_top" xlink:title="Makes a normal copy of the log entry, copying everything but the pointer to the next node.">
<polygon fill="white" stroke="#666666" points="881.38,-324 762.62,-324 762.62,-304 881.38,-304 881.38,-324"/>
<text text-anchor="middle" x="822" y="-310.5" font-family="Helvetica,sans-Serif" font-size="10.00">AELogEntry::copyEntry</text>
</a>
</g>
</g>
<!-- Node7&#45;&gt;Node9 -->
<g id="edge9_Node000007_Node000009" class="edge">
<title>Node7&#45;&gt;Node9</title>
<g id="a_edge9_Node000007_Node000009"><a xlink:title=" ">
<path fill="none" stroke="#63b8ff" d="M699.63,-314C716.13,-314 734.04,-314 750.9,-314"/>
<polygon fill="#63b8ff" stroke="#63b8ff" points="750.87,-317.5 760.87,-314 750.87,-310.5 750.87,-317.5"/>
</a>
</g>
</g>
<!-- Node7&#45;&gt;Node10 -->
<g id="edge10_Node000007_Node000010" class="edge">
<title>Node7&#45;&gt;Node10</title>
<g id="a_edge10_Node000007_Node000010"><a xlink:title=" ">
<path fill="none" stroke="#63b8ff" d="M687.86,-303.52C709.96,-298.95 736.08,-293.55 759.3,-288.75"/>
<polygon fill="#63b8ff" stroke="#63b8ff" points="759.87,-292.21 768.95,-286.76 758.45,-285.35 759.87,-292.21"/>
</a>
</g>
</g>
<!-- Node12 -->
<g id="Node000012" class="node">
<title>Node12</title>
<g id="a_Node000012"><a xlink:href="../../d8/d52/class_a_e_log_parser.html#ae89b754ad98409469e9b7405f63edee2" target="_top" xlink:title="Read the next indexed valid log entry in the file of the given severity and module name filter,...">
<polygon fill="white" stroke="#666666" points="711.25,-210 561,-210 561,-190 711.25,-190 711.25,-210"/>
<text text-anchor="middle" x="636.12" y="-196.5" font-family="Helvetica,sans-Serif" font-size="10.00">AELogParser::nextEntryCursor</text>
</a>
</g>
</g>
<!-- Node11&#45;&gt;Node12 -->
<g id="edge13_Node000011_Node000012" class="edge">
<title>Node11&#45;&gt;Node12</title>
<g id="a_edge13_Node000011_Node000012"><a xlink:title=" ">
<path fill="none" stroke="#63b8ff" d="M469.96,-134.41C503.22,-147.62 560.78,-170.48 598.41,-185.42"/>
<polygon fill="#63b8ff" stroke="#63b8ff" points="596.93,-188.6 607.52,-189.04 599.52,-182.09 596.93,-188.6"/>
</a>
</g>
</g>
<!-- Node21 -->
<g id="Node000021" class="node">
<title>Node21</title>
<g id="a_Node000021"><a xlink:href="../../da/dea/struct_a_e_log_entry.html#a7e8aa04faf251d62a79baab9e2cc531a" target="_top" xlink:title="Parses a given string as a log entry, and write it into passed entry object.">
<polygon fill="white" stroke="#666666" points="709.75,-134 562.5,-134 562.5,-114 709.75,-114 709.75,-134"/>
<text text-anchor="middle" x="636.12" y="-120.5" font-family="Helvetica,sans-Serif" font-size="10.00">AELogEntry::parseStringEntry</text>
</a>
</g>
</g>
<!-- Node11&#45;&gt;Node21 -->
<g id="edge26_Node000011_Node000021" class="edge">
<title>Node11&#45;&gt;Node21</title>
<g id="a_edge26_Node000011_Node000021"><a xlink:title=" ">
<path fill="none" stroke="#63b8ff" d="M504.04,-124C518.85,-124 534.98,-124 550.7,-124"/>
<polygon fill="#63b8ff" stroke="#63b8ff" points="550.53,-127.5 560.53,-124 550.53,-120.5 550.53,-127.5"/>
</a>
</g>
</g>
<!-- Node26 -->
<g id="Node000026" class="node">
<title>Node26</title>
<g id="a_Node000026"><a xlink:href="../../dd/dd5/class_a_e_file_reader.html#a391b5815b099e3d347a4d758a92e3295" target="_top" xlink:title="Reads the characters to a std::string untill a newline (included), or untill the maximum character am...">
<polygon fill="white" stroke="#666666" points="705.25,-78 567,-78 567,-58 705.25,-58 705.25,-78"/>
<text text-anchor="middle" x="636.12" y="-64.5" font-family="Helvetica,sans-Serif" font-size="10.00">AEFileReader::readStringNL</text>
</a>
</g>
</g>
<!-- Node11&#45;&gt;Node26 -->
<g id="edge31_Node000011_Node000026" class="edge">
<title>Node11&#45;&gt;Node26</title>
<g id="a_edge31_Node000011_Node000026"><a xlink:title=" ">
<path fill="none" stroke="#63b8ff" d="M479.3,-113.6C510.08,-104.59 554.84,-91.49 588.49,-81.65"/>
<polygon fill="#63b8ff" stroke="#63b8ff" points="589.38,-85.03 597.99,-78.87 587.41,-78.32 589.38,-85.03"/>
</a>
</g>
</g>
<!-- Node27 -->
<g id="Node000027" class="node">
<title>Node27</title>
<g id="a_Node000027"><a xlink:href="../../dd/dd5/class_a_e_file_reader.html#a477effa6d568ec7993c4d506d0d0420c" target="_top" xlink:title="Sets read cursor position to pos from origin.">
<polygon fill="white" stroke="#666666" points="706.75,-30 565.5,-30 565.5,-10 706.75,-10 706.75,-30"/>
<text text-anchor="middle" x="636.12" y="-16.5" font-family="Helvetica,sans-Serif" font-size="10.00">AEFileReader::setCursorPos</text>
</a>
</g>
</g>
<!-- Node11&#45;&gt;Node27 -->
<g id="edge33_Node000011_Node000027" class="edge">
<title>Node11&#45;&gt;Node27</title>
<g id="a_edge33_Node000011_Node000027"><a xlink:title=" ">
<path fill="none" stroke="#63b8ff" d="M458.01,-113.57C479.55,-98.12 522.03,-68.85 561,-49 571.44,-43.69 583.09,-38.71 594,-34.44"/>
<polygon fill="#63b8ff" stroke="#63b8ff" points="595.09,-37.77 603.19,-30.94 592.6,-31.23 595.09,-37.77"/>
</a>
</g>
</g>
<!-- Node13 -->
<g id="Node000013" class="node">
<title>Node13</title>
<g id="a_Node000013"><a xlink:href="../../d8/d52/class_a_e_log_parser.html#a77b12a5ddd2933a8319e523986788292" target="_top" xlink:title="Determines the error codes from the invalid values in the passed AELogEntryInfo instance.">
<polygon fill="white" stroke="#666666" points="896.75,-248 747.25,-248 747.25,-228 896.75,-228 896.75,-248"/>
<text text-anchor="middle" x="822" y="-234.5" font-family="Helvetica,sans-Serif" font-size="10.00">AELogParser::errorFromAELEI</text>
</a>
</g>
</g>
<!-- Node12&#45;&gt;Node13 -->
<g id="edge14_Node000012_Node000013" class="edge">
<title>Node12&#45;&gt;Node13</title>
<g id="a_edge14_Node000012_Node000013"><a xlink:title=" ">
<path fill="none" stroke="#63b8ff" d="M687.86,-210.48C709.96,-215.05 736.08,-220.45 759.3,-225.25"/>
<polygon fill="#63b8ff" stroke="#63b8ff" points="758.45,-228.65 768.95,-227.24 759.87,-221.79 758.45,-228.65"/>
</a>
</g>
</g>
<!-- Node14 -->
<g id="Node000014" class="node">
<title>Node14</title>
<g id="a_Node000014"><a xlink:href="../../d8/d52/class_a_e_log_parser.html#afcff7caee18bdcafa1dc0edb75a75590" target="_top" xlink:title="Finds the AELogEntryInfo corresponding to the next log entry with the specified severity and module n...">
<polygon fill="white" stroke="#666666" points="891.12,-210 752.88,-210 752.88,-190 891.12,-190 891.12,-210"/>
<text text-anchor="middle" x="822" y="-196.5" font-family="Helvetica,sans-Serif" font-size="10.00">AELogParser::findNextEntry</text>
</a>
</g>
</g>
<!-- Node12&#45;&gt;Node14 -->
<g id="edge15_Node000012_Node000014" class="edge">
<title>Node12&#45;&gt;Node14</title>
<g id="a_edge15_Node000012_Node000014"><a xlink:title=" ">
<path fill="none" stroke="#63b8ff" d="M711.65,-200C721.38,-200 731.38,-200 741.19,-200"/>
<polygon fill="#63b8ff" stroke="#63b8ff" points="741.09,-203.5 751.09,-200 741.09,-196.5 741.09,-203.5"/>
</a>
</g>
</g>
<!-- Node14&#45;&gt;Node4 -->
<g id="edge25_Node000014_Node000004" class="edge">
<title>Node14&#45;&gt;Node4</title>
<g id="a_edge25_Node000014_Node000004"><a xlink:title=" ">
<path fill="none" stroke="#63b8ff" d="M882.84,-210.39C887.84,-212.71 892.57,-215.55 896.75,-219 925.57,-242.8 903.66,-271.54 932.75,-295 940,-300.85 1046.54,-324.28 1116.6,-339.22"/>
<polygon fill="#63b8ff" stroke="#63b8ff" points="1115.53,-342.57 1126.04,-341.23 1116.98,-335.72 1115.53,-342.57"/>
</a>
</g>
</g>
<!-- Node14&#45;&gt;Node8 -->
<g id="edge17_Node000014_Node000008" class="edge">
<title>Node14&#45;&gt;Node8</title>
<g id="a_edge17_Node000014_Node000008"><a xlink:title=" ">
<path fill="none" stroke="#63b8ff" d="M884.37,-210.4C888.88,-212.74 893.08,-215.57 896.75,-219 934.01,-253.85 896.54,-292.06 932.75,-328 935.97,-331.19 939.61,-333.96 943.52,-336.36"/>
<polygon fill="#63b8ff" stroke="#63b8ff" points="941.83,-339.43 952.32,-340.91 945.04,-333.21 941.83,-339.43"/>
</a>
</g>
</g>
<!-- Node15 -->
<g id="Node000015" class="node">
<title>Node15</title>
<g id="a_Node000015"><a xlink:href="../../d8/d52/class_a_e_log_parser.html#a8e16a086fe0cb5cc6828b53b0a97a1bf" target="_top" xlink:title="Checks if the passed entry&#39;s and filter&#39;s module name indices match Moved from a lambda,...">
<polygon fill="white" stroke="#666666" points="1078.12,-286 938.38,-286 938.38,-266 1078.12,-266 1078.12,-286"/>
<text text-anchor="middle" x="1008.25" y="-272.5" font-family="Helvetica,sans-Serif" font-size="10.00">AELogParser::checkMName</text>
</a>
</g>
</g>
<!-- Node14&#45;&gt;Node15 -->
<g id="edge16_Node000014_Node000015" class="edge">
<title>Node14&#45;&gt;Node15</title>
<g id="a_edge16_Node000014_Node000015"><a xlink:title=" ">
<path fill="none" stroke="#63b8ff" d="M877.96,-210.45C884.52,-212.77 890.94,-215.58 896.75,-219 916.8,-230.81 912.69,-245.22 932.75,-257 935.41,-258.56 938.2,-260 941.07,-261.32"/>
<polygon fill="#63b8ff" stroke="#63b8ff" points="939.75,-264.56 950.33,-265.03 942.35,-258.06 939.75,-264.56"/>
</a>
</g>
</g>
<!-- Node16 -->
<g id="Node000016" class="node">
<title>Node16</title>
<g id="a_Node000016"><a xlink:href="../../d8/d52/class_a_e_log_parser.html#a04627d27deedd7981a5e106dd8ade5ed" target="_top" xlink:title="Checks if the current log file contains the given severity (or higher, depending on the &quot;strict&#45;sever...">
<polygon fill="white" stroke="#666666" points="1083.75,-248 932.75,-248 932.75,-228 1083.75,-228 1083.75,-248"/>
<text text-anchor="middle" x="1008.25" y="-234.5" font-family="Helvetica,sans-Serif" font-size="10.00">AELogParser::containsSeverity</text>
</a>
</g>
</g>
<!-- Node14&#45;&gt;Node16 -->
<g id="edge18_Node000014_Node000016" class="edge">
<title>Node14&#45;&gt;Node16</title>
<g id="a_edge18_Node000014_Node000016"><a xlink:title=" ">
<path fill="none" stroke="#63b8ff" d="M873.83,-210.48C895.99,-215.05 922.16,-220.45 945.42,-225.25"/>
<polygon fill="#63b8ff" stroke="#63b8ff" points="944.6,-228.65 955.1,-227.24 946.01,-221.8 944.6,-228.65"/>
</a>
</g>
</g>
<!-- Node17 -->
<g id="Node000017" class="node">
<title>Node17</title>
<g id="a_Node000017"><a xlink:href="../../d8/d52/class_a_e_log_parser.html#af349b880be4cdd8c6d27960a038680ab" target="_top" xlink:title="Checks if the file is closed by the AELogParser.">
<polygon fill="white" stroke="#666666" points="1237,-229 1119.75,-229 1119.75,-209 1237,-209 1237,-229"/>
<text text-anchor="middle" x="1178.38" y="-215.5" font-family="Helvetica,sans-Serif" font-size="10.00">AELogParser::isClosed</text>
</a>
</g>
</g>
<!-- Node14&#45;&gt;Node17 -->
<g id="edge24_Node000014_Node000017" class="edge">
<title>Node14&#45;&gt;Node17</title>
<g id="a_edge24_Node000014_Node000017"><a xlink:title=" ">
<path fill="none" stroke="#63b8ff" d="M891.33,-203.66C953.72,-207.01 1045.5,-211.93 1108.17,-215.29"/>
<polygon fill="#63b8ff" stroke="#63b8ff" points="1107.83,-218.78 1118,-215.82 1108.2,-211.79 1107.83,-218.78"/>
</a>
</g>
</g>
<!-- Node20 -->
<g id="Node000020" class="node">
<title>Node20</title>
<g id="a_Node000020"><a xlink:href="../../db/d7b/struct_a_e_log_entry_info.html#af5f2718c2846e38977e660dd8fb59333" target="_top" xlink:title="Returns the invalid instance of the AELogEntryInfo.">
<polygon fill="white" stroke="#666666" points="1077.75,-172 938.75,-172 938.75,-152 1077.75,-152 1077.75,-172"/>
<text text-anchor="middle" x="1008.25" y="-158.5" font-family="Helvetica,sans-Serif" font-size="10.00">AELogEntryInfo::invalidEntry</text>
</a>
</g>
</g>
<!-- Node14&#45;&gt;Node20 -->
<g id="edge23_Node000014_Node000020" class="edge">
<title>Node14&#45;&gt;Node20</title>
<g id="a_edge23_Node000014_Node000020"><a xlink:title=" ">
<path fill="none" stroke="#63b8ff" d="M873.83,-189.52C895.99,-184.95 922.16,-179.55 945.42,-174.75"/>
<polygon fill="#63b8ff" stroke="#63b8ff" points="946.01,-178.2 955.1,-172.76 944.6,-171.35 946.01,-178.2"/>
</a>
</g>
</g>
<!-- Node16&#45;&gt;Node4 -->
<g id="edge22_Node000016_Node000004" class="edge">
<title>Node16&#45;&gt;Node4</title>
<g id="a_edge22_Node000016_Node000004"><a xlink:title=" ">
<path fill="none" stroke="#63b8ff" d="M1064.31,-248.38C1071.08,-250.71 1077.73,-253.54 1083.75,-257 1117.21,-276.21 1146.77,-310.66 1163.34,-332.37"/>
<polygon fill="#63b8ff" stroke="#63b8ff" points="1160.53,-334.45 1169.3,-340.4 1166.15,-330.28 1160.53,-334.45"/>
</a>
</g>
</g>
<!-- Node16&#45;&gt;Node17 -->
<g id="edge19_Node000016_Node000017" class="edge">
<title>Node16&#45;&gt;Node17</title>
<g id="a_edge19_Node000016_Node000017"><a xlink:title=" ">
<path fill="none" stroke="#63b8ff" d="M1083.97,-229.56C1091.93,-228.66 1099.99,-227.74 1107.88,-226.85"/>
<polygon fill="#63b8ff" stroke="#63b8ff" points="1108.24,-230.34 1117.78,-225.73 1107.45,-223.38 1108.24,-230.34"/>
</a>
</g>
</g>
<!-- Node18 -->
<g id="Node000018" class="node">
<title>Node18</title>
<g id="a_Node000018"><a xlink:href="../../dd/dd5/class_a_e_file_reader.html#a81bb672d7d1a142c7473d880a3842073" target="_top" xlink:title="Checks if a file isn&#39;t open by this file&#45;reader.">
<polygon fill="white" stroke="#666666" points="1392.5,-229 1273,-229 1273,-209 1392.5,-209 1392.5,-229"/>
<text text-anchor="middle" x="1332.75" y="-215.5" font-family="Helvetica,sans-Serif" font-size="10.00">AEFileReader::isClosed</text>
</a>
</g>
</g>
<!-- Node17&#45;&gt;Node18 -->
<g id="edge20_Node000017_Node000018" class="edge">
<title>Node17&#45;&gt;Node18</title>
<g id="a_edge20_Node000017_Node000018"><a xlink:title=" ">
<path fill="none" stroke="#63b8ff" d="M1237.42,-219C1245.25,-219 1253.35,-219 1261.37,-219"/>
<polygon fill="#63b8ff" stroke="#63b8ff" points="1261.09,-222.5 1271.09,-219 1261.09,-215.5 1261.09,-222.5"/>
</a>
</g>
</g>
<!-- Node19 -->
<g id="Node000019" class="node">
<title>Node19</title>
<g id="a_Node000019"><a xlink:href="../../dd/dd5/class_a_e_file_reader.html#a07f32763fbb1df143c8aab2be7b856c1" target="_top" xlink:title="Checks if a file is open by this file&#45;reader.">
<polygon fill="white" stroke="#666666" points="1541.25,-229 1428.5,-229 1428.5,-209 1541.25,-209 1541.25,-229"/>
<text text-anchor="middle" x="1484.88" y="-215.5" font-family="Helvetica,sans-Serif" font-size="10.00">AEFileReader::isOpen</text>
</a>
</g>
</g>
<!-- Node18&#45;&gt;Node19 -->
<g id="edge21_Node000018_Node000019" class="edge">
<title>Node18&#45;&gt;Node19</title>
<g id="a_edge21_Node000018_Node000019"><a xlink:title=" ">
<path fill="none" stroke="#63b8ff" d="M1392.65,-219C1400.58,-219 1408.76,-219 1416.82,-219"/>
<polygon fill="#63b8ff" stroke="#63b8ff" points="1416.57,-222.5 1426.57,-219 1416.57,-215.5 1416.57,-222.5"/>
</a>
</g>
</g>
<!-- Node22 -->
<g id="Node000022" class="node">
<title>Node22</title>
<g id="a_Node000022"><a xlink:href="../../da/dea/struct_a_e_log_entry.html#a58aeadbca0c2c0863b534a52d40d22a8" target="_top" xlink:title="Clears the current entry and sets its values to zero/invalid.">
<polygon fill="white" stroke="#666666" points="881.38,-172 762.62,-172 762.62,-152 881.38,-152 881.38,-172"/>
<text text-anchor="middle" x="822" y="-158.5" font-family="Helvetica,sans-Serif" font-size="10.00">AELogEntry::clearEntry</text>
</a>
</g>
</g>
<!-- Node21&#45;&gt;Node22 -->
<g id="edge27_Node000021_Node000022" class="edge">
<title>Node21&#45;&gt;Node22</title>
<g id="a_edge27_Node000021_Node000022"><a xlink:title=" ">
<path fill="none" stroke="#63b8ff" d="M687.86,-134.48C709.96,-139.05 736.08,-144.45 759.3,-149.25"/>
<polygon fill="#63b8ff" stroke="#63b8ff" points="758.45,-152.65 768.95,-151.24 759.87,-145.79 758.45,-152.65"/>
</a>
</g>
</g>
<!-- Node23 -->
<g id="Node000023" class="node">
<title>Node23</title>
<g id="a_Node000023"><a xlink:href="../../de/dde/namespaceace_1_1utils.html#ac3eadc5f289b54059322023f3c5eed96" target="_top" xlink:title="Checks if the passed string is alpha&#45;numeric with underscores (contains only numbers,...">
<polygon fill="white" stroke="#666666" points="877.25,-134 766.75,-134 766.75,-114 877.25,-114 877.25,-134"/>
<text text-anchor="middle" x="822" y="-120.5" font-family="Helvetica,sans-Serif" font-size="10.00">ace::utils::isAlNumUs</text>
</a>
</g>
</g>
<!-- Node21&#45;&gt;Node23 -->
<g id="edge28_Node000021_Node000023" class="edge">
<title>Node21&#45;&gt;Node23</title>
<g id="a_edge28_Node000021_Node000023"><a xlink:title=" ">
<path fill="none" stroke="#63b8ff" d="M710.06,-124C724.86,-124 740.34,-124 754.88,-124"/>
<polygon fill="#63b8ff" stroke="#63b8ff" points="754.8,-127.5 764.8,-124 754.8,-120.5 754.8,-127.5"/>
</a>
</g>
</g>
<!-- Node24 -->
<g id="Node000024" class="node">
<title>Node24</title>
<g id="a_Node000024"><a xlink:href="../../de/dde/namespaceace_1_1utils.html#a2c0379815bc24cc369071e0b48787e9b" target="_top" xlink:title="Converts the given c&#45;string to a (c)time point (std::time_t), using a set format.">
<polygon fill="white" stroke="#666666" points="880.25,-96 763.75,-96 763.75,-76 880.25,-76 880.25,-96"/>
<text text-anchor="middle" x="822" y="-82.5" font-family="Helvetica,sans-Serif" font-size="10.00">ace::utils::stringToDate</text>
</a>
</g>
</g>
<!-- Node21&#45;&gt;Node24 -->
<g id="edge29_Node000021_Node000024" class="edge">
<title>Node21&#45;&gt;Node24</title>
<g id="a_edge29_Node000021_Node000024"><a xlink:title=" ">
<path fill="none" stroke="#63b8ff" d="M687.86,-113.52C709.96,-108.95 736.08,-103.55 759.3,-98.75"/>
<polygon fill="#63b8ff" stroke="#63b8ff" points="759.87,-102.21 768.95,-96.76 758.45,-95.35 759.87,-102.21"/>
</a>
</g>
</g>
<!-- Node25 -->
<g id="Node000025" class="node">
<title>Node25</title>
<g id="a_Node000025"><a xlink:href="../../da/dea/struct_a_e_log_entry.html#acacb2f1cbf3218922db05169ef55d8cb" target="_top" xlink:title="Deduces the string representation of a type (as appears in the log file) to a corresponding type numb...">
<polygon fill="white" stroke="#666666" points="887,-58 757,-58 757,-38 887,-38 887,-58"/>
<text text-anchor="middle" x="822" y="-44.5" font-family="Helvetica,sans-Serif" font-size="10.00">AELogEntry::stringToType</text>
</a>
</g>
</g>
<!-- Node21&#45;&gt;Node25 -->
<g id="edge30_Node000021_Node000025" class="edge">
<title>Node21&#45;&gt;Node25</title>
<g id="a_edge30_Node000021_Node000025"><a xlink:title=" ">
<path fill="none" stroke="#63b8ff" d="M692.36,-113.57C698.95,-111.26 705.41,-108.43 711.25,-105 731.3,-93.21 727.2,-78.81 747.25,-67 749.88,-65.45 752.64,-64.02 755.48,-62.71"/>
<polygon fill="#63b8ff" stroke="#63b8ff" points="756.67,-66.01 764.64,-59.02 754.06,-59.51 756.67,-66.01"/>
</a>
</g>
</g>
<!-- Node26&#45;&gt;Node26 -->
<g id="edge32_Node000026_Node000026" class="edge">
<title>Node26&#45;&gt;Node26</title>
<g id="a_edge32_Node000026_Node000026"><a xlink:title=" ">
<path fill="none" stroke="#63b8ff" d="M606.59,-78.34C593.97,-86.98 603.81,-96 636.12,-96 654.3,-96 665.37,-93.14 669.32,-89.11"/>
<polygon fill="#63b8ff" stroke="#63b8ff" points="672.68,-88.11 666.15,-79.77 666.05,-90.37 672.68,-88.11"/>
</a>
</g>
</g>
<!-- Node28 -->
<g id="Node000028" class="node">
<title>Node28</title>
<g id="a_Node000028"><a xlink:href="../../dd/dd5/class_a_e_file_reader.html#abbc85b7bb94f31f54df561d23a38e3dc" target="_top" xlink:title="Reads the bytes (size of T) from the file and dumps/reinterprets them as the value in the passed vari...">
<polygon fill="white" stroke="#666666" points="890,-20 754,-20 754,0 890,0 890,-20"/>
<text text-anchor="middle" x="822" y="-6.5" font-family="Helvetica,sans-Serif" font-size="10.00">AEFileReader::readVariable</text>
</a>
</g>
</g>
<!-- Node27&#45;&gt;Node28 -->
<g id="edge34_Node000027_Node000028" class="edge">
<title>Node27&#45;&gt;Node28</title>
<g id="a_edge34_Node000027_Node000028"><a xlink:title=" ">
<path fill="none" stroke="#63b8ff" d="M707.16,-16.19C718.58,-15.57 730.48,-14.92 742.09,-14.29"/>
<polygon fill="#63b8ff" stroke="#63b8ff" points="742.28,-17.79 752.07,-13.75 741.9,-10.8 742.28,-17.79"/>
</a>
</g>
</g>
<!-- Node29 -->
<g id="Node000029" class="node">
<title>Node29</title>
<g id="a_Node000029"><a xlink:href="../../dd/dd5/class_a_e_file_reader.html#a67d3baebff92aaa0b41216cb67a91e4c" target="_top" xlink:title="Reads an array of dcount elements, each one with a size of dsize bytes, to memory block pointed by cd...">
<polygon fill="white" stroke="#666666" points="1077,-20 939.5,-20 939.5,0 1077,0 1077,-20"/>
<text text-anchor="middle" x="1008.25" y="-6.5" font-family="Helvetica,sans-Serif" font-size="10.00">AEFileReader::readData_ptr</text>
</a>
</g>
</g>
<!-- Node28&#45;&gt;Node29 -->
<g id="edge35_Node000028_Node000029" class="edge">
<title>Node28&#45;&gt;Node29</title>
<g id="a_edge35_Node000028_Node000029"><a xlink:title=" ">
<path fill="none" stroke="#63b8ff" d="M890.3,-10C902.5,-10 915.33,-10 927.84,-10"/>
<polygon fill="#63b8ff" stroke="#63b8ff" points="927.69,-13.5 937.69,-10 927.69,-6.5 927.69,-13.5"/>
</a>
</g>
</g>
</g>
</svg>
