<?xml version="1.0" encoding="UTF-8" standalone="no"?>
<!DOCTYPE svg PUBLIC "-//W3C//DTD SVG 1.1//EN"
 "http://www.w3.org/Graphics/SVG/1.1/DTD/svg11.dtd">
<!-- Generated by graphviz version 10.0.1 (20240210.2158)
 -->
<!-- Title: AEMisc/include/AEFlags.hpp Pages: 1 -->
<svg width="920pt" height="308pt"
 viewBox="0.00 0.00 920.12 308.00" xmlns="http://www.w3.org/2000/svg" xmlns:xlink="http://www.w3.org/1999/xlink">
<g id="graph0" class="graph" transform="scale(1 1) rotate(0) translate(4 304)">
<title>AEMisc/include/AEFlags.hpp</title>
<!-- Node1 -->
<g id="Node000001" class="node">
<title>Node1</title>
<g id="a_Node000001"><a xlink:title="This file contains the flags to manipulate engine&#39;s funcitonality.">
<polygon fill="#999999" stroke="#666666" points="480.75,-300 337.25,-300 337.25,-280 480.75,-280 480.75,-300"/>
<text text-anchor="middle" x="409" y="-286.5" font-family="Helvetica,sans-Serif" font-size="10.00">AEMisc/include/AEFlags.hpp</text>
</a>
</g>
</g>
<!-- Node2 -->
<g id="Node000002" class="node">
<title>Node2</title>
<g id="a_Node000002"><a xlink:href="../../de/d72/_a_e_frame_8hpp.html" target="_top" xlink:title=" ">
<polygon fill="white" stroke="#666666" points="154,-132 0,-132 0,-112 154,-112 154,-132"/>
<text text-anchor="middle" x="77" y="-118.5" font-family="Helvetica,sans-Serif" font-size="10.00">AEFrame/include/AEFrame.hpp</text>
</a>
</g>
</g>
<!-- Node1&#45;&gt;Node2 -->
<g id="edge1_Node000001_Node000002" class="edge">
<title>Node1&#45;&gt;Node2</title>
<g id="a_edge1_Node000001_Node000002"><a xlink:title=" ">
<path fill="none" stroke="#63b8ff" d="M351.6,-276.94C320.28,-269.38 281.23,-258.33 248,-244 203.7,-224.89 194.31,-215.97 155,-188 129.43,-169.81 101.71,-145.49 87.19,-132.36"/>
<polygon fill="#63b8ff" stroke="#63b8ff" points="350.76,-280.34 361.29,-279.22 352.36,-273.52 350.76,-280.34"/>
</a>
</g>
</g>
<!-- Node4 -->
<g id="Node000004" class="node">
<title>Node4</title>
<g id="a_Node000004"><a xlink:href="../../d2/d57/_a_e_math_trig_lookup_8hpp.html" target="_top" xlink:title="This file contains the engine&#39;s trigonometric function lookup tables.">
<polygon fill="white" stroke="#666666" points="682.25,-244 493.75,-244 493.75,-224 682.25,-224 682.25,-244"/>
<text text-anchor="middle" x="588" y="-230.5" font-family="Helvetica,sans-Serif" font-size="10.00">AEMisc/include/AEMathTrigLookup.hpp</text>
</a>
</g>
</g>
<!-- Node1&#45;&gt;Node4 -->
<g id="edge3_Node000001_Node000004" class="edge">
<title>Node1&#45;&gt;Node4</title>
<g id="a_edge3_Node000001_Node000004"><a xlink:title=" ">
<path fill="none" stroke="#63b8ff" d="M451.08,-276.31C483.39,-266.56 527.29,-253.32 556.58,-244.48"/>
<polygon fill="#63b8ff" stroke="#63b8ff" points="450.19,-272.92 441.63,-279.16 452.21,-279.62 450.19,-272.92"/>
</a>
</g>
</g>
<!-- Node5 -->
<g id="Node000005" class="node">
<title>Node5</title>
<g id="a_Node000005"><a xlink:href="../../de/de8/_a_e_utils_8hpp.html" target="_top" xlink:title="This file contains the engine&#39;s usefull utilities for trivial tasks.">
<polygon fill="white" stroke="#666666" points="535.5,-188 396.5,-188 396.5,-168 535.5,-168 535.5,-188"/>
<text text-anchor="middle" x="466" y="-174.5" font-family="Helvetica,sans-Serif" font-size="10.00">AEMisc/include/AEUtils.hpp</text>
</a>
</g>
</g>
<!-- Node1&#45;&gt;Node5 -->
<g id="edge4_Node000001_Node000005" class="edge">
<title>Node1&#45;&gt;Node5</title>
<g id="a_edge4_Node000001_Node000005"><a xlink:title=" ">
<path fill="none" stroke="#63b8ff" d="M426.93,-271.29C434.02,-263.48 441.71,-253.84 447,-244 456.9,-225.56 462.22,-201.34 464.54,-188.29"/>
<polygon fill="#63b8ff" stroke="#63b8ff" points="424.49,-268.79 420.12,-278.44 429.56,-273.62 424.49,-268.79"/>
</a>
</g>
</g>
<!-- Node15 -->
<g id="Node000015" class="node">
<title>Node15</title>
<g id="a_Node000015"><a xlink:href="../../d9/d6a/_a_e_utils_macros_8hpp.html" target="_top" xlink:title="This file contains the engine&#39;s macros for trivial tasks.">
<polygon fill="white" stroke="#666666" points="437.62,-244 266.38,-244 266.38,-224 437.62,-224 437.62,-244"/>
<text text-anchor="middle" x="352" y="-230.5" font-family="Helvetica,sans-Serif" font-size="10.00">AEMisc/include/AEUtilsMacros.hpp</text>
</a>
</g>
</g>
<!-- Node1&#45;&gt;Node15 -->
<g id="edge16_Node000001_Node000015" class="edge">
<title>Node1&#45;&gt;Node15</title>
<g id="a_edge16_Node000001_Node000015"><a xlink:title=" ">
<path fill="none" stroke="#63b8ff" d="M390.89,-271.85C381.26,-262.72 369.79,-251.86 361.81,-244.3"/>
<polygon fill="#63b8ff" stroke="#63b8ff" points="388.31,-274.22 397.97,-278.55 393.12,-269.13 388.31,-274.22"/>
</a>
</g>
</g>
<!-- Node16 -->
<g id="Node000016" class="node">
<title>Node16</title>
<g id="a_Node000016"><a xlink:href="../../d7/d7f/_a_e_module_base_8hpp.html" target="_top" xlink:title="This file contains the engine&#39;s basic module template.">
<polygon fill="white" stroke="#666666" points="370.25,-188 163.75,-188 163.75,-168 370.25,-168 370.25,-188"/>
<text text-anchor="middle" x="267" y="-174.5" font-family="Helvetica,sans-Serif" font-size="10.00">AEModuleBase/include/AEModuleBase.hpp</text>
</a>
</g>
</g>
<!-- Node1&#45;&gt;Node16 -->
<g id="edge23_Node000001_Node000016" class="edge">
<title>Node1&#45;&gt;Node16</title>
<g id="a_edge23_Node000001_Node000016"><a xlink:title=" ">
<path fill="none" stroke="#63b8ff" d="M325.91,-283.59C299.66,-277.48 273.28,-265.8 257,-244 244.7,-227.53 254.64,-202.09 261.63,-188.43"/>
<polygon fill="#63b8ff" stroke="#63b8ff" points="325.14,-287.01 335.64,-285.58 326.54,-280.15 325.14,-287.01"/>
</a>
</g>
</g>
<!-- Node17 -->
<g id="Node000017" class="node">
<title>Node17</title>
<g id="a_Node000017"><a xlink:href="../../d7/d09/_a_e_vector_8hpp.html" target="_top" xlink:title=" ">
<polygon fill="white" stroke="#666666" points="855.75,-244 700.25,-244 700.25,-224 855.75,-224 855.75,-244"/>
<text text-anchor="middle" x="778" y="-230.5" font-family="Helvetica,sans-Serif" font-size="10.00">AEVector/include/AEVector.hpp</text>
</a>
</g>
</g>
<!-- Node1&#45;&gt;Node17 -->
<g id="edge24_Node000001_Node000017" class="edge">
<title>Node1&#45;&gt;Node17</title>
<g id="a_edge24_Node000001_Node000017"><a xlink:title=" ">
<path fill="none" stroke="#63b8ff" d="M485.08,-277.87C552.45,-268.01 649.71,-253.77 713.38,-244.46"/>
<polygon fill="#63b8ff" stroke="#63b8ff" points="484.58,-274.4 475.19,-279.31 485.6,-281.33 484.58,-274.4"/>
</a>
</g>
</g>
<!-- Node3 -->
<g id="Node000003" class="node">
<title>Node3</title>
<g id="a_Node000003"><a xlink:href="../../dc/dc6/_a_e_timer_8hpp.html" target="_top" xlink:title=" ">
<polygon fill="white" stroke="#666666" points="150.25,-76 3.75,-76 3.75,-56 150.25,-56 150.25,-76"/>
<text text-anchor="middle" x="77" y="-62.5" font-family="Helvetica,sans-Serif" font-size="10.00">AETimer/include/AETimer.hpp</text>
</a>
</g>
</g>
<!-- Node2&#45;&gt;Node3 -->
<g id="edge2_Node000002_Node000003" class="edge">
<title>Node2&#45;&gt;Node3</title>
<g id="a_edge2_Node000002_Node000003"><a xlink:title=" ">
<path fill="none" stroke="#63b8ff" d="M77,-100.13C77,-91.9 77,-82.85 77,-76.3"/>
<polygon fill="#63b8ff" stroke="#63b8ff" points="73.5,-100.08 77,-110.08 80.5,-100.08 73.5,-100.08"/>
</a>
</g>
</g>
<!-- Node6 -->
<g id="Node000006" class="node">
<title>Node6</title>
<g id="a_Node000006"><a xlink:href="../../dc/dc6/_a_e_log_entry_8hpp.html" target="_top" xlink:title=" ">
<polygon fill="white" stroke="#666666" points="569.75,-132 372.25,-132 372.25,-112 569.75,-112 569.75,-132"/>
<text text-anchor="middle" x="471" y="-118.5" font-family="Helvetica,sans-Serif" font-size="10.00">AECustomTypes/include/AELogEntry.hpp</text>
</a>
</g>
</g>
<!-- Node5&#45;&gt;Node6 -->
<g id="edge5_Node000005_Node000006" class="edge">
<title>Node5&#45;&gt;Node6</title>
<g id="a_edge5_Node000005_Node000006"><a xlink:title=" ">
<path fill="none" stroke="#63b8ff" d="M467.93,-156.13C468.69,-147.9 469.53,-138.85 470.14,-132.3"/>
<polygon fill="#63b8ff" stroke="#63b8ff" points="464.45,-155.81 467.01,-166.09 471.42,-156.45 464.45,-155.81"/>
</a>
</g>
</g>
<!-- Node11 -->
<g id="Node000011" class="node">
<title>Node11</title>
<g id="a_Node000011"><a xlink:href="../../d3/dda/_a_e_file_reader_8hpp.html" target="_top" xlink:title=" ">
<polygon fill="white" stroke="#666666" points="779.75,-132 588.25,-132 588.25,-112 779.75,-112 779.75,-132"/>
<text text-anchor="middle" x="684" y="-118.5" font-family="Helvetica,sans-Serif" font-size="10.00">AEFileReader/include/AEFileReader.hpp</text>
</a>
</g>
</g>
<!-- Node5&#45;&gt;Node11 -->
<g id="edge10_Node000005_Node000011" class="edge">
<title>Node5&#45;&gt;Node11</title>
<g id="a_edge10_Node000005_Node000011"><a xlink:title=" ">
<path fill="none" stroke="#63b8ff" d="M515.2,-164.81C554.76,-155.01 609.53,-141.45 645.82,-132.46"/>
<polygon fill="#63b8ff" stroke="#63b8ff" points="514.56,-161.37 505.69,-167.17 516.24,-168.16 514.56,-161.37"/>
</a>
</g>
</g>
<!-- Node13 -->
<g id="Node000013" class="node">
<title>Node13</title>
<g id="a_Node000013"><a xlink:href="../../db/da4/_a_e_file_writer_8hpp.html" target="_top" xlink:title=" ">
<polygon fill="white" stroke="#666666" points="354.25,-132 171.75,-132 171.75,-112 354.25,-112 354.25,-132"/>
<text text-anchor="middle" x="263" y="-118.5" font-family="Helvetica,sans-Serif" font-size="10.00">AEFileWriter/include/AEFileWriter.hpp</text>
</a>
</g>
</g>
<!-- Node5&#45;&gt;Node13 -->
<g id="edge13_Node000005_Node000013" class="edge">
<title>Node5&#45;&gt;Node13</title>
<g id="a_edge13_Node000005_Node000013"><a xlink:title=" ">
<path fill="none" stroke="#63b8ff" d="M419.71,-164.69C382.95,-154.91 332.29,-141.43 298.64,-132.48"/>
<polygon fill="#63b8ff" stroke="#63b8ff" points="418.61,-168.02 429.18,-167.2 420.41,-161.25 418.61,-168.02"/>
</a>
</g>
</g>
<!-- Node7 -->
<g id="Node000007" class="node">
<title>Node7</title>
<g id="a_Node000007"><a xlink:href="../../d0/dab/_a_e_log_parser_8hpp.html" target="_top" xlink:title=" ">
<polygon fill="white" stroke="#666666" points="719.5,-76 532.5,-76 532.5,-56 719.5,-56 719.5,-76"/>
<text text-anchor="middle" x="626" y="-62.5" font-family="Helvetica,sans-Serif" font-size="10.00">AELogParser/include/AELogParser.hpp</text>
</a>
</g>
</g>
<!-- Node6&#45;&gt;Node7 -->
<g id="edge6_Node000006_Node000007" class="edge">
<title>Node6&#45;&gt;Node7</title>
<g id="a_edge6_Node000006_Node000007"><a xlink:title=" ">
<path fill="none" stroke="#63b8ff" d="M508.54,-107.92C536.41,-98.21 573.76,-85.2 598.79,-76.48"/>
<polygon fill="#63b8ff" stroke="#63b8ff" points="507.72,-104.5 499.43,-111.1 510.02,-111.11 507.72,-104.5"/>
</a>
</g>
</g>
<!-- Node9 -->
<g id="Node000009" class="node">
<title>Node9</title>
<g id="a_Node000009"><a xlink:href="../../d4/d9f/_a_e_logger_8hpp.html" target="_top" xlink:title=" ">
<polygon fill="white" stroke="#666666" points="514.5,-76 357.5,-76 357.5,-56 514.5,-56 514.5,-76"/>
<text text-anchor="middle" x="436" y="-62.5" font-family="Helvetica,sans-Serif" font-size="10.00">AELogger/include/AELogger.hpp</text>
</a>
</g>
</g>
<!-- Node6&#45;&gt;Node9 -->
<g id="edge8_Node000006_Node000009" class="edge">
<title>Node6&#45;&gt;Node9</title>
<g id="a_edge8_Node000006_Node000009"><a xlink:title=" ">
<path fill="none" stroke="#63b8ff" d="M458.78,-102.15C453.11,-93.4 446.62,-83.39 442.03,-76.3"/>
<polygon fill="#63b8ff" stroke="#63b8ff" points="455.7,-103.84 464.08,-110.32 461.58,-100.03 455.7,-103.84"/>
</a>
</g>
</g>
<!-- Node8 -->
<g id="Node000008" class="node">
<title>Node8</title>
<g id="a_Node000008"><a xlink:href="../../d2/d77/_a_e_log_parser_8cpp.html" target="_top" xlink:title=" ">
<polygon fill="white" stroke="#666666" points="710.88,-20 541.12,-20 541.12,0 710.88,0 710.88,-20"/>
<text text-anchor="middle" x="626" y="-6.5" font-family="Helvetica,sans-Serif" font-size="10.00">AELogParser/src/AELogParser.cpp</text>
</a>
</g>
</g>
<!-- Node7&#45;&gt;Node8 -->
<g id="edge7_Node000007_Node000008" class="edge">
<title>Node7&#45;&gt;Node8</title>
<g id="a_edge7_Node000007_Node000008"><a xlink:title=" ">
<path fill="none" stroke="#63b8ff" d="M626,-44.13C626,-35.9 626,-26.85 626,-20.3"/>
<polygon fill="#63b8ff" stroke="#63b8ff" points="622.5,-44.08 626,-54.08 629.5,-44.08 622.5,-44.08"/>
</a>
</g>
</g>
<!-- Node10 -->
<g id="Node000010" class="node">
<title>Node10</title>
<g id="a_Node000010"><a xlink:href="../../db/da0/_a_e_logger_8cpp.html" target="_top" xlink:title=" ">
<polygon fill="white" stroke="#666666" points="505.88,-20 366.12,-20 366.12,0 505.88,0 505.88,-20"/>
<text text-anchor="middle" x="436" y="-6.5" font-family="Helvetica,sans-Serif" font-size="10.00">AELogger/src/AELogger.cpp</text>
</a>
</g>
</g>
<!-- Node9&#45;&gt;Node10 -->
<g id="edge9_Node000009_Node000010" class="edge">
<title>Node9&#45;&gt;Node10</title>
<g id="a_edge9_Node000009_Node000010"><a xlink:title=" ">
<path fill="none" stroke="#63b8ff" d="M436,-44.13C436,-35.9 436,-26.85 436,-20.3"/>
<polygon fill="#63b8ff" stroke="#63b8ff" points="432.5,-44.08 436,-54.08 439.5,-44.08 432.5,-44.08"/>
</a>
</g>
</g>
<!-- Node11&#45;&gt;Node7 -->
<g id="edge12_Node000011_Node000007" class="edge">
<title>Node11&#45;&gt;Node7</title>
<g id="a_edge12_Node000011_Node000007"><a xlink:title=" ">
<path fill="none" stroke="#63b8ff" d="M665.58,-103.85C655.77,-94.72 644.1,-83.86 635.99,-76.3"/>
<polygon fill="#63b8ff" stroke="#63b8ff" points="663.09,-106.31 672.79,-110.56 667.86,-101.19 663.09,-106.31"/>
</a>
</g>
</g>
<!-- Node12 -->
<g id="Node000012" class="node">
<title>Node12</title>
<g id="a_Node000012"><a xlink:href="../../d9/d6e/_a_e_file_reader_8cpp.html" target="_top" xlink:title=" ">
<polygon fill="white" stroke="#666666" points="912.12,-76 737.88,-76 737.88,-56 912.12,-56 912.12,-76"/>
<text text-anchor="middle" x="825" y="-62.5" font-family="Helvetica,sans-Serif" font-size="10.00">AEFileReader/src/AEFileReader.cpp</text>
</a>
</g>
</g>
<!-- Node11&#45;&gt;Node12 -->
<g id="edge11_Node000011_Node000012" class="edge">
<title>Node11&#45;&gt;Node12</title>
<g id="a_edge11_Node000011_Node000012"><a xlink:title=" ">
<path fill="none" stroke="#63b8ff" d="M719.17,-107.53C744.4,-97.87 777.78,-85.08 800.25,-76.48"/>
<polygon fill="#63b8ff" stroke="#63b8ff" points="718.06,-104.21 709.97,-111.05 720.56,-110.74 718.06,-104.21"/>
</a>
</g>
</g>
<!-- Node13&#45;&gt;Node9 -->
<g id="edge15_Node000013_Node000009" class="edge">
<title>Node13&#45;&gt;Node9</title>
<g id="a_edge15_Node000013_Node000009"><a xlink:title=" ">
<path fill="none" stroke="#63b8ff" d="M304.08,-108.18C335.26,-98.44 377.44,-85.28 405.63,-76.48"/>
<polygon fill="#63b8ff" stroke="#63b8ff" points="303.08,-104.82 294.58,-111.14 305.17,-111.5 303.08,-104.82"/>
</a>
</g>
</g>
<!-- Node14 -->
<g id="Node000014" class="node">
<title>Node14</title>
<g id="a_Node000014"><a xlink:href="../../d0/d56/_a_e_file_writer_8cpp.html" target="_top" xlink:title=" ">
<polygon fill="white" stroke="#666666" points="339.62,-76 174.38,-76 174.38,-56 339.62,-56 339.62,-76"/>
<text text-anchor="middle" x="257" y="-62.5" font-family="Helvetica,sans-Serif" font-size="10.00">AEFileWriter/src/AEFileWriter.cpp</text>
</a>
</g>
</g>
<!-- Node13&#45;&gt;Node14 -->
<g id="edge14_Node000013_Node000014" class="edge">
<title>Node13&#45;&gt;Node14</title>
<g id="a_edge14_Node000013_Node000014"><a xlink:title=" ">
<path fill="none" stroke="#63b8ff" d="M260.71,-100.43C259.79,-92.11 258.77,-82.93 258.03,-76.3"/>
<polygon fill="#63b8ff" stroke="#63b8ff" points="257.2,-100.54 261.79,-110.09 264.16,-99.76 257.2,-100.54"/>
</a>
</g>
</g>
<!-- Node15&#45;&gt;Node5 -->
<g id="edge17_Node000015_Node000005" class="edge">
<title>Node15&#45;&gt;Node5</title>
<g id="a_edge17_Node000015_Node000005"><a xlink:title=" ">
<path fill="none" stroke="#63b8ff" d="M382.09,-218.75C402.28,-209.18 428.31,-196.85 445.99,-188.48"/>
<polygon fill="#63b8ff" stroke="#63b8ff" points="380.76,-215.5 373.23,-222.95 383.76,-221.83 380.76,-215.5"/>
</a>
</g>
</g>
<!-- Node15&#45;&gt;Node16 -->
<g id="edge18_Node000015_Node000016" class="edge">
<title>Node15&#45;&gt;Node16</title>
<g id="a_edge18_Node000015_Node000016"><a xlink:title=" ">
<path fill="none" stroke="#63b8ff" d="M327.67,-217.54C312.91,-208.17 294.56,-196.51 281.92,-188.48"/>
<polygon fill="#63b8ff" stroke="#63b8ff" points="325.6,-220.37 335.92,-222.78 329.35,-214.47 325.6,-220.37"/>
</a>
</g>
</g>
<!-- Node16&#45;&gt;Node2 -->
<g id="edge22_Node000016_Node000002" class="edge">
<title>Node16&#45;&gt;Node2</title>
<g id="a_edge22_Node000016_Node000002"><a xlink:title=" ">
<path fill="none" stroke="#63b8ff" d="M223.23,-164.56C188.86,-154.79 141.72,-141.39 110.35,-132.48"/>
<polygon fill="#63b8ff" stroke="#63b8ff" points="221.87,-167.81 232.45,-167.18 223.79,-161.08 221.87,-167.81"/>
</a>
</g>
</g>
<!-- Node16&#45;&gt;Node6 -->
<g id="edge19_Node000016_Node000006" class="edge">
<title>Node16&#45;&gt;Node6</title>
<g id="a_edge19_Node000016_Node000006"><a xlink:title=" ">
<path fill="none" stroke="#63b8ff" d="M313.52,-164.69C350.46,-154.91 401.37,-141.43 435.19,-132.48"/>
<polygon fill="#63b8ff" stroke="#63b8ff" points="312.77,-161.26 304,-167.21 314.56,-168.03 312.77,-161.26"/>
</a>
</g>
</g>
<!-- Node16&#45;&gt;Node11 -->
<g id="edge20_Node000016_Node000011" class="edge">
<title>Node16&#45;&gt;Node11</title>
<g id="a_edge20_Node000016_Node000011"><a xlink:title=" ">
<path fill="none" stroke="#63b8ff" d="M351.09,-166.11C427.29,-156.24 538.42,-141.85 610.97,-132.46"/>
<polygon fill="#63b8ff" stroke="#63b8ff" points="351.08,-162.58 341.61,-167.34 351.98,-169.52 351.08,-162.58"/>
</a>
</g>
</g>
<!-- Node16&#45;&gt;Node13 -->
<g id="edge21_Node000016_Node000013" class="edge">
<title>Node16&#45;&gt;Node13</title>
<g id="a_edge21_Node000016_Node000013"><a xlink:title=" ">
<path fill="none" stroke="#63b8ff" d="M265.45,-156.13C264.84,-147.9 264.17,-138.85 263.69,-132.3"/>
<polygon fill="#63b8ff" stroke="#63b8ff" points="261.96,-156.37 266.19,-166.08 268.94,-155.85 261.96,-156.37"/>
</a>
</g>
</g>
</g>
</svg>
