<?xml version="1.0" encoding="UTF-8" standalone="no"?>
<!DOCTYPE svg PUBLIC "-//W3C//DTD SVG 1.1//EN"
 "http://www.w3.org/Graphics/SVG/1.1/DTD/svg11.dtd">
<!-- Generated by graphviz version 10.0.1 (20240210.2158)
 -->
<!-- Title: AEFrame::sleep Pages: 1 -->
<!--zoomable 142 -->

<svg id="main" version="1.1" xmlns="http://www.w3.org/2000/svg" xmlns:xlink="http://www.w3.org/1999/xlink" xml:space="preserve" onload="init(evt)">
<style type="text/css"><![CDATA[
.node, .edge {opacity: 0.7;}
.node.selected, .edge.selected {opacity: 1;}
.edge:hover path { stroke: red; }
.edge:hover polygon { stroke: red; fill: red; }
]]></style>

<defs>
  <circle id="rim" cx="0" cy="0" r="7"/>
  <circle id="rim2" cx="0" cy="0" r="3.5"/>
  <g id="zoomPlus">
    <use xlink:href="#rim" fill="#404040"><set attributeName="fill" to="#808080" begin="zoomplus.mouseover" end="zoomplus.mouseout"/></use>
    <path d="M-4,0h8M0,-4v8" fill="none" stroke="white" stroke-width="1.5" pointer-events="none"/>
  </g>
  <g id="zoomMin">
    <use xlink:href="#rim" fill="#404040"><set attributeName="fill" to="#808080" begin="zoomminus.mouseover" end="zoomminus.mouseout"/></use>
    <path d="M-4,0h8" fill="none" stroke="white" stroke-width="1.5" pointer-events="none"/>
  </g>
  <g id="arrowUp" transform="translate(30 24)">
    <use xlink:href="#rim"/>
    <path pointer-events="none" fill="none" stroke="white" stroke-width="1.5" d="M0,-3.0v7 M-2.5,-0.5L0,-3.0L2.5,-0.5"/>
  </g>
  <g id="arrowRight" transform="rotate(90) translate(36 -43)">
    <use xlink:href="#rim"/>
    <path pointer-events="none" fill="none" stroke="white" stroke-width="1.5" d="M0,-3.0v7 M-2.5,-0.5L0,-3.0L2.5,-0.5"/>
  </g>
  <g id="arrowDown" transform="rotate(180) translate(-30 -48)">
    <use xlink:href="#rim"/>
    <path pointer-events="none" fill="none" stroke="white" stroke-width="1.5" d="M0,-3.0v7 M-2.5,-0.5L0,-3.0L2.5,-0.5"/>
  </g>
  <g id="arrowLeft" transform="rotate(270) translate(-36 17)">
    <use xlink:href="#rim"/>
    <path pointer-events="none" fill="none" stroke="white" stroke-width="1.5" d="M0,-3.0v7 M-2.5,-0.5L0,-3.0L2.5,-0.5"/>
  </g>
  <g id="resetDef">
    <use xlink:href="#rim2" fill="#404040"><set attributeName="fill" to="#808080" begin="reset.mouseover" end="reset.mouseout"/></use>
  </g>
</defs>
<script type="application/ecmascript">
var viewWidth = 521;
var viewHeight = 142;
var sectionId = 'dynsection-5';
</script>
<script type="application/ecmascript" xlink:href="../../svg.min.js"/>
<svg id="graph" class="graph">
<g id="viewport">
<title>AEFrame::sleep</title>
<!-- Node1 -->
<g id="Node000001" class="node">
<title>Node1</title>
<g id="a_Node000001"><a xlink:title="Puts the current thread to sleep for the delay that was set earlier.">
<polygon fill="#999999" stroke="#666666" points="512.5,-58 426,-58 426,-38 512.5,-38 512.5,-58"/>
<text text-anchor="middle" x="469.25" y="-44.5" font-family="Helvetica,sans-Serif" font-size="10.00">AEFrame::sleep</text>
</a>
</g>
</g>
<!-- Node2 -->
<g id="Node000002" class="node">
<title>Node2</title>
<g id="a_Node000002"><a xlink:href="../../da/d62/class_a_e_timer.html#ad5fa76b6e9233eaa415a9c70ed6ecc8d" target="_top" xlink:title="The function that does the tick counting for the timer.">
<polygon fill="white" stroke="#666666" points="385.12,-77 285.88,-77 285.88,-57 385.12,-57 385.12,-77"/>
<text text-anchor="middle" x="335.5" y="-63.5" font-family="Helvetica,sans-Serif" font-size="10.00">AETimer::tickTimer</text>
</a>
</g>
</g>
<!-- Node1&#45;&gt;Node2 -->
<g id="edge1_Node000001_Node000002" class="edge">
<title>Node1&#45;&gt;Node2</title>
<g id="a_edge1_Node000001_Node000002"><a xlink:title=" ">
<path fill="none" stroke="#63b8ff" d="M414.64,-55.73C404.92,-57.13 394.82,-58.59 385.25,-59.97"/>
<polygon fill="#63b8ff" stroke="#63b8ff" points="414.94,-59.22 424.34,-54.33 413.94,-52.3 414.94,-59.22"/>
</a>
</g>
</g>
<!-- Node8 -->
<g id="Node000008" class="node">
<title>Node8</title>
<g id="a_Node000008"><a xlink:href="../../da/d62/class_a_e_timer.html#ab5e98fa75b71f6280ae8ae16367dd97c" target="_top" xlink:title="Stops and sleeps the thread untill the given timer hits the certain tick number.">
<polygon fill="white" stroke="#666666" points="390,-39 281,-39 281,-19 390,-19 390,-39"/>
<text text-anchor="middle" x="335.5" y="-25.5" font-family="Helvetica,sans-Serif" font-size="10.00">AETimer::waitForTick</text>
</a>
</g>
</g>
<!-- Node1&#45;&gt;Node8 -->
<g id="edge7_Node000001_Node000008" class="edge">
<title>Node1&#45;&gt;Node8</title>
<g id="a_edge7_Node000001_Node000008"><a xlink:title=" ">
<path fill="none" stroke="#63b8ff" d="M414.45,-40.24C406.51,-39.1 398.34,-37.92 390.41,-36.77"/>
<polygon fill="#63b8ff" stroke="#63b8ff" points="413.94,-43.7 424.34,-41.67 414.94,-36.78 413.94,-43.7"/>
</a>
</g>
</g>
<!-- Node3 -->
<g id="Node000003" class="node">
<title>Node3</title>
<g id="a_Node000003"><a xlink:href="../../da/d62/class_a_e_timer.html#a022b44a8e9b9e2a314e0ac3ecc759062" target="_top" xlink:title="Starts the timer thread and starts tick counting.">
<polygon fill="white" stroke="#666666" points="245,-77 136.75,-77 136.75,-57 245,-57 245,-77"/>
<text text-anchor="middle" x="190.88" y="-63.5" font-family="Helvetica,sans-Serif" font-size="10.00">AETimer::startThread</text>
</a>
</g>
</g>
<!-- Node2&#45;&gt;Node3 -->
<g id="edge2_Node000002_Node000003" class="edge">
<title>Node2&#45;&gt;Node3</title>
<g id="a_edge2_Node000002_Node000003"><a xlink:title=" ">
<path fill="none" stroke="#63b8ff" d="M274.01,-67C264.52,-67 254.76,-67 245.44,-67"/>
<polygon fill="#63b8ff" stroke="#63b8ff" points="273.9,-70.5 283.9,-67 273.9,-63.5 273.9,-70.5"/>
</a>
</g>
</g>
<!-- Node4 -->
<g id="Node000004" class="node">
<title>Node4</title>
<g id="a_Node000004"><a xlink:href="../../da/d62/class_a_e_timer.html#ab6d5a811e0d1d8f3ab3427ae3c15756b" target="_top" xlink:title="Copy constructor – Just copies the data and then starts the timer if original timer was started.">
<polygon fill="white" stroke="#666666" points="98.88,-134 1.88,-134 1.88,-114 98.88,-114 98.88,-134"/>
<text text-anchor="middle" x="50.38" y="-120.5" font-family="Helvetica,sans-Serif" font-size="10.00">AETimer::AETimer</text>
</a>
</g>
</g>
<!-- Node3&#45;&gt;Node4 -->
<g id="edge3_Node000003_Node000004" class="edge">
<title>Node3&#45;&gt;Node4</title>
<g id="a_edge3_Node000003_Node000004"><a xlink:title=" ">
<path fill="none" stroke="#63b8ff" d="M155.84,-81.85C139.28,-88.99 119.04,-97.59 100.75,-105 93.77,-107.83 86.2,-110.8 79.12,-113.52"/>
<polygon fill="#63b8ff" stroke="#63b8ff" points="156.96,-85.18 164.75,-77.99 154.18,-78.75 156.96,-85.18"/>
</a>
</g>
</g>
<!-- Node5 -->
<g id="Node000005" class="node">
<title>Node5</title>
<g id="a_Node000005"><a xlink:href="../../da/d62/class_a_e_timer.html#aff4bda684228e5545d53fcea1a9f98f3" target="_top" xlink:title="Class constructor – starts the timer automatically.">
<polygon fill="white" stroke="#666666" points="98.88,-96 1.88,-96 1.88,-76 98.88,-76 98.88,-96"/>
<text text-anchor="middle" x="50.38" y="-82.5" font-family="Helvetica,sans-Serif" font-size="10.00">AETimer::AETimer</text>
</a>
</g>
</g>
<!-- Node3&#45;&gt;Node5 -->
<g id="edge4_Node000003_Node000005" class="edge">
<title>Node3&#45;&gt;Node5</title>
<g id="a_edge4_Node000003_Node000005"><a xlink:title=" ">
<path fill="none" stroke="#63b8ff" d="M125.05,-75.89C116.4,-77.08 107.65,-78.28 99.35,-79.42"/>
<polygon fill="#63b8ff" stroke="#63b8ff" points="125.4,-79.38 134.83,-74.55 124.44,-72.44 125.4,-79.38"/>
</a>
</g>
</g>
<!-- Node6 -->
<g id="Node000006" class="node">
<title>Node6</title>
<g id="a_Node000006"><a xlink:href="../../da/d62/class_a_e_timer.html#a7bdf64ddc743a1223164764b9cb15091" target="_top" xlink:title="The copy assignment operator.">
<polygon fill="white" stroke="#666666" points="100.75,-58 0,-58 0,-38 100.75,-38 100.75,-58"/>
<text text-anchor="middle" x="50.38" y="-44.5" font-family="Helvetica,sans-Serif" font-size="10.00">AETimer::operator=</text>
</a>
</g>
</g>
<!-- Node3&#45;&gt;Node6 -->
<g id="edge5_Node000003_Node000006" class="edge">
<title>Node3&#45;&gt;Node6</title>
<g id="a_edge5_Node000003_Node000006"><a xlink:title=" ">
<path fill="none" stroke="#63b8ff" d="M125.06,-58.11C117.03,-57.01 108.91,-55.89 101.15,-54.83"/>
<polygon fill="#63b8ff" stroke="#63b8ff" points="124.44,-61.56 134.83,-59.45 125.4,-54.62 124.44,-61.56"/>
</a>
</g>
</g>
<!-- Node7 -->
<g id="Node000007" class="node">
<title>Node7</title>
<g id="a_Node000007"><a xlink:href="../../da/d62/class_a_e_timer.html#ae290234a58bd703c0953edd2925d591c" target="_top" xlink:title="Sets the new delay instead of the current.">
<polygon fill="white" stroke="#666666" points="99.25,-20 1.5,-20 1.5,0 99.25,0 99.25,-20"/>
<text text-anchor="middle" x="50.38" y="-6.5" font-family="Helvetica,sans-Serif" font-size="10.00">AETimer::setDelay</text>
</a>
</g>
</g>
<!-- Node3&#45;&gt;Node7 -->
<g id="edge6_Node000003_Node000007" class="edge">
<title>Node3&#45;&gt;Node7</title>
<g id="a_edge6_Node000003_Node000007"><a xlink:title=" ">
<path fill="none" stroke="#63b8ff" d="M147.81,-52.58C144.04,-51.1 140.31,-49.57 136.75,-48 120.19,-40.71 117.22,-36.48 100.75,-29 94.23,-26.04 87.1,-23.11 80.33,-20.48"/>
<polygon fill="#63b8ff" stroke="#63b8ff" points="146.39,-55.79 156.99,-56.04 148.86,-49.24 146.39,-55.79"/>
</a>
</g>
</g>
<!-- Node9 -->
<g id="Node000009" class="node">
<title>Node9</title>
<g id="a_Node000009"><a xlink:href="../../da/d62/class_a_e_timer.html#a0468cc72aa8d96dd32bfed912c75be0f" target="_top" xlink:title="Stops and sleeps the thread untill the given timer goes through certain tick amount.">
<polygon fill="white" stroke="#666666" points="240.88,-39 140.88,-39 140.88,-19 240.88,-19 240.88,-39"/>
<text text-anchor="middle" x="190.88" y="-25.5" font-family="Helvetica,sans-Serif" font-size="10.00">AETimer::waitTicks</text>
</a>
</g>
</g>
<!-- Node8&#45;&gt;Node9 -->
<g id="edge8_Node000008_Node000009" class="edge">
<title>Node8&#45;&gt;Node9</title>
<g id="a_edge8_Node000008_Node000009"><a xlink:title=" ">
<path fill="none" stroke="#63b8ff" d="M269.2,-29C259.78,-29 250.22,-29 241.18,-29"/>
<polygon fill="#63b8ff" stroke="#63b8ff" points="269.07,-32.5 279.07,-29 269.07,-25.5 269.07,-32.5"/>
</a>
</g>
</g>
</g>
</svg>

<g id="navigator" transform="translate(0 0)" fill="#404254">
  <rect fill="#f2f5e9" fill-opacity="0.5" stroke="#606060" stroke-width=".5" x="0" y="0" width="60" height="60"/>
  <use id="zoomplus" xlink:href="#zoomPlus" x="17" y="9" onmousedown="handleZoom(evt,'in')"/>
  <use id="zoomminus" xlink:href="#zoomMin" x="42" y="9" onmousedown="handleZoom(evt,'out')"/>
  <use id="reset" xlink:href="#resetDef" x="30" y="36" onmousedown="handleReset()"/>
   <use id="arrowup" xlink:href="#arrowUp" x="0" y="0" onmousedown="handlePan(0,-1)"/>
  <use id="arrowright" xlink:href="#arrowRight" x="0" y="0" onmousedown="handlePan(1,0)"/>
  <use id="arrowdown" xlink:href="#arrowDown" x="0" y="0" onmousedown="handlePan(0,1)"/>
  <use id="arrowleft" xlink:href="#arrowLeft" x="0" y="0" onmousedown="handlePan(-1,0)"/>
</g>
<svg viewBox="0 0 15 15" width="100%" height="30px" preserveAspectRatio="xMaxYMin meet">
 <g id="arrow_out" transform="scale(0.3 0.3)">
  <a xlink:href="class_a_e_frame_ad9431d91b5784bf5d1f61464e8045b13_icgraph_org.svg" target="_base">
   <rect id="button" ry="5" rx="5" y="6" x="6" height="38" width="38"
        fill="#f2f5e9" fill-opacity="0.5" stroke="#606060" stroke-width="1.0"/>
   <path id="arrow"
     d="M 11.500037,31.436501 C 11.940474,20.09759 22.043105,11.32322 32.158766,21.979434 L 37.068811,17.246167 C 37.068811,17.246167 37.088388,32 37.088388,32 L 22.160133,31.978069 C 22.160133,31.978069 26.997745,27.140456 26.997745,27.140456 C 18.528582,18.264221 13.291696,25.230495 11.500037,31.436501 z"
     style="fill:#404040;"/>
  </a>
 </g>
</svg>

<style type='text/css'>
<![CDATA[
[data-mouse-over-selected='false'] { opacity: 0.7; }
[data-mouse-over-selected='true']  { opacity: 1.0; }
]]>
</style>
<script type="application/ecmascript"><![CDATA[
document.addEventListener('DOMContentLoaded', (event) => {
  highlightEdges();
  highlightAdjacentNodes();
});
]]></script>
</svg>
