<?xml version="1.0" encoding="UTF-8" standalone="no"?>
<!DOCTYPE svg PUBLIC "-//W3C//DTD SVG 1.1//EN"
 "http://www.w3.org/Graphics/SVG/1.1/DTD/svg11.dtd">
<!-- Generated by graphviz version 10.0.1 (20240210.2158)
 -->
<!-- Title: AEFrame::getDelay Pages: 1 -->
<svg width="265pt" height="66pt"
 viewBox="0.00 0.00 265.00 66.00" xmlns="http://www.w3.org/2000/svg" xmlns:xlink="http://www.w3.org/1999/xlink">
<g id="graph0" class="graph" transform="scale(1 1) rotate(0) translate(4 62)">
<title>AEFrame::getDelay</title>
<!-- Node1 -->
<g id="Node000001" class="node">
<title>Node1</title>
<g id="a_Node000001"><a xlink:title="Returns the maximum AEFrame&#39;s delay from the set fps, in seconds.">
<polygon fill="#999999" stroke="#666666" points="257,-39 155.5,-39 155.5,-19 257,-19 257,-39"/>
<text text-anchor="middle" x="206.25" y="-25.5" font-family="Helvetica,sans-Serif" font-size="10.00">AEFrame::getDelay</text>
</a>
</g>
</g>
<!-- Node2 -->
<g id="Node000002" class="node">
<title>Node2</title>
<g id="a_Node000002"><a xlink:href="../../da/d62/class_a_e_timer.html#ae14cb2634f289aa614722a4daab0000b" target="_top" xlink:title="Returns the maximum AEFrame&#39;s instance in the AETimer delay from the set fps, in seconds.">
<polygon fill="white" stroke="#666666" points="108.62,-58 10.88,-58 10.88,-38 108.62,-38 108.62,-58"/>
<text text-anchor="middle" x="59.75" y="-44.5" font-family="Helvetica,sans-Serif" font-size="10.00">AETimer::getDelay</text>
</a>
</g>
</g>
<!-- Node1&#45;&gt;Node2 -->
<g id="edge1_Node000001_Node000002" class="edge">
<title>Node1&#45;&gt;Node2</title>
<g id="a_edge1_Node000001_Node000002"><a xlink:title=" ">
<path fill="none" stroke="#63b8ff" d="M144.01,-37.05C132.26,-38.6 120.11,-40.19 108.85,-41.68"/>
<polygon fill="#63b8ff" stroke="#63b8ff" points="144.16,-40.56 153.62,-35.79 143.24,-33.62 144.16,-40.56"/>
</a>
</g>
</g>
<!-- Node3 -->
<g id="Node000003" class="node">
<title>Node3</title>
<g id="a_Node000003"><a xlink:href="../../da/d62/class_a_e_timer.html#a2a6447a8cfe20c387d27182a7fecb70e" target="_top" xlink:title="Calculates the approximate world time of the timer in seconds (from the ticks)">
<polygon fill="white" stroke="#666666" points="119.5,-20 0,-20 0,0 119.5,0 119.5,-20"/>
<text text-anchor="middle" x="59.75" y="-6.5" font-family="Helvetica,sans-Serif" font-size="10.00">AETimer::getWorldTime</text>
</a>
</g>
</g>
<!-- Node1&#45;&gt;Node3 -->
<g id="edge2_Node000001_Node000003" class="edge">
<title>Node1&#45;&gt;Node3</title>
<g id="a_edge2_Node000001_Node000003"><a xlink:title=" ">
<path fill="none" stroke="#63b8ff" d="M143.75,-20.91C135.87,-19.88 127.82,-18.82 119.99,-17.79"/>
<polygon fill="#63b8ff" stroke="#63b8ff" points="143.24,-24.38 153.62,-22.21 144.16,-17.44 143.24,-24.38"/>
</a>
</g>
</g>
</g>
</svg>
