<?xml version="1.0" encoding="UTF-8" standalone="no"?>
<!DOCTYPE svg PUBLIC "-//W3C//DTD SVG 1.1//EN"
 "http://www.w3.org/Graphics/SVG/1.1/DTD/svg11.dtd">
<!-- Generated by graphviz version 10.0.1 (20240210.2158)
 -->
<!-- Title: AEFileWriter/src/AEFileWriter.cpp Pages: 1 -->
<svg width="1056pt" height="308pt"
 viewBox="0.00 0.00 1056.25 308.00" xmlns="http://www.w3.org/2000/svg" xmlns:xlink="http://www.w3.org/1999/xlink">
<g id="graph0" class="graph" transform="scale(1 1) rotate(0) translate(4 304)">
<title>AEFileWriter/src/AEFileWriter.cpp</title>
<!-- Node1 -->
<g id="Node000001" class="node">
<title>Node1</title>
<g id="a_Node000001"><a xlink:title=" ">
<polygon fill="#999999" stroke="#666666" points="882.25,-300 717,-300 717,-280 882.25,-280 882.25,-300"/>
<text text-anchor="middle" x="799.62" y="-286.5" font-family="Helvetica,sans-Serif" font-size="10.00">AEFileWriter/src/AEFileWriter.cpp</text>
</a>
</g>
</g>
<!-- Node2 -->
<g id="Node000002" class="node">
<title>Node2</title>
<g id="a_Node000002"><a xlink:href="../../db/da4/_a_e_file_writer_8hpp.html" target="_top" xlink:title=" ">
<polygon fill="white" stroke="#666666" points="866.12,-244 733.12,-244 733.12,-224 866.12,-224 866.12,-244"/>
<text text-anchor="middle" x="799.62" y="-230.5" font-family="Helvetica,sans-Serif" font-size="10.00">../include/AEFileWriter.hpp</text>
</a>
</g>
</g>
<!-- Node1&#45;&gt;Node2 -->
<g id="edge1_Node000001_Node000002" class="edge">
<title>Node1&#45;&gt;Node2</title>
<g id="a_edge1_Node000001_Node000002"><a xlink:title=" ">
<path fill="none" stroke="#63b8ff" d="M799.62,-279.59C799.62,-273.01 799.62,-263.96 799.62,-255.73"/>
<polygon fill="#63b8ff" stroke="#63b8ff" points="803.13,-255.81 799.63,-245.81 796.13,-255.81 803.13,-255.81"/>
</a>
</g>
</g>
<!-- Node3 -->
<g id="Node000003" class="node">
<title>Node3</title>
<g id="a_Node000003"><a xlink:href="../../d7/d7f/_a_e_module_base_8hpp.html" target="_top" xlink:title="This file contains the engine&#39;s basic module template.">
<polygon fill="white" stroke="#666666" points="270.62,-188 134.62,-188 134.62,-168 270.62,-168 270.62,-188"/>
<text text-anchor="middle" x="202.62" y="-174.5" font-family="Helvetica,sans-Serif" font-size="10.00">include/AEModuleBase.hpp</text>
</a>
</g>
</g>
<!-- Node2&#45;&gt;Node3 -->
<g id="edge2_Node000002_Node000003" class="edge">
<title>Node2&#45;&gt;Node3</title>
<g id="a_edge2_Node000002_Node000003"><a xlink:title=" ">
<path fill="none" stroke="#63b8ff" d="M732.88,-226.96C622.05,-216.94 400.54,-196.9 281.92,-186.17"/>
<polygon fill="#63b8ff" stroke="#63b8ff" points="282.55,-182.72 272.28,-185.3 281.92,-189.69 282.55,-182.72"/>
</a>
</g>
</g>
<!-- Node11 -->
<g id="Node000011" class="node">
<title>Node11</title>
<g id="a_Node000011"><a xlink:title=" ">
<polygon fill="#e0e0e0" stroke="#999999" points="756.75,-76 714.5,-76 714.5,-56 756.75,-56 756.75,-76"/>
<text text-anchor="middle" x="735.62" y="-62.5" font-family="Helvetica,sans-Serif" font-size="10.00">cstdio</text>
</a>
</g>
</g>
<!-- Node2&#45;&gt;Node11 -->
<g id="edge34_Node000002_Node000011" class="edge">
<title>Node2&#45;&gt;Node11</title>
<g id="a_edge34_Node000002_Node000011"><a xlink:title=" ">
<path fill="none" stroke="#63b8ff" d="M806.67,-223.75C821.97,-202.43 855.05,-148.86 831.62,-112 817.75,-90.17 790.19,-78.75 768.14,-72.89"/>
<polygon fill="#63b8ff" stroke="#63b8ff" points="769.23,-69.55 758.69,-70.65 767.61,-76.36 769.23,-69.55"/>
</a>
</g>
</g>
<!-- Node14 -->
<g id="Node000014" class="node">
<title>Node14</title>
<g id="a_Node000014"><a xlink:title=" ">
<polygon fill="#e0e0e0" stroke="#999999" points="45.25,-132 0,-132 0,-112 45.25,-112 45.25,-132"/>
<text text-anchor="middle" x="22.62" y="-118.5" font-family="Helvetica,sans-Serif" font-size="10.00">atomic</text>
</a>
</g>
</g>
<!-- Node2&#45;&gt;Node14 -->
<g id="edge28_Node000002_Node000014" class="edge">
<title>Node2&#45;&gt;Node14</title>
<g id="a_edge28_Node000002_Node000014"><a xlink:title=" ">
<path fill="none" stroke="#63b8ff" d="M732.71,-232.69C585.35,-231.34 237.07,-224.29 125.62,-188 93.81,-177.64 61.96,-155.25 42.29,-139.66"/>
<polygon fill="#63b8ff" stroke="#63b8ff" points="44.55,-136.99 34.59,-133.39 40.13,-142.42 44.55,-136.99"/>
</a>
</g>
</g>
<!-- Node15 -->
<g id="Node000015" class="node">
<title>Node15</title>
<g id="a_Node000015"><a xlink:title=" ">
<polygon fill="#e0e0e0" stroke="#999999" points="222.62,-132 182.62,-132 182.62,-112 222.62,-112 222.62,-132"/>
<text text-anchor="middle" x="202.62" y="-118.5" font-family="Helvetica,sans-Serif" font-size="10.00">string</text>
</a>
</g>
</g>
<!-- Node2&#45;&gt;Node15 -->
<g id="edge30_Node000002_Node000015" class="edge">
<title>Node2&#45;&gt;Node15</title>
<g id="a_edge30_Node000002_Node000015"><a xlink:title=" ">
<path fill="none" stroke="#63b8ff" d="M733.02,-224.01C628.4,-209.27 419.22,-177.27 233.87,-132.31"/>
<polygon fill="#63b8ff" stroke="#63b8ff" points="234.83,-128.94 224.29,-129.97 233.17,-135.74 234.83,-128.94"/>
</a>
</g>
</g>
<!-- Node17 -->
<g id="Node000017" class="node">
<title>Node17</title>
<g id="a_Node000017"><a xlink:href="../../de/de8/_a_e_utils_8hpp.html" target="_top" xlink:title="This file contains the engine&#39;s usefull utilities for trivial tasks.">
<polygon fill="white" stroke="#666666" points="649.38,-188 547.88,-188 547.88,-168 649.38,-168 649.38,-188"/>
<text text-anchor="middle" x="598.62" y="-174.5" font-family="Helvetica,sans-Serif" font-size="10.00">include/AEUtils.hpp</text>
</a>
</g>
</g>
<!-- Node2&#45;&gt;Node17 -->
<g id="edge18_Node000002_Node000017" class="edge">
<title>Node2&#45;&gt;Node17</title>
<g id="a_edge18_Node000002_Node000017"><a xlink:title=" ">
<path fill="none" stroke="#63b8ff" d="M764.61,-223.59C731.38,-214.67 681.24,-201.19 644.76,-191.39"/>
<polygon fill="#63b8ff" stroke="#63b8ff" points="645.94,-188.09 635.37,-188.87 644.12,-194.85 645.94,-188.09"/>
</a>
</g>
</g>
<!-- Node19 -->
<g id="Node000019" class="node">
<title>Node19</title>
<g id="a_Node000019"><a xlink:title=" ">
<polygon fill="#e0e0e0" stroke="#999999" points="822.25,-132 777,-132 777,-112 822.25,-112 822.25,-132"/>
<text text-anchor="middle" x="799.62" y="-118.5" font-family="Helvetica,sans-Serif" font-size="10.00">cstring</text>
</a>
</g>
</g>
<!-- Node2&#45;&gt;Node19 -->
<g id="edge32_Node000002_Node000019" class="edge">
<title>Node2&#45;&gt;Node19</title>
<g id="a_edge32_Node000002_Node000019"><a xlink:title=" ">
<path fill="none" stroke="#63b8ff" d="M799.62,-223.62C799.62,-206.01 799.62,-167.59 799.62,-143.65"/>
<polygon fill="#63b8ff" stroke="#63b8ff" points="803.13,-143.87 799.63,-133.87 796.13,-143.87 803.13,-143.87"/>
</a>
</g>
</g>
<!-- Node23 -->
<g id="Node000023" class="node">
<title>Node23</title>
<g id="a_Node000023"><a xlink:title=" ">
<polygon fill="#e0e0e0" stroke="#999999" points="931.75,-188 871.5,-188 871.5,-168 931.75,-168 931.75,-188"/>
<text text-anchor="middle" x="901.62" y="-174.5" font-family="Helvetica,sans-Serif" font-size="10.00">filesystem</text>
</a>
</g>
</g>
<!-- Node2&#45;&gt;Node23 -->
<g id="edge29_Node000002_Node000023" class="edge">
<title>Node2&#45;&gt;Node23</title>
<g id="a_edge29_Node000002_Node000023"><a xlink:title=" ">
<path fill="none" stroke="#63b8ff" d="M817.39,-223.59C832.95,-215.36 855.81,-203.26 873.79,-193.74"/>
<polygon fill="#63b8ff" stroke="#63b8ff" points="875.18,-196.96 882.38,-189.19 871.91,-190.77 875.18,-196.96"/>
</a>
</g>
</g>
<!-- Node24 -->
<g id="Node000024" class="node">
<title>Node24</title>
<g id="a_Node000024"><a xlink:title=" ">
<polygon fill="#e0e0e0" stroke="#999999" points="991.38,-188 949.88,-188 949.88,-168 991.38,-168 991.38,-188"/>
<text text-anchor="middle" x="970.62" y="-174.5" font-family="Helvetica,sans-Serif" font-size="10.00">vector</text>
</a>
</g>
</g>
<!-- Node2&#45;&gt;Node24 -->
<g id="edge31_Node000002_Node000024" class="edge">
<title>Node2&#45;&gt;Node24</title>
<g id="a_edge31_Node000002_Node000024"><a xlink:title=" ">
<path fill="none" stroke="#63b8ff" d="M829.41,-223.59C860.01,-213.93 907.46,-198.95 938.78,-189.06"/>
<polygon fill="#63b8ff" stroke="#63b8ff" points="939.61,-192.47 948.09,-186.12 937.5,-185.79 939.61,-192.47"/>
</a>
</g>
</g>
<!-- Node25 -->
<g id="Node000025" class="node">
<title>Node25</title>
<g id="a_Node000025"><a xlink:title=" ">
<polygon fill="#e0e0e0" stroke="#999999" points="1048.25,-188 1009,-188 1009,-168 1048.25,-168 1048.25,-188"/>
<text text-anchor="middle" x="1028.62" y="-174.5" font-family="Helvetica,sans-Serif" font-size="10.00">cfloat</text>
</a>
</g>
</g>
<!-- Node2&#45;&gt;Node25 -->
<g id="edge33_Node000002_Node000025" class="edge">
<title>Node2&#45;&gt;Node25</title>
<g id="a_edge33_Node000002_Node000025"><a xlink:title=" ">
<path fill="none" stroke="#63b8ff" d="M847.44,-223.57C885.88,-215.7 941.46,-203.69 997.64,-188.65"/>
<polygon fill="#63b8ff" stroke="#63b8ff" points="998.31,-192.1 1007.04,-186.11 996.47,-185.34 998.31,-192.1"/>
</a>
</g>
</g>
<!-- Node4 -->
<g id="Node000004" class="node">
<title>Node4</title>
<g id="a_Node000004"><a xlink:href="../../dc/d89/_a_e_typedefs_8hpp.html" target="_top" xlink:title="This file contains the engine&#39;s typedefs and variable type aliases.">
<polygon fill="white" stroke="#666666" points="581.12,-76 460.12,-76 460.12,-56 581.12,-56 581.12,-76"/>
<text text-anchor="middle" x="520.62" y="-62.5" font-family="Helvetica,sans-Serif" font-size="10.00">include/AETypedefs.hpp</text>
</a>
</g>
</g>
<!-- Node3&#45;&gt;Node4 -->
<g id="edge3_Node000003_Node000004" class="edge">
<title>Node3&#45;&gt;Node4</title>
<g id="a_edge3_Node000003_Node000004"><a xlink:title=" ">
<path fill="none" stroke="#63b8ff" d="M270.69,-169.75C314.94,-163.43 373.2,-152.01 421.62,-132 437.49,-125.44 474.78,-99.78 498.8,-82.73"/>
<polygon fill="#63b8ff" stroke="#63b8ff" points="500.54,-85.79 506.65,-77.13 496.47,-80.09 500.54,-85.79"/>
</a>
</g>
</g>
<!-- Node8 -->
<g id="Node000008" class="node">
<title>Node8</title>
<g id="a_Node000008"><a xlink:href="../../dd/dd8/_a_e_flags_8hpp.html" target="_top" xlink:title="This file contains the flags to manipulate engine&#39;s funcitonality.">
<polygon fill="white" stroke="#666666" points="224.62,-76 118.62,-76 118.62,-56 224.62,-56 224.62,-76"/>
<text text-anchor="middle" x="171.62" y="-62.5" font-family="Helvetica,sans-Serif" font-size="10.00">include/AEFlags.hpp</text>
</a>
</g>
</g>
<!-- Node3&#45;&gt;Node8 -->
<g id="edge7_Node000003_Node000008" class="edge">
<title>Node3&#45;&gt;Node8</title>
<g id="a_edge7_Node000003_Node000008"><a xlink:title=" ">
<path fill="none" stroke="#63b8ff" d="M194.51,-167.77C187.51,-159.18 177.88,-145.67 173.62,-132 169.15,-117.61 168.8,-100.55 169.48,-87.52"/>
<polygon fill="#63b8ff" stroke="#63b8ff" points="172.97,-87.84 170.28,-77.59 165.99,-87.28 172.97,-87.84"/>
</a>
</g>
</g>
<!-- Node9 -->
<g id="Node000009" class="node">
<title>Node9</title>
<g id="a_Node000009"><a xlink:href="../../d9/d6a/_a_e_utils_macros_8hpp.html" target="_top" xlink:title="This file contains the engine&#39;s macros for trivial tasks.">
<polygon fill="white" stroke="#666666" points="412.5,-132 278.75,-132 278.75,-112 412.5,-112 412.5,-132"/>
<text text-anchor="middle" x="345.62" y="-118.5" font-family="Helvetica,sans-Serif" font-size="10.00">include/AEUtilsMacros.hpp</text>
</a>
</g>
</g>
<!-- Node3&#45;&gt;Node9 -->
<g id="edge8_Node000003_Node000009" class="edge">
<title>Node3&#45;&gt;Node9</title>
<g id="a_edge8_Node000003_Node000009"><a xlink:title=" ">
<path fill="none" stroke="#63b8ff" d="M227.53,-167.59C250.36,-158.97 284.41,-146.12 310.09,-136.42"/>
<polygon fill="#63b8ff" stroke="#63b8ff" points="310.99,-139.82 319.11,-133.01 308.51,-133.27 310.99,-139.82"/>
</a>
</g>
</g>
<!-- Node3&#45;&gt;Node14 -->
<g id="edge15_Node000003_Node000014" class="edge">
<title>Node3&#45;&gt;Node14</title>
<g id="a_edge15_Node000003_Node000014"><a xlink:title=" ">
<path fill="none" stroke="#63b8ff" d="M171.27,-167.59C139.2,-157.97 89.52,-143.07 56.54,-133.17"/>
<polygon fill="#63b8ff" stroke="#63b8ff" points="57.66,-129.86 47.08,-130.34 55.65,-136.56 57.66,-129.86"/>
</a>
</g>
</g>
<!-- Node3&#45;&gt;Node15 -->
<g id="edge16_Node000003_Node000015" class="edge">
<title>Node3&#45;&gt;Node15</title>
<g id="a_edge16_Node000003_Node000015"><a xlink:title=" ">
<path fill="none" stroke="#63b8ff" d="M202.62,-167.59C202.62,-161.01 202.62,-151.96 202.62,-143.73"/>
<polygon fill="#63b8ff" stroke="#63b8ff" points="206.13,-143.81 202.63,-133.81 199.13,-143.81 206.13,-143.81"/>
</a>
</g>
</g>
<!-- Node16 -->
<g id="Node000016" class="node">
<title>Node16</title>
<g id="a_Node000016"><a xlink:title=" ">
<polygon fill="#e0e0e0" stroke="#999999" points="126.25,-132 63,-132 63,-112 126.25,-112 126.25,-132"/>
<text text-anchor="middle" x="94.62" y="-118.5" font-family="Helvetica,sans-Serif" font-size="10.00">string_view</text>
</a>
</g>
</g>
<!-- Node3&#45;&gt;Node16 -->
<g id="edge17_Node000003_Node000016" class="edge">
<title>Node3&#45;&gt;Node16</title>
<g id="a_edge17_Node000003_Node000016"><a xlink:title=" ">
<path fill="none" stroke="#63b8ff" d="M183.81,-167.59C167.27,-159.32 142.91,-147.14 123.83,-137.6"/>
<polygon fill="#63b8ff" stroke="#63b8ff" points="125.45,-134.5 114.94,-133.16 122.32,-140.76 125.45,-134.5"/>
</a>
</g>
</g>
<!-- Node5 -->
<g id="Node000005" class="node">
<title>Node5</title>
<g id="a_Node000005"><a xlink:title=" ">
<polygon fill="#e0e0e0" stroke="#999999" points="479.88,-20 435.38,-20 435.38,0 479.88,0 479.88,-20"/>
<text text-anchor="middle" x="457.62" y="-6.5" font-family="Helvetica,sans-Serif" font-size="10.00">climits</text>
</a>
</g>
</g>
<!-- Node4&#45;&gt;Node5 -->
<g id="edge4_Node000004_Node000005" class="edge">
<title>Node4&#45;&gt;Node5</title>
<g id="a_edge4_Node000004_Node000005"><a xlink:title=" ">
<path fill="none" stroke="#63b8ff" d="M509.65,-55.59C500.71,-47.93 487.85,-36.91 477.16,-27.75"/>
<polygon fill="#63b8ff" stroke="#63b8ff" points="479.49,-25.13 469.62,-21.28 474.94,-30.45 479.49,-25.13"/>
</a>
</g>
</g>
<!-- Node6 -->
<g id="Node000006" class="node">
<title>Node6</title>
<g id="a_Node000006"><a xlink:title=" ">
<polygon fill="#e0e0e0" stroke="#999999" points="543.25,-20 498,-20 498,0 543.25,0 543.25,-20"/>
<text text-anchor="middle" x="520.62" y="-6.5" font-family="Helvetica,sans-Serif" font-size="10.00">chrono</text>
</a>
</g>
</g>
<!-- Node4&#45;&gt;Node6 -->
<g id="edge5_Node000004_Node000006" class="edge">
<title>Node4&#45;&gt;Node6</title>
<g id="a_edge5_Node000004_Node000006"><a xlink:title=" ">
<path fill="none" stroke="#63b8ff" d="M520.62,-55.59C520.62,-49.01 520.62,-39.96 520.62,-31.73"/>
<polygon fill="#63b8ff" stroke="#63b8ff" points="524.13,-31.81 520.63,-21.81 517.13,-31.81 524.13,-31.81"/>
</a>
</g>
</g>
<!-- Node7 -->
<g id="Node000007" class="node">
<title>Node7</title>
<g id="a_Node000007"><a xlink:title=" ">
<polygon fill="#e0e0e0" stroke="#999999" points="604.12,-20 561.12,-20 561.12,0 604.12,0 604.12,-20"/>
<text text-anchor="middle" x="582.62" y="-6.5" font-family="Helvetica,sans-Serif" font-size="10.00">thread</text>
</a>
</g>
</g>
<!-- Node4&#45;&gt;Node7 -->
<g id="edge6_Node000004_Node000007" class="edge">
<title>Node4&#45;&gt;Node7</title>
<g id="a_edge6_Node000004_Node000007"><a xlink:title=" ">
<path fill="none" stroke="#63b8ff" d="M531.42,-55.59C540.23,-47.93 552.88,-36.91 563.4,-27.75"/>
<polygon fill="#63b8ff" stroke="#63b8ff" points="565.57,-30.5 570.81,-21.29 560.97,-25.22 565.57,-30.5"/>
</a>
</g>
</g>
<!-- Node9&#45;&gt;Node4 -->
<g id="edge9_Node000009_Node000004" class="edge">
<title>Node9&#45;&gt;Node4</title>
<g id="a_edge9_Node000009_Node000004"><a xlink:title=" ">
<path fill="none" stroke="#63b8ff" d="M376.11,-111.59C404.66,-102.78 447.57,-89.54 479.22,-79.78"/>
<polygon fill="#63b8ff" stroke="#63b8ff" points="479.93,-83.22 488.46,-76.93 477.87,-76.53 479.93,-83.22"/>
</a>
</g>
</g>
<!-- Node9&#45;&gt;Node8 -->
<g id="edge10_Node000009_Node000008" class="edge">
<title>Node9&#45;&gt;Node8</title>
<g id="a_edge10_Node000009_Node000008"><a xlink:title=" ">
<path fill="none" stroke="#63b8ff" d="M315.32,-111.59C286.92,-102.78 244.26,-89.54 212.79,-79.78"/>
<polygon fill="#63b8ff" stroke="#63b8ff" points="214.2,-76.55 203.62,-76.93 212.13,-83.23 214.2,-76.55"/>
</a>
</g>
</g>
<!-- Node10 -->
<g id="Node000010" class="node">
<title>Node10</title>
<g id="a_Node000010"><a xlink:title=" ">
<polygon fill="#e0e0e0" stroke="#999999" points="296.38,-76 242.88,-76 242.88,-56 296.38,-56 296.38,-76"/>
<text text-anchor="middle" x="269.62" y="-62.5" font-family="Helvetica,sans-Serif" font-size="10.00">iostream</text>
</a>
</g>
</g>
<!-- Node9&#45;&gt;Node10 -->
<g id="edge11_Node000009_Node000010" class="edge">
<title>Node9&#45;&gt;Node10</title>
<g id="a_edge11_Node000009_Node000010"><a xlink:title=" ">
<path fill="none" stroke="#63b8ff" d="M332.39,-111.59C321.34,-103.74 305.34,-92.38 292.27,-83.09"/>
<polygon fill="#63b8ff" stroke="#63b8ff" points="294.38,-80.3 284.2,-77.36 290.32,-86 294.38,-80.3"/>
</a>
</g>
</g>
<!-- Node9&#45;&gt;Node11 -->
<g id="edge12_Node000009_Node000011" class="edge">
<title>Node9&#45;&gt;Node11</title>
<g id="a_edge12_Node000009_Node000011"><a xlink:title=" ">
<path fill="none" stroke="#63b8ff" d="M412.67,-111.72C497.17,-100.02 639.06,-80.37 702.84,-71.54"/>
<polygon fill="#63b8ff" stroke="#63b8ff" points="703.23,-75.02 712.66,-70.18 702.27,-68.08 703.23,-75.02"/>
</a>
</g>
</g>
<!-- Node12 -->
<g id="Node000012" class="node">
<title>Node12</title>
<g id="a_Node000012"><a xlink:title=" ">
<polygon fill="#e0e0e0" stroke="#999999" points="376.5,-76 314.75,-76 314.75,-56 376.5,-56 376.5,-76"/>
<text text-anchor="middle" x="345.62" y="-62.5" font-family="Helvetica,sans-Serif" font-size="10.00">type_traits</text>
</a>
</g>
</g>
<!-- Node9&#45;&gt;Node12 -->
<g id="edge13_Node000009_Node000012" class="edge">
<title>Node9&#45;&gt;Node12</title>
<g id="a_edge13_Node000009_Node000012"><a xlink:title=" ">
<path fill="none" stroke="#63b8ff" d="M345.62,-111.59C345.62,-105.01 345.62,-95.96 345.62,-87.73"/>
<polygon fill="#63b8ff" stroke="#63b8ff" points="349.13,-87.81 345.63,-77.81 342.13,-87.81 349.13,-87.81"/>
</a>
</g>
</g>
<!-- Node13 -->
<g id="Node000013" class="node">
<title>Node13</title>
<g id="a_Node000013"><a xlink:title=" ">
<polygon fill="#e0e0e0" stroke="#999999" points="442.38,-76 394.88,-76 394.88,-56 442.38,-56 442.38,-76"/>
<text text-anchor="middle" x="418.62" y="-62.5" font-family="Helvetica,sans-Serif" font-size="10.00">cstddef</text>
</a>
</g>
</g>
<!-- Node9&#45;&gt;Node13 -->
<g id="edge14_Node000009_Node000013" class="edge">
<title>Node9&#45;&gt;Node13</title>
<g id="a_edge14_Node000009_Node000013"><a xlink:title=" ">
<path fill="none" stroke="#63b8ff" d="M358.34,-111.59C369.02,-103.7 384.5,-92.24 397.11,-82.92"/>
<polygon fill="#63b8ff" stroke="#63b8ff" points="398.88,-85.96 404.84,-77.2 394.72,-80.33 398.88,-85.96"/>
</a>
</g>
</g>
<!-- Node17&#45;&gt;Node4 -->
<g id="edge21_Node000017_Node000004" class="edge">
<title>Node17&#45;&gt;Node4</title>
<g id="a_edge21_Node000017_Node000004"><a xlink:title=" ">
<path fill="none" stroke="#63b8ff" d="M624.13,-167.55C651.46,-155.96 688.77,-134.99 671.62,-112 653.29,-87.4 622.03,-75.72 592.69,-70.36"/>
<polygon fill="#63b8ff" stroke="#63b8ff" points="593.49,-66.94 583.07,-68.83 592.4,-73.85 593.49,-66.94"/>
</a>
</g>
</g>
<!-- Node17&#45;&gt;Node8 -->
<g id="edge20_Node000017_Node000008" class="edge">
<title>Node17&#45;&gt;Node8</title>
<g id="a_edge20_Node000017_Node000008"><a xlink:title=" ">
<path fill="none" stroke="#63b8ff" d="M547.61,-172.82C468.31,-165.86 319.38,-150.77 269.62,-132 253.75,-126.01 217.16,-100.39 193.46,-83.16"/>
<polygon fill="#63b8ff" stroke="#63b8ff" points="195.55,-80.35 185.41,-77.26 191.41,-85.99 195.55,-80.35"/>
</a>
</g>
</g>
<!-- Node17&#45;&gt;Node9 -->
<g id="edge19_Node000017_Node000009" class="edge">
<title>Node17&#45;&gt;Node9</title>
<g id="a_edge19_Node000017_Node000009"><a xlink:title=" ">
<path fill="none" stroke="#63b8ff" d="M554.27,-167.53C511.59,-158.42 446.93,-144.62 400.91,-134.8"/>
<polygon fill="#63b8ff" stroke="#63b8ff" points="401.92,-131.44 391.41,-132.77 400.46,-138.28 401.92,-131.44"/>
</a>
</g>
</g>
<!-- Node17&#45;&gt;Node15 -->
<g id="edge23_Node000017_Node000015" class="edge">
<title>Node17&#45;&gt;Node15</title>
<g id="a_edge23_Node000017_Node000015"><a xlink:title=" ">
<path fill="none" stroke="#63b8ff" d="M547.62,-172.85C477.23,-166.62 346.52,-153.27 236.62,-132 235.79,-131.84 234.95,-131.67 234.1,-131.49"/>
<polygon fill="#63b8ff" stroke="#63b8ff" points="235.03,-128.11 224.49,-129.22 233.42,-134.93 235.03,-128.11"/>
</a>
</g>
</g>
<!-- Node18 -->
<g id="Node000018" class="node">
<title>Node18</title>
<g id="a_Node000018"><a xlink:title=" ">
<polygon fill="#e0e0e0" stroke="#999999" points="662.5,-132 606.75,-132 606.75,-112 662.5,-112 662.5,-132"/>
<text text-anchor="middle" x="634.62" y="-118.5" font-family="Helvetica,sans-Serif" font-size="10.00">algorithm</text>
</a>
</g>
</g>
<!-- Node17&#45;&gt;Node18 -->
<g id="edge22_Node000017_Node000018" class="edge">
<title>Node17&#45;&gt;Node18</title>
<g id="a_edge22_Node000017_Node000018"><a xlink:title=" ">
<path fill="none" stroke="#63b8ff" d="M604.9,-167.59C609.64,-160.47 616.32,-150.45 622.15,-141.72"/>
<polygon fill="#63b8ff" stroke="#63b8ff" points="624.95,-143.82 627.59,-133.56 619.13,-139.94 624.95,-143.82"/>
</a>
</g>
</g>
<!-- Node17&#45;&gt;Node19 -->
<g id="edge24_Node000017_Node000019" class="edge">
<title>Node17&#45;&gt;Node19</title>
<g id="a_edge24_Node000017_Node000019"><a xlink:title=" ">
<path fill="none" stroke="#63b8ff" d="M634.6,-167.58C666.57,-159.17 714.84,-146.39 765.68,-132.51"/>
<polygon fill="#63b8ff" stroke="#63b8ff" points="766.38,-135.94 775.1,-129.93 764.53,-129.19 766.38,-135.94"/>
</a>
</g>
</g>
<!-- Node20 -->
<g id="Node000020" class="node">
<title>Node20</title>
<g id="a_Node000020"><a xlink:title=" ">
<polygon fill="#e0e0e0" stroke="#999999" points="758.62,-132 718.62,-132 718.62,-112 758.62,-112 758.62,-132"/>
<text text-anchor="middle" x="738.62" y="-118.5" font-family="Helvetica,sans-Serif" font-size="10.00">ctime</text>
</a>
</g>
</g>
<!-- Node17&#45;&gt;Node20 -->
<g id="edge25_Node000017_Node000020" class="edge">
<title>Node17&#45;&gt;Node20</title>
<g id="a_edge25_Node000017_Node000020"><a xlink:title=" ">
<path fill="none" stroke="#63b8ff" d="M623.01,-167.59C646.49,-158.54 682.09,-144.81 707.58,-134.98"/>
<polygon fill="#63b8ff" stroke="#63b8ff" points="708.67,-138.3 716.74,-131.44 706.15,-131.77 708.67,-138.3"/>
</a>
</g>
</g>
<!-- Node21 -->
<g id="Node000021" class="node">
<title>Node21</title>
<g id="a_Node000021"><a xlink:title=" ">
<polygon fill="#e0e0e0" stroke="#999999" points="520.25,-132 469,-132 469,-112 520.25,-112 520.25,-132"/>
<text text-anchor="middle" x="494.62" y="-118.5" font-family="Helvetica,sans-Serif" font-size="10.00">sstream</text>
</a>
</g>
</g>
<!-- Node17&#45;&gt;Node21 -->
<g id="edge26_Node000017_Node000021" class="edge">
<title>Node17&#45;&gt;Node21</title>
<g id="a_edge26_Node000017_Node000021"><a xlink:title=" ">
<path fill="none" stroke="#63b8ff" d="M580.51,-167.59C564.65,-159.36 541.34,-147.26 523.01,-137.74"/>
<polygon fill="#63b8ff" stroke="#63b8ff" points="524.71,-134.68 514.23,-133.18 521.49,-140.89 524.71,-134.68"/>
</a>
</g>
</g>
<!-- Node22 -->
<g id="Node000022" class="node">
<title>Node22</title>
<g id="a_Node000022"><a xlink:title=" ">
<polygon fill="#e0e0e0" stroke="#999999" points="588.5,-132 538.75,-132 538.75,-112 588.5,-112 588.5,-132"/>
<text text-anchor="middle" x="563.62" y="-118.5" font-family="Helvetica,sans-Serif" font-size="10.00">iomanip</text>
</a>
</g>
</g>
<!-- Node17&#45;&gt;Node22 -->
<g id="edge27_Node000017_Node000022" class="edge">
<title>Node17&#45;&gt;Node22</title>
<g id="a_edge27_Node000017_Node000022"><a xlink:title=" ">
<path fill="none" stroke="#63b8ff" d="M592.53,-167.59C587.91,-160.47 581.42,-150.45 575.76,-141.72"/>
<polygon fill="#63b8ff" stroke="#63b8ff" points="578.85,-140.06 570.47,-133.57 572.98,-143.86 578.85,-140.06"/>
</a>
</g>
</g>
</g>
</svg>
