<?xml version="1.0" encoding="UTF-8" standalone="no"?>
<!DOCTYPE svg PUBLIC "-//W3C//DTD SVG 1.1//EN"
 "http://www.w3.org/Graphics/SVG/1.1/DTD/svg11.dtd">
<!-- Generated by graphviz version 10.0.1 (20240210.2158)
 -->
<!-- Title: AEFileWriter::flushFile Pages: 1 -->
<svg width="1041pt" height="180pt"
 viewBox="0.00 0.00 1041.00 180.00" xmlns="http://www.w3.org/2000/svg" xmlns:xlink="http://www.w3.org/1999/xlink">
<g id="graph0" class="graph" transform="scale(1 1) rotate(0) translate(4 176)">
<title>AEFileWriter::flushFile</title>
<!-- Node1 -->
<g id="Node000001" class="node">
<title>Node1</title>
<g id="a_Node000001"><a xlink:title="Flushes the opened file.">
<polygon fill="#999999" stroke="#666666" points="1033,-115 919.5,-115 919.5,-95 1033,-95 1033,-115"/>
<text text-anchor="middle" x="976.25" y="-101.5" font-family="Helvetica,sans-Serif" font-size="10.00">AEFileWriter::flushFile</text>
</a>
</g>
</g>
<!-- Node2 -->
<g id="Node000002" class="node">
<title>Node2</title>
<g id="a_Node000002"><a xlink:href="../../db/d15/class_a_e_file_writer.html#ab0423ba30b2e035259a2f655465330cc" target="_top" xlink:title="Default Destructor.">
<polygon fill="white" stroke="#666666" points="880.88,-172 741.88,-172 741.88,-152 880.88,-152 880.88,-172"/>
<text text-anchor="middle" x="811.38" y="-158.5" font-family="Helvetica,sans-Serif" font-size="10.00">AEFileWriter::~AEFileWriter</text>
</a>
</g>
</g>
<!-- Node1&#45;&gt;Node2 -->
<g id="edge1_Node000001_Node000002" class="edge">
<title>Node1&#45;&gt;Node2</title>
<g id="a_edge1_Node000001_Node000002"><a xlink:title=" ">
<path fill="none" stroke="#63b8ff" d="M942.41,-119.83C925.1,-127.34 903.38,-136.26 883.5,-143 874.42,-146.08 864.56,-148.98 855.15,-151.55"/>
<polygon fill="#63b8ff" stroke="#63b8ff" points="943.43,-123.21 951.18,-115.98 940.62,-116.8 943.43,-123.21"/>
</a>
</g>
</g>
<!-- Node3 -->
<g id="Node000003" class="node">
<title>Node3</title>
<g id="a_Node000003"><a xlink:href="../../db/d15/class_a_e_file_writer.html#a0fc33128433b317611c12ac0914887ec" target="_top" xlink:title="Checks for and performs the auto&#45;flush operation if required.">
<polygon fill="white" stroke="#666666" points="871.5,-134 751.25,-134 751.25,-114 871.5,-114 871.5,-134"/>
<text text-anchor="middle" x="811.38" y="-120.5" font-family="Helvetica,sans-Serif" font-size="10.00">AEFileWriter::autoFlush</text>
</a>
</g>
</g>
<!-- Node1&#45;&gt;Node3 -->
<g id="edge2_Node000001_Node000003" class="edge">
<title>Node1&#45;&gt;Node3</title>
<g id="a_edge2_Node000001_Node000003"><a xlink:title=" ">
<path fill="none" stroke="#63b8ff" d="M907.9,-112.86C895.95,-114.25 883.58,-115.69 871.86,-117.06"/>
<polygon fill="#63b8ff" stroke="#63b8ff" points="908.17,-116.35 917.69,-111.71 907.36,-109.4 908.17,-116.35"/>
</a>
</g>
</g>
<!-- Node4 -->
<g id="Node000004" class="node">
<title>Node4</title>
<g id="a_Node000004"><a xlink:href="../../d8/dfc/class_a_e_logger.html#a5938787b6933f4b96ebff10643bd2497" target="_top" xlink:title="The function of the log writing thread to...read the entries, format them, write them,...">
<polygon fill="white" stroke="#666666" points="703.25,-96 570.25,-96 570.25,-76 703.25,-76 703.25,-96"/>
<text text-anchor="middle" x="636.75" y="-82.5" font-family="Helvetica,sans-Serif" font-size="10.00">AELogger::logWriterThread</text>
</a>
</g>
</g>
<!-- Node1&#45;&gt;Node4 -->
<g id="edge3_Node000001_Node000004" class="edge">
<title>Node1&#45;&gt;Node4</title>
<g id="a_edge3_Node000001_Node000004"><a xlink:title=" ">
<path fill="none" stroke="#63b8ff" d="M908,-101.21C848.6,-97.87 762.51,-93.02 703.55,-89.7"/>
<polygon fill="#63b8ff" stroke="#63b8ff" points="907.45,-104.69 917.63,-101.76 907.84,-97.7 907.45,-104.69"/>
</a>
</g>
</g>
<!-- Node10 -->
<g id="Node000010" class="node">
<title>Node10</title>
<g id="a_Node000010"><a xlink:href="../../d8/dfc/class_a_e_logger.html#a54bad71bcfea05c3d17d7ba1bacfec8c" target="_top" xlink:title="Writes to log directly, without thinking of the queue.">
<polygon fill="white" stroke="#666666" points="883.5,-58 739.25,-58 739.25,-38 883.5,-38 883.5,-58"/>
<text text-anchor="middle" x="811.38" y="-44.5" font-family="Helvetica,sans-Serif" font-size="10.00">AELogger::writeToLogDirectly</text>
</a>
</g>
</g>
<!-- Node1&#45;&gt;Node10 -->
<g id="edge9_Node000001_Node000010" class="edge">
<title>Node1&#45;&gt;Node10</title>
<g id="a_edge9_Node000001_Node000010"><a xlink:title=" ">
<path fill="none" stroke="#63b8ff" d="M936.05,-90.71C919.81,-84.84 900.77,-78.02 883.5,-72 870.58,-67.5 856.29,-62.65 843.93,-58.5"/>
<polygon fill="#63b8ff" stroke="#63b8ff" points="934.77,-93.97 945.36,-94.08 937.15,-87.38 934.77,-93.97"/>
</a>
</g>
</g>
<!-- Node5 -->
<g id="Node000005" class="node">
<title>Node5</title>
<g id="a_Node000005"><a xlink:href="../../d8/dfc/class_a_e_logger.html#a284034896688215f7e87242764c5985d" target="_top" xlink:title="Starts the log&#45;writing thread.">
<polygon fill="white" stroke="#666666" points="393,-96 282.5,-96 282.5,-76 393,-76 393,-96"/>
<text text-anchor="middle" x="337.75" y="-82.5" font-family="Helvetica,sans-Serif" font-size="10.00">AELogger::startWriter</text>
</a>
</g>
</g>
<!-- Node4&#45;&gt;Node5 -->
<g id="edge4_Node000004_Node000005" class="edge">
<title>Node4&#45;&gt;Node5</title>
<g id="a_edge4_Node000004_Node000005"><a xlink:title=" ">
<path fill="none" stroke="#63b8ff" d="M558.33,-86C506.42,-86 439.34,-86 393.06,-86"/>
<polygon fill="#63b8ff" stroke="#63b8ff" points="558.32,-89.5 568.32,-86 558.32,-82.5 558.32,-89.5"/>
</a>
</g>
</g>
<!-- Node6 -->
<g id="Node000006" class="node">
<title>Node6</title>
<g id="a_Node000006"><a xlink:href="../../d8/dfc/class_a_e_logger.html#a134f36542cb09532588436c53df9653d" target="_top" xlink:title="Class constructor – it opens the file with the given path and name and start logging to it.">
<polygon fill="white" stroke="#666666" points="245,-115 137.5,-115 137.5,-95 245,-95 245,-115"/>
<text text-anchor="middle" x="191.25" y="-101.5" font-family="Helvetica,sans-Serif" font-size="10.00">AELogger::AELogger</text>
</a>
</g>
</g>
<!-- Node5&#45;&gt;Node6 -->
<g id="edge5_Node000005_Node000006" class="edge">
<title>Node5&#45;&gt;Node6</title>
<g id="a_edge5_Node000005_Node000006"><a xlink:title=" ">
<path fill="none" stroke="#63b8ff" d="M270.86,-94.66C262.21,-95.8 253.44,-96.95 245.04,-98.06"/>
<polygon fill="#63b8ff" stroke="#63b8ff" points="271.16,-98.15 280.62,-93.38 270.25,-91.21 271.16,-98.15"/>
</a>
</g>
</g>
<!-- Node7 -->
<g id="Node000007" class="node">
<title>Node7</title>
<g id="a_Node000007"><a xlink:href="../../d8/dfc/class_a_e_logger.html#a53b588f9874535299d612a4c71de9950" target="_top" xlink:title="Open the file to start logging.">
<polygon fill="white" stroke="#666666" points="242,-77 140.5,-77 140.5,-57 242,-57 242,-77"/>
<text text-anchor="middle" x="191.25" y="-63.5" font-family="Helvetica,sans-Serif" font-size="10.00">AELogger::openLog</text>
</a>
</g>
</g>
<!-- Node5&#45;&gt;Node7 -->
<g id="edge6_Node000005_Node000007" class="edge">
<title>Node5&#45;&gt;Node7</title>
<g id="a_edge6_Node000005_Node000007"><a xlink:title=" ">
<path fill="none" stroke="#63b8ff" d="M270.91,-77.34C261.26,-76.07 251.46,-74.79 242.2,-73.57"/>
<polygon fill="#63b8ff" stroke="#63b8ff" points="270.25,-80.79 280.62,-78.62 271.16,-73.85 270.25,-80.79"/>
</a>
</g>
</g>
<!-- Node8 -->
<g id="Node000008" class="node">
<title>Node8</title>
<g id="a_Node000008"><a xlink:href="../../d8/dfc/class_a_e_logger.html#ac8f55a9e3c92557ea3d92974093ff6fb" target="_top" xlink:title="Open the file to start logging.">
<polygon fill="white" stroke="#666666" points="101.5,-96 0,-96 0,-76 101.5,-76 101.5,-96"/>
<text text-anchor="middle" x="50.75" y="-82.5" font-family="Helvetica,sans-Serif" font-size="10.00">AELogger::openLog</text>
</a>
</g>
</g>
<!-- Node7&#45;&gt;Node8 -->
<g id="edge7_Node000007_Node000008" class="edge">
<title>Node7&#45;&gt;Node8</title>
<g id="a_edge7_Node000007_Node000008"><a xlink:title=" ">
<path fill="none" stroke="#63b8ff" d="M128.87,-75.42C119.78,-76.67 110.5,-77.94 101.68,-79.15"/>
<polygon fill="#63b8ff" stroke="#63b8ff" points="129.32,-78.89 138.75,-74.07 128.37,-71.96 129.32,-78.89"/>
</a>
</g>
</g>
<!-- Node9 -->
<g id="Node000009" class="node">
<title>Node9</title>
<g id="a_Node000009"><a xlink:href="../../d8/dfc/class_a_e_logger.html#acbfddb2d8f459f32ce58d7c06cc2ddaa" target="_top" xlink:title="Open the file to start logging.">
<polygon fill="white" stroke="#666666" points="101.5,-58 0,-58 0,-38 101.5,-38 101.5,-58"/>
<text text-anchor="middle" x="50.75" y="-44.5" font-family="Helvetica,sans-Serif" font-size="10.00">AELogger::openLog</text>
</a>
</g>
</g>
<!-- Node7&#45;&gt;Node9 -->
<g id="edge8_Node000007_Node000009" class="edge">
<title>Node7&#45;&gt;Node9</title>
<g id="a_edge8_Node000007_Node000009"><a xlink:title=" ">
<path fill="none" stroke="#63b8ff" d="M128.87,-58.58C119.78,-57.33 110.5,-56.06 101.68,-54.85"/>
<polygon fill="#63b8ff" stroke="#63b8ff" points="128.37,-62.04 138.75,-59.93 129.32,-55.11 128.37,-62.04"/>
</a>
</g>
</g>
<!-- Node10&#45;&gt;Node4 -->
<g id="edge13_Node000010_Node000004" class="edge">
<title>Node10&#45;&gt;Node4</title>
<g id="a_edge13_Node000010_Node000004"><a xlink:title=" ">
<path fill="none" stroke="#63b8ff" d="M751.69,-60.92C730.03,-65.69 705.77,-71.03 685.22,-75.55"/>
<polygon fill="#63b8ff" stroke="#63b8ff" points="752.26,-64.38 761.27,-58.81 750.75,-57.54 752.26,-64.38"/>
</a>
</g>
</g>
<!-- Node11 -->
<g id="Node000011" class="node">
<title>Node11</title>
<g id="a_Node000011"><a xlink:href="../../d8/dfc/class_a_e_logger.html#a2f64d8f5de2f249f7cb973a82ec1e48a" target="_top" xlink:title="Close the file, if it was opened.">
<polygon fill="white" stroke="#666666" points="534.25,-58 430.5,-58 430.5,-38 534.25,-38 534.25,-58"/>
<text text-anchor="middle" x="482.38" y="-44.5" font-family="Helvetica,sans-Serif" font-size="10.00">AELogger::closeLog</text>
</a>
</g>
</g>
<!-- Node10&#45;&gt;Node11 -->
<g id="edge10_Node000010_Node000011" class="edge">
<title>Node10&#45;&gt;Node11</title>
<g id="a_edge10_Node000010_Node000011"><a xlink:title=" ">
<path fill="none" stroke="#63b8ff" d="M727.53,-48C666.78,-48 586.2,-48 534.56,-48"/>
<polygon fill="#63b8ff" stroke="#63b8ff" points="727.5,-51.5 737.5,-48 727.5,-44.5 727.5,-51.5"/>
</a>
</g>
</g>
<!-- Node13 -->
<g id="Node000013" class="node">
<title>Node13</title>
<g id="a_Node000013"><a xlink:href="../../d8/dfc/class_a_e_logger.html#a53b212c259c40bda694476f09d1f171b" target="_top" xlink:title="Stops the log&#45;writing thread (after flushing the log queue).">
<polygon fill="white" stroke="#666666" points="691.62,-20 581.88,-20 581.88,0 691.62,0 691.62,-20"/>
<text text-anchor="middle" x="636.75" y="-6.5" font-family="Helvetica,sans-Serif" font-size="10.00">AELogger::stopWriter</text>
</a>
</g>
</g>
<!-- Node10&#45;&gt;Node13 -->
<g id="edge14_Node000010_Node000013" class="edge">
<title>Node10&#45;&gt;Node13</title>
<g id="a_edge14_Node000010_Node000013"><a xlink:title=" ">
<path fill="none" stroke="#63b8ff" d="M751.69,-35.08C730.03,-30.31 705.77,-24.97 685.22,-20.45"/>
<polygon fill="#63b8ff" stroke="#63b8ff" points="750.75,-38.46 761.27,-37.19 752.26,-31.62 750.75,-38.46"/>
</a>
</g>
</g>
<!-- Node11&#45;&gt;Node5 -->
<g id="edge12_Node000011_Node000005" class="edge">
<title>Node11&#45;&gt;Node5</title>
<g id="a_edge12_Node000011_Node000005"><a xlink:title=" ">
<path fill="none" stroke="#63b8ff" d="M430.91,-61.45C413.52,-66.08 394.33,-71.19 377.97,-75.55"/>
<polygon fill="#63b8ff" stroke="#63b8ff" points="431.8,-64.83 440.56,-58.87 430,-58.07 431.8,-64.83"/>
</a>
</g>
</g>
<!-- Node12 -->
<g id="Node000012" class="node">
<title>Node12</title>
<g id="a_Node000012"><a xlink:href="../../d8/dfc/class_a_e_logger.html#a4b6c6a8134c8f7f24db7d3f35d62624d" target="_top" xlink:title="Class destructor.">
<polygon fill="white" stroke="#666666" points="394.5,-58 281,-58 281,-38 394.5,-38 394.5,-58"/>
<text text-anchor="middle" x="337.75" y="-44.5" font-family="Helvetica,sans-Serif" font-size="10.00">AELogger::~AELogger</text>
</a>
</g>
</g>
<!-- Node11&#45;&gt;Node12 -->
<g id="edge11_Node000011_Node000012" class="edge">
<title>Node11&#45;&gt;Node12</title>
<g id="a_edge11_Node000011_Node000012"><a xlink:title=" ">
<path fill="none" stroke="#63b8ff" d="M419.03,-48C410.97,-48 402.75,-48 394.8,-48"/>
<polygon fill="#63b8ff" stroke="#63b8ff" points="418.77,-51.5 428.77,-48 418.77,-44.5 418.77,-51.5"/>
</a>
</g>
</g>
<!-- Node13&#45;&gt;Node11 -->
<g id="edge15_Node000013_Node000011" class="edge">
<title>Node13&#45;&gt;Node11</title>
<g id="a_edge15_Node000013_Node000011"><a xlink:title=" ">
<path fill="none" stroke="#63b8ff" d="M582.63,-23.25C563.85,-27.93 543,-33.13 525.28,-37.55"/>
<polygon fill="#63b8ff" stroke="#63b8ff" points="583.39,-26.67 592.24,-20.85 581.69,-19.87 583.39,-26.67"/>
</a>
</g>
</g>
</g>
</svg>
