<?xml version="1.0" encoding="UTF-8" standalone="no"?>
<!DOCTYPE svg PUBLIC "-//W3C//DTD SVG 1.1//EN"
 "http://www.w3.org/Graphics/SVG/1.1/DTD/svg11.dtd">
<!-- Generated by graphviz version 10.0.1 (20240210.2158)
 -->
<!-- Title: AEFileWriter::isOpen Pages: 1 -->
<!--zoomable 483 -->

<svg id="main" version="1.1" xmlns="http://www.w3.org/2000/svg" xmlns:xlink="http://www.w3.org/1999/xlink" xml:space="preserve" onload="init(evt)">
<style type="text/css"><![CDATA[
.node, .edge {opacity: 0.7;}
.node.selected, .edge.selected {opacity: 1;}
.edge:hover path { stroke: red; }
.edge:hover polygon { stroke: red; fill: red; }
]]></style>

<defs>
  <circle id="rim" cx="0" cy="0" r="7"/>
  <circle id="rim2" cx="0" cy="0" r="3.5"/>
  <g id="zoomPlus">
    <use xlink:href="#rim" fill="#404040"><set attributeName="fill" to="#808080" begin="zoomplus.mouseover" end="zoomplus.mouseout"/></use>
    <path d="M-4,0h8M0,-4v8" fill="none" stroke="white" stroke-width="1.5" pointer-events="none"/>
  </g>
  <g id="zoomMin">
    <use xlink:href="#rim" fill="#404040"><set attributeName="fill" to="#808080" begin="zoomminus.mouseover" end="zoomminus.mouseout"/></use>
    <path d="M-4,0h8" fill="none" stroke="white" stroke-width="1.5" pointer-events="none"/>
  </g>
  <g id="arrowUp" transform="translate(30 24)">
    <use xlink:href="#rim"/>
    <path pointer-events="none" fill="none" stroke="white" stroke-width="1.5" d="M0,-3.0v7 M-2.5,-0.5L0,-3.0L2.5,-0.5"/>
  </g>
  <g id="arrowRight" transform="rotate(90) translate(36 -43)">
    <use xlink:href="#rim"/>
    <path pointer-events="none" fill="none" stroke="white" stroke-width="1.5" d="M0,-3.0v7 M-2.5,-0.5L0,-3.0L2.5,-0.5"/>
  </g>
  <g id="arrowDown" transform="rotate(180) translate(-30 -48)">
    <use xlink:href="#rim"/>
    <path pointer-events="none" fill="none" stroke="white" stroke-width="1.5" d="M0,-3.0v7 M-2.5,-0.5L0,-3.0L2.5,-0.5"/>
  </g>
  <g id="arrowLeft" transform="rotate(270) translate(-36 17)">
    <use xlink:href="#rim"/>
    <path pointer-events="none" fill="none" stroke="white" stroke-width="1.5" d="M0,-3.0v7 M-2.5,-0.5L0,-3.0L2.5,-0.5"/>
  </g>
  <g id="resetDef">
    <use xlink:href="#rim2" fill="#404040"><set attributeName="fill" to="#808080" begin="reset.mouseover" end="reset.mouseout"/></use>
  </g>
</defs>
<script type="application/ecmascript">
var viewWidth = 1411;
var viewHeight = 483;
var sectionId = 'dynsection-22';
</script>
<script type="application/ecmascript" xlink:href="../../svg.min.js"/>
<svg id="graph" class="graph">
<g id="viewport">
<title>AEFileWriter::isOpen</title>
<!-- Node1 -->
<g id="Node000001" class="node">
<title>Node1</title>
<g id="a_Node000001"><a xlink:title="Checks if a file is open by this file&#45;writer.">
<polygon fill="#999999" stroke="#666666" points="1403.25,-86 1295,-86 1295,-66 1403.25,-66 1403.25,-86"/>
<text text-anchor="middle" x="1349.12" y="-72.5" font-family="Helvetica,sans-Serif" font-size="10.00">AEFileWriter::isOpen</text>
</a>
</g>
</g>
<!-- Node2 -->
<g id="Node000002" class="node">
<title>Node2</title>
<g id="a_Node000002"><a xlink:href="../../d8/dfc/class_a_e_logger.html#a134f36542cb09532588436c53df9653d" target="_top" xlink:title="Class constructor – it opens the file with the given path and name and start logging to it.">
<polygon fill="white" stroke="#666666" points="245,-447 137.5,-447 137.5,-427 245,-427 245,-447"/>
<text text-anchor="middle" x="191.25" y="-433.5" font-family="Helvetica,sans-Serif" font-size="10.00">AELogger::AELogger</text>
</a>
</g>
</g>
<!-- Node1&#45;&gt;Node2 -->
<g id="edge1_Node000001_Node000002" class="edge">
<title>Node1&#45;&gt;Node2</title>
<g id="a_edge1_Node000001_Node000002"><a xlink:title=" ">
<path fill="none" stroke="#63b8ff" d="M1342.9,-97.23C1321.19,-179.8 1230.04,-475 1036.5,-475 1036.5,-475 1036.5,-475 496,-475 400.24,-475 375.46,-476.69 281,-461 262.11,-457.86 241.42,-452.39 224.78,-447.47"/>
<polygon fill="#63b8ff" stroke="#63b8ff" points="1346.24,-98.29 1345.33,-87.73 1339.46,-96.55 1346.24,-98.29"/>
</a>
</g>
</g>
<!-- Node3 -->
<g id="Node000003" class="node">
<title>Node3</title>
<g id="a_Node000003"><a xlink:href="../../db/d15/class_a_e_file_writer.html#a0743145db01b527ae9612f359e5c0090" target="_top" xlink:title="Checks if a file isn&#39;t open by this file&#45;writer.">
<polygon fill="white" stroke="#666666" points="1259,-105 1144,-105 1144,-85 1259,-85 1259,-105"/>
<text text-anchor="middle" x="1201.5" y="-91.5" font-family="Helvetica,sans-Serif" font-size="10.00">AEFileWriter::isClosed</text>
</a>
</g>
</g>
<!-- Node1&#45;&gt;Node3 -->
<g id="edge2_Node000001_Node000003" class="edge">
<title>Node1&#45;&gt;Node3</title>
<g id="a_edge2_Node000001_Node000003"><a xlink:title=" ">
<path fill="none" stroke="#63b8ff" d="M1283.48,-84.43C1275.43,-85.49 1267.24,-86.55 1259.32,-87.59"/>
<polygon fill="#63b8ff" stroke="#63b8ff" points="1283.76,-87.93 1293.23,-83.16 1282.86,-80.99 1283.76,-87.93"/>
</a>
</g>
</g>
<!-- Node21 -->
<g id="Node000021" class="node">
<title>Node21</title>
<g id="a_Node000021"><a xlink:href="../../db/d15/class_a_e_file_writer.html#a939fe602eecb15ba71448a9de13bb2c0" target="_top" xlink:title="Open(and create) file with given name and flag.">
<polygon fill="white" stroke="#666666" points="1092.62,-48 978.38,-48 978.38,-28 1092.62,-28 1092.62,-48"/>
<text text-anchor="middle" x="1035.5" y="-34.5" font-family="Helvetica,sans-Serif" font-size="10.00">AEFileWriter::openFile</text>
</a>
</g>
</g>
<!-- Node1&#45;&gt;Node21 -->
<g id="edge33_Node000001_Node000021" class="edge">
<title>Node1&#45;&gt;Node21</title>
<g id="a_edge33_Node000001_Node000021"><a xlink:title=" ">
<path fill="none" stroke="#63b8ff" d="M1283.31,-68.1C1227.13,-61.25 1146.66,-51.43 1093.05,-44.9"/>
<polygon fill="#63b8ff" stroke="#63b8ff" points="1282.7,-71.55 1293.05,-69.28 1283.55,-64.6 1282.7,-71.55"/>
</a>
</g>
</g>
<!-- Node23 -->
<g id="Node000023" class="node">
<title>Node23</title>
<g id="a_Node000023"><a xlink:href="../../d8/dfc/class_a_e_logger.html#a05043df3dad7ad73a65f3f86b1f98185" target="_top" xlink:title="Checks if the current log file is open.">
<polygon fill="white" stroke="#666666" points="1249.25,-29 1153.75,-29 1153.75,-9 1249.25,-9 1249.25,-29"/>
<text text-anchor="middle" x="1201.5" y="-15.5" font-family="Helvetica,sans-Serif" font-size="10.00">AELogger::isOpen</text>
</a>
</g>
</g>
<!-- Node1&#45;&gt;Node23 -->
<g id="edge32_Node000001_Node000023" class="edge">
<title>Node1&#45;&gt;Node23</title>
<g id="a_edge32_Node000001_Node000023"><a xlink:title=" ">
<path fill="none" stroke="#63b8ff" d="M1310.98,-61.46C1285.38,-51.44 1251.98,-38.37 1229.04,-29.39"/>
<polygon fill="#63b8ff" stroke="#63b8ff" points="1309.42,-64.61 1320.01,-64.99 1311.97,-58.09 1309.42,-64.61"/>
</a>
</g>
</g>
<!-- Node4 -->
<g id="Node000004" class="node">
<title>Node4</title>
<g id="a_Node000004"><a xlink:href="../../db/d15/class_a_e_file_writer.html#a5980b915ad3a59393e2818d374c3dc85" target="_top" xlink:title="Returns the full, absolute path of the opened file.">
<polygon fill="white" stroke="#666666" points="1099,-210 972,-210 972,-190 1099,-190 1099,-210"/>
<text text-anchor="middle" x="1035.5" y="-196.5" font-family="Helvetica,sans-Serif" font-size="10.00">AEFileWriter::getFullPath</text>
</a>
</g>
</g>
<!-- Node3&#45;&gt;Node4 -->
<g id="edge3_Node000003_Node000004" class="edge">
<title>Node3&#45;&gt;Node4</title>
<g id="a_edge3_Node000003_Node000004"><a xlink:title=" ">
<path fill="none" stroke="#63b8ff" d="M1174.86,-111.42C1140.71,-133.28 1081.32,-171.3 1052.76,-189.59"/>
<polygon fill="#63b8ff" stroke="#63b8ff" points="1176.37,-114.61 1182.9,-106.27 1172.59,-108.71 1176.37,-114.61"/>
</a>
</g>
</g>
<!-- Node6 -->
<g id="Node000006" class="node">
<title>Node6</title>
<g id="a_Node000006"><a xlink:href="../../db/d15/class_a_e_file_writer.html#aa7ea0428e5c94d54d9fd1386105db507" target="_top" xlink:title="Returns the relative path of the opened file.">
<polygon fill="white" stroke="#666666" points="1108,-86 963,-86 963,-66 1108,-66 1108,-86"/>
<text text-anchor="middle" x="1035.5" y="-72.5" font-family="Helvetica,sans-Serif" font-size="10.00">AEFileWriter::getRelativePath</text>
</a>
</g>
</g>
<!-- Node3&#45;&gt;Node6 -->
<g id="edge5_Node000003_Node000006" class="edge">
<title>Node3&#45;&gt;Node6</title>
<g id="a_edge5_Node000003_Node000006"><a xlink:title=" ">
<path fill="none" stroke="#63b8ff" d="M1132.2,-87.09C1124.32,-86.17 1116.25,-85.24 1108.32,-84.32"/>
<polygon fill="#63b8ff" stroke="#63b8ff" points="1131.76,-90.56 1142.1,-88.23 1132.57,-83.61 1131.76,-90.56"/>
</a>
</g>
</g>
<!-- Node8 -->
<g id="Node000008" class="node">
<title>Node8</title>
<g id="a_Node000008"><a xlink:href="../../d8/dfc/class_a_e_logger.html#a4d512bf9f4d0a6a1b6a332b9c99e22ac" target="_top" xlink:title="Checks if a log file isn&#39;t open by this logger.">
<polygon fill="white" stroke="#666666" points="1086.62,-124 984.38,-124 984.38,-104 1086.62,-104 1086.62,-124"/>
<text text-anchor="middle" x="1035.5" y="-110.5" font-family="Helvetica,sans-Serif" font-size="10.00">AELogger::isClosed</text>
</a>
</g>
</g>
<!-- Node3&#45;&gt;Node8 -->
<g id="edge7_Node000003_Node000008" class="edge">
<title>Node3&#45;&gt;Node8</title>
<g id="a_edge7_Node000003_Node000008"><a xlink:title=" ">
<path fill="none" stroke="#63b8ff" d="M1132.19,-102.91C1117.05,-104.67 1101.27,-106.5 1087,-108.15"/>
<polygon fill="#63b8ff" stroke="#63b8ff" points="1132.57,-106.39 1142.1,-101.77 1131.76,-99.44 1132.57,-106.39"/>
</a>
</g>
</g>
<!-- Node3&#45;&gt;Node21 -->
<g id="edge29_Node000003_Node000021" class="edge">
<title>Node3&#45;&gt;Node21</title>
<g id="a_edge29_Node000003_Node000021"><a xlink:title=" ">
<path fill="none" stroke="#63b8ff" d="M1165.96,-80.27C1144.6,-71.26 1119.19,-60.77 1108,-57 1098.87,-53.93 1088.95,-51.02 1079.49,-48.45"/>
<polygon fill="#63b8ff" stroke="#63b8ff" points="1164.39,-83.4 1174.96,-84.07 1167.12,-76.95 1164.39,-83.4"/>
</a>
</g>
</g>
<!-- Node5 -->
<g id="Node000005" class="node">
<title>Node5</title>
<g id="a_Node000005"><a xlink:href="../../d8/dfc/class_a_e_logger.html#ad84fba530467f2918c2598987d5d2899" target="_top" xlink:title="Get the full/absolute path of the log file.">
<polygon fill="white" stroke="#666666" points="927,-257 774.5,-257 774.5,-237 927,-237 927,-257"/>
<text text-anchor="middle" x="850.75" y="-243.5" font-family="Helvetica,sans-Serif" font-size="10.00">AELogger::getLogAbsolutePath</text>
</a>
</g>
</g>
<!-- Node4&#45;&gt;Node5 -->
<g id="edge4_Node000004_Node000005" class="edge">
<title>Node4&#45;&gt;Node5</title>
<g id="a_edge4_Node000004_Node000005"><a xlink:title=" ">
<path fill="none" stroke="#63b8ff" d="M983.61,-213.34C965.72,-218 945.48,-223.26 927,-228 916.17,-230.78 904.45,-233.75 893.56,-236.5"/>
<polygon fill="#63b8ff" stroke="#63b8ff" points="984.44,-216.74 993.23,-210.83 982.67,-209.97 984.44,-216.74"/>
</a>
</g>
</g>
<!-- Node7 -->
<g id="Node000007" class="node">
<title>Node7</title>
<g id="a_Node000007"><a xlink:href="../../d8/dfc/class_a_e_logger.html#ae73f71a42c0b77d0cd15818483c6471d" target="_top" xlink:title="Get the path of the log file.">
<polygon fill="white" stroke="#666666" points="907.88,-86 793.62,-86 793.62,-66 907.88,-66 907.88,-86"/>
<text text-anchor="middle" x="850.75" y="-72.5" font-family="Helvetica,sans-Serif" font-size="10.00">AELogger::getLogPath</text>
</a>
</g>
</g>
<!-- Node6&#45;&gt;Node7 -->
<g id="edge6_Node000006_Node000007" class="edge">
<title>Node6&#45;&gt;Node7</title>
<g id="a_edge6_Node000006_Node000007"><a xlink:title=" ">
<path fill="none" stroke="#63b8ff" d="M951.41,-76C936.76,-76 921.82,-76 908.12,-76"/>
<polygon fill="#63b8ff" stroke="#63b8ff" points="951.02,-79.5 961.02,-76 951.02,-72.5 951.02,-79.5"/>
</a>
</g>
</g>
<!-- Node9 -->
<g id="Node000009" class="node">
<title>Node9</title>
<g id="a_Node000009"><a xlink:href="../../d8/dfc/class_a_e_logger.html#a2f64d8f5de2f249f7cb973a82ec1e48a" target="_top" xlink:title="Close the file, if it was opened.">
<polygon fill="white" stroke="#666666" points="548.88,-219 445.12,-219 445.12,-199 548.88,-199 548.88,-219"/>
<text text-anchor="middle" x="497" y="-205.5" font-family="Helvetica,sans-Serif" font-size="10.00">AELogger::closeLog</text>
</a>
</g>
</g>
<!-- Node8&#45;&gt;Node9 -->
<g id="edge8_Node000008_Node000009" class="edge">
<title>Node8&#45;&gt;Node9</title>
<g id="a_edge8_Node000008_Node000009"><a xlink:title=" ">
<path fill="none" stroke="#63b8ff" d="M972.58,-111.32C886.77,-109.4 727.79,-112.4 599.5,-152 565.71,-162.43 530.68,-185.24 511.9,-198.62"/>
<polygon fill="#63b8ff" stroke="#63b8ff" points="972.34,-114.81 982.42,-111.57 972.52,-107.82 972.34,-114.81"/>
</a>
</g>
</g>
<!-- Node15 -->
<g id="Node000015" class="node">
<title>Node15</title>
<g id="a_Node000015"><a xlink:href="../../d8/dfc/class_a_e_logger.html#ac533941173224cb21fe09326726ce754" target="_top" xlink:title="Request a log entry to be written to the opened log file.">
<polygon fill="white" stroke="#666666" points="906.38,-219 795.12,-219 795.12,-199 906.38,-199 906.38,-219"/>
<text text-anchor="middle" x="850.75" y="-205.5" font-family="Helvetica,sans-Serif" font-size="10.00">AELogger::writeToLog</text>
</a>
</g>
</g>
<!-- Node8&#45;&gt;Node15 -->
<g id="edge15_Node000008_Node000015" class="edge">
<title>Node8&#45;&gt;Node15</title>
<g id="a_edge15_Node000008_Node000015"><a xlink:title=" ">
<path fill="none" stroke="#63b8ff" d="M1004.78,-129.45C967.37,-148.9 904.12,-181.78 871.91,-198.52"/>
<polygon fill="#63b8ff" stroke="#63b8ff" points="1005.99,-132.76 1013.25,-125.05 1002.76,-126.55 1005.99,-132.76"/>
</a>
</g>
</g>
<!-- Node10 -->
<g id="Node000010" class="node">
<title>Node10</title>
<g id="a_Node000010"><a xlink:href="../../d8/dfc/class_a_e_logger.html#a4b6c6a8134c8f7f24db7d3f35d62624d" target="_top" xlink:title="Class destructor.">
<polygon fill="white" stroke="#666666" points="394.5,-181 281,-181 281,-161 394.5,-161 394.5,-181"/>
<text text-anchor="middle" x="337.75" y="-167.5" font-family="Helvetica,sans-Serif" font-size="10.00">AELogger::~AELogger</text>
</a>
</g>
</g>
<!-- Node9&#45;&gt;Node10 -->
<g id="edge9_Node000009_Node000010" class="edge">
<title>Node9&#45;&gt;Node10</title>
<g id="a_edge9_Node000009_Node000010"><a xlink:title=" ">
<path fill="none" stroke="#63b8ff" d="M441.45,-195.82C422,-191.12 400.37,-185.89 381.99,-181.45"/>
<polygon fill="#63b8ff" stroke="#63b8ff" points="440.6,-199.21 451.14,-198.16 442.25,-192.41 440.6,-199.21"/>
</a>
</g>
</g>
<!-- Node11 -->
<g id="Node000011" class="node">
<title>Node11</title>
<g id="a_Node000011"><a xlink:href="../../d8/dfc/class_a_e_logger.html#a284034896688215f7e87242764c5985d" target="_top" xlink:title="Starts the log&#45;writing thread.">
<polygon fill="white" stroke="#666666" points="393,-295 282.5,-295 282.5,-275 393,-275 393,-295"/>
<text text-anchor="middle" x="337.75" y="-281.5" font-family="Helvetica,sans-Serif" font-size="10.00">AELogger::startWriter</text>
</a>
</g>
</g>
<!-- Node9&#45;&gt;Node11 -->
<g id="edge10_Node000009_Node000011" class="edge">
<title>Node9&#45;&gt;Node11</title>
<g id="a_edge10_Node000009_Node000011"><a xlink:title=" ">
<path fill="none" stroke="#63b8ff" d="M464.22,-224.36C433.28,-239.31 387.13,-261.62 360.28,-274.6"/>
<polygon fill="#63b8ff" stroke="#63b8ff" points="465.62,-227.57 473.1,-220.07 462.58,-221.27 465.62,-227.57"/>
</a>
</g>
</g>
<!-- Node11&#45;&gt;Node2 -->
<g id="edge11_Node000011_Node000002" class="edge">
<title>Node11&#45;&gt;Node2</title>
<g id="a_edge11_Node000011_Node000002"><a xlink:title=" ">
<path fill="none" stroke="#63b8ff" d="M319.02,-303.65C288.21,-336.06 225.79,-401.72 201.87,-426.88"/>
<polygon fill="#63b8ff" stroke="#63b8ff" points="321.42,-306.2 325.78,-296.54 316.35,-301.38 321.42,-306.2"/>
</a>
</g>
</g>
<!-- Node12 -->
<g id="Node000012" class="node">
<title>Node12</title>
<g id="a_Node000012"><a xlink:href="../../d8/dfc/class_a_e_logger.html#a53b588f9874535299d612a4c71de9950" target="_top" xlink:title="Open the file to start logging.">
<polygon fill="white" stroke="#666666" points="242,-67 140.5,-67 140.5,-47 242,-47 242,-67"/>
<text text-anchor="middle" x="191.25" y="-53.5" font-family="Helvetica,sans-Serif" font-size="10.00">AELogger::openLog</text>
</a>
</g>
</g>
<!-- Node11&#45;&gt;Node12 -->
<g id="edge12_Node000011_Node000012" class="edge">
<title>Node11&#45;&gt;Node12</title>
<g id="a_edge12_Node000011_Node000012"><a xlink:title=" ">
<path fill="none" stroke="#63b8ff" d="M324.07,-264.99C294.39,-218.17 221.26,-102.78 198.87,-67.45"/>
<polygon fill="#63b8ff" stroke="#63b8ff" points="321.05,-266.76 329.36,-273.33 326.96,-263.01 321.05,-266.76"/>
</a>
</g>
</g>
<!-- Node13 -->
<g id="Node000013" class="node">
<title>Node13</title>
<g id="a_Node000013"><a xlink:href="../../d8/dfc/class_a_e_logger.html#ac8f55a9e3c92557ea3d92974093ff6fb" target="_top" xlink:title="Open the file to start logging.">
<polygon fill="white" stroke="#666666" points="101.5,-86 0,-86 0,-66 101.5,-66 101.5,-86"/>
<text text-anchor="middle" x="50.75" y="-72.5" font-family="Helvetica,sans-Serif" font-size="10.00">AELogger::openLog</text>
</a>
</g>
</g>
<!-- Node12&#45;&gt;Node13 -->
<g id="edge13_Node000012_Node000013" class="edge">
<title>Node12&#45;&gt;Node13</title>
<g id="a_edge13_Node000012_Node000013"><a xlink:title=" ">
<path fill="none" stroke="#63b8ff" d="M128.87,-65.42C119.78,-66.67 110.5,-67.94 101.68,-69.15"/>
<polygon fill="#63b8ff" stroke="#63b8ff" points="129.32,-68.89 138.75,-64.07 128.37,-61.96 129.32,-68.89"/>
</a>
</g>
</g>
<!-- Node14 -->
<g id="Node000014" class="node">
<title>Node14</title>
<g id="a_Node000014"><a xlink:href="../../d8/dfc/class_a_e_logger.html#acbfddb2d8f459f32ce58d7c06cc2ddaa" target="_top" xlink:title="Open the file to start logging.">
<polygon fill="white" stroke="#666666" points="101.5,-48 0,-48 0,-28 101.5,-28 101.5,-48"/>
<text text-anchor="middle" x="50.75" y="-34.5" font-family="Helvetica,sans-Serif" font-size="10.00">AELogger::openLog</text>
</a>
</g>
</g>
<!-- Node12&#45;&gt;Node14 -->
<g id="edge14_Node000012_Node000014" class="edge">
<title>Node12&#45;&gt;Node14</title>
<g id="a_edge14_Node000012_Node000014"><a xlink:title=" ">
<path fill="none" stroke="#63b8ff" d="M128.87,-48.58C119.78,-47.33 110.5,-46.06 101.68,-44.85"/>
<polygon fill="#63b8ff" stroke="#63b8ff" points="128.37,-52.04 138.75,-49.93 129.32,-45.11 128.37,-52.04"/>
</a>
</g>
</g>
<!-- Node15&#45;&gt;Node2 -->
<g id="edge16_Node000015_Node000002" class="edge">
<title>Node15&#45;&gt;Node2</title>
<g id="a_edge16_Node000015_Node000002"><a xlink:title=" ">
<path fill="none" stroke="#63b8ff" d="M784.52,-220.04C780.86,-222.26 777.46,-224.89 774.5,-228 718.81,-286.42 799.5,-353.15 738.5,-406 665.99,-468.82 367.81,-451.8 245.23,-441.83"/>
<polygon fill="#63b8ff" stroke="#63b8ff" points="785.94,-223.24 793.41,-215.73 782.89,-216.95 785.94,-223.24"/>
</a>
</g>
</g>
<!-- Node15&#45;&gt;Node9 -->
<g id="edge18_Node000015_Node000009" class="edge">
<title>Node15&#45;&gt;Node9</title>
<g id="a_edge18_Node000015_Node000009"><a xlink:title=" ">
<path fill="none" stroke="#63b8ff" d="M783.36,-209C715.34,-209 611.02,-209 549.15,-209"/>
<polygon fill="#63b8ff" stroke="#63b8ff" points="783.28,-212.5 793.28,-209 783.28,-205.5 783.28,-212.5"/>
</a>
</g>
</g>
<!-- Node15&#45;&gt;Node10 -->
<g id="edge17_Node000015_Node000010" class="edge">
<title>Node15&#45;&gt;Node10</title>
<g id="a_edge17_Node000015_Node000010"><a xlink:title=" ">
<path fill="none" stroke="#63b8ff" d="M825.8,-192.47C804.12,-178.58 770.74,-159.78 738.5,-152 613.38,-121.81 460.01,-145.26 384.8,-160.53"/>
<polygon fill="#63b8ff" stroke="#63b8ff" points="823.63,-195.23 833.91,-197.81 827.48,-189.38 823.63,-195.23"/>
</a>
</g>
</g>
<!-- Node15&#45;&gt;Node11 -->
<g id="edge22_Node000015_Node000011" class="edge">
<title>Node15&#45;&gt;Node11</title>
<g id="a_edge22_Node000015_Node000011"><a xlink:title=" ">
<path fill="none" stroke="#63b8ff" d="M784.37,-223C780.95,-224.5 777.64,-226.16 774.5,-228 754.43,-239.76 759.65,-256.3 738.5,-266 624.82,-318.13 473.37,-306.35 393.47,-294.75"/>
<polygon fill="#63b8ff" stroke="#63b8ff" points="785.38,-226.36 793.45,-219.5 782.86,-219.83 785.38,-226.36"/>
</a>
</g>
</g>
<!-- Node15&#45;&gt;Node12 -->
<g id="edge21_Node000015_Node000012" class="edge">
<title>Node15&#45;&gt;Node12</title>
<g id="a_edge21_Node000015_Node000012"><a xlink:title=" ">
<path fill="none" stroke="#63b8ff" d="M829.74,-191.33C808.62,-173.74 773.57,-147.47 738.5,-134 565.05,-67.4 340.78,-57.52 242.33,-56.64"/>
<polygon fill="#63b8ff" stroke="#63b8ff" points="827.38,-193.92 837.27,-197.75 831.93,-188.59 827.38,-193.92"/>
</a>
</g>
</g>
<!-- Node16 -->
<g id="Node000016" class="node">
<title>Node16</title>
<g id="a_Node000016"><a xlink:href="../../d8/dfc/class_a_e_logger.html#a5938787b6933f4b96ebff10643bd2497" target="_top" xlink:title="The function of the log writing thread to...read the entries, format them, write them,...">
<polygon fill="white" stroke="#666666" points="563.5,-371 430.5,-371 430.5,-351 563.5,-351 563.5,-371"/>
<text text-anchor="middle" x="497" y="-357.5" font-family="Helvetica,sans-Serif" font-size="10.00">AELogger::logWriterThread</text>
</a>
</g>
</g>
<!-- Node15&#45;&gt;Node16 -->
<g id="edge19_Node000015_Node000016" class="edge">
<title>Node15&#45;&gt;Node16</title>
<g id="a_edge19_Node000015_Node000016"><a xlink:title=" ">
<path fill="none" stroke="#63b8ff" d="M784.64,-220.15C780.94,-222.35 777.51,-224.94 774.5,-228 725.77,-277.45 792.95,-336.94 738.5,-380 673.45,-431.44 565.16,-391.94 519.42,-371.41"/>
<polygon fill="#63b8ff" stroke="#63b8ff" points="786.06,-223.35 793.58,-215.88 783.04,-217.04 786.06,-223.35"/>
</a>
</g>
</g>
<!-- Node17 -->
<g id="Node000017" class="node">
<title>Node17</title>
<g id="a_Node000017"><a xlink:href="../../d8/dfc/class_a_e_logger.html#a53b212c259c40bda694476f09d1f171b" target="_top" xlink:title="Stops the log&#45;writing thread (after flushing the log queue).">
<polygon fill="white" stroke="#666666" points="723.88,-257 614.12,-257 614.12,-237 723.88,-237 723.88,-257"/>
<text text-anchor="middle" x="669" y="-243.5" font-family="Helvetica,sans-Serif" font-size="10.00">AELogger::stopWriter</text>
</a>
</g>
</g>
<!-- Node15&#45;&gt;Node17 -->
<g id="edge23_Node000015_Node000017" class="edge">
<title>Node15&#45;&gt;Node17</title>
<g id="a_edge23_Node000015_Node000017"><a xlink:title=" ">
<path fill="none" stroke="#63b8ff" d="M788.95,-221.85C766.32,-226.64 740.92,-232.01 719.43,-236.55"/>
<polygon fill="#63b8ff" stroke="#63b8ff" points="789.62,-225.29 798.68,-219.8 788.17,-218.44 789.62,-225.29"/>
</a>
</g>
</g>
<!-- Node18 -->
<g id="Node000018" class="node">
<title>Node18</title>
<g id="a_Node000018"><a xlink:href="../../d8/dfc/class_a_e_logger.html#a42debdcd6da993064afc1f4d2357ecfb" target="_top" xlink:title="Writes the current status of the file logger instance (file name, and entries written).">
<polygon fill="white" stroke="#666666" points="725.75,-371 612.25,-371 612.25,-351 725.75,-351 725.75,-371"/>
<text text-anchor="middle" x="669" y="-357.5" font-family="Helvetica,sans-Serif" font-size="10.00">AELogger::writeStatus</text>
</a>
</g>
</g>
<!-- Node15&#45;&gt;Node18 -->
<g id="edge25_Node000015_Node000018" class="edge">
<title>Node15&#45;&gt;Node18</title>
<g id="a_edge25_Node000015_Node000018"><a xlink:title=" ">
<path fill="none" stroke="#63b8ff" d="M784.71,-220.52C781.02,-222.63 777.57,-225.1 774.5,-228 735.85,-264.45 776.73,-305.1 738.5,-342 734.86,-345.51 730.63,-348.39 726.09,-350.74"/>
<polygon fill="#63b8ff" stroke="#63b8ff" points="785.97,-223.79 793.55,-216.39 783.01,-217.45 785.97,-223.79"/>
</a>
</g>
</g>
<!-- Node19 -->
<g id="Node000019" class="node">
<title>Node19</title>
<g id="a_Node000019"><a xlink:href="../../d8/dfc/class_a_e_logger.html#aa38725e74a352cd316126b32c614c12f" target="_top" xlink:title="Request a log entry to be written to the opened log file, using data from a log entry type.">
<polygon fill="white" stroke="#666666" points="724.62,-333 613.38,-333 613.38,-313 724.62,-313 724.62,-333"/>
<text text-anchor="middle" x="669" y="-319.5" font-family="Helvetica,sans-Serif" font-size="10.00">AELogger::writeToLog</text>
</a>
</g>
</g>
<!-- Node15&#45;&gt;Node19 -->
<g id="edge26_Node000015_Node000019" class="edge">
<title>Node15&#45;&gt;Node19</title>
<g id="a_edge26_Node000015_Node000019"><a xlink:title=" ">
<path fill="none" stroke="#63b8ff" d="M784.52,-221.49C780.97,-223.37 777.59,-225.53 774.5,-228 746.87,-250.09 765.12,-275.69 738.5,-299 731.86,-304.81 723.74,-309.24 715.43,-312.61"/>
<polygon fill="#63b8ff" stroke="#63b8ff" points="785.79,-224.76 793.52,-217.51 782.96,-218.36 785.79,-224.76"/>
</a>
</g>
</g>
<!-- Node20 -->
<g id="Node000020" class="node">
<title>Node20</title>
<g id="a_Node000020"><a xlink:href="../../d8/dfc/class_a_e_logger.html#a50dfd96a74d13471faebd4de499db5bf" target="_top" xlink:title="Request a debug log entry to be written to the opened log file.">
<polygon fill="white" stroke="#666666" points="738.5,-181 599.5,-181 599.5,-161 738.5,-161 738.5,-181"/>
<text text-anchor="middle" x="669" y="-167.5" font-family="Helvetica,sans-Serif" font-size="10.00">AELogger::writeToLogDebug</text>
</a>
</g>
</g>
<!-- Node15&#45;&gt;Node20 -->
<g id="edge27_Node000015_Node000020" class="edge">
<title>Node15&#45;&gt;Node20</title>
<g id="a_edge27_Node000015_Node000020"><a xlink:title=" ">
<path fill="none" stroke="#63b8ff" d="M812.77,-195.6C791.47,-190.02 764,-183.88 738.87,-178.98"/>
<polygon fill="#63b8ff" stroke="#63b8ff" points="811.58,-198.91 822.15,-198.15 813.42,-192.15 811.58,-198.91"/>
</a>
</g>
</g>
<!-- Node16&#45;&gt;Node11 -->
<g id="edge20_Node000016_Node000011" class="edge">
<title>Node16&#45;&gt;Node11</title>
<g id="a_edge20_Node000016_Node000011"><a xlink:title=" ">
<path fill="none" stroke="#63b8ff" d="M464.22,-345.64C433.28,-330.69 387.13,-308.38 360.28,-295.4"/>
<polygon fill="#63b8ff" stroke="#63b8ff" points="462.58,-348.73 473.1,-349.93 465.62,-342.43 462.58,-348.73"/>
</a>
</g>
</g>
<!-- Node17&#45;&gt;Node9 -->
<g id="edge24_Node000017_Node000009" class="edge">
<title>Node17&#45;&gt;Node9</title>
<g id="a_edge24_Node000017_Node000009"><a xlink:title=" ">
<path fill="none" stroke="#63b8ff" d="M609.91,-234.02C588.65,-229.26 564.89,-223.95 544.75,-219.45"/>
<polygon fill="#63b8ff" stroke="#63b8ff" points="609.1,-237.42 619.62,-236.19 610.62,-230.59 609.1,-237.42"/>
</a>
</g>
</g>
<!-- Node20&#45;&gt;Node15 -->
<g id="edge28_Node000020_Node000015" class="edge">
<title>Node20&#45;&gt;Node15</title>
<g id="a_edge28_Node000020_Node000015"><a xlink:title=" ">
<path fill="none" stroke="#63b8ff" d="M707.02,-184.41C732.35,-191.04 766.37,-198.46 794.84,-203.67"/>
<polygon fill="#63b8ff" stroke="#63b8ff" points="708.08,-181.07 697.51,-181.82 706.24,-187.82 708.08,-181.07"/>
</a>
</g>
</g>
<!-- Node21&#45;&gt;Node12 -->
<g id="edge31_Node000021_Node000012" class="edge">
<title>Node21&#45;&gt;Node12</title>
<g id="a_edge31_Node000021_Node000012"><a xlink:title=" ">
<path fill="none" stroke="#63b8ff" d="M970.18,-25.54C956,-23.1 941.02,-20.75 927,-19 813.35,-4.79 784.53,0 670,0 670,0 670,0 496,0 396.2,0 281.08,-30.09 225.58,-46.55"/>
<polygon fill="#63b8ff" stroke="#63b8ff" points="969.4,-28.96 979.86,-27.25 970.62,-22.06 969.4,-28.96"/>
</a>
</g>
</g>
<!-- Node22 -->
<g id="Node000022" class="node">
<title>Node22</title>
<g id="a_Node000022"><a xlink:href="../../db/d15/class_a_e_file_writer.html#aab3c5167d1f6945e4846540b5417a57f" target="_top" xlink:title="Class constructor – creates the AEFileWriter instance and opens the file.">
<polygon fill="white" stroke="#666666" points="917.25,-48 784.25,-48 784.25,-28 917.25,-28 917.25,-48"/>
<text text-anchor="middle" x="850.75" y="-34.5" font-family="Helvetica,sans-Serif" font-size="10.00">AEFileWriter::AEFileWriter</text>
</a>
</g>
</g>
<!-- Node21&#45;&gt;Node22 -->
<g id="edge30_Node000021_Node000022" class="edge">
<title>Node21&#45;&gt;Node22</title>
<g id="a_edge30_Node000021_Node000022"><a xlink:title=" ">
<path fill="none" stroke="#63b8ff" d="M966.69,-38C950.61,-38 933.48,-38 917.5,-38"/>
<polygon fill="#63b8ff" stroke="#63b8ff" points="966.66,-41.5 976.66,-38 966.66,-34.5 966.66,-41.5"/>
</a>
</g>
</g>
</g>
</svg>

<g id="navigator" transform="translate(0 0)" fill="#404254">
  <rect fill="#f2f5e9" fill-opacity="0.5" stroke="#606060" stroke-width=".5" x="0" y="0" width="60" height="60"/>
  <use id="zoomplus" xlink:href="#zoomPlus" x="17" y="9" onmousedown="handleZoom(evt,'in')"/>
  <use id="zoomminus" xlink:href="#zoomMin" x="42" y="9" onmousedown="handleZoom(evt,'out')"/>
  <use id="reset" xlink:href="#resetDef" x="30" y="36" onmousedown="handleReset()"/>
   <use id="arrowup" xlink:href="#arrowUp" x="0" y="0" onmousedown="handlePan(0,-1)"/>
  <use id="arrowright" xlink:href="#arrowRight" x="0" y="0" onmousedown="handlePan(1,0)"/>
  <use id="arrowdown" xlink:href="#arrowDown" x="0" y="0" onmousedown="handlePan(0,1)"/>
  <use id="arrowleft" xlink:href="#arrowLeft" x="0" y="0" onmousedown="handlePan(-1,0)"/>
</g>
<svg viewBox="0 0 15 15" width="100%" height="30px" preserveAspectRatio="xMaxYMin meet">
 <g id="arrow_out" transform="scale(0.3 0.3)">
  <a xlink:href="class_a_e_file_writer_a47e3c08c276394bce7b612331cf4762d_icgraph_org.svg" target="_base">
   <rect id="button" ry="5" rx="5" y="6" x="6" height="38" width="38"
        fill="#f2f5e9" fill-opacity="0.5" stroke="#606060" stroke-width="1.0"/>
   <path id="arrow"
     d="M 11.500037,31.436501 C 11.940474,20.09759 22.043105,11.32322 32.158766,21.979434 L 37.068811,17.246167 C 37.068811,17.246167 37.088388,32 37.088388,32 L 22.160133,31.978069 C 22.160133,31.978069 26.997745,27.140456 26.997745,27.140456 C 18.528582,18.264221 13.291696,25.230495 11.500037,31.436501 z"
     style="fill:#404040;"/>
  </a>
 </g>
</svg>

<style type='text/css'>
<![CDATA[
[data-mouse-over-selected='false'] { opacity: 0.7; }
[data-mouse-over-selected='true']  { opacity: 1.0; }
]]>
</style>
<script type="application/ecmascript"><![CDATA[
document.addEventListener('DOMContentLoaded', (event) => {
  highlightEdges();
  highlightAdjacentNodes();
});
]]></script>
</svg>
