<?xml version="1.0" encoding="UTF-8" standalone="no"?>
<!DOCTYPE svg PUBLIC "-//W3C//DTD SVG 1.1//EN"
 "http://www.w3.org/Graphics/SVG/1.1/DTD/svg11.dtd">
<!-- Generated by graphviz version 10.0.1 (20240210.2158)
 -->
<!-- Title: AEFileWriter::isClosed Pages: 1 -->
<svg width="1267pt" height="511pt"
 viewBox="0.00 0.00 1267.00 511.04" xmlns="http://www.w3.org/2000/svg" xmlns:xlink="http://www.w3.org/1999/xlink">
<g id="graph0" class="graph" transform="scale(1 1) rotate(0) translate(4 507.04)">
<title>AEFileWriter::isClosed</title>
<!-- Node1 -->
<g id="Node000001" class="node">
<title>Node1</title>
<g id="a_Node000001"><a xlink:title="Checks if a file isn&#39;t open by this file&#45;writer.">
<polygon fill="#999999" stroke="#666666" points="1259,-305 1144,-305 1144,-285 1259,-285 1259,-305"/>
<text text-anchor="middle" x="1201.5" y="-291.5" font-family="Helvetica,sans-Serif" font-size="10.00">AEFileWriter::isClosed</text>
</a>
</g>
</g>
<!-- Node2 -->
<g id="Node000002" class="node">
<title>Node2</title>
<g id="a_Node000002"><a xlink:href="../../db/d15/class_a_e_file_writer.html#a5980b915ad3a59393e2818d374c3dc85" target="_top" xlink:title="Returns the full, absolute path of the opened file.">
<polygon fill="white" stroke="#666666" points="1099,-362 972,-362 972,-342 1099,-342 1099,-362"/>
<text text-anchor="middle" x="1035.5" y="-348.5" font-family="Helvetica,sans-Serif" font-size="10.00">AEFileWriter::getFullPath</text>
</a>
</g>
</g>
<!-- Node1&#45;&gt;Node2 -->
<g id="edge1_Node000001_Node000002" class="edge">
<title>Node1&#45;&gt;Node2</title>
<g id="a_edge1_Node000001_Node000002"><a xlink:title=" ">
<path fill="none" stroke="#63b8ff" d="M1167.39,-309.83C1149.93,-317.33 1128.03,-326.26 1108,-333 1098.87,-336.07 1088.95,-338.98 1079.49,-341.55"/>
<polygon fill="#63b8ff" stroke="#63b8ff" points="1168.47,-313.18 1176.24,-305.98 1165.67,-306.76 1168.47,-313.18"/>
</a>
</g>
</g>
<!-- Node4 -->
<g id="Node000004" class="node">
<title>Node4</title>
<g id="a_Node000004"><a xlink:href="../../db/d15/class_a_e_file_writer.html#aa7ea0428e5c94d54d9fd1386105db507" target="_top" xlink:title="Returns the relative path of the opened file.">
<polygon fill="white" stroke="#666666" points="1108,-324 963,-324 963,-304 1108,-304 1108,-324"/>
<text text-anchor="middle" x="1035.5" y="-310.5" font-family="Helvetica,sans-Serif" font-size="10.00">AEFileWriter::getRelativePath</text>
</a>
</g>
</g>
<!-- Node1&#45;&gt;Node4 -->
<g id="edge3_Node000001_Node000004" class="edge">
<title>Node1&#45;&gt;Node4</title>
<g id="a_edge3_Node000001_Node000004"><a xlink:title=" ">
<path fill="none" stroke="#63b8ff" d="M1132.2,-302.91C1124.32,-303.83 1116.25,-304.76 1108.32,-305.68"/>
<polygon fill="#63b8ff" stroke="#63b8ff" points="1132.57,-306.39 1142.1,-301.77 1131.76,-299.44 1132.57,-306.39"/>
</a>
</g>
</g>
<!-- Node6 -->
<g id="Node000006" class="node">
<title>Node6</title>
<g id="a_Node000006"><a xlink:href="../../d8/dfc/class_a_e_logger.html#a4d512bf9f4d0a6a1b6a332b9c99e22ac" target="_top" xlink:title="Checks if a log file isn&#39;t open by this logger.">
<polygon fill="white" stroke="#666666" points="1086.62,-286 984.38,-286 984.38,-266 1086.62,-266 1086.62,-286"/>
<text text-anchor="middle" x="1035.5" y="-272.5" font-family="Helvetica,sans-Serif" font-size="10.00">AELogger::isClosed</text>
</a>
</g>
</g>
<!-- Node1&#45;&gt;Node6 -->
<g id="edge5_Node000001_Node000006" class="edge">
<title>Node1&#45;&gt;Node6</title>
<g id="a_edge5_Node000001_Node000006"><a xlink:title=" ">
<path fill="none" stroke="#63b8ff" d="M1132.19,-287.09C1117.05,-285.33 1101.27,-283.5 1087,-281.85"/>
<polygon fill="#63b8ff" stroke="#63b8ff" points="1131.76,-290.56 1142.1,-288.23 1132.57,-283.61 1131.76,-290.56"/>
</a>
</g>
</g>
<!-- Node20 -->
<g id="Node000020" class="node">
<title>Node20</title>
<g id="a_Node000020"><a xlink:href="../../db/d15/class_a_e_file_writer.html#a939fe602eecb15ba71448a9de13bb2c0" target="_top" xlink:title="Open(and create) file with given name and flag.">
<polygon fill="white" stroke="#666666" points="1092.62,-58 978.38,-58 978.38,-38 1092.62,-38 1092.62,-58"/>
<text text-anchor="middle" x="1035.5" y="-44.5" font-family="Helvetica,sans-Serif" font-size="10.00">AEFileWriter::openFile</text>
</a>
</g>
</g>
<!-- Node1&#45;&gt;Node20 -->
<g id="edge27_Node000001_Node000020" class="edge">
<title>Node1&#45;&gt;Node20</title>
<g id="a_edge27_Node000001_Node000020"><a xlink:title=" ">
<path fill="none" stroke="#63b8ff" d="M1187.46,-275.36C1154.43,-225.61 1068.32,-95.92 1043.37,-58.34"/>
<polygon fill="#63b8ff" stroke="#63b8ff" points="1184.38,-277.05 1192.82,-283.44 1190.21,-273.17 1184.38,-277.05"/>
</a>
</g>
</g>
<!-- Node3 -->
<g id="Node000003" class="node">
<title>Node3</title>
<g id="a_Node000003"><a xlink:href="../../d8/dfc/class_a_e_logger.html#ad84fba530467f2918c2598987d5d2899" target="_top" xlink:title="Get the full/absolute path of the log file.">
<polygon fill="white" stroke="#666666" points="927,-362 774.5,-362 774.5,-342 927,-342 927,-362"/>
<text text-anchor="middle" x="850.75" y="-348.5" font-family="Helvetica,sans-Serif" font-size="10.00">AELogger::getLogAbsolutePath</text>
</a>
</g>
</g>
<!-- Node2&#45;&gt;Node3 -->
<g id="edge2_Node000002_Node000003" class="edge">
<title>Node2&#45;&gt;Node3</title>
<g id="a_edge2_Node000002_Node000003"><a xlink:title=" ">
<path fill="none" stroke="#63b8ff" d="M960.41,-352C949.52,-352 938.29,-352 927.37,-352"/>
<polygon fill="#63b8ff" stroke="#63b8ff" points="960.09,-355.5 970.09,-352 960.09,-348.5 960.09,-355.5"/>
</a>
</g>
</g>
<!-- Node5 -->
<g id="Node000005" class="node">
<title>Node5</title>
<g id="a_Node000005"><a xlink:href="../../d8/dfc/class_a_e_logger.html#ae73f71a42c0b77d0cd15818483c6471d" target="_top" xlink:title="Get the path of the log file.">
<polygon fill="white" stroke="#666666" points="907.88,-324 793.62,-324 793.62,-304 907.88,-304 907.88,-324"/>
<text text-anchor="middle" x="850.75" y="-310.5" font-family="Helvetica,sans-Serif" font-size="10.00">AELogger::getLogPath</text>
</a>
</g>
</g>
<!-- Node4&#45;&gt;Node5 -->
<g id="edge4_Node000004_Node000005" class="edge">
<title>Node4&#45;&gt;Node5</title>
<g id="a_edge4_Node000004_Node000005"><a xlink:title=" ">
<path fill="none" stroke="#63b8ff" d="M951.41,-314C936.76,-314 921.82,-314 908.12,-314"/>
<polygon fill="#63b8ff" stroke="#63b8ff" points="951.02,-317.5 961.02,-314 951.02,-310.5 951.02,-317.5"/>
</a>
</g>
</g>
<!-- Node7 -->
<g id="Node000007" class="node">
<title>Node7</title>
<g id="a_Node000007"><a xlink:href="../../d8/dfc/class_a_e_logger.html#a2f64d8f5de2f249f7cb973a82ec1e48a" target="_top" xlink:title="Close the file, if it was opened.">
<polygon fill="white" stroke="#666666" points="548.88,-210 445.12,-210 445.12,-190 548.88,-190 548.88,-210"/>
<text text-anchor="middle" x="497" y="-196.5" font-family="Helvetica,sans-Serif" font-size="10.00">AELogger::closeLog</text>
</a>
</g>
</g>
<!-- Node6&#45;&gt;Node7 -->
<g id="edge6_Node000006_Node000007" class="edge">
<title>Node6&#45;&gt;Node7</title>
<g id="a_edge6_Node000006_Node000007"><a xlink:title=" ">
<path fill="none" stroke="#63b8ff" d="M1000.56,-261.27C946.4,-238.64 836.52,-196.34 738.5,-181 677.47,-171.45 661.01,-175.29 599.5,-181 581.2,-182.7 561.29,-186.08 543.98,-189.53"/>
<polygon fill="#63b8ff" stroke="#63b8ff" points="998.97,-264.39 1009.55,-265.06 1001.7,-257.95 998.97,-264.39"/>
</a>
</g>
</g>
<!-- Node14 -->
<g id="Node000014" class="node">
<title>Node14</title>
<g id="a_Node000014"><a xlink:href="../../d8/dfc/class_a_e_logger.html#ac533941173224cb21fe09326726ce754" target="_top" xlink:title="Request a log entry to be written to the opened log file.">
<polygon fill="white" stroke="#666666" points="906.38,-286 795.12,-286 795.12,-266 906.38,-266 906.38,-286"/>
<text text-anchor="middle" x="850.75" y="-272.5" font-family="Helvetica,sans-Serif" font-size="10.00">AELogger::writeToLog</text>
</a>
</g>
</g>
<!-- Node6&#45;&gt;Node14 -->
<g id="edge13_Node000006_Node000014" class="edge">
<title>Node6&#45;&gt;Node14</title>
<g id="a_edge13_Node000006_Node000014"><a xlink:title=" ">
<path fill="none" stroke="#63b8ff" d="M972.82,-276C951.44,-276 927.63,-276 906.82,-276"/>
<polygon fill="#63b8ff" stroke="#63b8ff" points="972.57,-279.5 982.57,-276 972.57,-272.5 972.57,-279.5"/>
</a>
</g>
</g>
<!-- Node8 -->
<g id="Node000008" class="node">
<title>Node8</title>
<g id="a_Node000008"><a xlink:href="../../d8/dfc/class_a_e_logger.html#a4b6c6a8134c8f7f24db7d3f35d62624d" target="_top" xlink:title="Class destructor.">
<polygon fill="white" stroke="#666666" points="394.5,-191 281,-191 281,-171 394.5,-171 394.5,-191"/>
<text text-anchor="middle" x="337.75" y="-177.5" font-family="Helvetica,sans-Serif" font-size="10.00">AELogger::~AELogger</text>
</a>
</g>
</g>
<!-- Node7&#45;&gt;Node8 -->
<g id="edge7_Node000007_Node000008" class="edge">
<title>Node7&#45;&gt;Node8</title>
<g id="a_edge7_Node000007_Node000008"><a xlink:title=" ">
<path fill="none" stroke="#63b8ff" d="M433.86,-192.49C421.03,-190.94 407.59,-189.32 394.98,-187.79"/>
<polygon fill="#63b8ff" stroke="#63b8ff" points="433.1,-195.92 443.44,-193.65 433.93,-188.98 433.1,-195.92"/>
</a>
</g>
</g>
<!-- Node9 -->
<g id="Node000009" class="node">
<title>Node9</title>
<g id="a_Node000009"><a xlink:href="../../d8/dfc/class_a_e_logger.html#a284034896688215f7e87242764c5985d" target="_top" xlink:title="Starts the log&#45;writing thread.">
<polygon fill="white" stroke="#666666" points="393,-400 282.5,-400 282.5,-380 393,-380 393,-400"/>
<text text-anchor="middle" x="337.75" y="-386.5" font-family="Helvetica,sans-Serif" font-size="10.00">AELogger::startWriter</text>
</a>
</g>
</g>
<!-- Node7&#45;&gt;Node9 -->
<g id="edge8_Node000007_Node000009" class="edge">
<title>Node7&#45;&gt;Node9</title>
<g id="a_edge8_Node000007_Node000009"><a xlink:title=" ">
<path fill="none" stroke="#63b8ff" d="M480.28,-219C447.42,-258.7 372.44,-349.3 347.21,-379.78"/>
<polygon fill="#63b8ff" stroke="#63b8ff" points="482.68,-221.59 486.36,-211.65 477.28,-217.12 482.68,-221.59"/>
</a>
</g>
</g>
<!-- Node10 -->
<g id="Node000010" class="node">
<title>Node10</title>
<g id="a_Node000010"><a xlink:href="../../d8/dfc/class_a_e_logger.html#a134f36542cb09532588436c53df9653d" target="_top" xlink:title="Class constructor – it opens the file with the given path and name and start logging to it.">
<polygon fill="white" stroke="#666666" points="245,-438 137.5,-438 137.5,-418 245,-418 245,-438"/>
<text text-anchor="middle" x="191.25" y="-424.5" font-family="Helvetica,sans-Serif" font-size="10.00">AELogger::AELogger</text>
</a>
</g>
</g>
<!-- Node9&#45;&gt;Node10 -->
<g id="edge9_Node000009_Node000010" class="edge">
<title>Node9&#45;&gt;Node10</title>
<g id="a_edge9_Node000009_Node000010"><a xlink:title=" ">
<path fill="none" stroke="#63b8ff" d="M285.87,-403.38C268.19,-408.03 248.63,-413.17 231.99,-417.55"/>
<polygon fill="#63b8ff" stroke="#63b8ff" points="286.64,-406.8 295.42,-400.87 284.86,-400.03 286.64,-406.8"/>
</a>
</g>
</g>
<!-- Node11 -->
<g id="Node000011" class="node">
<title>Node11</title>
<g id="a_Node000011"><a xlink:href="../../d8/dfc/class_a_e_logger.html#a53b588f9874535299d612a4c71de9950" target="_top" xlink:title="Open the file to start logging.">
<polygon fill="white" stroke="#666666" points="242,-96 140.5,-96 140.5,-76 242,-76 242,-96"/>
<text text-anchor="middle" x="191.25" y="-82.5" font-family="Helvetica,sans-Serif" font-size="10.00">AELogger::openLog</text>
</a>
</g>
</g>
<!-- Node9&#45;&gt;Node11 -->
<g id="edge10_Node000009_Node000011" class="edge">
<title>Node9&#45;&gt;Node11</title>
<g id="a_edge10_Node000009_Node000011"><a xlink:title=" ">
<path fill="none" stroke="#63b8ff" d="M326.84,-369.16C298.54,-309.61 218.01,-140.19 197.2,-96.42"/>
<polygon fill="#63b8ff" stroke="#63b8ff" points="323.67,-370.64 331.13,-378.17 329.99,-367.63 323.67,-370.64"/>
</a>
</g>
</g>
<!-- Node12 -->
<g id="Node000012" class="node">
<title>Node12</title>
<g id="a_Node000012"><a xlink:href="../../d8/dfc/class_a_e_logger.html#ac8f55a9e3c92557ea3d92974093ff6fb" target="_top" xlink:title="Open the file to start logging.">
<polygon fill="white" stroke="#666666" points="101.5,-115 0,-115 0,-95 101.5,-95 101.5,-115"/>
<text text-anchor="middle" x="50.75" y="-101.5" font-family="Helvetica,sans-Serif" font-size="10.00">AELogger::openLog</text>
</a>
</g>
</g>
<!-- Node11&#45;&gt;Node12 -->
<g id="edge11_Node000011_Node000012" class="edge">
<title>Node11&#45;&gt;Node12</title>
<g id="a_edge11_Node000011_Node000012"><a xlink:title=" ">
<path fill="none" stroke="#63b8ff" d="M128.87,-94.42C119.78,-95.67 110.5,-96.94 101.68,-98.15"/>
<polygon fill="#63b8ff" stroke="#63b8ff" points="129.32,-97.89 138.75,-93.07 128.37,-90.96 129.32,-97.89"/>
</a>
</g>
</g>
<!-- Node13 -->
<g id="Node000013" class="node">
<title>Node13</title>
<g id="a_Node000013"><a xlink:href="../../d8/dfc/class_a_e_logger.html#acbfddb2d8f459f32ce58d7c06cc2ddaa" target="_top" xlink:title="Open the file to start logging.">
<polygon fill="white" stroke="#666666" points="101.5,-77 0,-77 0,-57 101.5,-57 101.5,-77"/>
<text text-anchor="middle" x="50.75" y="-63.5" font-family="Helvetica,sans-Serif" font-size="10.00">AELogger::openLog</text>
</a>
</g>
</g>
<!-- Node11&#45;&gt;Node13 -->
<g id="edge12_Node000011_Node000013" class="edge">
<title>Node11&#45;&gt;Node13</title>
<g id="a_edge12_Node000011_Node000013"><a xlink:title=" ">
<path fill="none" stroke="#63b8ff" d="M128.87,-77.58C119.78,-76.33 110.5,-75.06 101.68,-73.85"/>
<polygon fill="#63b8ff" stroke="#63b8ff" points="128.37,-81.04 138.75,-78.93 129.32,-74.11 128.37,-81.04"/>
</a>
</g>
</g>
<!-- Node14&#45;&gt;Node7 -->
<g id="edge16_Node000014_Node000007" class="edge">
<title>Node14&#45;&gt;Node7</title>
<g id="a_edge16_Node000014_Node000007"><a xlink:title=" ">
<path fill="none" stroke="#63b8ff" d="M790.15,-263.12C721.45,-248.28 609.86,-224.17 546.32,-210.44"/>
<polygon fill="#63b8ff" stroke="#63b8ff" points="789.22,-266.5 799.73,-265.19 790.7,-259.66 789.22,-266.5"/>
</a>
</g>
</g>
<!-- Node14&#45;&gt;Node8 -->
<g id="edge15_Node000014_Node000008" class="edge">
<title>Node14&#45;&gt;Node8</title>
<g id="a_edge15_Node000014_Node000008"><a xlink:title=" ">
<path fill="none" stroke="#63b8ff" d="M834.75,-256.71C815.41,-233.59 779.37,-196.07 738.5,-181 618.69,-136.81 464.6,-156.14 387.4,-170.51"/>
<polygon fill="#63b8ff" stroke="#63b8ff" points="832.01,-258.89 841.02,-264.45 837.45,-254.48 832.01,-258.89"/>
</a>
</g>
</g>
<!-- Node14&#45;&gt;Node9 -->
<g id="edge20_Node000014_Node000009" class="edge">
<title>Node14&#45;&gt;Node9</title>
<g id="a_edge20_Node000014_Node000009"><a xlink:title=" ">
<path fill="none" stroke="#63b8ff" d="M784.44,-288.4C780.91,-290.3 777.56,-292.49 774.5,-295 745.62,-318.73 769.6,-350.27 738.5,-371 683.51,-407.66 489.47,-400.32 393.43,-394.14"/>
<polygon fill="#63b8ff" stroke="#63b8ff" points="785.71,-291.66 793.41,-284.37 782.85,-285.27 785.71,-291.66"/>
</a>
</g>
</g>
<!-- Node14&#45;&gt;Node10 -->
<g id="edge14_Node000014_Node000010" class="edge">
<title>Node14&#45;&gt;Node10</title>
<g id="a_edge14_Node000014_Node000010"><a xlink:title=" ">
<path fill="none" stroke="#63b8ff" d="M784.52,-287.32C780.88,-289.48 777.49,-292.02 774.5,-295 728.71,-340.67 788.31,-394.74 738.5,-436 581.28,-566.23 302.26,-471.81 217.42,-438.44"/>
<polygon fill="#63b8ff" stroke="#63b8ff" points="785.78,-290.6 793.28,-283.12 782.75,-284.29 785.78,-290.6"/>
</a>
</g>
</g>
<!-- Node14&#45;&gt;Node11 -->
<g id="edge19_Node000014_Node000011" class="edge">
<title>Node14&#45;&gt;Node11</title>
<g id="a_edge19_Node000014_Node000011"><a xlink:title=" ">
<path fill="none" stroke="#63b8ff" d="M838.46,-255.72C821.14,-226.75 785.04,-174.35 738.5,-150 573.52,-63.68 342.94,-71.73 242.41,-80.47"/>
<polygon fill="#63b8ff" stroke="#63b8ff" points="835.37,-257.36 843.41,-264.26 841.42,-253.85 835.37,-257.36"/>
</a>
</g>
</g>
<!-- Node15 -->
<g id="Node000015" class="node">
<title>Node15</title>
<g id="a_Node000015"><a xlink:href="../../d8/dfc/class_a_e_logger.html#a5938787b6933f4b96ebff10643bd2497" target="_top" xlink:title="The function of the log writing thread to...read the entries, format them, write them,...">
<polygon fill="white" stroke="#666666" points="563.5,-438 430.5,-438 430.5,-418 563.5,-418 563.5,-438"/>
<text text-anchor="middle" x="497" y="-424.5" font-family="Helvetica,sans-Serif" font-size="10.00">AELogger::logWriterThread</text>
</a>
</g>
</g>
<!-- Node14&#45;&gt;Node15 -->
<g id="edge17_Node000014_Node000015" class="edge">
<title>Node14&#45;&gt;Node15</title>
<g id="a_edge17_Node000014_Node000015"><a xlink:title=" ">
<path fill="none" stroke="#63b8ff" d="M784.75,-287.57C781.05,-289.66 777.59,-292.12 774.5,-295 737.16,-329.76 778.31,-372.09 738.5,-404 687.09,-445.2 608.29,-444.89 555.02,-438.49"/>
<polygon fill="#63b8ff" stroke="#63b8ff" points="786.02,-290.84 793.61,-283.45 783.07,-284.49 786.02,-290.84"/>
</a>
</g>
</g>
<!-- Node16 -->
<g id="Node000016" class="node">
<title>Node16</title>
<g id="a_Node000016"><a xlink:href="../../d8/dfc/class_a_e_logger.html#a53b212c259c40bda694476f09d1f171b" target="_top" xlink:title="Stops the log&#45;writing thread (after flushing the log queue).">
<polygon fill="white" stroke="#666666" points="723.88,-210 614.12,-210 614.12,-190 723.88,-190 723.88,-210"/>
<text text-anchor="middle" x="669" y="-196.5" font-family="Helvetica,sans-Serif" font-size="10.00">AELogger::stopWriter</text>
</a>
</g>
</g>
<!-- Node14&#45;&gt;Node16 -->
<g id="edge21_Node000014_Node000016" class="edge">
<title>Node14&#45;&gt;Node16</title>
<g id="a_edge21_Node000014_Node000016"><a xlink:title=" ">
<path fill="none" stroke="#63b8ff" d="M818.99,-260.6C796.85,-249.78 766.15,-235.27 738.5,-224 726.71,-219.2 713.57,-214.45 701.96,-210.46"/>
<polygon fill="#63b8ff" stroke="#63b8ff" points="817.24,-263.64 827.75,-264.92 820.33,-257.36 817.24,-263.64"/>
</a>
</g>
</g>
<!-- Node17 -->
<g id="Node000017" class="node">
<title>Node17</title>
<g id="a_Node000017"><a xlink:href="../../d8/dfc/class_a_e_logger.html#a42debdcd6da993064afc1f4d2357ecfb" target="_top" xlink:title="Writes the current status of the file logger instance (file name, and entries written).">
<polygon fill="white" stroke="#666666" points="725.75,-362 612.25,-362 612.25,-342 725.75,-342 725.75,-362"/>
<text text-anchor="middle" x="669" y="-348.5" font-family="Helvetica,sans-Serif" font-size="10.00">AELogger::writeStatus</text>
</a>
</g>
</g>
<!-- Node14&#45;&gt;Node17 -->
<g id="edge23_Node000014_Node000017" class="edge">
<title>Node14&#45;&gt;Node17</title>
<g id="a_edge23_Node000014_Node000017"><a xlink:title=" ">
<path fill="none" stroke="#63b8ff" d="M784.37,-290C780.95,-291.5 777.64,-293.16 774.5,-295 754.43,-306.76 758.44,-321.01 738.5,-333 732.79,-336.43 726.44,-339.27 719.97,-341.6"/>
<polygon fill="#63b8ff" stroke="#63b8ff" points="785.38,-293.36 793.45,-286.5 782.86,-286.83 785.38,-293.36"/>
</a>
</g>
</g>
<!-- Node18 -->
<g id="Node000018" class="node">
<title>Node18</title>
<g id="a_Node000018"><a xlink:href="../../d8/dfc/class_a_e_logger.html#aa38725e74a352cd316126b32c614c12f" target="_top" xlink:title="Request a log entry to be written to the opened log file, using data from a log entry type.">
<polygon fill="white" stroke="#666666" points="724.62,-324 613.38,-324 613.38,-304 724.62,-304 724.62,-324"/>
<text text-anchor="middle" x="669" y="-310.5" font-family="Helvetica,sans-Serif" font-size="10.00">AELogger::writeToLog</text>
</a>
</g>
</g>
<!-- Node14&#45;&gt;Node18 -->
<g id="edge24_Node000014_Node000018" class="edge">
<title>Node14&#45;&gt;Node18</title>
<g id="a_edge24_Node000014_Node000018"><a xlink:title=" ">
<path fill="none" stroke="#63b8ff" d="M788.95,-288.85C766.32,-293.64 740.92,-299.01 719.43,-303.55"/>
<polygon fill="#63b8ff" stroke="#63b8ff" points="789.62,-292.29 798.68,-286.8 788.17,-285.44 789.62,-292.29"/>
</a>
</g>
</g>
<!-- Node19 -->
<g id="Node000019" class="node">
<title>Node19</title>
<g id="a_Node000019"><a xlink:href="../../d8/dfc/class_a_e_logger.html#a50dfd96a74d13471faebd4de499db5bf" target="_top" xlink:title="Request a debug log entry to be written to the opened log file.">
<polygon fill="white" stroke="#666666" points="738.5,-286 599.5,-286 599.5,-266 738.5,-266 738.5,-286"/>
<text text-anchor="middle" x="669" y="-272.5" font-family="Helvetica,sans-Serif" font-size="10.00">AELogger::writeToLogDebug</text>
</a>
</g>
</g>
<!-- Node14&#45;&gt;Node19 -->
<g id="edge25_Node000014_Node000019" class="edge">
<title>Node14&#45;&gt;Node19</title>
<g id="a_edge25_Node000014_Node000019"><a xlink:title=" ">
<path fill="none" stroke="#63b8ff" d="M783.42,-269.46C768.9,-269.2 753.49,-269.18 738.87,-269.42"/>
<polygon fill="#63b8ff" stroke="#63b8ff" points="783.25,-272.96 793.33,-269.69 783.41,-265.96 783.25,-272.96"/>
</a>
</g>
</g>
<!-- Node15&#45;&gt;Node9 -->
<g id="edge18_Node000015_Node000009" class="edge">
<title>Node15&#45;&gt;Node9</title>
<g id="a_edge18_Node000015_Node000009"><a xlink:title=" ">
<path fill="none" stroke="#63b8ff" d="M441.45,-414.82C422,-410.12 400.37,-404.89 381.99,-400.45"/>
<polygon fill="#63b8ff" stroke="#63b8ff" points="440.6,-418.21 451.14,-417.16 442.25,-411.41 440.6,-418.21"/>
</a>
</g>
</g>
<!-- Node16&#45;&gt;Node7 -->
<g id="edge22_Node000016_Node000007" class="edge">
<title>Node16&#45;&gt;Node7</title>
<g id="a_edge22_Node000016_Node000007"><a xlink:title=" ">
<path fill="none" stroke="#63b8ff" d="M602.35,-200C584.7,-200 565.87,-200 549.14,-200"/>
<polygon fill="#63b8ff" stroke="#63b8ff" points="602.23,-203.5 612.23,-200 602.23,-196.5 602.23,-203.5"/>
</a>
</g>
</g>
<!-- Node19&#45;&gt;Node14 -->
<g id="edge26_Node000019_Node000014" class="edge">
<title>Node19&#45;&gt;Node14</title>
<g id="a_edge26_Node000019_Node000014"><a xlink:title=" ">
<path fill="none" stroke="#63b8ff" d="M750.29,-282.72C765.35,-282.82 780.77,-282.68 794.84,-282.27"/>
<polygon fill="#63b8ff" stroke="#63b8ff" points="750.43,-279.22 740.39,-282.6 750.35,-286.22 750.43,-279.22"/>
</a>
</g>
</g>
<!-- Node20&#45;&gt;Node11 -->
<g id="edge29_Node000020_Node000011" class="edge">
<title>Node20&#45;&gt;Node11</title>
<g id="a_edge29_Node000020_Node000011"><a xlink:title=" ">
<path fill="none" stroke="#63b8ff" d="M966.65,-48C893.45,-48 773.47,-48 670,-48 670,-48 670,-48 496,-48 406.05,-48 302.27,-64.61 242.26,-75.87"/>
<polygon fill="#63b8ff" stroke="#63b8ff" points="966.48,-51.5 976.48,-48 966.48,-44.5 966.48,-51.5"/>
</a>
</g>
</g>
<!-- Node21 -->
<g id="Node000021" class="node">
<title>Node21</title>
<g id="a_Node000021"><a xlink:href="../../db/d15/class_a_e_file_writer.html#aab3c5167d1f6945e4846540b5417a57f" target="_top" xlink:title="Class constructor – creates the AEFileWriter instance and opens the file.">
<polygon fill="white" stroke="#666666" points="917.25,-20 784.25,-20 784.25,0 917.25,0 917.25,-20"/>
<text text-anchor="middle" x="850.75" y="-6.5" font-family="Helvetica,sans-Serif" font-size="10.00">AEFileWriter::AEFileWriter</text>
</a>
</g>
</g>
<!-- Node20&#45;&gt;Node21 -->
<g id="edge28_Node000020_Node000021" class="edge">
<title>Node20&#45;&gt;Node21</title>
<g id="a_edge28_Node000020_Node000021"><a xlink:title=" ">
<path fill="none" stroke="#63b8ff" d="M973,-35.21C949.91,-30.41 923.96,-25.01 902.01,-20.45"/>
<polygon fill="#63b8ff" stroke="#63b8ff" points="972.09,-38.6 982.6,-37.21 973.52,-31.75 972.09,-38.6"/>
</a>
</g>
</g>
</g>
</svg>
