<?xml version="1.0" encoding="UTF-8" standalone="no"?>
<!DOCTYPE svg PUBLIC "-//W3C//DTD SVG 1.1//EN"
 "http://www.w3.org/Graphics/SVG/1.1/DTD/svg11.dtd">
<!-- Generated by graphviz version 10.0.1 (20240210.2158)
 -->
<!-- Title: AEFileWriter::getFullFileName Pages: 1 -->
<!--zoomable 123 -->

<svg id="main" version="1.1" xmlns="http://www.w3.org/2000/svg" xmlns:xlink="http://www.w3.org/1999/xlink" xml:space="preserve" onload="init(evt)">
<style type="text/css"><![CDATA[
.node, .edge {opacity: 0.7;}
.node.selected, .edge.selected {opacity: 1;}
.edge:hover path { stroke: red; }
.edge:hover polygon { stroke: red; fill: red; }
]]></style>

<defs>
  <circle id="rim" cx="0" cy="0" r="7"/>
  <circle id="rim2" cx="0" cy="0" r="3.5"/>
  <g id="zoomPlus">
    <use xlink:href="#rim" fill="#404040"><set attributeName="fill" to="#808080" begin="zoomplus.mouseover" end="zoomplus.mouseout"/></use>
    <path d="M-4,0h8M0,-4v8" fill="none" stroke="white" stroke-width="1.5" pointer-events="none"/>
  </g>
  <g id="zoomMin">
    <use xlink:href="#rim" fill="#404040"><set attributeName="fill" to="#808080" begin="zoomminus.mouseover" end="zoomminus.mouseout"/></use>
    <path d="M-4,0h8" fill="none" stroke="white" stroke-width="1.5" pointer-events="none"/>
  </g>
  <g id="arrowUp" transform="translate(30 24)">
    <use xlink:href="#rim"/>
    <path pointer-events="none" fill="none" stroke="white" stroke-width="1.5" d="M0,-3.0v7 M-2.5,-0.5L0,-3.0L2.5,-0.5"/>
  </g>
  <g id="arrowRight" transform="rotate(90) translate(36 -43)">
    <use xlink:href="#rim"/>
    <path pointer-events="none" fill="none" stroke="white" stroke-width="1.5" d="M0,-3.0v7 M-2.5,-0.5L0,-3.0L2.5,-0.5"/>
  </g>
  <g id="arrowDown" transform="rotate(180) translate(-30 -48)">
    <use xlink:href="#rim"/>
    <path pointer-events="none" fill="none" stroke="white" stroke-width="1.5" d="M0,-3.0v7 M-2.5,-0.5L0,-3.0L2.5,-0.5"/>
  </g>
  <g id="arrowLeft" transform="rotate(270) translate(-36 17)">
    <use xlink:href="#rim"/>
    <path pointer-events="none" fill="none" stroke="white" stroke-width="1.5" d="M0,-3.0v7 M-2.5,-0.5L0,-3.0L2.5,-0.5"/>
  </g>
  <g id="resetDef">
    <use xlink:href="#rim2" fill="#404040"><set attributeName="fill" to="#808080" begin="reset.mouseover" end="reset.mouseout"/></use>
  </g>
</defs>
<script type="application/ecmascript">
var viewWidth = 742;
var viewHeight = 123;
var sectionId = 'dynsection-25';
</script>
<script type="application/ecmascript" xlink:href="../../svg.min.js"/>
<svg id="graph" class="graph">
<g id="viewport">
<title>AEFileWriter::getFullFileName</title>
<!-- Node1 -->
<g id="Node000001" class="node">
<title>Node1</title>
<g id="a_Node000001"><a xlink:title="Returns the full name of currently open file, including the relative path, if such was provided.">
<polygon fill="#999999" stroke="#666666" points="734,-58 586,-58 586,-38 734,-38 734,-58"/>
<text text-anchor="middle" x="660" y="-44.5" font-family="Helvetica,sans-Serif" font-size="10.00">AEFileWriter::getFullFileName</text>
</a>
</g>
</g>
<!-- Node2 -->
<g id="Node000002" class="node">
<title>Node2</title>
<g id="a_Node000002"><a xlink:href="../../d8/dfc/class_a_e_logger.html#a2f64d8f5de2f249f7cb973a82ec1e48a" target="_top" xlink:title="Close the file, if it was opened.">
<polygon fill="white" stroke="#666666" points="542.12,-96 438.38,-96 438.38,-76 542.12,-76 542.12,-96"/>
<text text-anchor="middle" x="490.25" y="-82.5" font-family="Helvetica,sans-Serif" font-size="10.00">AELogger::closeLog</text>
</a>
</g>
</g>
<!-- Node1&#45;&gt;Node2 -->
<g id="edge1_Node000001_Node000002" class="edge">
<title>Node1&#45;&gt;Node2</title>
<g id="a_edge1_Node000001_Node000002"><a xlink:title=" ">
<path fill="none" stroke="#63b8ff" d="M601.68,-60.98C580.7,-65.74 557.26,-71.05 537.38,-75.55"/>
<polygon fill="#63b8ff" stroke="#63b8ff" points="602.26,-64.44 611.24,-58.82 600.72,-57.61 602.26,-64.44"/>
</a>
</g>
</g>
<!-- Node9 -->
<g id="Node000009" class="node">
<title>Node9</title>
<g id="a_Node000009"><a xlink:href="../../d8/dfc/class_a_e_logger.html#a969fd219869803f0d6e52a4b37c0b38f" target="_top" xlink:title="Get the name of the log file.">
<polygon fill="white" stroke="#666666" points="550,-58 430.5,-58 430.5,-38 550,-38 550,-58"/>
<text text-anchor="middle" x="490.25" y="-44.5" font-family="Helvetica,sans-Serif" font-size="10.00">AELogger::getLogName</text>
</a>
</g>
</g>
<!-- Node1&#45;&gt;Node9 -->
<g id="edge8_Node000001_Node000009" class="edge">
<title>Node1&#45;&gt;Node9</title>
<g id="a_edge8_Node000001_Node000009"><a xlink:title=" ">
<path fill="none" stroke="#63b8ff" d="M574.4,-48C566.24,-48 558.08,-48 550.25,-48"/>
<polygon fill="#63b8ff" stroke="#63b8ff" points="574.4,-51.5 584.4,-48 574.4,-44.5 574.4,-51.5"/>
</a>
</g>
</g>
<!-- Node10 -->
<g id="Node000010" class="node">
<title>Node10</title>
<g id="a_Node000010"><a xlink:href="../../d8/dfc/class_a_e_logger.html#a42debdcd6da993064afc1f4d2357ecfb" target="_top" xlink:title="Writes the current status of the file logger instance (file name, and entries written).">
<polygon fill="white" stroke="#666666" points="547,-20 433.5,-20 433.5,0 547,0 547,-20"/>
<text text-anchor="middle" x="490.25" y="-6.5" font-family="Helvetica,sans-Serif" font-size="10.00">AELogger::writeStatus</text>
</a>
</g>
</g>
<!-- Node1&#45;&gt;Node10 -->
<g id="edge9_Node000001_Node000010" class="edge">
<title>Node1&#45;&gt;Node10</title>
<g id="a_edge9_Node000001_Node000010"><a xlink:title=" ">
<path fill="none" stroke="#63b8ff" d="M601.68,-35.02C580.7,-30.26 557.26,-24.95 537.38,-20.45"/>
<polygon fill="#63b8ff" stroke="#63b8ff" points="600.72,-38.39 611.24,-37.18 602.26,-31.56 600.72,-38.39"/>
</a>
</g>
</g>
<!-- Node3 -->
<g id="Node000003" class="node">
<title>Node3</title>
<g id="a_Node000003"><a xlink:href="../../d8/dfc/class_a_e_logger.html#a4b6c6a8134c8f7f24db7d3f35d62624d" target="_top" xlink:title="Class destructor.">
<polygon fill="white" stroke="#666666" points="394.5,-115 281,-115 281,-95 394.5,-95 394.5,-115"/>
<text text-anchor="middle" x="337.75" y="-101.5" font-family="Helvetica,sans-Serif" font-size="10.00">AELogger::~AELogger</text>
</a>
</g>
</g>
<!-- Node2&#45;&gt;Node3 -->
<g id="edge2_Node000002_Node000003" class="edge">
<title>Node2&#45;&gt;Node3</title>
<g id="a_edge2_Node000002_Node000003"><a xlink:title=" ">
<path fill="none" stroke="#63b8ff" d="M426.6,-93.91C416.05,-95.24 405.16,-96.62 394.79,-97.93"/>
<polygon fill="#63b8ff" stroke="#63b8ff" points="426.89,-97.4 436.38,-92.68 426.02,-90.46 426.89,-97.4"/>
</a>
</g>
</g>
<!-- Node4 -->
<g id="Node000004" class="node">
<title>Node4</title>
<g id="a_Node000004"><a xlink:href="../../d8/dfc/class_a_e_logger.html#a284034896688215f7e87242764c5985d" target="_top" xlink:title="Starts the log&#45;writing thread.">
<polygon fill="white" stroke="#666666" points="393,-77 282.5,-77 282.5,-57 393,-57 393,-77"/>
<text text-anchor="middle" x="337.75" y="-63.5" font-family="Helvetica,sans-Serif" font-size="10.00">AELogger::startWriter</text>
</a>
</g>
</g>
<!-- Node2&#45;&gt;Node4 -->
<g id="edge3_Node000002_Node000004" class="edge">
<title>Node2&#45;&gt;Node4</title>
<g id="a_edge3_Node000002_Node000004"><a xlink:title=" ">
<path fill="none" stroke="#63b8ff" d="M426.6,-78.09C415.61,-76.7 404.25,-75.27 393.49,-73.91"/>
<polygon fill="#63b8ff" stroke="#63b8ff" points="426.02,-81.54 436.38,-79.32 426.89,-74.6 426.02,-81.54"/>
</a>
</g>
</g>
<!-- Node5 -->
<g id="Node000005" class="node">
<title>Node5</title>
<g id="a_Node000005"><a xlink:href="../../d8/dfc/class_a_e_logger.html#a134f36542cb09532588436c53df9653d" target="_top" xlink:title="Class constructor – it opens the file with the given path and name and start logging to it.">
<polygon fill="white" stroke="#666666" points="245,-96 137.5,-96 137.5,-76 245,-76 245,-96"/>
<text text-anchor="middle" x="191.25" y="-82.5" font-family="Helvetica,sans-Serif" font-size="10.00">AELogger::AELogger</text>
</a>
</g>
</g>
<!-- Node4&#45;&gt;Node5 -->
<g id="edge4_Node000004_Node000005" class="edge">
<title>Node4&#45;&gt;Node5</title>
<g id="a_edge4_Node000004_Node000005"><a xlink:title=" ">
<path fill="none" stroke="#63b8ff" d="M270.86,-75.66C262.21,-76.8 253.44,-77.95 245.04,-79.06"/>
<polygon fill="#63b8ff" stroke="#63b8ff" points="271.16,-79.15 280.62,-74.38 270.25,-72.21 271.16,-79.15"/>
</a>
</g>
</g>
<!-- Node6 -->
<g id="Node000006" class="node">
<title>Node6</title>
<g id="a_Node000006"><a xlink:href="../../d8/dfc/class_a_e_logger.html#a53b588f9874535299d612a4c71de9950" target="_top" xlink:title="Open the file to start logging.">
<polygon fill="white" stroke="#666666" points="242,-58 140.5,-58 140.5,-38 242,-38 242,-58"/>
<text text-anchor="middle" x="191.25" y="-44.5" font-family="Helvetica,sans-Serif" font-size="10.00">AELogger::openLog</text>
</a>
</g>
</g>
<!-- Node4&#45;&gt;Node6 -->
<g id="edge5_Node000004_Node000006" class="edge">
<title>Node4&#45;&gt;Node6</title>
<g id="a_edge5_Node000004_Node000006"><a xlink:title=" ">
<path fill="none" stroke="#63b8ff" d="M270.91,-58.34C261.26,-57.07 251.46,-55.79 242.2,-54.57"/>
<polygon fill="#63b8ff" stroke="#63b8ff" points="270.25,-61.79 280.62,-59.62 271.16,-54.85 270.25,-61.79"/>
</a>
</g>
</g>
<!-- Node7 -->
<g id="Node000007" class="node">
<title>Node7</title>
<g id="a_Node000007"><a xlink:href="../../d8/dfc/class_a_e_logger.html#ac8f55a9e3c92557ea3d92974093ff6fb" target="_top" xlink:title="Open the file to start logging.">
<polygon fill="white" stroke="#666666" points="101.5,-77 0,-77 0,-57 101.5,-57 101.5,-77"/>
<text text-anchor="middle" x="50.75" y="-63.5" font-family="Helvetica,sans-Serif" font-size="10.00">AELogger::openLog</text>
</a>
</g>
</g>
<!-- Node6&#45;&gt;Node7 -->
<g id="edge6_Node000006_Node000007" class="edge">
<title>Node6&#45;&gt;Node7</title>
<g id="a_edge6_Node000006_Node000007"><a xlink:title=" ">
<path fill="none" stroke="#63b8ff" d="M128.87,-56.42C119.78,-57.67 110.5,-58.94 101.68,-60.15"/>
<polygon fill="#63b8ff" stroke="#63b8ff" points="129.32,-59.89 138.75,-55.07 128.37,-52.96 129.32,-59.89"/>
</a>
</g>
</g>
<!-- Node8 -->
<g id="Node000008" class="node">
<title>Node8</title>
<g id="a_Node000008"><a xlink:href="../../d8/dfc/class_a_e_logger.html#acbfddb2d8f459f32ce58d7c06cc2ddaa" target="_top" xlink:title="Open the file to start logging.">
<polygon fill="white" stroke="#666666" points="101.5,-39 0,-39 0,-19 101.5,-19 101.5,-39"/>
<text text-anchor="middle" x="50.75" y="-25.5" font-family="Helvetica,sans-Serif" font-size="10.00">AELogger::openLog</text>
</a>
</g>
</g>
<!-- Node6&#45;&gt;Node8 -->
<g id="edge7_Node000006_Node000008" class="edge">
<title>Node6&#45;&gt;Node8</title>
<g id="a_edge7_Node000006_Node000008"><a xlink:title=" ">
<path fill="none" stroke="#63b8ff" d="M128.87,-39.58C119.78,-38.33 110.5,-37.06 101.68,-35.85"/>
<polygon fill="#63b8ff" stroke="#63b8ff" points="128.37,-43.04 138.75,-40.93 129.32,-36.11 128.37,-43.04"/>
</a>
</g>
</g>
</g>
</svg>

<g id="navigator" transform="translate(0 0)" fill="#404254">
  <rect fill="#f2f5e9" fill-opacity="0.5" stroke="#606060" stroke-width=".5" x="0" y="0" width="60" height="60"/>
  <use id="zoomplus" xlink:href="#zoomPlus" x="17" y="9" onmousedown="handleZoom(evt,'in')"/>
  <use id="zoomminus" xlink:href="#zoomMin" x="42" y="9" onmousedown="handleZoom(evt,'out')"/>
  <use id="reset" xlink:href="#resetDef" x="30" y="36" onmousedown="handleReset()"/>
   <use id="arrowup" xlink:href="#arrowUp" x="0" y="0" onmousedown="handlePan(0,-1)"/>
  <use id="arrowright" xlink:href="#arrowRight" x="0" y="0" onmousedown="handlePan(1,0)"/>
  <use id="arrowdown" xlink:href="#arrowDown" x="0" y="0" onmousedown="handlePan(0,1)"/>
  <use id="arrowleft" xlink:href="#arrowLeft" x="0" y="0" onmousedown="handlePan(-1,0)"/>
</g>
<svg viewBox="0 0 15 15" width="100%" height="30px" preserveAspectRatio="xMaxYMin meet">
 <g id="arrow_out" transform="scale(0.3 0.3)">
  <a xlink:href="class_a_e_file_writer_a26ea7c97bfdbed142df1863d8d47d895_icgraph_org.svg" target="_base">
   <rect id="button" ry="5" rx="5" y="6" x="6" height="38" width="38"
        fill="#f2f5e9" fill-opacity="0.5" stroke="#606060" stroke-width="1.0"/>
   <path id="arrow"
     d="M 11.500037,31.436501 C 11.940474,20.09759 22.043105,11.32322 32.158766,21.979434 L 37.068811,17.246167 C 37.068811,17.246167 37.088388,32 37.088388,32 L 22.160133,31.978069 C 22.160133,31.978069 26.997745,27.140456 26.997745,27.140456 C 18.528582,18.264221 13.291696,25.230495 11.500037,31.436501 z"
     style="fill:#404040;"/>
  </a>
 </g>
</svg>

<style type='text/css'>
<![CDATA[
[data-mouse-over-selected='false'] { opacity: 0.7; }
[data-mouse-over-selected='true']  { opacity: 1.0; }
]]>
</style>
<script type="application/ecmascript"><![CDATA[
document.addEventListener('DOMContentLoaded', (event) => {
  highlightEdges();
  highlightAdjacentNodes();
});
]]></script>
</svg>
