<?xml version="1.0" encoding="UTF-8" standalone="no"?>
<!DOCTYPE svg PUBLIC "-//W3C//DTD SVG 1.1//EN"
 "http://www.w3.org/Graphics/SVG/1.1/DTD/svg11.dtd">
<!-- Generated by graphviz version 10.0.1 (20240210.2158)
 -->
<!-- Title: AEFileWriter::AEFileWriter Pages: 1 -->
<svg width="587pt" height="85pt"
 viewBox="0.00 0.00 586.50 85.00" xmlns="http://www.w3.org/2000/svg" xmlns:xlink="http://www.w3.org/1999/xlink">
<g id="graph0" class="graph" transform="scale(1 1) rotate(0) translate(4 81)">
<title>AEFileWriter::AEFileWriter</title>
<!-- Node1 -->
<g id="Node000001" class="node">
<title>Node1</title>
<g id="a_Node000001"><a xlink:title="Class constructor – creates the AEFileWriter instance and opens the file.">
<polygon fill="#999999" stroke="#666666" points="133,-39 0,-39 0,-19 133,-19 133,-39"/>
<text text-anchor="middle" x="66.5" y="-25.5" font-family="Helvetica,sans-Serif" font-size="10.00">AEFileWriter::AEFileWriter</text>
</a>
</g>
</g>
<!-- Node2 -->
<g id="Node000002" class="node">
<title>Node2</title>
<g id="a_Node000002"><a xlink:href="../../db/d15/class_a_e_file_writer.html#a939fe602eecb15ba71448a9de13bb2c0" target="_top" xlink:title="Open(and create) file with given name and flag.">
<polygon fill="white" stroke="#666666" points="283.25,-39 169,-39 169,-19 283.25,-19 283.25,-39"/>
<text text-anchor="middle" x="226.12" y="-25.5" font-family="Helvetica,sans-Serif" font-size="10.00">AEFileWriter::openFile</text>
</a>
</g>
</g>
<!-- Node1&#45;&gt;Node2 -->
<g id="edge1_Node000001_Node000002" class="edge">
<title>Node1&#45;&gt;Node2</title>
<g id="a_edge1_Node000001_Node000002"><a xlink:title=" ">
<path fill="none" stroke="#63b8ff" d="M133.43,-29C141.37,-29 149.48,-29 157.44,-29"/>
<polygon fill="#63b8ff" stroke="#63b8ff" points="157.44,-32.5 167.44,-29 157.44,-25.5 157.44,-32.5"/>
</a>
</g>
</g>
<!-- Node3 -->
<g id="Node000003" class="node">
<title>Node3</title>
<g id="a_Node000003"><a xlink:href="../../de/dde/namespaceace_1_1utils.html#a6eb2322353edc04f78dbc3589e60d98c" target="_top" xlink:title="A wrapper to make the proper cross&#45;compiler version of fopen().">
<polygon fill="white" stroke="#666666" points="426,-77 327.5,-77 327.5,-57 426,-57 426,-77"/>
<text text-anchor="middle" x="376.75" y="-63.5" font-family="Helvetica,sans-Serif" font-size="10.00">ace::utils::fopenCC</text>
</a>
</g>
</g>
<!-- Node2&#45;&gt;Node3 -->
<g id="edge2_Node000002_Node000003" class="edge">
<title>Node2&#45;&gt;Node3</title>
<g id="a_edge2_Node000002_Node000003"><a xlink:title=" ">
<path fill="none" stroke="#63b8ff" d="M268.13,-39.48C285.35,-43.89 305.58,-49.06 323.82,-53.72"/>
<polygon fill="#63b8ff" stroke="#63b8ff" points="322.86,-57.09 333.41,-56.18 324.59,-50.31 322.86,-57.09"/>
</a>
</g>
</g>
<!-- Node4 -->
<g id="Node000004" class="node">
<title>Node4</title>
<g id="a_Node000004"><a xlink:href="../../db/d15/class_a_e_file_writer.html#a0743145db01b527ae9612f359e5c0090" target="_top" xlink:title="Checks if a file isn&#39;t open by this file&#45;writer.">
<polygon fill="white" stroke="#666666" points="434.25,-39 319.25,-39 319.25,-19 434.25,-19 434.25,-39"/>
<text text-anchor="middle" x="376.75" y="-25.5" font-family="Helvetica,sans-Serif" font-size="10.00">AEFileWriter::isClosed</text>
</a>
</g>
</g>
<!-- Node2&#45;&gt;Node4 -->
<g id="edge3_Node000002_Node000004" class="edge">
<title>Node2&#45;&gt;Node4</title>
<g id="a_edge3_Node000002_Node000004"><a xlink:title=" ">
<path fill="none" stroke="#63b8ff" d="M283.74,-29C291.45,-29 299.44,-29 307.34,-29"/>
<polygon fill="#63b8ff" stroke="#63b8ff" points="307.29,-32.5 317.29,-29 307.29,-25.5 307.29,-32.5"/>
</a>
</g>
</g>
<!-- Node5 -->
<g id="Node000005" class="node">
<title>Node5</title>
<g id="a_Node000005"><a xlink:href="../../db/d15/class_a_e_file_writer.html#a47e3c08c276394bce7b612331cf4762d" target="_top" xlink:title="Checks if a file is open by this file&#45;writer.">
<polygon fill="white" stroke="#666666" points="578.5,-20 470.25,-20 470.25,0 578.5,0 578.5,-20"/>
<text text-anchor="middle" x="524.38" y="-6.5" font-family="Helvetica,sans-Serif" font-size="10.00">AEFileWriter::isOpen</text>
</a>
</g>
</g>
<!-- Node2&#45;&gt;Node5 -->
<g id="edge5_Node000002_Node000005" class="edge">
<title>Node2&#45;&gt;Node5</title>
<g id="a_edge5_Node000002_Node000005"><a xlink:title=" ">
<path fill="none" stroke="#63b8ff" d="M268.58,-18.58C284.33,-15.12 302.52,-11.71 319.25,-10 365.72,-5.26 418.44,-5.4 458.67,-6.65"/>
<polygon fill="#63b8ff" stroke="#63b8ff" points="458.3,-10.14 468.42,-6.99 458.54,-3.15 458.3,-10.14"/>
</a>
</g>
</g>
<!-- Node4&#45;&gt;Node5 -->
<g id="edge4_Node000004_Node000005" class="edge">
<title>Node4&#45;&gt;Node5</title>
<g id="a_edge4_Node000004_Node000005"><a xlink:title=" ">
<path fill="none" stroke="#63b8ff" d="M434.47,-21.6C442.39,-20.57 450.59,-19.5 458.65,-18.45"/>
<polygon fill="#63b8ff" stroke="#63b8ff" points="458.94,-21.94 468.41,-17.17 458.04,-14.99 458.94,-21.94"/>
</a>
</g>
</g>
</g>
</svg>
