<?xml version="1.0" encoding="UTF-8" standalone="no"?>
<!DOCTYPE svg PUBLIC "-//W3C//DTD SVG 1.1//EN"
 "http://www.w3.org/Graphics/SVG/1.1/DTD/svg11.dtd">
<!-- Generated by graphviz version 10.0.1 (20240210.2158)
 -->
<!-- Title: AEFileWriter::openFile Pages: 1 -->
<svg width="418pt" height="85pt"
 viewBox="0.00 0.00 417.50 85.00" xmlns="http://www.w3.org/2000/svg" xmlns:xlink="http://www.w3.org/1999/xlink">
<g id="graph0" class="graph" transform="scale(1 1) rotate(0) translate(4 81)">
<title>AEFileWriter::openFile</title>
<!-- Node1 -->
<g id="Node000001" class="node">
<title>Node1</title>
<g id="a_Node000001"><a xlink:title="Open(and create) file with given name and flag.">
<polygon fill="#999999" stroke="#666666" points="114.25,-39 0,-39 0,-19 114.25,-19 114.25,-39"/>
<text text-anchor="middle" x="57.12" y="-25.5" font-family="Helvetica,sans-Serif" font-size="10.00">AEFileWriter::openFile</text>
</a>
</g>
</g>
<!-- Node2 -->
<g id="Node000002" class="node">
<title>Node2</title>
<g id="a_Node000002"><a xlink:href="../../de/dde/namespaceace_1_1utils.html#a6eb2322353edc04f78dbc3589e60d98c" target="_top" xlink:title="A wrapper to make the proper cross&#45;compiler version of fopen().">
<polygon fill="white" stroke="#666666" points="257,-77 158.5,-77 158.5,-57 257,-57 257,-77"/>
<text text-anchor="middle" x="207.75" y="-63.5" font-family="Helvetica,sans-Serif" font-size="10.00">ace::utils::fopenCC</text>
</a>
</g>
</g>
<!-- Node1&#45;&gt;Node2 -->
<g id="edge1_Node000001_Node000002" class="edge">
<title>Node1&#45;&gt;Node2</title>
<g id="a_edge1_Node000001_Node000002"><a xlink:title=" ">
<path fill="none" stroke="#63b8ff" d="M99.13,-39.48C116.35,-43.89 136.58,-49.06 154.82,-53.72"/>
<polygon fill="#63b8ff" stroke="#63b8ff" points="153.86,-57.09 164.41,-56.18 155.59,-50.31 153.86,-57.09"/>
</a>
</g>
</g>
<!-- Node3 -->
<g id="Node000003" class="node">
<title>Node3</title>
<g id="a_Node000003"><a xlink:href="../../db/d15/class_a_e_file_writer.html#a0743145db01b527ae9612f359e5c0090" target="_top" xlink:title="Checks if a file isn&#39;t open by this file&#45;writer.">
<polygon fill="white" stroke="#666666" points="265.25,-39 150.25,-39 150.25,-19 265.25,-19 265.25,-39"/>
<text text-anchor="middle" x="207.75" y="-25.5" font-family="Helvetica,sans-Serif" font-size="10.00">AEFileWriter::isClosed</text>
</a>
</g>
</g>
<!-- Node1&#45;&gt;Node3 -->
<g id="edge2_Node000001_Node000003" class="edge">
<title>Node1&#45;&gt;Node3</title>
<g id="a_edge2_Node000001_Node000003"><a xlink:title=" ">
<path fill="none" stroke="#63b8ff" d="M114.74,-29C122.45,-29 130.44,-29 138.34,-29"/>
<polygon fill="#63b8ff" stroke="#63b8ff" points="138.29,-32.5 148.29,-29 138.29,-25.5 138.29,-32.5"/>
</a>
</g>
</g>
<!-- Node4 -->
<g id="Node000004" class="node">
<title>Node4</title>
<g id="a_Node000004"><a xlink:href="../../db/d15/class_a_e_file_writer.html#a47e3c08c276394bce7b612331cf4762d" target="_top" xlink:title="Checks if a file is open by this file&#45;writer.">
<polygon fill="white" stroke="#666666" points="409.5,-20 301.25,-20 301.25,0 409.5,0 409.5,-20"/>
<text text-anchor="middle" x="355.38" y="-6.5" font-family="Helvetica,sans-Serif" font-size="10.00">AEFileWriter::isOpen</text>
</a>
</g>
</g>
<!-- Node1&#45;&gt;Node4 -->
<g id="edge4_Node000001_Node000004" class="edge">
<title>Node1&#45;&gt;Node4</title>
<g id="a_edge4_Node000001_Node000004"><a xlink:title=" ">
<path fill="none" stroke="#63b8ff" d="M99.58,-18.58C115.33,-15.12 133.52,-11.71 150.25,-10 196.72,-5.26 249.44,-5.4 289.67,-6.65"/>
<polygon fill="#63b8ff" stroke="#63b8ff" points="289.3,-10.14 299.42,-6.99 289.54,-3.15 289.3,-10.14"/>
</a>
</g>
</g>
<!-- Node3&#45;&gt;Node4 -->
<g id="edge3_Node000003_Node000004" class="edge">
<title>Node3&#45;&gt;Node4</title>
<g id="a_edge3_Node000003_Node000004"><a xlink:title=" ">
<path fill="none" stroke="#63b8ff" d="M265.47,-21.6C273.39,-20.57 281.59,-19.5 289.65,-18.45"/>
<polygon fill="#63b8ff" stroke="#63b8ff" points="289.94,-21.94 299.41,-17.17 289.04,-14.99 289.94,-21.94"/>
</a>
</g>
</g>
</g>
</svg>
