<?xml version="1.0" encoding="UTF-8" standalone="no"?>
<!DOCTYPE svg PUBLIC "-//W3C//DTD SVG 1.1//EN"
 "http://www.w3.org/Graphics/SVG/1.1/DTD/svg11.dtd">
<!-- Generated by graphviz version 10.0.1 (20240210.2158)
 -->
<!-- Title: AEFileWriter::writeData_ptr Pages: 1 -->
<svg width="1062pt" height="351pt"
 viewBox="0.00 0.00 1062.00 351.00" xmlns="http://www.w3.org/2000/svg" xmlns:xlink="http://www.w3.org/1999/xlink">
<g id="graph0" class="graph" transform="scale(1 1) rotate(0) translate(4 347)">
<title>AEFileWriter::writeData_ptr</title>
<!-- Node1 -->
<g id="Node000001" class="node">
<title>Node1</title>
<g id="a_Node000001"><a xlink:title="Write binary data, as is, to file, and flush if necessary.">
<polygon fill="#999999" stroke="#666666" points="1054,-172 919.5,-172 919.5,-152 1054,-152 1054,-172"/>
<text text-anchor="middle" x="986.75" y="-158.5" font-family="Helvetica,sans-Serif" font-size="10.00">AEFileWriter::writeData_ptr</text>
</a>
</g>
</g>
<!-- Node2 -->
<g id="Node000002" class="node">
<title>Node2</title>
<g id="a_Node000002"><a xlink:href="../../d8/dfc/class_a_e_logger.html#a5938787b6933f4b96ebff10643bd2497" target="_top" xlink:title="The function of the log writing thread to...read the entries, format them, write them,...">
<polygon fill="white" stroke="#666666" points="703.25,-324 570.25,-324 570.25,-304 703.25,-304 703.25,-324"/>
<text text-anchor="middle" x="636.75" y="-310.5" font-family="Helvetica,sans-Serif" font-size="10.00">AELogger::logWriterThread</text>
</a>
</g>
</g>
<!-- Node1&#45;&gt;Node2 -->
<g id="edge1_Node000001_Node000002" class="edge">
<title>Node1&#45;&gt;Node2</title>
<g id="a_edge1_Node000001_Node000002"><a xlink:title=" ">
<path fill="none" stroke="#63b8ff" d="M976.69,-182.7C962.05,-213.32 930.06,-269.79 883.5,-295 828.28,-324.9 755.61,-326.76 703.65,-322.91"/>
<polygon fill="#63b8ff" stroke="#63b8ff" points="979.82,-184.27 980.81,-173.72 973.46,-181.35 979.82,-184.27"/>
</a>
</g>
</g>
<!-- Node8 -->
<g id="Node000008" class="node">
<title>Node8</title>
<g id="a_Node000008"><a xlink:href="../../db/d15/class_a_e_file_writer.html#a3c2588040871b8104b0b7c89c44994c4" target="_top" xlink:title="Writes one byte of data to the file.">
<polygon fill="white" stroke="#666666" points="870.38,-248 752.38,-248 752.38,-228 870.38,-228 870.38,-248"/>
<text text-anchor="middle" x="811.38" y="-234.5" font-family="Helvetica,sans-Serif" font-size="10.00">AEFileWriter::writeByte</text>
</a>
</g>
</g>
<!-- Node1&#45;&gt;Node8 -->
<g id="edge7_Node000001_Node000008" class="edge">
<title>Node1&#45;&gt;Node8</title>
<g id="a_edge7_Node000001_Node000008"><a xlink:title=" ">
<path fill="none" stroke="#63b8ff" d="M960.41,-178.46C940.24,-190.98 910.93,-207.89 883.5,-219 875.44,-222.26 866.65,-225.13 858.08,-227.59"/>
<polygon fill="#63b8ff" stroke="#63b8ff" points="962.2,-181.47 968.79,-173.17 958.47,-175.55 962.2,-181.47"/>
</a>
</g>
</g>
<!-- Node10 -->
<g id="Node000010" class="node">
<title>Node10</title>
<g id="a_Node000010"><a xlink:href="../../db/d15/class_a_e_file_writer.html#a43fb25b4c3d10b6c50d302414ab3e6af" target="_top" xlink:title="Write a stream of bytes to file, from std::vector&lt;unsigned char&gt;.">
<polygon fill="white" stroke="#666666" points="873,-210 749.75,-210 749.75,-190 873,-190 873,-210"/>
<text text-anchor="middle" x="811.38" y="-196.5" font-family="Helvetica,sans-Serif" font-size="10.00">AEFileWriter::writeBytes</text>
</a>
</g>
</g>
<!-- Node1&#45;&gt;Node10 -->
<g id="edge9_Node000001_Node000010" class="edge">
<title>Node1&#45;&gt;Node10</title>
<g id="a_edge9_Node000001_Node000010"><a xlink:title=" ">
<path fill="none" stroke="#63b8ff" d="M926.81,-174.92C905.05,-179.69 880.69,-185.03 860.05,-189.55"/>
<polygon fill="#63b8ff" stroke="#63b8ff" points="927.42,-178.37 936.44,-172.81 925.92,-171.53 927.42,-178.37"/>
</a>
</g>
</g>
<!-- Node11 -->
<g id="Node000011" class="node">
<title>Node11</title>
<g id="a_Node000011"><a xlink:href="../../db/d15/class_a_e_file_writer.html#ae40e662f5b17115e9af9ae45db99cb53" target="_top" xlink:title="Write a stream of bytes to file, from pointer.">
<polygon fill="white" stroke="#666666" points="873,-172 749.75,-172 749.75,-152 873,-152 873,-172"/>
<text text-anchor="middle" x="811.38" y="-158.5" font-family="Helvetica,sans-Serif" font-size="10.00">AEFileWriter::writeBytes</text>
</a>
</g>
</g>
<!-- Node1&#45;&gt;Node11 -->
<g id="edge10_Node000001_Node000011" class="edge">
<title>Node1&#45;&gt;Node11</title>
<g id="a_edge10_Node000001_Node000011"><a xlink:title=" ">
<path fill="none" stroke="#63b8ff" d="M907.77,-162C896.22,-162 884.47,-162 873.33,-162"/>
<polygon fill="#63b8ff" stroke="#63b8ff" points="907.7,-165.5 917.7,-162 907.7,-158.5 907.7,-165.5"/>
</a>
</g>
</g>
<!-- Node12 -->
<g id="Node000012" class="node">
<title>Node12</title>
<g id="a_Node000012"><a xlink:href="../../db/d15/class_a_e_file_writer.html#a536b6f9b0f79287e2da9166e3d5f37cb" target="_top" xlink:title="Write binary data, as is, to file, and flush if necessary.">
<polygon fill="white" stroke="#666666" points="878.25,-134 744.5,-134 744.5,-114 878.25,-114 878.25,-134"/>
<text text-anchor="middle" x="811.38" y="-120.5" font-family="Helvetica,sans-Serif" font-size="10.00">AEFileWriter::writeData_ref</text>
</a>
</g>
</g>
<!-- Node1&#45;&gt;Node12 -->
<g id="edge11_Node000001_Node000012" class="edge">
<title>Node1&#45;&gt;Node12</title>
<g id="a_edge11_Node000001_Node000012"><a xlink:title=" ">
<path fill="none" stroke="#63b8ff" d="M926.81,-149.08C905.05,-144.31 880.69,-138.97 860.05,-134.45"/>
<polygon fill="#63b8ff" stroke="#63b8ff" points="925.92,-152.47 936.44,-151.19 927.42,-145.63 925.92,-152.47"/>
</a>
</g>
</g>
<!-- Node13 -->
<g id="Node000013" class="node">
<title>Node13</title>
<g id="a_Node000013"><a xlink:href="../../db/d15/class_a_e_file_writer.html#a3812c23603d8d1c9dffd655cf2df24c4" target="_top" xlink:title="Write c&#45;string, as is, to file, and flush if necessary.">
<polygon fill="white" stroke="#666666" points="873,-96 749.75,-96 749.75,-76 873,-76 873,-96"/>
<text text-anchor="middle" x="811.38" y="-82.5" font-family="Helvetica,sans-Serif" font-size="10.00">AEFileWriter::writeString</text>
</a>
</g>
</g>
<!-- Node1&#45;&gt;Node13 -->
<g id="edge12_Node000001_Node000013" class="edge">
<title>Node1&#45;&gt;Node13</title>
<g id="a_edge12_Node000001_Node000013"><a xlink:title=" ">
<path fill="none" stroke="#63b8ff" d="M960.41,-145.54C940.24,-133.02 910.93,-116.11 883.5,-105 875.44,-101.74 866.65,-98.87 858.08,-96.41"/>
<polygon fill="#63b8ff" stroke="#63b8ff" points="958.47,-148.45 968.79,-150.83 962.2,-142.53 958.47,-148.45"/>
</a>
</g>
</g>
<!-- Node14 -->
<g id="Node000014" class="node">
<title>Node14</title>
<g id="a_Node000014"><a xlink:href="../../db/d15/class_a_e_file_writer.html#a82c2ff80c34bc34745d1b49311384dc7" target="_top" xlink:title="Write std::string, as is, to file, and flush if necessary.">
<polygon fill="white" stroke="#666666" points="873,-58 749.75,-58 749.75,-38 873,-38 873,-58"/>
<text text-anchor="middle" x="811.38" y="-44.5" font-family="Helvetica,sans-Serif" font-size="10.00">AEFileWriter::writeString</text>
</a>
</g>
</g>
<!-- Node1&#45;&gt;Node14 -->
<g id="edge13_Node000001_Node000014" class="edge">
<title>Node1&#45;&gt;Node14</title>
<g id="a_edge13_Node000001_Node000014"><a xlink:title=" ">
<path fill="none" stroke="#63b8ff" d="M970.48,-143.07C952.08,-121.5 919.16,-86.7 883.5,-67 877.35,-63.6 870.56,-60.78 863.68,-58.46"/>
<polygon fill="#63b8ff" stroke="#63b8ff" points="967.6,-145.08 976.69,-150.52 972.98,-140.6 967.6,-145.08"/>
</a>
</g>
</g>
<!-- Node18 -->
<g id="Node000018" class="node">
<title>Node18</title>
<g id="a_Node000018"><a xlink:href="../../db/d15/class_a_e_file_writer.html#a15d275e505374f13aa78c977712ff14a" target="_top" xlink:title="Write std::vector&lt;char&gt; (string), as is, to file, and flush if necessary.">
<polygon fill="white" stroke="#666666" points="873,-20 749.75,-20 749.75,0 873,0 873,-20"/>
<text text-anchor="middle" x="811.38" y="-6.5" font-family="Helvetica,sans-Serif" font-size="10.00">AEFileWriter::writeString</text>
</a>
</g>
</g>
<!-- Node1&#45;&gt;Node18 -->
<g id="edge17_Node000001_Node000018" class="edge">
<title>Node1&#45;&gt;Node18</title>
<g id="a_edge17_Node000001_Node000018"><a xlink:title=" ">
<path fill="none" stroke="#63b8ff" d="M975.83,-141.92C960.27,-112.56 927.33,-58.23 883.5,-29 878.29,-25.52 872.47,-22.68 866.46,-20.36"/>
<polygon fill="#63b8ff" stroke="#63b8ff" points="972.55,-143.2 980.23,-150.5 978.78,-140.01 972.55,-143.2"/>
</a>
</g>
</g>
<!-- Node19 -->
<g id="Node000019" class="node">
<title>Node19</title>
<g id="a_Node000019"><a xlink:href="../../d8/dfc/class_a_e_logger.html#a54bad71bcfea05c3d17d7ba1bacfec8c" target="_top" xlink:title="Writes to log directly, without thinking of the queue.">
<polygon fill="white" stroke="#666666" points="883.5,-286 739.25,-286 739.25,-266 883.5,-266 883.5,-286"/>
<text text-anchor="middle" x="811.38" y="-272.5" font-family="Helvetica,sans-Serif" font-size="10.00">AELogger::writeToLogDirectly</text>
</a>
</g>
</g>
<!-- Node1&#45;&gt;Node19 -->
<g id="edge18_Node000001_Node000019" class="edge">
<title>Node1&#45;&gt;Node19</title>
<g id="a_edge18_Node000001_Node000019"><a xlink:title=" ">
<path fill="none" stroke="#63b8ff" d="M970.48,-180.93C952.08,-202.5 919.16,-237.3 883.5,-257 877.35,-260.4 870.56,-263.22 863.68,-265.54"/>
<polygon fill="#63b8ff" stroke="#63b8ff" points="972.98,-183.4 976.69,-173.48 967.6,-178.92 972.98,-183.4"/>
</a>
</g>
</g>
<!-- Node3 -->
<g id="Node000003" class="node">
<title>Node3</title>
<g id="a_Node000003"><a xlink:href="../../d8/dfc/class_a_e_logger.html#a284034896688215f7e87242764c5985d" target="_top" xlink:title="Starts the log&#45;writing thread.">
<polygon fill="white" stroke="#666666" points="393,-324 282.5,-324 282.5,-304 393,-304 393,-324"/>
<text text-anchor="middle" x="337.75" y="-310.5" font-family="Helvetica,sans-Serif" font-size="10.00">AELogger::startWriter</text>
</a>
</g>
</g>
<!-- Node2&#45;&gt;Node3 -->
<g id="edge2_Node000002_Node000003" class="edge">
<title>Node2&#45;&gt;Node3</title>
<g id="a_edge2_Node000002_Node000003"><a xlink:title=" ">
<path fill="none" stroke="#63b8ff" d="M558.33,-314C506.42,-314 439.34,-314 393.06,-314"/>
<polygon fill="#63b8ff" stroke="#63b8ff" points="558.32,-317.5 568.32,-314 558.32,-310.5 558.32,-317.5"/>
</a>
</g>
</g>
<!-- Node4 -->
<g id="Node000004" class="node">
<title>Node4</title>
<g id="a_Node000004"><a xlink:href="../../d8/dfc/class_a_e_logger.html#a134f36542cb09532588436c53df9653d" target="_top" xlink:title="Class constructor – it opens the file with the given path and name and start logging to it.">
<polygon fill="white" stroke="#666666" points="245,-343 137.5,-343 137.5,-323 245,-323 245,-343"/>
<text text-anchor="middle" x="191.25" y="-329.5" font-family="Helvetica,sans-Serif" font-size="10.00">AELogger::AELogger</text>
</a>
</g>
</g>
<!-- Node3&#45;&gt;Node4 -->
<g id="edge3_Node000003_Node000004" class="edge">
<title>Node3&#45;&gt;Node4</title>
<g id="a_edge3_Node000003_Node000004"><a xlink:title=" ">
<path fill="none" stroke="#63b8ff" d="M270.86,-322.66C262.21,-323.8 253.44,-324.95 245.04,-326.06"/>
<polygon fill="#63b8ff" stroke="#63b8ff" points="271.16,-326.15 280.62,-321.38 270.25,-319.21 271.16,-326.15"/>
</a>
</g>
</g>
<!-- Node5 -->
<g id="Node000005" class="node">
<title>Node5</title>
<g id="a_Node000005"><a xlink:href="../../d8/dfc/class_a_e_logger.html#a53b588f9874535299d612a4c71de9950" target="_top" xlink:title="Open the file to start logging.">
<polygon fill="white" stroke="#666666" points="242,-305 140.5,-305 140.5,-285 242,-285 242,-305"/>
<text text-anchor="middle" x="191.25" y="-291.5" font-family="Helvetica,sans-Serif" font-size="10.00">AELogger::openLog</text>
</a>
</g>
</g>
<!-- Node3&#45;&gt;Node5 -->
<g id="edge4_Node000003_Node000005" class="edge">
<title>Node3&#45;&gt;Node5</title>
<g id="a_edge4_Node000003_Node000005"><a xlink:title=" ">
<path fill="none" stroke="#63b8ff" d="M270.91,-305.34C261.26,-304.07 251.46,-302.79 242.2,-301.57"/>
<polygon fill="#63b8ff" stroke="#63b8ff" points="270.25,-308.79 280.62,-306.62 271.16,-301.85 270.25,-308.79"/>
</a>
</g>
</g>
<!-- Node6 -->
<g id="Node000006" class="node">
<title>Node6</title>
<g id="a_Node000006"><a xlink:href="../../d8/dfc/class_a_e_logger.html#ac8f55a9e3c92557ea3d92974093ff6fb" target="_top" xlink:title="Open the file to start logging.">
<polygon fill="white" stroke="#666666" points="101.5,-324 0,-324 0,-304 101.5,-304 101.5,-324"/>
<text text-anchor="middle" x="50.75" y="-310.5" font-family="Helvetica,sans-Serif" font-size="10.00">AELogger::openLog</text>
</a>
</g>
</g>
<!-- Node5&#45;&gt;Node6 -->
<g id="edge5_Node000005_Node000006" class="edge">
<title>Node5&#45;&gt;Node6</title>
<g id="a_edge5_Node000005_Node000006"><a xlink:title=" ">
<path fill="none" stroke="#63b8ff" d="M128.87,-303.42C119.78,-304.67 110.5,-305.94 101.68,-307.15"/>
<polygon fill="#63b8ff" stroke="#63b8ff" points="129.32,-306.89 138.75,-302.07 128.37,-299.96 129.32,-306.89"/>
</a>
</g>
</g>
<!-- Node7 -->
<g id="Node000007" class="node">
<title>Node7</title>
<g id="a_Node000007"><a xlink:href="../../d8/dfc/class_a_e_logger.html#acbfddb2d8f459f32ce58d7c06cc2ddaa" target="_top" xlink:title="Open the file to start logging.">
<polygon fill="white" stroke="#666666" points="101.5,-286 0,-286 0,-266 101.5,-266 101.5,-286"/>
<text text-anchor="middle" x="50.75" y="-272.5" font-family="Helvetica,sans-Serif" font-size="10.00">AELogger::openLog</text>
</a>
</g>
</g>
<!-- Node5&#45;&gt;Node7 -->
<g id="edge6_Node000005_Node000007" class="edge">
<title>Node5&#45;&gt;Node7</title>
<g id="a_edge6_Node000005_Node000007"><a xlink:title=" ">
<path fill="none" stroke="#63b8ff" d="M128.87,-286.58C119.78,-285.33 110.5,-284.06 101.68,-282.85"/>
<polygon fill="#63b8ff" stroke="#63b8ff" points="128.37,-290.04 138.75,-287.93 129.32,-283.11 128.37,-290.04"/>
</a>
</g>
</g>
<!-- Node9 -->
<g id="Node000009" class="node">
<title>Node9</title>
<g id="a_Node000009"><a xlink:href="../../db/d15/class_a_e_file_writer.html#a8194ecb2e40b4d9cc6fbc0a5d0137ed5" target="_top" xlink:title="Writes the single (ascii) character to the file.">
<polygon fill="white" stroke="#666666" points="695.75,-210 577.75,-210 577.75,-190 695.75,-190 695.75,-210"/>
<text text-anchor="middle" x="636.75" y="-196.5" font-family="Helvetica,sans-Serif" font-size="10.00">AEFileWriter::writeChar</text>
</a>
</g>
</g>
<!-- Node8&#45;&gt;Node9 -->
<g id="edge8_Node000008_Node000009" class="edge">
<title>Node8&#45;&gt;Node9</title>
<g id="a_edge8_Node000008_Node000009"><a xlink:title=" ">
<path fill="none" stroke="#63b8ff" d="M751.69,-225.08C730.03,-220.31 705.77,-214.97 685.22,-210.45"/>
<polygon fill="#63b8ff" stroke="#63b8ff" points="750.75,-228.46 761.27,-227.19 752.26,-221.62 750.75,-228.46"/>
</a>
</g>
</g>
<!-- Node15 -->
<g id="Node000015" class="node">
<title>Node15</title>
<g id="a_Node000015"><a xlink:href="../../db/d15/class_a_e_file_writer.html#a1b85ca4cfff829254e4994715e79d476" target="_top" xlink:title="Writes the boolean to file as text (true/false).">
<polygon fill="white" stroke="#666666" points="695.38,-96 578.12,-96 578.12,-76 695.38,-76 695.38,-96"/>
<text text-anchor="middle" x="636.75" y="-82.5" font-family="Helvetica,sans-Serif" font-size="10.00">AEFileWriter::writeBool</text>
</a>
</g>
</g>
<!-- Node14&#45;&gt;Node15 -->
<g id="edge14_Node000014_Node000015" class="edge">
<title>Node14&#45;&gt;Node15</title>
<g id="a_edge14_Node000014_Node000015"><a xlink:title=" ">
<path fill="none" stroke="#63b8ff" d="M751.69,-60.92C730.03,-65.69 705.77,-71.03 685.22,-75.55"/>
<polygon fill="#63b8ff" stroke="#63b8ff" points="752.26,-64.38 761.27,-58.81 750.75,-57.54 752.26,-64.38"/>
</a>
</g>
</g>
<!-- Node16 -->
<g id="Node000016" class="node">
<title>Node16</title>
<g id="a_Node000016"><a xlink:href="../../db/d15/class_a_e_file_writer.html#a02dcf1db70b26b77a2b9d5f233640a16" target="_top" xlink:title="Writes the (signed) integer as text to open file.">
<polygon fill="white" stroke="#666666" points="690.88,-58 582.62,-58 582.62,-38 690.88,-38 690.88,-58"/>
<text text-anchor="middle" x="636.75" y="-44.5" font-family="Helvetica,sans-Serif" font-size="10.00">AEFileWriter::writeInt</text>
</a>
</g>
</g>
<!-- Node14&#45;&gt;Node16 -->
<g id="edge15_Node000014_Node000016" class="edge">
<title>Node14&#45;&gt;Node16</title>
<g id="a_edge15_Node000014_Node000016"><a xlink:title=" ">
<path fill="none" stroke="#63b8ff" d="M738.19,-48C722.44,-48 706.04,-48 691.18,-48"/>
<polygon fill="#63b8ff" stroke="#63b8ff" points="738,-51.5 748,-48 738,-44.5 738,-51.5"/>
</a>
</g>
</g>
<!-- Node17 -->
<g id="Node000017" class="node">
<title>Node17</title>
<g id="a_Node000017"><a xlink:href="../../db/d15/class_a_e_file_writer.html#a43d9cf8585c27a5ec995ac72ec8eec9c" target="_top" xlink:title="Writes the (unsigned) integer as text to open file.">
<polygon fill="white" stroke="#666666" points="694.25,-20 579.25,-20 579.25,0 694.25,0 694.25,-20"/>
<text text-anchor="middle" x="636.75" y="-6.5" font-family="Helvetica,sans-Serif" font-size="10.00">AEFileWriter::writeUInt</text>
</a>
</g>
</g>
<!-- Node14&#45;&gt;Node17 -->
<g id="edge16_Node000014_Node000017" class="edge">
<title>Node14&#45;&gt;Node17</title>
<g id="a_edge16_Node000014_Node000017"><a xlink:title=" ">
<path fill="none" stroke="#63b8ff" d="M751.69,-35.08C730.03,-30.31 705.77,-24.97 685.22,-20.45"/>
<polygon fill="#63b8ff" stroke="#63b8ff" points="750.75,-38.46 761.27,-37.19 752.26,-31.62 750.75,-38.46"/>
</a>
</g>
</g>
<!-- Node19&#45;&gt;Node2 -->
<g id="edge22_Node000019_Node000002" class="edge">
<title>Node19&#45;&gt;Node2</title>
<g id="a_edge22_Node000019_Node000002"><a xlink:title=" ">
<path fill="none" stroke="#63b8ff" d="M751.69,-288.92C730.03,-293.69 705.77,-299.03 685.22,-303.55"/>
<polygon fill="#63b8ff" stroke="#63b8ff" points="752.26,-292.38 761.27,-286.81 750.75,-285.54 752.26,-292.38"/>
</a>
</g>
</g>
<!-- Node20 -->
<g id="Node000020" class="node">
<title>Node20</title>
<g id="a_Node000020"><a xlink:href="../../d8/dfc/class_a_e_logger.html#a2f64d8f5de2f249f7cb973a82ec1e48a" target="_top" xlink:title="Close the file, if it was opened.">
<polygon fill="white" stroke="#666666" points="534.25,-286 430.5,-286 430.5,-266 534.25,-266 534.25,-286"/>
<text text-anchor="middle" x="482.38" y="-272.5" font-family="Helvetica,sans-Serif" font-size="10.00">AELogger::closeLog</text>
</a>
</g>
</g>
<!-- Node19&#45;&gt;Node20 -->
<g id="edge19_Node000019_Node000020" class="edge">
<title>Node19&#45;&gt;Node20</title>
<g id="a_edge19_Node000019_Node000020"><a xlink:title=" ">
<path fill="none" stroke="#63b8ff" d="M727.53,-276C666.78,-276 586.2,-276 534.56,-276"/>
<polygon fill="#63b8ff" stroke="#63b8ff" points="727.5,-279.5 737.5,-276 727.5,-272.5 727.5,-279.5"/>
</a>
</g>
</g>
<!-- Node22 -->
<g id="Node000022" class="node">
<title>Node22</title>
<g id="a_Node000022"><a xlink:href="../../d8/dfc/class_a_e_logger.html#a53b212c259c40bda694476f09d1f171b" target="_top" xlink:title="Stops the log&#45;writing thread (after flushing the log queue).">
<polygon fill="white" stroke="#666666" points="691.62,-248 581.88,-248 581.88,-228 691.62,-228 691.62,-248"/>
<text text-anchor="middle" x="636.75" y="-234.5" font-family="Helvetica,sans-Serif" font-size="10.00">AELogger::stopWriter</text>
</a>
</g>
</g>
<!-- Node19&#45;&gt;Node22 -->
<g id="edge23_Node000019_Node000022" class="edge">
<title>Node19&#45;&gt;Node22</title>
<g id="a_edge23_Node000019_Node000022"><a xlink:title=" ">
<path fill="none" stroke="#63b8ff" d="M751.69,-263.08C730.03,-258.31 705.77,-252.97 685.22,-248.45"/>
<polygon fill="#63b8ff" stroke="#63b8ff" points="750.75,-266.46 761.27,-265.19 752.26,-259.62 750.75,-266.46"/>
</a>
</g>
</g>
<!-- Node20&#45;&gt;Node3 -->
<g id="edge21_Node000020_Node000003" class="edge">
<title>Node20&#45;&gt;Node3</title>
<g id="a_edge21_Node000020_Node000003"><a xlink:title=" ">
<path fill="none" stroke="#63b8ff" d="M430.91,-289.45C413.52,-294.08 394.33,-299.19 377.97,-303.55"/>
<polygon fill="#63b8ff" stroke="#63b8ff" points="431.8,-292.83 440.56,-286.87 430,-286.07 431.8,-292.83"/>
</a>
</g>
</g>
<!-- Node21 -->
<g id="Node000021" class="node">
<title>Node21</title>
<g id="a_Node000021"><a xlink:href="../../d8/dfc/class_a_e_logger.html#a4b6c6a8134c8f7f24db7d3f35d62624d" target="_top" xlink:title="Class destructor.">
<polygon fill="white" stroke="#666666" points="394.5,-286 281,-286 281,-266 394.5,-266 394.5,-286"/>
<text text-anchor="middle" x="337.75" y="-272.5" font-family="Helvetica,sans-Serif" font-size="10.00">AELogger::~AELogger</text>
</a>
</g>
</g>
<!-- Node20&#45;&gt;Node21 -->
<g id="edge20_Node000020_Node000021" class="edge">
<title>Node20&#45;&gt;Node21</title>
<g id="a_edge20_Node000020_Node000021"><a xlink:title=" ">
<path fill="none" stroke="#63b8ff" d="M419.03,-276C410.97,-276 402.75,-276 394.8,-276"/>
<polygon fill="#63b8ff" stroke="#63b8ff" points="418.77,-279.5 428.77,-276 418.77,-272.5 418.77,-279.5"/>
</a>
</g>
</g>
<!-- Node22&#45;&gt;Node20 -->
<g id="edge24_Node000022_Node000020" class="edge">
<title>Node22&#45;&gt;Node20</title>
<g id="a_edge24_Node000022_Node000020"><a xlink:title=" ">
<path fill="none" stroke="#63b8ff" d="M582.63,-251.25C563.85,-255.93 543,-261.13 525.28,-265.55"/>
<polygon fill="#63b8ff" stroke="#63b8ff" points="583.39,-254.67 592.24,-248.85 581.69,-247.87 583.39,-254.67"/>
</a>
</g>
</g>
</g>
</svg>
