<?xml version="1.0" encoding="UTF-8" standalone="no"?>
<!DOCTYPE svg PUBLIC "-//W3C//DTD SVG 1.1//EN"
 "http://www.w3.org/Graphics/SVG/1.1/DTD/svg11.dtd">
<!-- Generated by graphviz version 10.0.1 (20240210.2158)
 -->
<!-- Title: AEFileWriter::getFullFileName Pages: 1 -->
<svg width="742pt" height="123pt"
 viewBox="0.00 0.00 742.00 123.00" xmlns="http://www.w3.org/2000/svg" xmlns:xlink="http://www.w3.org/1999/xlink">
<g id="graph0" class="graph" transform="scale(1 1) rotate(0) translate(4 119)">
<title>AEFileWriter::getFullFileName</title>
<!-- Node1 -->
<g id="Node000001" class="node">
<title>Node1</title>
<g id="a_Node000001"><a xlink:title="Returns the full name of currently open file, including the relative path, if such was provided.">
<polygon fill="#999999" stroke="#666666" points="734,-58 586,-58 586,-38 734,-38 734,-58"/>
<text text-anchor="middle" x="660" y="-44.5" font-family="Helvetica,sans-Serif" font-size="10.00">AEFileWriter::getFullFileName</text>
</a>
</g>
</g>
<!-- Node2 -->
<g id="Node000002" class="node">
<title>Node2</title>
<g id="a_Node000002"><a xlink:href="../../d8/dfc/class_a_e_logger.html#a2f64d8f5de2f249f7cb973a82ec1e48a" target="_top" xlink:title="Close the file, if it was opened.">
<polygon fill="white" stroke="#666666" points="542.12,-96 438.38,-96 438.38,-76 542.12,-76 542.12,-96"/>
<text text-anchor="middle" x="490.25" y="-82.5" font-family="Helvetica,sans-Serif" font-size="10.00">AELogger::closeLog</text>
</a>
</g>
</g>
<!-- Node1&#45;&gt;Node2 -->
<g id="edge1_Node000001_Node000002" class="edge">
<title>Node1&#45;&gt;Node2</title>
<g id="a_edge1_Node000001_Node000002"><a xlink:title=" ">
<path fill="none" stroke="#63b8ff" d="M601.68,-60.98C580.7,-65.74 557.26,-71.05 537.38,-75.55"/>
<polygon fill="#63b8ff" stroke="#63b8ff" points="602.26,-64.44 611.24,-58.82 600.72,-57.61 602.26,-64.44"/>
</a>
</g>
</g>
<!-- Node9 -->
<g id="Node000009" class="node">
<title>Node9</title>
<g id="a_Node000009"><a xlink:href="../../d8/dfc/class_a_e_logger.html#a969fd219869803f0d6e52a4b37c0b38f" target="_top" xlink:title="Get the name of the log file.">
<polygon fill="white" stroke="#666666" points="550,-58 430.5,-58 430.5,-38 550,-38 550,-58"/>
<text text-anchor="middle" x="490.25" y="-44.5" font-family="Helvetica,sans-Serif" font-size="10.00">AELogger::getLogName</text>
</a>
</g>
</g>
<!-- Node1&#45;&gt;Node9 -->
<g id="edge8_Node000001_Node000009" class="edge">
<title>Node1&#45;&gt;Node9</title>
<g id="a_edge8_Node000001_Node000009"><a xlink:title=" ">
<path fill="none" stroke="#63b8ff" d="M574.4,-48C566.24,-48 558.08,-48 550.25,-48"/>
<polygon fill="#63b8ff" stroke="#63b8ff" points="574.4,-51.5 584.4,-48 574.4,-44.5 574.4,-51.5"/>
</a>
</g>
</g>
<!-- Node10 -->
<g id="Node000010" class="node">
<title>Node10</title>
<g id="a_Node000010"><a xlink:href="../../d8/dfc/class_a_e_logger.html#a42debdcd6da993064afc1f4d2357ecfb" target="_top" xlink:title="Writes the current status of the file logger instance (file name, and entries written).">
<polygon fill="white" stroke="#666666" points="547,-20 433.5,-20 433.5,0 547,0 547,-20"/>
<text text-anchor="middle" x="490.25" y="-6.5" font-family="Helvetica,sans-Serif" font-size="10.00">AELogger::writeStatus</text>
</a>
</g>
</g>
<!-- Node1&#45;&gt;Node10 -->
<g id="edge9_Node000001_Node000010" class="edge">
<title>Node1&#45;&gt;Node10</title>
<g id="a_edge9_Node000001_Node000010"><a xlink:title=" ">
<path fill="none" stroke="#63b8ff" d="M601.68,-35.02C580.7,-30.26 557.26,-24.95 537.38,-20.45"/>
<polygon fill="#63b8ff" stroke="#63b8ff" points="600.72,-38.39 611.24,-37.18 602.26,-31.56 600.72,-38.39"/>
</a>
</g>
</g>
<!-- Node3 -->
<g id="Node000003" class="node">
<title>Node3</title>
<g id="a_Node000003"><a xlink:href="../../d8/dfc/class_a_e_logger.html#a4b6c6a8134c8f7f24db7d3f35d62624d" target="_top" xlink:title="Class destructor.">
<polygon fill="white" stroke="#666666" points="394.5,-115 281,-115 281,-95 394.5,-95 394.5,-115"/>
<text text-anchor="middle" x="337.75" y="-101.5" font-family="Helvetica,sans-Serif" font-size="10.00">AELogger::~AELogger</text>
</a>
</g>
</g>
<!-- Node2&#45;&gt;Node3 -->
<g id="edge2_Node000002_Node000003" class="edge">
<title>Node2&#45;&gt;Node3</title>
<g id="a_edge2_Node000002_Node000003"><a xlink:title=" ">
<path fill="none" stroke="#63b8ff" d="M426.6,-93.91C416.05,-95.24 405.16,-96.62 394.79,-97.93"/>
<polygon fill="#63b8ff" stroke="#63b8ff" points="426.89,-97.4 436.38,-92.68 426.02,-90.46 426.89,-97.4"/>
</a>
</g>
</g>
<!-- Node4 -->
<g id="Node000004" class="node">
<title>Node4</title>
<g id="a_Node000004"><a xlink:href="../../d8/dfc/class_a_e_logger.html#a284034896688215f7e87242764c5985d" target="_top" xlink:title="Starts the log&#45;writing thread.">
<polygon fill="white" stroke="#666666" points="393,-77 282.5,-77 282.5,-57 393,-57 393,-77"/>
<text text-anchor="middle" x="337.75" y="-63.5" font-family="Helvetica,sans-Serif" font-size="10.00">AELogger::startWriter</text>
</a>
</g>
</g>
<!-- Node2&#45;&gt;Node4 -->
<g id="edge3_Node000002_Node000004" class="edge">
<title>Node2&#45;&gt;Node4</title>
<g id="a_edge3_Node000002_Node000004"><a xlink:title=" ">
<path fill="none" stroke="#63b8ff" d="M426.6,-78.09C415.61,-76.7 404.25,-75.27 393.49,-73.91"/>
<polygon fill="#63b8ff" stroke="#63b8ff" points="426.02,-81.54 436.38,-79.32 426.89,-74.6 426.02,-81.54"/>
</a>
</g>
</g>
<!-- Node5 -->
<g id="Node000005" class="node">
<title>Node5</title>
<g id="a_Node000005"><a xlink:href="../../d8/dfc/class_a_e_logger.html#a134f36542cb09532588436c53df9653d" target="_top" xlink:title="Class constructor – it opens the file with the given path and name and start logging to it.">
<polygon fill="white" stroke="#666666" points="245,-96 137.5,-96 137.5,-76 245,-76 245,-96"/>
<text text-anchor="middle" x="191.25" y="-82.5" font-family="Helvetica,sans-Serif" font-size="10.00">AELogger::AELogger</text>
</a>
</g>
</g>
<!-- Node4&#45;&gt;Node5 -->
<g id="edge4_Node000004_Node000005" class="edge">
<title>Node4&#45;&gt;Node5</title>
<g id="a_edge4_Node000004_Node000005"><a xlink:title=" ">
<path fill="none" stroke="#63b8ff" d="M270.86,-75.66C262.21,-76.8 253.44,-77.95 245.04,-79.06"/>
<polygon fill="#63b8ff" stroke="#63b8ff" points="271.16,-79.15 280.62,-74.38 270.25,-72.21 271.16,-79.15"/>
</a>
</g>
</g>
<!-- Node6 -->
<g id="Node000006" class="node">
<title>Node6</title>
<g id="a_Node000006"><a xlink:href="../../d8/dfc/class_a_e_logger.html#a53b588f9874535299d612a4c71de9950" target="_top" xlink:title="Open the file to start logging.">
<polygon fill="white" stroke="#666666" points="242,-58 140.5,-58 140.5,-38 242,-38 242,-58"/>
<text text-anchor="middle" x="191.25" y="-44.5" font-family="Helvetica,sans-Serif" font-size="10.00">AELogger::openLog</text>
</a>
</g>
</g>
<!-- Node4&#45;&gt;Node6 -->
<g id="edge5_Node000004_Node000006" class="edge">
<title>Node4&#45;&gt;Node6</title>
<g id="a_edge5_Node000004_Node000006"><a xlink:title=" ">
<path fill="none" stroke="#63b8ff" d="M270.91,-58.34C261.26,-57.07 251.46,-55.79 242.2,-54.57"/>
<polygon fill="#63b8ff" stroke="#63b8ff" points="270.25,-61.79 280.62,-59.62 271.16,-54.85 270.25,-61.79"/>
</a>
</g>
</g>
<!-- Node7 -->
<g id="Node000007" class="node">
<title>Node7</title>
<g id="a_Node000007"><a xlink:href="../../d8/dfc/class_a_e_logger.html#ac8f55a9e3c92557ea3d92974093ff6fb" target="_top" xlink:title="Open the file to start logging.">
<polygon fill="white" stroke="#666666" points="101.5,-77 0,-77 0,-57 101.5,-57 101.5,-77"/>
<text text-anchor="middle" x="50.75" y="-63.5" font-family="Helvetica,sans-Serif" font-size="10.00">AELogger::openLog</text>
</a>
</g>
</g>
<!-- Node6&#45;&gt;Node7 -->
<g id="edge6_Node000006_Node000007" class="edge">
<title>Node6&#45;&gt;Node7</title>
<g id="a_edge6_Node000006_Node000007"><a xlink:title=" ">
<path fill="none" stroke="#63b8ff" d="M128.87,-56.42C119.78,-57.67 110.5,-58.94 101.68,-60.15"/>
<polygon fill="#63b8ff" stroke="#63b8ff" points="129.32,-59.89 138.75,-55.07 128.37,-52.96 129.32,-59.89"/>
</a>
</g>
</g>
<!-- Node8 -->
<g id="Node000008" class="node">
<title>Node8</title>
<g id="a_Node000008"><a xlink:href="../../d8/dfc/class_a_e_logger.html#acbfddb2d8f459f32ce58d7c06cc2ddaa" target="_top" xlink:title="Open the file to start logging.">
<polygon fill="white" stroke="#666666" points="101.5,-39 0,-39 0,-19 101.5,-19 101.5,-39"/>
<text text-anchor="middle" x="50.75" y="-25.5" font-family="Helvetica,sans-Serif" font-size="10.00">AELogger::openLog</text>
</a>
</g>
</g>
<!-- Node6&#45;&gt;Node8 -->
<g id="edge7_Node000006_Node000008" class="edge">
<title>Node6&#45;&gt;Node8</title>
<g id="a_edge7_Node000006_Node000008"><a xlink:title=" ">
<path fill="none" stroke="#63b8ff" d="M128.87,-39.58C119.78,-38.33 110.5,-37.06 101.68,-35.85"/>
<polygon fill="#63b8ff" stroke="#63b8ff" points="128.37,-43.04 138.75,-40.93 129.32,-36.11 128.37,-43.04"/>
</a>
</g>
</g>
</g>
</svg>
