<?xml version="1.0" encoding="UTF-8" standalone="no"?>
<!DOCTYPE svg PUBLIC "-//W3C//DTD SVG 1.1//EN"
 "http://www.w3.org/Graphics/SVG/1.1/DTD/svg11.dtd">
<!-- Generated by graphviz version 10.0.1 (20240210.2158)
 -->
<!-- Title: AEMisc/include/AEMathTrigLookup.hpp Pages: 1 -->
<svg width="406pt" height="196pt"
 viewBox="0.00 0.00 405.62 196.00" xmlns="http://www.w3.org/2000/svg" xmlns:xlink="http://www.w3.org/1999/xlink">

<svg id="main" version="1.1" xmlns="http://www.w3.org/2000/svg" xmlns:xlink="http://www.w3.org/1999/xlink" xml:space="preserve" onload="init(evt)">
<style type="text/css"><![CDATA[
.node, .edge {opacity: 0.7;}
.node.selected, .edge.selected {opacity: 1;}
.edge:hover path { stroke: red; }
.edge:hover polygon { stroke: red; fill: red; }
]]></style>
<script type="application/ecmascript" xlink:href="../../svg.min.js"/>
<svg id="graph" class="graph">
<g id="graph0" class="graph" transform="scale(1 1) rotate(0) translate(4 192)">
<title>AEMisc/include/AEMathTrigLookup.hpp</title>
<!-- Node1 -->
<g id="Node000001" class="node">
<title>Node1</title>
<g id="a_Node000001"><a xlink:title="This file contains the engine&#39;s trigonometric function lookup tables.">
<polygon fill="#999999" stroke="#666666" points="332,-188 143.5,-188 143.5,-168 332,-168 332,-188"/>
<text text-anchor="middle" x="237.75" y="-174.5" font-family="Helvetica,sans-Serif" font-size="10.00">AEMisc/include/AEMathTrigLookup.hpp</text>
</a>
</g>
</g>
<!-- Node2 -->
<g id="Node000002" class="node">
<title>Node2</title>
<g id="a_Node000002"><a xlink:href="../../dd/dd8/_a_e_flags_8hpp.html" target="_top" xlink:title="This file contains the flags to manipulate engine&#39;s funcitonality.">
<polygon fill="white" stroke="#666666" points="184.88,-132 112.62,-132 112.62,-112 184.88,-112 184.88,-132"/>
<text text-anchor="middle" x="148.75" y="-118.5" font-family="Helvetica,sans-Serif" font-size="10.00">AEFlags.hpp</text>
</a>
</g>
</g>
<!-- Node1&#45;&gt;Node2 -->
<g id="edge1_Node000001_Node000002" class="edge">
<title>Node1&#45;&gt;Node2</title>
<g id="a_edge1_Node000001_Node000002"><a xlink:title=" ">
<path fill="none" stroke="#63b8ff" d="M222.25,-167.59C208.93,-159.51 189.47,-147.71 173.92,-138.27"/>
<polygon fill="#63b8ff" stroke="#63b8ff" points="176.03,-135.46 165.67,-133.26 172.4,-141.44 176.03,-135.46"/>
</a>
</g>
</g>
<!-- Node3 -->
<g id="Node000003" class="node">
<title>Node3</title>
<g id="a_Node000003"><a xlink:href="../../d1/da4/_a_e_math_8hpp.html" target="_top" xlink:title="This file contains the engine&#39;s math and math&#45;related functions.">
<polygon fill="white" stroke="#666666" points="272.75,-132 202.75,-132 202.75,-112 272.75,-112 272.75,-132"/>
<text text-anchor="middle" x="237.75" y="-118.5" font-family="Helvetica,sans-Serif" font-size="10.00">AEMath.hpp</text>
</a>
</g>
</g>
<!-- Node1&#45;&gt;Node3 -->
<g id="edge2_Node000001_Node000003" class="edge">
<title>Node1&#45;&gt;Node3</title>
<g id="a_edge2_Node000001_Node000003"><a xlink:title=" ">
<path fill="none" stroke="#63b8ff" d="M237.75,-167.59C237.75,-161.01 237.75,-151.96 237.75,-143.73"/>
<polygon fill="#63b8ff" stroke="#63b8ff" points="241.25,-143.81 237.75,-133.81 234.25,-143.81 241.25,-143.81"/>
</a>
</g>
</g>
<!-- Node12 -->
<g id="Node000012" class="node">
<title>Node12</title>
<g id="a_Node000012"><a xlink:title=" ">
<polygon fill="#e0e0e0" stroke="#999999" points="330.38,-132 291.12,-132 291.12,-112 330.38,-112 330.38,-132"/>
<text text-anchor="middle" x="310.75" y="-118.5" font-family="Helvetica,sans-Serif" font-size="10.00">cfloat</text>
</a>
</g>
</g>
<!-- Node1&#45;&gt;Node12 -->
<g id="edge11_Node000001_Node000012" class="edge">
<title>Node1&#45;&gt;Node12</title>
<g id="a_edge11_Node000001_Node000012"><a xlink:title=" ">
<path fill="none" stroke="#63b8ff" d="M250.47,-167.59C261.14,-159.7 276.63,-148.24 289.23,-138.92"/>
<polygon fill="#63b8ff" stroke="#63b8ff" points="291.01,-141.96 296.96,-133.2 286.84,-136.33 291.01,-141.96"/>
</a>
</g>
</g>
<!-- Node4 -->
<g id="Node000004" class="node">
<title>Node4</title>
<g id="a_Node000004"><a xlink:href="../../d2/d5a/_a_e_math_const_8hpp.html" target="_top" xlink:title="This file contains the engine&#39;s math constants.">
<polygon fill="white" stroke="#666666" points="95.5,-76 0,-76 0,-56 95.5,-56 95.5,-76"/>
<text text-anchor="middle" x="47.75" y="-62.5" font-family="Helvetica,sans-Serif" font-size="10.00">AEMathConst.hpp</text>
</a>
</g>
</g>
<!-- Node3&#45;&gt;Node4 -->
<g id="edge3_Node000003_Node000004" class="edge">
<title>Node3&#45;&gt;Node4</title>
<g id="a_edge3_Node000003_Node000004"><a xlink:title=" ">
<path fill="none" stroke="#63b8ff" d="M204.65,-111.59C173.38,-102.71 126.25,-89.31 91.8,-79.52"/>
<polygon fill="#63b8ff" stroke="#63b8ff" points="93.14,-76.26 82.56,-76.89 91.22,-82.99 93.14,-76.26"/>
</a>
</g>
</g>
<!-- Node5 -->
<g id="Node000005" class="node">
<title>Node5</title>
<g id="a_Node000005"><a xlink:href="../../dc/d89/_a_e_typedefs_8hpp.html" target="_top" xlink:title="This file contains the engine&#39;s typedefs and variable type aliases.">
<polygon fill="white" stroke="#666666" points="200.38,-76 113.12,-76 113.12,-56 200.38,-56 200.38,-76"/>
<text text-anchor="middle" x="156.75" y="-62.5" font-family="Helvetica,sans-Serif" font-size="10.00">AETypedefs.hpp</text>
</a>
</g>
</g>
<!-- Node3&#45;&gt;Node5 -->
<g id="edge4_Node000003_Node000005" class="edge">
<title>Node3&#45;&gt;Node5</title>
<g id="a_edge4_Node000003_Node000005"><a xlink:title=" ">
<path fill="none" stroke="#63b8ff" d="M223.64,-111.59C211.75,-103.67 194.48,-92.16 180.47,-82.82"/>
<polygon fill="#63b8ff" stroke="#63b8ff" points="182.49,-79.95 172.23,-77.32 178.61,-85.78 182.49,-79.95"/>
</a>
</g>
</g>
<!-- Node9 -->
<g id="Node000009" class="node">
<title>Node9</title>
<g id="a_Node000009"><a xlink:title=" ">
<polygon fill="#e0e0e0" stroke="#999999" points="257.38,-76 218.12,-76 218.12,-56 257.38,-56 257.38,-76"/>
<text text-anchor="middle" x="237.75" y="-62.5" font-family="Helvetica,sans-Serif" font-size="10.00">limits</text>
</a>
</g>
</g>
<!-- Node3&#45;&gt;Node9 -->
<g id="edge8_Node000003_Node000009" class="edge">
<title>Node3&#45;&gt;Node9</title>
<g id="a_edge8_Node000003_Node000009"><a xlink:title=" ">
<path fill="none" stroke="#63b8ff" d="M237.75,-111.59C237.75,-105.01 237.75,-95.96 237.75,-87.73"/>
<polygon fill="#63b8ff" stroke="#63b8ff" points="241.25,-87.81 237.75,-77.81 234.25,-87.81 241.25,-87.81"/>
</a>
</g>
</g>
<!-- Node10 -->
<g id="Node000010" class="node">
<title>Node10</title>
<g id="a_Node000010"><a xlink:title=" ">
<polygon fill="#e0e0e0" stroke="#999999" points="318.25,-76 275.25,-76 275.25,-56 318.25,-56 318.25,-76"/>
<text text-anchor="middle" x="296.75" y="-62.5" font-family="Helvetica,sans-Serif" font-size="10.00">cmath</text>
</a>
</g>
</g>
<!-- Node3&#45;&gt;Node10 -->
<g id="edge9_Node000003_Node000010" class="edge">
<title>Node3&#45;&gt;Node10</title>
<g id="a_edge9_Node000003_Node000010"><a xlink:title=" ">
<path fill="none" stroke="#63b8ff" d="M248.03,-111.59C256.32,-104.01 268.2,-93.13 278.15,-84.02"/>
<polygon fill="#63b8ff" stroke="#63b8ff" points="280.46,-86.65 285.47,-77.32 275.73,-81.49 280.46,-86.65"/>
</a>
</g>
</g>
<!-- Node11 -->
<g id="Node000011" class="node">
<title>Node11</title>
<g id="a_Node000011"><a xlink:title=" ">
<polygon fill="#e0e0e0" stroke="#999999" points="397.62,-76 335.88,-76 335.88,-56 397.62,-56 397.62,-76"/>
<text text-anchor="middle" x="366.75" y="-62.5" font-family="Helvetica,sans-Serif" font-size="10.00">type_traits</text>
</a>
</g>
</g>
<!-- Node3&#45;&gt;Node11 -->
<g id="edge10_Node000003_Node000011" class="edge">
<title>Node3&#45;&gt;Node11</title>
<g id="a_edge10_Node000003_Node000011"><a xlink:title=" ">
<path fill="none" stroke="#63b8ff" d="M260.22,-111.59C280.54,-103.09 310.7,-90.46 333.76,-80.81"/>
<polygon fill="#63b8ff" stroke="#63b8ff" points="334.84,-84.15 342.71,-77.06 332.13,-77.7 334.84,-84.15"/>
</a>
</g>
</g>
<!-- Node6 -->
<g id="Node000006" class="node">
<title>Node6</title>
<g id="a_Node000006"><a xlink:title=" ">
<polygon fill="#e0e0e0" stroke="#999999" points="116,-20 71.5,-20 71.5,0 116,0 116,-20"/>
<text text-anchor="middle" x="93.75" y="-6.5" font-family="Helvetica,sans-Serif" font-size="10.00">climits</text>
</a>
</g>
</g>
<!-- Node5&#45;&gt;Node6 -->
<g id="edge5_Node000005_Node000006" class="edge">
<title>Node5&#45;&gt;Node6</title>
<g id="a_edge5_Node000005_Node000006"><a xlink:title=" ">
<path fill="none" stroke="#63b8ff" d="M145.78,-55.59C136.83,-47.93 123.98,-36.91 113.29,-27.75"/>
<polygon fill="#63b8ff" stroke="#63b8ff" points="115.62,-25.13 105.75,-21.28 111.06,-30.45 115.62,-25.13"/>
</a>
</g>
</g>
<!-- Node7 -->
<g id="Node000007" class="node">
<title>Node7</title>
<g id="a_Node000007"><a xlink:title=" ">
<polygon fill="#e0e0e0" stroke="#999999" points="179.38,-20 134.12,-20 134.12,0 179.38,0 179.38,-20"/>
<text text-anchor="middle" x="156.75" y="-6.5" font-family="Helvetica,sans-Serif" font-size="10.00">chrono</text>
</a>
</g>
</g>
<!-- Node5&#45;&gt;Node7 -->
<g id="edge6_Node000005_Node000007" class="edge">
<title>Node5&#45;&gt;Node7</title>
<g id="a_edge6_Node000005_Node000007"><a xlink:title=" ">
<path fill="none" stroke="#63b8ff" d="M156.75,-55.59C156.75,-49.01 156.75,-39.96 156.75,-31.73"/>
<polygon fill="#63b8ff" stroke="#63b8ff" points="160.25,-31.81 156.75,-21.81 153.25,-31.81 160.25,-31.81"/>
</a>
</g>
</g>
<!-- Node8 -->
<g id="Node000008" class="node">
<title>Node8</title>
<g id="a_Node000008"><a xlink:title=" ">
<polygon fill="#e0e0e0" stroke="#999999" points="240.25,-20 197.25,-20 197.25,0 240.25,0 240.25,-20"/>
<text text-anchor="middle" x="218.75" y="-6.5" font-family="Helvetica,sans-Serif" font-size="10.00">thread</text>
</a>
</g>
</g>
<!-- Node5&#45;&gt;Node8 -->
<g id="edge7_Node000005_Node000008" class="edge">
<title>Node5&#45;&gt;Node8</title>
<g id="a_edge7_Node000005_Node000008"><a xlink:title=" ">
<path fill="none" stroke="#63b8ff" d="M167.55,-55.59C176.35,-47.93 189,-36.91 199.52,-27.75"/>
<polygon fill="#63b8ff" stroke="#63b8ff" points="201.69,-30.5 206.93,-21.29 197.09,-25.22 201.69,-30.5"/>
</a>
</g>
</g>
</g>
</svg>
</svg>

<style type='text/css'>
<![CDATA[
[data-mouse-over-selected='false'] { opacity: 0.7; }
[data-mouse-over-selected='true']  { opacity: 1.0; }
]]>
</style>
<script type="application/ecmascript"><![CDATA[
document.addEventListener('DOMContentLoaded', (event) => {
  highlightEdges();
  highlightAdjacentNodes();
});
]]></script>
</svg>
