<?xml version="1.0" encoding="UTF-8" standalone="no"?>
<!DOCTYPE svg PUBLIC "-//W3C//DTD SVG 1.1//EN"
 "http://www.w3.org/Graphics/SVG/1.1/DTD/svg11.dtd">
<!-- Generated by graphviz version 10.0.1 (20240210.2158)
 -->
<!-- Title: AELogEntry::makeQueue Pages: 1 -->
<!--zoomable 485 -->

<svg id="main" version="1.1" xmlns="http://www.w3.org/2000/svg" xmlns:xlink="http://www.w3.org/1999/xlink" xml:space="preserve" onload="init(evt)">
<style type="text/css"><![CDATA[
.node, .edge {opacity: 0.7;}
.node.selected, .edge.selected {opacity: 1;}
.edge:hover path { stroke: red; }
.edge:hover polygon { stroke: red; fill: red; }
]]></style>

<defs>
  <circle id="rim" cx="0" cy="0" r="7"/>
  <circle id="rim2" cx="0" cy="0" r="3.5"/>
  <g id="zoomPlus">
    <use xlink:href="#rim" fill="#404040"><set attributeName="fill" to="#808080" begin="zoomplus.mouseover" end="zoomplus.mouseout"/></use>
    <path d="M-4,0h8M0,-4v8" fill="none" stroke="white" stroke-width="1.5" pointer-events="none"/>
  </g>
  <g id="zoomMin">
    <use xlink:href="#rim" fill="#404040"><set attributeName="fill" to="#808080" begin="zoomminus.mouseover" end="zoomminus.mouseout"/></use>
    <path d="M-4,0h8" fill="none" stroke="white" stroke-width="1.5" pointer-events="none"/>
  </g>
  <g id="arrowUp" transform="translate(30 24)">
    <use xlink:href="#rim"/>
    <path pointer-events="none" fill="none" stroke="white" stroke-width="1.5" d="M0,-3.0v7 M-2.5,-0.5L0,-3.0L2.5,-0.5"/>
  </g>
  <g id="arrowRight" transform="rotate(90) translate(36 -43)">
    <use xlink:href="#rim"/>
    <path pointer-events="none" fill="none" stroke="white" stroke-width="1.5" d="M0,-3.0v7 M-2.5,-0.5L0,-3.0L2.5,-0.5"/>
  </g>
  <g id="arrowDown" transform="rotate(180) translate(-30 -48)">
    <use xlink:href="#rim"/>
    <path pointer-events="none" fill="none" stroke="white" stroke-width="1.5" d="M0,-3.0v7 M-2.5,-0.5L0,-3.0L2.5,-0.5"/>
  </g>
  <g id="arrowLeft" transform="rotate(270) translate(-36 17)">
    <use xlink:href="#rim"/>
    <path pointer-events="none" fill="none" stroke="white" stroke-width="1.5" d="M0,-3.0v7 M-2.5,-0.5L0,-3.0L2.5,-0.5"/>
  </g>
  <g id="resetDef">
    <use xlink:href="#rim2" fill="#404040"><set attributeName="fill" to="#808080" begin="reset.mouseover" end="reset.mouseout"/></use>
  </g>
</defs>
<script type="application/ecmascript">
var viewWidth = 1128;
var viewHeight = 485;
var sectionId = 'dynsection-5';
</script>
<script type="application/ecmascript" xlink:href="../../svg.min.js"/>
<svg id="graph" class="graph">
<g id="viewport">
<title>AELogEntry::makeQueue</title>
<!-- Node1 -->
<g id="Node000001" class="node">
<title>Node1</title>
<g id="a_Node000001"><a xlink:title="Allocates the queue of the given size on the heap and returns the pointer to it&#39;s first node.">
<polygon fill="#999999" stroke="#666666" points="1120,-438.64 993,-438.64 993,-418.64 1120,-418.64 1120,-438.64"/>
<text text-anchor="middle" x="1056.5" y="-425.14" font-family="Helvetica,sans-Serif" font-size="10.00">AELogEntry::makeQueue</text>
</a>
</g>
</g>
<!-- Node2 -->
<g id="Node000002" class="node">
<title>Node2</title>
<g id="a_Node000002"><a xlink:href="../../d8/d52/class_a_e_log_parser.html#a7c3e2c0736eb6a3ccd84a528d72835ad" target="_top" xlink:title="Filters the passed queue according to the given severity and modulename filters.">
<polygon fill="white" stroke="#666666" points="957,-438.64 830.75,-438.64 830.75,-418.64 957,-418.64 957,-438.64"/>
<text text-anchor="middle" x="893.88" y="-425.14" font-family="Helvetica,sans-Serif" font-size="10.00">AELogParser::filterQueue</text>
</a>
</g>
</g>
<!-- Node1&#45;&gt;Node2 -->
<g id="edge1_Node000001_Node000002" class="edge">
<title>Node1&#45;&gt;Node2</title>
<g id="a_edge1_Node000001_Node000002"><a xlink:title=" ">
<path fill="none" stroke="#63b8ff" d="M981.55,-428.64C973.43,-428.64 965.23,-428.64 957.27,-428.64"/>
<polygon fill="#63b8ff" stroke="#63b8ff" points="981.42,-432.14 991.42,-428.64 981.42,-425.14 981.42,-432.14"/>
</a>
</g>
</g>
<!-- Node4 -->
<g id="Node000004" class="node">
<title>Node4</title>
<g id="a_Node000004"><a xlink:href="../../d8/d52/class_a_e_log_parser.html#a182d51b4aa5771e2e6f6919300e571ca" target="_top" xlink:title="Same as the AELogParser::nextEntry() but on massive scale – scans the whole log file and parses it to...">
<polygon fill="white" stroke="#666666" points="606.25,-457.64 474.75,-457.64 474.75,-437.64 606.25,-437.64 606.25,-457.64"/>
<text text-anchor="middle" x="540.5" y="-444.14" font-family="Helvetica,sans-Serif" font-size="10.00">AELogParser::logToQueue</text>
</a>
</g>
</g>
<!-- Node1&#45;&gt;Node4 -->
<g id="edge7_Node000001_Node000004" class="edge">
<title>Node1&#45;&gt;Node4</title>
<g id="a_edge7_Node000001_Node000004"><a xlink:title=" ">
<path fill="none" stroke="#63b8ff" d="M995.08,-441.19C914.69,-456.3 768.16,-478.25 643,-466.64 624.7,-464.94 604.79,-461.56 587.48,-458.11"/>
<polygon fill="#63b8ff" stroke="#63b8ff" points="995.32,-444.71 1004.48,-439.4 994.01,-437.84 995.32,-444.71"/>
</a>
</g>
</g>
<!-- Node8 -->
<g id="Node000008" class="node">
<title>Node8</title>
<g id="a_Node000008"><a xlink:href="../../d8/dfc/class_a_e_logger.html#ac533941173224cb21fe09326726ce754" target="_top" xlink:title="Request a log entry to be written to the opened log file.">
<polygon fill="white" stroke="#666666" points="949.5,-248.64 838.25,-248.64 838.25,-228.64 949.5,-228.64 949.5,-248.64"/>
<text text-anchor="middle" x="893.88" y="-235.14" font-family="Helvetica,sans-Serif" font-size="10.00">AELogger::writeToLog</text>
</a>
</g>
</g>
<!-- Node1&#45;&gt;Node8 -->
<g id="edge8_Node000001_Node000008" class="edge">
<title>Node1&#45;&gt;Node8</title>
<g id="a_edge8_Node000001_Node000008"><a xlink:title=" ">
<path fill="none" stroke="#63b8ff" d="M1039.44,-409.64C1005.88,-369.94 929.28,-279.34 903.52,-248.86"/>
<polygon fill="#63b8ff" stroke="#63b8ff" points="1036.53,-411.62 1045.66,-417 1041.87,-407.1 1036.53,-411.62"/>
</a>
</g>
</g>
<!-- Node3 -->
<g id="Node000003" class="node">
<title>Node3</title>
<g id="a_Node000003"><a xlink:href="../../d8/d52/class_a_e_log_parser.html#a89fbdf373de904d275768e4eb15432c7" target="_top" xlink:title="Filters the passed queue according to the given modulename.">
<polygon fill="white" stroke="#666666" points="794.75,-419.64 643,-419.64 643,-399.64 794.75,-399.64 794.75,-419.64"/>
<text text-anchor="middle" x="718.88" y="-406.14" font-family="Helvetica,sans-Serif" font-size="10.00">AELogParser::filterQueueName</text>
</a>
</g>
</g>
<!-- Node2&#45;&gt;Node3 -->
<g id="edge2_Node000002_Node000003" class="edge">
<title>Node2&#45;&gt;Node3</title>
<g id="a_edge2_Node000002_Node000003"><a xlink:title=" ">
<path fill="none" stroke="#63b8ff" d="M819.01,-420.53C811.13,-419.66 803.11,-418.78 795.22,-417.91"/>
<polygon fill="#63b8ff" stroke="#63b8ff" points="818.59,-424 828.91,-421.61 819.36,-417.04 818.59,-424"/>
</a>
</g>
</g>
<!-- Node7 -->
<g id="Node000007" class="node">
<title>Node7</title>
<g id="a_Node000007"><a xlink:href="../../d8/d52/class_a_e_log_parser.html#ae8545d9e179171cd0ea6cf462c755715" target="_top" xlink:title="Filters the passed queue according to the given severity.">
<polygon fill="white" stroke="#666666" points="792.5,-457.64 645.25,-457.64 645.25,-437.64 792.5,-437.64 792.5,-457.64"/>
<text text-anchor="middle" x="718.88" y="-444.14" font-family="Helvetica,sans-Serif" font-size="10.00">AELogParser::filterQueueType</text>
</a>
</g>
</g>
<!-- Node2&#45;&gt;Node7 -->
<g id="edge6_Node000002_Node000007" class="edge">
<title>Node2&#45;&gt;Node7</title>
<g id="a_edge6_Node000002_Node000007"><a xlink:title=" ">
<path fill="none" stroke="#63b8ff" d="M819.11,-436.74C810.41,-437.7 801.53,-438.67 792.84,-439.63"/>
<polygon fill="#63b8ff" stroke="#63b8ff" points="819.36,-440.23 828.91,-435.66 818.59,-433.28 819.36,-440.23"/>
</a>
</g>
</g>
<!-- Node3&#45;&gt;Node4 -->
<g id="edge3_Node000003_Node000004" class="edge">
<title>Node3&#45;&gt;Node4</title>
<g id="a_edge3_Node000003_Node000004"><a xlink:title=" ">
<path fill="none" stroke="#63b8ff" d="M658.22,-422.49C636.01,-427.28 611.09,-432.65 590,-437.19"/>
<polygon fill="#63b8ff" stroke="#63b8ff" points="658.69,-425.97 667.73,-420.44 657.22,-419.13 658.69,-425.97"/>
</a>
</g>
</g>
<!-- Node5 -->
<g id="Node000005" class="node">
<title>Node5</title>
<g id="a_Node000005"><a xlink:href="../../d8/d52/class_a_e_log_parser.html#ae5044cf01623156d91ddc74492b0aeda" target="_top" xlink:title="A shortcut to AELogParser::logToQueue() to filter only by the module name of the log entries.">
<polygon fill="white" stroke="#666666" points="438,-476.64 281,-476.64 281,-456.64 438,-456.64 438,-476.64"/>
<text text-anchor="middle" x="359.5" y="-463.14" font-family="Helvetica,sans-Serif" font-size="10.00">AELogParser::logToQueueName</text>
</a>
</g>
</g>
<!-- Node4&#45;&gt;Node5 -->
<g id="edge4_Node000004_Node000005" class="edge">
<title>Node4&#45;&gt;Node5</title>
<g id="a_edge4_Node000004_Node000005"><a xlink:title=" ">
<path fill="none" stroke="#63b8ff" d="M462.98,-455.76C454.83,-456.63 446.53,-457.51 438.37,-458.37"/>
<polygon fill="#63b8ff" stroke="#63b8ff" points="463.29,-459.25 472.87,-454.71 462.55,-452.29 463.29,-459.25"/>
</a>
</g>
</g>
<!-- Node6 -->
<g id="Node000006" class="node">
<title>Node6</title>
<g id="a_Node000006"><a xlink:href="../../d8/d52/class_a_e_log_parser.html#ab84bb93f08ed48082f74b00290deb308" target="_top" xlink:title="A shortcut to AELogParser::logToQueue() to filter only by type/severity of the log entries.">
<polygon fill="white" stroke="#666666" points="435.75,-438.64 283.25,-438.64 283.25,-418.64 435.75,-418.64 435.75,-438.64"/>
<text text-anchor="middle" x="359.5" y="-425.14" font-family="Helvetica,sans-Serif" font-size="10.00">AELogParser::logToQueueType</text>
</a>
</g>
</g>
<!-- Node4&#45;&gt;Node6 -->
<g id="edge5_Node000004_Node000006" class="edge">
<title>Node4&#45;&gt;Node6</title>
<g id="a_edge5_Node000004_Node000006"><a xlink:title=" ">
<path fill="none" stroke="#63b8ff" d="M463.18,-439.54C454.25,-438.59 445.14,-437.62 436.21,-436.68"/>
<polygon fill="#63b8ff" stroke="#63b8ff" points="462.55,-442.99 472.87,-440.57 463.29,-436.03 462.55,-442.99"/>
</a>
</g>
</g>
<!-- Node9 -->
<g id="Node000009" class="node">
<title>Node9</title>
<g id="a_Node000009"><a xlink:href="../../d8/dfc/class_a_e_logger.html#a134f36542cb09532588436c53df9653d" target="_top" xlink:title="Class constructor – it opens the file with the given path and name and start logging to it.">
<polygon fill="white" stroke="#666666" points="245,-143.64 137.5,-143.64 137.5,-123.64 245,-123.64 245,-143.64"/>
<text text-anchor="middle" x="191.25" y="-130.14" font-family="Helvetica,sans-Serif" font-size="10.00">AELogger::AELogger</text>
</a>
</g>
</g>
<!-- Node8&#45;&gt;Node9 -->
<g id="edge9_Node000008_Node000009" class="edge">
<title>Node8&#45;&gt;Node9</title>
<g id="a_edge9_Node000008_Node000009"><a xlink:title=" ">
<path fill="none" stroke="#63b8ff" d="M826.71,-249.79C710.95,-266.27 466.37,-287.52 281,-210.64 245.58,-195.95 214.32,-161.31 200.21,-143.94"/>
<polygon fill="#63b8ff" stroke="#63b8ff" points="826.95,-253.29 836.34,-248.38 825.94,-246.36 826.95,-253.29"/>
</a>
</g>
</g>
<!-- Node10 -->
<g id="Node000010" class="node">
<title>Node10</title>
<g id="a_Node000010"><a xlink:href="../../d8/dfc/class_a_e_logger.html#a4b6c6a8134c8f7f24db7d3f35d62624d" target="_top" xlink:title="Class destructor.">
<polygon fill="white" stroke="#666666" points="416.25,-201.64 302.75,-201.64 302.75,-181.64 416.25,-181.64 416.25,-201.64"/>
<text text-anchor="middle" x="359.5" y="-188.14" font-family="Helvetica,sans-Serif" font-size="10.00">AELogger::~AELogger</text>
</a>
</g>
</g>
<!-- Node8&#45;&gt;Node10 -->
<g id="edge10_Node000008_Node000010" class="edge">
<title>Node8&#45;&gt;Node10</title>
<g id="a_edge10_Node000008_Node000010"><a xlink:title=" ">
<path fill="none" stroke="#63b8ff" d="M826.74,-232.8C720.9,-223.46 515.32,-205.31 416.37,-196.57"/>
<polygon fill="#63b8ff" stroke="#63b8ff" points="826.13,-236.26 836.4,-233.65 826.75,-229.29 826.13,-236.26"/>
</a>
</g>
</g>
<!-- Node11 -->
<g id="Node000011" class="node">
<title>Node11</title>
<g id="a_Node000011"><a xlink:href="../../d8/dfc/class_a_e_logger.html#a2f64d8f5de2f249f7cb973a82ec1e48a" target="_top" xlink:title="Close the file, if it was opened.">
<polygon fill="white" stroke="#666666" points="592.38,-172.64 488.62,-172.64 488.62,-152.64 592.38,-152.64 592.38,-172.64"/>
<text text-anchor="middle" x="540.5" y="-159.14" font-family="Helvetica,sans-Serif" font-size="10.00">AELogger::closeLog</text>
</a>
</g>
</g>
<!-- Node8&#45;&gt;Node11 -->
<g id="edge11_Node000008_Node000011" class="edge">
<title>Node8&#45;&gt;Node11</title>
<g id="a_edge11_Node000008_Node000011"><a xlink:title=" ">
<path fill="none" stroke="#63b8ff" d="M876.12,-219.84C858.14,-201.22 827.69,-173.9 794.75,-162.64 727.77,-139.73 644.87,-145.64 592.57,-153.18"/>
<polygon fill="#63b8ff" stroke="#63b8ff" points="873.48,-222.15 882.86,-227.07 878.6,-217.37 873.48,-222.15"/>
</a>
</g>
</g>
<!-- Node12 -->
<g id="Node000012" class="node">
<title>Node12</title>
<g id="a_Node000012"><a xlink:href="../../d8/dfc/class_a_e_logger.html#a284034896688215f7e87242764c5985d" target="_top" xlink:title="Starts the log&#45;writing thread.">
<polygon fill="white" stroke="#666666" points="414.75,-115.64 304.25,-115.64 304.25,-95.64 414.75,-95.64 414.75,-115.64"/>
<text text-anchor="middle" x="359.5" y="-102.14" font-family="Helvetica,sans-Serif" font-size="10.00">AELogger::startWriter</text>
</a>
</g>
</g>
<!-- Node8&#45;&gt;Node12 -->
<g id="edge21_Node000008_Node000012" class="edge">
<title>Node8&#45;&gt;Node12</title>
<g id="a_edge21_Node000008_Node000012"><a xlink:title=" ">
<path fill="none" stroke="#63b8ff" d="M884.78,-217.83C871.36,-186.46 841.27,-127.94 794.75,-101.64 662.17,-26.7 468.45,-72.51 392.62,-95.18"/>
<polygon fill="#63b8ff" stroke="#63b8ff" points="881.51,-219.07 888.54,-227 887.99,-216.41 881.51,-219.07"/>
</a>
</g>
</g>
<!-- Node13 -->
<g id="Node000013" class="node">
<title>Node13</title>
<g id="a_Node000013"><a xlink:href="../../d8/dfc/class_a_e_logger.html#a53b588f9874535299d612a4c71de9950" target="_top" xlink:title="Open the file to start logging.">
<polygon fill="white" stroke="#666666" points="242,-86.64 140.5,-86.64 140.5,-66.64 242,-66.64 242,-86.64"/>
<text text-anchor="middle" x="191.25" y="-73.14" font-family="Helvetica,sans-Serif" font-size="10.00">AELogger::openLog</text>
</a>
</g>
</g>
<!-- Node8&#45;&gt;Node13 -->
<g id="edge20_Node000008_Node000013" class="edge">
<title>Node8&#45;&gt;Node13</title>
<g id="a_edge20_Node000008_Node000013"><a xlink:title=" ">
<path fill="none" stroke="#63b8ff" d="M888.71,-217.24C879.65,-177.3 854.03,-92.24 794.75,-56.64 602.07,59.07 308.68,-33.42 219.13,-66.24"/>
<polygon fill="#63b8ff" stroke="#63b8ff" points="885.24,-217.75 890.73,-226.81 892.09,-216.3 885.24,-217.75"/>
</a>
</g>
</g>
<!-- Node16 -->
<g id="Node000016" class="node">
<title>Node16</title>
<g id="a_Node000016"><a xlink:href="../../d8/dfc/class_a_e_logger.html#a5938787b6933f4b96ebff10643bd2497" target="_top" xlink:title="The function of the log writing thread to...read the entries, format them, write them,...">
<polygon fill="white" stroke="#666666" points="607,-115.64 474,-115.64 474,-95.64 607,-95.64 607,-115.64"/>
<text text-anchor="middle" x="540.5" y="-102.14" font-family="Helvetica,sans-Serif" font-size="10.00">AELogger::logWriterThread</text>
</a>
</g>
</g>
<!-- Node8&#45;&gt;Node16 -->
<g id="edge18_Node000008_Node000016" class="edge">
<title>Node8&#45;&gt;Node16</title>
<g id="a_edge18_Node000008_Node000016"><a xlink:title=" ">
<path fill="none" stroke="#63b8ff" d="M879.4,-219.22C862.48,-196.51 831.2,-159.72 794.75,-141.64 735.87,-112.44 660.43,-104.97 607.25,-103.86"/>
<polygon fill="#63b8ff" stroke="#63b8ff" points="876.36,-220.99 885.06,-227.05 882.04,-216.89 876.36,-220.99"/>
</a>
</g>
</g>
<!-- Node17 -->
<g id="Node000017" class="node">
<title>Node17</title>
<g id="a_Node000017"><a xlink:href="../../d8/dfc/class_a_e_logger.html#a53b212c259c40bda694476f09d1f171b" target="_top" xlink:title="Stops the log&#45;writing thread (after flushing the log queue).">
<polygon fill="white" stroke="#666666" points="773.75,-191.64 664,-191.64 664,-171.64 773.75,-171.64 773.75,-191.64"/>
<text text-anchor="middle" x="718.88" y="-178.14" font-family="Helvetica,sans-Serif" font-size="10.00">AELogger::stopWriter</text>
</a>
</g>
</g>
<!-- Node8&#45;&gt;Node17 -->
<g id="edge22_Node000008_Node000017" class="edge">
<title>Node8&#45;&gt;Node17</title>
<g id="a_edge22_Node000008_Node000017"><a xlink:title=" ">
<path fill="none" stroke="#63b8ff" d="M851.93,-224.72C834.34,-218.79 813.56,-211.82 794.75,-205.64 781,-201.12 765.8,-196.23 752.71,-192.05"/>
<polygon fill="#63b8ff" stroke="#63b8ff" points="850.39,-227.9 860.98,-227.79 852.63,-221.27 850.39,-227.9"/>
</a>
</g>
</g>
<!-- Node18 -->
<g id="Node000018" class="node">
<title>Node18</title>
<g id="a_Node000018"><a xlink:href="../../d8/dfc/class_a_e_logger.html#a42debdcd6da993064afc1f4d2357ecfb" target="_top" xlink:title="Writes the current status of the file logger instance (file name, and entries written).">
<polygon fill="white" stroke="#666666" points="775.62,-381.64 662.12,-381.64 662.12,-361.64 775.62,-361.64 775.62,-381.64"/>
<text text-anchor="middle" x="718.88" y="-368.14" font-family="Helvetica,sans-Serif" font-size="10.00">AELogger::writeStatus</text>
</a>
</g>
</g>
<!-- Node8&#45;&gt;Node18 -->
<g id="edge24_Node000008_Node000018" class="edge">
<title>Node8&#45;&gt;Node18</title>
<g id="a_edge24_Node000008_Node000018"><a xlink:title=" ">
<path fill="none" stroke="#63b8ff" d="M881.05,-258.82C864.88,-284.59 833.41,-328.71 794.75,-352.64 788.93,-356.24 782.46,-359.16 775.83,-361.53"/>
<polygon fill="#63b8ff" stroke="#63b8ff" points="884.02,-260.66 886.23,-250.3 878.04,-257.02 884.02,-260.66"/>
</a>
</g>
</g>
<!-- Node19 -->
<g id="Node000019" class="node">
<title>Node19</title>
<g id="a_Node000019"><a xlink:href="../../d8/dfc/class_a_e_logger.html#aa38725e74a352cd316126b32c614c12f" target="_top" xlink:title="Request a log entry to be written to the opened log file, using data from a log entry type.">
<polygon fill="white" stroke="#666666" points="774.5,-343.64 663.25,-343.64 663.25,-323.64 774.5,-323.64 774.5,-343.64"/>
<text text-anchor="middle" x="718.88" y="-330.14" font-family="Helvetica,sans-Serif" font-size="10.00">AELogger::writeToLog</text>
</a>
</g>
</g>
<!-- Node8&#45;&gt;Node19 -->
<g id="edge25_Node000008_Node000019" class="edge">
<title>Node8&#45;&gt;Node19</title>
<g id="a_edge25_Node000008_Node000019"><a xlink:title=" ">
<path fill="none" stroke="#63b8ff" d="M874.55,-256.64C855.93,-273.95 825.54,-299.62 794.75,-314.64 787.76,-318.05 780.09,-320.89 772.41,-323.24"/>
<polygon fill="#63b8ff" stroke="#63b8ff" points="876.75,-259.37 881.59,-249.94 871.93,-254.3 876.75,-259.37"/>
</a>
</g>
</g>
<!-- Node20 -->
<g id="Node000020" class="node">
<title>Node20</title>
<g id="a_Node000020"><a xlink:href="../../d8/dfc/class_a_e_logger.html#a50dfd96a74d13471faebd4de499db5bf" target="_top" xlink:title="Request a debug log entry to be written to the opened log file.">
<polygon fill="white" stroke="#666666" points="788.38,-305.64 649.38,-305.64 649.38,-285.64 788.38,-285.64 788.38,-305.64"/>
<text text-anchor="middle" x="718.88" y="-292.14" font-family="Helvetica,sans-Serif" font-size="10.00">AELogger::writeToLogDebug</text>
</a>
</g>
</g>
<!-- Node8&#45;&gt;Node20 -->
<g id="edge26_Node000008_Node000020" class="edge">
<title>Node8&#45;&gt;Node20</title>
<g id="a_edge26_Node000008_Node000020"><a xlink:title=" ">
<path fill="none" stroke="#63b8ff" d="M827.2,-251.99C816.37,-255.49 805.25,-259.19 794.75,-262.64 772.96,-269.79 747.52,-277.89 732.61,-285.16"/>
<polygon fill="#63b8ff" stroke="#63b8ff" points="828.01,-255.41 836.47,-249.03 825.88,-248.74 828.01,-255.41"/>
</a>
</g>
</g>
<!-- Node11&#45;&gt;Node10 -->
<g id="edge12_Node000011_Node000010" class="edge">
<title>Node11&#45;&gt;Node10</title>
<g id="a_edge12_Node000011_Node000010"><a xlink:title=" ">
<path fill="none" stroke="#63b8ff" d="M476.89,-172.78C457.23,-175.97 435.67,-179.46 416.5,-182.57"/>
<polygon fill="#63b8ff" stroke="#63b8ff" points="477.4,-176.25 486.71,-171.19 476.28,-169.34 477.4,-176.25"/>
</a>
</g>
</g>
<!-- Node11&#45;&gt;Node12 -->
<g id="edge13_Node000011_Node000012" class="edge">
<title>Node11&#45;&gt;Node12</title>
<g id="a_edge13_Node000011_Node000012"><a xlink:title=" ">
<path fill="none" stroke="#63b8ff" d="M495.97,-148.78C464.36,-138.71 422.26,-125.3 393.43,-116.12"/>
<polygon fill="#63b8ff" stroke="#63b8ff" points="494.64,-152.03 505.23,-151.73 496.76,-145.36 494.64,-152.03"/>
</a>
</g>
</g>
<!-- Node12&#45;&gt;Node9 -->
<g id="edge14_Node000012_Node000009" class="edge">
<title>Node12&#45;&gt;Node9</title>
<g id="a_edge14_Node000012_Node000009"><a xlink:title=" ">
<path fill="none" stroke="#63b8ff" d="M292.8,-116.7C277.07,-119.35 260.47,-122.15 245.39,-124.69"/>
<polygon fill="#63b8ff" stroke="#63b8ff" points="293.29,-120.17 302.57,-115.06 292.13,-113.27 293.29,-120.17"/>
</a>
</g>
</g>
<!-- Node12&#45;&gt;Node13 -->
<g id="edge15_Node000012_Node000013" class="edge">
<title>Node12&#45;&gt;Node13</title>
<g id="a_edge15_Node000012_Node000013"><a xlink:title=" ">
<path fill="none" stroke="#63b8ff" d="M293.13,-94.24C276.23,-91.29 258.29,-88.16 242.31,-85.37"/>
<polygon fill="#63b8ff" stroke="#63b8ff" points="292.12,-97.61 302.57,-95.88 293.32,-90.72 292.12,-97.61"/>
</a>
</g>
</g>
<!-- Node14 -->
<g id="Node000014" class="node">
<title>Node14</title>
<g id="a_Node000014"><a xlink:href="../../d8/dfc/class_a_e_logger.html#ac8f55a9e3c92557ea3d92974093ff6fb" target="_top" xlink:title="Open the file to start logging.">
<polygon fill="white" stroke="#666666" points="101.5,-105.64 0,-105.64 0,-85.64 101.5,-85.64 101.5,-105.64"/>
<text text-anchor="middle" x="50.75" y="-92.14" font-family="Helvetica,sans-Serif" font-size="10.00">AELogger::openLog</text>
</a>
</g>
</g>
<!-- Node13&#45;&gt;Node14 -->
<g id="edge16_Node000013_Node000014" class="edge">
<title>Node13&#45;&gt;Node14</title>
<g id="a_edge16_Node000013_Node000014"><a xlink:title=" ">
<path fill="none" stroke="#63b8ff" d="M128.87,-85.06C119.78,-86.31 110.5,-87.58 101.68,-88.79"/>
<polygon fill="#63b8ff" stroke="#63b8ff" points="129.32,-88.53 138.75,-83.7 128.37,-81.6 129.32,-88.53"/>
</a>
</g>
</g>
<!-- Node15 -->
<g id="Node000015" class="node">
<title>Node15</title>
<g id="a_Node000015"><a xlink:href="../../d8/dfc/class_a_e_logger.html#acbfddb2d8f459f32ce58d7c06cc2ddaa" target="_top" xlink:title="Open the file to start logging.">
<polygon fill="white" stroke="#666666" points="101.5,-67.64 0,-67.64 0,-47.64 101.5,-47.64 101.5,-67.64"/>
<text text-anchor="middle" x="50.75" y="-54.14" font-family="Helvetica,sans-Serif" font-size="10.00">AELogger::openLog</text>
</a>
</g>
</g>
<!-- Node13&#45;&gt;Node15 -->
<g id="edge17_Node000013_Node000015" class="edge">
<title>Node13&#45;&gt;Node15</title>
<g id="a_edge17_Node000013_Node000015"><a xlink:title=" ">
<path fill="none" stroke="#63b8ff" d="M128.87,-68.22C119.78,-66.97 110.5,-65.7 101.68,-64.49"/>
<polygon fill="#63b8ff" stroke="#63b8ff" points="128.37,-71.68 138.75,-69.57 129.32,-64.75 128.37,-71.68"/>
</a>
</g>
</g>
<!-- Node16&#45;&gt;Node12 -->
<g id="edge19_Node000016_Node000012" class="edge">
<title>Node16&#45;&gt;Node12</title>
<g id="a_edge19_Node000016_Node000012"><a xlink:title=" ">
<path fill="none" stroke="#63b8ff" d="M462.19,-105.64C446.33,-105.64 429.96,-105.64 415.1,-105.64"/>
<polygon fill="#63b8ff" stroke="#63b8ff" points="462.1,-109.14 472.1,-105.64 462.1,-102.14 462.1,-109.14"/>
</a>
</g>
</g>
<!-- Node17&#45;&gt;Node11 -->
<g id="edge23_Node000017_Node000011" class="edge">
<title>Node17&#45;&gt;Node11</title>
<g id="a_edge23_Node000017_Node000011"><a xlink:title=" ">
<path fill="none" stroke="#63b8ff" d="M652.16,-174.56C632.5,-172.44 611.24,-170.15 592.67,-168.15"/>
<polygon fill="#63b8ff" stroke="#63b8ff" points="651.7,-178.03 662.01,-175.62 652.45,-171.07 651.7,-178.03"/>
</a>
</g>
</g>
<!-- Node20&#45;&gt;Node8 -->
<g id="edge27_Node000020_Node000008" class="edge">
<title>Node20&#45;&gt;Node8</title>
<g id="a_edge27_Node000020_Node000008"><a xlink:title=" ">
<path fill="none" stroke="#63b8ff" d="M791.32,-281.76C792.47,-281.39 793.62,-281.01 794.75,-280.64 825.32,-270.6 861.11,-258.47 879.88,-249"/>
<polygon fill="#63b8ff" stroke="#63b8ff" points="790.66,-278.3 782.23,-284.71 792.82,-284.96 790.66,-278.3"/>
</a>
</g>
</g>
</g>
</svg>

<g id="navigator" transform="translate(0 0)" fill="#404254">
  <rect fill="#f2f5e9" fill-opacity="0.5" stroke="#606060" stroke-width=".5" x="0" y="0" width="60" height="60"/>
  <use id="zoomplus" xlink:href="#zoomPlus" x="17" y="9" onmousedown="handleZoom(evt,'in')"/>
  <use id="zoomminus" xlink:href="#zoomMin" x="42" y="9" onmousedown="handleZoom(evt,'out')"/>
  <use id="reset" xlink:href="#resetDef" x="30" y="36" onmousedown="handleReset()"/>
   <use id="arrowup" xlink:href="#arrowUp" x="0" y="0" onmousedown="handlePan(0,-1)"/>
  <use id="arrowright" xlink:href="#arrowRight" x="0" y="0" onmousedown="handlePan(1,0)"/>
  <use id="arrowdown" xlink:href="#arrowDown" x="0" y="0" onmousedown="handlePan(0,1)"/>
  <use id="arrowleft" xlink:href="#arrowLeft" x="0" y="0" onmousedown="handlePan(-1,0)"/>
</g>
<svg viewBox="0 0 15 15" width="100%" height="30px" preserveAspectRatio="xMaxYMin meet">
 <g id="arrow_out" transform="scale(0.3 0.3)">
  <a xlink:href="struct_a_e_log_entry_a42447b345f72f22ec655556af2db7c28_icgraph_org.svg" target="_base">
   <rect id="button" ry="5" rx="5" y="6" x="6" height="38" width="38"
        fill="#f2f5e9" fill-opacity="0.5" stroke="#606060" stroke-width="1.0"/>
   <path id="arrow"
     d="M 11.500037,31.436501 C 11.940474,20.09759 22.043105,11.32322 32.158766,21.979434 L 37.068811,17.246167 C 37.068811,17.246167 37.088388,32 37.088388,32 L 22.160133,31.978069 C 22.160133,31.978069 26.997745,27.140456 26.997745,27.140456 C 18.528582,18.264221 13.291696,25.230495 11.500037,31.436501 z"
     style="fill:#404040;"/>
  </a>
 </g>
</svg>

<style type='text/css'>
<![CDATA[
[data-mouse-over-selected='false'] { opacity: 0.7; }
[data-mouse-over-selected='true']  { opacity: 1.0; }
]]>
</style>
<script type="application/ecmascript"><![CDATA[
document.addEventListener('DOMContentLoaded', (event) => {
  highlightEdges();
  highlightAdjacentNodes();
});
]]></script>
</svg>
