<?xml version="1.0" encoding="UTF-8" standalone="no"?>
<!DOCTYPE svg PUBLIC "-//W3C//DTD SVG 1.1//EN"
 "http://www.w3.org/Graphics/SVG/1.1/DTD/svg11.dtd">
<!-- Generated by graphviz version 10.0.1 (20240210.2158)
 -->
<!-- Title: AELogEntry::parseStringEntry Pages: 1 -->
<svg width="321pt" height="142pt"
 viewBox="0.00 0.00 321.25 142.00" xmlns="http://www.w3.org/2000/svg" xmlns:xlink="http://www.w3.org/1999/xlink">
<g id="graph0" class="graph" transform="scale(1 1) rotate(0) translate(4 138)">
<title>AELogEntry::parseStringEntry</title>
<!-- Node1 -->
<g id="Node000001" class="node">
<title>Node1</title>
<g id="a_Node000001"><a xlink:title="Parses a given string as a log entry, and write it into passed entry object.">
<polygon fill="#999999" stroke="#666666" points="147.25,-77 0,-77 0,-57 147.25,-57 147.25,-77"/>
<text text-anchor="middle" x="73.62" y="-63.5" font-family="Helvetica,sans-Serif" font-size="10.00">AELogEntry::parseStringEntry</text>
</a>
</g>
</g>
<!-- Node2 -->
<g id="Node000002" class="node">
<title>Node2</title>
<g id="a_Node000002"><a xlink:href="../../da/dea/struct_a_e_log_entry.html#a58aeadbca0c2c0863b534a52d40d22a8" target="_top" xlink:title="Clears the current entry and sets its values to zero/invalid.">
<polygon fill="white" stroke="#666666" points="307.62,-134 188.88,-134 188.88,-114 307.62,-114 307.62,-134"/>
<text text-anchor="middle" x="248.25" y="-120.5" font-family="Helvetica,sans-Serif" font-size="10.00">AELogEntry::clearEntry</text>
</a>
</g>
</g>
<!-- Node1&#45;&gt;Node2 -->
<g id="edge1_Node000001_Node000002" class="edge">
<title>Node1&#45;&gt;Node2</title>
<g id="a_edge1_Node000001_Node000002"><a xlink:title=" ">
<path fill="none" stroke="#63b8ff" d="M103.09,-77.38C124.93,-85.24 155.87,-96.15 183.25,-105 188.69,-106.76 194.42,-108.55 200.11,-110.29"/>
<polygon fill="#63b8ff" stroke="#63b8ff" points="198.91,-113.58 209.49,-113.11 200.93,-106.88 198.91,-113.58"/>
</a>
</g>
</g>
<!-- Node3 -->
<g id="Node000003" class="node">
<title>Node3</title>
<g id="a_Node000003"><a xlink:href="../../de/dde/namespaceace_1_1utils.html#ac3eadc5f289b54059322023f3c5eed96" target="_top" xlink:title="Checks if the passed string is alpha&#45;numeric with underscores (contains only numbers,...">
<polygon fill="white" stroke="#666666" points="303.5,-96 193,-96 193,-76 303.5,-76 303.5,-96"/>
<text text-anchor="middle" x="248.25" y="-82.5" font-family="Helvetica,sans-Serif" font-size="10.00">ace::utils::isAlNumUs</text>
</a>
</g>
</g>
<!-- Node1&#45;&gt;Node3 -->
<g id="edge2_Node000001_Node000003" class="edge">
<title>Node1&#45;&gt;Node3</title>
<g id="a_edge2_Node000001_Node000003"><a xlink:title=" ">
<path fill="none" stroke="#63b8ff" d="M147.58,-75.03C158.78,-76.26 170.29,-77.53 181.33,-78.74"/>
<polygon fill="#63b8ff" stroke="#63b8ff" points="180.8,-82.21 191.12,-79.82 181.56,-75.25 180.8,-82.21"/>
</a>
</g>
</g>
<!-- Node4 -->
<g id="Node000004" class="node">
<title>Node4</title>
<g id="a_Node000004"><a xlink:href="../../de/dde/namespaceace_1_1utils.html#a2c0379815bc24cc369071e0b48787e9b" target="_top" xlink:title="Converts the given c&#45;string to a (c)time point (std::time_t), using a set format.">
<polygon fill="white" stroke="#666666" points="306.5,-58 190,-58 190,-38 306.5,-38 306.5,-58"/>
<text text-anchor="middle" x="248.25" y="-44.5" font-family="Helvetica,sans-Serif" font-size="10.00">ace::utils::stringToDate</text>
</a>
</g>
</g>
<!-- Node1&#45;&gt;Node4 -->
<g id="edge3_Node000001_Node000004" class="edge">
<title>Node1&#45;&gt;Node4</title>
<g id="a_edge3_Node000001_Node000004"><a xlink:title=" ">
<path fill="none" stroke="#63b8ff" d="M147.58,-58.97C157.81,-57.84 168.3,-56.69 178.45,-55.57"/>
<polygon fill="#63b8ff" stroke="#63b8ff" points="178.67,-59.07 188.23,-54.5 177.9,-52.11 178.67,-59.07"/>
</a>
</g>
</g>
<!-- Node5 -->
<g id="Node000005" class="node">
<title>Node5</title>
<g id="a_Node000005"><a xlink:href="../../da/dea/struct_a_e_log_entry.html#acacb2f1cbf3218922db05169ef55d8cb" target="_top" xlink:title="Deduces the string representation of a type (as appears in the log file) to a corresponding type numb...">
<polygon fill="white" stroke="#666666" points="313.25,-20 183.25,-20 183.25,0 313.25,0 313.25,-20"/>
<text text-anchor="middle" x="248.25" y="-6.5" font-family="Helvetica,sans-Serif" font-size="10.00">AELogEntry::stringToType</text>
</a>
</g>
</g>
<!-- Node1&#45;&gt;Node5 -->
<g id="edge4_Node000001_Node000005" class="edge">
<title>Node1&#45;&gt;Node5</title>
<g id="a_edge4_Node000001_Node000005"><a xlink:title=" ">
<path fill="none" stroke="#63b8ff" d="M103.09,-56.62C124.93,-48.76 155.87,-37.85 183.25,-29 188.69,-27.24 194.42,-25.45 200.11,-23.71"/>
<polygon fill="#63b8ff" stroke="#63b8ff" points="200.93,-27.12 209.49,-20.89 198.91,-20.42 200.93,-27.12"/>
</a>
</g>
</g>
</g>
</svg>
