<?xml version="1.0" encoding="UTF-8" standalone="no"?>
<!DOCTYPE svg PUBLIC "-//W3C//DTD SVG 1.1//EN"
 "http://www.w3.org/Graphics/SVG/1.1/DTD/svg11.dtd">
<!-- Generated by graphviz version 10.0.1 (20240210.2158)
 -->
<!-- Title: AELogEntry::formatEntry Pages: 1 -->
<svg width="1052pt" height="123pt"
 viewBox="0.00 0.00 1052.25 123.00" xmlns="http://www.w3.org/2000/svg" xmlns:xlink="http://www.w3.org/1999/xlink">
<g id="graph0" class="graph" transform="scale(1 1) rotate(0) translate(4 119)">
<title>AELogEntry::formatEntry</title>
<!-- Node1 -->
<g id="Node000001" class="node">
<title>Node1</title>
<g id="a_Node000001"><a xlink:title="Formats the passed entry to the given c&#45;string.">
<polygon fill="#999999" stroke="#666666" points="1044.25,-77 919.5,-77 919.5,-57 1044.25,-57 1044.25,-77"/>
<text text-anchor="middle" x="981.88" y="-63.5" font-family="Helvetica,sans-Serif" font-size="10.00">AELogEntry::formatEntry</text>
</a>
</g>
</g>
<!-- Node2 -->
<g id="Node000002" class="node">
<title>Node2</title>
<g id="a_Node000002"><a xlink:href="../../d8/dfc/class_a_e_logger.html#a5938787b6933f4b96ebff10643bd2497" target="_top" xlink:title="The function of the log writing thread to...read the entries, format them, write them,...">
<polygon fill="white" stroke="#666666" points="703.25,-96 570.25,-96 570.25,-76 703.25,-76 703.25,-96"/>
<text text-anchor="middle" x="636.75" y="-82.5" font-family="Helvetica,sans-Serif" font-size="10.00">AELogger::logWriterThread</text>
</a>
</g>
</g>
<!-- Node1&#45;&gt;Node2 -->
<g id="edge1_Node000001_Node000002" class="edge">
<title>Node1&#45;&gt;Node2</title>
<g id="a_edge1_Node000001_Node000002"><a xlink:title=" ">
<path fill="none" stroke="#63b8ff" d="M925.77,-79.67C912.04,-82.29 897.3,-84.67 883.5,-86 822.77,-91.87 753.21,-91.18 703.63,-89.43"/>
<polygon fill="#63b8ff" stroke="#63b8ff" points="926.42,-83.11 935.54,-77.72 925.05,-76.24 926.42,-83.11"/>
</a>
</g>
</g>
<!-- Node8 -->
<g id="Node000008" class="node">
<title>Node8</title>
<g id="a_Node000008"><a xlink:href="../../da/dea/struct_a_e_log_entry.html#ab1deb828d06f47e6de928d0a45debb0c" target="_top" xlink:title="Format the entry and convert it into std::string.">
<polygon fill="white" stroke="#666666" points="865.5,-77 757.25,-77 757.25,-57 865.5,-57 865.5,-77"/>
<text text-anchor="middle" x="811.38" y="-63.5" font-family="Helvetica,sans-Serif" font-size="10.00">AELogEntry::toString</text>
</a>
</g>
</g>
<!-- Node1&#45;&gt;Node8 -->
<g id="edge7_Node000001_Node000008" class="edge">
<title>Node1&#45;&gt;Node8</title>
<g id="a_edge7_Node000001_Node000008"><a xlink:title=" ">
<path fill="none" stroke="#63b8ff" d="M907.88,-67C893.75,-67 879.19,-67 865.82,-67"/>
<polygon fill="#63b8ff" stroke="#63b8ff" points="907.58,-70.5 917.58,-67 907.58,-63.5 907.58,-70.5"/>
</a>
</g>
</g>
<!-- Node9 -->
<g id="Node000009" class="node">
<title>Node9</title>
<g id="a_Node000009"><a xlink:href="../../d8/dfc/class_a_e_logger.html#a54bad71bcfea05c3d17d7ba1bacfec8c" target="_top" xlink:title="Writes to log directly, without thinking of the queue.">
<polygon fill="white" stroke="#666666" points="883.5,-39 739.25,-39 739.25,-19 883.5,-19 883.5,-39"/>
<text text-anchor="middle" x="811.38" y="-25.5" font-family="Helvetica,sans-Serif" font-size="10.00">AELogger::writeToLogDirectly</text>
</a>
</g>
</g>
<!-- Node1&#45;&gt;Node9 -->
<g id="edge8_Node000001_Node000009" class="edge">
<title>Node1&#45;&gt;Node9</title>
<g id="a_edge8_Node000001_Node000009"><a xlink:title=" ">
<path fill="none" stroke="#63b8ff" d="M923.3,-54.02C902.23,-49.26 878.68,-43.95 858.71,-39.45"/>
<polygon fill="#63b8ff" stroke="#63b8ff" points="922.38,-57.4 932.91,-56.18 923.92,-50.57 922.38,-57.4"/>
</a>
</g>
</g>
<!-- Node3 -->
<g id="Node000003" class="node">
<title>Node3</title>
<g id="a_Node000003"><a xlink:href="../../d8/dfc/class_a_e_logger.html#a284034896688215f7e87242764c5985d" target="_top" xlink:title="Starts the log&#45;writing thread.">
<polygon fill="white" stroke="#666666" points="393,-96 282.5,-96 282.5,-76 393,-76 393,-96"/>
<text text-anchor="middle" x="337.75" y="-82.5" font-family="Helvetica,sans-Serif" font-size="10.00">AELogger::startWriter</text>
</a>
</g>
</g>
<!-- Node2&#45;&gt;Node3 -->
<g id="edge2_Node000002_Node000003" class="edge">
<title>Node2&#45;&gt;Node3</title>
<g id="a_edge2_Node000002_Node000003"><a xlink:title=" ">
<path fill="none" stroke="#63b8ff" d="M558.33,-86C506.42,-86 439.34,-86 393.06,-86"/>
<polygon fill="#63b8ff" stroke="#63b8ff" points="558.32,-89.5 568.32,-86 558.32,-82.5 558.32,-89.5"/>
</a>
</g>
</g>
<!-- Node4 -->
<g id="Node000004" class="node">
<title>Node4</title>
<g id="a_Node000004"><a xlink:href="../../d8/dfc/class_a_e_logger.html#a134f36542cb09532588436c53df9653d" target="_top" xlink:title="Class constructor – it opens the file with the given path and name and start logging to it.">
<polygon fill="white" stroke="#666666" points="245,-115 137.5,-115 137.5,-95 245,-95 245,-115"/>
<text text-anchor="middle" x="191.25" y="-101.5" font-family="Helvetica,sans-Serif" font-size="10.00">AELogger::AELogger</text>
</a>
</g>
</g>
<!-- Node3&#45;&gt;Node4 -->
<g id="edge3_Node000003_Node000004" class="edge">
<title>Node3&#45;&gt;Node4</title>
<g id="a_edge3_Node000003_Node000004"><a xlink:title=" ">
<path fill="none" stroke="#63b8ff" d="M270.86,-94.66C262.21,-95.8 253.44,-96.95 245.04,-98.06"/>
<polygon fill="#63b8ff" stroke="#63b8ff" points="271.16,-98.15 280.62,-93.38 270.25,-91.21 271.16,-98.15"/>
</a>
</g>
</g>
<!-- Node5 -->
<g id="Node000005" class="node">
<title>Node5</title>
<g id="a_Node000005"><a xlink:href="../../d8/dfc/class_a_e_logger.html#a53b588f9874535299d612a4c71de9950" target="_top" xlink:title="Open the file to start logging.">
<polygon fill="white" stroke="#666666" points="242,-77 140.5,-77 140.5,-57 242,-57 242,-77"/>
<text text-anchor="middle" x="191.25" y="-63.5" font-family="Helvetica,sans-Serif" font-size="10.00">AELogger::openLog</text>
</a>
</g>
</g>
<!-- Node3&#45;&gt;Node5 -->
<g id="edge4_Node000003_Node000005" class="edge">
<title>Node3&#45;&gt;Node5</title>
<g id="a_edge4_Node000003_Node000005"><a xlink:title=" ">
<path fill="none" stroke="#63b8ff" d="M270.91,-77.34C261.26,-76.07 251.46,-74.79 242.2,-73.57"/>
<polygon fill="#63b8ff" stroke="#63b8ff" points="270.25,-80.79 280.62,-78.62 271.16,-73.85 270.25,-80.79"/>
</a>
</g>
</g>
<!-- Node6 -->
<g id="Node000006" class="node">
<title>Node6</title>
<g id="a_Node000006"><a xlink:href="../../d8/dfc/class_a_e_logger.html#ac8f55a9e3c92557ea3d92974093ff6fb" target="_top" xlink:title="Open the file to start logging.">
<polygon fill="white" stroke="#666666" points="101.5,-96 0,-96 0,-76 101.5,-76 101.5,-96"/>
<text text-anchor="middle" x="50.75" y="-82.5" font-family="Helvetica,sans-Serif" font-size="10.00">AELogger::openLog</text>
</a>
</g>
</g>
<!-- Node5&#45;&gt;Node6 -->
<g id="edge5_Node000005_Node000006" class="edge">
<title>Node5&#45;&gt;Node6</title>
<g id="a_edge5_Node000005_Node000006"><a xlink:title=" ">
<path fill="none" stroke="#63b8ff" d="M128.87,-75.42C119.78,-76.67 110.5,-77.94 101.68,-79.15"/>
<polygon fill="#63b8ff" stroke="#63b8ff" points="129.32,-78.89 138.75,-74.07 128.37,-71.96 129.32,-78.89"/>
</a>
</g>
</g>
<!-- Node7 -->
<g id="Node000007" class="node">
<title>Node7</title>
<g id="a_Node000007"><a xlink:href="../../d8/dfc/class_a_e_logger.html#acbfddb2d8f459f32ce58d7c06cc2ddaa" target="_top" xlink:title="Open the file to start logging.">
<polygon fill="white" stroke="#666666" points="101.5,-58 0,-58 0,-38 101.5,-38 101.5,-58"/>
<text text-anchor="middle" x="50.75" y="-44.5" font-family="Helvetica,sans-Serif" font-size="10.00">AELogger::openLog</text>
</a>
</g>
</g>
<!-- Node5&#45;&gt;Node7 -->
<g id="edge6_Node000005_Node000007" class="edge">
<title>Node5&#45;&gt;Node7</title>
<g id="a_edge6_Node000005_Node000007"><a xlink:title=" ">
<path fill="none" stroke="#63b8ff" d="M128.87,-58.58C119.78,-57.33 110.5,-56.06 101.68,-54.85"/>
<polygon fill="#63b8ff" stroke="#63b8ff" points="128.37,-62.04 138.75,-59.93 129.32,-55.11 128.37,-62.04"/>
</a>
</g>
</g>
<!-- Node9&#45;&gt;Node2 -->
<g id="edge12_Node000009_Node000002" class="edge">
<title>Node9&#45;&gt;Node2</title>
<g id="a_edge12_Node000009_Node000002"><a xlink:title=" ">
<path fill="none" stroke="#63b8ff" d="M757.17,-42.53C751.1,-44.27 745.02,-46.11 739.25,-48 722.93,-53.33 719.31,-55.94 703.25,-62 691.24,-66.54 677.95,-71.43 666.49,-75.61"/>
<polygon fill="#63b8ff" stroke="#63b8ff" points="757.88,-45.96 766.57,-39.9 756,-39.22 757.88,-45.96"/>
</a>
</g>
</g>
<!-- Node10 -->
<g id="Node000010" class="node">
<title>Node10</title>
<g id="a_Node000010"><a xlink:href="../../d8/dfc/class_a_e_logger.html#a2f64d8f5de2f249f7cb973a82ec1e48a" target="_top" xlink:title="Close the file, if it was opened.">
<polygon fill="white" stroke="#666666" points="534.25,-58 430.5,-58 430.5,-38 534.25,-38 534.25,-58"/>
<text text-anchor="middle" x="482.38" y="-44.5" font-family="Helvetica,sans-Serif" font-size="10.00">AELogger::closeLog</text>
</a>
</g>
</g>
<!-- Node9&#45;&gt;Node10 -->
<g id="edge9_Node000009_Node000010" class="edge">
<title>Node9&#45;&gt;Node10</title>
<g id="a_edge9_Node000009_Node000010"><a xlink:title=" ">
<path fill="none" stroke="#63b8ff" d="M727.53,-33.81C666.78,-37.34 586.2,-42.03 534.56,-45.03"/>
<polygon fill="#63b8ff" stroke="#63b8ff" points="727.73,-37.31 737.51,-33.23 727.32,-30.32 727.73,-37.31"/>
</a>
</g>
</g>
<!-- Node12 -->
<g id="Node000012" class="node">
<title>Node12</title>
<g id="a_Node000012"><a xlink:href="../../d8/dfc/class_a_e_logger.html#a53b212c259c40bda694476f09d1f171b" target="_top" xlink:title="Stops the log&#45;writing thread (after flushing the log queue).">
<polygon fill="white" stroke="#666666" points="691.62,-20 581.88,-20 581.88,0 691.62,0 691.62,-20"/>
<text text-anchor="middle" x="636.75" y="-6.5" font-family="Helvetica,sans-Serif" font-size="10.00">AELogger::stopWriter</text>
</a>
</g>
</g>
<!-- Node9&#45;&gt;Node12 -->
<g id="edge13_Node000009_Node000012" class="edge">
<title>Node9&#45;&gt;Node12</title>
<g id="a_edge13_Node000009_Node000012"><a xlink:title=" ">
<path fill="none" stroke="#63b8ff" d="M727.98,-19.93C715.73,-18.58 703.38,-17.22 691.91,-15.96"/>
<polygon fill="#63b8ff" stroke="#63b8ff" points="727.34,-23.38 737.66,-21 728.1,-16.42 727.34,-23.38"/>
</a>
</g>
</g>
<!-- Node10&#45;&gt;Node3 -->
<g id="edge11_Node000010_Node000003" class="edge">
<title>Node10&#45;&gt;Node3</title>
<g id="a_edge11_Node000010_Node000003"><a xlink:title=" ">
<path fill="none" stroke="#63b8ff" d="M430.91,-61.45C413.52,-66.08 394.33,-71.19 377.97,-75.55"/>
<polygon fill="#63b8ff" stroke="#63b8ff" points="431.8,-64.83 440.56,-58.87 430,-58.07 431.8,-64.83"/>
</a>
</g>
</g>
<!-- Node11 -->
<g id="Node000011" class="node">
<title>Node11</title>
<g id="a_Node000011"><a xlink:href="../../d8/dfc/class_a_e_logger.html#a4b6c6a8134c8f7f24db7d3f35d62624d" target="_top" xlink:title="Class destructor.">
<polygon fill="white" stroke="#666666" points="394.5,-58 281,-58 281,-38 394.5,-38 394.5,-58"/>
<text text-anchor="middle" x="337.75" y="-44.5" font-family="Helvetica,sans-Serif" font-size="10.00">AELogger::~AELogger</text>
</a>
</g>
</g>
<!-- Node10&#45;&gt;Node11 -->
<g id="edge10_Node000010_Node000011" class="edge">
<title>Node10&#45;&gt;Node11</title>
<g id="a_edge10_Node000010_Node000011"><a xlink:title=" ">
<path fill="none" stroke="#63b8ff" d="M419.03,-48C410.97,-48 402.75,-48 394.8,-48"/>
<polygon fill="#63b8ff" stroke="#63b8ff" points="418.77,-51.5 428.77,-48 418.77,-44.5 418.77,-51.5"/>
</a>
</g>
</g>
<!-- Node12&#45;&gt;Node10 -->
<g id="edge14_Node000012_Node000010" class="edge">
<title>Node12&#45;&gt;Node10</title>
<g id="a_edge14_Node000012_Node000010"><a xlink:title=" ">
<path fill="none" stroke="#63b8ff" d="M582.63,-23.25C563.85,-27.93 543,-33.13 525.28,-37.55"/>
<polygon fill="#63b8ff" stroke="#63b8ff" points="583.39,-26.67 592.24,-20.85 581.69,-19.87 583.39,-26.67"/>
</a>
</g>
</g>
</g>
</svg>
