<?xml version="1.0" encoding="UTF-8" standalone="no"?>
<!DOCTYPE svg PUBLIC "-//W3C//DTD SVG 1.1//EN"
 "http://www.w3.org/Graphics/SVG/1.1/DTD/svg11.dtd">
<!-- Generated by graphviz version 10.0.1 (20240210.2158)
 -->
<!-- Title: AELogEntry::clearEntry Pages: 1 -->
<svg width="844pt" height="180pt"
 viewBox="0.00 0.00 844.00 180.00" xmlns="http://www.w3.org/2000/svg" xmlns:xlink="http://www.w3.org/1999/xlink">
<g id="graph0" class="graph" transform="scale(1 1) rotate(0) translate(4 176)">
<title>AELogEntry::clearEntry</title>
<!-- Node1 -->
<g id="Node000001" class="node">
<title>Node1</title>
<g id="a_Node000001"><a xlink:title="Clears the current entry and sets its values to zero/invalid.">
<polygon fill="#999999" stroke="#666666" points="836,-87 717.25,-87 717.25,-67 836,-67 836,-87"/>
<text text-anchor="middle" x="776.62" y="-73.5" font-family="Helvetica,sans-Serif" font-size="10.00">AELogEntry::clearEntry</text>
</a>
</g>
</g>
<!-- Node2 -->
<g id="Node000002" class="node">
<title>Node2</title>
<g id="a_Node000002"><a xlink:href="../../d8/dfc/class_a_e_logger.html#a5938787b6933f4b96ebff10643bd2497" target="_top" xlink:title="The function of the log writing thread to...read the entries, format them, write them,...">
<polygon fill="white" stroke="#666666" points="674.12,-115 541.12,-115 541.12,-95 674.12,-95 674.12,-115"/>
<text text-anchor="middle" x="607.62" y="-101.5" font-family="Helvetica,sans-Serif" font-size="10.00">AELogger::logWriterThread</text>
</a>
</g>
</g>
<!-- Node1&#45;&gt;Node2 -->
<g id="edge1_Node000001_Node000002" class="edge">
<title>Node1&#45;&gt;Node2</title>
<g id="a_edge1_Node000001_Node000002"><a xlink:title=" ">
<path fill="none" stroke="#63b8ff" d="M706.17,-88.64C694.5,-90.6 682.45,-92.62 670.98,-94.55"/>
<polygon fill="#63b8ff" stroke="#63b8ff" points="706.44,-92.15 715.72,-87.04 705.28,-85.25 706.44,-92.15"/>
</a>
</g>
</g>
<!-- Node8 -->
<g id="Node000008" class="node">
<title>Node8</title>
<g id="a_Node000008"><a xlink:href="../../da/dea/struct_a_e_log_entry.html#a7e8aa04faf251d62a79baab9e2cc531a" target="_top" xlink:title="Parses a given string as a log entry, and write it into passed entry object.">
<polygon fill="white" stroke="#666666" points="681.25,-68 534,-68 534,-48 681.25,-48 681.25,-68"/>
<text text-anchor="middle" x="607.62" y="-54.5" font-family="Helvetica,sans-Serif" font-size="10.00">AELogEntry::parseStringEntry</text>
</a>
</g>
</g>
<!-- Node1&#45;&gt;Node8 -->
<g id="edge7_Node000001_Node000008" class="edge">
<title>Node1&#45;&gt;Node8</title>
<g id="a_edge7_Node000001_Node000008"><a xlink:title=" ">
<path fill="none" stroke="#63b8ff" d="M706.01,-69.08C697.97,-68.17 689.76,-67.23 681.68,-66.31"/>
<polygon fill="#63b8ff" stroke="#63b8ff" points="705.38,-72.53 715.71,-70.18 706.17,-65.58 705.38,-72.53"/>
</a>
</g>
</g>
<!-- Node3 -->
<g id="Node000003" class="node">
<title>Node3</title>
<g id="a_Node000003"><a xlink:href="../../d8/dfc/class_a_e_logger.html#a284034896688215f7e87242764c5985d" target="_top" xlink:title="Starts the log&#45;writing thread.">
<polygon fill="white" stroke="#666666" points="492.38,-134 381.88,-134 381.88,-114 492.38,-114 492.38,-134"/>
<text text-anchor="middle" x="437.12" y="-120.5" font-family="Helvetica,sans-Serif" font-size="10.00">AELogger::startWriter</text>
</a>
</g>
</g>
<!-- Node2&#45;&gt;Node3 -->
<g id="edge2_Node000002_Node000003" class="edge">
<title>Node2&#45;&gt;Node3</title>
<g id="a_edge2_Node000002_Node000003"><a xlink:title=" ">
<path fill="none" stroke="#63b8ff" d="M529.63,-113.68C517.16,-115.09 504.47,-116.52 492.67,-117.85"/>
<polygon fill="#63b8ff" stroke="#63b8ff" points="529.95,-117.17 539.49,-112.57 529.16,-110.21 529.95,-117.17"/>
</a>
</g>
</g>
<!-- Node4 -->
<g id="Node000004" class="node">
<title>Node4</title>
<g id="a_Node000004"><a xlink:href="../../d8/dfc/class_a_e_logger.html#a134f36542cb09532588436c53df9653d" target="_top" xlink:title="Class constructor – it opens the file with the given path and name and start logging to it.">
<polygon fill="white" stroke="#666666" points="320.38,-172 212.88,-172 212.88,-152 320.38,-152 320.38,-172"/>
<text text-anchor="middle" x="266.62" y="-158.5" font-family="Helvetica,sans-Serif" font-size="10.00">AELogger::AELogger</text>
</a>
</g>
</g>
<!-- Node3&#45;&gt;Node4 -->
<g id="edge3_Node000003_Node000004" class="edge">
<title>Node3&#45;&gt;Node4</title>
<g id="a_edge3_Node000003_Node000004"><a xlink:title=" ">
<path fill="none" stroke="#63b8ff" d="M378.55,-136.98C357.48,-141.74 333.93,-147.05 313.96,-151.55"/>
<polygon fill="#63b8ff" stroke="#63b8ff" points="379.17,-140.43 388.16,-134.82 377.63,-133.6 379.17,-140.43"/>
</a>
</g>
</g>
<!-- Node5 -->
<g id="Node000005" class="node">
<title>Node5</title>
<g id="a_Node000005"><a xlink:href="../../d8/dfc/class_a_e_logger.html#a53b588f9874535299d612a4c71de9950" target="_top" xlink:title="Open the file to start logging.">
<polygon fill="white" stroke="#666666" points="317.38,-134 215.88,-134 215.88,-114 317.38,-114 317.38,-134"/>
<text text-anchor="middle" x="266.62" y="-120.5" font-family="Helvetica,sans-Serif" font-size="10.00">AELogger::openLog</text>
</a>
</g>
</g>
<!-- Node3&#45;&gt;Node5 -->
<g id="edge4_Node000003_Node000005" class="edge">
<title>Node3&#45;&gt;Node5</title>
<g id="a_edge4_Node000003_Node000005"><a xlink:title=" ">
<path fill="none" stroke="#63b8ff" d="M370.16,-124C352.74,-124 334.22,-124 317.78,-124"/>
<polygon fill="#63b8ff" stroke="#63b8ff" points="369.9,-127.5 379.9,-124 369.9,-120.5 369.9,-127.5"/>
</a>
</g>
</g>
<!-- Node6 -->
<g id="Node000006" class="node">
<title>Node6</title>
<g id="a_Node000006"><a xlink:href="../../d8/dfc/class_a_e_logger.html#ac8f55a9e3c92557ea3d92974093ff6fb" target="_top" xlink:title="Open the file to start logging.">
<polygon fill="white" stroke="#666666" points="129.25,-172 27.75,-172 27.75,-152 129.25,-152 129.25,-172"/>
<text text-anchor="middle" x="78.5" y="-158.5" font-family="Helvetica,sans-Serif" font-size="10.00">AELogger::openLog</text>
</a>
</g>
</g>
<!-- Node5&#45;&gt;Node6 -->
<g id="edge5_Node000005_Node000006" class="edge">
<title>Node5&#45;&gt;Node6</title>
<g id="a_edge5_Node000005_Node000006"><a xlink:title=" ">
<path fill="none" stroke="#63b8ff" d="M204.48,-136.48C180.19,-141.44 152.59,-147.08 129.52,-151.79"/>
<polygon fill="#63b8ff" stroke="#63b8ff" points="205.17,-139.92 214.26,-134.49 203.77,-133.06 205.17,-139.92"/>
</a>
</g>
</g>
<!-- Node7 -->
<g id="Node000007" class="node">
<title>Node7</title>
<g id="a_Node000007"><a xlink:href="../../d8/dfc/class_a_e_logger.html#acbfddb2d8f459f32ce58d7c06cc2ddaa" target="_top" xlink:title="Open the file to start logging.">
<polygon fill="white" stroke="#666666" points="129.25,-134 27.75,-134 27.75,-114 129.25,-114 129.25,-134"/>
<text text-anchor="middle" x="78.5" y="-120.5" font-family="Helvetica,sans-Serif" font-size="10.00">AELogger::openLog</text>
</a>
</g>
</g>
<!-- Node5&#45;&gt;Node7 -->
<g id="edge6_Node000005_Node000007" class="edge">
<title>Node5&#45;&gt;Node7</title>
<g id="a_edge6_Node000005_Node000007"><a xlink:title=" ">
<path fill="none" stroke="#63b8ff" d="M204.48,-124C180.19,-124 152.59,-124 129.52,-124"/>
<polygon fill="#63b8ff" stroke="#63b8ff" points="204.23,-127.5 214.23,-124 204.23,-120.5 204.23,-127.5"/>
</a>
</g>
</g>
<!-- Node9 -->
<g id="Node000009" class="node">
<title>Node9</title>
<g id="a_Node000009"><a xlink:href="../../d8/d52/class_a_e_log_parser.html#af3c28f50c5f52840be97e631d67b244c" target="_top" xlink:title="Read the next valid entry in the log file of the given severity and module name filter,...">
<polygon fill="white" stroke="#666666" points="498,-68 376.25,-68 376.25,-48 498,-48 498,-68"/>
<text text-anchor="middle" x="437.12" y="-54.5" font-family="Helvetica,sans-Serif" font-size="10.00">AELogParser::nextEntry</text>
</a>
</g>
</g>
<!-- Node8&#45;&gt;Node9 -->
<g id="edge8_Node000008_Node000009" class="edge">
<title>Node8&#45;&gt;Node9</title>
<g id="a_edge8_Node000008_Node000009"><a xlink:title=" ">
<path fill="none" stroke="#63b8ff" d="M522.27,-58C514.16,-58 506.06,-58 498.26,-58"/>
<polygon fill="#63b8ff" stroke="#63b8ff" points="522.18,-61.5 532.18,-58 522.18,-54.5 522.18,-61.5"/>
</a>
</g>
</g>
<!-- Node15 -->
<g id="Node000015" class="node">
<title>Node15</title>
<g id="a_Node000015"><a xlink:href="../../d8/d52/class_a_e_log_parser.html#a8e90913ac25c938e2e84a9887c5bae66" target="_top" xlink:title="Opens the log file, reading and parsing every single entry, classifying it by type.">
<polygon fill="white" stroke="#666666" points="495.38,-30 378.88,-30 378.88,-10 495.38,-10 495.38,-30"/>
<text text-anchor="middle" x="437.12" y="-16.5" font-family="Helvetica,sans-Serif" font-size="10.00">AELogParser::openLog</text>
</a>
</g>
</g>
<!-- Node8&#45;&gt;Node15 -->
<g id="edge14_Node000008_Node000015" class="edge">
<title>Node8&#45;&gt;Node15</title>
<g id="a_edge14_Node000008_Node000015"><a xlink:title=" ">
<path fill="none" stroke="#63b8ff" d="M549.05,-45.02C527.98,-40.26 504.43,-34.95 484.46,-30.45"/>
<polygon fill="#63b8ff" stroke="#63b8ff" points="548.13,-48.4 558.66,-47.18 549.67,-41.57 548.13,-48.4"/>
</a>
</g>
</g>
<!-- Node10 -->
<g id="Node000010" class="node">
<title>Node10</title>
<g id="a_Node000010"><a xlink:href="../../d8/d52/class_a_e_log_parser.html#a182d51b4aa5771e2e6f6919300e571ca" target="_top" xlink:title="Same as the AELogParser::nextEntry() but on massive scale – scans the whole log file and parses it to...">
<polygon fill="white" stroke="#666666" points="332.38,-96 200.88,-96 200.88,-76 332.38,-76 332.38,-96"/>
<text text-anchor="middle" x="266.62" y="-82.5" font-family="Helvetica,sans-Serif" font-size="10.00">AELogParser::logToQueue</text>
</a>
</g>
</g>
<!-- Node9&#45;&gt;Node10 -->
<g id="edge9_Node000009_Node000010" class="edge">
<title>Node9&#45;&gt;Node10</title>
<g id="a_edge9_Node000009_Node000010"><a xlink:title=" ">
<path fill="none" stroke="#63b8ff" d="M364.63,-69.88C353.35,-71.76 341.76,-73.68 330.69,-75.52"/>
<polygon fill="#63b8ff" stroke="#63b8ff" points="364.98,-73.37 374.28,-68.28 363.84,-66.46 364.98,-73.37"/>
</a>
</g>
</g>
<!-- Node13 -->
<g id="Node000013" class="node">
<title>Node13</title>
<g id="a_Node000013"><a xlink:href="../../d8/d52/class_a_e_log_parser.html#a768d4b94cbf1504d72f93ec5d131e915" target="_top" xlink:title="Read the next valid entry in the log file of the given module name, and parse it into the given AELog...">
<polygon fill="white" stroke="#666666" points="340.25,-58 193,-58 193,-38 340.25,-38 340.25,-58"/>
<text text-anchor="middle" x="266.62" y="-44.5" font-family="Helvetica,sans-Serif" font-size="10.00">AELogParser::nextEntryName</text>
</a>
</g>
</g>
<!-- Node9&#45;&gt;Node13 -->
<g id="edge12_Node000009_Node000013" class="edge">
<title>Node9&#45;&gt;Node13</title>
<g id="a_edge12_Node000009_Node000013"><a xlink:title=" ">
<path fill="none" stroke="#63b8ff" d="M364.35,-53.74C356.46,-53.27 348.42,-52.79 340.51,-52.33"/>
<polygon fill="#63b8ff" stroke="#63b8ff" points="364.07,-57.23 374.26,-54.33 364.48,-50.24 364.07,-57.23"/>
</a>
</g>
</g>
<!-- Node14 -->
<g id="Node000014" class="node">
<title>Node14</title>
<g id="a_Node000014"><a xlink:href="../../d8/d52/class_a_e_log_parser.html#a0e03f67c2a0eaa0317904a2bd9f70cc0" target="_top" xlink:title="Read the next valid entry in the log file of the given severity, and parse it to the given AELogEntry...">
<polygon fill="white" stroke="#666666" points="338,-20 195.25,-20 195.25,0 338,0 338,-20"/>
<text text-anchor="middle" x="266.62" y="-6.5" font-family="Helvetica,sans-Serif" font-size="10.00">AELogParser::nextEntryType</text>
</a>
</g>
</g>
<!-- Node9&#45;&gt;Node14 -->
<g id="edge13_Node000009_Node000014" class="edge">
<title>Node9&#45;&gt;Node14</title>
<g id="a_edge13_Node000009_Node000014"><a xlink:title=" ">
<path fill="none" stroke="#63b8ff" d="M392.11,-44.3C375.85,-39.35 357.25,-33.79 340.25,-29 330.09,-26.14 319.09,-23.18 308.79,-20.48"/>
<polygon fill="#63b8ff" stroke="#63b8ff" points="390.9,-47.6 401.49,-47.18 392.96,-40.9 390.9,-47.6"/>
</a>
</g>
</g>
<!-- Node11 -->
<g id="Node000011" class="node">
<title>Node11</title>
<g id="a_Node000011"><a xlink:href="../../d8/d52/class_a_e_log_parser.html#ae5044cf01623156d91ddc74492b0aeda" target="_top" xlink:title="A shortcut to AELogParser::logToQueue() to filter only by the module name of the log entries.">
<polygon fill="white" stroke="#666666" points="157,-96 0,-96 0,-76 157,-76 157,-96"/>
<text text-anchor="middle" x="78.5" y="-82.5" font-family="Helvetica,sans-Serif" font-size="10.00">AELogParser::logToQueueName</text>
</a>
</g>
</g>
<!-- Node10&#45;&gt;Node11 -->
<g id="edge10_Node000010_Node000011" class="edge">
<title>Node10&#45;&gt;Node11</title>
<g id="a_edge10_Node000010_Node000011"><a xlink:title=" ">
<path fill="none" stroke="#63b8ff" d="M189.25,-86C178.72,-86 167.9,-86 157.35,-86"/>
<polygon fill="#63b8ff" stroke="#63b8ff" points="189.01,-89.5 199.01,-86 189.01,-82.5 189.01,-89.5"/>
</a>
</g>
</g>
<!-- Node12 -->
<g id="Node000012" class="node">
<title>Node12</title>
<g id="a_Node000012"><a xlink:href="../../d8/d52/class_a_e_log_parser.html#ab84bb93f08ed48082f74b00290deb308" target="_top" xlink:title="A shortcut to AELogParser::logToQueue() to filter only by type/severity of the log entries.">
<polygon fill="white" stroke="#666666" points="154.75,-58 2.25,-58 2.25,-38 154.75,-38 154.75,-58"/>
<text text-anchor="middle" x="78.5" y="-44.5" font-family="Helvetica,sans-Serif" font-size="10.00">AELogParser::logToQueueType</text>
</a>
</g>
</g>
<!-- Node10&#45;&gt;Node12 -->
<g id="edge11_Node000010_Node000012" class="edge">
<title>Node10&#45;&gt;Node12</title>
<g id="a_edge11_Node000010_Node000012"><a xlink:title=" ">
<path fill="none" stroke="#63b8ff" d="M202.99,-73.21C179.47,-68.41 153.04,-63.01 130.68,-58.45"/>
<polygon fill="#63b8ff" stroke="#63b8ff" points="202.29,-76.64 212.79,-75.21 203.69,-69.78 202.29,-76.64"/>
</a>
</g>
</g>
</g>
</svg>
