<?xml version="1.0" encoding="UTF-8" standalone="no"?>
<!DOCTYPE svg PUBLIC "-//W3C//DTD SVG 1.1//EN"
 "http://www.w3.org/Graphics/SVG/1.1/DTD/svg11.dtd">
<!-- Generated by graphviz version 10.0.1 (20240210.2158)
 -->
<!-- Title: AELogEntry::copyEntry Pages: 1 -->
<svg width="837pt" height="104pt"
 viewBox="0.00 0.00 837.25 104.00" xmlns="http://www.w3.org/2000/svg" xmlns:xlink="http://www.w3.org/1999/xlink">
<g id="graph0" class="graph" transform="scale(1 1) rotate(0) translate(4 100)">
<title>AELogEntry::copyEntry</title>
<!-- Node1 -->
<g id="Node000001" class="node">
<title>Node1</title>
<g id="a_Node000001"><a xlink:title="Makes a normal copy of the log entry, copying everything but the pointer to the next node.">
<polygon fill="#999999" stroke="#666666" points="829.25,-39 710.5,-39 710.5,-19 829.25,-19 829.25,-39"/>
<text text-anchor="middle" x="769.88" y="-25.5" font-family="Helvetica,sans-Serif" font-size="10.00">AELogEntry::copyEntry</text>
</a>
</g>
</g>
<!-- Node2 -->
<g id="Node000002" class="node">
<title>Node2</title>
<g id="a_Node000002"><a xlink:href="../../d8/d52/class_a_e_log_parser.html#a7c3e2c0736eb6a3ccd84a528d72835ad" target="_top" xlink:title="Filters the passed queue according to the given severity and modulename filters.">
<polygon fill="white" stroke="#666666" points="674.5,-58 548.25,-58 548.25,-38 674.5,-38 674.5,-58"/>
<text text-anchor="middle" x="611.38" y="-44.5" font-family="Helvetica,sans-Serif" font-size="10.00">AELogParser::filterQueue</text>
</a>
</g>
</g>
<!-- Node1&#45;&gt;Node2 -->
<g id="edge1_Node000001_Node000002" class="edge">
<title>Node1&#45;&gt;Node2</title>
<g id="a_edge1_Node000001_Node000002"><a xlink:title=" ">
<path fill="none" stroke="#63b8ff" d="M698.92,-37.49C690.89,-38.47 682.75,-39.46 674.83,-40.42"/>
<polygon fill="#63b8ff" stroke="#63b8ff" points="699.15,-40.99 708.65,-36.31 698.3,-34.04 699.15,-40.99"/>
</a>
</g>
</g>
<!-- Node8 -->
<g id="Node000008" class="node">
<title>Node8</title>
<g id="a_Node000008"><a xlink:href="../../da/dea/struct_a_e_log_entry.html#a3efc3c9dfa634124436c0c1fd51c4771" target="_top" xlink:title="Copy assignment operator – copies data from the passed node.">
<polygon fill="white" stroke="#666666" points="669.25,-20 553.5,-20 553.5,0 669.25,0 669.25,-20"/>
<text text-anchor="middle" x="611.38" y="-6.5" font-family="Helvetica,sans-Serif" font-size="10.00">AELogEntry::operator=</text>
</a>
</g>
</g>
<!-- Node1&#45;&gt;Node8 -->
<g id="edge7_Node000001_Node000008" class="edge">
<title>Node1&#45;&gt;Node8</title>
<g id="a_edge7_Node000001_Node000008"><a xlink:title=" ">
<path fill="none" stroke="#63b8ff" d="M698.81,-20.49C689.04,-19.31 679.1,-18.1 669.61,-16.95"/>
<polygon fill="#63b8ff" stroke="#63b8ff" points="698.3,-23.96 708.65,-21.69 699.15,-17.01 698.3,-23.96"/>
</a>
</g>
</g>
<!-- Node3 -->
<g id="Node000003" class="node">
<title>Node3</title>
<g id="a_Node000003"><a xlink:href="../../d8/d52/class_a_e_log_parser.html#a89fbdf373de904d275768e4eb15432c7" target="_top" xlink:title="Filters the passed queue according to the given modulename.">
<polygon fill="white" stroke="#666666" points="512.25,-77 360.5,-77 360.5,-57 512.25,-57 512.25,-77"/>
<text text-anchor="middle" x="436.38" y="-63.5" font-family="Helvetica,sans-Serif" font-size="10.00">AELogParser::filterQueueName</text>
</a>
</g>
</g>
<!-- Node2&#45;&gt;Node3 -->
<g id="edge2_Node000002_Node000003" class="edge">
<title>Node2&#45;&gt;Node3</title>
<g id="a_edge2_Node000002_Node000003"><a xlink:title=" ">
<path fill="none" stroke="#63b8ff" d="M536.51,-56.11C528.63,-56.98 520.61,-57.86 512.72,-58.73"/>
<polygon fill="#63b8ff" stroke="#63b8ff" points="536.86,-59.6 546.41,-55.02 536.09,-52.64 536.86,-59.6"/>
</a>
</g>
</g>
<!-- Node7 -->
<g id="Node000007" class="node">
<title>Node7</title>
<g id="a_Node000007"><a xlink:href="../../d8/d52/class_a_e_log_parser.html#ae8545d9e179171cd0ea6cf462c755715" target="_top" xlink:title="Filters the passed queue according to the given severity.">
<polygon fill="white" stroke="#666666" points="510,-39 362.75,-39 362.75,-19 510,-19 510,-39"/>
<text text-anchor="middle" x="436.38" y="-25.5" font-family="Helvetica,sans-Serif" font-size="10.00">AELogParser::filterQueueType</text>
</a>
</g>
</g>
<!-- Node2&#45;&gt;Node7 -->
<g id="edge6_Node000002_Node000007" class="edge">
<title>Node2&#45;&gt;Node7</title>
<g id="a_edge6_Node000002_Node000007"><a xlink:title=" ">
<path fill="none" stroke="#63b8ff" d="M536.61,-39.9C527.91,-38.94 519.03,-37.97 510.34,-37.01"/>
<polygon fill="#63b8ff" stroke="#63b8ff" points="536.09,-43.36 546.41,-40.98 536.86,-36.4 536.09,-43.36"/>
</a>
</g>
</g>
<!-- Node4 -->
<g id="Node000004" class="node">
<title>Node4</title>
<g id="a_Node000004"><a xlink:href="../../d8/d52/class_a_e_log_parser.html#a182d51b4aa5771e2e6f6919300e571ca" target="_top" xlink:title="Same as the AELogParser::nextEntry() but on massive scale – scans the whole log file and parses it to...">
<polygon fill="white" stroke="#666666" points="324.5,-77 193,-77 193,-57 324.5,-57 324.5,-77"/>
<text text-anchor="middle" x="258.75" y="-63.5" font-family="Helvetica,sans-Serif" font-size="10.00">AELogParser::logToQueue</text>
</a>
</g>
</g>
<!-- Node3&#45;&gt;Node4 -->
<g id="edge3_Node000003_Node000004" class="edge">
<title>Node3&#45;&gt;Node4</title>
<g id="a_edge3_Node000003_Node000004"><a xlink:title=" ">
<path fill="none" stroke="#63b8ff" d="M348.79,-67C340.75,-67 332.69,-67 324.88,-67"/>
<polygon fill="#63b8ff" stroke="#63b8ff" points="348.62,-70.5 358.62,-67 348.62,-63.5 348.62,-70.5"/>
</a>
</g>
</g>
<!-- Node5 -->
<g id="Node000005" class="node">
<title>Node5</title>
<g id="a_Node000005"><a xlink:href="../../d8/d52/class_a_e_log_parser.html#ae5044cf01623156d91ddc74492b0aeda" target="_top" xlink:title="A shortcut to AELogParser::logToQueue() to filter only by the module name of the log entries.">
<polygon fill="white" stroke="#666666" points="157,-96 0,-96 0,-76 157,-76 157,-96"/>
<text text-anchor="middle" x="78.5" y="-82.5" font-family="Helvetica,sans-Serif" font-size="10.00">AELogParser::logToQueueName</text>
</a>
</g>
</g>
<!-- Node4&#45;&gt;Node5 -->
<g id="edge4_Node000004_Node000005" class="edge">
<title>Node4&#45;&gt;Node5</title>
<g id="a_edge4_Node000004_Node000005"><a xlink:title=" ">
<path fill="none" stroke="#63b8ff" d="M181.23,-75.16C173.35,-76 165.34,-76.85 157.45,-77.69"/>
<polygon fill="#63b8ff" stroke="#63b8ff" points="181.56,-78.64 191.14,-74.1 180.82,-71.68 181.56,-78.64"/>
</a>
</g>
</g>
<!-- Node6 -->
<g id="Node000006" class="node">
<title>Node6</title>
<g id="a_Node000006"><a xlink:href="../../d8/d52/class_a_e_log_parser.html#ab84bb93f08ed48082f74b00290deb308" target="_top" xlink:title="A shortcut to AELogParser::logToQueue() to filter only by type/severity of the log entries.">
<polygon fill="white" stroke="#666666" points="154.75,-58 2.25,-58 2.25,-38 154.75,-38 154.75,-58"/>
<text text-anchor="middle" x="78.5" y="-44.5" font-family="Helvetica,sans-Serif" font-size="10.00">AELogParser::logToQueueType</text>
</a>
</g>
</g>
<!-- Node4&#45;&gt;Node6 -->
<g id="edge5_Node000004_Node000006" class="edge">
<title>Node4&#45;&gt;Node6</title>
<g id="a_edge5_Node000004_Node000006"><a xlink:title=" ">
<path fill="none" stroke="#63b8ff" d="M181.31,-58.85C172.59,-57.92 163.71,-56.98 155.01,-56.05"/>
<polygon fill="#63b8ff" stroke="#63b8ff" points="180.82,-62.32 191.14,-59.9 181.56,-55.36 180.82,-62.32"/>
</a>
</g>
</g>
</g>
</svg>
